M48
; DRILL file {KiCad 8.0.0-8.0.0-1~ubuntu22.04.1} date 2024-03-08T11:34:04-0800
; FORMAT={-:-/ absolute / inch / decimal}
; #@! TF.CreationDate,2024-03-08T11:34:04-08:00
; #@! TF.GenerationSoftware,Kicad,Pcbnew,8.0.0-8.0.0-1~ubuntu22.04.1
; #@! TF.FileFunction,Plated,1,4,PTH
FMAT,2
INCH
; #@! TA.AperFunction,Plated,PTH,ComponentDrill
T1C0.0098
; #@! TA.AperFunction,Plated,PTH,ViaDrill
T2C0.0157
; #@! TA.AperFunction,Plated,PTH,ComponentDrill
T3C0.0197
; #@! TA.AperFunction,Plated,PTH,ComponentDrill
T4C0.0354
; #@! TA.AperFunction,Plated,PTH,ComponentDrill
T5C0.0394
; #@! TA.AperFunction,Plated,PTH,ComponentDrill
T6C0.0433
; #@! TA.AperFunction,Plated,PTH,ComponentDrill
T7C0.0591
; #@! TA.AperFunction,Plated,PTH,ComponentDrill
T8C0.1260
%
G90
G05
T1
X7.2743Y-2.5697
X7.3137Y-2.5697
T2
X5.1432Y-3.8611
X5.1435Y-4.0189
X5.1435Y-4.1764
X5.1436Y-3.7036
X5.342Y-3.474
X5.4356Y-2.8522
X5.4494Y-2.99
X5.526Y-3.016
X5.582Y-3.272
X5.6312Y-1.9152
X5.6312Y-1.9652
X5.6312Y-2.0132
X5.6662Y-3.2789
X5.6662Y-3.3429
X5.68Y-3.42
X5.72Y-3.452
X5.74Y-3.11
X5.7584Y-2.906
X5.76Y-3.482
X5.796Y-3.514
X5.896Y-2.866
X5.8996Y-2.7047
X5.938Y-3.652
X5.958Y-3.066
X5.964Y-3.192
X5.968Y-2.866
X6.0Y-2.8091
X6.006Y-3.652
X6.012Y-3.212
X6.0197Y-2.7717
X6.0217Y-3.376
X6.06Y-3.234
X6.061Y-3.3602
X6.0612Y-2.1072
X6.072Y-3.704
X6.072Y-4.08
X6.0952Y-2.1072
X6.104Y-3.274
X6.124Y-3.99
X6.13Y-3.52
X6.13Y-3.656
X6.132Y-3.58
X6.156Y-3.386
X6.16Y-3.626
X6.172Y-3.994
X6.1982Y-2.6696
X6.212Y-3.372
X6.2172Y-1.8092
X6.2172Y-1.9812
X6.222Y-3.686
X6.222Y-4.08
X6.2252Y-1.8592
X6.2252Y-1.8952
X6.256Y-3.994
X6.2657Y-3.2165
X6.2684Y-2.3433
X6.2736Y-3.2736
X6.276Y-3.584
X6.2776Y-3.315
X6.288Y-3.372
X6.348Y-3.584
X6.3524Y-1.9429
X6.374Y-2.9961
X6.4114Y-3.2953
X6.496Y-3.222
X6.5Y-3.3
X6.512Y-3.402
X6.5159Y-4.033
X6.556Y-3.268
X6.572Y-3.028
X6.572Y-3.096
X6.5804Y-3.807
X6.6102Y-3.4114
X6.6102Y-3.4528
X6.622Y-3.5556
X6.6344Y-3.859
X6.644Y-3.186
X6.6594Y-3.9055
X6.6624Y-3.589
X6.676Y-3.304
X6.685Y-3.4154
X6.7061Y-3.5647
X6.7087Y-3.9035
X6.7559Y-3.9035
X6.7572Y-3.5588
X6.7778Y-2.5022
X6.8025Y-3.5804
X6.8143Y-2.2231
X6.8183Y-3.6178
X6.8683Y-2.0947
X6.9003Y-2.0947
X6.9114Y-3.7736
X6.9134Y-3.6043
X6.9224Y-2.7264
X6.9547Y-3.8583
X6.9667Y-3.6083
X6.9724Y-2.7264
X6.9883Y-2.14
X6.9902Y-3.3819
X6.9946Y-4.0459
X7.0059Y-3.561
X7.0204Y-2.7264
X7.0236Y-3.8583
X7.0374Y-3.5886
X7.061Y-3.5177
X7.0678Y-3.7978
X7.1063Y-2.8071
X7.1123Y-2.264
X7.1123Y-2.298
X7.128Y-3.272
X7.1358Y-3.5571
X7.1496Y-3.7539
X7.1654Y-3.5846
X7.1732Y-3.6319
X7.1781Y-3.6797
X7.189Y-2.7657
X7.194Y-3.296
X7.2047Y-3.561
X7.2185Y-2.1047
X7.228Y-2.5317
X7.2441Y-3.3465
X7.256Y-3.402
X7.26Y-3.47
X7.2677Y-3.0177
X7.3Y-3.446
X7.3982Y-3.0295
X7.4004Y-2.6375
X7.442Y-2.5005
X7.4474Y-2.9651
X7.448Y-2.5685
X7.4494Y-3.0751
X7.4494Y-3.1591
X7.4494Y-3.2671
X7.4535Y-2.7615
T3
X5.0896Y-4.372
X5.2224Y-2.3051
X5.685Y-2.3169
X6.4321Y-4.0709
X6.5906Y-1.7697
X6.648Y-3.058
X6.7839Y-2.638
X6.9016Y-3.0118
X6.9074Y-3.3313
X6.9094Y-3.4213
X6.9094Y-4.0059
X7.3622Y-3.748
T4
X5.2382Y-2.0157
X5.3169Y-2.0157
X5.3957Y-2.0157
T5
X4.9252Y-2.4628
X4.9252Y-2.5628
X4.9252Y-2.6628
X4.9252Y-2.7628
X4.9253Y-2.2012
X4.9253Y-2.3012
X5.478Y-4.3701
X5.578Y-4.3701
X5.678Y-4.3701
X5.7293Y-3.9469
X5.7293Y-4.0469
X5.778Y-4.3701
X5.878Y-4.3701
X5.978Y-4.3701
X6.0236Y-2.3071
X6.078Y-4.3701
X6.2858Y-4.3701
X6.3858Y-4.3701
X6.4787Y-2.1055
X6.4787Y-2.2055
X6.4787Y-2.3055
X6.4787Y-2.4055
X6.4787Y-2.5055
X6.5787Y-2.1055
X6.5787Y-2.2055
X6.5787Y-2.3055
X6.5787Y-2.4055
X6.5787Y-2.5055
X6.638Y-4.1736
X6.638Y-4.2736
X6.638Y-4.3736
X6.7811Y-1.9713
X6.8811Y-1.9713
X7.0427Y-1.9705
X7.1171Y-4.274
X7.1171Y-4.374
X7.1427Y-1.9705
X7.2842Y-2.3839
X7.3573Y-3.6018
X7.3602Y-3.9567
X7.3842Y-2.3839
X7.4573Y-3.6018
T6
X4.9587Y-2.9548
X4.9587Y-3.132
X4.9587Y-3.344
X4.9587Y-3.5212
X5.2146Y-2.9548
X5.2146Y-3.132
X5.2146Y-3.344
X5.2146Y-3.5212
T7
X5.1555Y-2.0157
X5.4783Y-2.0157
T8
X4.825Y-4.375
X4.872Y-1.838
X7.375Y-1.838
X7.375Y-4.375
M30
