%TF.GenerationSoftware,KiCad,Pcbnew,8.0.0-8.0.0-1~ubuntu22.04.1*%
%TF.CreationDate,2024-03-08T11:34:30-08:00*%
%TF.ProjectId,A1-FlightComputer,41312d46-6c69-4676-9874-436f6d707574,rev?*%
%TF.SameCoordinates,Original*%
%TF.FileFunction,Soldermask,Top*%
%TF.FilePolarity,Negative*%
%FSLAX46Y46*%
G04 Gerber Fmt 4.6, Leading zero omitted, Abs format (unit mm)*
G04 Created by KiCad (PCBNEW 8.0.0-8.0.0-1~ubuntu22.04.1) date 2024-03-08 11:34:30*
%MOMM*%
%LPD*%
G01*
G04 APERTURE LIST*
G04 Aperture macros list*
%AMRoundRect*
0 Rectangle with rounded corners*
0 $1 Rounding radius*
0 $2 $3 $4 $5 $6 $7 $8 $9 X,Y pos of 4 corners*
0 Add a 4 corners polygon primitive as box body*
4,1,4,$2,$3,$4,$5,$6,$7,$8,$9,$2,$3,0*
0 Add four circle primitives for the rounded corners*
1,1,$1+$1,$2,$3*
1,1,$1+$1,$4,$5*
1,1,$1+$1,$6,$7*
1,1,$1+$1,$8,$9*
0 Add four rect primitives between the rounded corners*
20,1,$1+$1,$2,$3,$4,$5,0*
20,1,$1+$1,$4,$5,$6,$7,0*
20,1,$1+$1,$6,$7,$8,$9,0*
20,1,$1+$1,$8,$9,$2,$3,0*%
%AMFreePoly0*
4,1,19,0.499999,-0.750000,0.000000,-0.750000,0.000000,-0.744912,-0.071157,-0.744911,-0.207708,-0.704816,-0.327430,-0.627875,-0.420627,-0.520320,-0.479746,-0.390866,-0.500000,-0.250000,-0.500000,0.250000,-0.479746,0.390866,-0.420627,0.520320,-0.327430,0.627875,-0.207708,0.704816,-0.071157,0.744911,0.000000,0.744912,0.000000,0.750000,0.499999,0.750000,0.499999,-0.750000,0.499999,-0.750000,
$1*%
%AMFreePoly1*
4,1,19,0.000000,0.744912,0.071157,0.744911,0.207708,0.704816,0.327430,0.627875,0.420627,0.520320,0.479746,0.390866,0.500000,0.250000,0.500000,-0.250000,0.479746,-0.390866,0.420627,-0.520320,0.327430,-0.627875,0.207708,-0.704816,0.071157,-0.744911,0.000000,-0.744912,0.000000,-0.750000,-0.499999,-0.750000,-0.499999,0.750000,0.000000,0.750000,0.000000,0.744912,0.000000,0.744912,
$1*%
G04 Aperture macros list end*
%ADD10RoundRect,0.237500X0.300000X0.237500X-0.300000X0.237500X-0.300000X-0.237500X0.300000X-0.237500X0*%
%ADD11RoundRect,0.237500X-0.237500X0.300000X-0.237500X-0.300000X0.237500X-0.300000X0.237500X0.300000X0*%
%ADD12RoundRect,0.250000X0.375000X0.625000X-0.375000X0.625000X-0.375000X-0.625000X0.375000X-0.625000X0*%
%ADD13RoundRect,0.237500X0.237500X-0.300000X0.237500X0.300000X-0.237500X0.300000X-0.237500X-0.300000X0*%
%ADD14R,1.700000X1.700000*%
%ADD15O,1.700000X1.700000*%
%ADD16FreePoly0,225.000000*%
%ADD17FreePoly1,225.000000*%
%ADD18RoundRect,0.237500X-0.250000X-0.237500X0.250000X-0.237500X0.250000X0.237500X-0.250000X0.237500X0*%
%ADD19RoundRect,0.250000X0.625000X-0.375000X0.625000X0.375000X-0.625000X0.375000X-0.625000X-0.375000X0*%
%ADD20RoundRect,0.237500X0.250000X0.237500X-0.250000X0.237500X-0.250000X-0.237500X0.250000X-0.237500X0*%
%ADD21C,1.000000*%
%ADD22RoundRect,0.237500X-0.237500X0.250000X-0.237500X-0.250000X0.237500X-0.250000X0.237500X0.250000X0*%
%ADD23RoundRect,0.125000X0.125000X-0.200000X0.125000X0.200000X-0.125000X0.200000X-0.125000X-0.200000X0*%
%ADD24R,4.300000X3.400000*%
%ADD25R,1.800000X1.750000*%
%ADD26C,6.400000*%
%ADD27RoundRect,0.075000X-0.700000X-0.075000X0.700000X-0.075000X0.700000X0.075000X-0.700000X0.075000X0*%
%ADD28RoundRect,0.075000X-0.075000X-0.700000X0.075000X-0.700000X0.075000X0.700000X-0.075000X0.700000X0*%
%ADD29RoundRect,0.250000X-0.300000X0.300000X-0.300000X-0.300000X0.300000X-0.300000X0.300000X0.300000X0*%
%ADD30R,2.500000X1.900000*%
%ADD31FreePoly0,180.000000*%
%ADD32FreePoly1,180.000000*%
%ADD33R,1.400000X0.400000*%
%ADD34R,1.900000X2.300000*%
%ADD35R,1.900000X1.800000*%
%ADD36C,2.000000*%
%ADD37R,1.500000X2.000000*%
%ADD38R,3.800000X2.000000*%
%ADD39RoundRect,0.237500X-0.300000X-0.237500X0.300000X-0.237500X0.300000X0.237500X-0.300000X0.237500X0*%
%ADD40O,2.200000X3.500000*%
%ADD41R,1.500000X2.500000*%
%ADD42O,1.500000X2.500000*%
%ADD43RoundRect,0.250000X-0.625000X0.375000X-0.625000X-0.375000X0.625000X-0.375000X0.625000X0.375000X0*%
%ADD44R,0.351536X0.576580*%
%ADD45R,0.576580X0.351536*%
%ADD46RoundRect,0.062500X0.062500X-0.375000X0.062500X0.375000X-0.062500X0.375000X-0.062500X-0.375000X0*%
%ADD47RoundRect,0.062500X0.375000X-0.062500X0.375000X0.062500X-0.375000X0.062500X-0.375000X-0.062500X0*%
%ADD48R,3.600000X3.600000*%
%ADD49R,0.250000X0.500000*%
%ADD50R,1.600000X0.900000*%
%ADD51RoundRect,0.237500X0.237500X-0.250000X0.237500X0.250000X-0.237500X0.250000X-0.237500X-0.250000X0*%
%ADD52R,0.254000X0.279400*%
%ADD53R,0.279400X0.254000*%
%ADD54R,2.000000X1.500000*%
%ADD55R,2.000000X3.800000*%
%ADD56R,0.700000X1.000000*%
%ADD57R,0.700000X0.600000*%
%ADD58RoundRect,0.250000X0.300000X0.300000X-0.300000X0.300000X-0.300000X-0.300000X0.300000X-0.300000X0*%
G04 APERTURE END LIST*
D10*
%TO.C,C207*%
X152551300Y-89692000D03*
X150826300Y-89692000D03*
%TD*%
D11*
%TO.C,C304*%
X175950000Y-92787500D03*
X175950000Y-94512500D03*
%TD*%
D12*
%TO.C,D303*%
X139311200Y-98098000D03*
X136511200Y-98098000D03*
%TD*%
D13*
%TO.C,C401*%
X156646400Y-47679300D03*
X156646400Y-45954300D03*
%TD*%
D14*
%TO.C,SW301*%
X125103298Y-58450000D03*
D15*
X125103298Y-55910000D03*
%TD*%
D16*
%TO.C,JP203*%
X160300000Y-66150000D03*
D17*
X159380762Y-67069238D03*
%TD*%
D18*
%TO.C,R201*%
X135402700Y-75960800D03*
X137227700Y-75960800D03*
%TD*%
D12*
%TO.C,D304*%
X139311200Y-94098000D03*
X136511200Y-94098000D03*
%TD*%
%TO.C,D301*%
X139311200Y-106098000D03*
X136511200Y-106098000D03*
%TD*%
D18*
%TO.C,R203*%
X151487500Y-68700000D03*
X153312500Y-68700000D03*
%TD*%
D19*
%TO.C,D201*%
X157460600Y-63214600D03*
X157460600Y-60414600D03*
%TD*%
D20*
%TO.C,R306*%
X133823700Y-98098000D03*
X131998700Y-98098000D03*
%TD*%
D14*
%TO.C,J301*%
X154380000Y-111000000D03*
D15*
X151840000Y-111000000D03*
X149300000Y-111000000D03*
X146760000Y-111000000D03*
X144220000Y-111000000D03*
X141680000Y-111000000D03*
X139140000Y-111000000D03*
%TD*%
D13*
%TO.C,C302*%
X178917600Y-87579200D03*
X178917600Y-85854200D03*
%TD*%
D18*
%TO.C,R204*%
X142089500Y-81381600D03*
X143914500Y-81381600D03*
%TD*%
D11*
%TO.C,C214*%
X163982400Y-76912300D03*
X163982400Y-78637300D03*
%TD*%
D21*
%TO.C,TP205*%
X132650000Y-58550000D03*
%TD*%
%TO.C,TP401*%
X167400000Y-44950000D03*
%TD*%
%TO.C,TP207*%
X187000000Y-95200000D03*
%TD*%
D22*
%TO.C,R402*%
X156646400Y-50271200D03*
X156646400Y-52096200D03*
%TD*%
D23*
%TO.C,U202*%
X154228800Y-102597600D03*
X155498800Y-102597600D03*
X156768800Y-102597600D03*
X158038800Y-102597600D03*
X158038800Y-95097600D03*
X156768800Y-95097600D03*
X155498800Y-95097600D03*
X154228800Y-95097600D03*
D24*
X156133800Y-98847600D03*
%TD*%
D11*
%TO.C,C201*%
X144840000Y-73813500D03*
X144840000Y-75538500D03*
%TD*%
D25*
%TO.C,Y201*%
X142655600Y-78028200D03*
X142655600Y-74778200D03*
%TD*%
D13*
%TO.C,C305*%
X189313869Y-68752900D03*
X189313869Y-67027900D03*
%TD*%
D16*
%TO.C,JP204*%
X162950000Y-67200000D03*
D17*
X162030762Y-68119238D03*
%TD*%
D21*
%TO.C,TP402*%
X172310000Y-67005600D03*
%TD*%
%TO.C,TP201*%
X175449200Y-84614000D03*
%TD*%
D22*
%TO.C,R303*%
X165505000Y-103710000D03*
X165505000Y-105535000D03*
%TD*%
D10*
%TO.C,C402*%
X174824000Y-57658800D03*
X173099000Y-57658800D03*
%TD*%
D14*
%TO.C,J202*%
X153000000Y-58600000D03*
%TD*%
D26*
%TO.C,H104*%
X122555000Y-111125000D03*
%TD*%
D27*
%TO.C,U201*%
X150003000Y-78139400D03*
X150003000Y-78639400D03*
X150003000Y-79139400D03*
X150003000Y-79639400D03*
X150003000Y-80139400D03*
X150003000Y-80639400D03*
X150003000Y-81139400D03*
X150003000Y-81639400D03*
X150003000Y-82139400D03*
X150003000Y-82639400D03*
X150003000Y-83139400D03*
X150003000Y-83639400D03*
X150003000Y-84139400D03*
X150003000Y-84639400D03*
X150003000Y-85139400D03*
X150003000Y-85639400D03*
D28*
X151928000Y-87564400D03*
X152428000Y-87564400D03*
X152928000Y-87564400D03*
X153428000Y-87564400D03*
X153928000Y-87564400D03*
X154428000Y-87564400D03*
X154928000Y-87564400D03*
X155428000Y-87564400D03*
X155928000Y-87564400D03*
X156428000Y-87564400D03*
X156928000Y-87564400D03*
X157428000Y-87564400D03*
X157928000Y-87564400D03*
X158428000Y-87564400D03*
X158928000Y-87564400D03*
X159428000Y-87564400D03*
D27*
X161353000Y-85639400D03*
X161353000Y-85139400D03*
X161353000Y-84639400D03*
X161353000Y-84139400D03*
X161353000Y-83639400D03*
X161353000Y-83139400D03*
X161353000Y-82639400D03*
X161353000Y-82139400D03*
X161353000Y-81639400D03*
X161353000Y-81139400D03*
X161353000Y-80639400D03*
X161353000Y-80139400D03*
X161353000Y-79639400D03*
X161353000Y-79139400D03*
X161353000Y-78639400D03*
X161353000Y-78139400D03*
D28*
X159428000Y-76214400D03*
X158928000Y-76214400D03*
X158428000Y-76214400D03*
X157928000Y-76214400D03*
X157428000Y-76214400D03*
X156928000Y-76214400D03*
X156428000Y-76214400D03*
X155928000Y-76214400D03*
X155428000Y-76214400D03*
X154928000Y-76214400D03*
X154428000Y-76214400D03*
X153928000Y-76214400D03*
X153428000Y-76214400D03*
X152928000Y-76214400D03*
X152428000Y-76214400D03*
X151928000Y-76214400D03*
%TD*%
D21*
%TO.C,TP208*%
X129275000Y-111050000D03*
%TD*%
D11*
%TO.C,C306*%
X187858800Y-63514300D03*
X187858800Y-65239300D03*
%TD*%
D14*
%TO.C,J304*%
X180775000Y-111100000D03*
D15*
X180775000Y-108560000D03*
%TD*%
D21*
%TO.C,TP206*%
X175300000Y-76500000D03*
%TD*%
D11*
%TO.C,C405*%
X154665200Y-50323100D03*
X154665200Y-52048100D03*
%TD*%
D29*
%TO.C,D404*%
X184612600Y-78033100D03*
X184612600Y-80833100D03*
%TD*%
D30*
%TO.C,Y202*%
X137312400Y-82702400D03*
X137312400Y-78302400D03*
%TD*%
D14*
%TO.C,J201*%
X186950000Y-100500000D03*
%TD*%
D31*
%TO.C,JP202*%
X137299998Y-67650000D03*
D32*
X136000000Y-67650000D03*
%TD*%
D33*
%TO.C,J402*%
X187889500Y-80432600D03*
X187889500Y-79782600D03*
X187889500Y-79132600D03*
X187889500Y-78482600D03*
X187889500Y-77832600D03*
D34*
X190739500Y-82882600D03*
D35*
X190739500Y-80282600D03*
X190739500Y-77982600D03*
D34*
X190739500Y-75382600D03*
%TD*%
D36*
%TO.C,SW202*%
X125950000Y-84937600D03*
X132450000Y-84937600D03*
X125950000Y-89437600D03*
X132450000Y-89437600D03*
%TD*%
D14*
%TO.C,J305*%
X186875000Y-91485000D03*
D15*
X189415000Y-91485000D03*
%TD*%
D13*
%TO.C,C212*%
X145293600Y-84958500D03*
X145293600Y-83233500D03*
%TD*%
D12*
%TO.C,D402*%
X179215600Y-53450000D03*
X182015600Y-53450000D03*
%TD*%
D21*
%TO.C,TP209*%
X168859200Y-77673200D03*
%TD*%
D37*
%TO.C,U401*%
X179410000Y-60655600D03*
X177110000Y-60655600D03*
D38*
X177110000Y-66955600D03*
D37*
X174810000Y-60655600D03*
%TD*%
D39*
%TO.C,C210*%
X149749700Y-74121400D03*
X151474700Y-74121400D03*
%TD*%
D14*
%TO.C,J303*%
X125100000Y-70175000D03*
D15*
X125100000Y-67635000D03*
X125100000Y-65095000D03*
X125100000Y-62555000D03*
%TD*%
D40*
%TO.C,SW203*%
X139150000Y-51200000D03*
X130950000Y-51200000D03*
D41*
X137050000Y-51200000D03*
D42*
X135050000Y-51200000D03*
X133050000Y-51200000D03*
%TD*%
D18*
%TO.C,R401*%
X177414800Y-55677600D03*
X179239800Y-55677600D03*
%TD*%
D20*
%TO.C,R305*%
X133823700Y-102098000D03*
X131998700Y-102098000D03*
%TD*%
D43*
%TO.C,D403*%
X159550000Y-49350000D03*
X159550000Y-52150000D03*
%TD*%
D18*
%TO.C,R206*%
X180397100Y-78675400D03*
X182222100Y-78675400D03*
%TD*%
D39*
%TO.C,C404*%
X177466700Y-57658800D03*
X179191700Y-57658800D03*
%TD*%
D44*
%TO.C,U302*%
X180200000Y-92279400D03*
X179699999Y-92279400D03*
X179199999Y-92279400D03*
X178699998Y-92279400D03*
D45*
X178493699Y-92989701D03*
X178493699Y-93489700D03*
X178493699Y-93989699D03*
D44*
X178699998Y-94700000D03*
X179199999Y-94700000D03*
X179699999Y-94700000D03*
X180200000Y-94700000D03*
D45*
X180406299Y-93989699D03*
X180406299Y-93489700D03*
X180406299Y-92989701D03*
%TD*%
D10*
%TO.C,C209*%
X161238100Y-89712800D03*
X159513100Y-89712800D03*
%TD*%
D21*
%TO.C,TP204*%
X175500000Y-101750000D03*
%TD*%
D14*
%TO.C,J204*%
X145525000Y-100250000D03*
D15*
X145525000Y-102790000D03*
%TD*%
D18*
%TO.C,R205*%
X180399000Y-80301000D03*
X182224000Y-80301000D03*
%TD*%
D39*
%TO.C,C301*%
X181255500Y-89255600D03*
X182980500Y-89255600D03*
%TD*%
D26*
%TO.C,H103*%
X187325000Y-111125000D03*
%TD*%
D14*
%TO.C,J306*%
X187558800Y-60551993D03*
D15*
X185018800Y-60551993D03*
%TD*%
D14*
%TO.C,J203*%
X159660000Y-111000000D03*
D15*
X162200000Y-111000000D03*
%TD*%
D20*
%TO.C,R304*%
X133823700Y-106098000D03*
X131998700Y-106098000D03*
%TD*%
D18*
%TO.C,R202*%
X135402700Y-74160800D03*
X137227700Y-74160800D03*
%TD*%
D46*
%TO.C,U304*%
X169200000Y-97887500D03*
X169700000Y-97887500D03*
X170200000Y-97887500D03*
X170700000Y-97887500D03*
X171200000Y-97887500D03*
X171700000Y-97887500D03*
X172200000Y-97887500D03*
X172700000Y-97887500D03*
D47*
X173387500Y-97200000D03*
X173387500Y-96700000D03*
X173387500Y-96200000D03*
X173387500Y-95700000D03*
X173387500Y-95200000D03*
X173387500Y-94700000D03*
X173387500Y-94200000D03*
X173387500Y-93700000D03*
D46*
X172700000Y-93012500D03*
X172200000Y-93012500D03*
X171700000Y-93012500D03*
X171200000Y-93012500D03*
X170700000Y-93012500D03*
X170200000Y-93012500D03*
X169700000Y-93012500D03*
X169200000Y-93012500D03*
D47*
X168512500Y-93700000D03*
X168512500Y-94200000D03*
X168512500Y-94700000D03*
X168512500Y-95200000D03*
X168512500Y-95700000D03*
X168512500Y-96200000D03*
X168512500Y-96700000D03*
X168512500Y-97200000D03*
D48*
X170950000Y-95450000D03*
%TD*%
D13*
%TO.C,C204*%
X140372200Y-83107700D03*
X140372200Y-81382700D03*
%TD*%
%TO.C,C211*%
X146970000Y-84958500D03*
X146970000Y-83233500D03*
%TD*%
D31*
%TO.C,JP301*%
X187177600Y-68624393D03*
D32*
X185877600Y-68624393D03*
%TD*%
D36*
%TO.C,SW201*%
X132450000Y-79552800D03*
X125950000Y-79552800D03*
X132450000Y-75052800D03*
X125950000Y-75052800D03*
%TD*%
D49*
%TO.C,U303*%
X186018000Y-64321593D03*
X185518000Y-64321593D03*
X185018000Y-64321593D03*
X184518000Y-64321593D03*
X184518000Y-66221593D03*
X185018000Y-66221593D03*
X185518000Y-66221593D03*
X186018000Y-66221593D03*
D50*
X185268000Y-65271593D03*
%TD*%
D20*
%TO.C,R307*%
X133823700Y-94098000D03*
X131998700Y-94098000D03*
%TD*%
D11*
%TO.C,C203*%
X140372200Y-77928300D03*
X140372200Y-79653300D03*
%TD*%
D21*
%TO.C,TP203*%
X175500000Y-86900000D03*
%TD*%
D31*
%TO.C,JP201*%
X137299998Y-65100000D03*
D32*
X136000000Y-65100000D03*
%TD*%
D13*
%TO.C,C202*%
X144840000Y-78992900D03*
X144840000Y-77267900D03*
%TD*%
D21*
%TO.C,TP202*%
X163375000Y-103400000D03*
%TD*%
D51*
%TO.C,R301*%
X166624000Y-86408900D03*
X166624000Y-84583900D03*
%TD*%
D52*
%TO.C,U301*%
X181668237Y-87178374D03*
X182168363Y-87178374D03*
D53*
X182667600Y-86929200D03*
X182667600Y-86429074D03*
X182667600Y-85928948D03*
D52*
X182168363Y-85679774D03*
X181668237Y-85679774D03*
D53*
X181169000Y-85928948D03*
X181169000Y-86429074D03*
X181169000Y-86929200D03*
%TD*%
D11*
%TO.C,C205*%
X135686800Y-85294300D03*
X135686800Y-87019300D03*
%TD*%
D20*
%TO.C,R207*%
X159268600Y-58309400D03*
X157443600Y-58309400D03*
%TD*%
D11*
%TO.C,C213*%
X165658800Y-76912300D03*
X165658800Y-78637300D03*
%TD*%
D26*
%TO.C,H102*%
X187325000Y-46685200D03*
%TD*%
D14*
%TO.C,J205*%
X167100000Y-53480000D03*
D15*
X164560000Y-53480000D03*
X167100000Y-56020000D03*
X164560000Y-56020000D03*
X167100000Y-58560000D03*
X164560000Y-58560000D03*
X167100000Y-61100000D03*
X164560000Y-61100000D03*
X167100000Y-63640000D03*
X164560000Y-63640000D03*
%TD*%
D11*
%TO.C,C206*%
X139265200Y-72433100D03*
X139265200Y-74158100D03*
%TD*%
D22*
%TO.C,R302*%
X168402000Y-83720300D03*
X168402000Y-85545300D03*
%TD*%
D14*
%TO.C,J401*%
X172239400Y-50071000D03*
D15*
X174779400Y-50071000D03*
%TD*%
D10*
%TO.C,C303*%
X178362500Y-96800000D03*
X176637500Y-96800000D03*
%TD*%
D26*
%TO.C,H101*%
X123748800Y-46685200D03*
%TD*%
D12*
%TO.C,D302*%
X139311200Y-102098000D03*
X136511200Y-102098000D03*
%TD*%
D54*
%TO.C,U402*%
X151668400Y-52266400D03*
X151668400Y-49966400D03*
D55*
X145368400Y-49966400D03*
D54*
X151668400Y-47666400D03*
%TD*%
D56*
%TO.C,Q301*%
X180750000Y-104450000D03*
D57*
X180750000Y-102750000D03*
X178750000Y-102750000D03*
X178750000Y-104650000D03*
%TD*%
D58*
%TO.C,D401*%
X175100000Y-55248800D03*
X172300000Y-55248800D03*
%TD*%
D14*
%TO.C,SW401*%
X178884200Y-50051600D03*
D15*
X181424200Y-50051600D03*
%TD*%
D21*
%TO.C,TP403*%
X144400000Y-58850000D03*
%TD*%
D14*
%TO.C,J302*%
X168605000Y-106010000D03*
D15*
X168605000Y-108550000D03*
X168605000Y-111090000D03*
%TD*%
D13*
%TO.C,C403*%
X154665200Y-47680400D03*
X154665200Y-45955400D03*
%TD*%
D10*
%TO.C,C208*%
X152551300Y-91490800D03*
X150826300Y-91490800D03*
%TD*%
M02*
