%TF.GenerationSoftware,KiCad,Pcbnew,8.0.0-8.0.0-1~ubuntu22.04.1*%
%TF.CreationDate,2024-03-08T11:34:09-08:00*%
%TF.ProjectId,A1-FlightComputer,41312d46-6c69-4676-9874-436f6d707574,rev?*%
%TF.SameCoordinates,Original*%
%TF.FileFunction,Copper,L1,Top*%
%TF.FilePolarity,Positive*%
%FSLAX46Y46*%
G04 Gerber Fmt 4.6, Leading zero omitted, Abs format (unit mm)*
G04 Created by KiCad (PCBNEW 8.0.0-8.0.0-1~ubuntu22.04.1) date 2024-03-08 11:34:09*
%MOMM*%
%LPD*%
G01*
G04 APERTURE LIST*
G04 Aperture macros list*
%AMRoundRect*
0 Rectangle with rounded corners*
0 $1 Rounding radius*
0 $2 $3 $4 $5 $6 $7 $8 $9 X,Y pos of 4 corners*
0 Add a 4 corners polygon primitive as box body*
4,1,4,$2,$3,$4,$5,$6,$7,$8,$9,$2,$3,0*
0 Add four circle primitives for the rounded corners*
1,1,$1+$1,$2,$3*
1,1,$1+$1,$4,$5*
1,1,$1+$1,$6,$7*
1,1,$1+$1,$8,$9*
0 Add four rect primitives between the rounded corners*
20,1,$1+$1,$2,$3,$4,$5,0*
20,1,$1+$1,$4,$5,$6,$7,0*
20,1,$1+$1,$6,$7,$8,$9,0*
20,1,$1+$1,$8,$9,$2,$3,0*%
%AMFreePoly0*
4,1,19,0.499999,-0.750000,0.000000,-0.750000,0.000000,-0.744912,-0.071157,-0.744911,-0.207708,-0.704816,-0.327430,-0.627875,-0.420627,-0.520320,-0.479746,-0.390866,-0.500000,-0.250000,-0.500000,0.250000,-0.479746,0.390866,-0.420627,0.520320,-0.327430,0.627875,-0.207708,0.704816,-0.071157,0.744911,0.000000,0.744912,0.000000,0.750000,0.499999,0.750000,0.499999,-0.750000,0.499999,-0.750000,
$1*%
%AMFreePoly1*
4,1,19,0.000000,0.744912,0.071157,0.744911,0.207708,0.704816,0.327430,0.627875,0.420627,0.520320,0.479746,0.390866,0.500000,0.250000,0.500000,-0.250000,0.479746,-0.390866,0.420627,-0.520320,0.327430,-0.627875,0.207708,-0.704816,0.071157,-0.744911,0.000000,-0.744912,0.000000,-0.750000,-0.499999,-0.750000,-0.499999,0.750000,0.000000,0.750000,0.000000,0.744912,0.000000,0.744912,
$1*%
G04 Aperture macros list end*
%TA.AperFunction,EtchedComponent*%
%ADD10C,0.000000*%
%TD*%
%TA.AperFunction,SMDPad,CuDef*%
%ADD11RoundRect,0.237500X0.300000X0.237500X-0.300000X0.237500X-0.300000X-0.237500X0.300000X-0.237500X0*%
%TD*%
%TA.AperFunction,SMDPad,CuDef*%
%ADD12RoundRect,0.237500X-0.237500X0.300000X-0.237500X-0.300000X0.237500X-0.300000X0.237500X0.300000X0*%
%TD*%
%TA.AperFunction,SMDPad,CuDef*%
%ADD13RoundRect,0.250000X0.375000X0.625000X-0.375000X0.625000X-0.375000X-0.625000X0.375000X-0.625000X0*%
%TD*%
%TA.AperFunction,SMDPad,CuDef*%
%ADD14RoundRect,0.237500X0.237500X-0.300000X0.237500X0.300000X-0.237500X0.300000X-0.237500X-0.300000X0*%
%TD*%
%TA.AperFunction,ComponentPad*%
%ADD15R,1.700000X1.700000*%
%TD*%
%TA.AperFunction,ComponentPad*%
%ADD16O,1.700000X1.700000*%
%TD*%
%TA.AperFunction,SMDPad,CuDef*%
%ADD17FreePoly0,225.000000*%
%TD*%
%TA.AperFunction,SMDPad,CuDef*%
%ADD18FreePoly1,225.000000*%
%TD*%
%TA.AperFunction,SMDPad,CuDef*%
%ADD19RoundRect,0.237500X-0.250000X-0.237500X0.250000X-0.237500X0.250000X0.237500X-0.250000X0.237500X0*%
%TD*%
%TA.AperFunction,SMDPad,CuDef*%
%ADD20RoundRect,0.250000X0.625000X-0.375000X0.625000X0.375000X-0.625000X0.375000X-0.625000X-0.375000X0*%
%TD*%
%TA.AperFunction,SMDPad,CuDef*%
%ADD21RoundRect,0.237500X0.250000X0.237500X-0.250000X0.237500X-0.250000X-0.237500X0.250000X-0.237500X0*%
%TD*%
%TA.AperFunction,ComponentPad*%
%ADD22C,1.000000*%
%TD*%
%TA.AperFunction,SMDPad,CuDef*%
%ADD23RoundRect,0.237500X-0.237500X0.250000X-0.237500X-0.250000X0.237500X-0.250000X0.237500X0.250000X0*%
%TD*%
%TA.AperFunction,SMDPad,CuDef*%
%ADD24RoundRect,0.125000X0.125000X-0.200000X0.125000X0.200000X-0.125000X0.200000X-0.125000X-0.200000X0*%
%TD*%
%TA.AperFunction,SMDPad,CuDef*%
%ADD25R,4.300000X3.400000*%
%TD*%
%TA.AperFunction,SMDPad,CuDef*%
%ADD26R,1.800000X1.750000*%
%TD*%
%TA.AperFunction,ComponentPad*%
%ADD27C,6.400000*%
%TD*%
%TA.AperFunction,SMDPad,CuDef*%
%ADD28RoundRect,0.075000X-0.700000X-0.075000X0.700000X-0.075000X0.700000X0.075000X-0.700000X0.075000X0*%
%TD*%
%TA.AperFunction,SMDPad,CuDef*%
%ADD29RoundRect,0.075000X-0.075000X-0.700000X0.075000X-0.700000X0.075000X0.700000X-0.075000X0.700000X0*%
%TD*%
%TA.AperFunction,SMDPad,CuDef*%
%ADD30RoundRect,0.250000X-0.300000X0.300000X-0.300000X-0.300000X0.300000X-0.300000X0.300000X0.300000X0*%
%TD*%
%TA.AperFunction,SMDPad,CuDef*%
%ADD31R,2.500000X1.900000*%
%TD*%
%TA.AperFunction,SMDPad,CuDef*%
%ADD32FreePoly0,180.000000*%
%TD*%
%TA.AperFunction,SMDPad,CuDef*%
%ADD33FreePoly1,180.000000*%
%TD*%
%TA.AperFunction,SMDPad,CuDef*%
%ADD34R,1.400000X0.400000*%
%TD*%
%TA.AperFunction,SMDPad,CuDef*%
%ADD35R,1.900000X2.300000*%
%TD*%
%TA.AperFunction,SMDPad,CuDef*%
%ADD36R,1.900000X1.800000*%
%TD*%
%TA.AperFunction,ComponentPad*%
%ADD37C,2.000000*%
%TD*%
%TA.AperFunction,SMDPad,CuDef*%
%ADD38R,1.500000X2.000000*%
%TD*%
%TA.AperFunction,SMDPad,CuDef*%
%ADD39R,3.800000X2.000000*%
%TD*%
%TA.AperFunction,SMDPad,CuDef*%
%ADD40RoundRect,0.237500X-0.300000X-0.237500X0.300000X-0.237500X0.300000X0.237500X-0.300000X0.237500X0*%
%TD*%
%TA.AperFunction,ComponentPad*%
%ADD41O,2.200000X3.500000*%
%TD*%
%TA.AperFunction,ComponentPad*%
%ADD42R,1.500000X2.500000*%
%TD*%
%TA.AperFunction,ComponentPad*%
%ADD43O,1.500000X2.500000*%
%TD*%
%TA.AperFunction,SMDPad,CuDef*%
%ADD44RoundRect,0.250000X-0.625000X0.375000X-0.625000X-0.375000X0.625000X-0.375000X0.625000X0.375000X0*%
%TD*%
%TA.AperFunction,SMDPad,CuDef*%
%ADD45R,0.351536X0.576580*%
%TD*%
%TA.AperFunction,SMDPad,CuDef*%
%ADD46R,0.576580X0.351536*%
%TD*%
%TA.AperFunction,SMDPad,CuDef*%
%ADD47RoundRect,0.062500X0.062500X-0.375000X0.062500X0.375000X-0.062500X0.375000X-0.062500X-0.375000X0*%
%TD*%
%TA.AperFunction,SMDPad,CuDef*%
%ADD48RoundRect,0.062500X0.375000X-0.062500X0.375000X0.062500X-0.375000X0.062500X-0.375000X-0.062500X0*%
%TD*%
%TA.AperFunction,SMDPad,CuDef*%
%ADD49R,3.600000X3.600000*%
%TD*%
%TA.AperFunction,SMDPad,CuDef*%
%ADD50R,0.250000X0.500000*%
%TD*%
%TA.AperFunction,ComponentPad*%
%ADD51C,0.600000*%
%TD*%
%TA.AperFunction,SMDPad,CuDef*%
%ADD52R,1.600000X0.900000*%
%TD*%
%TA.AperFunction,SMDPad,CuDef*%
%ADD53RoundRect,0.237500X0.237500X-0.250000X0.237500X0.250000X-0.237500X0.250000X-0.237500X-0.250000X0*%
%TD*%
%TA.AperFunction,SMDPad,CuDef*%
%ADD54R,0.254000X0.279400*%
%TD*%
%TA.AperFunction,SMDPad,CuDef*%
%ADD55R,0.279400X0.254000*%
%TD*%
%TA.AperFunction,SMDPad,CuDef*%
%ADD56R,2.000000X1.500000*%
%TD*%
%TA.AperFunction,SMDPad,CuDef*%
%ADD57R,2.000000X3.800000*%
%TD*%
%TA.AperFunction,SMDPad,CuDef*%
%ADD58R,0.700000X1.000000*%
%TD*%
%TA.AperFunction,SMDPad,CuDef*%
%ADD59R,0.700000X0.600000*%
%TD*%
%TA.AperFunction,SMDPad,CuDef*%
%ADD60RoundRect,0.250000X0.300000X0.300000X-0.300000X0.300000X-0.300000X-0.300000X0.300000X-0.300000X0*%
%TD*%
%TA.AperFunction,ViaPad*%
%ADD61C,0.800000*%
%TD*%
%TA.AperFunction,Conductor*%
%ADD62C,0.400000*%
%TD*%
%TA.AperFunction,Conductor*%
%ADD63C,0.250000*%
%TD*%
%TA.AperFunction,Conductor*%
%ADD64C,0.200000*%
%TD*%
G04 APERTURE END LIST*
D10*
%TA.AperFunction,EtchedComponent*%
%TO.C,JP203*%
G36*
X160229290Y-66644974D02*
G01*
X159875736Y-66998528D01*
X159451472Y-66574264D01*
X159805026Y-66220710D01*
X160229290Y-66644974D01*
G37*
%TD.AperFunction*%
%TA.AperFunction,EtchedComponent*%
%TO.C,JP204*%
G36*
X162879290Y-67694974D02*
G01*
X162525736Y-68048528D01*
X162101472Y-67624264D01*
X162455026Y-67270710D01*
X162879290Y-67694974D01*
G37*
%TD.AperFunction*%
%TA.AperFunction,EtchedComponent*%
%TO.C,JP202*%
G36*
X136899999Y-67950000D02*
G01*
X136399999Y-67950000D01*
X136399999Y-67350000D01*
X136899999Y-67350000D01*
X136899999Y-67950000D01*
G37*
%TD.AperFunction*%
%TA.AperFunction,EtchedComponent*%
%TO.C,JP301*%
G36*
X186777600Y-68924393D02*
G01*
X186277600Y-68924393D01*
X186277600Y-68324393D01*
X186777600Y-68324393D01*
X186777600Y-68924393D01*
G37*
%TD.AperFunction*%
%TA.AperFunction,EtchedComponent*%
%TO.C,JP201*%
G36*
X136899999Y-65400000D02*
G01*
X136399999Y-65400000D01*
X136399999Y-64800000D01*
X136899999Y-64800000D01*
X136899999Y-65400000D01*
G37*
%TD.AperFunction*%
%TD*%
D11*
%TO.P,C207,1*%
%TO.N,+3V3*%
X152551300Y-89692000D03*
%TO.P,C207,2*%
%TO.N,GND*%
X150826300Y-89692000D03*
%TD*%
D12*
%TO.P,C304,1*%
%TO.N,+3V3*%
X175950000Y-92787500D03*
%TO.P,C304,2*%
%TO.N,GND*%
X175950000Y-94512500D03*
%TD*%
D13*
%TO.P,D303,1,K*%
%TO.N,/Peripherals/LED1*%
X139311200Y-98098000D03*
%TO.P,D303,2,A*%
%TO.N,Net-(D303-A)*%
X136511200Y-98098000D03*
%TD*%
D14*
%TO.P,C401,1*%
%TO.N,+BATT*%
X156646400Y-47679300D03*
%TO.P,C401,2*%
%TO.N,GND*%
X156646400Y-45954300D03*
%TD*%
D15*
%TO.P,SW301,1,A*%
%TO.N,Net-(J303-Pin_4)*%
X125103298Y-58450000D03*
D16*
%TO.P,SW301,2,B*%
%TO.N,GND*%
X125103298Y-55910000D03*
%TD*%
D17*
%TO.P,JP203,1,A*%
%TO.N,Net-(J205-Pin_10)*%
X160300000Y-66150000D03*
D18*
%TO.P,JP203,2,B*%
%TO.N,/STM32/DEBUG_RX*%
X159380762Y-67069238D03*
%TD*%
D19*
%TO.P,R201,1*%
%TO.N,Net-(R201-Pad1)*%
X135402700Y-75960800D03*
%TO.P,R201,2*%
%TO.N,GND*%
X137227700Y-75960800D03*
%TD*%
D13*
%TO.P,D304,1,K*%
%TO.N,/Peripherals/LED0*%
X139311200Y-94098000D03*
%TO.P,D304,2,A*%
%TO.N,Net-(D304-A)*%
X136511200Y-94098000D03*
%TD*%
%TO.P,D301,1,K*%
%TO.N,/Peripherals/LED3*%
X139311200Y-106098000D03*
%TO.P,D301,2,A*%
%TO.N,Net-(D301-A)*%
X136511200Y-106098000D03*
%TD*%
D19*
%TO.P,R203,1*%
%TO.N,Net-(SW203-B)*%
X151487500Y-68700000D03*
%TO.P,R203,2*%
%TO.N,/STM32/BOOT0*%
X153312500Y-68700000D03*
%TD*%
D20*
%TO.P,D201,1,K*%
%TO.N,/STM32/JTAG_CON*%
X157460600Y-63214600D03*
%TO.P,D201,2,A*%
%TO.N,Net-(D201-A)*%
X157460600Y-60414600D03*
%TD*%
D21*
%TO.P,R306,1*%
%TO.N,Net-(D303-A)*%
X133823700Y-98098000D03*
%TO.P,R306,2*%
%TO.N,+3V3*%
X131998700Y-98098000D03*
%TD*%
D15*
%TO.P,J301,1,Pin_1*%
%TO.N,+5V*%
X154380000Y-111000000D03*
D16*
%TO.P,J301,2,Pin_2*%
%TO.N,+3V3*%
X151840000Y-111000000D03*
%TO.P,J301,3,Pin_3*%
%TO.N,/Peripherals/STG0*%
X149300000Y-111000000D03*
%TO.P,J301,4,Pin_4*%
%TO.N,/Peripherals/STG1*%
X146760000Y-111000000D03*
%TO.P,J301,5,Pin_5*%
%TO.N,/Peripherals/STG2*%
X144220000Y-111000000D03*
%TO.P,J301,6,Pin_6*%
%TO.N,/Peripherals/STG3*%
X141680000Y-111000000D03*
%TO.P,J301,7,Pin_7*%
%TO.N,GND*%
X139140000Y-111000000D03*
%TD*%
D14*
%TO.P,C302,1*%
%TO.N,+3V3*%
X178917600Y-87579200D03*
%TO.P,C302,2*%
%TO.N,GND*%
X178917600Y-85854200D03*
%TD*%
D19*
%TO.P,R204,1*%
%TO.N,Net-(C204-Pad2)*%
X142089500Y-81381600D03*
%TO.P,R204,2*%
%TO.N,/STM32/HSE_OSC_OUT*%
X143914500Y-81381600D03*
%TD*%
D12*
%TO.P,C214,1*%
%TO.N,+3V3*%
X163982400Y-76912300D03*
%TO.P,C214,2*%
%TO.N,GND*%
X163982400Y-78637300D03*
%TD*%
D22*
%TO.P,TP205,1,1*%
%TO.N,GND*%
X132650000Y-58550000D03*
%TD*%
%TO.P,TP401,1,1*%
%TO.N,+BATT*%
X167400000Y-44950000D03*
%TD*%
%TO.P,TP207,1,1*%
%TO.N,GND*%
X187000000Y-95200000D03*
%TD*%
D23*
%TO.P,R402,1*%
%TO.N,+3V3*%
X156646400Y-50271200D03*
%TO.P,R402,2*%
%TO.N,Net-(D403-A)*%
X156646400Y-52096200D03*
%TD*%
D24*
%TO.P,U202,1,nCS*%
%TO.N,/STM32/QuadSPI_NCS*%
X154228800Y-102597600D03*
%TO.P,U202,2,IO1/DO*%
%TO.N,/STM32/QuadSPI_IO1*%
X155498800Y-102597600D03*
%TO.P,U202,3,IO2/nWP*%
%TO.N,/STM32/QuadSPI_IO2*%
X156768800Y-102597600D03*
%TO.P,U202,4,GND*%
%TO.N,GND*%
X158038800Y-102597600D03*
%TO.P,U202,5,IO0/DI*%
%TO.N,/STM32/QuadSPI_IO0*%
X158038800Y-95097600D03*
%TO.P,U202,6,CLK*%
%TO.N,/STM32/QuadSPI_CLK*%
X156768800Y-95097600D03*
%TO.P,U202,7,IO3/nHOLD*%
%TO.N,/STM32/QuadSPI_IO3*%
X155498800Y-95097600D03*
%TO.P,U202,8,VCC*%
%TO.N,+3V3*%
X154228800Y-95097600D03*
D25*
%TO.P,U202,9*%
%TO.N,N/C*%
X156133800Y-98847600D03*
%TD*%
D12*
%TO.P,C201,1*%
%TO.N,GND*%
X144840000Y-73813500D03*
%TO.P,C201,2*%
%TO.N,/STM32/LSE_OSC_IN*%
X144840000Y-75538500D03*
%TD*%
D26*
%TO.P,Y201,1,1*%
%TO.N,/STM32/LSE_OSC_OUT*%
X142655600Y-78028200D03*
%TO.P,Y201,2,2*%
%TO.N,/STM32/LSE_OSC_IN*%
X142655600Y-74778200D03*
%TD*%
D14*
%TO.P,C305,1*%
%TO.N,+5V*%
X189313869Y-68752900D03*
%TO.P,C305,2*%
%TO.N,GND*%
X189313869Y-67027900D03*
%TD*%
D17*
%TO.P,JP204,1,A*%
%TO.N,Net-(J205-Pin_9)*%
X162950000Y-67200000D03*
D18*
%TO.P,JP204,2,B*%
%TO.N,/STM32/DEBUG_TX*%
X162030762Y-68119238D03*
%TD*%
D22*
%TO.P,TP402,1,1*%
%TO.N,+5V*%
X172310000Y-67005600D03*
%TD*%
%TO.P,TP201,1,1*%
%TO.N,/Peripherals/I2C_SDA*%
X175449200Y-84614000D03*
%TD*%
D23*
%TO.P,R303,1*%
%TO.N,+3V3*%
X165505000Y-103710000D03*
%TO.P,R303,2*%
%TO.N,/Peripherals/Payload_TEMP*%
X165505000Y-105535000D03*
%TD*%
D11*
%TO.P,C402,1*%
%TO.N,+BATT*%
X174824000Y-57658800D03*
%TO.P,C402,2*%
%TO.N,GND*%
X173099000Y-57658800D03*
%TD*%
D15*
%TO.P,J202,1,Pin_1*%
%TO.N,/STM32/PC12*%
X153000000Y-58600000D03*
%TD*%
D27*
%TO.P,H104,1,1*%
%TO.N,unconnected-(H104-Pad1)*%
X122555000Y-111125000D03*
%TD*%
D28*
%TO.P,U201,1,VBAT*%
%TO.N,+BATT*%
X150003000Y-78139400D03*
%TO.P,U201,2,PC13*%
%TO.N,/STM32/WAKEUP*%
X150003000Y-78639400D03*
%TO.P,U201,3,PC14*%
%TO.N,/STM32/LSE_OSC_IN*%
X150003000Y-79139400D03*
%TO.P,U201,4,PC15*%
%TO.N,/STM32/LSE_OSC_OUT*%
X150003000Y-79639400D03*
%TO.P,U201,5,PH0*%
%TO.N,/STM32/HSE_OSC_IN*%
X150003000Y-80139400D03*
%TO.P,U201,6,PH1*%
%TO.N,/STM32/HSE_OSC_OUT*%
X150003000Y-80639400D03*
%TO.P,U201,7,NRST*%
%TO.N,/STM32/NRST*%
X150003000Y-81139400D03*
%TO.P,U201,8,PC0*%
%TO.N,/Peripherals/LED0*%
X150003000Y-81639400D03*
%TO.P,U201,9,PC1*%
%TO.N,/Peripherals/LED1*%
X150003000Y-82139400D03*
%TO.P,U201,10,PC2*%
%TO.N,/Peripherals/LED2*%
X150003000Y-82639400D03*
%TO.P,U201,11,PC3*%
%TO.N,/Peripherals/LED3*%
X150003000Y-83139400D03*
%TO.P,U201,12,VSSA*%
%TO.N,GND*%
X150003000Y-83639400D03*
%TO.P,U201,13,VDDA*%
%TO.N,+3V3*%
X150003000Y-84139400D03*
%TO.P,U201,14,PA0*%
%TO.N,/Peripherals/STG3*%
X150003000Y-84639400D03*
%TO.P,U201,15,PA1*%
%TO.N,/Peripherals/STG2*%
X150003000Y-85139400D03*
%TO.P,U201,16,PA2*%
%TO.N,/Peripherals/STG1*%
X150003000Y-85639400D03*
D29*
%TO.P,U201,17,PA3*%
%TO.N,/Peripherals/STG0*%
X151928000Y-87564400D03*
%TO.P,U201,18,VSS*%
%TO.N,GND*%
X152428000Y-87564400D03*
%TO.P,U201,19,VDD*%
%TO.N,+3V3*%
X152928000Y-87564400D03*
%TO.P,U201,20,PA4*%
%TO.N,/STM32/PB8*%
X153428000Y-87564400D03*
%TO.P,U201,21,PA5*%
%TO.N,/STM32/PB9*%
X153928000Y-87564400D03*
%TO.P,U201,22,PA6*%
%TO.N,/STM32/QuadSPI_IO3*%
X154428000Y-87564400D03*
%TO.P,U201,23,PA7*%
%TO.N,/STM32/QuadSPI_IO2*%
X154928000Y-87564400D03*
%TO.P,U201,24,PC4*%
%TO.N,/STM32/PC4*%
X155428000Y-87564400D03*
%TO.P,U201,25,PC5*%
%TO.N,/STM32/PC5*%
X155928000Y-87564400D03*
%TO.P,U201,26,PB0*%
%TO.N,/STM32/QuadSPI_IO1*%
X156428000Y-87564400D03*
%TO.P,U201,27,PB1*%
%TO.N,/STM32/QuadSPI_IO0*%
X156928000Y-87564400D03*
%TO.P,U201,28,PB2*%
%TO.N,/Peripherals/Payload_TEMP*%
X157428000Y-87564400D03*
%TO.P,U201,29,PB10*%
%TO.N,/STM32/QuadSPI_CLK*%
X157928000Y-87564400D03*
%TO.P,U201,30,PB11*%
%TO.N,/STM32/QuadSPI_NCS*%
X158428000Y-87564400D03*
%TO.P,U201,31,VSS*%
%TO.N,GND*%
X158928000Y-87564400D03*
%TO.P,U201,32,VDD*%
%TO.N,+3V3*%
X159428000Y-87564400D03*
D28*
%TO.P,U201,33,PB12*%
%TO.N,/Peripherals/GoPro_ON*%
X161353000Y-85639400D03*
%TO.P,U201,34,PB13*%
%TO.N,/Peripherals/I2C_SCL*%
X161353000Y-85139400D03*
%TO.P,U201,35,PB14*%
%TO.N,/Peripherals/I2C_SDA*%
X161353000Y-84639400D03*
%TO.P,U201,36,PB15*%
%TO.N,/STM32/PB15*%
X161353000Y-84139400D03*
%TO.P,U201,37,PC6*%
%TO.N,/Peripherals/ADX_INT2*%
X161353000Y-83639400D03*
%TO.P,U201,38,PC7*%
%TO.N,/Peripherals/ADX_INT1*%
X161353000Y-83139400D03*
%TO.P,U201,39,PC8*%
%TO.N,/Peripherals/LSM_INT2*%
X161353000Y-82639400D03*
%TO.P,U201,40,PC9*%
%TO.N,/Peripherals/LSM_INT1*%
X161353000Y-82139400D03*
%TO.P,U201,41,PA8*%
%TO.N,/Peripherals/BME_CS*%
X161353000Y-81639400D03*
%TO.P,U201,42,PA9*%
%TO.N,/Peripherals/BME_INT*%
X161353000Y-81139400D03*
%TO.P,U201,43,PA10*%
%TO.N,/STM32/USB_OTG_ID*%
X161353000Y-80639400D03*
%TO.P,U201,44,PA11*%
%TO.N,Net-(U201-PA11)*%
X161353000Y-80139400D03*
%TO.P,U201,45,PA12*%
%TO.N,Net-(U201-PA12)*%
X161353000Y-79639400D03*
%TO.P,U201,46,PA13*%
%TO.N,/STM32/JTMS{slash}SWDIO*%
X161353000Y-79139400D03*
%TO.P,U201,47,VSS*%
%TO.N,GND*%
X161353000Y-78639400D03*
%TO.P,U201,48,VDDUSB*%
%TO.N,+3V3*%
X161353000Y-78139400D03*
D29*
%TO.P,U201,49,PA14*%
%TO.N,/STM32/JTCK{slash}SWCLK*%
X159428000Y-76214400D03*
%TO.P,U201,50,PA15*%
%TO.N,/STM32/JTDI*%
X158928000Y-76214400D03*
%TO.P,U201,51,PC10*%
%TO.N,/STM32/DEBUG_TX*%
X158428000Y-76214400D03*
%TO.P,U201,52,PC11*%
%TO.N,/STM32/DEBUG_RX*%
X157928000Y-76214400D03*
%TO.P,U201,53,PC12*%
%TO.N,/STM32/PC12*%
X157428000Y-76214400D03*
%TO.P,U201,54,PD2*%
%TO.N,unconnected-(U201-PD2-Pad54)*%
X156928000Y-76214400D03*
%TO.P,U201,55,PB3*%
%TO.N,/STM32/JTDO{slash}TRACESWO*%
X156428000Y-76214400D03*
%TO.P,U201,56,PB4*%
%TO.N,/STM32/NJTRST*%
X155928000Y-76214400D03*
%TO.P,U201,57,PB5*%
%TO.N,/STM32/JTAG_CON*%
X155428000Y-76214400D03*
%TO.P,U201,58,PB6*%
%TO.N,Net-(JP201-A)*%
X154928000Y-76214400D03*
%TO.P,U201,59,PB7*%
%TO.N,Net-(JP202-A)*%
X154428000Y-76214400D03*
%TO.P,U201,60,BOOT0*%
%TO.N,/STM32/BOOT0*%
X153928000Y-76214400D03*
%TO.P,U201,61,PB8*%
%TO.N,/Peripherals/Actuator_IN1*%
X153428000Y-76214400D03*
%TO.P,U201,62,PB9*%
%TO.N,/Peripherals/Actuator_IN2*%
X152928000Y-76214400D03*
%TO.P,U201,63,VSS*%
%TO.N,GND*%
X152428000Y-76214400D03*
%TO.P,U201,64,VDD*%
%TO.N,+3V3*%
X151928000Y-76214400D03*
%TD*%
D22*
%TO.P,TP208,1,1*%
%TO.N,GND*%
X129275000Y-111050000D03*
%TD*%
D12*
%TO.P,C306,1*%
%TO.N,+BATT*%
X187858800Y-63514300D03*
%TO.P,C306,2*%
%TO.N,GND*%
X187858800Y-65239300D03*
%TD*%
D15*
%TO.P,J304,1,Pin_1*%
%TO.N,+5V*%
X180775000Y-111100000D03*
D16*
%TO.P,J304,2,Pin_2*%
%TO.N,Net-(J304-Pin_2)*%
X180775000Y-108560000D03*
%TD*%
D22*
%TO.P,TP206,1,1*%
%TO.N,GND*%
X175300000Y-76500000D03*
%TD*%
D12*
%TO.P,C405,1*%
%TO.N,+3V3*%
X154665200Y-50323100D03*
%TO.P,C405,2*%
%TO.N,GND*%
X154665200Y-52048100D03*
%TD*%
D30*
%TO.P,D404,1,K*%
%TO.N,+5V*%
X184612600Y-78033100D03*
%TO.P,D404,2,A*%
%TO.N,Net-(D404-A)*%
X184612600Y-80833100D03*
%TD*%
D31*
%TO.P,Y202,1,1*%
%TO.N,Net-(C204-Pad2)*%
X137312400Y-82702400D03*
%TO.P,Y202,2,2*%
%TO.N,/STM32/HSE_OSC_IN*%
X137312400Y-78302400D03*
%TD*%
D15*
%TO.P,J201,1,Pin_1*%
%TO.N,/STM32/PB15*%
X186950000Y-100500000D03*
%TD*%
D32*
%TO.P,JP202,1,A*%
%TO.N,Net-(JP202-A)*%
X137299998Y-67650000D03*
D33*
%TO.P,JP202,2,B*%
%TO.N,/Peripherals/LoRa_TX*%
X136000000Y-67650000D03*
%TD*%
D34*
%TO.P,J402,1,VBUS*%
%TO.N,Net-(D404-A)*%
X187889500Y-80432600D03*
%TO.P,J402,2,D-*%
%TO.N,/Power/USB_D-*%
X187889500Y-79782600D03*
%TO.P,J402,3,D+*%
%TO.N,/Power/USB_D+*%
X187889500Y-79132600D03*
%TO.P,J402,4,ID*%
%TO.N,GND*%
X187889500Y-78482600D03*
%TO.P,J402,5,GND*%
X187889500Y-77832600D03*
D35*
%TO.P,J402,6,Shield*%
X190739500Y-82882600D03*
D36*
X190739500Y-80282600D03*
X190739500Y-77982600D03*
D35*
X190739500Y-75382600D03*
%TD*%
D37*
%TO.P,SW202,1,1*%
%TO.N,/STM32/NRST*%
X125950000Y-84937600D03*
X132450000Y-84937600D03*
%TO.P,SW202,2,2*%
%TO.N,GND*%
X125950000Y-89437600D03*
X132450000Y-89437600D03*
%TD*%
D15*
%TO.P,J305,1,Pin_1*%
%TO.N,/Peripherals/I2C_SCL*%
X186875000Y-91485000D03*
D16*
%TO.P,J305,2,Pin_2*%
%TO.N,/Peripherals/I2C_SDA*%
X189415000Y-91485000D03*
%TD*%
D14*
%TO.P,C212,1*%
%TO.N,+3V3*%
X145293600Y-84958500D03*
%TO.P,C212,2*%
%TO.N,GND*%
X145293600Y-83233500D03*
%TD*%
D13*
%TO.P,D402,2,A*%
%TO.N,Net-(D402-A)*%
X179215600Y-53450000D03*
%TO.P,D402,1,K*%
%TO.N,GND*%
X182015600Y-53450000D03*
%TD*%
D22*
%TO.P,TP209,1,1*%
%TO.N,/STM32/USB_OTG_ID*%
X168859200Y-77673200D03*
%TD*%
D38*
%TO.P,U401,1,GND*%
%TO.N,GND*%
X179410000Y-60655600D03*
%TO.P,U401,2,VO*%
%TO.N,+5V*%
X177110000Y-60655600D03*
D39*
X177110000Y-66955600D03*
D38*
%TO.P,U401,3,VI*%
%TO.N,+BATT*%
X174810000Y-60655600D03*
%TD*%
D40*
%TO.P,C210,1*%
%TO.N,+3V3*%
X149749700Y-74121400D03*
%TO.P,C210,2*%
%TO.N,GND*%
X151474700Y-74121400D03*
%TD*%
D15*
%TO.P,J303,1,Pin_1*%
%TO.N,+3V3*%
X125100000Y-70175000D03*
D16*
%TO.P,J303,2,Pin_2*%
%TO.N,/Peripherals/LoRa_TX*%
X125100000Y-67635000D03*
%TO.P,J303,3,Pin_3*%
%TO.N,/Peripherals/LoRa_RX*%
X125100000Y-65095000D03*
%TO.P,J303,4,Pin_4*%
%TO.N,Net-(J303-Pin_4)*%
X125100000Y-62555000D03*
%TD*%
D41*
%TO.P,SW203,*%
%TO.N,*%
X139150000Y-51200000D03*
X130950000Y-51200000D03*
D42*
%TO.P,SW203,1,A*%
%TO.N,+3V3*%
X137050000Y-51200000D03*
D43*
%TO.P,SW203,2,B*%
%TO.N,Net-(SW203-B)*%
X135050000Y-51200000D03*
%TO.P,SW203,3,C*%
%TO.N,GND*%
X133050000Y-51200000D03*
%TD*%
D19*
%TO.P,R401,1*%
%TO.N,+5V*%
X177414800Y-55677600D03*
%TO.P,R401,2*%
%TO.N,Net-(D402-A)*%
X179239800Y-55677600D03*
%TD*%
D21*
%TO.P,R305,1*%
%TO.N,Net-(D302-A)*%
X133823700Y-102098000D03*
%TO.P,R305,2*%
%TO.N,+3V3*%
X131998700Y-102098000D03*
%TD*%
D44*
%TO.P,D403,1,K*%
%TO.N,GND*%
X159550000Y-49350000D03*
%TO.P,D403,2,A*%
%TO.N,Net-(D403-A)*%
X159550000Y-52150000D03*
%TD*%
D19*
%TO.P,R206,1*%
%TO.N,Net-(U201-PA12)*%
X180397100Y-78675400D03*
%TO.P,R206,2*%
%TO.N,/Power/USB_D+*%
X182222100Y-78675400D03*
%TD*%
D40*
%TO.P,C404,1*%
%TO.N,+5V*%
X177466700Y-57658800D03*
%TO.P,C404,2*%
%TO.N,GND*%
X179191700Y-57658800D03*
%TD*%
D45*
%TO.P,U302,1,SDO/SA0*%
%TO.N,+3V3*%
X180200000Y-92279400D03*
%TO.P,U302,2,SDx*%
%TO.N,GND*%
X179699999Y-92279400D03*
%TO.P,U302,3,SCx*%
X179199999Y-92279400D03*
%TO.P,U302,4,INT1*%
%TO.N,/Peripherals/LSM_INT1*%
X178699998Y-92279400D03*
D46*
%TO.P,U302,5,VDDIO*%
%TO.N,+3V3*%
X178493699Y-92989701D03*
%TO.P,U302,6,GND*%
%TO.N,GND*%
X178493699Y-93489700D03*
%TO.P,U302,7,GND*%
X178493699Y-93989699D03*
D45*
%TO.P,U302,8,VDD*%
%TO.N,+3V3*%
X178699998Y-94700000D03*
%TO.P,U302,9,INT2*%
%TO.N,/Peripherals/LSM_INT2*%
X179199999Y-94700000D03*
%TO.P,U302,10,OCS_Aux*%
%TO.N,unconnected-(U302-OCS_Aux-Pad10)*%
X179699999Y-94700000D03*
%TO.P,U302,11,SDO_Aux*%
%TO.N,unconnected-(U302-SDO_Aux-Pad11)*%
X180200000Y-94700000D03*
D46*
%TO.P,U302,12,CS*%
%TO.N,+3V3*%
X180406299Y-93989699D03*
%TO.P,U302,13,SCL*%
%TO.N,/Peripherals/I2C_SCL*%
X180406299Y-93489700D03*
%TO.P,U302,14,SDA*%
%TO.N,/Peripherals/I2C_SDA*%
X180406299Y-92989701D03*
%TD*%
D11*
%TO.P,C209,1*%
%TO.N,+3V3*%
X161238100Y-89712800D03*
%TO.P,C209,2*%
%TO.N,GND*%
X159513100Y-89712800D03*
%TD*%
D22*
%TO.P,TP204,1,1*%
%TO.N,/Peripherals/GoPro_ON*%
X175500000Y-101750000D03*
%TD*%
D15*
%TO.P,J204,1,Pin_1*%
%TO.N,/STM32/PB8*%
X145525000Y-100250000D03*
D16*
%TO.P,J204,2,Pin_2*%
%TO.N,/STM32/PB9*%
X145525000Y-102790000D03*
%TD*%
D19*
%TO.P,R205,1*%
%TO.N,Net-(U201-PA11)*%
X180399000Y-80301000D03*
%TO.P,R205,2*%
%TO.N,/Power/USB_D-*%
X182224000Y-80301000D03*
%TD*%
D40*
%TO.P,C301,1*%
%TO.N,+3V3*%
X181255500Y-89255600D03*
%TO.P,C301,2*%
%TO.N,GND*%
X182980500Y-89255600D03*
%TD*%
D27*
%TO.P,H103,1,1*%
%TO.N,unconnected-(H103-Pad1)*%
X187325000Y-111125000D03*
%TD*%
D15*
%TO.P,J306,1,Pin_1*%
%TO.N,Net-(J306-Pin_1)*%
X187558800Y-60551993D03*
D16*
%TO.P,J306,2,Pin_2*%
%TO.N,Net-(J306-Pin_2)*%
X185018800Y-60551993D03*
%TD*%
D15*
%TO.P,J203,1,Pin_1*%
%TO.N,/STM32/PC4*%
X159660000Y-111000000D03*
D16*
%TO.P,J203,2,Pin_2*%
%TO.N,/STM32/PC5*%
X162200000Y-111000000D03*
%TD*%
D21*
%TO.P,R304,1*%
%TO.N,Net-(D301-A)*%
X133823700Y-106098000D03*
%TO.P,R304,2*%
%TO.N,+3V3*%
X131998700Y-106098000D03*
%TD*%
D19*
%TO.P,R202,1*%
%TO.N,Net-(R201-Pad1)*%
X135402700Y-74160800D03*
%TO.P,R202,2*%
%TO.N,/STM32/WAKEUP*%
X137227700Y-74160800D03*
%TD*%
D47*
%TO.P,U304,1,GND*%
%TO.N,GND*%
X169200000Y-97887500D03*
%TO.P,U304,2,RESERVED*%
%TO.N,+3V3*%
X169700000Y-97887500D03*
%TO.P,U304,3,GND*%
%TO.N,GND*%
X170200000Y-97887500D03*
%TO.P,U304,4,GND*%
X170700000Y-97887500D03*
%TO.P,U304,5,VS*%
%TO.N,+3V3*%
X171200000Y-97887500D03*
%TO.P,U304,6,nCS*%
X171700000Y-97887500D03*
%TO.P,U304,7,RESERVED*%
%TO.N,unconnected-(U304-RESERVED-Pad7)*%
X172200000Y-97887500D03*
%TO.P,U304,8,NC*%
%TO.N,unconnected-(U304-NC-Pad8)*%
X172700000Y-97887500D03*
D48*
%TO.P,U304,9,NC*%
%TO.N,unconnected-(U304-NC-Pad9)*%
X173387500Y-97200000D03*
%TO.P,U304,10,NC*%
%TO.N,unconnected-(U304-NC-Pad10)*%
X173387500Y-96700000D03*
%TO.P,U304,11,NC*%
%TO.N,unconnected-(U304-NC-Pad11)*%
X173387500Y-96200000D03*
%TO.P,U304,12,NC*%
%TO.N,unconnected-(U304-NC-Pad12)*%
X173387500Y-95700000D03*
%TO.P,U304,13,NC*%
%TO.N,unconnected-(U304-NC-Pad13)*%
X173387500Y-95200000D03*
%TO.P,U304,14,NC*%
%TO.N,unconnected-(U304-NC-Pad14)*%
X173387500Y-94700000D03*
%TO.P,U304,15,NC*%
%TO.N,unconnected-(U304-NC-Pad15)*%
X173387500Y-94200000D03*
%TO.P,U304,16,NC*%
%TO.N,unconnected-(U304-NC-Pad16)*%
X173387500Y-93700000D03*
D47*
%TO.P,U304,17,NC*%
%TO.N,unconnected-(U304-NC-Pad17)*%
X172700000Y-93012500D03*
%TO.P,U304,18,NC*%
%TO.N,unconnected-(U304-NC-Pad18)*%
X172200000Y-93012500D03*
%TO.P,U304,19,NC*%
%TO.N,unconnected-(U304-NC-Pad19)*%
X171700000Y-93012500D03*
%TO.P,U304,20,INT1*%
%TO.N,/Peripherals/ADX_INT1*%
X171200000Y-93012500D03*
%TO.P,U304,21,INT2*%
%TO.N,/Peripherals/ADX_INT2*%
X170700000Y-93012500D03*
%TO.P,U304,22,RESERVED*%
%TO.N,GND*%
X170200000Y-93012500D03*
%TO.P,U304,23,SDO/ALT_ADDR*%
%TO.N,+3V3*%
X169700000Y-93012500D03*
%TO.P,U304,24,SDA/SDI/SDIO*%
%TO.N,/Peripherals/I2C_SDA*%
X169200000Y-93012500D03*
D48*
%TO.P,U304,25*%
%TO.N,N/C*%
X168512500Y-93700000D03*
%TO.P,U304,26,SCL/SCLK*%
%TO.N,/Peripherals/I2C_SCL*%
X168512500Y-94200000D03*
%TO.P,U304,27,NC*%
%TO.N,unconnected-(U304-NC-Pad27)*%
X168512500Y-94700000D03*
%TO.P,U304,28,NC*%
%TO.N,unconnected-(U304-NC-Pad28)*%
X168512500Y-95200000D03*
%TO.P,U304,29,NC*%
%TO.N,unconnected-(U304-NC-Pad29)*%
X168512500Y-95700000D03*
%TO.P,U304,30,NC*%
%TO.N,unconnected-(U304-NC-Pad30)*%
X168512500Y-96200000D03*
%TO.P,U304,31,VDDIO*%
%TO.N,+3V3*%
X168512500Y-96700000D03*
%TO.P,U304,32,NC*%
%TO.N,unconnected-(U304-NC-Pad32)*%
X168512500Y-97200000D03*
D49*
%TO.P,U304,33*%
%TO.N,N/C*%
X170950000Y-95450000D03*
%TD*%
D14*
%TO.P,C204,1*%
%TO.N,GND*%
X140372200Y-83107700D03*
%TO.P,C204,2*%
%TO.N,Net-(C204-Pad2)*%
X140372200Y-81382700D03*
%TD*%
%TO.P,C211,1*%
%TO.N,+3V3*%
X146970000Y-84958500D03*
%TO.P,C211,2*%
%TO.N,GND*%
X146970000Y-83233500D03*
%TD*%
D32*
%TO.P,JP301,1,A*%
%TO.N,+5V*%
X187177600Y-68624393D03*
D33*
%TO.P,JP301,2,B*%
%TO.N,Net-(JP301-B)*%
X185877600Y-68624393D03*
%TD*%
D37*
%TO.P,SW201,1,1*%
%TO.N,+3V3*%
X132450000Y-79552800D03*
X125950000Y-79552800D03*
%TO.P,SW201,2,2*%
%TO.N,Net-(R201-Pad1)*%
X132450000Y-75052800D03*
X125950000Y-75052800D03*
%TD*%
D50*
%TO.P,U303,1,VM*%
%TO.N,+BATT*%
X186018000Y-64321593D03*
%TO.P,U303,2,OUT1*%
%TO.N,Net-(J306-Pin_1)*%
X185518000Y-64321593D03*
%TO.P,U303,3,OUT2*%
%TO.N,Net-(J306-Pin_2)*%
X185018000Y-64321593D03*
%TO.P,U303,4,GND*%
%TO.N,GND*%
X184518000Y-64321593D03*
%TO.P,U303,5,IN2*%
%TO.N,/Peripherals/Actuator_IN2*%
X184518000Y-66221593D03*
%TO.P,U303,6,IN1*%
%TO.N,/Peripherals/Actuator_IN1*%
X185018000Y-66221593D03*
%TO.P,U303,7,~{SLEEP}*%
%TO.N,Net-(JP301-B)*%
X185518000Y-66221593D03*
%TO.P,U303,8,VCC*%
%TO.N,+5V*%
X186018000Y-66221593D03*
D51*
%TO.P,U303,9,GND*%
%TO.N,GND*%
X185768000Y-65271593D03*
D52*
X185268000Y-65271593D03*
D51*
X184768000Y-65271593D03*
%TD*%
D21*
%TO.P,R307,1*%
%TO.N,Net-(D304-A)*%
X133823700Y-94098000D03*
%TO.P,R307,2*%
%TO.N,+3V3*%
X131998700Y-94098000D03*
%TD*%
D12*
%TO.P,C203,1*%
%TO.N,GND*%
X140372200Y-77928300D03*
%TO.P,C203,2*%
%TO.N,/STM32/HSE_OSC_IN*%
X140372200Y-79653300D03*
%TD*%
D22*
%TO.P,TP203,1,1*%
%TO.N,/Peripherals/I2C_SCL*%
X175500000Y-86900000D03*
%TD*%
D32*
%TO.P,JP201,1,A*%
%TO.N,Net-(JP201-A)*%
X137299998Y-65100000D03*
D33*
%TO.P,JP201,2,B*%
%TO.N,/Peripherals/LoRa_RX*%
X136000000Y-65100000D03*
%TD*%
D14*
%TO.P,C202,1*%
%TO.N,GND*%
X144840000Y-78992900D03*
%TO.P,C202,2*%
%TO.N,/STM32/LSE_OSC_OUT*%
X144840000Y-77267900D03*
%TD*%
D22*
%TO.P,TP202,1,1*%
%TO.N,/Peripherals/Payload_TEMP*%
X163375000Y-103400000D03*
%TD*%
D53*
%TO.P,R301,1*%
%TO.N,+3V3*%
X166624000Y-86408900D03*
%TO.P,R301,2*%
%TO.N,/Peripherals/I2C_SDA*%
X166624000Y-84583900D03*
%TD*%
D54*
%TO.P,U301,1,VDDIO*%
%TO.N,+3V3*%
X181668237Y-87178374D03*
%TO.P,U301,2,SCK*%
%TO.N,/Peripherals/I2C_SCL*%
X182168363Y-87178374D03*
D55*
%TO.P,U301,3,VSS*%
%TO.N,GND*%
X182667600Y-86929200D03*
%TO.P,U301,4,SDI*%
%TO.N,/Peripherals/I2C_SDA*%
X182667600Y-86429074D03*
%TO.P,U301,5,SDO*%
%TO.N,GND*%
X182667600Y-85928948D03*
D54*
%TO.P,U301,6,CSB*%
%TO.N,/Peripherals/BME_CS*%
X182168363Y-85679774D03*
%TO.P,U301,7,INT*%
%TO.N,/Peripherals/BME_INT*%
X181668237Y-85679774D03*
D55*
%TO.P,U301,8,VSS*%
%TO.N,GND*%
X181169000Y-85928948D03*
%TO.P,U301,9,VSS*%
X181169000Y-86429074D03*
%TO.P,U301,10,VDD*%
%TO.N,+3V3*%
X181169000Y-86929200D03*
%TD*%
D12*
%TO.P,C205,1*%
%TO.N,/STM32/NRST*%
X135686800Y-85294300D03*
%TO.P,C205,2*%
%TO.N,GND*%
X135686800Y-87019300D03*
%TD*%
D21*
%TO.P,R207,1*%
%TO.N,+3V3*%
X159268600Y-58309400D03*
%TO.P,R207,2*%
%TO.N,Net-(D201-A)*%
X157443600Y-58309400D03*
%TD*%
D12*
%TO.P,C213,1*%
%TO.N,+3V3*%
X165658800Y-76912300D03*
%TO.P,C213,2*%
%TO.N,GND*%
X165658800Y-78637300D03*
%TD*%
D27*
%TO.P,H102,1,1*%
%TO.N,unconnected-(H102-Pad1)*%
X187325000Y-46685200D03*
%TD*%
D15*
%TO.P,J205,1,Pin_1*%
%TO.N,GND*%
X167100000Y-53480000D03*
D16*
%TO.P,J205,2,Pin_2*%
%TO.N,+3V3*%
X164560000Y-53480000D03*
%TO.P,J205,3,Pin_3*%
%TO.N,/STM32/JTMS{slash}SWDIO*%
X167100000Y-56020000D03*
%TO.P,J205,4,Pin_4*%
%TO.N,/STM32/JTAG_CON*%
X164560000Y-56020000D03*
%TO.P,J205,5,Pin_5*%
%TO.N,/STM32/JTCK{slash}SWCLK*%
X167100000Y-58560000D03*
%TO.P,J205,6,Pin_6*%
%TO.N,/STM32/NJTRST*%
X164560000Y-58560000D03*
%TO.P,J205,7,Pin_7*%
%TO.N,/STM32/JTDI*%
X167100000Y-61100000D03*
%TO.P,J205,8,Pin_8*%
%TO.N,/STM32/JTDO{slash}TRACESWO*%
X164560000Y-61100000D03*
%TO.P,J205,9,Pin_9*%
%TO.N,Net-(J205-Pin_9)*%
X167100000Y-63640000D03*
%TO.P,J205,10,Pin_10*%
%TO.N,Net-(J205-Pin_10)*%
X164560000Y-63640000D03*
%TD*%
D12*
%TO.P,C206,1*%
%TO.N,+3V3*%
X139265200Y-72433100D03*
%TO.P,C206,2*%
%TO.N,/STM32/WAKEUP*%
X139265200Y-74158100D03*
%TD*%
D23*
%TO.P,R302,1*%
%TO.N,+3V3*%
X168402000Y-83720300D03*
%TO.P,R302,2*%
%TO.N,/Peripherals/I2C_SCL*%
X168402000Y-85545300D03*
%TD*%
D15*
%TO.P,J401,1,Pin_1*%
%TO.N,Net-(D401-A)*%
X172239400Y-50071000D03*
D16*
%TO.P,J401,2,Pin_2*%
%TO.N,Net-(J401-Pin_2)*%
X174779400Y-50071000D03*
%TD*%
D11*
%TO.P,C303,1*%
%TO.N,+3V3*%
X178362500Y-96800000D03*
%TO.P,C303,2*%
%TO.N,GND*%
X176637500Y-96800000D03*
%TD*%
D27*
%TO.P,H101,1,1*%
%TO.N,unconnected-(H101-Pad1)*%
X123748800Y-46685200D03*
%TD*%
D13*
%TO.P,D302,1,K*%
%TO.N,/Peripherals/LED2*%
X139311200Y-102098000D03*
%TO.P,D302,2,A*%
%TO.N,Net-(D302-A)*%
X136511200Y-102098000D03*
%TD*%
D56*
%TO.P,U402,1,GND*%
%TO.N,GND*%
X151668400Y-52266400D03*
%TO.P,U402,2,VO*%
%TO.N,+3V3*%
X151668400Y-49966400D03*
D57*
X145368400Y-49966400D03*
D56*
%TO.P,U402,3,VI*%
%TO.N,+BATT*%
X151668400Y-47666400D03*
%TD*%
D58*
%TO.P,Q301,1,D*%
%TO.N,Net-(J304-Pin_2)*%
X180750000Y-104450000D03*
D59*
%TO.P,Q301,2,G*%
%TO.N,/Peripherals/GoPro_ON*%
X180750000Y-102750000D03*
%TO.P,Q301,3,S*%
%TO.N,GND*%
X178750000Y-102750000D03*
%TO.P,Q301,4*%
%TO.N,N/C*%
X178750000Y-104650000D03*
%TD*%
D60*
%TO.P,D401,1,K*%
%TO.N,+BATT*%
X175100000Y-55248800D03*
%TO.P,D401,2,A*%
%TO.N,Net-(D401-A)*%
X172300000Y-55248800D03*
%TD*%
D15*
%TO.P,SW401,1,A*%
%TO.N,Net-(J401-Pin_2)*%
X178884200Y-50051600D03*
D16*
%TO.P,SW401,2,B*%
%TO.N,GND*%
X181424200Y-50051600D03*
%TD*%
D22*
%TO.P,TP403,1,1*%
%TO.N,+3V3*%
X144400000Y-58850000D03*
%TD*%
D15*
%TO.P,J302,1,Pin_1*%
%TO.N,GND*%
X168605000Y-106010000D03*
D16*
%TO.P,J302,2,Pin_2*%
%TO.N,/Peripherals/Payload_TEMP*%
X168605000Y-108550000D03*
%TO.P,J302,3,Pin_3*%
%TO.N,GND*%
X168605000Y-111090000D03*
%TD*%
D14*
%TO.P,C403,1*%
%TO.N,+BATT*%
X154665200Y-47680400D03*
%TO.P,C403,2*%
%TO.N,GND*%
X154665200Y-45955400D03*
%TD*%
D11*
%TO.P,C208,1*%
%TO.N,+3V3*%
X152551300Y-91490800D03*
%TO.P,C208,2*%
%TO.N,GND*%
X150826300Y-91490800D03*
%TD*%
D61*
%TO.N,GND*%
X189215500Y-78107400D03*
X183000000Y-90450000D03*
X135686800Y-88239600D03*
X180652000Y-58370000D03*
X143922000Y-83283200D03*
X183350000Y-53459200D03*
X177550000Y-85900000D03*
X150825200Y-92760800D03*
X166928800Y-78638400D03*
X180652000Y-57506400D03*
X161350000Y-49350000D03*
X177662200Y-102765200D03*
X184000000Y-85000000D03*
X173082800Y-56468000D03*
X187915500Y-76948200D03*
X177950000Y-90450000D03*
X158038800Y-103632000D03*
X189164700Y-75313400D03*
X145796000Y-78994000D03*
X171634100Y-90393200D03*
X168512500Y-98018000D03*
X151587200Y-72796400D03*
X140360400Y-76606400D03*
X159410400Y-91033600D03*
X187969600Y-66991993D03*
X189179600Y-65240400D03*
X146262400Y-73812400D03*
X183591600Y-64306393D03*
X178750000Y-91150000D03*
X189215500Y-82984200D03*
X153954000Y-53522400D03*
X176650000Y-98000000D03*
X175550000Y-95850000D03*
X141782800Y-83108800D03*
X170400000Y-99150000D03*
X189215500Y-80241000D03*
X154817600Y-53522400D03*
X185420000Y-87528400D03*
X138415200Y-75945600D03*
X157916400Y-45953200D03*
%TO.N,+3V3*%
X157916400Y-50322000D03*
X181600000Y-95350000D03*
X159218600Y-59520200D03*
X166928800Y-76911200D03*
X175600000Y-91550000D03*
X170334100Y-90543200D03*
X165505000Y-102438100D03*
X154228800Y-94081600D03*
X171600000Y-99150000D03*
X143032000Y-48645600D03*
X138065200Y-72445600D03*
X130638000Y-98070800D03*
X143922000Y-84908800D03*
X143032000Y-49915600D03*
X169570400Y-83921600D03*
X182000000Y-91050000D03*
X181250000Y-90350000D03*
X143032000Y-51134800D03*
X130646000Y-106080400D03*
X169150000Y-99200000D03*
X165404800Y-86410800D03*
X130646800Y-94071600D03*
X161239200Y-91033600D03*
X130646000Y-102080400D03*
X149758400Y-72796400D03*
X178400000Y-98000000D03*
X167140900Y-96697200D03*
X152552400Y-92760800D03*
%TO.N,+5V*%
X189319600Y-70141993D03*
X177100000Y-69250000D03*
X175830000Y-69250000D03*
X177502400Y-54356800D03*
X178319200Y-69250000D03*
X184600000Y-76650000D03*
%TO.N,/Peripherals/LED3*%
X155041600Y-83159600D03*
X147218400Y-89255600D03*
%TO.N,/Peripherals/LED2*%
X153924000Y-82143600D03*
X146304000Y-88442800D03*
%TO.N,/Peripherals/LED1*%
X152704800Y-81584800D03*
X145288000Y-87680800D03*
%TO.N,/Peripherals/LED0*%
X151485600Y-81076800D03*
X144272000Y-86868000D03*
%TO.N,+BATT*%
X161900000Y-76100000D03*
X172155800Y-63555600D03*
X189027200Y-63513200D03*
X175267200Y-53205600D03*
X158119600Y-47223200D03*
X151333200Y-77876400D03*
X158119600Y-48137600D03*
X174454400Y-53205600D03*
%TO.N,/STM32/PB8*%
X152950000Y-85750000D03*
%TO.N,/STM32/PB9*%
X153950000Y-85350000D03*
%TO.N,/STM32/PB15*%
X159450000Y-84200000D03*
%TO.N,/STM32/PC4*%
X155702000Y-89408000D03*
%TO.N,/STM32/PC5*%
X156362400Y-86004400D03*
%TO.N,/Peripherals/Payload_TEMP*%
X157784800Y-85648800D03*
%TO.N,/STM32/PC12*%
X157434970Y-67808815D03*
%TO.N,/Peripherals/I2C_SDA*%
X184302400Y-86410800D03*
X182200000Y-92250000D03*
X179350000Y-89350000D03*
X169223700Y-91160000D03*
%TO.N,/Peripherals/I2C_SCL*%
X184404000Y-88138000D03*
X182322800Y-93463200D03*
X169800000Y-86750000D03*
X168200000Y-90312500D03*
%TO.N,/Peripherals/GoPro_ON*%
X159715200Y-85648800D03*
%TO.N,Net-(SW203-B)*%
X149850000Y-68700000D03*
%TO.N,/STM32/QuadSPI_IO2*%
X156768800Y-101447600D03*
X155702000Y-92862400D03*
%TO.N,/STM32/QuadSPI_IO1*%
X155752800Y-90932000D03*
X155549600Y-101346000D03*
%TO.N,/STM32/QuadSPI_IO0*%
X158038800Y-93624400D03*
X156464000Y-92100400D03*
%TO.N,/STM32/USB_OTG_ID*%
X168757600Y-80924400D03*
%TO.N,/Peripherals/Actuator_IN1*%
X152900000Y-70400000D03*
X182600000Y-70250000D03*
%TO.N,/Peripherals/Actuator_IN2*%
X152400000Y-71350000D03*
X180500000Y-71300000D03*
%TO.N,/STM32/QuadSPI_NCS*%
X154228800Y-103632000D03*
X158902400Y-101447600D03*
%TO.N,/Peripherals/BME_CS*%
X182727600Y-83718400D03*
X166522400Y-83007200D03*
%TO.N,/Peripherals/BME_INT*%
X181051200Y-83108800D03*
X164998400Y-81838800D03*
%TO.N,/Peripherals/LSM_INT1*%
X165100000Y-83820000D03*
X167900000Y-86650000D03*
%TO.N,/Peripherals/LSM_INT2*%
X167900000Y-87700000D03*
X159150000Y-81700000D03*
X179522800Y-96463200D03*
X176954800Y-91650000D03*
%TO.N,/Peripherals/ADX_INT1*%
X173184100Y-91893200D03*
X159350000Y-83150000D03*
%TO.N,/Peripherals/ADX_INT2*%
X172784100Y-90943200D03*
X162850000Y-83700000D03*
%TD*%
D62*
%TO.N,+BATT*%
X172155800Y-63555600D02*
X172155800Y-63309800D01*
X172155800Y-63309800D02*
X174810000Y-60655600D01*
D63*
%TO.N,/STM32/NRST*%
X150003000Y-81139400D02*
X145446276Y-81139400D01*
X144235676Y-82350000D02*
X143694300Y-82350000D01*
X145446276Y-81139400D02*
X144235676Y-82350000D01*
X140750000Y-85294300D02*
X135686800Y-85294300D01*
X143694300Y-82350000D02*
X140750000Y-85294300D01*
%TO.N,GND*%
X170200000Y-91877300D02*
X171634100Y-90443200D01*
X183960000Y-85090000D02*
X184000000Y-85050000D01*
X182667600Y-85928948D02*
X183107852Y-85928948D01*
X185027400Y-87135800D02*
X185420000Y-87528400D01*
X182667600Y-86929200D02*
X182874200Y-87135800D01*
X182874200Y-87135800D02*
X185027400Y-87135800D01*
X171634100Y-90443200D02*
X171634100Y-90393200D01*
X183946800Y-85090000D02*
X183960000Y-85090000D01*
X184000000Y-85050000D02*
X184000000Y-85000000D01*
X170200000Y-93012500D02*
X170200000Y-91877300D01*
X183107852Y-85928948D02*
X183946800Y-85090000D01*
%TO.N,+3V3*%
X169700000Y-91709005D02*
X170334100Y-91074905D01*
X169700000Y-93012500D02*
X169700000Y-91709005D01*
D64*
X180770600Y-92279400D02*
X182000000Y-91050000D01*
D63*
X170334100Y-91074905D02*
X170334100Y-90543200D01*
D64*
X180200000Y-92279400D02*
X180770600Y-92279400D01*
D63*
%TO.N,/STM32/WAKEUP*%
X150003000Y-78639400D02*
X149160236Y-78639400D01*
X149160236Y-78639400D02*
X147269200Y-76748364D01*
X147269200Y-76748364D02*
X147269200Y-73406000D01*
X140677700Y-72745600D02*
X139265200Y-74158100D01*
X146608800Y-72745600D02*
X140677700Y-72745600D01*
X147269200Y-73406000D02*
X146608800Y-72745600D01*
%TO.N,/STM32/LSE_OSC_IN*%
X148440900Y-79139400D02*
X144840000Y-75538500D01*
X150003000Y-79139400D02*
X148440900Y-79139400D01*
%TO.N,/STM32/LSE_OSC_OUT*%
X150003000Y-79639400D02*
X147508200Y-79639400D01*
X147508200Y-79639400D02*
X145136700Y-77267900D01*
%TO.N,/STM32/HSE_OSC_IN*%
X140858300Y-80139400D02*
X140372200Y-79653300D01*
X150003000Y-80139400D02*
X140858300Y-80139400D01*
%TO.N,/STM32/JTAG_CON*%
X155428000Y-65250000D02*
X164789238Y-55888762D01*
X155428000Y-76214400D02*
X155428000Y-65250000D01*
%TO.N,/Peripherals/LED3*%
X147218400Y-89631600D02*
X147218400Y-89255600D01*
X155021400Y-83139400D02*
X155041600Y-83159600D01*
X139311200Y-106098000D02*
X142300000Y-103109200D01*
X147218400Y-89255600D02*
X147044400Y-89255600D01*
X142300000Y-103109200D02*
X142300000Y-94550000D01*
X150003000Y-83139400D02*
X155021400Y-83139400D01*
X142300000Y-94550000D02*
X147218400Y-89631600D01*
%TO.N,/Peripherals/LED2*%
X153479000Y-82639400D02*
X153924000Y-82194400D01*
X150003000Y-82639400D02*
X153479000Y-82639400D01*
X146304000Y-88646000D02*
X146304000Y-88442800D01*
X141850000Y-93100000D02*
X146304000Y-88646000D01*
X153924000Y-82194400D02*
X153924000Y-82143600D01*
X141850000Y-99559200D02*
X141850000Y-93100000D01*
X139311200Y-102098000D02*
X141850000Y-99559200D01*
X153974800Y-82143600D02*
X153873200Y-82245200D01*
X153924000Y-82143600D02*
X153974800Y-82143600D01*
%TO.N,/Peripherals/LED1*%
X141400000Y-92750000D02*
X145288000Y-88862000D01*
X150003000Y-82139400D02*
X152150200Y-82139400D01*
X139311200Y-98098000D02*
X141400000Y-96009200D01*
X145288000Y-88862000D02*
X145288000Y-87680800D01*
X152150200Y-82139400D02*
X152704800Y-81584800D01*
X141400000Y-96009200D02*
X141400000Y-92750000D01*
%TO.N,/Peripherals/LED0*%
X144272000Y-89137200D02*
X144272000Y-86868000D01*
X151434800Y-81076800D02*
X151485600Y-81076800D01*
X139311200Y-94098000D02*
X144272000Y-89137200D01*
X150872200Y-81639400D02*
X151434800Y-81076800D01*
X150003000Y-81639400D02*
X150872200Y-81639400D01*
X151485600Y-81026000D02*
X151434800Y-81076800D01*
X151485600Y-81076800D02*
X151485600Y-81026000D01*
D62*
%TO.N,+BATT*%
X171944400Y-63555600D02*
X172155800Y-63555600D01*
X161900000Y-76100000D02*
X161900000Y-73600000D01*
X149953000Y-78089400D02*
X150003000Y-78089400D01*
X172155800Y-63555600D02*
X172155800Y-63505600D01*
X172155800Y-63505600D02*
X172168400Y-63493000D01*
X161900000Y-73600000D02*
X171944400Y-63555600D01*
D63*
%TO.N,/STM32/PB8*%
X153428000Y-86178000D02*
X153000000Y-85750000D01*
X152950000Y-85700000D02*
X153000000Y-85750000D01*
X153000000Y-85750000D02*
X152950000Y-85750000D01*
X152950000Y-85750000D02*
X152950000Y-85700000D01*
X153428000Y-87564400D02*
X153428000Y-86178000D01*
%TO.N,/STM32/PB9*%
X153928000Y-87564400D02*
X153950000Y-85350000D01*
%TO.N,/STM32/JTMS{slash}SWDIO*%
X160253000Y-73519493D02*
X160253000Y-78882164D01*
X160253000Y-78882164D02*
X160510236Y-79139400D01*
X160510236Y-79139400D02*
X161353000Y-79139400D01*
X169682438Y-58241962D02*
X169682438Y-64090055D01*
X167329238Y-55888762D02*
X169682438Y-58241962D01*
X169682438Y-64090055D02*
X160253000Y-73519493D01*
%TO.N,/STM32/JTCK{slash}SWCLK*%
X169232438Y-60331962D02*
X167329238Y-58428762D01*
X159428000Y-76214400D02*
X159428000Y-73708097D01*
X159428000Y-73708097D02*
X169232438Y-63903659D01*
X169232438Y-63903659D02*
X169232438Y-60331962D01*
%TO.N,/STM32/JTDO{slash}TRACESWO*%
X162820446Y-60968762D02*
X164789238Y-60968762D01*
X156428000Y-76214400D02*
X156428000Y-67361208D01*
X156428000Y-67361208D02*
X162820446Y-60968762D01*
%TO.N,/STM32/PB15*%
X161342400Y-84150000D02*
X159500000Y-84150000D01*
%TO.N,/STM32/JTDI*%
X158928000Y-73571701D02*
X168782438Y-63717263D01*
X158928000Y-76214400D02*
X158928000Y-73571701D01*
X168782438Y-63717263D02*
X168782438Y-62421962D01*
X168782438Y-62421962D02*
X167329238Y-60968762D01*
%TO.N,/STM32/NJTRST*%
X155928000Y-76214400D02*
X155928000Y-68871596D01*
X155939200Y-67160800D02*
X164548838Y-58551162D01*
X155928000Y-68871596D02*
X155939200Y-68871596D01*
X155939200Y-68871596D02*
X155939200Y-67160800D01*
%TO.N,/STM32/PC4*%
X155428000Y-87564400D02*
X155428000Y-89134000D01*
X155428000Y-89134000D02*
X155702000Y-89408000D01*
%TO.N,/STM32/PC5*%
X155928000Y-86337200D02*
X156260800Y-86004400D01*
X156260800Y-86004400D02*
X156362400Y-86004400D01*
X156362400Y-85902800D02*
X156311600Y-85953600D01*
X155928000Y-87564400D02*
X155928000Y-86337200D01*
X156362400Y-86004400D02*
X156362400Y-85902800D01*
%TO.N,/Peripherals/STG0*%
X151185600Y-87564400D02*
X149300000Y-89450000D01*
X149300000Y-89450000D02*
X149300000Y-111000000D01*
X151928000Y-87564400D02*
X151185600Y-87564400D01*
%TO.N,/Peripherals/STG1*%
X148850000Y-86792400D02*
X148850000Y-108910000D01*
X148850000Y-108910000D02*
X146760000Y-111000000D01*
X150003000Y-85639400D02*
X148850000Y-86792400D01*
%TO.N,/Peripherals/STG2*%
X150003000Y-85139400D02*
X149010600Y-85139400D01*
X148393400Y-106826600D02*
X144220000Y-111000000D01*
X149010600Y-85139400D02*
X148393400Y-85756600D01*
X148393400Y-85756600D02*
X148393400Y-106826600D01*
%TO.N,/Peripherals/STG3*%
X148660600Y-84639400D02*
X147943400Y-85356600D01*
X150003000Y-84639400D02*
X148660600Y-84639400D01*
X147943400Y-104736600D02*
X141680000Y-111000000D01*
X147943400Y-85356600D02*
X147943400Y-104736600D01*
%TO.N,/Peripherals/Payload_TEMP*%
X157784800Y-85699600D02*
X157784800Y-85648800D01*
X164010000Y-104040000D02*
X164010000Y-104035000D01*
X157428000Y-87564400D02*
X157428000Y-86056400D01*
X157428000Y-86056400D02*
X157784800Y-85699600D01*
X164010000Y-104040000D02*
X165505000Y-105535000D01*
X164010000Y-104035000D02*
X163375000Y-103400000D01*
X165590000Y-105535000D02*
X168605000Y-108550000D01*
X157784800Y-85648800D02*
X157835600Y-85648800D01*
X157835600Y-85648800D02*
X157784800Y-85699600D01*
%TO.N,/STM32/PC12*%
X157428000Y-76214400D02*
X157434970Y-67808815D01*
%TO.N,/STM32/BOOT0*%
X153312500Y-69112500D02*
X153312500Y-68700000D01*
X153928000Y-69728000D02*
X153312500Y-69112500D01*
X153928000Y-76214400D02*
X153928000Y-69728000D01*
%TO.N,/STM32/HSE_OSC_OUT*%
X150003000Y-80639400D02*
X144656700Y-80639400D01*
X144656700Y-80639400D02*
X143914500Y-81381600D01*
D64*
%TO.N,/Peripherals/I2C_SDA*%
X184302400Y-86410800D02*
X185542881Y-86410800D01*
X180406299Y-92989701D02*
X181460299Y-92989701D01*
X185542881Y-86410800D02*
X189415000Y-90282919D01*
D63*
X169223700Y-91160000D02*
X169223700Y-92988800D01*
D64*
X175449200Y-85449200D02*
X175449200Y-84614000D01*
X189415000Y-90282919D02*
X189415000Y-91485000D01*
X161353000Y-84639400D02*
X166568500Y-84639400D01*
D63*
X169223700Y-92988800D02*
X169200000Y-93012500D01*
D64*
X179350000Y-89350000D02*
X175449200Y-85449200D01*
X181460299Y-92989701D02*
X182200000Y-92250000D01*
X166661700Y-84621600D02*
X175441600Y-84621600D01*
X184302400Y-86410800D02*
X182685874Y-86410800D01*
D63*
%TO.N,/Peripherals/I2C_SCL*%
X161353000Y-85139400D02*
X165889924Y-85139400D01*
D64*
X184404000Y-88138000D02*
X186875000Y-90609000D01*
X180406299Y-93489700D02*
X182296300Y-93489700D01*
X169606700Y-86750000D02*
X168402000Y-85545300D01*
D63*
X165889924Y-85139400D02*
X166295824Y-85545300D01*
D64*
X175500000Y-86900000D02*
X169950000Y-86900000D01*
X183138000Y-88138000D02*
X184404000Y-88138000D01*
X168060614Y-94200000D02*
X168512500Y-94200000D01*
X169950000Y-86900000D02*
X169800000Y-86750000D01*
X169800000Y-86750000D02*
X169606700Y-86750000D01*
X186875000Y-90609000D02*
X186875000Y-91485000D01*
X182296300Y-93489700D02*
X182322800Y-93463200D01*
X167550000Y-90962500D02*
X167550000Y-93689386D01*
X167550000Y-93689386D02*
X168060614Y-94200000D01*
D63*
X166295824Y-85545300D02*
X168402000Y-85545300D01*
D64*
X182178374Y-87178374D02*
X183138000Y-88138000D01*
X168200000Y-90312500D02*
X167550000Y-90962500D01*
D63*
X169800000Y-86750000D02*
X169800000Y-86800000D01*
%TO.N,/Peripherals/LoRa_TX*%
X130377198Y-67635000D02*
X125100000Y-67635000D01*
X130392198Y-67650000D02*
X136000000Y-67650000D01*
X130392198Y-67650000D02*
X130377198Y-67635000D01*
%TO.N,/Peripherals/LoRa_RX*%
X130452198Y-65100000D02*
X130447198Y-65095000D01*
X130447198Y-65095000D02*
X125100000Y-65095000D01*
X130452198Y-65100000D02*
X136000000Y-65100000D01*
%TO.N,Net-(J306-Pin_2)*%
X185018000Y-64321593D02*
X185018000Y-60957593D01*
%TO.N,Net-(J306-Pin_1)*%
X185518000Y-64321593D02*
X185518000Y-62989593D01*
X185518000Y-62989593D02*
X187554000Y-60953593D01*
%TO.N,Net-(JP201-A)*%
X154928000Y-67691604D02*
X154928000Y-76214400D01*
X152336396Y-65100000D02*
X154928000Y-67691604D01*
X137299998Y-65100000D02*
X152336396Y-65100000D01*
%TO.N,Net-(JP202-A)*%
X137299998Y-67650000D02*
X154128000Y-67650000D01*
X154128000Y-67650000D02*
X154428000Y-67950000D01*
X154428000Y-76214400D02*
X154428000Y-67950000D01*
%TO.N,/STM32/DEBUG_RX*%
X157928000Y-76214400D02*
X157928000Y-68522000D01*
X157928000Y-68522000D02*
X159380762Y-67069238D01*
%TO.N,/STM32/DEBUG_TX*%
X158428000Y-76214400D02*
X158428000Y-71699600D01*
X158428000Y-71699600D02*
X162277619Y-67849981D01*
%TO.N,/Peripherals/GoPro_ON*%
X159715200Y-85648800D02*
X161343600Y-85648800D01*
X175500000Y-101750000D02*
X179750000Y-101750000D01*
X179750000Y-101750000D02*
X180750000Y-102750000D01*
D64*
%TO.N,Net-(SW203-B)*%
X149850000Y-68700000D02*
X151487500Y-68700000D01*
D63*
%TO.N,Net-(U201-PA11)*%
X161353000Y-80139400D02*
X180237400Y-80139400D01*
%TO.N,/Power/USB_D-*%
X182742400Y-79782600D02*
X182224000Y-80301000D01*
X187889500Y-79782600D02*
X182742400Y-79782600D01*
%TO.N,Net-(U201-PA12)*%
X161353000Y-79639400D02*
X179460600Y-79639400D01*
X179460600Y-79639400D02*
X180397100Y-78702900D01*
%TO.N,/Power/USB_D+*%
X187889500Y-79132600D02*
X182679300Y-79132600D01*
X182679300Y-79132600D02*
X182222100Y-78675400D01*
%TO.N,/STM32/QuadSPI_IO3*%
X154428000Y-92756800D02*
X154428000Y-87564400D01*
X155498800Y-95097600D02*
X155498800Y-93827600D01*
X155498800Y-93827600D02*
X154428000Y-92756800D01*
%TO.N,/STM32/QuadSPI_IO2*%
X156768800Y-102597600D02*
X156768800Y-101447600D01*
X154928000Y-87564400D02*
X154928000Y-91986800D01*
X154928000Y-91986800D02*
X155702000Y-92862400D01*
%TO.N,/STM32/QuadSPI_IO1*%
X155498800Y-102597600D02*
X155498800Y-101396800D01*
X156428000Y-90206000D02*
X155752800Y-90881200D01*
X155498800Y-101396800D02*
X155549600Y-101346000D01*
X155752800Y-90881200D02*
X155752800Y-90932000D01*
X156428000Y-87564400D02*
X156428000Y-90206000D01*
%TO.N,/STM32/QuadSPI_IO0*%
X156928000Y-87564400D02*
X156928000Y-91636400D01*
X158038800Y-93624400D02*
X158038800Y-95097600D01*
X156928000Y-91636400D02*
X156464000Y-92100400D01*
%TO.N,/STM32/USB_OTG_ID*%
X168472600Y-80639400D02*
X168757600Y-80924400D01*
X161353000Y-80639400D02*
X168472600Y-80639400D01*
%TO.N,/Peripherals/Actuator_IN1*%
X152900000Y-70350000D02*
X153000000Y-70450000D01*
X153428000Y-76214400D02*
X153428000Y-70878000D01*
X185018000Y-68278789D02*
X185018000Y-67500000D01*
X152900000Y-70400000D02*
X152900000Y-70350000D01*
X152950000Y-70400000D02*
X152900000Y-70400000D01*
X183046789Y-70250000D02*
X185018000Y-68278789D01*
X153428000Y-70878000D02*
X152950000Y-70400000D01*
X185018000Y-67500000D02*
X185018000Y-66221593D01*
X182600000Y-70250000D02*
X183046789Y-70250000D01*
%TO.N,/Peripherals/Actuator_IN2*%
X152400000Y-71250000D02*
X152500000Y-71350000D01*
X180500000Y-71300000D02*
X180500000Y-71150000D01*
X152928000Y-76214400D02*
X152928000Y-71778000D01*
X184518000Y-67282000D02*
X184518000Y-66221593D01*
X180500000Y-71300000D02*
X184518000Y-67282000D01*
X152500000Y-71350000D02*
X152400000Y-71350000D01*
X152928000Y-71778000D02*
X152500000Y-71350000D01*
X152400000Y-71350000D02*
X152400000Y-71250000D01*
%TO.N,/STM32/QuadSPI_CLK*%
X156768800Y-93014800D02*
X157928000Y-91855600D01*
X157928000Y-91855600D02*
X157928000Y-87564400D01*
X156768800Y-95097600D02*
X156768800Y-93014800D01*
%TO.N,/STM32/QuadSPI_NCS*%
X158428000Y-87564400D02*
X158428000Y-92794400D01*
X154228800Y-103632000D02*
X154228800Y-102597600D01*
X158428000Y-92794400D02*
X158902400Y-93268800D01*
X158902400Y-93268800D02*
X158902400Y-101447600D01*
%TO.N,/Peripherals/BME_CS*%
X182168363Y-84175163D02*
X182625126Y-83718400D01*
X182727600Y-83718400D02*
X182727600Y-83615926D01*
X163773695Y-81639400D02*
X164887495Y-82753200D01*
X182168363Y-85679774D02*
X182168363Y-84175163D01*
X182625126Y-83718400D02*
X182727600Y-83718400D01*
X182727600Y-83615926D02*
X182625126Y-83718400D01*
X164887495Y-82753200D02*
X166522400Y-83007200D01*
X161353000Y-81639400D02*
X163773695Y-81639400D01*
%TO.N,/Peripherals/BME_INT*%
X181051200Y-83058000D02*
X181102000Y-83108800D01*
X161353000Y-81139400D02*
X164299000Y-81139400D01*
X181051200Y-83108800D02*
X181051200Y-83058000D01*
X181668237Y-83675037D02*
X181102000Y-83108800D01*
X181668237Y-85679774D02*
X181668237Y-83675037D01*
X164299000Y-81139400D02*
X164998400Y-81838800D01*
X181102000Y-83108800D02*
X181051200Y-83108800D01*
D64*
%TO.N,/Peripherals/LSM_INT1*%
X169235600Y-87985600D02*
X167900000Y-86650000D01*
D63*
X163419400Y-82139400D02*
X165100000Y-83820000D01*
D64*
X178699998Y-92279400D02*
X174406198Y-87985600D01*
X174406198Y-87985600D02*
X169235600Y-87985600D01*
D63*
X161353000Y-82139400D02*
X163419400Y-82139400D01*
%TO.N,/Peripherals/LSM_INT2*%
X168625000Y-88475000D02*
X167900000Y-87750000D01*
D64*
X179199999Y-94700000D02*
X179199999Y-96140399D01*
D63*
X168644300Y-88455700D02*
X173760500Y-88455700D01*
D64*
X179199999Y-96140399D02*
X179522800Y-96463200D01*
D63*
X173760500Y-88455700D02*
X176954800Y-91650000D01*
X160089400Y-82639400D02*
X161353000Y-82639400D01*
X167900000Y-87750000D02*
X167900000Y-87700000D01*
X159150000Y-81700000D02*
X160089400Y-82639400D01*
%TO.N,Net-(J205-Pin_9)*%
X167258438Y-63631162D02*
X163689600Y-67200000D01*
X163689600Y-67200000D02*
X162950000Y-67200000D01*
%TO.N,Net-(J205-Pin_10)*%
X162818838Y-63631162D02*
X164718438Y-63631162D01*
X162818838Y-63631162D02*
X160300000Y-66150000D01*
%TO.N,/Peripherals/ADX_INT1*%
X171832060Y-91893200D02*
X173184100Y-91893200D01*
X171200000Y-92525260D02*
X171832060Y-91893200D01*
X159360600Y-83139400D02*
X161353000Y-83139400D01*
X159350000Y-83150000D02*
X159360600Y-83139400D01*
X171200000Y-93012500D02*
X171200000Y-92525260D01*
%TO.N,/Peripherals/ADX_INT2*%
X170700000Y-92388864D02*
X171945664Y-91143200D01*
X161353000Y-83639400D02*
X162839400Y-83639400D01*
X170700000Y-93012500D02*
X170700000Y-92388864D01*
X171945664Y-91143200D02*
X172784100Y-90943200D01*
%TD*%
%TA.AperFunction,Conductor*%
%TO.N,+3V3*%
G36*
X166989156Y-76352605D02*
G01*
X167008913Y-76355205D01*
X167113884Y-76369025D01*
X167119922Y-76370643D01*
X167234683Y-76418179D01*
X167240107Y-76421311D01*
X167338646Y-76496923D01*
X167343076Y-76501353D01*
X167418688Y-76599892D01*
X167421821Y-76605317D01*
X167469354Y-76720072D01*
X167470975Y-76726119D01*
X167487395Y-76850842D01*
X167487600Y-76853975D01*
X167487600Y-76968424D01*
X167487395Y-76971557D01*
X167470975Y-77096280D01*
X167469353Y-77102332D01*
X167421821Y-77217082D01*
X167418688Y-77222507D01*
X167343076Y-77321046D01*
X167338646Y-77325476D01*
X167240107Y-77401088D01*
X167234682Y-77404221D01*
X167157747Y-77436089D01*
X167119929Y-77451753D01*
X167113880Y-77453375D01*
X166989157Y-77469795D01*
X166986024Y-77470000D01*
X164134800Y-77470000D01*
X164042845Y-77508127D01*
X164042831Y-77508132D01*
X162145047Y-78295019D01*
X162142826Y-78295814D01*
X162137525Y-78297423D01*
X162125872Y-78297997D01*
X162080133Y-78288900D01*
X160625869Y-78288900D01*
X160623148Y-78289442D01*
X160605135Y-78285857D01*
X160591484Y-78276735D01*
X160584863Y-78270113D01*
X160582543Y-78266640D01*
X160578500Y-78253309D01*
X160578500Y-77969621D01*
X160581914Y-77957284D01*
X160609889Y-77910611D01*
X160615550Y-77904158D01*
X160705517Y-77832758D01*
X160709112Y-77830398D01*
X163362651Y-76412127D01*
X163365316Y-76410906D01*
X163475397Y-76368445D01*
X163481081Y-76367021D01*
X163578446Y-76355013D01*
X163598180Y-76352580D01*
X163601117Y-76352400D01*
X166986024Y-76352400D01*
X166989156Y-76352605D01*
G37*
%TD.AperFunction*%
%TD*%
%TA.AperFunction,Conductor*%
%TO.N,GND*%
G36*
X183775439Y-52555285D02*
G01*
X183821194Y-52608089D01*
X183832400Y-52659600D01*
X183832400Y-54240400D01*
X183812715Y-54307439D01*
X183759911Y-54353194D01*
X183708400Y-54364400D01*
X181467200Y-54364400D01*
X181400161Y-54344715D01*
X181354406Y-54291911D01*
X181343200Y-54240400D01*
X181343200Y-52659600D01*
X181362885Y-52592561D01*
X181415689Y-52546806D01*
X181467200Y-52535600D01*
X183708400Y-52535600D01*
X183775439Y-52555285D01*
G37*
%TD.AperFunction*%
%TD*%
%TA.AperFunction,Conductor*%
%TO.N,GND*%
G36*
X135747156Y-86309405D02*
G01*
X135766913Y-86312005D01*
X135871884Y-86325825D01*
X135877922Y-86327443D01*
X135992683Y-86374979D01*
X135998107Y-86378111D01*
X136096646Y-86453723D01*
X136101076Y-86458153D01*
X136176688Y-86556692D01*
X136179821Y-86562117D01*
X136227354Y-86676872D01*
X136228975Y-86682919D01*
X136245395Y-86807642D01*
X136245600Y-86810775D01*
X136245600Y-88347624D01*
X136245395Y-88350757D01*
X136228975Y-88475480D01*
X136227353Y-88481532D01*
X136179821Y-88596282D01*
X136176688Y-88601707D01*
X136101076Y-88700246D01*
X136096646Y-88704676D01*
X135998107Y-88780288D01*
X135992682Y-88783421D01*
X135915747Y-88815289D01*
X135877929Y-88830953D01*
X135871880Y-88832575D01*
X135747157Y-88848995D01*
X135744024Y-88849200D01*
X135629576Y-88849200D01*
X135626443Y-88848995D01*
X135501719Y-88832575D01*
X135495672Y-88830954D01*
X135410630Y-88795728D01*
X135380917Y-88783421D01*
X135375492Y-88780288D01*
X135276953Y-88704676D01*
X135272523Y-88700246D01*
X135196911Y-88601707D01*
X135193778Y-88596282D01*
X135146243Y-88481522D01*
X135144625Y-88475484D01*
X135128205Y-88350756D01*
X135128000Y-88347624D01*
X135128000Y-86810775D01*
X135128205Y-86807643D01*
X135128530Y-86805167D01*
X135144625Y-86682913D01*
X135146242Y-86676878D01*
X135193780Y-86562112D01*
X135196911Y-86556692D01*
X135272527Y-86458148D01*
X135276948Y-86453727D01*
X135375494Y-86378109D01*
X135380912Y-86374980D01*
X135495678Y-86327442D01*
X135501713Y-86325825D01*
X135609091Y-86311689D01*
X135626444Y-86309405D01*
X135629576Y-86309200D01*
X135744024Y-86309200D01*
X135747156Y-86309405D01*
G37*
%TD.AperFunction*%
%TD*%
%TA.AperFunction,Conductor*%
%TO.N,GND*%
G36*
X140369956Y-75997005D02*
G01*
X140389713Y-75999605D01*
X140494684Y-76013425D01*
X140500722Y-76015043D01*
X140615483Y-76062579D01*
X140620907Y-76065711D01*
X140719446Y-76141323D01*
X140723876Y-76145753D01*
X140799488Y-76244292D01*
X140802621Y-76249717D01*
X140850154Y-76364472D01*
X140851775Y-76370519D01*
X140868195Y-76495242D01*
X140868400Y-76498375D01*
X140868400Y-77984424D01*
X140868195Y-77987557D01*
X140851775Y-78112280D01*
X140850153Y-78118332D01*
X140802621Y-78233082D01*
X140799488Y-78238507D01*
X140723876Y-78337046D01*
X140719446Y-78341476D01*
X140620907Y-78417088D01*
X140615482Y-78420221D01*
X140538547Y-78452089D01*
X140500729Y-78467753D01*
X140494680Y-78469375D01*
X140369957Y-78485795D01*
X140366824Y-78486000D01*
X140353976Y-78486000D01*
X140350843Y-78485795D01*
X140226119Y-78469375D01*
X140220072Y-78467754D01*
X140135030Y-78432528D01*
X140105317Y-78420221D01*
X140099892Y-78417088D01*
X140001353Y-78341476D01*
X139996923Y-78337046D01*
X139921311Y-78238507D01*
X139918178Y-78233082D01*
X139870643Y-78118322D01*
X139869025Y-78112284D01*
X139852605Y-77987556D01*
X139852400Y-77984424D01*
X139852400Y-76498375D01*
X139852605Y-76495243D01*
X139852930Y-76492767D01*
X139869025Y-76370513D01*
X139870642Y-76364478D01*
X139918180Y-76249712D01*
X139921311Y-76244292D01*
X139996927Y-76145748D01*
X140001348Y-76141327D01*
X140099894Y-76065709D01*
X140105312Y-76062580D01*
X140220078Y-76015042D01*
X140226113Y-76013425D01*
X140333491Y-75999289D01*
X140350844Y-75997005D01*
X140353976Y-75996800D01*
X140366824Y-75996800D01*
X140369956Y-75997005D01*
G37*
%TD.AperFunction*%
%TD*%
%TA.AperFunction,Conductor*%
%TO.N,/STM32/LSE_OSC_IN*%
G36*
X143393663Y-73863445D02*
G01*
X143529668Y-73883038D01*
X143536234Y-73884970D01*
X143659600Y-73941431D01*
X143665353Y-73945138D01*
X143769069Y-74035257D01*
X143771492Y-74037686D01*
X144586000Y-74980800D01*
X144965109Y-74980800D01*
X144968862Y-74981094D01*
X145080983Y-74998852D01*
X145088121Y-75001172D01*
X145187557Y-75051838D01*
X145193632Y-75056251D01*
X145272548Y-75135167D01*
X145276961Y-75141242D01*
X145327626Y-75240676D01*
X145329947Y-75247818D01*
X145347705Y-75359937D01*
X145348000Y-75363691D01*
X145348000Y-75690108D01*
X145347704Y-75693863D01*
X145328702Y-75813832D01*
X145326382Y-75820973D01*
X145272111Y-75927487D01*
X145267698Y-75933562D01*
X145183162Y-76018098D01*
X145177087Y-76022511D01*
X145070573Y-76076782D01*
X145063432Y-76079102D01*
X144943464Y-76098104D01*
X144939709Y-76098400D01*
X144566689Y-76098400D01*
X144565943Y-76098388D01*
X144536017Y-76097457D01*
X144534527Y-76097365D01*
X144504684Y-76094573D01*
X144503943Y-76094492D01*
X142978420Y-75903802D01*
X142130096Y-75797761D01*
X142126711Y-75797086D01*
X142038895Y-75772877D01*
X141992797Y-75760169D01*
X141986461Y-75757388D01*
X141870133Y-75684734D01*
X141864855Y-75680261D01*
X141774094Y-75577447D01*
X141770310Y-75571655D01*
X141712644Y-75447213D01*
X141710672Y-75440584D01*
X141690651Y-75303132D01*
X141690400Y-75299673D01*
X141690400Y-74364775D01*
X141690605Y-74361643D01*
X141690930Y-74359167D01*
X141707025Y-74236913D01*
X141708642Y-74230878D01*
X141756180Y-74116112D01*
X141759311Y-74110692D01*
X141834927Y-74012148D01*
X141839348Y-74007727D01*
X141937894Y-73932109D01*
X141943312Y-73928980D01*
X142058078Y-73881442D01*
X142064113Y-73879825D01*
X142171491Y-73865689D01*
X142188844Y-73863405D01*
X142191976Y-73863200D01*
X143390241Y-73863200D01*
X143393663Y-73863445D01*
G37*
%TD.AperFunction*%
%TD*%
%TA.AperFunction,Conductor*%
%TO.N,Net-(D404-A)*%
G36*
X187099849Y-80167125D02*
G01*
X187099987Y-80166794D01*
X187103073Y-80168072D01*
X187108565Y-80169685D01*
X187110417Y-80170898D01*
X187111269Y-80171467D01*
X187111270Y-80171468D01*
X187169747Y-80183099D01*
X187169750Y-80183100D01*
X188493450Y-80183100D01*
X188560489Y-80202785D01*
X188606244Y-80255589D01*
X188616389Y-80290914D01*
X188630456Y-80397761D01*
X188630456Y-80397762D01*
X188640561Y-80422157D01*
X188650000Y-80469610D01*
X188650000Y-80697460D01*
X188630315Y-80764499D01*
X188577511Y-80810254D01*
X188549284Y-80819254D01*
X185261539Y-81447794D01*
X185238255Y-81450000D01*
X184124000Y-81450000D01*
X184056961Y-81430315D01*
X184011206Y-81377511D01*
X184000000Y-81326000D01*
X184000000Y-80274000D01*
X184019685Y-80206961D01*
X184072489Y-80161206D01*
X184124000Y-80150000D01*
X187041526Y-80150000D01*
X187099849Y-80167125D01*
G37*
%TD.AperFunction*%
%TD*%
%TA.AperFunction,Conductor*%
%TO.N,+BATT*%
G36*
X189376639Y-62966478D02*
G01*
X189422394Y-63019282D01*
X189433600Y-63070793D01*
X189433600Y-63941993D01*
X189413915Y-64009032D01*
X189361111Y-64054787D01*
X189309600Y-64065993D01*
X187096798Y-64065993D01*
X186211742Y-64593698D01*
X186148239Y-64611193D01*
X186001600Y-64611193D01*
X185934561Y-64591508D01*
X185888806Y-64538704D01*
X185877600Y-64487193D01*
X185877600Y-64125593D01*
X185897285Y-64058554D01*
X185950089Y-64012799D01*
X186001600Y-64001593D01*
X186182399Y-64001593D01*
X186182400Y-64001593D01*
X187059718Y-62989569D01*
X187118505Y-62951808D01*
X187153413Y-62946793D01*
X189309600Y-62946793D01*
X189376639Y-62966478D01*
G37*
%TD.AperFunction*%
%TD*%
%TA.AperFunction,Conductor*%
%TO.N,+3V3*%
G36*
X146429439Y-47954085D02*
G01*
X146475194Y-48006889D01*
X146486400Y-48058400D01*
X146486400Y-51874400D01*
X146466715Y-51941439D01*
X146413911Y-51987194D01*
X146362400Y-51998400D01*
X142444800Y-51998400D01*
X142377761Y-51978715D01*
X142332006Y-51925911D01*
X142320800Y-51874400D01*
X142320800Y-48058400D01*
X142340485Y-47991361D01*
X142393289Y-47945606D01*
X142444800Y-47934400D01*
X146362400Y-47934400D01*
X146429439Y-47954085D01*
G37*
%TD.AperFunction*%
%TD*%
%TA.AperFunction,Conductor*%
%TO.N,GND*%
G36*
X189856908Y-66460085D02*
G01*
X189902663Y-66512889D01*
X189913869Y-66564400D01*
X189913869Y-67516400D01*
X189894184Y-67583439D01*
X189841380Y-67629194D01*
X189789869Y-67640400D01*
X187587869Y-67640400D01*
X187520830Y-67620715D01*
X187475075Y-67567911D01*
X187463869Y-67516400D01*
X187463869Y-66564400D01*
X187483554Y-66497361D01*
X187536358Y-66451606D01*
X187587869Y-66440400D01*
X189789869Y-66440400D01*
X189856908Y-66460085D01*
G37*
%TD.AperFunction*%
%TD*%
%TA.AperFunction,Conductor*%
%TO.N,+5V*%
G36*
X178207439Y-53868485D02*
G01*
X178253194Y-53921289D01*
X178264400Y-53972800D01*
X178264400Y-65838253D01*
X176130800Y-65839939D01*
X176130800Y-59566526D01*
X176142935Y-59513026D01*
X176689600Y-58369999D01*
X176689600Y-53972800D01*
X176709285Y-53905761D01*
X176762089Y-53860006D01*
X176813600Y-53848800D01*
X178140400Y-53848800D01*
X178207439Y-53868485D01*
G37*
%TD.AperFunction*%
%TD*%
%TA.AperFunction,Conductor*%
%TO.N,+5V*%
G36*
X179034957Y-65857329D02*
G01*
X179080754Y-65910096D01*
X179092000Y-65961697D01*
X179092000Y-69879200D01*
X179072315Y-69946239D01*
X179019511Y-69991994D01*
X178968000Y-70003200D01*
X175381400Y-70003200D01*
X175314361Y-69983515D01*
X175268606Y-69930711D01*
X175257400Y-69879200D01*
X175257400Y-68282200D01*
X171368200Y-68282200D01*
X171301161Y-68262515D01*
X171255406Y-68209711D01*
X171244200Y-68158200D01*
X171244200Y-65967702D01*
X171263885Y-65900663D01*
X171316689Y-65854908D01*
X171368101Y-65843702D01*
X178967905Y-65837698D01*
X179034957Y-65857329D01*
G37*
%TD.AperFunction*%
%TD*%
%TA.AperFunction,Conductor*%
%TO.N,Net-(J304-Pin_2)*%
G36*
X181593039Y-103819685D02*
G01*
X181638794Y-103872489D01*
X181650000Y-103924000D01*
X181650000Y-109276000D01*
X181630315Y-109343039D01*
X181577511Y-109388794D01*
X181526000Y-109400000D01*
X180024000Y-109400000D01*
X179956961Y-109380315D01*
X179911206Y-109327511D01*
X179900000Y-109276000D01*
X179900000Y-103924000D01*
X179919685Y-103856961D01*
X179972489Y-103811206D01*
X180024000Y-103800000D01*
X181526000Y-103800000D01*
X181593039Y-103819685D01*
G37*
%TD.AperFunction*%
%TD*%
%TA.AperFunction,Conductor*%
%TO.N,+3V3*%
G36*
X175711344Y-91100267D02*
G01*
X175853226Y-91121629D01*
X175860054Y-91123733D01*
X175987717Y-91185138D01*
X175993616Y-91189154D01*
X176097539Y-91285426D01*
X176102000Y-91291009D01*
X176173872Y-91415179D01*
X176175431Y-91418405D01*
X176375000Y-91925000D01*
X176700000Y-92750000D01*
X178622636Y-92750000D01*
X178627317Y-92750460D01*
X178706425Y-92766196D01*
X178715071Y-92769777D01*
X178780132Y-92813250D01*
X178786749Y-92819867D01*
X178823163Y-92874364D01*
X178830220Y-92884925D01*
X178833804Y-92893577D01*
X178849068Y-92970318D01*
X178849068Y-92979682D01*
X178833804Y-93056421D01*
X178830220Y-93065073D01*
X178814939Y-93087942D01*
X178799666Y-93098147D01*
X178788019Y-93097575D01*
X178783873Y-93096317D01*
X178783864Y-93096315D01*
X178724222Y-93087469D01*
X178724218Y-93087469D01*
X178221521Y-93087469D01*
X178213639Y-93086138D01*
X178199170Y-93081107D01*
X178157678Y-93066679D01*
X178148558Y-93065590D01*
X178139441Y-93064502D01*
X178139439Y-93064502D01*
X178123240Y-93065760D01*
X178059506Y-93070713D01*
X178059497Y-93070714D01*
X178009266Y-93084826D01*
X178000226Y-93087590D01*
X177998178Y-93088268D01*
X177989341Y-93091417D01*
X177709497Y-93198417D01*
X177700926Y-93200000D01*
X175519564Y-93200000D01*
X175515650Y-93199679D01*
X175360619Y-93174055D01*
X175353208Y-93171536D01*
X175216431Y-93098335D01*
X175210225Y-93093566D01*
X175203280Y-93086138D01*
X175159663Y-93039487D01*
X175102912Y-92978788D01*
X175100474Y-92975710D01*
X175045718Y-92893577D01*
X175034951Y-92877426D01*
X175033224Y-92874371D01*
X174972969Y-92746715D01*
X174970933Y-92739987D01*
X174965363Y-92702372D01*
X174950259Y-92600361D01*
X174950000Y-92596846D01*
X174950000Y-91601575D01*
X174950205Y-91598443D01*
X174950530Y-91595967D01*
X174966625Y-91473713D01*
X174968242Y-91467678D01*
X175015780Y-91352912D01*
X175018911Y-91347492D01*
X175094527Y-91248948D01*
X175098948Y-91244527D01*
X175197494Y-91168909D01*
X175202912Y-91165780D01*
X175317678Y-91118242D01*
X175323713Y-91116625D01*
X175431091Y-91102489D01*
X175448444Y-91100205D01*
X175451576Y-91100000D01*
X175707771Y-91100000D01*
X175711344Y-91100267D01*
G37*
%TD.AperFunction*%
%TD*%
%TA.AperFunction,Conductor*%
%TO.N,GND*%
G36*
X147342913Y-82673813D02*
G01*
X147469977Y-82690866D01*
X147476126Y-82692547D01*
X147573205Y-82733619D01*
X147594187Y-82742496D01*
X147597044Y-82743936D01*
X147725862Y-82820047D01*
X148105223Y-83044190D01*
X148731930Y-83414476D01*
X148731932Y-83414477D01*
X148849600Y-83484000D01*
X149243842Y-83484000D01*
X149248522Y-83484460D01*
X149275867Y-83489900D01*
X150691256Y-83489899D01*
X150697467Y-83490717D01*
X150742586Y-83502806D01*
X150753346Y-83509017D01*
X150800182Y-83555853D01*
X150806393Y-83566612D01*
X150823535Y-83630588D01*
X150823535Y-83643012D01*
X150806393Y-83706987D01*
X150800182Y-83717746D01*
X150753346Y-83764582D01*
X150742587Y-83770793D01*
X150678064Y-83788082D01*
X150671852Y-83788900D01*
X149275871Y-83788900D01*
X149275863Y-83788901D01*
X149274671Y-83789139D01*
X149269989Y-83789600D01*
X148849892Y-83789600D01*
X148849600Y-83789600D01*
X148849308Y-83789600D01*
X148163800Y-83790400D01*
X147478000Y-83791200D01*
X143864776Y-83791200D01*
X143861643Y-83790995D01*
X143736919Y-83774575D01*
X143730872Y-83772954D01*
X143645830Y-83737728D01*
X143616117Y-83725421D01*
X143610692Y-83722288D01*
X143512153Y-83646676D01*
X143507723Y-83642246D01*
X143498777Y-83630588D01*
X143432111Y-83543707D01*
X143428978Y-83538282D01*
X143414973Y-83504471D01*
X143381443Y-83423522D01*
X143379825Y-83417484D01*
X143363405Y-83292756D01*
X143363200Y-83289624D01*
X143363200Y-83175174D01*
X143363405Y-83172042D01*
X143367014Y-83144623D01*
X143373835Y-83130791D01*
X143820391Y-82684235D01*
X143834226Y-82677414D01*
X143845539Y-82675925D01*
X143847212Y-82675705D01*
X143850342Y-82675500D01*
X144278529Y-82675500D01*
X144282568Y-82674418D01*
X144288779Y-82673600D01*
X147339721Y-82673600D01*
X147342913Y-82673813D01*
G37*
%TD.AperFunction*%
%TD*%
%TA.AperFunction,Conductor*%
%TO.N,+3V3*%
G36*
X166198575Y-85856224D02*
G01*
X166252971Y-85870800D01*
X166252973Y-85870800D01*
X167058800Y-85870800D01*
X167125839Y-85890485D01*
X167171594Y-85943289D01*
X167182800Y-85994800D01*
X167182800Y-86845600D01*
X167163115Y-86912639D01*
X167110311Y-86958394D01*
X167058800Y-86969600D01*
X165020800Y-86969600D01*
X164953761Y-86949915D01*
X164908006Y-86897111D01*
X164896800Y-86845600D01*
X164896800Y-85976000D01*
X164916485Y-85908961D01*
X164969289Y-85863206D01*
X165020800Y-85852000D01*
X166166483Y-85852000D01*
X166198575Y-85856224D01*
G37*
%TD.AperFunction*%
%TD*%
%TA.AperFunction,Conductor*%
%TO.N,GND*%
G36*
X189630639Y-64650485D02*
G01*
X189676394Y-64703289D01*
X189687600Y-64754800D01*
X189687600Y-65726000D01*
X189667915Y-65793039D01*
X189615111Y-65838794D01*
X189563600Y-65850000D01*
X187424000Y-65850000D01*
X187356961Y-65830315D01*
X187311206Y-65777511D01*
X187300000Y-65726000D01*
X187300000Y-64754800D01*
X187319685Y-64687761D01*
X187372489Y-64642006D01*
X187424000Y-64630800D01*
X189563600Y-64630800D01*
X189630639Y-64650485D01*
G37*
%TD.AperFunction*%
%TD*%
%TA.AperFunction,Conductor*%
%TO.N,GND*%
G36*
X138466756Y-75395805D02*
G01*
X138486513Y-75398405D01*
X138591484Y-75412225D01*
X138597522Y-75413843D01*
X138712283Y-75461379D01*
X138717707Y-75464511D01*
X138816246Y-75540123D01*
X138820676Y-75544553D01*
X138896288Y-75643092D01*
X138899421Y-75648517D01*
X138946954Y-75763272D01*
X138948575Y-75769319D01*
X138964995Y-75894042D01*
X138965200Y-75897175D01*
X138965200Y-75994024D01*
X138964995Y-75997157D01*
X138948575Y-76121880D01*
X138946953Y-76127932D01*
X138899421Y-76242682D01*
X138896288Y-76248107D01*
X138820676Y-76346646D01*
X138816246Y-76351076D01*
X138717707Y-76426688D01*
X138712282Y-76429821D01*
X138635347Y-76461689D01*
X138597529Y-76477353D01*
X138591480Y-76478975D01*
X138466757Y-76495395D01*
X138463624Y-76495600D01*
X137166776Y-76495600D01*
X137163643Y-76495395D01*
X137038919Y-76478975D01*
X137032872Y-76477354D01*
X136947830Y-76442128D01*
X136918117Y-76429821D01*
X136912692Y-76426688D01*
X136814153Y-76351076D01*
X136809723Y-76346646D01*
X136734111Y-76248107D01*
X136730978Y-76242682D01*
X136683443Y-76127922D01*
X136681825Y-76121884D01*
X136665405Y-75997156D01*
X136665200Y-75994024D01*
X136665200Y-75897175D01*
X136665405Y-75894043D01*
X136665730Y-75891567D01*
X136681825Y-75769313D01*
X136683442Y-75763278D01*
X136730980Y-75648512D01*
X136734111Y-75643092D01*
X136809727Y-75544548D01*
X136814148Y-75540127D01*
X136912694Y-75464509D01*
X136918112Y-75461380D01*
X137032878Y-75413842D01*
X137038913Y-75412225D01*
X137146291Y-75398089D01*
X137163644Y-75395805D01*
X137166776Y-75395600D01*
X138463624Y-75395600D01*
X138466756Y-75395805D01*
G37*
%TD.AperFunction*%
%TD*%
%TA.AperFunction,Conductor*%
%TO.N,GND*%
G36*
X145777957Y-78412205D02*
G01*
X145819078Y-78417618D01*
X145832914Y-78424441D01*
X146263957Y-78855484D01*
X146270781Y-78869322D01*
X146276195Y-78910442D01*
X146276400Y-78913575D01*
X146276400Y-79078824D01*
X146276195Y-79081957D01*
X146259775Y-79206680D01*
X146258153Y-79212732D01*
X146210621Y-79327482D01*
X146207488Y-79332907D01*
X146131876Y-79431446D01*
X146127446Y-79435876D01*
X146028907Y-79511488D01*
X146023482Y-79514621D01*
X145946547Y-79546489D01*
X145908729Y-79562153D01*
X145902680Y-79563775D01*
X145777957Y-79580195D01*
X145774824Y-79580400D01*
X144695176Y-79580400D01*
X144692043Y-79580195D01*
X144567319Y-79563775D01*
X144561272Y-79562154D01*
X144476230Y-79526928D01*
X144446517Y-79514621D01*
X144441092Y-79511488D01*
X144342553Y-79435876D01*
X144338123Y-79431446D01*
X144262511Y-79332907D01*
X144259378Y-79327482D01*
X144211843Y-79212722D01*
X144210225Y-79206684D01*
X144193805Y-79081956D01*
X144193600Y-79078824D01*
X144193600Y-78913575D01*
X144193805Y-78910443D01*
X144194130Y-78907967D01*
X144210225Y-78785713D01*
X144211842Y-78779678D01*
X144259380Y-78664912D01*
X144262511Y-78659492D01*
X144338127Y-78560948D01*
X144342548Y-78556527D01*
X144441094Y-78480909D01*
X144446512Y-78477780D01*
X144561278Y-78430242D01*
X144567313Y-78428625D01*
X144674691Y-78414489D01*
X144692044Y-78412205D01*
X144695176Y-78412000D01*
X145774825Y-78412000D01*
X145777957Y-78412205D01*
G37*
%TD.AperFunction*%
%TD*%
%TA.AperFunction,Conductor*%
%TO.N,GND*%
G36*
X166989156Y-78079805D02*
G01*
X167008913Y-78082405D01*
X167113884Y-78096225D01*
X167119922Y-78097843D01*
X167234683Y-78145379D01*
X167240107Y-78148511D01*
X167338646Y-78224123D01*
X167343076Y-78228553D01*
X167418688Y-78327092D01*
X167421821Y-78332517D01*
X167469354Y-78447272D01*
X167470974Y-78453318D01*
X167477472Y-78502673D01*
X167487395Y-78578042D01*
X167487600Y-78581175D01*
X167487600Y-78695624D01*
X167487395Y-78698757D01*
X167470975Y-78823480D01*
X167469353Y-78829532D01*
X167421821Y-78944282D01*
X167418688Y-78949707D01*
X167343076Y-79048246D01*
X167338646Y-79052676D01*
X167240107Y-79128288D01*
X167234682Y-79131421D01*
X167157747Y-79163289D01*
X167119929Y-79178953D01*
X167113880Y-79180575D01*
X166989157Y-79196995D01*
X166986024Y-79197200D01*
X163784816Y-79197200D01*
X163783484Y-79197163D01*
X163730075Y-79194195D01*
X163727429Y-79193900D01*
X163674653Y-79185027D01*
X163673418Y-79184784D01*
X163079850Y-79050753D01*
X162251350Y-78863671D01*
X162243302Y-78860215D01*
X162200080Y-78831335D01*
X162160495Y-78804885D01*
X162160494Y-78804884D01*
X162160493Y-78804884D01*
X162080137Y-78788900D01*
X160630005Y-78788900D01*
X160613034Y-78781871D01*
X160585529Y-78754366D01*
X160578500Y-78737395D01*
X160578500Y-78515489D01*
X160582537Y-78502167D01*
X160582873Y-78501663D01*
X160598139Y-78491451D01*
X160602831Y-78490987D01*
X160612512Y-78490986D01*
X160620756Y-78494400D01*
X160625869Y-78494400D01*
X162057532Y-78494400D01*
X162062214Y-78494861D01*
X162085784Y-78499549D01*
X162089483Y-78499821D01*
X162135982Y-78503248D01*
X162147635Y-78502674D01*
X162197211Y-78494064D01*
X162202512Y-78492455D01*
X162212081Y-78489293D01*
X162214302Y-78488498D01*
X162223757Y-78484848D01*
X162568692Y-78341826D01*
X162572569Y-78340594D01*
X163079849Y-78226047D01*
X163673418Y-78092014D01*
X163674653Y-78091772D01*
X163727446Y-78082896D01*
X163730059Y-78082605D01*
X163780976Y-78079776D01*
X163783485Y-78079637D01*
X163784816Y-78079600D01*
X166986024Y-78079600D01*
X166989156Y-78079805D01*
G37*
%TD.AperFunction*%
%TD*%
%TA.AperFunction,Conductor*%
%TO.N,GND*%
G36*
X181285776Y-85219685D02*
G01*
X181331531Y-85272489D01*
X181342737Y-85324000D01*
X181342737Y-85498057D01*
X181341142Y-85514244D01*
X181341334Y-85514263D01*
X181340737Y-85520325D01*
X181340737Y-85839222D01*
X181347617Y-85873808D01*
X181350000Y-85898001D01*
X181350000Y-86476000D01*
X181330315Y-86543039D01*
X181277511Y-86588794D01*
X181226000Y-86600000D01*
X177224000Y-86600000D01*
X177156961Y-86580315D01*
X177111206Y-86527511D01*
X177100000Y-86476000D01*
X177100000Y-85324000D01*
X177119685Y-85256961D01*
X177172489Y-85211206D01*
X177224000Y-85200000D01*
X181218737Y-85200000D01*
X181285776Y-85219685D01*
G37*
%TD.AperFunction*%
%TD*%
%TA.AperFunction,Conductor*%
%TO.N,+5V*%
G36*
X185193039Y-76169685D02*
G01*
X185238794Y-76222489D01*
X185250000Y-76274000D01*
X185250000Y-78526000D01*
X185230315Y-78593039D01*
X185177511Y-78638794D01*
X185126000Y-78650000D01*
X184124000Y-78650000D01*
X184056961Y-78630315D01*
X184011206Y-78577511D01*
X184000000Y-78526000D01*
X184000000Y-76274000D01*
X184019685Y-76206961D01*
X184072489Y-76161206D01*
X184124000Y-76150000D01*
X185126000Y-76150000D01*
X185193039Y-76169685D01*
G37*
%TD.AperFunction*%
%TD*%
%TA.AperFunction,Conductor*%
%TO.N,+3V3*%
G36*
X150634409Y-83995218D02*
G01*
X150692586Y-84010806D01*
X150703346Y-84017017D01*
X150750182Y-84063853D01*
X150756393Y-84074612D01*
X150773535Y-84138588D01*
X150773535Y-84151012D01*
X150756393Y-84214987D01*
X150750182Y-84225746D01*
X150703346Y-84272582D01*
X150692587Y-84278793D01*
X150657921Y-84288082D01*
X150651709Y-84288900D01*
X149275871Y-84288900D01*
X149275863Y-84288901D01*
X149234450Y-84297139D01*
X149229768Y-84297600D01*
X148748000Y-84297600D01*
X148731043Y-84313900D01*
X148617747Y-84313900D01*
X148534963Y-84336081D01*
X148534961Y-84336081D01*
X148534961Y-84336082D01*
X148483530Y-84365776D01*
X148460738Y-84378935D01*
X147682935Y-85156738D01*
X147640081Y-85230963D01*
X147634593Y-85251446D01*
X147617900Y-85313747D01*
X147617900Y-85370683D01*
X147610871Y-85387654D01*
X147608195Y-85389961D01*
X147523407Y-85452831D01*
X147518077Y-85455816D01*
X147405737Y-85501054D01*
X147399826Y-85502596D01*
X147278175Y-85518205D01*
X147275121Y-85518400D01*
X143864776Y-85518400D01*
X143861643Y-85518195D01*
X143832888Y-85514409D01*
X143736918Y-85501774D01*
X143730872Y-85500154D01*
X143621056Y-85454667D01*
X143616117Y-85452621D01*
X143610692Y-85449488D01*
X143512153Y-85373876D01*
X143507723Y-85369446D01*
X143432111Y-85270907D01*
X143428978Y-85265482D01*
X143423164Y-85251446D01*
X143381443Y-85150722D01*
X143379825Y-85144684D01*
X143363405Y-85019956D01*
X143363200Y-85016824D01*
X143363200Y-84851575D01*
X143363405Y-84848443D01*
X143363730Y-84845967D01*
X143379825Y-84723713D01*
X143381442Y-84717678D01*
X143428980Y-84602912D01*
X143432111Y-84597492D01*
X143507727Y-84498948D01*
X143512148Y-84494527D01*
X143610694Y-84418909D01*
X143616112Y-84415780D01*
X143730878Y-84368242D01*
X143736913Y-84366625D01*
X143844291Y-84352489D01*
X143861644Y-84350205D01*
X143864776Y-84350000D01*
X147408884Y-84350000D01*
X147478000Y-84350000D01*
X148476972Y-84068400D01*
X148680702Y-84010970D01*
X148682257Y-84010589D01*
X148747044Y-83997046D01*
X148750290Y-83996598D01*
X148769945Y-83995245D01*
X148771504Y-83995191D01*
X148849548Y-83995100D01*
X149269989Y-83995100D01*
X149269998Y-83995100D01*
X149283631Y-83994429D01*
X149284811Y-83994400D01*
X150628198Y-83994400D01*
X150634409Y-83995218D01*
G37*
%TD.AperFunction*%
%TD*%
%TA.AperFunction,Conductor*%
%TO.N,Net-(D303-A)*%
G36*
X136701556Y-97119805D02*
G01*
X136721313Y-97122405D01*
X136826284Y-97136225D01*
X136832322Y-97137843D01*
X136947083Y-97185379D01*
X136952507Y-97188511D01*
X137051046Y-97264123D01*
X137055476Y-97268553D01*
X137131088Y-97367092D01*
X137134221Y-97372517D01*
X137181754Y-97487272D01*
X137183374Y-97493318D01*
X137187677Y-97526000D01*
X137199795Y-97618042D01*
X137200000Y-97621175D01*
X137200000Y-98548424D01*
X137199795Y-98551557D01*
X137183375Y-98676280D01*
X137181753Y-98682332D01*
X137134221Y-98797082D01*
X137131088Y-98802507D01*
X137055476Y-98901046D01*
X137051046Y-98905476D01*
X136952507Y-98981088D01*
X136947082Y-98984221D01*
X136870147Y-99016089D01*
X136832329Y-99031753D01*
X136826280Y-99033375D01*
X136701557Y-99049795D01*
X136698424Y-99050000D01*
X135945503Y-99050000D01*
X135943940Y-99049949D01*
X135881317Y-99045862D01*
X135878219Y-99045456D01*
X135816664Y-99033270D01*
X135815141Y-99032917D01*
X135628000Y-98983013D01*
X135117200Y-98846800D01*
X134355200Y-98643600D01*
X134289694Y-98643600D01*
X133739176Y-98643600D01*
X133736043Y-98643395D01*
X133611319Y-98626975D01*
X133605272Y-98625354D01*
X133520230Y-98590128D01*
X133490517Y-98577821D01*
X133485092Y-98574688D01*
X133386553Y-98499076D01*
X133382123Y-98494646D01*
X133306511Y-98396107D01*
X133303378Y-98390682D01*
X133255843Y-98275922D01*
X133254225Y-98269884D01*
X133237805Y-98145156D01*
X133237600Y-98142024D01*
X133237600Y-98027575D01*
X133237805Y-98024443D01*
X133238130Y-98021967D01*
X133254225Y-97899713D01*
X133255842Y-97893678D01*
X133303380Y-97778912D01*
X133306511Y-97773492D01*
X133382127Y-97674948D01*
X133386548Y-97670527D01*
X133485094Y-97594909D01*
X133490512Y-97591780D01*
X133605278Y-97544242D01*
X133611313Y-97542625D01*
X133718691Y-97528489D01*
X133736044Y-97526205D01*
X133739176Y-97526000D01*
X134289676Y-97526000D01*
X134289678Y-97526000D01*
X134355200Y-97526000D01*
X135330024Y-97266047D01*
X135815169Y-97136675D01*
X135816635Y-97136335D01*
X135878220Y-97124142D01*
X135881315Y-97123737D01*
X135943940Y-97119650D01*
X135945503Y-97119600D01*
X136698424Y-97119600D01*
X136701556Y-97119805D01*
G37*
%TD.AperFunction*%
%TD*%
%TA.AperFunction,Conductor*%
%TO.N,GND*%
G36*
X161850239Y-48605285D02*
G01*
X161895994Y-48658089D01*
X161907200Y-48709600D01*
X161907200Y-49990400D01*
X161887515Y-50057439D01*
X161834711Y-50103194D01*
X161783200Y-50114400D01*
X158692000Y-50114400D01*
X158624961Y-50094715D01*
X158579206Y-50041911D01*
X158568000Y-49990400D01*
X158568000Y-48709600D01*
X158587685Y-48642561D01*
X158640489Y-48596806D01*
X158692000Y-48585600D01*
X161783200Y-48585600D01*
X161850239Y-48605285D01*
G37*
%TD.AperFunction*%
%TD*%
%TA.AperFunction,Conductor*%
%TO.N,GND*%
G36*
X158367439Y-45363285D02*
G01*
X158413194Y-45416089D01*
X158424400Y-45467600D01*
X158424400Y-46438800D01*
X158404715Y-46505839D01*
X158351911Y-46551594D01*
X158300400Y-46562800D01*
X154230400Y-46562800D01*
X154163361Y-46543115D01*
X154117606Y-46490311D01*
X154106400Y-46438800D01*
X154106400Y-45467600D01*
X154126085Y-45400561D01*
X154178889Y-45354806D01*
X154230400Y-45343600D01*
X158300400Y-45343600D01*
X158367439Y-45363285D01*
G37*
%TD.AperFunction*%
%TD*%
%TA.AperFunction,Conductor*%
%TO.N,+5V*%
G36*
X186125439Y-65941778D02*
G01*
X186171194Y-65994582D01*
X186182400Y-66046093D01*
X186182400Y-66191993D01*
X187229741Y-67444679D01*
X187257640Y-67508736D01*
X187258116Y-67514055D01*
X187263066Y-67560086D01*
X187274266Y-67611574D01*
X187276759Y-67621772D01*
X187276760Y-67621775D01*
X187319768Y-67702483D01*
X187319770Y-67702486D01*
X187365529Y-67755295D01*
X187383111Y-67773239D01*
X187383115Y-67773243D01*
X187383116Y-67773244D01*
X187383118Y-67773245D01*
X187416633Y-67791992D01*
X187462932Y-67817890D01*
X187529971Y-67837575D01*
X187587869Y-67845900D01*
X187587873Y-67845900D01*
X189739869Y-67845900D01*
X189806908Y-67865585D01*
X189852663Y-67918389D01*
X189863869Y-67969900D01*
X189863869Y-68167422D01*
X189866766Y-68172728D01*
X189869600Y-68199086D01*
X189869600Y-70517993D01*
X189849915Y-70585032D01*
X189797111Y-70630787D01*
X189745600Y-70641993D01*
X188893600Y-70641993D01*
X188826561Y-70622308D01*
X188780806Y-70569504D01*
X188769600Y-70517993D01*
X188769600Y-69440400D01*
X187706400Y-69440400D01*
X186901841Y-69441599D01*
X186766085Y-69441802D01*
X186699016Y-69422217D01*
X186653183Y-69369482D01*
X186641900Y-69317802D01*
X186641900Y-67994166D01*
X186641899Y-67994154D01*
X186638882Y-67968992D01*
X186638000Y-67954229D01*
X186638000Y-67791992D01*
X186244083Y-67144237D01*
X186239891Y-67136776D01*
X185893761Y-66467590D01*
X185879900Y-66410622D01*
X185879900Y-66046093D01*
X185899585Y-65979054D01*
X185952389Y-65933299D01*
X186003900Y-65922093D01*
X186058400Y-65922093D01*
X186125439Y-65941778D01*
G37*
%TD.AperFunction*%
%TD*%
%TA.AperFunction,Conductor*%
%TO.N,+3V3*%
G36*
X132078756Y-93563805D02*
G01*
X132098513Y-93566405D01*
X132203484Y-93580225D01*
X132209522Y-93581843D01*
X132324283Y-93629379D01*
X132329707Y-93632511D01*
X132428246Y-93708123D01*
X132432676Y-93712553D01*
X132508288Y-93811092D01*
X132511421Y-93816517D01*
X132558954Y-93931272D01*
X132560575Y-93937319D01*
X132576995Y-94062042D01*
X132577200Y-94065175D01*
X132577200Y-94128824D01*
X132576995Y-94131957D01*
X132560575Y-94256680D01*
X132558953Y-94262732D01*
X132511421Y-94377482D01*
X132508288Y-94382907D01*
X132432676Y-94481446D01*
X132428246Y-94485876D01*
X132329707Y-94561488D01*
X132324282Y-94564621D01*
X132247347Y-94596489D01*
X132209529Y-94612153D01*
X132203480Y-94613775D01*
X132078757Y-94630195D01*
X132075624Y-94630400D01*
X130640376Y-94630400D01*
X130637243Y-94630195D01*
X130512519Y-94613775D01*
X130506472Y-94612154D01*
X130421430Y-94576928D01*
X130391717Y-94564621D01*
X130386292Y-94561488D01*
X130287753Y-94485876D01*
X130283323Y-94481446D01*
X130207711Y-94382907D01*
X130204578Y-94377482D01*
X130157043Y-94262722D01*
X130155425Y-94256684D01*
X130139005Y-94131956D01*
X130138800Y-94128824D01*
X130138800Y-94065175D01*
X130139005Y-94062043D01*
X130139330Y-94059567D01*
X130155425Y-93937313D01*
X130157042Y-93931278D01*
X130204580Y-93816512D01*
X130207711Y-93811092D01*
X130283327Y-93712548D01*
X130287748Y-93708127D01*
X130386294Y-93632509D01*
X130391712Y-93629380D01*
X130506478Y-93581842D01*
X130512513Y-93580225D01*
X130619891Y-93566089D01*
X130637244Y-93563805D01*
X130640376Y-93563600D01*
X132075624Y-93563600D01*
X132078756Y-93563805D01*
G37*
%TD.AperFunction*%
%TD*%
%TA.AperFunction,Conductor*%
%TO.N,/STM32/LSE_OSC_OUT*%
G36*
X144943462Y-76708294D02*
G01*
X145063433Y-76727296D01*
X145070573Y-76729617D01*
X145177087Y-76783888D01*
X145183162Y-76788301D01*
X145267698Y-76872837D01*
X145272111Y-76878912D01*
X145326382Y-76985426D01*
X145328702Y-76992567D01*
X145347704Y-77112536D01*
X145348000Y-77116291D01*
X145348000Y-77442708D01*
X145347705Y-77446462D01*
X145329947Y-77558581D01*
X145327626Y-77565723D01*
X145276961Y-77665157D01*
X145272548Y-77671232D01*
X145193632Y-77750148D01*
X145187557Y-77754561D01*
X145088123Y-77805226D01*
X145080981Y-77807547D01*
X144968863Y-77825305D01*
X144965109Y-77825600D01*
X144586000Y-77825600D01*
X144436433Y-77998782D01*
X144436433Y-77998783D01*
X144436431Y-77998785D01*
X143771492Y-78768713D01*
X143769069Y-78771142D01*
X143665353Y-78861261D01*
X143659600Y-78864968D01*
X143536234Y-78921429D01*
X143529668Y-78923361D01*
X143393663Y-78942955D01*
X143390241Y-78943200D01*
X142191976Y-78943200D01*
X142188843Y-78942995D01*
X142064119Y-78926575D01*
X142058072Y-78924954D01*
X141973030Y-78889728D01*
X141943317Y-78877421D01*
X141937892Y-78874288D01*
X141839353Y-78798676D01*
X141834923Y-78794246D01*
X141759311Y-78695707D01*
X141756178Y-78690282D01*
X141708643Y-78575522D01*
X141707025Y-78569484D01*
X141690605Y-78444756D01*
X141690400Y-78441624D01*
X141690400Y-77506726D01*
X141690651Y-77503267D01*
X141699472Y-77442708D01*
X141710672Y-77365813D01*
X141712642Y-77359191D01*
X141770311Y-77234741D01*
X141774092Y-77228954D01*
X141864860Y-77126133D01*
X141870128Y-77121668D01*
X141986465Y-77049009D01*
X141992792Y-77046231D01*
X142126711Y-77009312D01*
X142130096Y-77008637D01*
X144503950Y-76711906D01*
X144504671Y-76711827D01*
X144534544Y-76709032D01*
X144536003Y-76708942D01*
X144564029Y-76708071D01*
X144565944Y-76708012D01*
X144566689Y-76708000D01*
X144939709Y-76708000D01*
X144943462Y-76708294D01*
G37*
%TD.AperFunction*%
%TD*%
%TA.AperFunction,Conductor*%
%TO.N,GND*%
G36*
X155167039Y-51459285D02*
G01*
X155212794Y-51512089D01*
X155224000Y-51563600D01*
X155224000Y-54109600D01*
X155204315Y-54176639D01*
X155151511Y-54222394D01*
X155100000Y-54233600D01*
X153909152Y-54233600D01*
X153842113Y-54213915D01*
X153815306Y-54190649D01*
X152887200Y-53116000D01*
X150725200Y-53116000D01*
X150658161Y-53096315D01*
X150612406Y-53043511D01*
X150601200Y-52992000D01*
X150601200Y-51563600D01*
X150620885Y-51496561D01*
X150673689Y-51450806D01*
X150725200Y-51439600D01*
X155100000Y-51439600D01*
X155167039Y-51459285D01*
G37*
%TD.AperFunction*%
%TD*%
%TA.AperFunction,Conductor*%
%TO.N,GND*%
G36*
X178850000Y-94047635D02*
G01*
X178849539Y-94052317D01*
X178835707Y-94121854D01*
X178832123Y-94130506D01*
X178794073Y-94187452D01*
X178787452Y-94194073D01*
X178730506Y-94232123D01*
X178721854Y-94235707D01*
X178650283Y-94249943D01*
X178649976Y-94250000D01*
X178450000Y-94250000D01*
X177250000Y-96250000D01*
X177250000Y-96388481D01*
X177250000Y-98048424D01*
X177249795Y-98051557D01*
X177233375Y-98176280D01*
X177231753Y-98182332D01*
X177184221Y-98297082D01*
X177181088Y-98302507D01*
X177105476Y-98401046D01*
X177101046Y-98405476D01*
X177002507Y-98481088D01*
X176997082Y-98484221D01*
X176920147Y-98516089D01*
X176882329Y-98531753D01*
X176876280Y-98533375D01*
X176751557Y-98549795D01*
X176748424Y-98550000D01*
X176501576Y-98550000D01*
X176498443Y-98549795D01*
X176373719Y-98533375D01*
X176367672Y-98531754D01*
X176282630Y-98496528D01*
X176252917Y-98484221D01*
X176247492Y-98481088D01*
X176148953Y-98405476D01*
X176144523Y-98401046D01*
X176068911Y-98302507D01*
X176065778Y-98297082D01*
X176018243Y-98182322D01*
X176016625Y-98176284D01*
X176000205Y-98051556D01*
X176000000Y-98048424D01*
X176000000Y-96484761D01*
X176000367Y-96480580D01*
X176016661Y-96388492D01*
X176029616Y-96315268D01*
X176032486Y-96307414D01*
X176116684Y-96162175D01*
X176119091Y-96158751D01*
X177660885Y-94330113D01*
X178150000Y-93750000D01*
X178850000Y-93750000D01*
X178850000Y-94047635D01*
G37*
%TD.AperFunction*%
%TD*%
%TA.AperFunction,Conductor*%
%TO.N,+3V3*%
G36*
X181800413Y-86819685D02*
G01*
X181846168Y-86872489D01*
X181856112Y-86941647D01*
X181854275Y-86948344D01*
X181854878Y-86948464D01*
X181840863Y-87018921D01*
X181840863Y-87337826D01*
X181852494Y-87396303D01*
X181852495Y-87396305D01*
X181879101Y-87436122D01*
X181899980Y-87502799D01*
X181900000Y-87505014D01*
X181900000Y-88348638D01*
X181880315Y-88415677D01*
X181863681Y-88436319D01*
X181850000Y-88450000D01*
X178926333Y-88450000D01*
X178859294Y-88430315D01*
X178838652Y-88413681D01*
X178274908Y-87849937D01*
X178241423Y-87788614D01*
X178238688Y-87767212D01*
X178228200Y-87505014D01*
X178205378Y-86934455D01*
X178222367Y-86866683D01*
X178273301Y-86818855D01*
X178329279Y-86805500D01*
X181225991Y-86805500D01*
X181226000Y-86805500D01*
X181269684Y-86800803D01*
X181269683Y-86800803D01*
X181270540Y-86800711D01*
X181283796Y-86800000D01*
X181733374Y-86800000D01*
X181800413Y-86819685D01*
G37*
%TD.AperFunction*%
%TD*%
%TA.AperFunction,Conductor*%
%TO.N,GND*%
G36*
X191647826Y-74113885D02*
G01*
X191693581Y-74166689D01*
X191704787Y-74218200D01*
X191704787Y-84028600D01*
X191685102Y-84095639D01*
X191632298Y-84141394D01*
X191580787Y-84152600D01*
X189034700Y-84152600D01*
X188967661Y-84132915D01*
X188921906Y-84080111D01*
X188910700Y-84028600D01*
X188910700Y-74218200D01*
X188930385Y-74151161D01*
X188983189Y-74105406D01*
X189034700Y-74094200D01*
X191580787Y-74094200D01*
X191647826Y-74113885D01*
G37*
%TD.AperFunction*%
%TD*%
%TA.AperFunction,Conductor*%
%TO.N,+3V3*%
G36*
X152760173Y-48962535D02*
G01*
X153903200Y-49509200D01*
X158238500Y-49509200D01*
X158305539Y-49528885D01*
X158351294Y-49581689D01*
X158362500Y-49633200D01*
X158362500Y-49990407D01*
X158367197Y-50034086D01*
X158378397Y-50085574D01*
X158380890Y-50095772D01*
X158380892Y-50095779D01*
X158409832Y-50150086D01*
X158424400Y-50208400D01*
X158424400Y-50960000D01*
X158404715Y-51027039D01*
X158351911Y-51072794D01*
X158300400Y-51084000D01*
X150522000Y-51084000D01*
X150454961Y-51064315D01*
X150409206Y-51011511D01*
X150398000Y-50960000D01*
X150398000Y-49074400D01*
X150417685Y-49007361D01*
X150470489Y-48961606D01*
X150522000Y-48950400D01*
X152706673Y-48950400D01*
X152760173Y-48962535D01*
G37*
%TD.AperFunction*%
%TD*%
%TA.AperFunction,Conductor*%
%TO.N,+3V3*%
G36*
X181458761Y-93809885D02*
G01*
X181500277Y-93854269D01*
X182034555Y-94822024D01*
X182050000Y-94881954D01*
X182050000Y-95726000D01*
X182030315Y-95793039D01*
X181977511Y-95838794D01*
X181926000Y-95850000D01*
X181247979Y-95850000D01*
X181180940Y-95830315D01*
X181135185Y-95777511D01*
X181127341Y-95754677D01*
X180772800Y-94263200D01*
X180196800Y-94263200D01*
X180129761Y-94243515D01*
X180084006Y-94190711D01*
X180072800Y-94139200D01*
X180072800Y-93916968D01*
X180092485Y-93849929D01*
X180145289Y-93804174D01*
X180196800Y-93792968D01*
X180707147Y-93792968D01*
X180709082Y-93792582D01*
X180733276Y-93790200D01*
X181391722Y-93790200D01*
X181458761Y-93809885D01*
G37*
%TD.AperFunction*%
%TD*%
%TA.AperFunction,Conductor*%
%TO.N,/STM32/HSE_OSC_IN*%
G36*
X138404940Y-77267047D02*
G01*
X138541524Y-77286810D01*
X138548115Y-77288759D01*
X138671901Y-77345692D01*
X138677671Y-77349429D01*
X138781560Y-77440267D01*
X138783984Y-77442715D01*
X140007535Y-78870192D01*
X140007539Y-78870195D01*
X140157200Y-79044800D01*
X140510909Y-79044800D01*
X140514662Y-79045094D01*
X140618934Y-79061609D01*
X140626072Y-79063929D01*
X140667594Y-79085086D01*
X140718427Y-79110987D01*
X140724502Y-79115400D01*
X140797799Y-79188697D01*
X140802212Y-79194772D01*
X140849269Y-79287125D01*
X140851590Y-79294267D01*
X140868105Y-79398537D01*
X140868400Y-79402291D01*
X140868400Y-79881108D01*
X140868105Y-79884862D01*
X140850347Y-79996981D01*
X140848026Y-80004123D01*
X140797361Y-80103557D01*
X140792948Y-80109632D01*
X140714032Y-80188548D01*
X140707957Y-80192961D01*
X140608523Y-80243626D01*
X140601381Y-80245947D01*
X140489263Y-80263705D01*
X140485509Y-80264000D01*
X140161940Y-80264000D01*
X140160628Y-80263964D01*
X140108039Y-80261085D01*
X140105433Y-80260799D01*
X140053459Y-80252199D01*
X140052171Y-80251949D01*
X136384726Y-79436961D01*
X136381615Y-79436046D01*
X136259749Y-79391025D01*
X136254037Y-79387985D01*
X136149960Y-79313005D01*
X136145268Y-79308549D01*
X136065007Y-79208493D01*
X136061678Y-79202950D01*
X136011057Y-79085080D01*
X136009331Y-79078856D01*
X135991819Y-78950123D01*
X135991600Y-78946888D01*
X135991600Y-77768375D01*
X135991805Y-77765243D01*
X135992130Y-77762767D01*
X136008225Y-77640513D01*
X136009842Y-77634478D01*
X136057380Y-77519712D01*
X136060511Y-77514292D01*
X136136127Y-77415748D01*
X136140548Y-77411327D01*
X136239094Y-77335709D01*
X136244512Y-77332580D01*
X136359278Y-77285042D01*
X136365313Y-77283425D01*
X136472691Y-77269289D01*
X136490044Y-77267005D01*
X136493176Y-77266800D01*
X138401503Y-77266800D01*
X138404940Y-77267047D01*
G37*
%TD.AperFunction*%
%TD*%
%TA.AperFunction,Conductor*%
%TO.N,GND*%
G36*
X178163703Y-90019685D02*
G01*
X178186682Y-90038720D01*
X179874777Y-91820598D01*
X179906593Y-91882803D01*
X179906376Y-91930071D01*
X179896732Y-91978550D01*
X179896732Y-92526000D01*
X179877047Y-92593039D01*
X179824243Y-92638794D01*
X179772732Y-92650000D01*
X179127266Y-92650000D01*
X179060227Y-92630315D01*
X179014472Y-92577511D01*
X179003266Y-92526000D01*
X179003266Y-91978551D01*
X178998151Y-91952841D01*
X178995868Y-91941362D01*
X178988324Y-91930071D01*
X178967688Y-91899187D01*
X178925515Y-91871008D01*
X178884722Y-91862893D01*
X178824018Y-91831653D01*
X177332593Y-90430618D01*
X177297210Y-90370372D01*
X177294454Y-90355634D01*
X177267422Y-90139378D01*
X177278639Y-90070417D01*
X177325360Y-90018466D01*
X177390464Y-90000000D01*
X178096664Y-90000000D01*
X178163703Y-90019685D01*
G37*
%TD.AperFunction*%
%TD*%
%TA.AperFunction,Conductor*%
%TO.N,GND*%
G36*
X151749156Y-72237805D02*
G01*
X151768913Y-72240405D01*
X151873884Y-72254225D01*
X151879922Y-72255843D01*
X151994683Y-72303379D01*
X152000107Y-72306511D01*
X152098646Y-72382123D01*
X152103076Y-72386553D01*
X152178688Y-72485092D01*
X152181821Y-72490517D01*
X152229354Y-72605272D01*
X152230975Y-72611319D01*
X152247395Y-72736042D01*
X152247600Y-72739175D01*
X152247600Y-74218800D01*
X152277702Y-74301581D01*
X152277703Y-74301584D01*
X152591966Y-75165807D01*
X152601055Y-75190800D01*
X152602500Y-75199002D01*
X152602500Y-75386132D01*
X152598455Y-75399465D01*
X152593485Y-75406901D01*
X152593484Y-75406904D01*
X152577500Y-75487262D01*
X152577500Y-76941532D01*
X152585167Y-76980081D01*
X152581583Y-76998097D01*
X152574962Y-77004717D01*
X152516851Y-77043546D01*
X152508199Y-77047130D01*
X152430082Y-77062668D01*
X152420718Y-77062668D01*
X152342600Y-77047130D01*
X152333948Y-77043546D01*
X152298625Y-77019943D01*
X152288420Y-77004670D01*
X152287959Y-76999988D01*
X152287959Y-76998097D01*
X152287960Y-76946226D01*
X152283461Y-76923611D01*
X152283000Y-76918928D01*
X152283000Y-75532352D01*
X152282999Y-75532341D01*
X152278817Y-75506903D01*
X152278499Y-75503010D01*
X152278499Y-75487271D01*
X152278498Y-75487263D01*
X152262515Y-75406905D01*
X152262514Y-75406903D01*
X152201625Y-75315778D01*
X152201624Y-75315776D01*
X152147280Y-75279464D01*
X152144352Y-75277134D01*
X152144347Y-75277140D01*
X152144235Y-75277041D01*
X152144162Y-75276983D01*
X152144050Y-75276877D01*
X152123995Y-75259157D01*
X152123992Y-75259155D01*
X152024922Y-75182517D01*
X152024290Y-75182060D01*
X152014076Y-75174679D01*
X152013055Y-75173991D01*
X152011485Y-75172931D01*
X152000140Y-75165807D01*
X152000139Y-75165806D01*
X152000132Y-75165802D01*
X151352671Y-74788116D01*
X150992941Y-74578273D01*
X150982803Y-74566586D01*
X150944467Y-74472359D01*
X150942897Y-74466397D01*
X150926999Y-74343640D01*
X150926800Y-74340558D01*
X150926800Y-72739175D01*
X150927005Y-72736043D01*
X150927330Y-72733567D01*
X150943425Y-72611313D01*
X150945042Y-72605278D01*
X150992580Y-72490512D01*
X150995711Y-72485092D01*
X151071327Y-72386548D01*
X151075748Y-72382127D01*
X151174294Y-72306509D01*
X151179712Y-72303380D01*
X151294478Y-72255842D01*
X151300513Y-72254225D01*
X151407891Y-72240089D01*
X151425244Y-72237805D01*
X151428376Y-72237600D01*
X151746024Y-72237600D01*
X151749156Y-72237805D01*
G37*
%TD.AperFunction*%
%TD*%
%TA.AperFunction,Conductor*%
%TO.N,+3V3*%
G36*
X171817539Y-97470185D02*
G01*
X171863294Y-97522989D01*
X171874500Y-97574500D01*
X171874500Y-98288397D01*
X171889760Y-98365117D01*
X171895200Y-98373258D01*
X171916080Y-98439935D01*
X171916100Y-98442151D01*
X171916100Y-98600000D01*
X172075887Y-98817220D01*
X172099754Y-98882884D01*
X172100000Y-98890694D01*
X172100000Y-99468800D01*
X172080315Y-99535839D01*
X172027511Y-99581594D01*
X171976000Y-99592800D01*
X171279632Y-99592800D01*
X171212593Y-99573115D01*
X171166838Y-99520311D01*
X171155632Y-99468676D01*
X171156400Y-98700143D01*
X171156400Y-98494239D01*
X171156392Y-98492372D01*
X171156372Y-98490172D01*
X171156372Y-98490165D01*
X171146991Y-98430614D01*
X171146989Y-98430610D01*
X171146989Y-98430605D01*
X171126116Y-98363945D01*
X171126112Y-98363934D01*
X171118888Y-98348836D01*
X171100868Y-98311173D01*
X171100863Y-98311165D01*
X171098676Y-98307324D01*
X171099526Y-98306839D01*
X171080020Y-98244536D01*
X171080000Y-98242327D01*
X171080000Y-97574500D01*
X171099685Y-97507461D01*
X171152489Y-97461706D01*
X171204000Y-97450500D01*
X171750500Y-97450500D01*
X171817539Y-97470185D01*
G37*
%TD.AperFunction*%
%TD*%
%TA.AperFunction,Conductor*%
%TO.N,GND*%
G36*
X183493039Y-88719685D02*
G01*
X183538794Y-88772489D01*
X183550000Y-88824000D01*
X183550000Y-90776000D01*
X183530315Y-90843039D01*
X183477511Y-90888794D01*
X183426000Y-90900000D01*
X182670699Y-90900000D01*
X182603660Y-90880315D01*
X182557905Y-90827511D01*
X182556138Y-90823453D01*
X182524535Y-90747157D01*
X182425624Y-90618254D01*
X182400430Y-90553085D01*
X182400000Y-90542768D01*
X182400000Y-88824000D01*
X182419685Y-88756961D01*
X182472489Y-88711206D01*
X182524000Y-88700000D01*
X183426000Y-88700000D01*
X183493039Y-88719685D01*
G37*
%TD.AperFunction*%
%TD*%
%TA.AperFunction,Conductor*%
%TO.N,GND*%
G36*
X167943391Y-97449106D02*
G01*
X167947886Y-97452109D01*
X167947888Y-97452112D01*
X168034882Y-97510239D01*
X168034883Y-97510240D01*
X168034887Y-97510241D01*
X168073241Y-97517870D01*
X168111599Y-97525500D01*
X168913400Y-97525499D01*
X168990117Y-97510240D01*
X169049152Y-97470793D01*
X169115826Y-97449917D01*
X169130202Y-97450495D01*
X169130251Y-97450499D01*
X169130252Y-97450500D01*
X169250500Y-97450500D01*
X169317539Y-97470185D01*
X169363294Y-97522989D01*
X169374500Y-97574500D01*
X169374500Y-98288400D01*
X169375098Y-98294463D01*
X169374706Y-98294501D01*
X169376100Y-98308652D01*
X169376100Y-98482689D01*
X169356415Y-98549728D01*
X169303611Y-98595483D01*
X169235916Y-98605628D01*
X169150003Y-98594318D01*
X169149999Y-98594318D01*
X168993239Y-98614955D01*
X168993234Y-98614957D01*
X168985500Y-98618161D01*
X168938048Y-98627600D01*
X167874500Y-98627600D01*
X167807461Y-98607915D01*
X167761706Y-98555111D01*
X167750500Y-98503600D01*
X167750500Y-97552208D01*
X167770185Y-97485169D01*
X167822989Y-97439414D01*
X167892147Y-97429470D01*
X167943391Y-97449106D01*
G37*
%TD.AperFunction*%
%TD*%
%TA.AperFunction,Conductor*%
%TO.N,GND*%
G36*
X179129239Y-102327685D02*
G01*
X179174994Y-102380489D01*
X179186200Y-102432000D01*
X179186200Y-103098400D01*
X179166515Y-103165439D01*
X179113711Y-103211194D01*
X179062200Y-103222400D01*
X177329000Y-103222400D01*
X177261961Y-103202715D01*
X177216206Y-103149911D01*
X177205000Y-103098400D01*
X177205000Y-102432000D01*
X177224685Y-102364961D01*
X177277489Y-102319206D01*
X177329000Y-102308000D01*
X179062200Y-102308000D01*
X179129239Y-102327685D01*
G37*
%TD.AperFunction*%
%TD*%
%TA.AperFunction,Conductor*%
%TO.N,Net-(D201-A)*%
G36*
X157581824Y-57787906D02*
G01*
X157613091Y-57796284D01*
X157703518Y-57833740D01*
X157731552Y-57849925D01*
X157809202Y-57909509D01*
X157832091Y-57932398D01*
X157891674Y-58010048D01*
X157907859Y-58038081D01*
X157945315Y-58128508D01*
X157953693Y-58159775D01*
X157967539Y-58264939D01*
X157968600Y-58281125D01*
X157968600Y-58839800D01*
X158327309Y-59646897D01*
X158329271Y-59651310D01*
X158333908Y-59663410D01*
X158360093Y-59744132D01*
X158365466Y-59769452D01*
X158374323Y-59853855D01*
X158375000Y-59866796D01*
X158375000Y-60566874D01*
X158373939Y-60583060D01*
X158360093Y-60688224D01*
X158351715Y-60719491D01*
X158314259Y-60809918D01*
X158298074Y-60837951D01*
X158238491Y-60915601D01*
X158215601Y-60938491D01*
X158137951Y-60998074D01*
X158109918Y-61014259D01*
X158019491Y-61051715D01*
X157988224Y-61060093D01*
X157894398Y-61072446D01*
X157883058Y-61073939D01*
X157866874Y-61075000D01*
X157054326Y-61075000D01*
X157038141Y-61073939D01*
X157025117Y-61072224D01*
X156932975Y-61060093D01*
X156901708Y-61051715D01*
X156811281Y-61014259D01*
X156783248Y-60998074D01*
X156705598Y-60938491D01*
X156682708Y-60915601D01*
X156623125Y-60837951D01*
X156606940Y-60809918D01*
X156569484Y-60719491D01*
X156561106Y-60688223D01*
X156547261Y-60583059D01*
X156546200Y-60566874D01*
X156546200Y-59872792D01*
X156546949Y-59859185D01*
X156556740Y-59770501D01*
X156562677Y-59743941D01*
X156591582Y-59659521D01*
X156596689Y-59646911D01*
X156905009Y-58991730D01*
X156952600Y-58890600D01*
X156952600Y-58281125D01*
X156953661Y-58264940D01*
X156967506Y-58159776D01*
X156975884Y-58128508D01*
X157013340Y-58038081D01*
X157029523Y-58010050D01*
X157089113Y-57932392D01*
X157111992Y-57909513D01*
X157189650Y-57849923D01*
X157217679Y-57833740D01*
X157308109Y-57796283D01*
X157339373Y-57787906D01*
X157444419Y-57774077D01*
X157476781Y-57774077D01*
X157581824Y-57787906D01*
G37*
%TD.AperFunction*%
%TD*%
%TA.AperFunction,Conductor*%
%TO.N,GND*%
G36*
X181306239Y-57119685D02*
G01*
X181351994Y-57172489D01*
X181363200Y-57224000D01*
X181363200Y-58414848D01*
X181343515Y-58481887D01*
X181320249Y-58508694D01*
X180245600Y-59436799D01*
X180245600Y-61598800D01*
X180225915Y-61665839D01*
X180173111Y-61711594D01*
X180121600Y-61722800D01*
X178693200Y-61722800D01*
X178626161Y-61703115D01*
X178580406Y-61650311D01*
X178569200Y-61598800D01*
X178569200Y-57224000D01*
X178588885Y-57156961D01*
X178641689Y-57111206D01*
X178693200Y-57100000D01*
X181239200Y-57100000D01*
X181306239Y-57119685D01*
G37*
%TD.AperFunction*%
%TD*%
%TA.AperFunction,Conductor*%
%TO.N,+3V3*%
G36*
X139266756Y-71845805D02*
G01*
X139286513Y-71848405D01*
X139391484Y-71862225D01*
X139397522Y-71863843D01*
X139512283Y-71911379D01*
X139517707Y-71914511D01*
X139616246Y-71990123D01*
X139620676Y-71994553D01*
X139696288Y-72093092D01*
X139699421Y-72098517D01*
X139746954Y-72213272D01*
X139748575Y-72219319D01*
X139764995Y-72344042D01*
X139765200Y-72347175D01*
X139765200Y-72494024D01*
X139764995Y-72497157D01*
X139748575Y-72621880D01*
X139746953Y-72627932D01*
X139699421Y-72742682D01*
X139696288Y-72748107D01*
X139620676Y-72846646D01*
X139616246Y-72851076D01*
X139517707Y-72926688D01*
X139512282Y-72929821D01*
X139435347Y-72961689D01*
X139397529Y-72977353D01*
X139391480Y-72978975D01*
X139266757Y-72995395D01*
X139263624Y-72995600D01*
X138066776Y-72995600D01*
X138063643Y-72995395D01*
X137938919Y-72978975D01*
X137932872Y-72977354D01*
X137847830Y-72942128D01*
X137818117Y-72929821D01*
X137812692Y-72926688D01*
X137714153Y-72851076D01*
X137709723Y-72846646D01*
X137634111Y-72748107D01*
X137630978Y-72742682D01*
X137583443Y-72627922D01*
X137581825Y-72621884D01*
X137565405Y-72497156D01*
X137565200Y-72494024D01*
X137565200Y-72347175D01*
X137565405Y-72344043D01*
X137565730Y-72341567D01*
X137581825Y-72219313D01*
X137583442Y-72213278D01*
X137630980Y-72098512D01*
X137634111Y-72093092D01*
X137709727Y-71994548D01*
X137714148Y-71990127D01*
X137812694Y-71914509D01*
X137818112Y-71911380D01*
X137932878Y-71863842D01*
X137938913Y-71862225D01*
X138046291Y-71848089D01*
X138063644Y-71845805D01*
X138066776Y-71845600D01*
X139263624Y-71845600D01*
X139266756Y-71845805D01*
G37*
%TD.AperFunction*%
%TD*%
%TA.AperFunction,Conductor*%
%TO.N,+3V3*%
G36*
X132077956Y-101572605D02*
G01*
X132097713Y-101575205D01*
X132202684Y-101589025D01*
X132208722Y-101590643D01*
X132323483Y-101638179D01*
X132328907Y-101641311D01*
X132427446Y-101716923D01*
X132431876Y-101721353D01*
X132507488Y-101819892D01*
X132510621Y-101825317D01*
X132558154Y-101940072D01*
X132559775Y-101946119D01*
X132576195Y-102070842D01*
X132576400Y-102073975D01*
X132576400Y-102137624D01*
X132576195Y-102140757D01*
X132559775Y-102265480D01*
X132558153Y-102271532D01*
X132510621Y-102386282D01*
X132507488Y-102391707D01*
X132431876Y-102490246D01*
X132427446Y-102494676D01*
X132328907Y-102570288D01*
X132323482Y-102573421D01*
X132246547Y-102605289D01*
X132208729Y-102620953D01*
X132202680Y-102622575D01*
X132077957Y-102638995D01*
X132074824Y-102639200D01*
X130639576Y-102639200D01*
X130636443Y-102638995D01*
X130511719Y-102622575D01*
X130505672Y-102620954D01*
X130420630Y-102585728D01*
X130390917Y-102573421D01*
X130385492Y-102570288D01*
X130286953Y-102494676D01*
X130282523Y-102490246D01*
X130206911Y-102391707D01*
X130203778Y-102386282D01*
X130156243Y-102271522D01*
X130154625Y-102265484D01*
X130138205Y-102140756D01*
X130138000Y-102137624D01*
X130138000Y-102073975D01*
X130138205Y-102070843D01*
X130138530Y-102068367D01*
X130154625Y-101946113D01*
X130156242Y-101940078D01*
X130203780Y-101825312D01*
X130206911Y-101819892D01*
X130282527Y-101721348D01*
X130286948Y-101716927D01*
X130385494Y-101641309D01*
X130390912Y-101638180D01*
X130505678Y-101590642D01*
X130511713Y-101589025D01*
X130619091Y-101574889D01*
X130636444Y-101572605D01*
X130639576Y-101572400D01*
X132074824Y-101572400D01*
X132077956Y-101572605D01*
G37*
%TD.AperFunction*%
%TD*%
%TA.AperFunction,Conductor*%
%TO.N,Net-(D403-A)*%
G36*
X160958239Y-51408485D02*
G01*
X161003994Y-51461289D01*
X161015200Y-51512800D01*
X161015200Y-52687200D01*
X160995515Y-52754239D01*
X160942711Y-52799994D01*
X160891200Y-52811200D01*
X156160800Y-52811200D01*
X156093761Y-52791515D01*
X156048006Y-52738711D01*
X156036800Y-52687200D01*
X156036800Y-51512800D01*
X156056485Y-51445761D01*
X156109289Y-51400006D01*
X156160800Y-51388800D01*
X160891200Y-51388800D01*
X160958239Y-51408485D01*
G37*
%TD.AperFunction*%
%TD*%
%TA.AperFunction,Conductor*%
%TO.N,GND*%
G36*
X159010487Y-86788556D02*
G01*
X159021246Y-86794767D01*
X159066806Y-86840327D01*
X159073835Y-86857298D01*
X159073784Y-86858865D01*
X159072999Y-86870861D01*
X159072999Y-88268927D01*
X159072538Y-88273607D01*
X159071315Y-88279756D01*
X159071311Y-88279779D01*
X159067398Y-88316006D01*
X159067240Y-88324463D01*
X159069777Y-88360747D01*
X159079357Y-88420714D01*
X159087007Y-88452304D01*
X159089357Y-88459471D01*
X159089363Y-88459489D01*
X159101917Y-88489516D01*
X159101922Y-88489526D01*
X159101923Y-88489528D01*
X159170600Y-88622981D01*
X159170613Y-88623002D01*
X159187728Y-88650636D01*
X159187736Y-88650648D01*
X159192211Y-88656737D01*
X159192215Y-88656742D01*
X159204212Y-88670617D01*
X159213477Y-88681333D01*
X159314561Y-88781066D01*
X159321696Y-88788106D01*
X159333675Y-88799025D01*
X159333687Y-88799035D01*
X159333688Y-88799036D01*
X159336594Y-88801482D01*
X159349483Y-88811484D01*
X160045855Y-89308892D01*
X160055578Y-89324476D01*
X160055592Y-89324556D01*
X160070487Y-89415812D01*
X160070800Y-89419678D01*
X160070800Y-91090824D01*
X160070595Y-91093957D01*
X160054175Y-91218680D01*
X160052553Y-91224732D01*
X160005021Y-91339482D01*
X160001888Y-91344907D01*
X159926276Y-91443446D01*
X159921846Y-91447876D01*
X159823307Y-91523488D01*
X159817882Y-91526621D01*
X159740947Y-91558489D01*
X159703129Y-91574153D01*
X159697080Y-91575775D01*
X159572357Y-91592195D01*
X159569224Y-91592400D01*
X159251576Y-91592400D01*
X159248443Y-91592195D01*
X159123719Y-91575775D01*
X159117672Y-91574154D01*
X159032630Y-91538928D01*
X159002917Y-91526621D01*
X158997492Y-91523488D01*
X158898953Y-91447876D01*
X158894523Y-91443446D01*
X158818911Y-91344907D01*
X158815778Y-91339482D01*
X158768243Y-91224722D01*
X158766625Y-91218684D01*
X158753705Y-91120541D01*
X158753500Y-91117409D01*
X158753500Y-88392666D01*
X158757544Y-88379333D01*
X158762515Y-88371895D01*
X158778500Y-88291533D01*
X158778499Y-86860561D01*
X158785526Y-86843594D01*
X158834356Y-86794764D01*
X158845108Y-86788557D01*
X158921590Y-86768064D01*
X158934010Y-86768064D01*
X159010487Y-86788556D01*
G37*
%TD.AperFunction*%
%TD*%
%TA.AperFunction,Conductor*%
%TO.N,+3V3*%
G36*
X167908750Y-96412085D02*
G01*
X167944813Y-96447510D01*
X167947888Y-96452112D01*
X168034883Y-96510240D01*
X168034886Y-96510240D01*
X168034887Y-96510241D01*
X168065851Y-96516400D01*
X168111599Y-96525500D01*
X168825500Y-96525499D01*
X168892539Y-96545183D01*
X168938294Y-96597987D01*
X168949500Y-96649499D01*
X168949500Y-96750500D01*
X168929815Y-96817539D01*
X168877011Y-96863294D01*
X168825500Y-96874500D01*
X168111602Y-96874500D01*
X168034881Y-96889760D01*
X168034879Y-96889761D01*
X167947888Y-96947888D01*
X167914611Y-96997691D01*
X167860999Y-97042496D01*
X167811509Y-97052800D01*
X167010900Y-97052800D01*
X166943861Y-97033115D01*
X166898106Y-96980311D01*
X166886900Y-96928800D01*
X166886900Y-96516400D01*
X166906585Y-96449361D01*
X166959389Y-96403606D01*
X167010900Y-96392400D01*
X167841711Y-96392400D01*
X167908750Y-96412085D01*
G37*
%TD.AperFunction*%
%TD*%
%TA.AperFunction,Conductor*%
%TO.N,+3V3*%
G36*
X154321251Y-93693590D02*
G01*
X154365950Y-93712105D01*
X154423817Y-93750771D01*
X154458028Y-93784982D01*
X154496694Y-93842849D01*
X154515209Y-93887547D01*
X154531217Y-93968019D01*
X154533600Y-93992212D01*
X154533600Y-95186987D01*
X154531217Y-95211180D01*
X154515209Y-95291652D01*
X154496694Y-95336350D01*
X154458028Y-95394217D01*
X154423817Y-95428428D01*
X154365950Y-95467094D01*
X154321251Y-95485609D01*
X154252992Y-95499187D01*
X154204608Y-95499187D01*
X154136348Y-95485609D01*
X154091649Y-95467094D01*
X154033782Y-95428428D01*
X153999571Y-95394217D01*
X153960905Y-95336350D01*
X153942390Y-95291650D01*
X153926383Y-95211178D01*
X153924000Y-95186987D01*
X153924000Y-93992212D01*
X153926383Y-93968021D01*
X153942390Y-93887549D01*
X153960903Y-93842851D01*
X153999571Y-93784981D01*
X154033782Y-93750771D01*
X154091651Y-93712103D01*
X154136347Y-93693590D01*
X154204609Y-93680012D01*
X154252991Y-93680012D01*
X154321251Y-93693590D01*
G37*
%TD.AperFunction*%
%TD*%
%TA.AperFunction,Conductor*%
%TO.N,+3V3*%
G36*
X170072239Y-83179285D02*
G01*
X170117994Y-83232089D01*
X170129200Y-83283600D01*
X170129200Y-84153200D01*
X170109515Y-84220239D01*
X170056711Y-84265994D01*
X170005200Y-84277200D01*
X167967200Y-84277200D01*
X167900161Y-84257515D01*
X167854406Y-84204711D01*
X167843200Y-84153200D01*
X167843200Y-83283600D01*
X167862885Y-83216561D01*
X167915689Y-83170806D01*
X167967200Y-83159600D01*
X170005200Y-83159600D01*
X170072239Y-83179285D01*
G37*
%TD.AperFunction*%
%TD*%
%TA.AperFunction,Conductor*%
%TO.N,GND*%
G36*
X188620539Y-76510685D02*
G01*
X188666294Y-76563489D01*
X188677500Y-76615000D01*
X188677500Y-78608100D01*
X188657815Y-78675139D01*
X188605011Y-78720894D01*
X188553500Y-78732100D01*
X187226700Y-78732100D01*
X187159661Y-78712415D01*
X187113906Y-78659611D01*
X187102700Y-78608100D01*
X187102700Y-76615000D01*
X187122385Y-76547961D01*
X187175189Y-76502206D01*
X187226700Y-76491000D01*
X188553500Y-76491000D01*
X188620539Y-76510685D01*
G37*
%TD.AperFunction*%
%TD*%
%TA.AperFunction,Conductor*%
%TO.N,GND*%
G36*
X158131251Y-102227990D02*
G01*
X158175950Y-102246505D01*
X158233817Y-102285171D01*
X158268028Y-102319382D01*
X158306694Y-102377249D01*
X158325209Y-102421947D01*
X158341217Y-102502419D01*
X158343600Y-102526612D01*
X158343600Y-103721387D01*
X158341217Y-103745580D01*
X158325209Y-103826052D01*
X158306694Y-103870750D01*
X158268028Y-103928617D01*
X158233817Y-103962828D01*
X158175950Y-104001494D01*
X158131251Y-104020009D01*
X158062992Y-104033587D01*
X158014608Y-104033587D01*
X157946348Y-104020009D01*
X157901649Y-104001494D01*
X157843782Y-103962828D01*
X157809571Y-103928617D01*
X157770905Y-103870750D01*
X157752390Y-103826050D01*
X157736383Y-103745578D01*
X157734000Y-103721387D01*
X157734000Y-102526612D01*
X157736383Y-102502421D01*
X157752390Y-102421949D01*
X157770903Y-102377251D01*
X157809571Y-102319381D01*
X157843782Y-102285171D01*
X157901651Y-102246503D01*
X157946347Y-102227990D01*
X158014609Y-102214412D01*
X158062991Y-102214412D01*
X158131251Y-102227990D01*
G37*
%TD.AperFunction*%
%TD*%
%TA.AperFunction,Conductor*%
%TO.N,Net-(D302-A)*%
G36*
X136721159Y-101148393D02*
G01*
X136740916Y-101150993D01*
X136845887Y-101164813D01*
X136851925Y-101166431D01*
X136966686Y-101213967D01*
X136972110Y-101217099D01*
X137070649Y-101292711D01*
X137075079Y-101297141D01*
X137150691Y-101395680D01*
X137153824Y-101401105D01*
X137201357Y-101515860D01*
X137202977Y-101521906D01*
X137207280Y-101554588D01*
X137219398Y-101646630D01*
X137219603Y-101649763D01*
X137219603Y-102577012D01*
X137219398Y-102580145D01*
X137202978Y-102704868D01*
X137201356Y-102710920D01*
X137153824Y-102825670D01*
X137150691Y-102831095D01*
X137075079Y-102929634D01*
X137070649Y-102934064D01*
X136972110Y-103009676D01*
X136966685Y-103012809D01*
X136889750Y-103044677D01*
X136851932Y-103060341D01*
X136845883Y-103061963D01*
X136721160Y-103078383D01*
X136718027Y-103078588D01*
X135965106Y-103078588D01*
X135963543Y-103078537D01*
X135900920Y-103074450D01*
X135897822Y-103074044D01*
X135836267Y-103061858D01*
X135834744Y-103061505D01*
X135647603Y-103011601D01*
X135136803Y-102875388D01*
X134374803Y-102672188D01*
X134309297Y-102672188D01*
X133758779Y-102672188D01*
X133755646Y-102671983D01*
X133630922Y-102655563D01*
X133624875Y-102653942D01*
X133539833Y-102618716D01*
X133510120Y-102606409D01*
X133504695Y-102603276D01*
X133406156Y-102527664D01*
X133401726Y-102523234D01*
X133326114Y-102424695D01*
X133322981Y-102419270D01*
X133275446Y-102304510D01*
X133273828Y-102298472D01*
X133257408Y-102173744D01*
X133257203Y-102170612D01*
X133257203Y-102056163D01*
X133257408Y-102053031D01*
X133257733Y-102050555D01*
X133273828Y-101928301D01*
X133275445Y-101922266D01*
X133322983Y-101807500D01*
X133326114Y-101802080D01*
X133401730Y-101703536D01*
X133406151Y-101699115D01*
X133504697Y-101623497D01*
X133510115Y-101620368D01*
X133624881Y-101572830D01*
X133630916Y-101571213D01*
X133738294Y-101557077D01*
X133755647Y-101554793D01*
X133758779Y-101554588D01*
X134309279Y-101554588D01*
X134309281Y-101554588D01*
X134374803Y-101554588D01*
X135349627Y-101294635D01*
X135834772Y-101165263D01*
X135836238Y-101164923D01*
X135897823Y-101152730D01*
X135900918Y-101152325D01*
X135963543Y-101148238D01*
X135965106Y-101148188D01*
X136718027Y-101148188D01*
X136721159Y-101148393D01*
G37*
%TD.AperFunction*%
%TD*%
%TA.AperFunction,Conductor*%
%TO.N,+3V3*%
G36*
X178851610Y-94423829D02*
G01*
X178882123Y-94469493D01*
X178885707Y-94478145D01*
X178896270Y-94531247D01*
X178896731Y-94535929D01*
X178896731Y-95000849D01*
X178899038Y-95012444D01*
X178899499Y-95017127D01*
X178899499Y-96179964D01*
X178899704Y-96181521D01*
X178899544Y-96181541D01*
X178900000Y-96184990D01*
X178900000Y-98048424D01*
X178899795Y-98051557D01*
X178883375Y-98176280D01*
X178881753Y-98182332D01*
X178834221Y-98297082D01*
X178831088Y-98302507D01*
X178755476Y-98401046D01*
X178751046Y-98405476D01*
X178652507Y-98481088D01*
X178647082Y-98484221D01*
X178570147Y-98516089D01*
X178532329Y-98531753D01*
X178526280Y-98533375D01*
X178401557Y-98549795D01*
X178398424Y-98550000D01*
X178351576Y-98550000D01*
X178348443Y-98549795D01*
X178223719Y-98533375D01*
X178217672Y-98531754D01*
X178132630Y-98496528D01*
X178102917Y-98484221D01*
X178097492Y-98481088D01*
X177998953Y-98405476D01*
X177994523Y-98401046D01*
X177918911Y-98302507D01*
X177915778Y-98297082D01*
X177868243Y-98182322D01*
X177866625Y-98176284D01*
X177850205Y-98051556D01*
X177850000Y-98048424D01*
X177850000Y-96096055D01*
X177850106Y-96093807D01*
X177858564Y-96003918D01*
X177859402Y-95999500D01*
X177884489Y-95912731D01*
X177885200Y-95910646D01*
X178251410Y-94981034D01*
X178253155Y-94977494D01*
X178559361Y-94467152D01*
X178574120Y-94456217D01*
X178579941Y-94455500D01*
X178649970Y-94455500D01*
X178649976Y-94455500D01*
X178687490Y-94452047D01*
X178687797Y-94451990D01*
X178690373Y-94451495D01*
X178761944Y-94437259D01*
X178800500Y-94425563D01*
X178809152Y-94421979D01*
X178820340Y-94415997D01*
X178838620Y-94414196D01*
X178851610Y-94423829D01*
G37*
%TD.AperFunction*%
%TD*%
%TA.AperFunction,Conductor*%
%TO.N,GND*%
G36*
X146373556Y-73253805D02*
G01*
X146393313Y-73256405D01*
X146498284Y-73270225D01*
X146504322Y-73271843D01*
X146619083Y-73319379D01*
X146624507Y-73322511D01*
X146723046Y-73398123D01*
X146727476Y-73402553D01*
X146803088Y-73501092D01*
X146806221Y-73506517D01*
X146853754Y-73621272D01*
X146855375Y-73627319D01*
X146871795Y-73752042D01*
X146872000Y-73755175D01*
X146872000Y-73869624D01*
X146871795Y-73872757D01*
X146855375Y-73997480D01*
X146853753Y-74003532D01*
X146806221Y-74118282D01*
X146803088Y-74123707D01*
X146727476Y-74222246D01*
X146723046Y-74226676D01*
X146624507Y-74302288D01*
X146619082Y-74305421D01*
X146542147Y-74337289D01*
X146504329Y-74352953D01*
X146498280Y-74354575D01*
X146373557Y-74370995D01*
X146370424Y-74371200D01*
X144833576Y-74371200D01*
X144830443Y-74370995D01*
X144705719Y-74354575D01*
X144699672Y-74352954D01*
X144614630Y-74317728D01*
X144584917Y-74305421D01*
X144579492Y-74302288D01*
X144480953Y-74226676D01*
X144476523Y-74222246D01*
X144400911Y-74123707D01*
X144397778Y-74118282D01*
X144350243Y-74003522D01*
X144348625Y-73997484D01*
X144332205Y-73872756D01*
X144332000Y-73869624D01*
X144332000Y-73755175D01*
X144332205Y-73752043D01*
X144332530Y-73749567D01*
X144348625Y-73627313D01*
X144350242Y-73621278D01*
X144397780Y-73506512D01*
X144400911Y-73501092D01*
X144476527Y-73402548D01*
X144480948Y-73398127D01*
X144579494Y-73322509D01*
X144584912Y-73319380D01*
X144699678Y-73271842D01*
X144705713Y-73270225D01*
X144813091Y-73256089D01*
X144830444Y-73253805D01*
X144833576Y-73253600D01*
X146370424Y-73253600D01*
X146373556Y-73253805D01*
G37*
%TD.AperFunction*%
%TD*%
%TA.AperFunction,Conductor*%
%TO.N,+3V3*%
G36*
X149818756Y-72237805D02*
G01*
X149838513Y-72240405D01*
X149943484Y-72254225D01*
X149949522Y-72255843D01*
X150064283Y-72303379D01*
X150069707Y-72306511D01*
X150168246Y-72382123D01*
X150172676Y-72386553D01*
X150248288Y-72485092D01*
X150251421Y-72490517D01*
X150298954Y-72605272D01*
X150300575Y-72611319D01*
X150316995Y-72736042D01*
X150317200Y-72739175D01*
X150317200Y-74422000D01*
X150565264Y-74566704D01*
X151896587Y-75343309D01*
X151899176Y-75345055D01*
X151998250Y-75421696D01*
X152002646Y-75426122D01*
X152072581Y-75517792D01*
X152077500Y-75532349D01*
X152077500Y-76941528D01*
X152077501Y-76941536D01*
X152086408Y-76986316D01*
X152082824Y-77004332D01*
X152076203Y-77010953D01*
X152024531Y-77045479D01*
X152015879Y-77049063D01*
X151947482Y-77062668D01*
X151938118Y-77062668D01*
X151869720Y-77049063D01*
X151861068Y-77045479D01*
X151803085Y-77006735D01*
X151796464Y-77000114D01*
X151777092Y-76971122D01*
X151757718Y-76942128D01*
X151754137Y-76933482D01*
X151740061Y-76862717D01*
X151739600Y-76858035D01*
X151739600Y-76063168D01*
X151739600Y-76063164D01*
X151739600Y-75742800D01*
X151448555Y-75608919D01*
X151448553Y-75608918D01*
X150469600Y-75158600D01*
X149492192Y-74708992D01*
X149489210Y-74707354D01*
X149374283Y-74633105D01*
X149369146Y-74628634D01*
X149280849Y-74526381D01*
X149277175Y-74520645D01*
X149221184Y-74397706D01*
X149219268Y-74391166D01*
X149213183Y-74348743D01*
X149199843Y-74255730D01*
X149199600Y-74252323D01*
X149199600Y-72739175D01*
X149199805Y-72736043D01*
X149200130Y-72733567D01*
X149216225Y-72611313D01*
X149217842Y-72605278D01*
X149265380Y-72490512D01*
X149268511Y-72485092D01*
X149344127Y-72386548D01*
X149348548Y-72382127D01*
X149447094Y-72306509D01*
X149452512Y-72303380D01*
X149567278Y-72255842D01*
X149573313Y-72254225D01*
X149680691Y-72240089D01*
X149698044Y-72237805D01*
X149701176Y-72237600D01*
X149815624Y-72237600D01*
X149818756Y-72237805D01*
G37*
%TD.AperFunction*%
%TD*%
%TA.AperFunction,Conductor*%
%TO.N,Net-(D301-A)*%
G36*
X136721159Y-105110793D02*
G01*
X136740916Y-105113393D01*
X136845887Y-105127213D01*
X136851925Y-105128831D01*
X136966686Y-105176367D01*
X136972110Y-105179499D01*
X137070649Y-105255111D01*
X137075079Y-105259541D01*
X137150691Y-105358080D01*
X137153824Y-105363505D01*
X137201357Y-105478260D01*
X137202977Y-105484306D01*
X137207280Y-105516988D01*
X137219398Y-105609030D01*
X137219603Y-105612163D01*
X137219603Y-106539412D01*
X137219398Y-106542545D01*
X137202978Y-106667268D01*
X137201356Y-106673320D01*
X137153824Y-106788070D01*
X137150691Y-106793495D01*
X137075079Y-106892034D01*
X137070649Y-106896464D01*
X136972110Y-106972076D01*
X136966685Y-106975209D01*
X136889750Y-107007077D01*
X136851932Y-107022741D01*
X136845883Y-107024363D01*
X136721160Y-107040783D01*
X136718027Y-107040988D01*
X135965106Y-107040988D01*
X135963543Y-107040937D01*
X135900920Y-107036850D01*
X135897822Y-107036444D01*
X135836267Y-107024258D01*
X135834744Y-107023905D01*
X135647603Y-106974001D01*
X135136803Y-106837788D01*
X134374803Y-106634588D01*
X134309297Y-106634588D01*
X133758779Y-106634588D01*
X133755646Y-106634383D01*
X133630922Y-106617963D01*
X133624875Y-106616342D01*
X133539833Y-106581116D01*
X133510120Y-106568809D01*
X133504695Y-106565676D01*
X133406156Y-106490064D01*
X133401726Y-106485634D01*
X133326114Y-106387095D01*
X133322981Y-106381670D01*
X133275446Y-106266910D01*
X133273828Y-106260872D01*
X133257408Y-106136144D01*
X133257203Y-106133012D01*
X133257203Y-106018563D01*
X133257408Y-106015431D01*
X133257733Y-106012955D01*
X133273828Y-105890701D01*
X133275445Y-105884666D01*
X133322983Y-105769900D01*
X133326114Y-105764480D01*
X133401730Y-105665936D01*
X133406151Y-105661515D01*
X133504697Y-105585897D01*
X133510115Y-105582768D01*
X133624881Y-105535230D01*
X133630916Y-105533613D01*
X133738294Y-105519477D01*
X133755647Y-105517193D01*
X133758779Y-105516988D01*
X134309279Y-105516988D01*
X134309281Y-105516988D01*
X134374803Y-105516988D01*
X135349627Y-105257035D01*
X135834772Y-105127663D01*
X135836238Y-105127323D01*
X135897823Y-105115130D01*
X135900918Y-105114725D01*
X135963543Y-105110638D01*
X135965106Y-105110588D01*
X136718027Y-105110588D01*
X136721159Y-105110793D01*
G37*
%TD.AperFunction*%
%TD*%
%TA.AperFunction,Conductor*%
%TO.N,Net-(JP301-B)*%
G36*
X185617439Y-65941778D02*
G01*
X185663194Y-65994582D01*
X185674400Y-66046093D01*
X185674400Y-66490794D01*
X185698505Y-66537399D01*
X185702916Y-66546888D01*
X185704217Y-66550027D01*
X185710860Y-66561283D01*
X186422539Y-67937195D01*
X186436400Y-67994163D01*
X186436400Y-69317993D01*
X186416715Y-69385032D01*
X186363911Y-69430787D01*
X186312400Y-69441993D01*
X185493600Y-69441993D01*
X185426561Y-69422308D01*
X185380806Y-69369504D01*
X185369600Y-69317993D01*
X185369600Y-66046093D01*
X185389285Y-65979054D01*
X185442089Y-65933299D01*
X185493600Y-65922093D01*
X185550400Y-65922093D01*
X185617439Y-65941778D01*
G37*
%TD.AperFunction*%
%TD*%
%TA.AperFunction,Conductor*%
%TO.N,+BATT*%
G36*
X151784239Y-77337285D02*
G01*
X151829994Y-77390089D01*
X151841200Y-77441600D01*
X151841200Y-78260400D01*
X151821515Y-78327439D01*
X151768711Y-78373194D01*
X151717200Y-78384400D01*
X150967112Y-78384400D01*
X150900073Y-78364715D01*
X150898221Y-78363502D01*
X150844249Y-78327439D01*
X150810495Y-78304885D01*
X150810493Y-78304884D01*
X150810490Y-78304883D01*
X150730137Y-78288900D01*
X149323600Y-78288900D01*
X149256561Y-78269215D01*
X149210806Y-78216411D01*
X149199600Y-78164900D01*
X149199600Y-77441600D01*
X149219285Y-77374561D01*
X149272089Y-77328806D01*
X149323600Y-77317600D01*
X151717200Y-77317600D01*
X151784239Y-77337285D01*
G37*
%TD.AperFunction*%
%TD*%
%TA.AperFunction,Conductor*%
%TO.N,+BATT*%
G36*
X158723039Y-46836485D02*
G01*
X158768794Y-46889289D01*
X158780000Y-46940800D01*
X158780000Y-48259256D01*
X158760315Y-48326295D01*
X158707511Y-48372050D01*
X158669259Y-48382545D01*
X158648311Y-48384797D01*
X158596825Y-48395997D01*
X158586627Y-48398490D01*
X158586624Y-48398491D01*
X158505916Y-48441499D01*
X158505913Y-48441501D01*
X158453113Y-48487252D01*
X158441264Y-48498862D01*
X158435157Y-48504846D01*
X158435156Y-48504847D01*
X158431355Y-48508572D01*
X158369693Y-48541429D01*
X158344573Y-48544000D01*
X150674400Y-48544000D01*
X150607361Y-48524315D01*
X150561606Y-48471511D01*
X150550400Y-48420000D01*
X150550400Y-46940800D01*
X150570085Y-46873761D01*
X150622889Y-46828006D01*
X150674400Y-46816800D01*
X158656000Y-46816800D01*
X158723039Y-46836485D01*
G37*
%TD.AperFunction*%
%TD*%
%TA.AperFunction,Conductor*%
%TO.N,/STM32/NRST*%
G36*
X133728491Y-83778738D02*
G01*
X134924800Y-84277200D01*
X136477200Y-84277200D01*
X136544239Y-84296885D01*
X136589994Y-84349689D01*
X136601200Y-84401200D01*
X136601200Y-85880400D01*
X136581515Y-85947439D01*
X136528711Y-85993194D01*
X136477200Y-86004400D01*
X125092000Y-86004400D01*
X125024961Y-85984715D01*
X124979206Y-85931911D01*
X124968000Y-85880400D01*
X124968000Y-83893200D01*
X124987685Y-83826161D01*
X125040489Y-83780406D01*
X125092000Y-83769200D01*
X133680799Y-83769200D01*
X133728491Y-83778738D01*
G37*
%TD.AperFunction*%
%TD*%
%TA.AperFunction,Conductor*%
%TO.N,+3V3*%
G36*
X159285459Y-57692461D02*
G01*
X159390623Y-57706306D01*
X159421891Y-57714684D01*
X159512318Y-57752140D01*
X159540352Y-57768325D01*
X159618002Y-57827909D01*
X159640891Y-57850798D01*
X159700474Y-57928448D01*
X159716659Y-57956481D01*
X159754115Y-58046908D01*
X159762493Y-58078175D01*
X159776339Y-58183339D01*
X159777400Y-58199525D01*
X159777400Y-59469274D01*
X159776339Y-59485460D01*
X159762493Y-59590624D01*
X159754115Y-59621891D01*
X159716659Y-59712318D01*
X159700474Y-59740351D01*
X159640891Y-59818001D01*
X159618001Y-59840891D01*
X159540351Y-59900474D01*
X159512318Y-59916659D01*
X159421891Y-59954115D01*
X159390624Y-59962493D01*
X159296798Y-59974846D01*
X159285458Y-59976339D01*
X159269274Y-59977400D01*
X159218726Y-59977400D01*
X159202541Y-59976339D01*
X159189517Y-59974624D01*
X159097375Y-59962493D01*
X159066108Y-59954115D01*
X158975681Y-59916659D01*
X158947648Y-59900474D01*
X158869998Y-59840891D01*
X158847108Y-59818001D01*
X158787525Y-59740351D01*
X158771340Y-59712318D01*
X158733884Y-59621891D01*
X158725506Y-59590623D01*
X158711661Y-59485459D01*
X158710600Y-59469274D01*
X158710600Y-58199525D01*
X158711661Y-58183340D01*
X158725506Y-58078176D01*
X158733884Y-58046908D01*
X158771340Y-57956481D01*
X158787523Y-57928450D01*
X158847113Y-57850792D01*
X158869992Y-57827913D01*
X158947650Y-57768323D01*
X158975679Y-57752140D01*
X159066109Y-57714683D01*
X159097375Y-57706306D01*
X159202541Y-57692461D01*
X159218726Y-57691400D01*
X159269274Y-57691400D01*
X159285459Y-57692461D01*
G37*
%TD.AperFunction*%
%TD*%
%TA.AperFunction,Conductor*%
%TO.N,/STM32/WAKEUP*%
G36*
X139316756Y-73595805D02*
G01*
X139336513Y-73598405D01*
X139441484Y-73612225D01*
X139447522Y-73613843D01*
X139562283Y-73661379D01*
X139567707Y-73664511D01*
X139666246Y-73740123D01*
X139670676Y-73744553D01*
X139746288Y-73843092D01*
X139749421Y-73848517D01*
X139796954Y-73963272D01*
X139798575Y-73969319D01*
X139814995Y-74094042D01*
X139815200Y-74097175D01*
X139815200Y-74194024D01*
X139814995Y-74197157D01*
X139798575Y-74321880D01*
X139796953Y-74327932D01*
X139749421Y-74442682D01*
X139746288Y-74448107D01*
X139670676Y-74546646D01*
X139666246Y-74551076D01*
X139567707Y-74626688D01*
X139562282Y-74629821D01*
X139485347Y-74661689D01*
X139447529Y-74677353D01*
X139441480Y-74678975D01*
X139316757Y-74695395D01*
X139313624Y-74695600D01*
X137166776Y-74695600D01*
X137163643Y-74695395D01*
X137038919Y-74678975D01*
X137032872Y-74677354D01*
X136947830Y-74642128D01*
X136918117Y-74629821D01*
X136912692Y-74626688D01*
X136814153Y-74551076D01*
X136809723Y-74546646D01*
X136734111Y-74448107D01*
X136730978Y-74442682D01*
X136683443Y-74327922D01*
X136681825Y-74321884D01*
X136665405Y-74197156D01*
X136665200Y-74194024D01*
X136665200Y-74097175D01*
X136665405Y-74094043D01*
X136665730Y-74091567D01*
X136681825Y-73969313D01*
X136683442Y-73963278D01*
X136730980Y-73848512D01*
X136734111Y-73843092D01*
X136809727Y-73744548D01*
X136814148Y-73740127D01*
X136912694Y-73664509D01*
X136918112Y-73661380D01*
X137032878Y-73613842D01*
X137038913Y-73612225D01*
X137146291Y-73598089D01*
X137163644Y-73595805D01*
X137166776Y-73595600D01*
X139313624Y-73595600D01*
X139316756Y-73595805D01*
G37*
%TD.AperFunction*%
%TD*%
%TA.AperFunction,Conductor*%
%TO.N,+3V3*%
G36*
X169774039Y-97470185D02*
G01*
X169819794Y-97522989D01*
X169831000Y-97574500D01*
X169831000Y-98618686D01*
X169816764Y-98676373D01*
X169632328Y-99027308D01*
X169614720Y-99073678D01*
X169600485Y-99131363D01*
X169594500Y-99180595D01*
X169594500Y-99393566D01*
X169579624Y-99452455D01*
X169535138Y-99534889D01*
X169485977Y-99584538D01*
X169426014Y-99600000D01*
X168774000Y-99600000D01*
X168706961Y-99580315D01*
X168661206Y-99527511D01*
X168650000Y-99476000D01*
X168650000Y-99035040D01*
X168669685Y-98968001D01*
X168722489Y-98922246D01*
X168729304Y-98919376D01*
X168942033Y-98837231D01*
X168974554Y-98829504D01*
X168978140Y-98829151D01*
X169025592Y-98819712D01*
X169025972Y-98819596D01*
X169026559Y-98819469D01*
X169028559Y-98818969D01*
X169028575Y-98819033D01*
X169045810Y-98815308D01*
X169133823Y-98803721D01*
X169166183Y-98803721D01*
X169209096Y-98809370D01*
X169266373Y-98808858D01*
X169334068Y-98798713D01*
X169334092Y-98798708D01*
X169357469Y-98793800D01*
X169357469Y-98793799D01*
X169357473Y-98793799D01*
X169438185Y-98750789D01*
X169490989Y-98705034D01*
X169508943Y-98687443D01*
X169553590Y-98607626D01*
X169573275Y-98540587D01*
X169581600Y-98482689D01*
X169581600Y-98308652D01*
X169580610Y-98288506D01*
X169580597Y-98288373D01*
X169580591Y-98288254D01*
X169580498Y-98286992D01*
X169580529Y-98286989D01*
X169580000Y-98276220D01*
X169580000Y-97574500D01*
X169599685Y-97507461D01*
X169652489Y-97461706D01*
X169704000Y-97450500D01*
X169707000Y-97450500D01*
X169774039Y-97470185D01*
G37*
%TD.AperFunction*%
%TD*%
%TA.AperFunction,Conductor*%
%TO.N,GND*%
G36*
X141893956Y-82550205D02*
G01*
X141913713Y-82552805D01*
X142018684Y-82566625D01*
X142024722Y-82568243D01*
X142139483Y-82615779D01*
X142144907Y-82618911D01*
X142243446Y-82694523D01*
X142247876Y-82698953D01*
X142323488Y-82797492D01*
X142326621Y-82802917D01*
X142374154Y-82917672D01*
X142375775Y-82923719D01*
X142392195Y-83048442D01*
X142392400Y-83051575D01*
X142392400Y-83166023D01*
X142392195Y-83169157D01*
X142389828Y-83187130D01*
X142383004Y-83200967D01*
X141925767Y-83658204D01*
X141911930Y-83665028D01*
X141896064Y-83667117D01*
X141893956Y-83667395D01*
X141890824Y-83667600D01*
X140353976Y-83667600D01*
X140350843Y-83667395D01*
X140322088Y-83663609D01*
X140226118Y-83650974D01*
X140220072Y-83649354D01*
X140135030Y-83614128D01*
X140105317Y-83601821D01*
X140099892Y-83598688D01*
X140001353Y-83523076D01*
X139996923Y-83518646D01*
X139921311Y-83420107D01*
X139918178Y-83414682D01*
X139870643Y-83299922D01*
X139869025Y-83293884D01*
X139852605Y-83169156D01*
X139852400Y-83166024D01*
X139852400Y-83051575D01*
X139852605Y-83048443D01*
X139852930Y-83045967D01*
X139869025Y-82923713D01*
X139870642Y-82917678D01*
X139918180Y-82802912D01*
X139921311Y-82797492D01*
X139996927Y-82698948D01*
X140001348Y-82694527D01*
X140099894Y-82618909D01*
X140105312Y-82615780D01*
X140220078Y-82568242D01*
X140226113Y-82566625D01*
X140333491Y-82552489D01*
X140350844Y-82550205D01*
X140353976Y-82550000D01*
X141890824Y-82550000D01*
X141893956Y-82550205D01*
G37*
%TD.AperFunction*%
%TD*%
%TA.AperFunction,Conductor*%
%TO.N,+3V3*%
G36*
X132069956Y-97563005D02*
G01*
X132089713Y-97565605D01*
X132194684Y-97579425D01*
X132200722Y-97581043D01*
X132315483Y-97628579D01*
X132320907Y-97631711D01*
X132419446Y-97707323D01*
X132423876Y-97711753D01*
X132499488Y-97810292D01*
X132502621Y-97815717D01*
X132550154Y-97930472D01*
X132551775Y-97936519D01*
X132568195Y-98061242D01*
X132568400Y-98064375D01*
X132568400Y-98128024D01*
X132568195Y-98131157D01*
X132551775Y-98255880D01*
X132550153Y-98261932D01*
X132502621Y-98376682D01*
X132499488Y-98382107D01*
X132423876Y-98480646D01*
X132419446Y-98485076D01*
X132320907Y-98560688D01*
X132315482Y-98563821D01*
X132238547Y-98595689D01*
X132200729Y-98611353D01*
X132194680Y-98612975D01*
X132069957Y-98629395D01*
X132066824Y-98629600D01*
X130631576Y-98629600D01*
X130628443Y-98629395D01*
X130503719Y-98612975D01*
X130497672Y-98611354D01*
X130412630Y-98576128D01*
X130382917Y-98563821D01*
X130377492Y-98560688D01*
X130278953Y-98485076D01*
X130274523Y-98480646D01*
X130198911Y-98382107D01*
X130195778Y-98376682D01*
X130148243Y-98261922D01*
X130146625Y-98255884D01*
X130130205Y-98131156D01*
X130130000Y-98128024D01*
X130130000Y-98064375D01*
X130130205Y-98061243D01*
X130130530Y-98058767D01*
X130146625Y-97936513D01*
X130148242Y-97930478D01*
X130195780Y-97815712D01*
X130198911Y-97810292D01*
X130274527Y-97711748D01*
X130278948Y-97707327D01*
X130377494Y-97631709D01*
X130382912Y-97628580D01*
X130497678Y-97581042D01*
X130503713Y-97579425D01*
X130611091Y-97565289D01*
X130628444Y-97563005D01*
X130631576Y-97562800D01*
X132066824Y-97562800D01*
X132069956Y-97563005D01*
G37*
%TD.AperFunction*%
%TD*%
%TA.AperFunction,Conductor*%
%TO.N,Net-(D304-A)*%
G36*
X136721159Y-93121993D02*
G01*
X136740916Y-93124593D01*
X136845887Y-93138413D01*
X136851925Y-93140031D01*
X136966686Y-93187567D01*
X136972110Y-93190699D01*
X137070649Y-93266311D01*
X137075079Y-93270741D01*
X137150691Y-93369280D01*
X137153824Y-93374705D01*
X137201357Y-93489460D01*
X137202977Y-93495506D01*
X137207280Y-93528188D01*
X137219398Y-93620230D01*
X137219603Y-93623363D01*
X137219603Y-94550612D01*
X137219398Y-94553745D01*
X137202978Y-94678468D01*
X137201356Y-94684520D01*
X137153824Y-94799270D01*
X137150691Y-94804695D01*
X137075079Y-94903234D01*
X137070649Y-94907664D01*
X136972110Y-94983276D01*
X136966685Y-94986409D01*
X136889750Y-95018277D01*
X136851932Y-95033941D01*
X136845883Y-95035563D01*
X136721160Y-95051983D01*
X136718027Y-95052188D01*
X135965106Y-95052188D01*
X135963543Y-95052137D01*
X135900920Y-95048050D01*
X135897822Y-95047644D01*
X135836267Y-95035458D01*
X135834744Y-95035105D01*
X135647603Y-94985201D01*
X135136803Y-94848988D01*
X134374803Y-94645788D01*
X134309297Y-94645788D01*
X133758779Y-94645788D01*
X133755646Y-94645583D01*
X133630922Y-94629163D01*
X133624875Y-94627542D01*
X133539833Y-94592316D01*
X133510120Y-94580009D01*
X133504695Y-94576876D01*
X133406156Y-94501264D01*
X133401726Y-94496834D01*
X133326114Y-94398295D01*
X133322981Y-94392870D01*
X133275446Y-94278110D01*
X133273828Y-94272072D01*
X133257408Y-94147344D01*
X133257203Y-94144212D01*
X133257203Y-94029763D01*
X133257408Y-94026631D01*
X133257733Y-94024155D01*
X133273828Y-93901901D01*
X133275445Y-93895866D01*
X133322983Y-93781100D01*
X133326114Y-93775680D01*
X133401730Y-93677136D01*
X133406151Y-93672715D01*
X133504697Y-93597097D01*
X133510115Y-93593968D01*
X133624881Y-93546430D01*
X133630916Y-93544813D01*
X133738294Y-93530677D01*
X133755647Y-93528393D01*
X133758779Y-93528188D01*
X134309279Y-93528188D01*
X134309281Y-93528188D01*
X134374803Y-93528188D01*
X135349627Y-93268235D01*
X135834772Y-93138863D01*
X135836238Y-93138523D01*
X135897823Y-93126330D01*
X135900918Y-93125925D01*
X135963543Y-93121838D01*
X135965106Y-93121788D01*
X136718027Y-93121788D01*
X136721159Y-93121993D01*
G37*
%TD.AperFunction*%
%TD*%
%TA.AperFunction,Conductor*%
%TO.N,+3V3*%
G36*
X165626224Y-101995806D02*
G01*
X165657491Y-102004184D01*
X165747918Y-102041640D01*
X165775952Y-102057825D01*
X165853602Y-102117409D01*
X165876491Y-102140298D01*
X165936074Y-102217948D01*
X165952259Y-102245981D01*
X165989715Y-102336408D01*
X165998093Y-102367675D01*
X166011939Y-102472839D01*
X166013000Y-102489025D01*
X166013000Y-103707974D01*
X166011939Y-103724160D01*
X165998093Y-103829324D01*
X165989715Y-103860591D01*
X165952259Y-103951018D01*
X165936074Y-103979051D01*
X165876491Y-104056701D01*
X165853601Y-104079591D01*
X165775951Y-104139174D01*
X165747918Y-104155359D01*
X165657491Y-104192815D01*
X165626224Y-104201193D01*
X165521186Y-104215022D01*
X165488814Y-104215022D01*
X165383775Y-104201193D01*
X165352508Y-104192815D01*
X165262081Y-104155359D01*
X165234048Y-104139174D01*
X165156398Y-104079591D01*
X165133508Y-104056701D01*
X165073925Y-103979051D01*
X165057740Y-103951018D01*
X165020284Y-103860591D01*
X165011906Y-103829323D01*
X164998061Y-103724159D01*
X164997000Y-103707974D01*
X164997000Y-102489025D01*
X164998061Y-102472840D01*
X165011906Y-102367676D01*
X165020284Y-102336408D01*
X165057740Y-102245981D01*
X165073923Y-102217950D01*
X165133513Y-102140292D01*
X165156392Y-102117413D01*
X165234050Y-102057823D01*
X165262079Y-102041640D01*
X165352509Y-102004183D01*
X165383773Y-101995806D01*
X165488819Y-101981977D01*
X165521181Y-101981977D01*
X165626224Y-101995806D01*
G37*
%TD.AperFunction*%
%TD*%
%TA.AperFunction,Conductor*%
%TO.N,+3V3*%
G36*
X153016087Y-86788556D02*
G01*
X153026846Y-86794767D01*
X153070471Y-86838392D01*
X153077500Y-86855363D01*
X153077500Y-88291528D01*
X153077501Y-88291536D01*
X153093484Y-88371894D01*
X153093485Y-88371896D01*
X153103136Y-88386339D01*
X153105264Y-88389524D01*
X153107155Y-88392353D01*
X153111200Y-88405687D01*
X153111200Y-92767224D01*
X153110995Y-92770357D01*
X153094575Y-92895080D01*
X153092953Y-92901132D01*
X153045421Y-93015882D01*
X153042288Y-93021307D01*
X152966676Y-93119846D01*
X152962246Y-93124276D01*
X152863707Y-93199888D01*
X152858282Y-93203021D01*
X152781347Y-93234889D01*
X152743529Y-93250553D01*
X152737480Y-93252175D01*
X152612757Y-93268595D01*
X152609624Y-93268800D01*
X152495176Y-93268800D01*
X152492043Y-93268595D01*
X152367319Y-93252175D01*
X152361272Y-93250554D01*
X152276230Y-93215328D01*
X152246517Y-93203021D01*
X152241092Y-93199888D01*
X152142553Y-93124276D01*
X152138123Y-93119846D01*
X152062511Y-93021307D01*
X152059378Y-93015882D01*
X152011843Y-92901122D01*
X152010225Y-92895084D01*
X151993805Y-92770356D01*
X151993600Y-92767224D01*
X151993600Y-89506421D01*
X151993819Y-89503188D01*
X152011304Y-89374556D01*
X152013026Y-89368342D01*
X152063569Y-89250546D01*
X152066893Y-89245007D01*
X152147038Y-89144987D01*
X152151723Y-89140532D01*
X152256992Y-89064572D01*
X152259742Y-89062858D01*
X152374600Y-89001600D01*
X152755600Y-88798400D01*
X152755600Y-88389524D01*
X152759645Y-88376190D01*
X152762515Y-88371895D01*
X152778500Y-88291533D01*
X152778499Y-86866162D01*
X152785527Y-86849193D01*
X152839955Y-86794765D01*
X152850710Y-86788556D01*
X152927190Y-86768064D01*
X152939610Y-86768064D01*
X153016087Y-86788556D01*
G37*
%TD.AperFunction*%
%TD*%
%TA.AperFunction,Conductor*%
%TO.N,GND*%
G36*
X184601439Y-64021278D02*
G01*
X184647194Y-64074082D01*
X184658400Y-64125593D01*
X184658400Y-64487193D01*
X184638715Y-64554232D01*
X184585911Y-64599987D01*
X184534400Y-64611193D01*
X183258400Y-64611193D01*
X183191361Y-64591508D01*
X183145606Y-64538704D01*
X183134400Y-64487193D01*
X183134400Y-64125593D01*
X183154085Y-64058554D01*
X183206889Y-64012799D01*
X183258400Y-64001593D01*
X184534400Y-64001593D01*
X184601439Y-64021278D01*
G37*
%TD.AperFunction*%
%TD*%
%TA.AperFunction,Conductor*%
%TO.N,Net-(J303-Pin_4)*%
G36*
X125960468Y-57540368D02*
G01*
X126006223Y-57593172D01*
X126017429Y-57644532D01*
X126024849Y-63725849D01*
X126005246Y-63792912D01*
X125952498Y-63838731D01*
X125900849Y-63850000D01*
X124248849Y-63850000D01*
X124181810Y-63830315D01*
X124136055Y-63777511D01*
X124124849Y-63726151D01*
X124117429Y-57644834D01*
X124137032Y-57577771D01*
X124189780Y-57531952D01*
X124241429Y-57520683D01*
X125893429Y-57520683D01*
X125960468Y-57540368D01*
G37*
%TD.AperFunction*%
%TD*%
%TA.AperFunction,Conductor*%
%TO.N,Net-(J401-Pin_2)*%
G36*
X179859039Y-49089285D02*
G01*
X179904794Y-49142089D01*
X179916000Y-49193600D01*
X179916000Y-50876000D01*
X179896315Y-50943039D01*
X179843511Y-50988794D01*
X179792000Y-51000000D01*
X173994800Y-51000000D01*
X173927761Y-50980315D01*
X173882006Y-50927511D01*
X173870800Y-50876000D01*
X173870800Y-49193600D01*
X173890485Y-49126561D01*
X173943289Y-49080806D01*
X173994800Y-49069600D01*
X179792000Y-49069600D01*
X179859039Y-49089285D01*
G37*
%TD.AperFunction*%
%TD*%
%TA.AperFunction,Conductor*%
%TO.N,GND*%
G36*
X170817539Y-97470185D02*
G01*
X170863294Y-97522989D01*
X170874500Y-97574500D01*
X170874500Y-98288397D01*
X170889760Y-98365118D01*
X170889761Y-98365120D01*
X170930002Y-98425344D01*
X170950880Y-98492021D01*
X170950900Y-98494235D01*
X170950900Y-98700000D01*
X170950420Y-99180599D01*
X170950124Y-99476124D01*
X170930372Y-99543144D01*
X170877523Y-99588846D01*
X170826124Y-99600000D01*
X169924000Y-99600000D01*
X169856961Y-99580315D01*
X169811206Y-99527511D01*
X169800000Y-99476000D01*
X169800000Y-99180599D01*
X169814236Y-99122912D01*
X170036500Y-98700000D01*
X170036500Y-97574500D01*
X170056185Y-97507461D01*
X170108989Y-97461706D01*
X170160500Y-97450500D01*
X170750500Y-97450500D01*
X170817539Y-97470185D01*
G37*
%TD.AperFunction*%
%TD*%
%TA.AperFunction,Conductor*%
%TO.N,Net-(D402-A)*%
G36*
X179897839Y-52192085D02*
G01*
X179943594Y-52244889D01*
X179954800Y-52296400D01*
X179954800Y-56163200D01*
X179935115Y-56230239D01*
X179882311Y-56275994D01*
X179830800Y-56287200D01*
X178656400Y-56287200D01*
X178589361Y-56267515D01*
X178543606Y-56214711D01*
X178532400Y-56163200D01*
X178532400Y-52296400D01*
X178552085Y-52229361D01*
X178604889Y-52183606D01*
X178656400Y-52172400D01*
X179830800Y-52172400D01*
X179897839Y-52192085D01*
G37*
%TD.AperFunction*%
%TD*%
%TA.AperFunction,Conductor*%
%TO.N,GND*%
G36*
X178133322Y-93270731D02*
G01*
X178134904Y-93271702D01*
X178155661Y-93285571D01*
X178192851Y-93292969D01*
X178192855Y-93292969D01*
X178724218Y-93292969D01*
X178737552Y-93297014D01*
X178772808Y-93320571D01*
X178779429Y-93327192D01*
X178828317Y-93400358D01*
X178831901Y-93409010D01*
X178849539Y-93497682D01*
X178850000Y-93502364D01*
X178850000Y-93750000D01*
X178075002Y-93750000D01*
X178074999Y-93749999D01*
X178074995Y-93750000D01*
X178000000Y-93750000D01*
X177952095Y-93807702D01*
X177952093Y-93807705D01*
X176387231Y-95692652D01*
X176000776Y-96158156D01*
X175951074Y-96218024D01*
X175948641Y-96220553D01*
X175844093Y-96314415D01*
X175838260Y-96318281D01*
X175712687Y-96377239D01*
X175705986Y-96379258D01*
X175566983Y-96399744D01*
X175563484Y-96400000D01*
X175451891Y-96400000D01*
X175448137Y-96399705D01*
X175345597Y-96383464D01*
X175338455Y-96381143D01*
X175247663Y-96334882D01*
X175241588Y-96330469D01*
X175169530Y-96258411D01*
X175165117Y-96252336D01*
X175118856Y-96161544D01*
X175116535Y-96154402D01*
X175100295Y-96051862D01*
X175100000Y-96048108D01*
X175100000Y-94401575D01*
X175100205Y-94398443D01*
X175100530Y-94395967D01*
X175116625Y-94273713D01*
X175118242Y-94267678D01*
X175165780Y-94152912D01*
X175168911Y-94147492D01*
X175244527Y-94048948D01*
X175248948Y-94044527D01*
X175347494Y-93968909D01*
X175352912Y-93965780D01*
X175467678Y-93918242D01*
X175473713Y-93916625D01*
X175581091Y-93902489D01*
X175598444Y-93900205D01*
X175601576Y-93900000D01*
X176357672Y-93900000D01*
X176450000Y-93900000D01*
X176536245Y-93867023D01*
X176536249Y-93867023D01*
X176887108Y-93732870D01*
X177746370Y-93404329D01*
X178062740Y-93283363D01*
X178064810Y-93282678D01*
X178115083Y-93268554D01*
X178133322Y-93270731D01*
G37*
%TD.AperFunction*%
%TD*%
%TA.AperFunction,Conductor*%
%TO.N,Net-(C204-Pad2)*%
G36*
X142147956Y-80772205D02*
G01*
X142167713Y-80774805D01*
X142272684Y-80788625D01*
X142278722Y-80790243D01*
X142393483Y-80837779D01*
X142398907Y-80840911D01*
X142497446Y-80916523D01*
X142501876Y-80920953D01*
X142577488Y-81019492D01*
X142580621Y-81024917D01*
X142628154Y-81139672D01*
X142629775Y-81145719D01*
X142646195Y-81270442D01*
X142646400Y-81273575D01*
X142646400Y-81489624D01*
X142646195Y-81492757D01*
X142629775Y-81617480D01*
X142628153Y-81623532D01*
X142580621Y-81738282D01*
X142577488Y-81743707D01*
X142501876Y-81842246D01*
X142497446Y-81846676D01*
X142398907Y-81922288D01*
X142393482Y-81925421D01*
X142331940Y-81950913D01*
X142278729Y-81972953D01*
X142272680Y-81974575D01*
X142147957Y-81990995D01*
X142144824Y-81991200D01*
X140157200Y-81991200D01*
X140007542Y-82165800D01*
X140007535Y-82165807D01*
X138783984Y-83593284D01*
X138781560Y-83595732D01*
X138677671Y-83686570D01*
X138671901Y-83690307D01*
X138548115Y-83747240D01*
X138541524Y-83749189D01*
X138404940Y-83768953D01*
X138401503Y-83769200D01*
X136493176Y-83769200D01*
X136490043Y-83768995D01*
X136365319Y-83752575D01*
X136359272Y-83750954D01*
X136274230Y-83715728D01*
X136244517Y-83703421D01*
X136239092Y-83700288D01*
X136140553Y-83624676D01*
X136136123Y-83620246D01*
X136060511Y-83521707D01*
X136057378Y-83516282D01*
X136009843Y-83401522D01*
X136008225Y-83395484D01*
X135991805Y-83270756D01*
X135991600Y-83267624D01*
X135991600Y-82089111D01*
X135991819Y-82085876D01*
X135993769Y-82071540D01*
X136009332Y-81957141D01*
X136011056Y-81950921D01*
X136061679Y-81833045D01*
X136065003Y-81827511D01*
X136145272Y-81727445D01*
X136149955Y-81722998D01*
X136254043Y-81648010D01*
X136259744Y-81644976D01*
X136357477Y-81608870D01*
X136381615Y-81599953D01*
X136384726Y-81599038D01*
X140052171Y-80784050D01*
X140053459Y-80783800D01*
X140084842Y-80778607D01*
X140105437Y-80775199D01*
X140108036Y-80774914D01*
X140151258Y-80772548D01*
X140160629Y-80772036D01*
X140161940Y-80772000D01*
X142144824Y-80772000D01*
X142147956Y-80772205D01*
G37*
%TD.AperFunction*%
%TD*%
%TA.AperFunction,Conductor*%
%TO.N,+3V3*%
G36*
X132077956Y-105572605D02*
G01*
X132097713Y-105575205D01*
X132202684Y-105589025D01*
X132208722Y-105590643D01*
X132323483Y-105638179D01*
X132328907Y-105641311D01*
X132427446Y-105716923D01*
X132431876Y-105721353D01*
X132507488Y-105819892D01*
X132510621Y-105825317D01*
X132558154Y-105940072D01*
X132559775Y-105946119D01*
X132576195Y-106070842D01*
X132576400Y-106073975D01*
X132576400Y-106137624D01*
X132576195Y-106140757D01*
X132559775Y-106265480D01*
X132558153Y-106271532D01*
X132510621Y-106386282D01*
X132507488Y-106391707D01*
X132431876Y-106490246D01*
X132427446Y-106494676D01*
X132328907Y-106570288D01*
X132323482Y-106573421D01*
X132246547Y-106605289D01*
X132208729Y-106620953D01*
X132202680Y-106622575D01*
X132077957Y-106638995D01*
X132074824Y-106639200D01*
X130639576Y-106639200D01*
X130636443Y-106638995D01*
X130511719Y-106622575D01*
X130505672Y-106620954D01*
X130420630Y-106585728D01*
X130390917Y-106573421D01*
X130385492Y-106570288D01*
X130286953Y-106494676D01*
X130282523Y-106490246D01*
X130206911Y-106391707D01*
X130203778Y-106386282D01*
X130156243Y-106271522D01*
X130154625Y-106265484D01*
X130138205Y-106140756D01*
X130138000Y-106137624D01*
X130138000Y-106073975D01*
X130138205Y-106070843D01*
X130138530Y-106068367D01*
X130154625Y-105946113D01*
X130156242Y-105940078D01*
X130203780Y-105825312D01*
X130206911Y-105819892D01*
X130282527Y-105721348D01*
X130286948Y-105716927D01*
X130385494Y-105641309D01*
X130390912Y-105638180D01*
X130505678Y-105590642D01*
X130511713Y-105589025D01*
X130619091Y-105574889D01*
X130636444Y-105572605D01*
X130639576Y-105572400D01*
X132074824Y-105572400D01*
X132077956Y-105572605D01*
G37*
%TD.AperFunction*%
%TD*%
%TA.AperFunction,Conductor*%
%TO.N,GND*%
G36*
X173635439Y-56030485D02*
G01*
X173681194Y-56083289D01*
X173692400Y-56134800D01*
X173692400Y-58122000D01*
X173672715Y-58189039D01*
X173619911Y-58234794D01*
X173568400Y-58246000D01*
X172597200Y-58246000D01*
X172530161Y-58226315D01*
X172484406Y-58173511D01*
X172473200Y-58122000D01*
X172473200Y-56260300D01*
X172492885Y-56193261D01*
X172545689Y-56147506D01*
X172597200Y-56136300D01*
X172785863Y-56136300D01*
X172785868Y-56136300D01*
X172825961Y-56132351D01*
X172873412Y-56122912D01*
X172911960Y-56111218D01*
X172964600Y-56089412D01*
X172995865Y-56081035D01*
X173069010Y-56071406D01*
X173098911Y-56065180D01*
X173134236Y-56055035D01*
X173188170Y-56025792D01*
X173247274Y-56010800D01*
X173568400Y-56010800D01*
X173635439Y-56030485D01*
G37*
%TD.AperFunction*%
%TD*%
%TA.AperFunction,Conductor*%
%TO.N,Net-(D401-A)*%
G36*
X173093039Y-48889285D02*
G01*
X173138794Y-48942089D01*
X173150000Y-48993600D01*
X173150000Y-55744725D01*
X173130315Y-55811764D01*
X173077511Y-55857519D01*
X173042186Y-55867664D01*
X172940770Y-55881016D01*
X172926038Y-55882956D01*
X172926037Y-55882956D01*
X172872232Y-55905243D01*
X172833319Y-55921361D01*
X172785868Y-55930800D01*
X171445200Y-55930800D01*
X171378161Y-55911115D01*
X171332406Y-55858311D01*
X171321200Y-55806800D01*
X171321200Y-48993600D01*
X171340885Y-48926561D01*
X171393689Y-48880806D01*
X171445200Y-48869600D01*
X173026000Y-48869600D01*
X173093039Y-48889285D01*
G37*
%TD.AperFunction*%
%TD*%
%TA.AperFunction,Conductor*%
%TO.N,Net-(R201-Pad1)*%
G36*
X135934639Y-73628885D02*
G01*
X135980394Y-73681689D01*
X135991600Y-73733200D01*
X135991600Y-76431600D01*
X135971915Y-76498639D01*
X135919111Y-76544394D01*
X135867600Y-76555600D01*
X124939600Y-76555600D01*
X124872561Y-76535915D01*
X124826806Y-76483111D01*
X124815600Y-76431600D01*
X124815600Y-73733200D01*
X124835285Y-73666161D01*
X124888089Y-73620406D01*
X124939600Y-73609200D01*
X135867600Y-73609200D01*
X135934639Y-73628885D01*
G37*
%TD.AperFunction*%
%TD*%
%TA.AperFunction,Conductor*%
%TO.N,+3V3*%
G36*
X159518487Y-86788556D02*
G01*
X159529246Y-86794767D01*
X159585232Y-86850753D01*
X159591443Y-86861512D01*
X159612782Y-86941147D01*
X159613600Y-86947359D01*
X159613600Y-88341200D01*
X159920529Y-88469682D01*
X159920531Y-88469683D01*
X160070248Y-88532355D01*
X161489441Y-89126435D01*
X161492580Y-89128029D01*
X161613243Y-89200890D01*
X161618657Y-89205359D01*
X161711876Y-89308695D01*
X161715766Y-89314540D01*
X161775093Y-89440432D01*
X161777125Y-89447153D01*
X161797742Y-89586593D01*
X161798000Y-89590103D01*
X161798000Y-91090824D01*
X161797795Y-91093957D01*
X161781375Y-91218680D01*
X161779753Y-91224732D01*
X161732221Y-91339482D01*
X161729088Y-91344907D01*
X161653476Y-91443446D01*
X161649046Y-91447876D01*
X161550507Y-91523488D01*
X161545082Y-91526621D01*
X161468147Y-91558489D01*
X161430329Y-91574153D01*
X161424280Y-91575775D01*
X161299557Y-91592195D01*
X161296424Y-91592400D01*
X161181976Y-91592400D01*
X161178843Y-91592195D01*
X161054119Y-91575775D01*
X161048072Y-91574154D01*
X160963030Y-91538928D01*
X160933317Y-91526621D01*
X160927892Y-91523488D01*
X160829353Y-91447876D01*
X160824923Y-91443446D01*
X160749311Y-91344907D01*
X160746178Y-91339482D01*
X160698643Y-91224722D01*
X160697025Y-91218684D01*
X160680605Y-91093956D01*
X160680400Y-91090824D01*
X160680400Y-89766909D01*
X160680400Y-89509600D01*
X160471020Y-89360043D01*
X160471019Y-89360042D01*
X159468927Y-88644262D01*
X159466021Y-88641816D01*
X159357807Y-88535048D01*
X159353325Y-88528949D01*
X159284641Y-88395483D01*
X159282284Y-88388292D01*
X159272704Y-88328327D01*
X159272863Y-88319867D01*
X159278500Y-88291533D01*
X159278499Y-86870855D01*
X159279315Y-86864651D01*
X159280156Y-86861510D01*
X159286365Y-86850755D01*
X159342355Y-86794765D01*
X159353110Y-86788556D01*
X159429590Y-86768064D01*
X159442010Y-86768064D01*
X159518487Y-86788556D01*
G37*
%TD.AperFunction*%
%TD*%
%TA.AperFunction,Conductor*%
%TO.N,+3V3*%
G36*
X181850000Y-90526000D02*
G01*
X181830315Y-90593039D01*
X181777511Y-90638794D01*
X181726000Y-90650000D01*
X180774000Y-90650000D01*
X180706961Y-90630315D01*
X180661206Y-90577511D01*
X180650000Y-90526000D01*
X180650000Y-88450000D01*
X181850000Y-88450000D01*
X181850000Y-90526000D01*
G37*
%TD.AperFunction*%
%TD*%
%TA.AperFunction,Conductor*%
%TO.N,GND*%
G36*
X152508087Y-86788556D02*
G01*
X152518846Y-86794767D01*
X152566788Y-86842709D01*
X152573817Y-86859680D01*
X152573358Y-86864353D01*
X152572999Y-86866161D01*
X152572999Y-88268930D01*
X152572538Y-88273612D01*
X152565309Y-88309956D01*
X152563467Y-88315532D01*
X152562996Y-88316527D01*
X152562993Y-88316535D01*
X152558949Y-88329864D01*
X152558946Y-88329877D01*
X152550100Y-88389519D01*
X152550100Y-88660700D01*
X152543071Y-88677671D01*
X152537394Y-88681876D01*
X152163033Y-88881535D01*
X152151060Y-88888448D01*
X152148297Y-88890170D01*
X152136738Y-88897931D01*
X152031482Y-88973881D01*
X152031460Y-88973899D01*
X152010125Y-88991602D01*
X152010094Y-88991630D01*
X152005437Y-88996057D01*
X152005431Y-88996064D01*
X151986675Y-89016479D01*
X151986652Y-89016506D01*
X151908559Y-89113966D01*
X151899830Y-89120776D01*
X151675677Y-89223514D01*
X151675673Y-89223516D01*
X151384000Y-89357200D01*
X151384000Y-89678045D01*
X151384000Y-92767224D01*
X151383795Y-92770357D01*
X151367375Y-92895080D01*
X151365753Y-92901132D01*
X151318221Y-93015882D01*
X151315088Y-93021307D01*
X151239476Y-93119846D01*
X151235046Y-93124276D01*
X151136507Y-93199888D01*
X151131082Y-93203021D01*
X151054147Y-93234889D01*
X151016329Y-93250553D01*
X151010280Y-93252175D01*
X150885557Y-93268595D01*
X150882424Y-93268800D01*
X150767976Y-93268800D01*
X150764843Y-93268595D01*
X150640119Y-93252175D01*
X150634072Y-93250554D01*
X150549030Y-93215328D01*
X150519317Y-93203021D01*
X150513892Y-93199888D01*
X150415353Y-93124276D01*
X150410923Y-93119846D01*
X150335311Y-93021307D01*
X150332178Y-93015882D01*
X150284643Y-92901122D01*
X150283025Y-92895084D01*
X150266605Y-92770356D01*
X150266400Y-92767224D01*
X150266400Y-89269117D01*
X150266633Y-89265784D01*
X150285217Y-89133252D01*
X150287048Y-89126851D01*
X150340687Y-89006078D01*
X150344207Y-89000430D01*
X150428996Y-88899066D01*
X150433936Y-88894603D01*
X150543330Y-88820474D01*
X150549308Y-88817540D01*
X150676484Y-88775830D01*
X150679702Y-88775017D01*
X151553099Y-88618254D01*
X151989646Y-88539899D01*
X152030132Y-88539899D01*
X152110495Y-88523915D01*
X152122173Y-88516111D01*
X152247600Y-88493600D01*
X152247600Y-88394216D01*
X152262515Y-88371895D01*
X152278500Y-88291533D01*
X152278499Y-86858161D01*
X152285526Y-86841194D01*
X152331956Y-86794764D01*
X152342708Y-86788557D01*
X152419190Y-86768064D01*
X152431610Y-86768064D01*
X152508087Y-86788556D01*
G37*
%TD.AperFunction*%
%TD*%
%TA.AperFunction,Conductor*%
%TO.N,+BATT*%
G36*
X175667439Y-52408885D02*
G01*
X175713194Y-52461689D01*
X175724400Y-52513200D01*
X175724400Y-61649600D01*
X175704715Y-61716639D01*
X175651911Y-61762394D01*
X175600400Y-61773600D01*
X174121200Y-61773600D01*
X174054161Y-61753915D01*
X174008406Y-61701111D01*
X173997200Y-61649600D01*
X173997200Y-52513200D01*
X174016885Y-52446161D01*
X174069689Y-52400406D01*
X174121200Y-52389200D01*
X175600400Y-52389200D01*
X175667439Y-52408885D01*
G37*
%TD.AperFunction*%
%TD*%
M02*
