%TF.GenerationSoftware,KiCad,Pcbnew,8.0.3-8.0.3-0~ubuntu22.04.1*%
%TF.CreationDate,2024-06-17T20:55:48-07:00*%
%TF.ProjectId,A1-FlightComputer,41312d46-6c69-4676-9874-436f6d707574,rev?*%
%TF.SameCoordinates,Original*%
%TF.FileFunction,Copper,L3,Inr*%
%TF.FilePolarity,Positive*%
%FSLAX46Y46*%
G04 Gerber Fmt 4.6, Leading zero omitted, Abs format (unit mm)*
G04 Created by KiCad (PCBNEW 8.0.3-8.0.3-0~ubuntu22.04.1) date 2024-06-17 20:55:48*
%MOMM*%
%LPD*%
G01*
G04 APERTURE LIST*
%TA.AperFunction,ComponentPad*%
%ADD10C,1.000000*%
%TD*%
%TA.AperFunction,ComponentPad*%
%ADD11C,6.400000*%
%TD*%
%TA.AperFunction,ComponentPad*%
%ADD12R,1.700000X1.700000*%
%TD*%
%TA.AperFunction,ComponentPad*%
%ADD13O,1.700000X1.700000*%
%TD*%
%TA.AperFunction,ComponentPad*%
%ADD14C,2.000000*%
%TD*%
%TA.AperFunction,ComponentPad*%
%ADD15O,3.500000X2.200000*%
%TD*%
%TA.AperFunction,ComponentPad*%
%ADD16R,2.500000X1.500000*%
%TD*%
%TA.AperFunction,ComponentPad*%
%ADD17O,2.500000X1.500000*%
%TD*%
%TA.AperFunction,ViaPad*%
%ADD18C,0.800000*%
%TD*%
G04 APERTURE END LIST*
D10*
%TO.N,GND*%
%TO.C,TP204*%
X137150000Y-47800000D03*
%TD*%
%TO.N,+BATT*%
%TO.C,TP401*%
X162486800Y-45106000D03*
%TD*%
%TO.N,GND*%
%TO.C,TP206*%
X187000000Y-95200000D03*
%TD*%
%TO.N,+5V*%
%TO.C,TP402*%
X172310000Y-67005600D03*
%TD*%
%TO.N,/Peripherals/I2C_SDA*%
%TO.C,TP201*%
X175449200Y-84614000D03*
%TD*%
D11*
%TO.N,unconnected-(H104-Pad1)*%
%TO.C,H104*%
X127678000Y-109200000D03*
%TD*%
D10*
%TO.N,GND*%
%TO.C,TP207*%
X139550000Y-91775000D03*
%TD*%
D12*
%TO.N,+5V*%
%TO.C,J301*%
X178875000Y-111450000D03*
D13*
%TO.N,Net-(J301-Pin_2)*%
X178875000Y-108910000D03*
%TD*%
D10*
%TO.N,GND*%
%TO.C,TP205*%
X175300000Y-76500000D03*
%TD*%
D14*
%TO.N,/STM32/NRST*%
%TO.C,SW202*%
X125950000Y-84937600D03*
X132450000Y-84937600D03*
%TO.N,GND*%
X125950000Y-89437600D03*
X132450000Y-89437600D03*
%TD*%
D12*
%TO.N,/Peripherals/I2C_SCL*%
%TO.C,J302*%
X186875000Y-91485000D03*
D13*
%TO.N,/Peripherals/I2C_SDA*%
X189415000Y-91485000D03*
%TD*%
D10*
%TO.N,/STM32/USB_OTG_ID*%
%TO.C,TP208*%
X168859200Y-77673200D03*
%TD*%
D15*
%TO.N,*%
%TO.C,SW203*%
X129350000Y-61450000D03*
X129350000Y-69650000D03*
D16*
%TO.N,+3V3*%
X129350000Y-63550000D03*
D17*
%TO.N,Net-(SW203-B)*%
X129350000Y-65550000D03*
%TO.N,GND*%
X129350000Y-67550000D03*
%TD*%
D10*
%TO.N,/Peripherals/Buzzer_ON*%
%TO.C,TP203*%
X169800000Y-103650000D03*
%TD*%
D12*
%TO.N,/STM32/PB8*%
%TO.C,J202*%
X152660000Y-111000000D03*
D13*
%TO.N,/STM32/PB9*%
X155200000Y-111000000D03*
%TD*%
D11*
%TO.N,unconnected-(H103-Pad1)*%
%TO.C,H103*%
X187622000Y-109200000D03*
%TD*%
D12*
%TO.N,/STM32/PC4*%
%TO.C,J201*%
X159660000Y-111000000D03*
D13*
%TO.N,/STM32/PC5*%
X162200000Y-111000000D03*
%TD*%
D14*
%TO.N,+3V3*%
%TO.C,SW201*%
X132450000Y-79552800D03*
X125950000Y-79552800D03*
%TO.N,Net-(R201-Pad1)*%
X132450000Y-75052800D03*
X125950000Y-75052800D03*
%TD*%
D10*
%TO.N,/Peripherals/I2C_SCL*%
%TO.C,TP202*%
X175500000Y-86900000D03*
%TD*%
D11*
%TO.N,unconnected-(H102-Pad1)*%
%TO.C,H102*%
X187622000Y-49256000D03*
%TD*%
D12*
%TO.N,GND*%
%TO.C,J203*%
X167100000Y-53480000D03*
D13*
%TO.N,+3V3*%
X164560000Y-53480000D03*
%TO.N,/STM32/JTMS{slash}SWDIO*%
X167100000Y-56020000D03*
%TO.N,/STM32/JTAG_CON*%
X164560000Y-56020000D03*
%TO.N,/STM32/JTCK{slash}SWCLK*%
X167100000Y-58560000D03*
%TO.N,/STM32/NJTRST*%
X164560000Y-58560000D03*
%TO.N,/STM32/JTDI*%
X167100000Y-61100000D03*
%TO.N,/STM32/JTDO{slash}TRACESWO*%
X164560000Y-61100000D03*
%TO.N,Net-(J203-Pin_9)*%
X167100000Y-63640000D03*
%TO.N,Net-(J203-Pin_10)*%
X164560000Y-63640000D03*
%TD*%
D12*
%TO.N,Net-(D401-A)*%
%TO.C,J401*%
X172239400Y-50071000D03*
D13*
%TO.N,Net-(J401-Pin_2)*%
X172239400Y-47531000D03*
%TD*%
D11*
%TO.N,unconnected-(H101-Pad1)*%
%TO.C,H101*%
X127678000Y-49256000D03*
%TD*%
D12*
%TO.N,Net-(J401-Pin_2)*%
%TO.C,SW401*%
X180200000Y-47460000D03*
D13*
%TO.N,GND*%
X180200000Y-50000000D03*
%TD*%
D10*
%TO.N,+3V3*%
%TO.C,TP403*%
X137100000Y-54850000D03*
%TD*%
D18*
%TO.N,GND*%
X190676000Y-78107400D03*
X183000000Y-90450000D03*
X135686800Y-88239600D03*
X180652000Y-58370000D03*
X170150000Y-71450000D03*
X143922000Y-83283200D03*
X185434400Y-55659200D03*
X177550000Y-85900000D03*
X150825200Y-92760800D03*
X166928800Y-78638400D03*
X180652000Y-57506400D03*
X160214400Y-53853600D03*
X175057200Y-105542800D03*
X184000000Y-85000000D03*
X173082800Y-56468000D03*
X189376000Y-76948200D03*
X177950000Y-90450000D03*
X158038800Y-103632000D03*
X190625200Y-75313400D03*
X145796000Y-78994000D03*
X171634100Y-90393200D03*
X168512500Y-98018000D03*
X151587200Y-72796400D03*
X140360400Y-76606400D03*
X159410400Y-91033600D03*
X146262400Y-73812400D03*
X178750000Y-91150000D03*
X190676000Y-82984200D03*
X152157600Y-53476200D03*
X176650000Y-98000000D03*
X175550000Y-95850000D03*
X141782800Y-83108800D03*
X170400000Y-99150000D03*
X190676000Y-80241000D03*
X153021200Y-53476200D03*
X185420000Y-87528400D03*
X138415200Y-75945600D03*
X156120000Y-45907000D03*
%TO.N,+3V3*%
X156120000Y-50275800D03*
X181600000Y-95350000D03*
X152742800Y-62258800D03*
X166928800Y-76911200D03*
X175600000Y-91550000D03*
X170334100Y-90543200D03*
X154228800Y-94081600D03*
X171600000Y-99150000D03*
X141235600Y-48599400D03*
X138065200Y-72445600D03*
X137672800Y-114273200D03*
X143922000Y-84908800D03*
X141235600Y-49869400D03*
X169570400Y-83921600D03*
X182000000Y-91050000D03*
X181250000Y-90350000D03*
X141235600Y-51088600D03*
X145682400Y-114265200D03*
X169150000Y-99200000D03*
X165404800Y-86410800D03*
X133673600Y-114264400D03*
X161239200Y-91033600D03*
X141682400Y-114265200D03*
X149758400Y-72796400D03*
X178400000Y-98000000D03*
X167140900Y-96697200D03*
X152552400Y-92760800D03*
%TO.N,+5V*%
X177100000Y-69250000D03*
X175830000Y-69250000D03*
X177502400Y-54356800D03*
X178319200Y-69250000D03*
%TO.N,/Peripherals/LED3*%
X155041600Y-83159600D03*
X147218400Y-89255600D03*
%TO.N,/Peripherals/LED2*%
X153924000Y-82143600D03*
X146304000Y-88442800D03*
%TO.N,/Peripherals/LED1*%
X152704800Y-81584800D03*
X145288000Y-87680800D03*
%TO.N,/Peripherals/LED0*%
X151485600Y-81076800D03*
X144272000Y-86868000D03*
%TO.N,+BATT*%
X175267200Y-53205600D03*
X175750000Y-72600000D03*
X156323200Y-47177000D03*
X156323200Y-48091400D03*
X167900000Y-72600000D03*
X186060500Y-76650000D03*
X174454400Y-53205600D03*
%TO.N,/STM32/PB8*%
X152950000Y-85750000D03*
%TO.N,/STM32/PB9*%
X153950000Y-85350000D03*
%TO.N,/STM32/PC4*%
X155702000Y-89408000D03*
%TO.N,/STM32/PC5*%
X156362400Y-86004400D03*
%TO.N,/Peripherals/I2C_SDA*%
X184302400Y-86410800D03*
X182200000Y-92250000D03*
X179350000Y-89350000D03*
X169223700Y-91160000D03*
%TO.N,/Peripherals/I2C_SCL*%
X184404000Y-88138000D03*
X182322800Y-93463200D03*
X169800000Y-86750000D03*
X168200000Y-90312500D03*
%TO.N,/STM32/QuadSPI_IO2*%
X156768800Y-101447600D03*
X155702000Y-92862400D03*
%TO.N,/STM32/QuadSPI_IO1*%
X155752800Y-90932000D03*
X155549600Y-101346000D03*
%TO.N,/STM32/QuadSPI_IO0*%
X158038800Y-93624400D03*
X156464000Y-92100400D03*
%TO.N,/STM32/USB_OTG_ID*%
X168757600Y-80924400D03*
%TO.N,/STM32/QuadSPI_NCS*%
X154228800Y-103632000D03*
X158902400Y-101447600D03*
%TO.N,/Peripherals/BME_CS*%
X182727600Y-83718400D03*
X166522400Y-83007200D03*
%TO.N,/Peripherals/BME_INT*%
X181051200Y-83108800D03*
X164998400Y-81838800D03*
%TO.N,/Peripherals/LSM_INT1*%
X165100000Y-83820000D03*
X167900000Y-86650000D03*
%TO.N,/Peripherals/LSM_INT2*%
X167900000Y-87700000D03*
X159150000Y-81700000D03*
X179522800Y-96463200D03*
X176954800Y-91650000D03*
%TO.N,Net-(U201-PA3)*%
X168650000Y-73850000D03*
X150350000Y-87550000D03*
%TO.N,/Peripherals/ADX_INT1*%
X173184100Y-91893200D03*
X159350000Y-83150000D03*
%TO.N,/Peripherals/ADX_INT2*%
X172784100Y-90943200D03*
X162850000Y-83700000D03*
%TD*%
%TA.AperFunction,Conductor*%
%TO.N,+3V3*%
G36*
X154470512Y-42053180D02*
G01*
X154537550Y-42072871D01*
X154583300Y-42125680D01*
X154594500Y-42177180D01*
X154594500Y-44718430D01*
X154604735Y-44846409D01*
X154610997Y-44885313D01*
X154611000Y-44885327D01*
X154658343Y-45056395D01*
X154658346Y-45056402D01*
X154743636Y-45215308D01*
X154743644Y-45215322D01*
X154743647Y-45215327D01*
X154783375Y-45272803D01*
X154844244Y-45350269D01*
X154978485Y-45470744D01*
X154978487Y-45470745D01*
X154978488Y-45470746D01*
X155031046Y-45499938D01*
X155136169Y-45558328D01*
X155162946Y-45569486D01*
X155217255Y-45613438D01*
X155239181Y-45679778D01*
X155234612Y-45712168D01*
X155235676Y-45712395D01*
X155234325Y-45718747D01*
X155215201Y-45900708D01*
X155214540Y-45907000D01*
X155229241Y-46046877D01*
X155234327Y-46095261D01*
X155235678Y-46101617D01*
X155233464Y-46102087D01*
X155235153Y-46161537D01*
X155199064Y-46221365D01*
X155160928Y-46245269D01*
X155093685Y-46271924D01*
X155093684Y-46271925D01*
X155039696Y-46309003D01*
X154944998Y-46374039D01*
X154944994Y-46374043D01*
X154892196Y-46419792D01*
X154892192Y-46419796D01*
X154821823Y-46488744D01*
X154716692Y-46635320D01*
X154646814Y-46801610D01*
X154627124Y-46868665D01*
X154614696Y-46916342D01*
X154594500Y-47095585D01*
X154594500Y-48826008D01*
X154612909Y-48997226D01*
X154624117Y-49048745D01*
X154633864Y-49088629D01*
X154633865Y-49088632D01*
X154633866Y-49088635D01*
X154700335Y-49256316D01*
X154802450Y-49405002D01*
X154848205Y-49457806D01*
X154917158Y-49528180D01*
X155063730Y-49633308D01*
X155230019Y-49703185D01*
X155295252Y-49722339D01*
X155297075Y-49722875D01*
X155344752Y-49735303D01*
X155344757Y-49735303D01*
X155344759Y-49735304D01*
X155523995Y-49755499D01*
X155523996Y-49755500D01*
X155524000Y-49755500D01*
X169220500Y-49755500D01*
X169287539Y-49775185D01*
X169333294Y-49827989D01*
X169344500Y-49879500D01*
X169344500Y-63992286D01*
X169345011Y-64020977D01*
X169345325Y-64029787D01*
X169345327Y-64029828D01*
X169351870Y-64107480D01*
X169351871Y-64107484D01*
X169373717Y-64194984D01*
X169395563Y-64282486D01*
X169419971Y-64347954D01*
X169459972Y-64437996D01*
X169459973Y-64437997D01*
X169459977Y-64438004D01*
X169560539Y-64587726D01*
X169560543Y-64587731D01*
X169566695Y-64593519D01*
X169602030Y-64653795D01*
X169599168Y-64723606D01*
X169597977Y-64726752D01*
X169596815Y-64730017D01*
X169577124Y-64797075D01*
X169564696Y-64844752D01*
X169544500Y-65023995D01*
X169544500Y-70163125D01*
X169550464Y-70260969D01*
X169554125Y-70290881D01*
X169554127Y-70290893D01*
X169585281Y-70434743D01*
X169649404Y-70579504D01*
X169658557Y-70648771D01*
X169628809Y-70711992D01*
X169608915Y-70730042D01*
X169544127Y-70777113D01*
X169417466Y-70917785D01*
X169322821Y-71081715D01*
X169322818Y-71081722D01*
X169267979Y-71250500D01*
X169264326Y-71261744D01*
X169244540Y-71450000D01*
X169264326Y-71638256D01*
X169264327Y-71638259D01*
X169322818Y-71818277D01*
X169322821Y-71818284D01*
X169417467Y-71982216D01*
X169444511Y-72012251D01*
X169544129Y-72122888D01*
X169608010Y-72169300D01*
X169650676Y-72224629D01*
X169656655Y-72294243D01*
X169649442Y-72317655D01*
X169596815Y-72442892D01*
X169596815Y-72442893D01*
X169577124Y-72509951D01*
X169564696Y-72557628D01*
X169564696Y-72557630D01*
X169562502Y-72577107D01*
X169559923Y-72599999D01*
X169559923Y-72600000D01*
X169544500Y-72736872D01*
X169544500Y-73174635D01*
X169524815Y-73241674D01*
X169472011Y-73287429D01*
X169402853Y-73297373D01*
X169339297Y-73268348D01*
X169328351Y-73257608D01*
X169255871Y-73177112D01*
X169255870Y-73177111D01*
X169102734Y-73065851D01*
X169102729Y-73065848D01*
X168929807Y-72988857D01*
X168929802Y-72988855D01*
X168868723Y-72975873D01*
X168807241Y-72942681D01*
X168773465Y-72881518D01*
X168776572Y-72816265D01*
X168785674Y-72788256D01*
X168805460Y-72600000D01*
X168785674Y-72411744D01*
X168727179Y-72231716D01*
X168632533Y-72067784D01*
X168505871Y-71927112D01*
X168505870Y-71927111D01*
X168352734Y-71815851D01*
X168352729Y-71815848D01*
X168179807Y-71738857D01*
X168179802Y-71738855D01*
X168034001Y-71707865D01*
X167994646Y-71699500D01*
X167805354Y-71699500D01*
X167772897Y-71706398D01*
X167620197Y-71738855D01*
X167620192Y-71738857D01*
X167447270Y-71815848D01*
X167447265Y-71815851D01*
X167294129Y-71927111D01*
X167167466Y-72067785D01*
X167072821Y-72231715D01*
X167072818Y-72231722D01*
X167014327Y-72411740D01*
X167014326Y-72411744D01*
X166994540Y-72600000D01*
X167014326Y-72788256D01*
X167014327Y-72788259D01*
X167072818Y-72968277D01*
X167072821Y-72968284D01*
X167167467Y-73132216D01*
X167207891Y-73177111D01*
X167294129Y-73272888D01*
X167447265Y-73384148D01*
X167447270Y-73384151D01*
X167620192Y-73461142D01*
X167620193Y-73461142D01*
X167620197Y-73461144D01*
X167681277Y-73474126D01*
X167742757Y-73507317D01*
X167776534Y-73568480D01*
X167773427Y-73633731D01*
X167764327Y-73661740D01*
X167764326Y-73661744D01*
X167744540Y-73850000D01*
X167764326Y-74038256D01*
X167764327Y-74038259D01*
X167822818Y-74218277D01*
X167822821Y-74218284D01*
X167917467Y-74382216D01*
X167971650Y-74442392D01*
X168044129Y-74522888D01*
X168197265Y-74634148D01*
X168197270Y-74634151D01*
X168370192Y-74711142D01*
X168370197Y-74711144D01*
X168555354Y-74750500D01*
X168555355Y-74750500D01*
X168744644Y-74750500D01*
X168744646Y-74750500D01*
X168929803Y-74711144D01*
X169102730Y-74634151D01*
X169255871Y-74522888D01*
X169328350Y-74442391D01*
X169387837Y-74405743D01*
X169457694Y-74407074D01*
X169515742Y-74445960D01*
X169543552Y-74510057D01*
X169544500Y-74525364D01*
X169544500Y-76698163D01*
X169524815Y-76765202D01*
X169472011Y-76810957D01*
X169402853Y-76820901D01*
X169362047Y-76807522D01*
X169282871Y-76765202D01*
X169243927Y-76744386D01*
X169055332Y-76687176D01*
X169055329Y-76687175D01*
X168859200Y-76667859D01*
X168663070Y-76687175D01*
X168474466Y-76744388D01*
X168300667Y-76837286D01*
X168300660Y-76837290D01*
X168148316Y-76962316D01*
X168023290Y-77114660D01*
X168023286Y-77114667D01*
X167930388Y-77288466D01*
X167873175Y-77477070D01*
X167853859Y-77673200D01*
X167873175Y-77869329D01*
X167873176Y-77869332D01*
X167923282Y-78034510D01*
X167930388Y-78057933D01*
X168023286Y-78231732D01*
X168023290Y-78231739D01*
X168148316Y-78384083D01*
X168300660Y-78509109D01*
X168300667Y-78509113D01*
X168474466Y-78602011D01*
X168474469Y-78602011D01*
X168474473Y-78602014D01*
X168663068Y-78659224D01*
X168859200Y-78678541D01*
X169055332Y-78659224D01*
X169243927Y-78602014D01*
X169289944Y-78577417D01*
X169362047Y-78538878D01*
X169430449Y-78524636D01*
X169495693Y-78549636D01*
X169537064Y-78605941D01*
X169544500Y-78648236D01*
X169544500Y-80139673D01*
X169524815Y-80206712D01*
X169472011Y-80252467D01*
X169402853Y-80262411D01*
X169347615Y-80239991D01*
X169210334Y-80140251D01*
X169210329Y-80140248D01*
X169037407Y-80063257D01*
X169037402Y-80063255D01*
X168891154Y-80032170D01*
X168852246Y-80023900D01*
X168662954Y-80023900D01*
X168630497Y-80030798D01*
X168477797Y-80063255D01*
X168477792Y-80063257D01*
X168304870Y-80140248D01*
X168304865Y-80140251D01*
X168151729Y-80251511D01*
X168025066Y-80392185D01*
X167930421Y-80556115D01*
X167930418Y-80556122D01*
X167871927Y-80736140D01*
X167871926Y-80736144D01*
X167852140Y-80924400D01*
X167871926Y-81112656D01*
X167871927Y-81112659D01*
X167930418Y-81292677D01*
X167930421Y-81292684D01*
X168025067Y-81456616D01*
X168074705Y-81511744D01*
X168151729Y-81597288D01*
X168304865Y-81708548D01*
X168304870Y-81708551D01*
X168477792Y-81785542D01*
X168477797Y-81785544D01*
X168662954Y-81824900D01*
X168662955Y-81824900D01*
X168852244Y-81824900D01*
X168852246Y-81824900D01*
X169037403Y-81785544D01*
X169210330Y-81708551D01*
X169350257Y-81606888D01*
X169416062Y-81583409D01*
X169484116Y-81599234D01*
X169532811Y-81649340D01*
X169546430Y-81693951D01*
X169562909Y-81847226D01*
X169574117Y-81898745D01*
X169583864Y-81938629D01*
X169583865Y-81938632D01*
X169583866Y-81938635D01*
X169650335Y-82106316D01*
X169701392Y-82180659D01*
X169747405Y-82247657D01*
X169752450Y-82255002D01*
X169756001Y-82259100D01*
X169794954Y-82304055D01*
X169798205Y-82307806D01*
X169867158Y-82378180D01*
X170013730Y-82483308D01*
X170180019Y-82553185D01*
X170245252Y-82572339D01*
X170247075Y-82572875D01*
X170294752Y-82585303D01*
X170294757Y-82585303D01*
X170294759Y-82585304D01*
X170473995Y-82605499D01*
X170473996Y-82605500D01*
X170474000Y-82605500D01*
X180097219Y-82605500D01*
X180164258Y-82625185D01*
X180210013Y-82677989D01*
X180219957Y-82747147D01*
X180215150Y-82767818D01*
X180167052Y-82915849D01*
X180165526Y-82920544D01*
X180145740Y-83108800D01*
X180165526Y-83297056D01*
X180165527Y-83297059D01*
X180224018Y-83477077D01*
X180224021Y-83477084D01*
X180318667Y-83641016D01*
X180358440Y-83685188D01*
X180445329Y-83781688D01*
X180598465Y-83892948D01*
X180598470Y-83892951D01*
X180771392Y-83969942D01*
X180771397Y-83969944D01*
X180956554Y-84009300D01*
X180956555Y-84009300D01*
X181145844Y-84009300D01*
X181145846Y-84009300D01*
X181331003Y-83969944D01*
X181503930Y-83892951D01*
X181642856Y-83792015D01*
X181708658Y-83768537D01*
X181776712Y-83784362D01*
X181825407Y-83834468D01*
X181839058Y-83879370D01*
X181841926Y-83906656D01*
X181841927Y-83906659D01*
X181900418Y-84086677D01*
X181900421Y-84086684D01*
X181995067Y-84250616D01*
X182105162Y-84372888D01*
X182121729Y-84391288D01*
X182232191Y-84471543D01*
X182274857Y-84526873D01*
X182283306Y-84571889D01*
X182283243Y-84846957D01*
X182263543Y-84913992D01*
X182240859Y-84940282D01*
X182206122Y-84970650D01*
X182136044Y-85039921D01*
X182031566Y-85186947D01*
X182031563Y-85186953D01*
X181962419Y-85353544D01*
X181962418Y-85353548D01*
X181943036Y-85420646D01*
X181930807Y-85468417D01*
X181930805Y-85468431D01*
X181911399Y-85647747D01*
X181926715Y-89133622D01*
X181926926Y-89148862D01*
X181927032Y-89153411D01*
X181931092Y-89217551D01*
X181931094Y-89217560D01*
X181969633Y-89393766D01*
X181969633Y-89393768D01*
X181992099Y-89459888D01*
X181992110Y-89459919D01*
X182012183Y-89508929D01*
X182029458Y-89551107D01*
X182125599Y-89703729D01*
X182226593Y-89804492D01*
X182260148Y-89865776D01*
X182255243Y-89935474D01*
X182246400Y-89954272D01*
X182172820Y-90081718D01*
X182172818Y-90081722D01*
X182115181Y-90259112D01*
X182114326Y-90261744D01*
X182094540Y-90450000D01*
X182114326Y-90638256D01*
X182114327Y-90638259D01*
X182172818Y-90818277D01*
X182172821Y-90818284D01*
X182265221Y-90978326D01*
X182281834Y-91040354D01*
X182281792Y-91225528D01*
X182262092Y-91292563D01*
X182209278Y-91338306D01*
X182157792Y-91349500D01*
X182105354Y-91349500D01*
X182091692Y-91352404D01*
X181920197Y-91388855D01*
X181920192Y-91388857D01*
X181747270Y-91465848D01*
X181747265Y-91465851D01*
X181594129Y-91577111D01*
X181467466Y-91717785D01*
X181372821Y-91881715D01*
X181372818Y-91881722D01*
X181314730Y-92060500D01*
X181314326Y-92061744D01*
X181294540Y-92250000D01*
X181314326Y-92438256D01*
X181314327Y-92438259D01*
X181372818Y-92618277D01*
X181372821Y-92618284D01*
X181467467Y-92782216D01*
X181519722Y-92840251D01*
X181534341Y-92856487D01*
X181564570Y-92919479D01*
X181555944Y-92988814D01*
X181549578Y-93001458D01*
X181495620Y-93094917D01*
X181495618Y-93094922D01*
X181437127Y-93274940D01*
X181437126Y-93274944D01*
X181417340Y-93463200D01*
X181437126Y-93651456D01*
X181437127Y-93651459D01*
X181495618Y-93831477D01*
X181495621Y-93831484D01*
X181590267Y-93995416D01*
X181716929Y-94136088D01*
X181870065Y-94247348D01*
X181870067Y-94247349D01*
X181870070Y-94247351D01*
X181921654Y-94270318D01*
X181974889Y-94315566D01*
X181995211Y-94382415D01*
X181990347Y-94418006D01*
X181982678Y-94444553D01*
X181970457Y-94492295D01*
X181970456Y-94492300D01*
X181951049Y-94671626D01*
X181951049Y-94671627D01*
X181952579Y-95020207D01*
X181952580Y-95020216D01*
X181960543Y-95129707D01*
X181965277Y-95163105D01*
X181973103Y-95199998D01*
X181988055Y-95270492D01*
X181988494Y-95272561D01*
X181988342Y-95272593D01*
X181990944Y-95287982D01*
X181995631Y-95338557D01*
X181995631Y-95361440D01*
X181990384Y-95418069D01*
X181988271Y-95432089D01*
X181967673Y-95530266D01*
X181967672Y-95530272D01*
X181962942Y-95564741D01*
X181955471Y-95677780D01*
X181955470Y-95677800D01*
X181989637Y-103453870D01*
X181991136Y-103794902D01*
X181971746Y-103862027D01*
X181919144Y-103908014D01*
X181867137Y-103919447D01*
X176191295Y-103919447D01*
X176063281Y-103929686D01*
X176024383Y-103935949D01*
X176024364Y-103935953D01*
X175853320Y-103983295D01*
X175694398Y-104068596D01*
X175694396Y-104068598D01*
X175636923Y-104108324D01*
X175559450Y-104169200D01*
X175559448Y-104169201D01*
X175438975Y-104303444D01*
X175351392Y-104461132D01*
X175351391Y-104461134D01*
X175348677Y-104467648D01*
X175304718Y-104521956D01*
X175238376Y-104543876D01*
X175234114Y-104543946D01*
X174880427Y-104543643D01*
X174813404Y-104523901D01*
X174767695Y-104471058D01*
X174765259Y-104465336D01*
X174746747Y-104418635D01*
X174746746Y-104418633D01*
X174746745Y-104418631D01*
X174644630Y-104269945D01*
X174635170Y-104259028D01*
X174598893Y-104217160D01*
X174598887Y-104217154D01*
X174598880Y-104217147D01*
X174598875Y-104217141D01*
X174529927Y-104146771D01*
X174438651Y-104081303D01*
X174383358Y-104041643D01*
X174344310Y-104025234D01*
X174217069Y-103971765D01*
X174217071Y-103971765D01*
X174150020Y-103952076D01*
X174119334Y-103944077D01*
X174102323Y-103939643D01*
X174102319Y-103939642D01*
X174102317Y-103939642D01*
X173923086Y-103919447D01*
X173923082Y-103919447D01*
X170915616Y-103919447D01*
X170848577Y-103899762D01*
X170802822Y-103846958D01*
X170792213Y-103783293D01*
X170792293Y-103782485D01*
X170805341Y-103650000D01*
X170786024Y-103453868D01*
X170728814Y-103265273D01*
X170728811Y-103265269D01*
X170728811Y-103265266D01*
X170635913Y-103091467D01*
X170635909Y-103091460D01*
X170510883Y-102939116D01*
X170358539Y-102814090D01*
X170358532Y-102814086D01*
X170184733Y-102721188D01*
X170184727Y-102721186D01*
X169996132Y-102663976D01*
X169996129Y-102663975D01*
X169800000Y-102644659D01*
X169603870Y-102663975D01*
X169415266Y-102721188D01*
X169241467Y-102814086D01*
X169241460Y-102814090D01*
X169089116Y-102939116D01*
X168964090Y-103091460D01*
X168964086Y-103091467D01*
X168871188Y-103265266D01*
X168813975Y-103453870D01*
X168794659Y-103649999D01*
X168807787Y-103783293D01*
X168794768Y-103851939D01*
X168746703Y-103902649D01*
X168684384Y-103919447D01*
X159051764Y-103919447D01*
X158984725Y-103899762D01*
X158938970Y-103846958D01*
X158928443Y-103782487D01*
X158944260Y-103632000D01*
X158924474Y-103443744D01*
X158865979Y-103263716D01*
X158771333Y-103099784D01*
X158644671Y-102959112D01*
X158644670Y-102959111D01*
X158491534Y-102847851D01*
X158491529Y-102847848D01*
X158318607Y-102770857D01*
X158318602Y-102770855D01*
X158172801Y-102739865D01*
X158133446Y-102731500D01*
X157944154Y-102731500D01*
X157911697Y-102738398D01*
X157758997Y-102770855D01*
X157758992Y-102770857D01*
X157586070Y-102847848D01*
X157586065Y-102847851D01*
X157432929Y-102959111D01*
X157306266Y-103099785D01*
X157211621Y-103263715D01*
X157211618Y-103263722D01*
X157153127Y-103443740D01*
X157153126Y-103443744D01*
X157133340Y-103632000D01*
X157149156Y-103782487D01*
X157136588Y-103851215D01*
X157088855Y-103902239D01*
X157025836Y-103919447D01*
X155241764Y-103919447D01*
X155174725Y-103899762D01*
X155128970Y-103846958D01*
X155118443Y-103782487D01*
X155134260Y-103632000D01*
X155114474Y-103443744D01*
X155055979Y-103263716D01*
X154961333Y-103099784D01*
X154834671Y-102959112D01*
X154834670Y-102959111D01*
X154681534Y-102847851D01*
X154681529Y-102847848D01*
X154508607Y-102770857D01*
X154508602Y-102770855D01*
X154362801Y-102739865D01*
X154323446Y-102731500D01*
X154134154Y-102731500D01*
X154101697Y-102738398D01*
X153948997Y-102770855D01*
X153948992Y-102770857D01*
X153776070Y-102847848D01*
X153776065Y-102847851D01*
X153622929Y-102959111D01*
X153496266Y-103099785D01*
X153401621Y-103263715D01*
X153401618Y-103263722D01*
X153343127Y-103443740D01*
X153343126Y-103443744D01*
X153342062Y-103453870D01*
X153323340Y-103632000D01*
X153342168Y-103811143D01*
X153329598Y-103879873D01*
X153281866Y-103930896D01*
X153245202Y-103945271D01*
X153227832Y-103949049D01*
X153187989Y-103958783D01*
X153155229Y-103971765D01*
X153020299Y-104025234D01*
X152923964Y-104091378D01*
X152871599Y-104127333D01*
X152818796Y-104173077D01*
X152748398Y-104242039D01*
X152643266Y-104388585D01*
X152643259Y-104388598D01*
X152573370Y-104554870D01*
X152573368Y-104554877D01*
X152553676Y-104621915D01*
X152541238Y-104669610D01*
X152533955Y-104734177D01*
X152521022Y-104848850D01*
X152520591Y-108909919D01*
X152520591Y-108909999D01*
X152520557Y-109225396D01*
X152538958Y-109396674D01*
X152550163Y-109448194D01*
X152560937Y-109492286D01*
X152559944Y-109492528D01*
X152561424Y-109557727D01*
X152524992Y-109617347D01*
X152462111Y-109647806D01*
X152441685Y-109649500D01*
X151762129Y-109649500D01*
X151762123Y-109649501D01*
X151702516Y-109655908D01*
X151567671Y-109706202D01*
X151567664Y-109706206D01*
X151452455Y-109792452D01*
X151452452Y-109792455D01*
X151366206Y-109907664D01*
X151366202Y-109907671D01*
X151315908Y-110042517D01*
X151309501Y-110102116D01*
X151309500Y-110102135D01*
X151309500Y-111897870D01*
X151309501Y-111897876D01*
X151315908Y-111957483D01*
X151366202Y-112092328D01*
X151366206Y-112092335D01*
X151452452Y-112207544D01*
X151452455Y-112207547D01*
X151567664Y-112293793D01*
X151567671Y-112293797D01*
X151702517Y-112344091D01*
X151702516Y-112344091D01*
X151709444Y-112344835D01*
X151762127Y-112350500D01*
X152445027Y-112350499D01*
X152512066Y-112370183D01*
X152557821Y-112422987D01*
X152567765Y-112492146D01*
X152564001Y-112509442D01*
X152552832Y-112547468D01*
X152552831Y-112547472D01*
X152540395Y-112595158D01*
X152520178Y-112774403D01*
X152519824Y-116111772D01*
X152519824Y-116111774D01*
X152519819Y-116153514D01*
X152500126Y-116220551D01*
X152447317Y-116266300D01*
X152395819Y-116277499D01*
X127680215Y-116277499D01*
X127675789Y-116277420D01*
X127168826Y-116259314D01*
X127159997Y-116258683D01*
X126657805Y-116204692D01*
X126649043Y-116203432D01*
X126151988Y-116113753D01*
X126143339Y-116111871D01*
X125653955Y-115986963D01*
X125645462Y-115984469D01*
X125166241Y-115824969D01*
X125157947Y-115821876D01*
X124691314Y-115628590D01*
X124683263Y-115624913D01*
X124231604Y-115398829D01*
X124223842Y-115394591D01*
X123789459Y-115136860D01*
X123782017Y-115132077D01*
X123367134Y-114844018D01*
X123360048Y-114838713D01*
X122966786Y-114521802D01*
X122960096Y-114516006D01*
X122590426Y-114171832D01*
X122584167Y-114165573D01*
X122239993Y-113795903D01*
X122234197Y-113789213D01*
X121917286Y-113395951D01*
X121911981Y-113388865D01*
X121860789Y-113315136D01*
X121623914Y-112973970D01*
X121619143Y-112966547D01*
X121361403Y-112532147D01*
X121357170Y-112524395D01*
X121341027Y-112492146D01*
X121279977Y-112370183D01*
X121131086Y-112072736D01*
X121127409Y-112064685D01*
X120934123Y-111598052D01*
X120931030Y-111589758D01*
X120924318Y-111569592D01*
X120771528Y-111110531D01*
X120769036Y-111102044D01*
X120644123Y-110612640D01*
X120642250Y-110604032D01*
X120552563Y-110106933D01*
X120551310Y-110098217D01*
X120497314Y-109595984D01*
X120496686Y-109587191D01*
X120482857Y-109199999D01*
X123972422Y-109199999D01*
X123972422Y-109200000D01*
X123992722Y-109587339D01*
X124053397Y-109970427D01*
X124053398Y-109970433D01*
X124095772Y-110128577D01*
X124153788Y-110345094D01*
X124292787Y-110707197D01*
X124468877Y-111052793D01*
X124680122Y-111378082D01*
X124680124Y-111378084D01*
X124924219Y-111679516D01*
X125198484Y-111953781D01*
X125198488Y-111953784D01*
X125499917Y-112197877D01*
X125825206Y-112409122D01*
X125825211Y-112409125D01*
X126170806Y-112585214D01*
X126532913Y-112724214D01*
X126907567Y-112824602D01*
X127290662Y-112885278D01*
X127656576Y-112904455D01*
X127677999Y-112905578D01*
X127678000Y-112905578D01*
X127678001Y-112905578D01*
X127698301Y-112904514D01*
X128065338Y-112885278D01*
X128448433Y-112824602D01*
X128823087Y-112724214D01*
X129185194Y-112585214D01*
X129530789Y-112409125D01*
X129856084Y-112197876D01*
X130157516Y-111953781D01*
X130431781Y-111679516D01*
X130675876Y-111378084D01*
X130887125Y-111052789D01*
X131063214Y-110707194D01*
X131202214Y-110345087D01*
X131302602Y-109970433D01*
X131363278Y-109587338D01*
X131383578Y-109200000D01*
X131363278Y-108812662D01*
X131302602Y-108429567D01*
X131202214Y-108054913D01*
X131063214Y-107692806D01*
X130887125Y-107347211D01*
X130772474Y-107170664D01*
X130675877Y-107021917D01*
X130431784Y-106720488D01*
X130431781Y-106720484D01*
X130157516Y-106446219D01*
X130074338Y-106378863D01*
X129856082Y-106202122D01*
X129530793Y-105990877D01*
X129185197Y-105814787D01*
X128823094Y-105675788D01*
X128823087Y-105675786D01*
X128448433Y-105575398D01*
X128448429Y-105575397D01*
X128448428Y-105575397D01*
X128065339Y-105514722D01*
X127678001Y-105494422D01*
X127677999Y-105494422D01*
X127290660Y-105514722D01*
X126907572Y-105575397D01*
X126907570Y-105575397D01*
X126532905Y-105675788D01*
X126170802Y-105814787D01*
X125825206Y-105990877D01*
X125499917Y-106202122D01*
X125198488Y-106446215D01*
X125198480Y-106446222D01*
X124924222Y-106720480D01*
X124924215Y-106720488D01*
X124680122Y-107021917D01*
X124468877Y-107347206D01*
X124292787Y-107692802D01*
X124153788Y-108054905D01*
X124053397Y-108429570D01*
X124053397Y-108429572D01*
X123992722Y-108812660D01*
X123972422Y-109199999D01*
X120482857Y-109199999D01*
X120478583Y-109080327D01*
X120478505Y-109075729D01*
X120494267Y-101346000D01*
X154644140Y-101346000D01*
X154663926Y-101534256D01*
X154663927Y-101534259D01*
X154722418Y-101714277D01*
X154722421Y-101714284D01*
X154817067Y-101878216D01*
X154943729Y-102018888D01*
X155096865Y-102130148D01*
X155096870Y-102130151D01*
X155269792Y-102207142D01*
X155269797Y-102207144D01*
X155454954Y-102246500D01*
X155454955Y-102246500D01*
X155644244Y-102246500D01*
X155644246Y-102246500D01*
X155829403Y-102207144D01*
X156002330Y-102130151D01*
X156016392Y-102119933D01*
X156082198Y-102096453D01*
X156150252Y-102112278D01*
X156162164Y-102119933D01*
X156316065Y-102231748D01*
X156316070Y-102231751D01*
X156488992Y-102308742D01*
X156488997Y-102308744D01*
X156674154Y-102348100D01*
X156674155Y-102348100D01*
X156863444Y-102348100D01*
X156863446Y-102348100D01*
X157048603Y-102308744D01*
X157221530Y-102231751D01*
X157374671Y-102120488D01*
X157501333Y-101979816D01*
X157595979Y-101815884D01*
X157654474Y-101635856D01*
X157674260Y-101447600D01*
X157996940Y-101447600D01*
X158016726Y-101635856D01*
X158016727Y-101635859D01*
X158075218Y-101815877D01*
X158075221Y-101815884D01*
X158169867Y-101979816D01*
X158274888Y-102096453D01*
X158296529Y-102120488D01*
X158449665Y-102231748D01*
X158449670Y-102231751D01*
X158622592Y-102308742D01*
X158622597Y-102308744D01*
X158807754Y-102348100D01*
X158807755Y-102348100D01*
X158997044Y-102348100D01*
X158997046Y-102348100D01*
X159182203Y-102308744D01*
X159355130Y-102231751D01*
X159508271Y-102120488D01*
X159634933Y-101979816D01*
X159729579Y-101815884D01*
X159788074Y-101635856D01*
X159807860Y-101447600D01*
X159788074Y-101259344D01*
X159729579Y-101079316D01*
X159634933Y-100915384D01*
X159508271Y-100774712D01*
X159508270Y-100774711D01*
X159355134Y-100663451D01*
X159355129Y-100663448D01*
X159182207Y-100586457D01*
X159182202Y-100586455D01*
X159036401Y-100555465D01*
X158997046Y-100547100D01*
X158807754Y-100547100D01*
X158775297Y-100553998D01*
X158622597Y-100586455D01*
X158622592Y-100586457D01*
X158449670Y-100663448D01*
X158449665Y-100663451D01*
X158296529Y-100774711D01*
X158169866Y-100915385D01*
X158075221Y-101079315D01*
X158075218Y-101079322D01*
X158016727Y-101259340D01*
X158016726Y-101259344D01*
X157996940Y-101447600D01*
X157674260Y-101447600D01*
X157654474Y-101259344D01*
X157595979Y-101079316D01*
X157501333Y-100915384D01*
X157374671Y-100774712D01*
X157374670Y-100774711D01*
X157221534Y-100663451D01*
X157221529Y-100663448D01*
X157048607Y-100586457D01*
X157048602Y-100586455D01*
X156902801Y-100555465D01*
X156863446Y-100547100D01*
X156674154Y-100547100D01*
X156641697Y-100553998D01*
X156488997Y-100586455D01*
X156488992Y-100586457D01*
X156316069Y-100663449D01*
X156302002Y-100673669D01*
X156236195Y-100697146D01*
X156168142Y-100681318D01*
X156156236Y-100673667D01*
X156036197Y-100586455D01*
X156002330Y-100561849D01*
X156002328Y-100561848D01*
X156002329Y-100561848D01*
X155829407Y-100484857D01*
X155829402Y-100484855D01*
X155683601Y-100453865D01*
X155644246Y-100445500D01*
X155454954Y-100445500D01*
X155422497Y-100452398D01*
X155269797Y-100484855D01*
X155269792Y-100484857D01*
X155096870Y-100561848D01*
X155096865Y-100561851D01*
X154943729Y-100673111D01*
X154817066Y-100813785D01*
X154722421Y-100977715D01*
X154722418Y-100977722D01*
X154663927Y-101157740D01*
X154663926Y-101157744D01*
X154644140Y-101346000D01*
X120494267Y-101346000D01*
X120498745Y-99150000D01*
X169494540Y-99150000D01*
X169514326Y-99338256D01*
X169514327Y-99338259D01*
X169572818Y-99518277D01*
X169572821Y-99518284D01*
X169667467Y-99682216D01*
X169794129Y-99822888D01*
X169947265Y-99934148D01*
X169947270Y-99934151D01*
X170120192Y-100011142D01*
X170120197Y-100011144D01*
X170305354Y-100050500D01*
X170305355Y-100050500D01*
X170494644Y-100050500D01*
X170494646Y-100050500D01*
X170679803Y-100011144D01*
X170852730Y-99934151D01*
X171005871Y-99822888D01*
X171132533Y-99682216D01*
X171227179Y-99518284D01*
X171285674Y-99338256D01*
X171305460Y-99150000D01*
X171285674Y-98961744D01*
X171227179Y-98781716D01*
X171132533Y-98617784D01*
X171005871Y-98477112D01*
X171005870Y-98477111D01*
X170852734Y-98365851D01*
X170852729Y-98365848D01*
X170679807Y-98288857D01*
X170679802Y-98288855D01*
X170534001Y-98257865D01*
X170494646Y-98249500D01*
X170305354Y-98249500D01*
X170272897Y-98256398D01*
X170120197Y-98288855D01*
X170120192Y-98288857D01*
X169947270Y-98365848D01*
X169947265Y-98365851D01*
X169794129Y-98477111D01*
X169667466Y-98617785D01*
X169572821Y-98781715D01*
X169572818Y-98781722D01*
X169514327Y-98961740D01*
X169514326Y-98961744D01*
X169494540Y-99150000D01*
X120498745Y-99150000D01*
X120501053Y-98018000D01*
X167607040Y-98018000D01*
X167626826Y-98206256D01*
X167626827Y-98206259D01*
X167685318Y-98386277D01*
X167685321Y-98386284D01*
X167779967Y-98550216D01*
X167840806Y-98617784D01*
X167906629Y-98690888D01*
X168059765Y-98802148D01*
X168059770Y-98802151D01*
X168232692Y-98879142D01*
X168232697Y-98879144D01*
X168417854Y-98918500D01*
X168417855Y-98918500D01*
X168607144Y-98918500D01*
X168607146Y-98918500D01*
X168792303Y-98879144D01*
X168965230Y-98802151D01*
X169118371Y-98690888D01*
X169245033Y-98550216D01*
X169339679Y-98386284D01*
X169398174Y-98206256D01*
X169417960Y-98018000D01*
X169416068Y-98000000D01*
X175744540Y-98000000D01*
X175764326Y-98188256D01*
X175764327Y-98188259D01*
X175822818Y-98368277D01*
X175822821Y-98368284D01*
X175917467Y-98532216D01*
X175994513Y-98617784D01*
X176044129Y-98672888D01*
X176197265Y-98784148D01*
X176197270Y-98784151D01*
X176370192Y-98861142D01*
X176370197Y-98861144D01*
X176555354Y-98900500D01*
X176555355Y-98900500D01*
X176744644Y-98900500D01*
X176744646Y-98900500D01*
X176929803Y-98861144D01*
X177102730Y-98784151D01*
X177255871Y-98672888D01*
X177382533Y-98532216D01*
X177477179Y-98368284D01*
X177535674Y-98188256D01*
X177555460Y-98000000D01*
X177535674Y-97811744D01*
X177477179Y-97631716D01*
X177382533Y-97467784D01*
X177255871Y-97327112D01*
X177255870Y-97327111D01*
X177102734Y-97215851D01*
X177102729Y-97215848D01*
X176929807Y-97138857D01*
X176929802Y-97138855D01*
X176784001Y-97107865D01*
X176744646Y-97099500D01*
X176555354Y-97099500D01*
X176522897Y-97106398D01*
X176370197Y-97138855D01*
X176370192Y-97138857D01*
X176197270Y-97215848D01*
X176197265Y-97215851D01*
X176044129Y-97327111D01*
X175917466Y-97467785D01*
X175822821Y-97631715D01*
X175822818Y-97631722D01*
X175764327Y-97811740D01*
X175764326Y-97811744D01*
X175744540Y-98000000D01*
X169416068Y-98000000D01*
X169398174Y-97829744D01*
X169339679Y-97649716D01*
X169245033Y-97485784D01*
X169118371Y-97345112D01*
X169118370Y-97345111D01*
X168965234Y-97233851D01*
X168965229Y-97233848D01*
X168792307Y-97156857D01*
X168792302Y-97156855D01*
X168646501Y-97125865D01*
X168607146Y-97117500D01*
X168417854Y-97117500D01*
X168385397Y-97124398D01*
X168232697Y-97156855D01*
X168232692Y-97156857D01*
X168059770Y-97233848D01*
X168059765Y-97233851D01*
X167906629Y-97345111D01*
X167779966Y-97485785D01*
X167685321Y-97649715D01*
X167685318Y-97649722D01*
X167626827Y-97829740D01*
X167626826Y-97829744D01*
X167607040Y-98018000D01*
X120501053Y-98018000D01*
X120505474Y-95850000D01*
X174644540Y-95850000D01*
X174664326Y-96038256D01*
X174664327Y-96038259D01*
X174722818Y-96218277D01*
X174722821Y-96218284D01*
X174817467Y-96382216D01*
X174890386Y-96463200D01*
X174944129Y-96522888D01*
X175097265Y-96634148D01*
X175097270Y-96634151D01*
X175270192Y-96711142D01*
X175270197Y-96711144D01*
X175455354Y-96750500D01*
X175455355Y-96750500D01*
X175644644Y-96750500D01*
X175644646Y-96750500D01*
X175829803Y-96711144D01*
X176002730Y-96634151D01*
X176155871Y-96522888D01*
X176209614Y-96463200D01*
X178617340Y-96463200D01*
X178637126Y-96651456D01*
X178637127Y-96651459D01*
X178695618Y-96831477D01*
X178695621Y-96831484D01*
X178790267Y-96995416D01*
X178883985Y-97099500D01*
X178916929Y-97136088D01*
X179070065Y-97247348D01*
X179070070Y-97247351D01*
X179242992Y-97324342D01*
X179242997Y-97324344D01*
X179428154Y-97363700D01*
X179428155Y-97363700D01*
X179617444Y-97363700D01*
X179617446Y-97363700D01*
X179802603Y-97324344D01*
X179975530Y-97247351D01*
X180128671Y-97136088D01*
X180255333Y-96995416D01*
X180349979Y-96831484D01*
X180408474Y-96651456D01*
X180428260Y-96463200D01*
X180408474Y-96274944D01*
X180349979Y-96094916D01*
X180255333Y-95930984D01*
X180128671Y-95790312D01*
X180128670Y-95790311D01*
X179975534Y-95679051D01*
X179975529Y-95679048D01*
X179802607Y-95602057D01*
X179802602Y-95602055D01*
X179656801Y-95571065D01*
X179617446Y-95562700D01*
X179428154Y-95562700D01*
X179418585Y-95564734D01*
X179242997Y-95602055D01*
X179242992Y-95602057D01*
X179070070Y-95679048D01*
X179070065Y-95679051D01*
X178916929Y-95790311D01*
X178790266Y-95930985D01*
X178695621Y-96094915D01*
X178695618Y-96094922D01*
X178655538Y-96218277D01*
X178637126Y-96274944D01*
X178617340Y-96463200D01*
X176209614Y-96463200D01*
X176282533Y-96382216D01*
X176377179Y-96218284D01*
X176435674Y-96038256D01*
X176455460Y-95850000D01*
X176435674Y-95661744D01*
X176377179Y-95481716D01*
X176282533Y-95317784D01*
X176155871Y-95177112D01*
X176136592Y-95163105D01*
X176002734Y-95065851D01*
X176002729Y-95065848D01*
X175829807Y-94988857D01*
X175829802Y-94988855D01*
X175684001Y-94957865D01*
X175644646Y-94949500D01*
X175455354Y-94949500D01*
X175422897Y-94956398D01*
X175270197Y-94988855D01*
X175270192Y-94988857D01*
X175097270Y-95065848D01*
X175097265Y-95065851D01*
X174944129Y-95177111D01*
X174817466Y-95317785D01*
X174722821Y-95481715D01*
X174722818Y-95481722D01*
X174664327Y-95661740D01*
X174664326Y-95661744D01*
X174644540Y-95850000D01*
X120505474Y-95850000D01*
X120513784Y-91775000D01*
X138544659Y-91775000D01*
X138563975Y-91971129D01*
X138565650Y-91976651D01*
X138610616Y-92124884D01*
X138621188Y-92159733D01*
X138714086Y-92333532D01*
X138714090Y-92333539D01*
X138839116Y-92485883D01*
X138991460Y-92610909D01*
X138991467Y-92610913D01*
X139165266Y-92703811D01*
X139165269Y-92703811D01*
X139165273Y-92703814D01*
X139353868Y-92761024D01*
X139550000Y-92780341D01*
X139746132Y-92761024D01*
X139746870Y-92760800D01*
X149919740Y-92760800D01*
X149939526Y-92949056D01*
X149939527Y-92949059D01*
X149998018Y-93129077D01*
X149998021Y-93129084D01*
X150092667Y-93293016D01*
X150219329Y-93433688D01*
X150372465Y-93544948D01*
X150372470Y-93544951D01*
X150545392Y-93621942D01*
X150545397Y-93621944D01*
X150730554Y-93661300D01*
X150730555Y-93661300D01*
X150919844Y-93661300D01*
X150919846Y-93661300D01*
X151105003Y-93621944D01*
X151277930Y-93544951D01*
X151431071Y-93433688D01*
X151557733Y-93293016D01*
X151652379Y-93129084D01*
X151710874Y-92949056D01*
X151730660Y-92760800D01*
X151710874Y-92572544D01*
X151652379Y-92392516D01*
X151557733Y-92228584D01*
X151431071Y-92087912D01*
X151431070Y-92087911D01*
X151277934Y-91976651D01*
X151277929Y-91976648D01*
X151105007Y-91899657D01*
X151105002Y-91899655D01*
X150959201Y-91868665D01*
X150919846Y-91860300D01*
X150730554Y-91860300D01*
X150698097Y-91867198D01*
X150545397Y-91899655D01*
X150545392Y-91899657D01*
X150372470Y-91976648D01*
X150372465Y-91976651D01*
X150219329Y-92087911D01*
X150092666Y-92228585D01*
X149998021Y-92392515D01*
X149998018Y-92392522D01*
X149939527Y-92572540D01*
X149939526Y-92572544D01*
X149919740Y-92760800D01*
X139746870Y-92760800D01*
X139934727Y-92703814D01*
X139984242Y-92677348D01*
X140108532Y-92610913D01*
X140108538Y-92610910D01*
X140260883Y-92485883D01*
X140385910Y-92333538D01*
X140466211Y-92183306D01*
X140478811Y-92159733D01*
X140478811Y-92159732D01*
X140478814Y-92159727D01*
X140536024Y-91971132D01*
X140555341Y-91775000D01*
X140536024Y-91578868D01*
X140478814Y-91390273D01*
X140478811Y-91390269D01*
X140478811Y-91390266D01*
X140385913Y-91216467D01*
X140385909Y-91216460D01*
X140260883Y-91064116D01*
X140108539Y-90939090D01*
X140108532Y-90939086D01*
X139934733Y-90846188D01*
X139934727Y-90846186D01*
X139808997Y-90808046D01*
X139746129Y-90788975D01*
X139550000Y-90769659D01*
X139353870Y-90788975D01*
X139165266Y-90846188D01*
X138991467Y-90939086D01*
X138991460Y-90939090D01*
X138839116Y-91064116D01*
X138714090Y-91216460D01*
X138714086Y-91216467D01*
X138621188Y-91390266D01*
X138563975Y-91578870D01*
X138544659Y-91775000D01*
X120513784Y-91775000D01*
X120518550Y-89437594D01*
X124444357Y-89437594D01*
X124444357Y-89437605D01*
X124464890Y-89685412D01*
X124464892Y-89685424D01*
X124525936Y-89926481D01*
X124625826Y-90154206D01*
X124761833Y-90362382D01*
X124774230Y-90375849D01*
X124930256Y-90545338D01*
X125126491Y-90698074D01*
X125126493Y-90698075D01*
X125294239Y-90788855D01*
X125345190Y-90816428D01*
X125580386Y-90897171D01*
X125825665Y-90938100D01*
X126074335Y-90938100D01*
X126319614Y-90897171D01*
X126554810Y-90816428D01*
X126773509Y-90698074D01*
X126969744Y-90545338D01*
X127138164Y-90362385D01*
X127274173Y-90154207D01*
X127374063Y-89926481D01*
X127435108Y-89685421D01*
X127440208Y-89623877D01*
X127455643Y-89437605D01*
X127455643Y-89437594D01*
X130944357Y-89437594D01*
X130944357Y-89437605D01*
X130964890Y-89685412D01*
X130964892Y-89685424D01*
X131025936Y-89926481D01*
X131125826Y-90154206D01*
X131261833Y-90362382D01*
X131274230Y-90375849D01*
X131430256Y-90545338D01*
X131626491Y-90698074D01*
X131626493Y-90698075D01*
X131794239Y-90788855D01*
X131845190Y-90816428D01*
X132080386Y-90897171D01*
X132325665Y-90938100D01*
X132574335Y-90938100D01*
X132819614Y-90897171D01*
X133054810Y-90816428D01*
X133273509Y-90698074D01*
X133469744Y-90545338D01*
X133638164Y-90362385D01*
X133774173Y-90154207D01*
X133874063Y-89926481D01*
X133935108Y-89685421D01*
X133940208Y-89623877D01*
X133955643Y-89437605D01*
X133955643Y-89437594D01*
X133935109Y-89189787D01*
X133935107Y-89189775D01*
X133874063Y-88948718D01*
X133774173Y-88720993D01*
X133638166Y-88512817D01*
X133579878Y-88449500D01*
X133469744Y-88329862D01*
X133353776Y-88239600D01*
X134781340Y-88239600D01*
X134801126Y-88427856D01*
X134801127Y-88427859D01*
X134859618Y-88607877D01*
X134859621Y-88607884D01*
X134954267Y-88771816D01*
X135080929Y-88912488D01*
X135234065Y-89023748D01*
X135234070Y-89023751D01*
X135406992Y-89100742D01*
X135406997Y-89100744D01*
X135592154Y-89140100D01*
X135592155Y-89140100D01*
X135781444Y-89140100D01*
X135781446Y-89140100D01*
X135966603Y-89100744D01*
X136139530Y-89023751D01*
X136292671Y-88912488D01*
X136419333Y-88771816D01*
X136513979Y-88607884D01*
X136572474Y-88427856D01*
X136592260Y-88239600D01*
X136572474Y-88051344D01*
X136513979Y-87871316D01*
X136419333Y-87707384D01*
X136292671Y-87566712D01*
X136269669Y-87550000D01*
X136139534Y-87455451D01*
X136139529Y-87455448D01*
X135966607Y-87378457D01*
X135966602Y-87378455D01*
X135820801Y-87347465D01*
X135781446Y-87339100D01*
X135592154Y-87339100D01*
X135559697Y-87345998D01*
X135406997Y-87378455D01*
X135406992Y-87378457D01*
X135234070Y-87455448D01*
X135234065Y-87455451D01*
X135080929Y-87566711D01*
X134954266Y-87707385D01*
X134859621Y-87871315D01*
X134859618Y-87871322D01*
X134801860Y-88049084D01*
X134801126Y-88051344D01*
X134781340Y-88239600D01*
X133353776Y-88239600D01*
X133273509Y-88177126D01*
X133273507Y-88177125D01*
X133273506Y-88177124D01*
X133054811Y-88058772D01*
X133054802Y-88058769D01*
X132819616Y-87978029D01*
X132574335Y-87937100D01*
X132325665Y-87937100D01*
X132080383Y-87978029D01*
X131845197Y-88058769D01*
X131845188Y-88058772D01*
X131626493Y-88177124D01*
X131492643Y-88281304D01*
X131430256Y-88329862D01*
X131426308Y-88334151D01*
X131261833Y-88512817D01*
X131125826Y-88720993D01*
X131025936Y-88948718D01*
X130964892Y-89189775D01*
X130964890Y-89189787D01*
X130944357Y-89437594D01*
X127455643Y-89437594D01*
X127435109Y-89189787D01*
X127435107Y-89189775D01*
X127374063Y-88948718D01*
X127274173Y-88720993D01*
X127138166Y-88512817D01*
X127079878Y-88449500D01*
X126969744Y-88329862D01*
X126773509Y-88177126D01*
X126773507Y-88177125D01*
X126773506Y-88177124D01*
X126554811Y-88058772D01*
X126554802Y-88058769D01*
X126319616Y-87978029D01*
X126074335Y-87937100D01*
X125825665Y-87937100D01*
X125580383Y-87978029D01*
X125345197Y-88058769D01*
X125345188Y-88058772D01*
X125126493Y-88177124D01*
X124992643Y-88281304D01*
X124930256Y-88329862D01*
X124926308Y-88334151D01*
X124761833Y-88512817D01*
X124625826Y-88720993D01*
X124525936Y-88948718D01*
X124464892Y-89189775D01*
X124464890Y-89189787D01*
X124444357Y-89437594D01*
X120518550Y-89437594D01*
X120523790Y-86868000D01*
X143366540Y-86868000D01*
X143386326Y-87056256D01*
X143386327Y-87056259D01*
X143444818Y-87236277D01*
X143444821Y-87236284D01*
X143539467Y-87400216D01*
X143602131Y-87469811D01*
X143666129Y-87540888D01*
X143819265Y-87652148D01*
X143819270Y-87652151D01*
X143992192Y-87729142D01*
X143992197Y-87729144D01*
X144177354Y-87768500D01*
X144177355Y-87768500D01*
X144280539Y-87768500D01*
X144347578Y-87788185D01*
X144393333Y-87840989D01*
X144401829Y-87866719D01*
X144402325Y-87869053D01*
X144460818Y-88049077D01*
X144460821Y-88049084D01*
X144555467Y-88213016D01*
X144616954Y-88281304D01*
X144682129Y-88353688D01*
X144835265Y-88464948D01*
X144835270Y-88464951D01*
X145008192Y-88541942D01*
X145008197Y-88541944D01*
X145193354Y-88581300D01*
X145193355Y-88581300D01*
X145312068Y-88581300D01*
X145379107Y-88600985D01*
X145424862Y-88653789D01*
X145429999Y-88666982D01*
X145476818Y-88811077D01*
X145476821Y-88811084D01*
X145571467Y-88975016D01*
X145629729Y-89039722D01*
X145698129Y-89115688D01*
X145851265Y-89226948D01*
X145851270Y-89226951D01*
X146024192Y-89303942D01*
X146024197Y-89303944D01*
X146209354Y-89343300D01*
X146210939Y-89343300D01*
X146211822Y-89343559D01*
X146215822Y-89343980D01*
X146215745Y-89344711D01*
X146277978Y-89362985D01*
X146323733Y-89415789D01*
X146332229Y-89441519D01*
X146332725Y-89443853D01*
X146391218Y-89623877D01*
X146391221Y-89623884D01*
X146485867Y-89787816D01*
X146602891Y-89917784D01*
X146612529Y-89928488D01*
X146765665Y-90039748D01*
X146765670Y-90039751D01*
X146938592Y-90116742D01*
X146938597Y-90116744D01*
X147123754Y-90156100D01*
X147123755Y-90156100D01*
X147313044Y-90156100D01*
X147313046Y-90156100D01*
X147498203Y-90116744D01*
X147671130Y-90039751D01*
X147824271Y-89928488D01*
X147950933Y-89787816D01*
X148045579Y-89623884D01*
X148104074Y-89443856D01*
X148107843Y-89408000D01*
X154796540Y-89408000D01*
X154816326Y-89596256D01*
X154816327Y-89596259D01*
X154874818Y-89776277D01*
X154874821Y-89776284D01*
X154969467Y-89940216D01*
X155096129Y-90080888D01*
X155112433Y-90092734D01*
X155155100Y-90148062D01*
X155161080Y-90217676D01*
X155131700Y-90276023D01*
X155020266Y-90399785D01*
X154925621Y-90563715D01*
X154925618Y-90563722D01*
X154872762Y-90726397D01*
X154867126Y-90743744D01*
X154847340Y-90932000D01*
X154867126Y-91120256D01*
X154867127Y-91120259D01*
X154925618Y-91300277D01*
X154925621Y-91300284D01*
X155020267Y-91464216D01*
X155123502Y-91578870D01*
X155146929Y-91604888D01*
X155300065Y-91716148D01*
X155300066Y-91716148D01*
X155300070Y-91716151D01*
X155426880Y-91772611D01*
X155480117Y-91817861D01*
X155500438Y-91884710D01*
X155481393Y-91951934D01*
X155429026Y-91998189D01*
X155426881Y-91999169D01*
X155249267Y-92078250D01*
X155249265Y-92078251D01*
X155096129Y-92189511D01*
X154969466Y-92330185D01*
X154874821Y-92494115D01*
X154874818Y-92494122D01*
X154836872Y-92610909D01*
X154816326Y-92674144D01*
X154796540Y-92862400D01*
X154816326Y-93050656D01*
X154816327Y-93050659D01*
X154874818Y-93230677D01*
X154874821Y-93230684D01*
X154969467Y-93394616D01*
X155096129Y-93535288D01*
X155249265Y-93646548D01*
X155249270Y-93646551D01*
X155422192Y-93723542D01*
X155422197Y-93723544D01*
X155607354Y-93762900D01*
X155607355Y-93762900D01*
X155796644Y-93762900D01*
X155796646Y-93762900D01*
X155981803Y-93723544D01*
X156154730Y-93646551D01*
X156185218Y-93624400D01*
X157133340Y-93624400D01*
X157153126Y-93812656D01*
X157153127Y-93812659D01*
X157211618Y-93992677D01*
X157211621Y-93992684D01*
X157306267Y-94156616D01*
X157408643Y-94270316D01*
X157432929Y-94297288D01*
X157586065Y-94408548D01*
X157586070Y-94408551D01*
X157758992Y-94485542D01*
X157758997Y-94485544D01*
X157944154Y-94524900D01*
X157944155Y-94524900D01*
X158133444Y-94524900D01*
X158133446Y-94524900D01*
X158318603Y-94485544D01*
X158491530Y-94408551D01*
X158644671Y-94297288D01*
X158771333Y-94156616D01*
X158865979Y-93992684D01*
X158924474Y-93812656D01*
X158944260Y-93624400D01*
X158924474Y-93436144D01*
X158865979Y-93256116D01*
X158771333Y-93092184D01*
X158644671Y-92951512D01*
X158607345Y-92924393D01*
X158491534Y-92840251D01*
X158491529Y-92840248D01*
X158318607Y-92763257D01*
X158318602Y-92763255D01*
X158172801Y-92732265D01*
X158133446Y-92723900D01*
X157944154Y-92723900D01*
X157911697Y-92730798D01*
X157758997Y-92763255D01*
X157758992Y-92763257D01*
X157586070Y-92840248D01*
X157586065Y-92840251D01*
X157432929Y-92951511D01*
X157306266Y-93092185D01*
X157211621Y-93256115D01*
X157211618Y-93256122D01*
X157166620Y-93394614D01*
X157153126Y-93436144D01*
X157133340Y-93624400D01*
X156185218Y-93624400D01*
X156307871Y-93535288D01*
X156434533Y-93394616D01*
X156529179Y-93230684D01*
X156585071Y-93058665D01*
X156624507Y-93000993D01*
X156677216Y-92975697D01*
X156743803Y-92961544D01*
X156743807Y-92961542D01*
X156743808Y-92961542D01*
X156827244Y-92924393D01*
X156916730Y-92884551D01*
X157069871Y-92773288D01*
X157196533Y-92632616D01*
X157291179Y-92468684D01*
X157349674Y-92288656D01*
X157369460Y-92100400D01*
X157349674Y-91912144D01*
X157291179Y-91732116D01*
X157196533Y-91568184D01*
X157069871Y-91427512D01*
X157069870Y-91427511D01*
X156916734Y-91316251D01*
X156916729Y-91316248D01*
X156743807Y-91239257D01*
X156743808Y-91239257D01*
X156742583Y-91238996D01*
X156737746Y-91237968D01*
X156676266Y-91204774D01*
X156642492Y-91143610D01*
X156640211Y-91103724D01*
X156647581Y-91033600D01*
X158504940Y-91033600D01*
X158524726Y-91221856D01*
X158524727Y-91221859D01*
X158583218Y-91401877D01*
X158583221Y-91401884D01*
X158677867Y-91565816D01*
X158753667Y-91650000D01*
X158804529Y-91706488D01*
X158957665Y-91817748D01*
X158957670Y-91817751D01*
X159130592Y-91894742D01*
X159130597Y-91894744D01*
X159315754Y-91934100D01*
X159315755Y-91934100D01*
X159505044Y-91934100D01*
X159505046Y-91934100D01*
X159690203Y-91894744D01*
X159863130Y-91817751D01*
X160016271Y-91706488D01*
X160142933Y-91565816D01*
X160237579Y-91401884D01*
X160296074Y-91221856D01*
X160315860Y-91033600D01*
X160296074Y-90845344D01*
X160237579Y-90665316D01*
X160142933Y-90501384D01*
X160016271Y-90360712D01*
X160016270Y-90360711D01*
X159949913Y-90312500D01*
X167294540Y-90312500D01*
X167314326Y-90500756D01*
X167314327Y-90500759D01*
X167372818Y-90680777D01*
X167372821Y-90680784D01*
X167467467Y-90844716D01*
X167552442Y-90939090D01*
X167594129Y-90985388D01*
X167747265Y-91096648D01*
X167747270Y-91096651D01*
X167920192Y-91173642D01*
X167920197Y-91173644D01*
X168105354Y-91213000D01*
X168105355Y-91213000D01*
X168212160Y-91213000D01*
X168279199Y-91232685D01*
X168324954Y-91285489D01*
X168335480Y-91324034D01*
X168338026Y-91348256D01*
X168338027Y-91348259D01*
X168396518Y-91528277D01*
X168396521Y-91528284D01*
X168491167Y-91692216D01*
X168582043Y-91793144D01*
X168617829Y-91832888D01*
X168770965Y-91944148D01*
X168770970Y-91944151D01*
X168943892Y-92021142D01*
X168943897Y-92021144D01*
X169129054Y-92060500D01*
X169129055Y-92060500D01*
X169318344Y-92060500D01*
X169318346Y-92060500D01*
X169503503Y-92021144D01*
X169676430Y-91944151D01*
X169829571Y-91832888D01*
X169956233Y-91692216D01*
X170050879Y-91528284D01*
X170109374Y-91348256D01*
X170129160Y-91160000D01*
X170109374Y-90971744D01*
X170050879Y-90791716D01*
X169956233Y-90627784D01*
X169829571Y-90487112D01*
X169829570Y-90487111D01*
X169700313Y-90393200D01*
X170728640Y-90393200D01*
X170748426Y-90581456D01*
X170748427Y-90581459D01*
X170806918Y-90761477D01*
X170806921Y-90761484D01*
X170901567Y-90925416D01*
X170998977Y-91033600D01*
X171028229Y-91066088D01*
X171181365Y-91177348D01*
X171181370Y-91177351D01*
X171354292Y-91254342D01*
X171354297Y-91254344D01*
X171539454Y-91293700D01*
X171539455Y-91293700D01*
X171728744Y-91293700D01*
X171728746Y-91293700D01*
X171834713Y-91271176D01*
X171904379Y-91276492D01*
X171960113Y-91318629D01*
X171967880Y-91330466D01*
X171979447Y-91350500D01*
X172051567Y-91475416D01*
X172178229Y-91616088D01*
X172178233Y-91616092D01*
X172240655Y-91661443D01*
X172283322Y-91716773D01*
X172291092Y-91774723D01*
X172286570Y-91817748D01*
X172278640Y-91893200D01*
X172298426Y-92081456D01*
X172298427Y-92081459D01*
X172356918Y-92261477D01*
X172356921Y-92261484D01*
X172451567Y-92425416D01*
X172578229Y-92566088D01*
X172731365Y-92677348D01*
X172731370Y-92677351D01*
X172904292Y-92754342D01*
X172904297Y-92754344D01*
X173089454Y-92793700D01*
X173089455Y-92793700D01*
X173278744Y-92793700D01*
X173278746Y-92793700D01*
X173463903Y-92754344D01*
X173636830Y-92677351D01*
X173789971Y-92566088D01*
X173916633Y-92425416D01*
X174011279Y-92261484D01*
X174069774Y-92081456D01*
X174089560Y-91893200D01*
X174069774Y-91704944D01*
X174051922Y-91650000D01*
X176049340Y-91650000D01*
X176069126Y-91838256D01*
X176069127Y-91838259D01*
X176127618Y-92018277D01*
X176127621Y-92018284D01*
X176222267Y-92182216D01*
X176318106Y-92288656D01*
X176348929Y-92322888D01*
X176502065Y-92434148D01*
X176502070Y-92434151D01*
X176674992Y-92511142D01*
X176674997Y-92511144D01*
X176860154Y-92550500D01*
X176860155Y-92550500D01*
X177049444Y-92550500D01*
X177049446Y-92550500D01*
X177234603Y-92511144D01*
X177407530Y-92434151D01*
X177560671Y-92322888D01*
X177687333Y-92182216D01*
X177781979Y-92018284D01*
X177840474Y-91838256D01*
X177844549Y-91799482D01*
X177871132Y-91734870D01*
X177928429Y-91694885D01*
X177998248Y-91692225D01*
X178058422Y-91727734D01*
X178059988Y-91729440D01*
X178117347Y-91793144D01*
X178144129Y-91822888D01*
X178297265Y-91934148D01*
X178297270Y-91934151D01*
X178470192Y-92011142D01*
X178470197Y-92011144D01*
X178655354Y-92050500D01*
X178655355Y-92050500D01*
X178844644Y-92050500D01*
X178844646Y-92050500D01*
X179029803Y-92011144D01*
X179202730Y-91934151D01*
X179355871Y-91822888D01*
X179482533Y-91682216D01*
X179577179Y-91518284D01*
X179635674Y-91338256D01*
X179655460Y-91150000D01*
X179635674Y-90961744D01*
X179577179Y-90781716D01*
X179482533Y-90617784D01*
X179355871Y-90477112D01*
X179355867Y-90477109D01*
X179352713Y-90474817D01*
X179351329Y-90473022D01*
X179351042Y-90472764D01*
X179351089Y-90472711D01*
X179310047Y-90419487D01*
X179304069Y-90349873D01*
X179336676Y-90288079D01*
X179397515Y-90253722D01*
X179425599Y-90250500D01*
X179444644Y-90250500D01*
X179444646Y-90250500D01*
X179629803Y-90211144D01*
X179802730Y-90134151D01*
X179955871Y-90022888D01*
X180082533Y-89882216D01*
X180177179Y-89718284D01*
X180235674Y-89538256D01*
X180255460Y-89350000D01*
X180235674Y-89161744D01*
X180177179Y-88981716D01*
X180082533Y-88817784D01*
X179955871Y-88677112D01*
X179955870Y-88677111D01*
X179802734Y-88565851D01*
X179802729Y-88565848D01*
X179629807Y-88488857D01*
X179629802Y-88488855D01*
X179468470Y-88454564D01*
X179444646Y-88449500D01*
X179255354Y-88449500D01*
X179231530Y-88454564D01*
X179070197Y-88488855D01*
X179070192Y-88488857D01*
X178897270Y-88565848D01*
X178897265Y-88565851D01*
X178744129Y-88677111D01*
X178617466Y-88817785D01*
X178522821Y-88981715D01*
X178522818Y-88981722D01*
X178467032Y-89153415D01*
X178464326Y-89161744D01*
X178444540Y-89350000D01*
X178456089Y-89459888D01*
X178458969Y-89487285D01*
X178446399Y-89556015D01*
X178398667Y-89607038D01*
X178330927Y-89624156D01*
X178285213Y-89613526D01*
X178229802Y-89588855D01*
X178075297Y-89556015D01*
X178044646Y-89549500D01*
X177855354Y-89549500D01*
X177824703Y-89556015D01*
X177670197Y-89588855D01*
X177670192Y-89588857D01*
X177497270Y-89665848D01*
X177497265Y-89665851D01*
X177344129Y-89777111D01*
X177217466Y-89917785D01*
X177122821Y-90081715D01*
X177122818Y-90081722D01*
X177065181Y-90259112D01*
X177064326Y-90261744D01*
X177044540Y-90450000D01*
X177061623Y-90612541D01*
X177049055Y-90681268D01*
X177001323Y-90732292D01*
X176938303Y-90749500D01*
X176860154Y-90749500D01*
X176834561Y-90754940D01*
X176674997Y-90788855D01*
X176674992Y-90788857D01*
X176502070Y-90865848D01*
X176502065Y-90865851D01*
X176348929Y-90977111D01*
X176222266Y-91117785D01*
X176127621Y-91281715D01*
X176127618Y-91281722D01*
X176069127Y-91461740D01*
X176069126Y-91461744D01*
X176049340Y-91650000D01*
X174051922Y-91650000D01*
X174011279Y-91524916D01*
X173916633Y-91360984D01*
X173807028Y-91239256D01*
X173789973Y-91220314D01*
X173789972Y-91220313D01*
X173789971Y-91220312D01*
X173727540Y-91174953D01*
X173684877Y-91119627D01*
X173677107Y-91061680D01*
X173689560Y-90943200D01*
X173669774Y-90754944D01*
X173611279Y-90574916D01*
X173516633Y-90410984D01*
X173389971Y-90270312D01*
X173383435Y-90265563D01*
X173236834Y-90159051D01*
X173236829Y-90159048D01*
X173063907Y-90082057D01*
X173063902Y-90082055D01*
X172918101Y-90051065D01*
X172878746Y-90042700D01*
X172689454Y-90042700D01*
X172583486Y-90065224D01*
X172513819Y-90059907D01*
X172458086Y-90017769D01*
X172450319Y-90005933D01*
X172366633Y-89860984D01*
X172239971Y-89720312D01*
X172237170Y-89718277D01*
X172086834Y-89609051D01*
X172086829Y-89609048D01*
X171913907Y-89532057D01*
X171913902Y-89532055D01*
X171768101Y-89501065D01*
X171728746Y-89492700D01*
X171539454Y-89492700D01*
X171506997Y-89499598D01*
X171354297Y-89532055D01*
X171354292Y-89532057D01*
X171181370Y-89609048D01*
X171181365Y-89609051D01*
X171028229Y-89720311D01*
X170901566Y-89860985D01*
X170806921Y-90024915D01*
X170806918Y-90024922D01*
X170753784Y-90188454D01*
X170748426Y-90204944D01*
X170728640Y-90393200D01*
X169700313Y-90393200D01*
X169676434Y-90375851D01*
X169676429Y-90375848D01*
X169503507Y-90298857D01*
X169503502Y-90298855D01*
X169328884Y-90261740D01*
X169318346Y-90259500D01*
X169211540Y-90259500D01*
X169144501Y-90239815D01*
X169098746Y-90187011D01*
X169088219Y-90148459D01*
X169085674Y-90124245D01*
X169085672Y-90124240D01*
X169027179Y-89944216D01*
X168932533Y-89780284D01*
X168805871Y-89639612D01*
X168784598Y-89624156D01*
X168652734Y-89528351D01*
X168652729Y-89528348D01*
X168479807Y-89451357D01*
X168479802Y-89451355D01*
X168334001Y-89420365D01*
X168294646Y-89412000D01*
X168105354Y-89412000D01*
X168087528Y-89415789D01*
X167920197Y-89451355D01*
X167920192Y-89451357D01*
X167747270Y-89528348D01*
X167747265Y-89528351D01*
X167594129Y-89639611D01*
X167467466Y-89780285D01*
X167372821Y-89944215D01*
X167372818Y-89944222D01*
X167316763Y-90116744D01*
X167314326Y-90124244D01*
X167294540Y-90312500D01*
X159949913Y-90312500D01*
X159863134Y-90249451D01*
X159863129Y-90249448D01*
X159690207Y-90172457D01*
X159690202Y-90172455D01*
X159544401Y-90141465D01*
X159505046Y-90133100D01*
X159315754Y-90133100D01*
X159283297Y-90139998D01*
X159130597Y-90172455D01*
X159130592Y-90172457D01*
X158957670Y-90249448D01*
X158957665Y-90249451D01*
X158804529Y-90360711D01*
X158677866Y-90501385D01*
X158583221Y-90665315D01*
X158583218Y-90665322D01*
X158524930Y-90844716D01*
X158524726Y-90845344D01*
X158504940Y-91033600D01*
X156647581Y-91033600D01*
X156658260Y-90932000D01*
X156638474Y-90743744D01*
X156579979Y-90563716D01*
X156485333Y-90399784D01*
X156358671Y-90259112D01*
X156342362Y-90247262D01*
X156299698Y-90191934D01*
X156293719Y-90122320D01*
X156323098Y-90063976D01*
X156434533Y-89940216D01*
X156529179Y-89776284D01*
X156587674Y-89596256D01*
X156607460Y-89408000D01*
X156587674Y-89219744D01*
X156529179Y-89039716D01*
X156434533Y-88875784D01*
X156307871Y-88735112D01*
X156307870Y-88735111D01*
X156154734Y-88623851D01*
X156154729Y-88623848D01*
X155981807Y-88546857D01*
X155981802Y-88546855D01*
X155836001Y-88515865D01*
X155796646Y-88507500D01*
X155607354Y-88507500D01*
X155582349Y-88512815D01*
X155422197Y-88546855D01*
X155422192Y-88546857D01*
X155249270Y-88623848D01*
X155249265Y-88623851D01*
X155096129Y-88735111D01*
X154969466Y-88875785D01*
X154874821Y-89039715D01*
X154874818Y-89039722D01*
X154816327Y-89219740D01*
X154816326Y-89219744D01*
X154796540Y-89408000D01*
X148107843Y-89408000D01*
X148123860Y-89255600D01*
X148104074Y-89067344D01*
X148045579Y-88887316D01*
X147950933Y-88723384D01*
X147824271Y-88582712D01*
X147801060Y-88565848D01*
X147671134Y-88471451D01*
X147671129Y-88471448D01*
X147498207Y-88394457D01*
X147498202Y-88394455D01*
X147352401Y-88363465D01*
X147313046Y-88355100D01*
X147313045Y-88355100D01*
X147311461Y-88355100D01*
X147310577Y-88354840D01*
X147306578Y-88354420D01*
X147306654Y-88353688D01*
X147244422Y-88335415D01*
X147198667Y-88282611D01*
X147190171Y-88256881D01*
X147189674Y-88254546D01*
X147189674Y-88254544D01*
X147131179Y-88074516D01*
X147036533Y-87910584D01*
X146909871Y-87769912D01*
X146907928Y-87768500D01*
X146756734Y-87658651D01*
X146756729Y-87658648D01*
X146583807Y-87581657D01*
X146583802Y-87581655D01*
X146434872Y-87550000D01*
X149444540Y-87550000D01*
X149464326Y-87738256D01*
X149464327Y-87738259D01*
X149522818Y-87918277D01*
X149522821Y-87918284D01*
X149617467Y-88082216D01*
X149689201Y-88161884D01*
X149744129Y-88222888D01*
X149897265Y-88334148D01*
X149897270Y-88334151D01*
X150070192Y-88411142D01*
X150070197Y-88411144D01*
X150255354Y-88450500D01*
X150255355Y-88450500D01*
X150444644Y-88450500D01*
X150444646Y-88450500D01*
X150629803Y-88411144D01*
X150802730Y-88334151D01*
X150955871Y-88222888D01*
X151082533Y-88082216D01*
X151177179Y-87918284D01*
X151235674Y-87738256D01*
X151255460Y-87550000D01*
X151235674Y-87361744D01*
X151177179Y-87181716D01*
X151082533Y-87017784D01*
X150955871Y-86877112D01*
X150955870Y-86877111D01*
X150802734Y-86765851D01*
X150802729Y-86765848D01*
X150629807Y-86688857D01*
X150629802Y-86688855D01*
X150484001Y-86657865D01*
X150444646Y-86649500D01*
X150255354Y-86649500D01*
X150234644Y-86653902D01*
X150070197Y-86688855D01*
X150070192Y-86688857D01*
X149897270Y-86765848D01*
X149897265Y-86765851D01*
X149744129Y-86877111D01*
X149617466Y-87017785D01*
X149522821Y-87181715D01*
X149522818Y-87181722D01*
X149464327Y-87361740D01*
X149464326Y-87361744D01*
X149444540Y-87550000D01*
X146434872Y-87550000D01*
X146398646Y-87542300D01*
X146279932Y-87542300D01*
X146212893Y-87522615D01*
X146167138Y-87469811D01*
X146162001Y-87456618D01*
X146115181Y-87312522D01*
X146115180Y-87312521D01*
X146115179Y-87312516D01*
X146020533Y-87148584D01*
X145893871Y-87007912D01*
X145866148Y-86987770D01*
X145740734Y-86896651D01*
X145740729Y-86896648D01*
X145567807Y-86819657D01*
X145567802Y-86819655D01*
X145400152Y-86784021D01*
X145382646Y-86780300D01*
X145279461Y-86780300D01*
X145212422Y-86760615D01*
X145166667Y-86707811D01*
X145158171Y-86682081D01*
X145157674Y-86679746D01*
X145157674Y-86679744D01*
X145099179Y-86499716D01*
X145004533Y-86335784D01*
X144877871Y-86195112D01*
X144869620Y-86189117D01*
X144724734Y-86083851D01*
X144724729Y-86083848D01*
X144551807Y-86006857D01*
X144551802Y-86006855D01*
X144406001Y-85975865D01*
X144366646Y-85967500D01*
X144177354Y-85967500D01*
X144144897Y-85974398D01*
X143992197Y-86006855D01*
X143992192Y-86006857D01*
X143819270Y-86083848D01*
X143819265Y-86083851D01*
X143666129Y-86195111D01*
X143539466Y-86335785D01*
X143444821Y-86499715D01*
X143444818Y-86499722D01*
X143386697Y-86678602D01*
X143386326Y-86679744D01*
X143366540Y-86868000D01*
X120523790Y-86868000D01*
X120527726Y-84937594D01*
X124444357Y-84937594D01*
X124444357Y-84937605D01*
X124464890Y-85185412D01*
X124464892Y-85185424D01*
X124525936Y-85426481D01*
X124625826Y-85654206D01*
X124761833Y-85862382D01*
X124780090Y-85882214D01*
X124930256Y-86045338D01*
X125126491Y-86198074D01*
X125345190Y-86316428D01*
X125580386Y-86397171D01*
X125825665Y-86438100D01*
X126074335Y-86438100D01*
X126319614Y-86397171D01*
X126554810Y-86316428D01*
X126773509Y-86198074D01*
X126969744Y-86045338D01*
X127138164Y-85862385D01*
X127274173Y-85654207D01*
X127374063Y-85426481D01*
X127435108Y-85185421D01*
X127435405Y-85181836D01*
X127455643Y-84937605D01*
X127455643Y-84937594D01*
X130944357Y-84937594D01*
X130944357Y-84937605D01*
X130964890Y-85185412D01*
X130964892Y-85185424D01*
X131025936Y-85426481D01*
X131125826Y-85654206D01*
X131261833Y-85862382D01*
X131280090Y-85882214D01*
X131430256Y-86045338D01*
X131626491Y-86198074D01*
X131845190Y-86316428D01*
X132080386Y-86397171D01*
X132325665Y-86438100D01*
X132574335Y-86438100D01*
X132819614Y-86397171D01*
X133054810Y-86316428D01*
X133273509Y-86198074D01*
X133469744Y-86045338D01*
X133638164Y-85862385D01*
X133711589Y-85750000D01*
X152044540Y-85750000D01*
X152064326Y-85938256D01*
X152064327Y-85938259D01*
X152122818Y-86118277D01*
X152122821Y-86118284D01*
X152217467Y-86282216D01*
X152320972Y-86397170D01*
X152344129Y-86422888D01*
X152497265Y-86534148D01*
X152497270Y-86534151D01*
X152670192Y-86611142D01*
X152670197Y-86611144D01*
X152855354Y-86650500D01*
X152855355Y-86650500D01*
X153044644Y-86650500D01*
X153044646Y-86650500D01*
X153229803Y-86611144D01*
X153402730Y-86534151D01*
X153555871Y-86422888D01*
X153682533Y-86282216D01*
X153682533Y-86282214D01*
X153686361Y-86277964D01*
X153745848Y-86241315D01*
X153804291Y-86239646D01*
X153855354Y-86250500D01*
X153855355Y-86250500D01*
X154044644Y-86250500D01*
X154044646Y-86250500D01*
X154229803Y-86211144D01*
X154402730Y-86134151D01*
X154555871Y-86022888D01*
X154572518Y-86004400D01*
X155456940Y-86004400D01*
X155476726Y-86192656D01*
X155476727Y-86192659D01*
X155535218Y-86372677D01*
X155535221Y-86372684D01*
X155629867Y-86536616D01*
X155662527Y-86572888D01*
X155756529Y-86677288D01*
X155909665Y-86788548D01*
X155909670Y-86788551D01*
X156082592Y-86865542D01*
X156082597Y-86865544D01*
X156267754Y-86904900D01*
X156267755Y-86904900D01*
X156457044Y-86904900D01*
X156457046Y-86904900D01*
X156642203Y-86865544D01*
X156815130Y-86788551D01*
X156968271Y-86677288D01*
X156992841Y-86650000D01*
X166994540Y-86650000D01*
X167014326Y-86838256D01*
X167014327Y-86838259D01*
X167072821Y-87018286D01*
X167072822Y-87018288D01*
X167127504Y-87113001D01*
X167143977Y-87180901D01*
X167127504Y-87236999D01*
X167072822Y-87331711D01*
X167072821Y-87331713D01*
X167020564Y-87492544D01*
X167014326Y-87511744D01*
X166994540Y-87700000D01*
X167014326Y-87888256D01*
X167014327Y-87888259D01*
X167072818Y-88068277D01*
X167072821Y-88068284D01*
X167167467Y-88232216D01*
X167278113Y-88355100D01*
X167294129Y-88372888D01*
X167447265Y-88484148D01*
X167447270Y-88484151D01*
X167620192Y-88561142D01*
X167620197Y-88561144D01*
X167805354Y-88600500D01*
X167805355Y-88600500D01*
X167994644Y-88600500D01*
X167994646Y-88600500D01*
X168179803Y-88561144D01*
X168352730Y-88484151D01*
X168505871Y-88372888D01*
X168632533Y-88232216D01*
X168727179Y-88068284D01*
X168785674Y-87888256D01*
X168805460Y-87700000D01*
X168785674Y-87511744D01*
X168727179Y-87331716D01*
X168672493Y-87236997D01*
X168656021Y-87169100D01*
X168672494Y-87113001D01*
X168724318Y-87023238D01*
X168774883Y-86975026D01*
X168843490Y-86961802D01*
X168908354Y-86987770D01*
X168948883Y-87044684D01*
X168949634Y-87046923D01*
X168972818Y-87118277D01*
X168972821Y-87118284D01*
X169067467Y-87282216D01*
X169112043Y-87331722D01*
X169194129Y-87422888D01*
X169347265Y-87534148D01*
X169347270Y-87534151D01*
X169520192Y-87611142D01*
X169520197Y-87611144D01*
X169705354Y-87650500D01*
X169705355Y-87650500D01*
X169894644Y-87650500D01*
X169894646Y-87650500D01*
X170079803Y-87611144D01*
X170252730Y-87534151D01*
X170405871Y-87422888D01*
X170532533Y-87282216D01*
X170627179Y-87118284D01*
X170685674Y-86938256D01*
X170689695Y-86900000D01*
X174494659Y-86900000D01*
X174513975Y-87096129D01*
X174513976Y-87096132D01*
X174539937Y-87181715D01*
X174571188Y-87284733D01*
X174664086Y-87458532D01*
X174664090Y-87458539D01*
X174789116Y-87610883D01*
X174941460Y-87735909D01*
X174941467Y-87735913D01*
X175115266Y-87828811D01*
X175115269Y-87828811D01*
X175115273Y-87828814D01*
X175303868Y-87886024D01*
X175500000Y-87905341D01*
X175696132Y-87886024D01*
X175884727Y-87828814D01*
X176058538Y-87735910D01*
X176210883Y-87610883D01*
X176335910Y-87458538D01*
X176403698Y-87331715D01*
X176428811Y-87284733D01*
X176428811Y-87284732D01*
X176428814Y-87284727D01*
X176486024Y-87096132D01*
X176505341Y-86900000D01*
X176486024Y-86703868D01*
X176428814Y-86515273D01*
X176428811Y-86515269D01*
X176428811Y-86515266D01*
X176335913Y-86341467D01*
X176335909Y-86341460D01*
X176210883Y-86189116D01*
X176058539Y-86064090D01*
X176058532Y-86064086D01*
X175884733Y-85971188D01*
X175884727Y-85971186D01*
X175696132Y-85913976D01*
X175696129Y-85913975D01*
X175554231Y-85900000D01*
X176644540Y-85900000D01*
X176664326Y-86088256D01*
X176664327Y-86088259D01*
X176722818Y-86268277D01*
X176722821Y-86268284D01*
X176817467Y-86432216D01*
X176927216Y-86554104D01*
X176944129Y-86572888D01*
X177097265Y-86684148D01*
X177097270Y-86684151D01*
X177270192Y-86761142D01*
X177270197Y-86761144D01*
X177455354Y-86800500D01*
X177455355Y-86800500D01*
X177644644Y-86800500D01*
X177644646Y-86800500D01*
X177829803Y-86761144D01*
X178002730Y-86684151D01*
X178155871Y-86572888D01*
X178282533Y-86432216D01*
X178377179Y-86268284D01*
X178435674Y-86088256D01*
X178455460Y-85900000D01*
X178435674Y-85711744D01*
X178377179Y-85531716D01*
X178282533Y-85367784D01*
X178155871Y-85227112D01*
X178155870Y-85227111D01*
X178002734Y-85115851D01*
X178002729Y-85115848D01*
X177829807Y-85038857D01*
X177829802Y-85038855D01*
X177684001Y-85007865D01*
X177644646Y-84999500D01*
X177455354Y-84999500D01*
X177422897Y-85006398D01*
X177270197Y-85038855D01*
X177270192Y-85038857D01*
X177097270Y-85115848D01*
X177097265Y-85115851D01*
X176944129Y-85227111D01*
X176817466Y-85367785D01*
X176722821Y-85531715D01*
X176722818Y-85531722D01*
X176664327Y-85711740D01*
X176664326Y-85711744D01*
X176644540Y-85900000D01*
X175554231Y-85900000D01*
X175500000Y-85894659D01*
X175303870Y-85913975D01*
X175115266Y-85971188D01*
X174941467Y-86064086D01*
X174941460Y-86064090D01*
X174789116Y-86189116D01*
X174664090Y-86341460D01*
X174664086Y-86341467D01*
X174571188Y-86515266D01*
X174513975Y-86703870D01*
X174494659Y-86900000D01*
X170689695Y-86900000D01*
X170705460Y-86750000D01*
X170685674Y-86561744D01*
X170627179Y-86381716D01*
X170532533Y-86217784D01*
X170405871Y-86077112D01*
X170387948Y-86064090D01*
X170252734Y-85965851D01*
X170252729Y-85965848D01*
X170079807Y-85888857D01*
X170079802Y-85888855D01*
X169934001Y-85857865D01*
X169894646Y-85849500D01*
X169705354Y-85849500D01*
X169672897Y-85856398D01*
X169520197Y-85888855D01*
X169520192Y-85888857D01*
X169347270Y-85965848D01*
X169347265Y-85965851D01*
X169194129Y-86077111D01*
X169067465Y-86217785D01*
X168975683Y-86376758D01*
X168925116Y-86424974D01*
X168856509Y-86438197D01*
X168791644Y-86412229D01*
X168751116Y-86355314D01*
X168750365Y-86353075D01*
X168727182Y-86281724D01*
X168727180Y-86281720D01*
X168727179Y-86281716D01*
X168632533Y-86117784D01*
X168505871Y-85977112D01*
X168505870Y-85977111D01*
X168352734Y-85865851D01*
X168352729Y-85865848D01*
X168179807Y-85788857D01*
X168179802Y-85788855D01*
X168034001Y-85757865D01*
X167994646Y-85749500D01*
X167805354Y-85749500D01*
X167772897Y-85756398D01*
X167620197Y-85788855D01*
X167620192Y-85788857D01*
X167447270Y-85865848D01*
X167447265Y-85865851D01*
X167294129Y-85977111D01*
X167167466Y-86117785D01*
X167072821Y-86281715D01*
X167072818Y-86281722D01*
X167040253Y-86381948D01*
X167014326Y-86461744D01*
X166994540Y-86650000D01*
X156992841Y-86650000D01*
X157094933Y-86536616D01*
X157189579Y-86372684D01*
X157248074Y-86192656D01*
X157267860Y-86004400D01*
X157248074Y-85816144D01*
X157189579Y-85636116D01*
X157094933Y-85472184D01*
X156968271Y-85331512D01*
X156926048Y-85300835D01*
X156815134Y-85220251D01*
X156815129Y-85220248D01*
X156642207Y-85143257D01*
X156642202Y-85143255D01*
X156496401Y-85112265D01*
X156457046Y-85103900D01*
X156267754Y-85103900D01*
X156235297Y-85110798D01*
X156082597Y-85143255D01*
X156082592Y-85143257D01*
X155909670Y-85220248D01*
X155909665Y-85220251D01*
X155756529Y-85331511D01*
X155629866Y-85472185D01*
X155535221Y-85636115D01*
X155535218Y-85636122D01*
X155485592Y-85788856D01*
X155476726Y-85816144D01*
X155456940Y-86004400D01*
X154572518Y-86004400D01*
X154682533Y-85882216D01*
X154777179Y-85718284D01*
X154835674Y-85538256D01*
X154855460Y-85350000D01*
X154835674Y-85161744D01*
X154777179Y-84981716D01*
X154682533Y-84817784D01*
X154555871Y-84677112D01*
X154511531Y-84644897D01*
X154402734Y-84565851D01*
X154402729Y-84565848D01*
X154229807Y-84488857D01*
X154229802Y-84488855D01*
X154084001Y-84457865D01*
X154044646Y-84449500D01*
X153855354Y-84449500D01*
X153822897Y-84456398D01*
X153670197Y-84488855D01*
X153670192Y-84488857D01*
X153497270Y-84565848D01*
X153497265Y-84565851D01*
X153344129Y-84677111D01*
X153344128Y-84677112D01*
X153213637Y-84822036D01*
X153154151Y-84858684D01*
X153095710Y-84860353D01*
X153044646Y-84849500D01*
X152855354Y-84849500D01*
X152822897Y-84856398D01*
X152670197Y-84888855D01*
X152670192Y-84888857D01*
X152497270Y-84965848D01*
X152497265Y-84965851D01*
X152344129Y-85077111D01*
X152217466Y-85217785D01*
X152122821Y-85381715D01*
X152122818Y-85381722D01*
X152064327Y-85561740D01*
X152064326Y-85561744D01*
X152044540Y-85750000D01*
X133711589Y-85750000D01*
X133774173Y-85654207D01*
X133874063Y-85426481D01*
X133935108Y-85185421D01*
X133935405Y-85181836D01*
X133955643Y-84937605D01*
X133955643Y-84937594D01*
X133935109Y-84689787D01*
X133935107Y-84689775D01*
X133874063Y-84448718D01*
X133774173Y-84220993D01*
X133638166Y-84012817D01*
X133574583Y-83943748D01*
X133469744Y-83829862D01*
X133273509Y-83677126D01*
X133273507Y-83677125D01*
X133273506Y-83677124D01*
X133054811Y-83558772D01*
X133054802Y-83558769D01*
X132819616Y-83478029D01*
X132574335Y-83437100D01*
X132325665Y-83437100D01*
X132080383Y-83478029D01*
X131845197Y-83558769D01*
X131845188Y-83558772D01*
X131626493Y-83677124D01*
X131439216Y-83822888D01*
X131430256Y-83829862D01*
X131419452Y-83841597D01*
X131261833Y-84012817D01*
X131125826Y-84220993D01*
X131025936Y-84448718D01*
X130964892Y-84689775D01*
X130964890Y-84689787D01*
X130944357Y-84937594D01*
X127455643Y-84937594D01*
X127435109Y-84689787D01*
X127435107Y-84689775D01*
X127374063Y-84448718D01*
X127274173Y-84220993D01*
X127138166Y-84012817D01*
X127074583Y-83943748D01*
X126969744Y-83829862D01*
X126773509Y-83677126D01*
X126773507Y-83677125D01*
X126773506Y-83677124D01*
X126554811Y-83558772D01*
X126554802Y-83558769D01*
X126319616Y-83478029D01*
X126074335Y-83437100D01*
X125825665Y-83437100D01*
X125580383Y-83478029D01*
X125345197Y-83558769D01*
X125345188Y-83558772D01*
X125126493Y-83677124D01*
X124939216Y-83822888D01*
X124930256Y-83829862D01*
X124919452Y-83841597D01*
X124761833Y-84012817D01*
X124625826Y-84220993D01*
X124525936Y-84448718D01*
X124464892Y-84689775D01*
X124464890Y-84689787D01*
X124444357Y-84937594D01*
X120527726Y-84937594D01*
X120531455Y-83108800D01*
X140877340Y-83108800D01*
X140897126Y-83297056D01*
X140897127Y-83297059D01*
X140955618Y-83477077D01*
X140955621Y-83477084D01*
X141050267Y-83641016D01*
X141090040Y-83685188D01*
X141176929Y-83781688D01*
X141330065Y-83892948D01*
X141330070Y-83892951D01*
X141502992Y-83969942D01*
X141502997Y-83969944D01*
X141688154Y-84009300D01*
X141688155Y-84009300D01*
X141877444Y-84009300D01*
X141877446Y-84009300D01*
X142062603Y-83969944D01*
X142235530Y-83892951D01*
X142388671Y-83781688D01*
X142515333Y-83641016D01*
X142609979Y-83477084D01*
X142668474Y-83297056D01*
X142669930Y-83283200D01*
X143016540Y-83283200D01*
X143036326Y-83471456D01*
X143036327Y-83471459D01*
X143094818Y-83651477D01*
X143094821Y-83651484D01*
X143189467Y-83815416D01*
X143259280Y-83892951D01*
X143316129Y-83956088D01*
X143469265Y-84067348D01*
X143469270Y-84067351D01*
X143642192Y-84144342D01*
X143642197Y-84144344D01*
X143827354Y-84183700D01*
X143827355Y-84183700D01*
X144016644Y-84183700D01*
X144016646Y-84183700D01*
X144201803Y-84144344D01*
X144374730Y-84067351D01*
X144527871Y-83956088D01*
X144654533Y-83815416D01*
X144749179Y-83651484D01*
X144807674Y-83471456D01*
X144827460Y-83283200D01*
X144807674Y-83094944D01*
X144749179Y-82914916D01*
X144654533Y-82750984D01*
X144527871Y-82610312D01*
X144521248Y-82605500D01*
X144374734Y-82499051D01*
X144374729Y-82499048D01*
X144201807Y-82422057D01*
X144201802Y-82422055D01*
X144056001Y-82391065D01*
X144016646Y-82382700D01*
X143827354Y-82382700D01*
X143794897Y-82389598D01*
X143642197Y-82422055D01*
X143642192Y-82422057D01*
X143469270Y-82499048D01*
X143469265Y-82499051D01*
X143316129Y-82610311D01*
X143189466Y-82750985D01*
X143094821Y-82914915D01*
X143094818Y-82914922D01*
X143036327Y-83094940D01*
X143036326Y-83094944D01*
X143016540Y-83283200D01*
X142669930Y-83283200D01*
X142688260Y-83108800D01*
X142668474Y-82920544D01*
X142609979Y-82740516D01*
X142515333Y-82576584D01*
X142388671Y-82435912D01*
X142379155Y-82428998D01*
X142235534Y-82324651D01*
X142235529Y-82324648D01*
X142062607Y-82247657D01*
X142062602Y-82247655D01*
X141916801Y-82216665D01*
X141877446Y-82208300D01*
X141688154Y-82208300D01*
X141655697Y-82215198D01*
X141502997Y-82247655D01*
X141502992Y-82247657D01*
X141330070Y-82324648D01*
X141330065Y-82324651D01*
X141176929Y-82435911D01*
X141050266Y-82576585D01*
X140955621Y-82740515D01*
X140955618Y-82740522D01*
X140898651Y-82915851D01*
X140897126Y-82920544D01*
X140877340Y-83108800D01*
X120531455Y-83108800D01*
X120535599Y-81076800D01*
X150580140Y-81076800D01*
X150599926Y-81265056D01*
X150599927Y-81265059D01*
X150658418Y-81445077D01*
X150658421Y-81445084D01*
X150753067Y-81609016D01*
X150842689Y-81708551D01*
X150879729Y-81749688D01*
X151032865Y-81860948D01*
X151032870Y-81860951D01*
X151205792Y-81937942D01*
X151205797Y-81937944D01*
X151390954Y-81977300D01*
X151390955Y-81977300D01*
X151580244Y-81977300D01*
X151580246Y-81977300D01*
X151765403Y-81937944D01*
X151765405Y-81937942D01*
X151769446Y-81937084D01*
X151839113Y-81942400D01*
X151894847Y-81984537D01*
X151902614Y-81996374D01*
X151972265Y-82117014D01*
X152098929Y-82257688D01*
X152252065Y-82368948D01*
X152252070Y-82368951D01*
X152424992Y-82445942D01*
X152424997Y-82445944D01*
X152610154Y-82485300D01*
X152610155Y-82485300D01*
X152799444Y-82485300D01*
X152799446Y-82485300D01*
X152962523Y-82450637D01*
X153032190Y-82455953D01*
X153087924Y-82498090D01*
X153095691Y-82509927D01*
X153096821Y-82511884D01*
X153191467Y-82675816D01*
X153302833Y-82799500D01*
X153318129Y-82816488D01*
X153471265Y-82927748D01*
X153471270Y-82927751D01*
X153644192Y-83004742D01*
X153644197Y-83004744D01*
X153829354Y-83044100D01*
X153829355Y-83044100D01*
X154012350Y-83044100D01*
X154079389Y-83063785D01*
X154125144Y-83116589D01*
X154135671Y-83155138D01*
X154136140Y-83159600D01*
X154155926Y-83347856D01*
X154155927Y-83347859D01*
X154214418Y-83527877D01*
X154214421Y-83527884D01*
X154309067Y-83691816D01*
X154420357Y-83815416D01*
X154435729Y-83832488D01*
X154588865Y-83943748D01*
X154588870Y-83943751D01*
X154761792Y-84020742D01*
X154761797Y-84020744D01*
X154946954Y-84060100D01*
X154946955Y-84060100D01*
X155136244Y-84060100D01*
X155136246Y-84060100D01*
X155321403Y-84020744D01*
X155494330Y-83943751D01*
X155647471Y-83832488D01*
X155774133Y-83691816D01*
X155868779Y-83527884D01*
X155927274Y-83347856D01*
X155947060Y-83159600D01*
X155927274Y-82971344D01*
X155868779Y-82791316D01*
X155774133Y-82627384D01*
X155647471Y-82486712D01*
X155642786Y-82483308D01*
X155494334Y-82375451D01*
X155494329Y-82375448D01*
X155321407Y-82298457D01*
X155321402Y-82298455D01*
X155137130Y-82259288D01*
X155136246Y-82259100D01*
X154953250Y-82259100D01*
X154886211Y-82239415D01*
X154840456Y-82186611D01*
X154829929Y-82148062D01*
X154826666Y-82117014D01*
X154809674Y-81955344D01*
X154751179Y-81775316D01*
X154707695Y-81700000D01*
X158244540Y-81700000D01*
X158264326Y-81888256D01*
X158264327Y-81888259D01*
X158322818Y-82068277D01*
X158322821Y-82068284D01*
X158417467Y-82232216D01*
X158500694Y-82324649D01*
X158542441Y-82371014D01*
X158544129Y-82372888D01*
X158596074Y-82410628D01*
X158610351Y-82421001D01*
X158653016Y-82476331D01*
X158658995Y-82545945D01*
X158629618Y-82604288D01*
X158617466Y-82617785D01*
X158522821Y-82781715D01*
X158522818Y-82781722D01*
X158465264Y-82958856D01*
X158464326Y-82961744D01*
X158444540Y-83150000D01*
X158464326Y-83338256D01*
X158464327Y-83338259D01*
X158522818Y-83518277D01*
X158522821Y-83518284D01*
X158617467Y-83682216D01*
X158695191Y-83768537D01*
X158744129Y-83822888D01*
X158897265Y-83934148D01*
X158897270Y-83934151D01*
X159070192Y-84011142D01*
X159070197Y-84011144D01*
X159255354Y-84050500D01*
X159255355Y-84050500D01*
X159444644Y-84050500D01*
X159444646Y-84050500D01*
X159629803Y-84011144D01*
X159802730Y-83934151D01*
X159955871Y-83822888D01*
X160066520Y-83700000D01*
X161944540Y-83700000D01*
X161964326Y-83888256D01*
X161964327Y-83888259D01*
X162022818Y-84068277D01*
X162022821Y-84068284D01*
X162117467Y-84232216D01*
X162199964Y-84323838D01*
X162244129Y-84372888D01*
X162397265Y-84484148D01*
X162397270Y-84484151D01*
X162570192Y-84561142D01*
X162570197Y-84561144D01*
X162755354Y-84600500D01*
X162755355Y-84600500D01*
X162944644Y-84600500D01*
X162944646Y-84600500D01*
X163129803Y-84561144D01*
X163302730Y-84484151D01*
X163455871Y-84372888D01*
X163582533Y-84232216D01*
X163677179Y-84068284D01*
X163735674Y-83888256D01*
X163755460Y-83700000D01*
X163735674Y-83511744D01*
X163677179Y-83331716D01*
X163582533Y-83167784D01*
X163455871Y-83027112D01*
X163440461Y-83015916D01*
X163302734Y-82915851D01*
X163302729Y-82915848D01*
X163129807Y-82838857D01*
X163129802Y-82838855D01*
X162984001Y-82807865D01*
X162944646Y-82799500D01*
X162755354Y-82799500D01*
X162722897Y-82806398D01*
X162570197Y-82838855D01*
X162570192Y-82838857D01*
X162397270Y-82915848D01*
X162397265Y-82915851D01*
X162244129Y-83027111D01*
X162117466Y-83167785D01*
X162022821Y-83331715D01*
X162022818Y-83331722D01*
X161964327Y-83511740D01*
X161964326Y-83511744D01*
X161944540Y-83700000D01*
X160066520Y-83700000D01*
X160082533Y-83682216D01*
X160177179Y-83518284D01*
X160235674Y-83338256D01*
X160255460Y-83150000D01*
X160235674Y-82961744D01*
X160177179Y-82781716D01*
X160082533Y-82617784D01*
X159955871Y-82477112D01*
X159954796Y-82476331D01*
X159889648Y-82428998D01*
X159846982Y-82373668D01*
X159841003Y-82304055D01*
X159870384Y-82245708D01*
X159882533Y-82232216D01*
X159977179Y-82068284D01*
X160035674Y-81888256D01*
X160040872Y-81838800D01*
X164092940Y-81838800D01*
X164112726Y-82027056D01*
X164112727Y-82027059D01*
X164171218Y-82207077D01*
X164171221Y-82207084D01*
X164265867Y-82371016D01*
X164379330Y-82497029D01*
X164392529Y-82511688D01*
X164545665Y-82622948D01*
X164545670Y-82622951D01*
X164718592Y-82699942D01*
X164718593Y-82699942D01*
X164718597Y-82699944D01*
X164798591Y-82716947D01*
X164809073Y-82719175D01*
X164870555Y-82752367D01*
X164904332Y-82813530D01*
X164899680Y-82883244D01*
X164858076Y-82939377D01*
X164826070Y-82956070D01*
X164826134Y-82956212D01*
X164823847Y-82957230D01*
X164821614Y-82958395D01*
X164820196Y-82958855D01*
X164647270Y-83035848D01*
X164647265Y-83035851D01*
X164494129Y-83147111D01*
X164367466Y-83287785D01*
X164272821Y-83451715D01*
X164272818Y-83451722D01*
X164215550Y-83627976D01*
X164214326Y-83631744D01*
X164194540Y-83820000D01*
X164214326Y-84008256D01*
X164214327Y-84008258D01*
X164214327Y-84008259D01*
X164272818Y-84188277D01*
X164272821Y-84188284D01*
X164367467Y-84352216D01*
X164454358Y-84448718D01*
X164494129Y-84492888D01*
X164647265Y-84604148D01*
X164647270Y-84604151D01*
X164820192Y-84681142D01*
X164820197Y-84681144D01*
X165005354Y-84720500D01*
X165005355Y-84720500D01*
X165194644Y-84720500D01*
X165194646Y-84720500D01*
X165379803Y-84681144D01*
X165530609Y-84614000D01*
X174443859Y-84614000D01*
X174463175Y-84810129D01*
X174466747Y-84821904D01*
X174515225Y-84981715D01*
X174520388Y-84998733D01*
X174613286Y-85172532D01*
X174613290Y-85172539D01*
X174738316Y-85324883D01*
X174890660Y-85449909D01*
X174890667Y-85449913D01*
X175064466Y-85542811D01*
X175064469Y-85542811D01*
X175064473Y-85542814D01*
X175253068Y-85600024D01*
X175449200Y-85619341D01*
X175645332Y-85600024D01*
X175833927Y-85542814D01*
X175842455Y-85538256D01*
X175966066Y-85472184D01*
X176007738Y-85449910D01*
X176160083Y-85324883D01*
X176285110Y-85172538D01*
X176355995Y-85039921D01*
X176378011Y-84998733D01*
X176378011Y-84998732D01*
X176378014Y-84998727D01*
X176435224Y-84810132D01*
X176454541Y-84614000D01*
X176435224Y-84417868D01*
X176378014Y-84229273D01*
X176378011Y-84229269D01*
X176378011Y-84229266D01*
X176285113Y-84055467D01*
X176285109Y-84055460D01*
X176160083Y-83903116D01*
X176007739Y-83778090D01*
X176007732Y-83778086D01*
X175833933Y-83685188D01*
X175833927Y-83685186D01*
X175688312Y-83641014D01*
X175645329Y-83627975D01*
X175449200Y-83608659D01*
X175253070Y-83627975D01*
X175064466Y-83685188D01*
X174890667Y-83778086D01*
X174890660Y-83778090D01*
X174738316Y-83903116D01*
X174613290Y-84055460D01*
X174613286Y-84055467D01*
X174520388Y-84229266D01*
X174463175Y-84417870D01*
X174443859Y-84614000D01*
X165530609Y-84614000D01*
X165552730Y-84604151D01*
X165705871Y-84492888D01*
X165832533Y-84352216D01*
X165927179Y-84188284D01*
X165985674Y-84008256D01*
X165993367Y-83935055D01*
X166019950Y-83870444D01*
X166077247Y-83830458D01*
X166147066Y-83827798D01*
X166167115Y-83834737D01*
X166242597Y-83868344D01*
X166427754Y-83907700D01*
X166427755Y-83907700D01*
X166617044Y-83907700D01*
X166617046Y-83907700D01*
X166802203Y-83868344D01*
X166975130Y-83791351D01*
X167128271Y-83680088D01*
X167254933Y-83539416D01*
X167349579Y-83375484D01*
X167408074Y-83195456D01*
X167427860Y-83007200D01*
X167408074Y-82818944D01*
X167349579Y-82638916D01*
X167254933Y-82474984D01*
X167128271Y-82334312D01*
X167091790Y-82307807D01*
X166975134Y-82223051D01*
X166975129Y-82223048D01*
X166802207Y-82146057D01*
X166802202Y-82146055D01*
X166656401Y-82115065D01*
X166617046Y-82106700D01*
X166427754Y-82106700D01*
X166395297Y-82113598D01*
X166242597Y-82146055D01*
X166242592Y-82146057D01*
X166069670Y-82223048D01*
X166069668Y-82223050D01*
X166052105Y-82235810D01*
X165986299Y-82259288D01*
X165918245Y-82243461D01*
X165869551Y-82193355D01*
X165855677Y-82124876D01*
X165861289Y-82097180D01*
X165884074Y-82027056D01*
X165903860Y-81838800D01*
X165884074Y-81650544D01*
X165825579Y-81470516D01*
X165730933Y-81306584D01*
X165604271Y-81165912D01*
X165604270Y-81165911D01*
X165451134Y-81054651D01*
X165451129Y-81054648D01*
X165278207Y-80977657D01*
X165278202Y-80977655D01*
X165132401Y-80946665D01*
X165093046Y-80938300D01*
X164903754Y-80938300D01*
X164871297Y-80945198D01*
X164718597Y-80977655D01*
X164718592Y-80977657D01*
X164545670Y-81054648D01*
X164545665Y-81054651D01*
X164392529Y-81165911D01*
X164265866Y-81306585D01*
X164171221Y-81470515D01*
X164171218Y-81470522D01*
X164113117Y-81649340D01*
X164112726Y-81650544D01*
X164092940Y-81838800D01*
X160040872Y-81838800D01*
X160055460Y-81700000D01*
X160035674Y-81511744D01*
X159977179Y-81331716D01*
X159882533Y-81167784D01*
X159755871Y-81027112D01*
X159734910Y-81011883D01*
X159602734Y-80915851D01*
X159602729Y-80915848D01*
X159429807Y-80838857D01*
X159429802Y-80838855D01*
X159284001Y-80807865D01*
X159244646Y-80799500D01*
X159055354Y-80799500D01*
X159022897Y-80806398D01*
X158870197Y-80838855D01*
X158870192Y-80838857D01*
X158697270Y-80915848D01*
X158697265Y-80915851D01*
X158544129Y-81027111D01*
X158417466Y-81167785D01*
X158322821Y-81331715D01*
X158322818Y-81331722D01*
X158277658Y-81470712D01*
X158264326Y-81511744D01*
X158244540Y-81700000D01*
X154707695Y-81700000D01*
X154656533Y-81611384D01*
X154529871Y-81470712D01*
X154529870Y-81470711D01*
X154376734Y-81359451D01*
X154376729Y-81359448D01*
X154203807Y-81282457D01*
X154203802Y-81282455D01*
X154058001Y-81251465D01*
X154018646Y-81243100D01*
X153829354Y-81243100D01*
X153829352Y-81243100D01*
X153666276Y-81277762D01*
X153596609Y-81272446D01*
X153540876Y-81230308D01*
X153533109Y-81218472D01*
X153472017Y-81112659D01*
X153437333Y-81052584D01*
X153310671Y-80911912D01*
X153278508Y-80888544D01*
X153157534Y-80800651D01*
X153157529Y-80800648D01*
X152984607Y-80723657D01*
X152984602Y-80723655D01*
X152838801Y-80692665D01*
X152799446Y-80684300D01*
X152610154Y-80684300D01*
X152610153Y-80684300D01*
X152420952Y-80724515D01*
X152351285Y-80719199D01*
X152295552Y-80677062D01*
X152287785Y-80665225D01*
X152247877Y-80596103D01*
X152218133Y-80544584D01*
X152091471Y-80403912D01*
X152091470Y-80403911D01*
X151938334Y-80292651D01*
X151938329Y-80292648D01*
X151765407Y-80215657D01*
X151765402Y-80215655D01*
X151619601Y-80184665D01*
X151580246Y-80176300D01*
X151390954Y-80176300D01*
X151358497Y-80183198D01*
X151205797Y-80215655D01*
X151205792Y-80215657D01*
X151032870Y-80292648D01*
X151032865Y-80292651D01*
X150879729Y-80403911D01*
X150753066Y-80544585D01*
X150658421Y-80708515D01*
X150658418Y-80708522D01*
X150616070Y-80838857D01*
X150599926Y-80888544D01*
X150580140Y-81076800D01*
X120535599Y-81076800D01*
X120538707Y-79552794D01*
X124444859Y-79552794D01*
X124444859Y-79552805D01*
X124465385Y-79800529D01*
X124465387Y-79800538D01*
X124526412Y-80041517D01*
X124626266Y-80269164D01*
X124726564Y-80422682D01*
X125426212Y-79723034D01*
X125437482Y-79765092D01*
X125509890Y-79890508D01*
X125612292Y-79992910D01*
X125737708Y-80065318D01*
X125779765Y-80076587D01*
X125079942Y-80776409D01*
X125126768Y-80812855D01*
X125126770Y-80812856D01*
X125345385Y-80931164D01*
X125345396Y-80931169D01*
X125580506Y-81011883D01*
X125825707Y-81052800D01*
X126074293Y-81052800D01*
X126319493Y-81011883D01*
X126554603Y-80931169D01*
X126554614Y-80931164D01*
X126773228Y-80812857D01*
X126773231Y-80812855D01*
X126820056Y-80776409D01*
X126120234Y-80076587D01*
X126162292Y-80065318D01*
X126287708Y-79992910D01*
X126390110Y-79890508D01*
X126462518Y-79765092D01*
X126473787Y-79723035D01*
X127173434Y-80422682D01*
X127273731Y-80269169D01*
X127373587Y-80041517D01*
X127434612Y-79800538D01*
X127434614Y-79800529D01*
X127455141Y-79552805D01*
X127455141Y-79552794D01*
X130944859Y-79552794D01*
X130944859Y-79552805D01*
X130965385Y-79800529D01*
X130965387Y-79800538D01*
X131026412Y-80041517D01*
X131126266Y-80269164D01*
X131226564Y-80422682D01*
X131926212Y-79723034D01*
X131937482Y-79765092D01*
X132009890Y-79890508D01*
X132112292Y-79992910D01*
X132237708Y-80065318D01*
X132279765Y-80076587D01*
X131579942Y-80776409D01*
X131626768Y-80812855D01*
X131626770Y-80812856D01*
X131845385Y-80931164D01*
X131845396Y-80931169D01*
X132080506Y-81011883D01*
X132325707Y-81052800D01*
X132574293Y-81052800D01*
X132819493Y-81011883D01*
X133054603Y-80931169D01*
X133054614Y-80931164D01*
X133273228Y-80812857D01*
X133273231Y-80812855D01*
X133320056Y-80776409D01*
X132620234Y-80076587D01*
X132662292Y-80065318D01*
X132787708Y-79992910D01*
X132890110Y-79890508D01*
X132962518Y-79765092D01*
X132973787Y-79723035D01*
X133673434Y-80422682D01*
X133773731Y-80269169D01*
X133873587Y-80041517D01*
X133934612Y-79800538D01*
X133934614Y-79800529D01*
X133955141Y-79552805D01*
X133955141Y-79552794D01*
X133934614Y-79305070D01*
X133934612Y-79305061D01*
X133873587Y-79064082D01*
X133842847Y-78994000D01*
X144890540Y-78994000D01*
X144910326Y-79182256D01*
X144910327Y-79182259D01*
X144968818Y-79362277D01*
X144968821Y-79362284D01*
X145063467Y-79526216D01*
X145152601Y-79625209D01*
X145190129Y-79666888D01*
X145343265Y-79778148D01*
X145343270Y-79778151D01*
X145516192Y-79855142D01*
X145516197Y-79855144D01*
X145701354Y-79894500D01*
X145701355Y-79894500D01*
X145890644Y-79894500D01*
X145890646Y-79894500D01*
X146075803Y-79855144D01*
X146248730Y-79778151D01*
X146401871Y-79666888D01*
X146528533Y-79526216D01*
X146623179Y-79362284D01*
X146681674Y-79182256D01*
X146701460Y-78994000D01*
X146681674Y-78805744D01*
X146627300Y-78638400D01*
X166023340Y-78638400D01*
X166043126Y-78826656D01*
X166043127Y-78826659D01*
X166101618Y-79006677D01*
X166101621Y-79006684D01*
X166196267Y-79170616D01*
X166317322Y-79305061D01*
X166322929Y-79311288D01*
X166476065Y-79422548D01*
X166476070Y-79422551D01*
X166648992Y-79499542D01*
X166648997Y-79499544D01*
X166834154Y-79538900D01*
X166834155Y-79538900D01*
X167023444Y-79538900D01*
X167023446Y-79538900D01*
X167208603Y-79499544D01*
X167381530Y-79422551D01*
X167534671Y-79311288D01*
X167661333Y-79170616D01*
X167755979Y-79006684D01*
X167814474Y-78826656D01*
X167834260Y-78638400D01*
X167814474Y-78450144D01*
X167755979Y-78270116D01*
X167661333Y-78106184D01*
X167534671Y-77965512D01*
X167532721Y-77964095D01*
X167381534Y-77854251D01*
X167381529Y-77854248D01*
X167208607Y-77777257D01*
X167208602Y-77777255D01*
X167062801Y-77746265D01*
X167023446Y-77737900D01*
X166834154Y-77737900D01*
X166801697Y-77744798D01*
X166648997Y-77777255D01*
X166648992Y-77777257D01*
X166476070Y-77854248D01*
X166476065Y-77854251D01*
X166322929Y-77965511D01*
X166196266Y-78106185D01*
X166101621Y-78270115D01*
X166101618Y-78270122D01*
X166043127Y-78450140D01*
X166043126Y-78450144D01*
X166023340Y-78638400D01*
X146627300Y-78638400D01*
X146623179Y-78625716D01*
X146528533Y-78461784D01*
X146401871Y-78321112D01*
X146401870Y-78321111D01*
X146248734Y-78209851D01*
X146248729Y-78209848D01*
X146075807Y-78132857D01*
X146075802Y-78132855D01*
X145930001Y-78101865D01*
X145890646Y-78093500D01*
X145701354Y-78093500D01*
X145668897Y-78100398D01*
X145516197Y-78132855D01*
X145516192Y-78132857D01*
X145343270Y-78209848D01*
X145343265Y-78209851D01*
X145190129Y-78321111D01*
X145063466Y-78461785D01*
X144968821Y-78625715D01*
X144968818Y-78625722D01*
X144910327Y-78805740D01*
X144910326Y-78805744D01*
X144890540Y-78994000D01*
X133842847Y-78994000D01*
X133773731Y-78836430D01*
X133673434Y-78682916D01*
X132973787Y-79382564D01*
X132962518Y-79340508D01*
X132890110Y-79215092D01*
X132787708Y-79112690D01*
X132662292Y-79040282D01*
X132620235Y-79029012D01*
X133320057Y-78329190D01*
X133320056Y-78329189D01*
X133273229Y-78292743D01*
X133054614Y-78174435D01*
X133054603Y-78174430D01*
X132819493Y-78093716D01*
X132574293Y-78052800D01*
X132325707Y-78052800D01*
X132080506Y-78093716D01*
X131845396Y-78174430D01*
X131845390Y-78174432D01*
X131626761Y-78292749D01*
X131579942Y-78329188D01*
X131579942Y-78329190D01*
X132279765Y-79029012D01*
X132237708Y-79040282D01*
X132112292Y-79112690D01*
X132009890Y-79215092D01*
X131937482Y-79340508D01*
X131926212Y-79382564D01*
X131226564Y-78682916D01*
X131126267Y-78836432D01*
X131026412Y-79064082D01*
X130965387Y-79305061D01*
X130965385Y-79305070D01*
X130944859Y-79552794D01*
X127455141Y-79552794D01*
X127434614Y-79305070D01*
X127434612Y-79305061D01*
X127373587Y-79064082D01*
X127273731Y-78836430D01*
X127173434Y-78682916D01*
X126473787Y-79382564D01*
X126462518Y-79340508D01*
X126390110Y-79215092D01*
X126287708Y-79112690D01*
X126162292Y-79040282D01*
X126120235Y-79029012D01*
X126820057Y-78329190D01*
X126820056Y-78329189D01*
X126773229Y-78292743D01*
X126554614Y-78174435D01*
X126554603Y-78174430D01*
X126319493Y-78093716D01*
X126074293Y-78052800D01*
X125825707Y-78052800D01*
X125580506Y-78093716D01*
X125345396Y-78174430D01*
X125345390Y-78174432D01*
X125126761Y-78292749D01*
X125079942Y-78329188D01*
X125079942Y-78329190D01*
X125779765Y-79029012D01*
X125737708Y-79040282D01*
X125612292Y-79112690D01*
X125509890Y-79215092D01*
X125437482Y-79340508D01*
X125426212Y-79382564D01*
X124726564Y-78682916D01*
X124626267Y-78836432D01*
X124526412Y-79064082D01*
X124465387Y-79305061D01*
X124465385Y-79305070D01*
X124444859Y-79552794D01*
X120538707Y-79552794D01*
X120547883Y-75052794D01*
X124444357Y-75052794D01*
X124444357Y-75052805D01*
X124464890Y-75300612D01*
X124464892Y-75300624D01*
X124525936Y-75541681D01*
X124625826Y-75769406D01*
X124761833Y-75977582D01*
X124761836Y-75977585D01*
X124930256Y-76160538D01*
X125126491Y-76313274D01*
X125345190Y-76431628D01*
X125580386Y-76512371D01*
X125825665Y-76553300D01*
X126074335Y-76553300D01*
X126319614Y-76512371D01*
X126554810Y-76431628D01*
X126773509Y-76313274D01*
X126969744Y-76160538D01*
X127138164Y-75977585D01*
X127274173Y-75769407D01*
X127374063Y-75541681D01*
X127435108Y-75300621D01*
X127446640Y-75161449D01*
X127455643Y-75052805D01*
X127455643Y-75052794D01*
X130944357Y-75052794D01*
X130944357Y-75052805D01*
X130964890Y-75300612D01*
X130964892Y-75300624D01*
X131025936Y-75541681D01*
X131125826Y-75769406D01*
X131261833Y-75977582D01*
X131261836Y-75977585D01*
X131430256Y-76160538D01*
X131626491Y-76313274D01*
X131845190Y-76431628D01*
X132080386Y-76512371D01*
X132325665Y-76553300D01*
X132574335Y-76553300D01*
X132819614Y-76512371D01*
X133054810Y-76431628D01*
X133273509Y-76313274D01*
X133469744Y-76160538D01*
X133638164Y-75977585D01*
X133659061Y-75945600D01*
X137509740Y-75945600D01*
X137529526Y-76133856D01*
X137529527Y-76133859D01*
X137588018Y-76313877D01*
X137588021Y-76313884D01*
X137682667Y-76477816D01*
X137786468Y-76593098D01*
X137809329Y-76618488D01*
X137962465Y-76729748D01*
X137962470Y-76729751D01*
X138135392Y-76806742D01*
X138135397Y-76806744D01*
X138320554Y-76846100D01*
X138320555Y-76846100D01*
X138509844Y-76846100D01*
X138509846Y-76846100D01*
X138695003Y-76806744D01*
X138867930Y-76729751D01*
X139021071Y-76618488D01*
X139031955Y-76606400D01*
X139454940Y-76606400D01*
X139474726Y-76794656D01*
X139474727Y-76794659D01*
X139533218Y-76974677D01*
X139533221Y-76974684D01*
X139627867Y-77138616D01*
X139697050Y-77215451D01*
X139754529Y-77279288D01*
X139907665Y-77390548D01*
X139907670Y-77390551D01*
X140080592Y-77467542D01*
X140080597Y-77467544D01*
X140265754Y-77506900D01*
X140265755Y-77506900D01*
X140455044Y-77506900D01*
X140455046Y-77506900D01*
X140640203Y-77467544D01*
X140813130Y-77390551D01*
X140966271Y-77279288D01*
X141092933Y-77138616D01*
X141187579Y-76974684D01*
X141246074Y-76794656D01*
X141265860Y-76606400D01*
X141246074Y-76418144D01*
X141187579Y-76238116D01*
X141092933Y-76074184D01*
X140966271Y-75933512D01*
X140966270Y-75933511D01*
X140813134Y-75822251D01*
X140813129Y-75822248D01*
X140640207Y-75745257D01*
X140640202Y-75745255D01*
X140475356Y-75710217D01*
X140455046Y-75705900D01*
X140265754Y-75705900D01*
X140245444Y-75710217D01*
X140080597Y-75745255D01*
X140080592Y-75745257D01*
X139907670Y-75822248D01*
X139907665Y-75822251D01*
X139754529Y-75933511D01*
X139627866Y-76074185D01*
X139533221Y-76238115D01*
X139533218Y-76238122D01*
X139508602Y-76313884D01*
X139474726Y-76418144D01*
X139454940Y-76606400D01*
X139031955Y-76606400D01*
X139147733Y-76477816D01*
X139242379Y-76313884D01*
X139300874Y-76133856D01*
X139320660Y-75945600D01*
X139300874Y-75757344D01*
X139242379Y-75577316D01*
X139147733Y-75413384D01*
X139021071Y-75272712D01*
X138976749Y-75240510D01*
X138867934Y-75161451D01*
X138867929Y-75161448D01*
X138695007Y-75084457D01*
X138695002Y-75084455D01*
X138546044Y-75052794D01*
X138509846Y-75045100D01*
X138320554Y-75045100D01*
X138288097Y-75051998D01*
X138135397Y-75084455D01*
X138135392Y-75084457D01*
X137962470Y-75161448D01*
X137962465Y-75161451D01*
X137809329Y-75272711D01*
X137682666Y-75413385D01*
X137588021Y-75577315D01*
X137588018Y-75577322D01*
X137533453Y-75745257D01*
X137529526Y-75757344D01*
X137509740Y-75945600D01*
X133659061Y-75945600D01*
X133774173Y-75769407D01*
X133874063Y-75541681D01*
X133935108Y-75300621D01*
X133946640Y-75161449D01*
X133955643Y-75052805D01*
X133955643Y-75052794D01*
X133935109Y-74804987D01*
X133935107Y-74804975D01*
X133874063Y-74563918D01*
X133774173Y-74336193D01*
X133638166Y-74128017D01*
X133616557Y-74104544D01*
X133469744Y-73945062D01*
X133299300Y-73812400D01*
X145356940Y-73812400D01*
X145376726Y-74000656D01*
X145376727Y-74000659D01*
X145435218Y-74180677D01*
X145435221Y-74180684D01*
X145529867Y-74344616D01*
X145586105Y-74407074D01*
X145656529Y-74485288D01*
X145809665Y-74596548D01*
X145809670Y-74596551D01*
X145982592Y-74673542D01*
X145982597Y-74673544D01*
X146167754Y-74712900D01*
X146167755Y-74712900D01*
X146357044Y-74712900D01*
X146357046Y-74712900D01*
X146542203Y-74673544D01*
X146715130Y-74596551D01*
X146868271Y-74485288D01*
X146994933Y-74344616D01*
X147089579Y-74180684D01*
X147148074Y-74000656D01*
X147167860Y-73812400D01*
X147148074Y-73624144D01*
X147089579Y-73444116D01*
X146994933Y-73280184D01*
X146868271Y-73139512D01*
X146858229Y-73132216D01*
X146715134Y-73028251D01*
X146715129Y-73028248D01*
X146542207Y-72951257D01*
X146542202Y-72951255D01*
X146396401Y-72920265D01*
X146357046Y-72911900D01*
X146167754Y-72911900D01*
X146135297Y-72918798D01*
X145982597Y-72951255D01*
X145982592Y-72951257D01*
X145809670Y-73028248D01*
X145809665Y-73028251D01*
X145656529Y-73139511D01*
X145529866Y-73280185D01*
X145435221Y-73444115D01*
X145435218Y-73444122D01*
X145394812Y-73568480D01*
X145376726Y-73624144D01*
X145356940Y-73812400D01*
X133299300Y-73812400D01*
X133273509Y-73792326D01*
X133273507Y-73792325D01*
X133273506Y-73792324D01*
X133054811Y-73673972D01*
X133054802Y-73673969D01*
X132819616Y-73593229D01*
X132574335Y-73552300D01*
X132325665Y-73552300D01*
X132080383Y-73593229D01*
X131845197Y-73673969D01*
X131845188Y-73673972D01*
X131626493Y-73792324D01*
X131430257Y-73945061D01*
X131261833Y-74128017D01*
X131125826Y-74336193D01*
X131025936Y-74563918D01*
X130964892Y-74804975D01*
X130964890Y-74804987D01*
X130944357Y-75052794D01*
X127455643Y-75052794D01*
X127435109Y-74804987D01*
X127435107Y-74804975D01*
X127374063Y-74563918D01*
X127274173Y-74336193D01*
X127138166Y-74128017D01*
X127116557Y-74104544D01*
X126969744Y-73945062D01*
X126773509Y-73792326D01*
X126773507Y-73792325D01*
X126773506Y-73792324D01*
X126554811Y-73673972D01*
X126554802Y-73673969D01*
X126319616Y-73593229D01*
X126074335Y-73552300D01*
X125825665Y-73552300D01*
X125580383Y-73593229D01*
X125345197Y-73673969D01*
X125345188Y-73673972D01*
X125126493Y-73792324D01*
X124930257Y-73945061D01*
X124761833Y-74128017D01*
X124625826Y-74336193D01*
X124525936Y-74563918D01*
X124464892Y-74804975D01*
X124464890Y-74804987D01*
X124444357Y-75052794D01*
X120547883Y-75052794D01*
X120552484Y-72796400D01*
X150681740Y-72796400D01*
X150701526Y-72984656D01*
X150701527Y-72984659D01*
X150760018Y-73164677D01*
X150760021Y-73164684D01*
X150854667Y-73328616D01*
X150973994Y-73461142D01*
X150981329Y-73469288D01*
X151134465Y-73580548D01*
X151134470Y-73580551D01*
X151307392Y-73657542D01*
X151307397Y-73657544D01*
X151492554Y-73696900D01*
X151492555Y-73696900D01*
X151681844Y-73696900D01*
X151681846Y-73696900D01*
X151867003Y-73657544D01*
X152039930Y-73580551D01*
X152193071Y-73469288D01*
X152319733Y-73328616D01*
X152414379Y-73164684D01*
X152472874Y-72984656D01*
X152492660Y-72796400D01*
X152472874Y-72608144D01*
X152414379Y-72428116D01*
X152319733Y-72264184D01*
X152193071Y-72123512D01*
X152193070Y-72123511D01*
X152039934Y-72012251D01*
X152039929Y-72012248D01*
X151867007Y-71935257D01*
X151867002Y-71935255D01*
X151721201Y-71904265D01*
X151681846Y-71895900D01*
X151492554Y-71895900D01*
X151460097Y-71902798D01*
X151307397Y-71935255D01*
X151307392Y-71935257D01*
X151134470Y-72012248D01*
X151134465Y-72012251D01*
X150981329Y-72123511D01*
X150854666Y-72264185D01*
X150760021Y-72428115D01*
X150760018Y-72428122D01*
X150717939Y-72557630D01*
X150701526Y-72608144D01*
X150681740Y-72796400D01*
X120552484Y-72796400D01*
X120575878Y-61324038D01*
X127099500Y-61324038D01*
X127099500Y-61575961D01*
X127138910Y-61824785D01*
X127216760Y-62064383D01*
X127331132Y-62288848D01*
X127479201Y-62492649D01*
X127479205Y-62492654D01*
X127571516Y-62584965D01*
X127605001Y-62646288D01*
X127607124Y-62685901D01*
X127600001Y-62752153D01*
X127600000Y-62752172D01*
X127600000Y-63300000D01*
X128974722Y-63300000D01*
X128930667Y-63376306D01*
X128900000Y-63490756D01*
X128900000Y-63609244D01*
X128930667Y-63723694D01*
X128974722Y-63800000D01*
X127600000Y-63800000D01*
X127600000Y-64347844D01*
X127606401Y-64407372D01*
X127606403Y-64407379D01*
X127656645Y-64542086D01*
X127656649Y-64542093D01*
X127742809Y-64657187D01*
X127781070Y-64685830D01*
X127822940Y-64741764D01*
X127827924Y-64811456D01*
X127807077Y-64857980D01*
X127780482Y-64894585D01*
X127780477Y-64894593D01*
X127691117Y-65069970D01*
X127630290Y-65257173D01*
X127599500Y-65451577D01*
X127599500Y-65648422D01*
X127630290Y-65842826D01*
X127691117Y-66030029D01*
X127780476Y-66205405D01*
X127896172Y-66364646D01*
X127896174Y-66364648D01*
X127993845Y-66462319D01*
X128027330Y-66523642D01*
X128022346Y-66593334D01*
X127993845Y-66637681D01*
X127896174Y-66735351D01*
X127896174Y-66735352D01*
X127896172Y-66735354D01*
X127846485Y-66803741D01*
X127780476Y-66894594D01*
X127691117Y-67069970D01*
X127630290Y-67257173D01*
X127599500Y-67451577D01*
X127599500Y-67648422D01*
X127630290Y-67842826D01*
X127691117Y-68030029D01*
X127782352Y-68209087D01*
X127795248Y-68277757D01*
X127768971Y-68342497D01*
X127744753Y-68365699D01*
X127657350Y-68429202D01*
X127657341Y-68429209D01*
X127479205Y-68607345D01*
X127479201Y-68607350D01*
X127331132Y-68811151D01*
X127216760Y-69035616D01*
X127138910Y-69275214D01*
X127099500Y-69524038D01*
X127099500Y-69775961D01*
X127138910Y-70024785D01*
X127216760Y-70264383D01*
X127331132Y-70488848D01*
X127479201Y-70692649D01*
X127479205Y-70692654D01*
X127657345Y-70870794D01*
X127657350Y-70870798D01*
X127722023Y-70917785D01*
X127861155Y-71018870D01*
X127984509Y-71081722D01*
X128085616Y-71133239D01*
X128085618Y-71133239D01*
X128085621Y-71133241D01*
X128325215Y-71211090D01*
X128574038Y-71250500D01*
X128574039Y-71250500D01*
X130125961Y-71250500D01*
X130125962Y-71250500D01*
X130374785Y-71211090D01*
X130614379Y-71133241D01*
X130838845Y-71018870D01*
X131042656Y-70870793D01*
X131220793Y-70692656D01*
X131368870Y-70488845D01*
X131483241Y-70264379D01*
X131561090Y-70024785D01*
X131600500Y-69775962D01*
X131600500Y-69524038D01*
X131561090Y-69275215D01*
X131483241Y-69035621D01*
X131483239Y-69035618D01*
X131483239Y-69035616D01*
X131441747Y-68954184D01*
X131368870Y-68811155D01*
X131349952Y-68785117D01*
X131220798Y-68607350D01*
X131220794Y-68607345D01*
X131042658Y-68429209D01*
X131042656Y-68429207D01*
X130955245Y-68365699D01*
X130912581Y-68310370D01*
X130906602Y-68240756D01*
X130917647Y-68209087D01*
X130919520Y-68205409D01*
X130919524Y-68205405D01*
X131008884Y-68030025D01*
X131069709Y-67842826D01*
X131100500Y-67648422D01*
X131100500Y-67451577D01*
X131069709Y-67257173D01*
X131008882Y-67069970D01*
X130919523Y-66894594D01*
X130803828Y-66735354D01*
X130706155Y-66637681D01*
X130672670Y-66576358D01*
X130677654Y-66506666D01*
X130706155Y-66462319D01*
X130803828Y-66364646D01*
X130919524Y-66205405D01*
X131008884Y-66030025D01*
X131069709Y-65842826D01*
X131100500Y-65648422D01*
X131100500Y-65451577D01*
X131069709Y-65257173D01*
X131008882Y-65069970D01*
X130960523Y-64975061D01*
X130919524Y-64894595D01*
X130916650Y-64890640D01*
X130892923Y-64857981D01*
X130869443Y-64792175D01*
X130885268Y-64724121D01*
X130918930Y-64685829D01*
X130957190Y-64657186D01*
X131043350Y-64542093D01*
X131043354Y-64542086D01*
X131093596Y-64407379D01*
X131093598Y-64407372D01*
X131099999Y-64347844D01*
X131100000Y-64347827D01*
X131100000Y-63800000D01*
X129725278Y-63800000D01*
X129769333Y-63723694D01*
X129800000Y-63609244D01*
X129800000Y-63490756D01*
X129769333Y-63376306D01*
X129725278Y-63300000D01*
X131100000Y-63300000D01*
X131100000Y-62752172D01*
X131099999Y-62752158D01*
X131092875Y-62685903D01*
X131105279Y-62617143D01*
X131128477Y-62584971D01*
X131220793Y-62492656D01*
X131368870Y-62288845D01*
X131483241Y-62064379D01*
X131561090Y-61824785D01*
X131600500Y-61575962D01*
X131600500Y-61324038D01*
X131561090Y-61075215D01*
X131483241Y-60835621D01*
X131483239Y-60835618D01*
X131483239Y-60835616D01*
X131381704Y-60636344D01*
X131368870Y-60611155D01*
X131257439Y-60457783D01*
X131220798Y-60407350D01*
X131220794Y-60407345D01*
X131042654Y-60229205D01*
X131042649Y-60229201D01*
X130838848Y-60081132D01*
X130838847Y-60081131D01*
X130838845Y-60081130D01*
X130768747Y-60045413D01*
X130614383Y-59966760D01*
X130374785Y-59888910D01*
X130299576Y-59876998D01*
X130125962Y-59849500D01*
X128574038Y-59849500D01*
X128449626Y-59869205D01*
X128325214Y-59888910D01*
X128085616Y-59966760D01*
X127861151Y-60081132D01*
X127657350Y-60229201D01*
X127657345Y-60229205D01*
X127479205Y-60407345D01*
X127479201Y-60407350D01*
X127331132Y-60611151D01*
X127216760Y-60835616D01*
X127138910Y-61075214D01*
X127099500Y-61324038D01*
X120575878Y-61324038D01*
X120586694Y-56019999D01*
X163204341Y-56019999D01*
X163204341Y-56020000D01*
X163224936Y-56255403D01*
X163224938Y-56255413D01*
X163286094Y-56483655D01*
X163286096Y-56483659D01*
X163286097Y-56483663D01*
X163290000Y-56492032D01*
X163385965Y-56697830D01*
X163385967Y-56697834D01*
X163494281Y-56852521D01*
X163521501Y-56891396D01*
X163521506Y-56891402D01*
X163688597Y-57058493D01*
X163688603Y-57058498D01*
X163874158Y-57188425D01*
X163917783Y-57243002D01*
X163924977Y-57312500D01*
X163893454Y-57374855D01*
X163874158Y-57391575D01*
X163688597Y-57521505D01*
X163521505Y-57688597D01*
X163385965Y-57882169D01*
X163385964Y-57882171D01*
X163286098Y-58096335D01*
X163286094Y-58096344D01*
X163224938Y-58324586D01*
X163224936Y-58324596D01*
X163204341Y-58559999D01*
X163204341Y-58560000D01*
X163224936Y-58795403D01*
X163224938Y-58795413D01*
X163286094Y-59023655D01*
X163286096Y-59023659D01*
X163286097Y-59023663D01*
X163290000Y-59032032D01*
X163385965Y-59237830D01*
X163385967Y-59237834D01*
X163494281Y-59392521D01*
X163521501Y-59431396D01*
X163521506Y-59431402D01*
X163688597Y-59598493D01*
X163688603Y-59598498D01*
X163874158Y-59728425D01*
X163917783Y-59783002D01*
X163924977Y-59852500D01*
X163893454Y-59914855D01*
X163874158Y-59931575D01*
X163688597Y-60061505D01*
X163521505Y-60228597D01*
X163385965Y-60422169D01*
X163385964Y-60422171D01*
X163286098Y-60636335D01*
X163286094Y-60636344D01*
X163224938Y-60864586D01*
X163224936Y-60864596D01*
X163204341Y-61099999D01*
X163204341Y-61100000D01*
X163224936Y-61335403D01*
X163224938Y-61335413D01*
X163286094Y-61563655D01*
X163286096Y-61563659D01*
X163286097Y-61563663D01*
X163366004Y-61735023D01*
X163385965Y-61777830D01*
X163385967Y-61777834D01*
X163418843Y-61824785D01*
X163521501Y-61971396D01*
X163521506Y-61971402D01*
X163688597Y-62138493D01*
X163688603Y-62138498D01*
X163874158Y-62268425D01*
X163917783Y-62323002D01*
X163924977Y-62392500D01*
X163893454Y-62454855D01*
X163874158Y-62471575D01*
X163688597Y-62601505D01*
X163521505Y-62768597D01*
X163385965Y-62962169D01*
X163385964Y-62962171D01*
X163286098Y-63176335D01*
X163286094Y-63176344D01*
X163224938Y-63404586D01*
X163224936Y-63404596D01*
X163204341Y-63639999D01*
X163204341Y-63640000D01*
X163224936Y-63875403D01*
X163224938Y-63875413D01*
X163286094Y-64103655D01*
X163286096Y-64103659D01*
X163286097Y-64103663D01*
X163287879Y-64107484D01*
X163385965Y-64317830D01*
X163385967Y-64317834D01*
X163407059Y-64347956D01*
X163521505Y-64511401D01*
X163688599Y-64678495D01*
X163753024Y-64723606D01*
X163882165Y-64814032D01*
X163882167Y-64814033D01*
X163882170Y-64814035D01*
X164096337Y-64913903D01*
X164324592Y-64975063D01*
X164512918Y-64991539D01*
X164559999Y-64995659D01*
X164560000Y-64995659D01*
X164560001Y-64995659D01*
X164599234Y-64992226D01*
X164795408Y-64975063D01*
X165023663Y-64913903D01*
X165237830Y-64814035D01*
X165431401Y-64678495D01*
X165598495Y-64511401D01*
X165728425Y-64325842D01*
X165783002Y-64282217D01*
X165852500Y-64275023D01*
X165914855Y-64306546D01*
X165931575Y-64325842D01*
X166061500Y-64511395D01*
X166061505Y-64511401D01*
X166228599Y-64678495D01*
X166293024Y-64723606D01*
X166422165Y-64814032D01*
X166422167Y-64814033D01*
X166422170Y-64814035D01*
X166636337Y-64913903D01*
X166864592Y-64975063D01*
X167052918Y-64991539D01*
X167099999Y-64995659D01*
X167100000Y-64995659D01*
X167100001Y-64995659D01*
X167139234Y-64992226D01*
X167335408Y-64975063D01*
X167563663Y-64913903D01*
X167777830Y-64814035D01*
X167971401Y-64678495D01*
X168138495Y-64511401D01*
X168274035Y-64317830D01*
X168373903Y-64103663D01*
X168435063Y-63875408D01*
X168455659Y-63640000D01*
X168435063Y-63404592D01*
X168373903Y-63176337D01*
X168274035Y-62962171D01*
X168268425Y-62954158D01*
X168138494Y-62768597D01*
X167971402Y-62601506D01*
X167971396Y-62601501D01*
X167785842Y-62471575D01*
X167742217Y-62416998D01*
X167735023Y-62347500D01*
X167766546Y-62285145D01*
X167785842Y-62268425D01*
X167808026Y-62252891D01*
X167971401Y-62138495D01*
X168138495Y-61971401D01*
X168274035Y-61777830D01*
X168373903Y-61563663D01*
X168435063Y-61335408D01*
X168455659Y-61100000D01*
X168435063Y-60864592D01*
X168373903Y-60636337D01*
X168274035Y-60422171D01*
X168268425Y-60414158D01*
X168138494Y-60228597D01*
X167971402Y-60061506D01*
X167971396Y-60061501D01*
X167785842Y-59931575D01*
X167742217Y-59876998D01*
X167735023Y-59807500D01*
X167766546Y-59745145D01*
X167785842Y-59728425D01*
X167808026Y-59712891D01*
X167971401Y-59598495D01*
X168138495Y-59431401D01*
X168274035Y-59237830D01*
X168373903Y-59023663D01*
X168435063Y-58795408D01*
X168455659Y-58560000D01*
X168435063Y-58324592D01*
X168373903Y-58096337D01*
X168274035Y-57882171D01*
X168268425Y-57874158D01*
X168138494Y-57688597D01*
X167971402Y-57521506D01*
X167971396Y-57521501D01*
X167785842Y-57391575D01*
X167742217Y-57336998D01*
X167735023Y-57267500D01*
X167766546Y-57205145D01*
X167785842Y-57188425D01*
X167808026Y-57172891D01*
X167971401Y-57058495D01*
X168138495Y-56891401D01*
X168274035Y-56697830D01*
X168373903Y-56483663D01*
X168435063Y-56255408D01*
X168455659Y-56020000D01*
X168435063Y-55784592D01*
X168373903Y-55556337D01*
X168274035Y-55342171D01*
X168268424Y-55334158D01*
X168138496Y-55148600D01*
X168089896Y-55100000D01*
X168016567Y-55026671D01*
X167983084Y-54965351D01*
X167988068Y-54895659D01*
X168029939Y-54839725D01*
X168060915Y-54822810D01*
X168192331Y-54773796D01*
X168307546Y-54687546D01*
X168393796Y-54572331D01*
X168444091Y-54437483D01*
X168450500Y-54377873D01*
X168450499Y-52582128D01*
X168444091Y-52522517D01*
X168443002Y-52519598D01*
X168393797Y-52387671D01*
X168393793Y-52387664D01*
X168307547Y-52272455D01*
X168307544Y-52272452D01*
X168192335Y-52186206D01*
X168192328Y-52186202D01*
X168057482Y-52135908D01*
X168057483Y-52135908D01*
X167997883Y-52129501D01*
X167997881Y-52129500D01*
X167997873Y-52129500D01*
X167997864Y-52129500D01*
X166202129Y-52129500D01*
X166202123Y-52129501D01*
X166142516Y-52135908D01*
X166007671Y-52186202D01*
X166007664Y-52186206D01*
X165892455Y-52272452D01*
X165892452Y-52272455D01*
X165806206Y-52387664D01*
X165806202Y-52387671D01*
X165756997Y-52519598D01*
X165715126Y-52575532D01*
X165649661Y-52599949D01*
X165581388Y-52585097D01*
X165553134Y-52563946D01*
X165431082Y-52441894D01*
X165237578Y-52306399D01*
X165023492Y-52206570D01*
X165023486Y-52206567D01*
X164810000Y-52149364D01*
X164810000Y-53046988D01*
X164752993Y-53014075D01*
X164625826Y-52980000D01*
X164494174Y-52980000D01*
X164367007Y-53014075D01*
X164310000Y-53046988D01*
X164310000Y-52149364D01*
X164309999Y-52149364D01*
X164096513Y-52206567D01*
X164096507Y-52206570D01*
X163882422Y-52306399D01*
X163882420Y-52306400D01*
X163688926Y-52441886D01*
X163688920Y-52441891D01*
X163521891Y-52608920D01*
X163521886Y-52608926D01*
X163386400Y-52802420D01*
X163386399Y-52802422D01*
X163286570Y-53016507D01*
X163286567Y-53016513D01*
X163229364Y-53229999D01*
X163229364Y-53230000D01*
X164126988Y-53230000D01*
X164094075Y-53287007D01*
X164060000Y-53414174D01*
X164060000Y-53545826D01*
X164094075Y-53672993D01*
X164126988Y-53730000D01*
X163229364Y-53730000D01*
X163286567Y-53943486D01*
X163286570Y-53943492D01*
X163386399Y-54157578D01*
X163521894Y-54351082D01*
X163688917Y-54518105D01*
X163874595Y-54648119D01*
X163918219Y-54702696D01*
X163925412Y-54772195D01*
X163893890Y-54834549D01*
X163874595Y-54851269D01*
X163688594Y-54981508D01*
X163521505Y-55148597D01*
X163385965Y-55342169D01*
X163385964Y-55342171D01*
X163286098Y-55556335D01*
X163286094Y-55556344D01*
X163224938Y-55784586D01*
X163224936Y-55784596D01*
X163204341Y-56019999D01*
X120586694Y-56019999D01*
X120587322Y-55712075D01*
X136591476Y-55712075D01*
X136715462Y-55778348D01*
X136903969Y-55835531D01*
X136903965Y-55835531D01*
X137100000Y-55854838D01*
X137296032Y-55835531D01*
X137484537Y-55778348D01*
X137608523Y-55712076D01*
X137608523Y-55712075D01*
X137100001Y-55203553D01*
X137100000Y-55203553D01*
X136591476Y-55712075D01*
X120587322Y-55712075D01*
X120589080Y-54850000D01*
X136095161Y-54850000D01*
X136114468Y-55046032D01*
X136171651Y-55234537D01*
X136237923Y-55358522D01*
X136746447Y-54850000D01*
X136746447Y-54849999D01*
X136696720Y-54800272D01*
X136850000Y-54800272D01*
X136850000Y-54899728D01*
X136888060Y-54991614D01*
X136958386Y-55061940D01*
X137050272Y-55100000D01*
X137149728Y-55100000D01*
X137241614Y-55061940D01*
X137311940Y-54991614D01*
X137350000Y-54899728D01*
X137350000Y-54849999D01*
X137453553Y-54849999D01*
X137453553Y-54850000D01*
X137962076Y-55358523D01*
X138028348Y-55234537D01*
X138085531Y-55046032D01*
X138104838Y-54850000D01*
X138085531Y-54653967D01*
X138028348Y-54465462D01*
X137962075Y-54341476D01*
X137453553Y-54849999D01*
X137350000Y-54849999D01*
X137350000Y-54800272D01*
X137311940Y-54708386D01*
X137241614Y-54638060D01*
X137149728Y-54600000D01*
X137050272Y-54600000D01*
X136958386Y-54638060D01*
X136888060Y-54708386D01*
X136850000Y-54800272D01*
X136696720Y-54800272D01*
X136237923Y-54341476D01*
X136171649Y-54465466D01*
X136114468Y-54653967D01*
X136095161Y-54850000D01*
X120589080Y-54850000D01*
X120590838Y-53987923D01*
X136591476Y-53987923D01*
X137100000Y-54496447D01*
X137100001Y-54496447D01*
X137608522Y-53987923D01*
X137484537Y-53921651D01*
X137296030Y-53864468D01*
X137296034Y-53864468D01*
X137100000Y-53845161D01*
X136903967Y-53864468D01*
X136715466Y-53921649D01*
X136591476Y-53987923D01*
X120590838Y-53987923D01*
X120591881Y-53476200D01*
X151252140Y-53476200D01*
X151271926Y-53664456D01*
X151271927Y-53664459D01*
X151330418Y-53844477D01*
X151330421Y-53844484D01*
X151425067Y-54008416D01*
X151551729Y-54149088D01*
X151704865Y-54260348D01*
X151704870Y-54260351D01*
X151877792Y-54337342D01*
X151877797Y-54337344D01*
X152062954Y-54376700D01*
X152062955Y-54376700D01*
X152252244Y-54376700D01*
X152252246Y-54376700D01*
X152437403Y-54337344D01*
X152538964Y-54292124D01*
X152608213Y-54282839D01*
X152639833Y-54292123D01*
X152741397Y-54337344D01*
X152926554Y-54376700D01*
X152926555Y-54376700D01*
X153115844Y-54376700D01*
X153115846Y-54376700D01*
X153301003Y-54337344D01*
X153473930Y-54260351D01*
X153627071Y-54149088D01*
X153753733Y-54008416D01*
X153843116Y-53853600D01*
X159308940Y-53853600D01*
X159328726Y-54041856D01*
X159328727Y-54041859D01*
X159387218Y-54221877D01*
X159387221Y-54221884D01*
X159481867Y-54385816D01*
X159581480Y-54496447D01*
X159608529Y-54526488D01*
X159761665Y-54637748D01*
X159761670Y-54637751D01*
X159934592Y-54714742D01*
X159934597Y-54714744D01*
X160119754Y-54754100D01*
X160119755Y-54754100D01*
X160309044Y-54754100D01*
X160309046Y-54754100D01*
X160494203Y-54714744D01*
X160667130Y-54637751D01*
X160820271Y-54526488D01*
X160946933Y-54385816D01*
X161041579Y-54221884D01*
X161100074Y-54041856D01*
X161119860Y-53853600D01*
X161100074Y-53665344D01*
X161041579Y-53485316D01*
X160946933Y-53321384D01*
X160820271Y-53180712D01*
X160809647Y-53172993D01*
X160667134Y-53069451D01*
X160667129Y-53069448D01*
X160494207Y-52992457D01*
X160494202Y-52992455D01*
X160348401Y-52961465D01*
X160309046Y-52953100D01*
X160119754Y-52953100D01*
X160087297Y-52959998D01*
X159934597Y-52992455D01*
X159934592Y-52992457D01*
X159761670Y-53069448D01*
X159761665Y-53069451D01*
X159608529Y-53180711D01*
X159481866Y-53321385D01*
X159387221Y-53485315D01*
X159387218Y-53485322D01*
X159328727Y-53665340D01*
X159328726Y-53665344D01*
X159308940Y-53853600D01*
X153843116Y-53853600D01*
X153848379Y-53844484D01*
X153906874Y-53664456D01*
X153926660Y-53476200D01*
X153906874Y-53287944D01*
X153848379Y-53107916D01*
X153753733Y-52943984D01*
X153627071Y-52803312D01*
X153625846Y-52802422D01*
X153473934Y-52692051D01*
X153473929Y-52692048D01*
X153301007Y-52615057D01*
X153301002Y-52615055D01*
X153146092Y-52582129D01*
X153115846Y-52575700D01*
X152926554Y-52575700D01*
X152896336Y-52582123D01*
X152741397Y-52615055D01*
X152741392Y-52615057D01*
X152639836Y-52660274D01*
X152570586Y-52669559D01*
X152538964Y-52660274D01*
X152437407Y-52615057D01*
X152437402Y-52615055D01*
X152282492Y-52582129D01*
X152252246Y-52575700D01*
X152062954Y-52575700D01*
X152032736Y-52582123D01*
X151877797Y-52615055D01*
X151877792Y-52615057D01*
X151704870Y-52692048D01*
X151704865Y-52692051D01*
X151551729Y-52803311D01*
X151425066Y-52943985D01*
X151330421Y-53107915D01*
X151330418Y-53107922D01*
X151290753Y-53230000D01*
X151271926Y-53287944D01*
X151252140Y-53476200D01*
X120591881Y-53476200D01*
X120600381Y-49307944D01*
X120600500Y-49306482D01*
X120600500Y-49255999D01*
X123972422Y-49255999D01*
X123972422Y-49256000D01*
X123992722Y-49643339D01*
X124005319Y-49722875D01*
X124053398Y-50026433D01*
X124095772Y-50184577D01*
X124153788Y-50401094D01*
X124292787Y-50763197D01*
X124468877Y-51108793D01*
X124680122Y-51434082D01*
X124680124Y-51434084D01*
X124924219Y-51735516D01*
X125198484Y-52009781D01*
X125198488Y-52009784D01*
X125499917Y-52253877D01*
X125825206Y-52465122D01*
X125825211Y-52465125D01*
X126170806Y-52641214D01*
X126532913Y-52780214D01*
X126907567Y-52880602D01*
X127290662Y-52941278D01*
X127656576Y-52960455D01*
X127677999Y-52961578D01*
X127678000Y-52961578D01*
X127678001Y-52961578D01*
X127698301Y-52960514D01*
X128065338Y-52941278D01*
X128448433Y-52880602D01*
X128823087Y-52780214D01*
X129185194Y-52641214D01*
X129530789Y-52465125D01*
X129856084Y-52253876D01*
X130157516Y-52009781D01*
X130431781Y-51735516D01*
X130675876Y-51434084D01*
X130887125Y-51108789D01*
X131063214Y-50763194D01*
X131202214Y-50401087D01*
X131302602Y-50026433D01*
X131363278Y-49643338D01*
X131383578Y-49256000D01*
X131363278Y-48868662D01*
X131302602Y-48485567D01*
X131202214Y-48110913D01*
X131082866Y-47800000D01*
X136144659Y-47800000D01*
X136163975Y-47996129D01*
X136221188Y-48184733D01*
X136314086Y-48358532D01*
X136314090Y-48358539D01*
X136439116Y-48510883D01*
X136591460Y-48635909D01*
X136591467Y-48635913D01*
X136765266Y-48728811D01*
X136765269Y-48728811D01*
X136765273Y-48728814D01*
X136953868Y-48786024D01*
X137150000Y-48805341D01*
X137346132Y-48786024D01*
X137534727Y-48728814D01*
X137708538Y-48635910D01*
X137860883Y-48510883D01*
X137985910Y-48358538D01*
X138032362Y-48271632D01*
X138078811Y-48184733D01*
X138078811Y-48184732D01*
X138078814Y-48184727D01*
X138136024Y-47996132D01*
X138155341Y-47800000D01*
X138136024Y-47603868D01*
X138078814Y-47415273D01*
X138078811Y-47415269D01*
X138078811Y-47415266D01*
X137985913Y-47241467D01*
X137985909Y-47241460D01*
X137860883Y-47089116D01*
X137708539Y-46964090D01*
X137708532Y-46964086D01*
X137534733Y-46871188D01*
X137534727Y-46871186D01*
X137346132Y-46813976D01*
X137346129Y-46813975D01*
X137150000Y-46794659D01*
X136953870Y-46813975D01*
X136765266Y-46871188D01*
X136591467Y-46964086D01*
X136591460Y-46964090D01*
X136439116Y-47089116D01*
X136314090Y-47241460D01*
X136314086Y-47241467D01*
X136221188Y-47415266D01*
X136163975Y-47603870D01*
X136144659Y-47800000D01*
X131082866Y-47800000D01*
X131063214Y-47748806D01*
X130887125Y-47403211D01*
X130886366Y-47402042D01*
X130675877Y-47077917D01*
X130567737Y-46944375D01*
X130431781Y-46776484D01*
X130157516Y-46502219D01*
X129999227Y-46374039D01*
X129856082Y-46258122D01*
X129530793Y-46046877D01*
X129185197Y-45870787D01*
X128823094Y-45731788D01*
X128823087Y-45731786D01*
X128448433Y-45631398D01*
X128448429Y-45631397D01*
X128448428Y-45631397D01*
X128065339Y-45570722D01*
X127678001Y-45550422D01*
X127677999Y-45550422D01*
X127290660Y-45570722D01*
X126907572Y-45631397D01*
X126907570Y-45631397D01*
X126532905Y-45731788D01*
X126170802Y-45870787D01*
X125825206Y-46046877D01*
X125499917Y-46258122D01*
X125198488Y-46502215D01*
X125198480Y-46502222D01*
X124924222Y-46776480D01*
X124924215Y-46776488D01*
X124680122Y-47077917D01*
X124468877Y-47403206D01*
X124292787Y-47748802D01*
X124153788Y-48110905D01*
X124053397Y-48485570D01*
X124053397Y-48485572D01*
X123992722Y-48868660D01*
X123972422Y-49255999D01*
X120600500Y-49255999D01*
X120600500Y-49252196D01*
X120600579Y-49247770D01*
X120606263Y-49088629D01*
X120618686Y-48740806D01*
X120619314Y-48732017D01*
X120673309Y-48229793D01*
X120674568Y-48221040D01*
X120764247Y-47723977D01*
X120766127Y-47715340D01*
X120794578Y-47603870D01*
X120891039Y-47225939D01*
X120893524Y-47217475D01*
X121053033Y-46738229D01*
X121056122Y-46729947D01*
X121083389Y-46664121D01*
X121249410Y-46263309D01*
X121253085Y-46255263D01*
X121333176Y-46095261D01*
X121479178Y-45803586D01*
X121483395Y-45795862D01*
X121741150Y-45361438D01*
X121745904Y-45354041D01*
X122033987Y-44939122D01*
X122039277Y-44932057D01*
X122356207Y-44538772D01*
X122361979Y-44532108D01*
X122706174Y-44162418D01*
X122712418Y-44156174D01*
X123082108Y-43811979D01*
X123088772Y-43806207D01*
X123482057Y-43489277D01*
X123489122Y-43483987D01*
X123904041Y-43195904D01*
X123911438Y-43191150D01*
X124345862Y-42933395D01*
X124353586Y-42929178D01*
X124788294Y-42711579D01*
X124805263Y-42703085D01*
X124813309Y-42699410D01*
X125279958Y-42506117D01*
X125288229Y-42503033D01*
X125767475Y-42343524D01*
X125775939Y-42341039D01*
X126265352Y-42216124D01*
X126273977Y-42214247D01*
X126771049Y-42124566D01*
X126779793Y-42123309D01*
X127282017Y-42069314D01*
X127290806Y-42068686D01*
X127797794Y-42050578D01*
X127802208Y-42050500D01*
X154470512Y-42053180D01*
G37*
%TD.AperFunction*%
%TD*%
%TA.AperFunction,Conductor*%
%TO.N,+5V*%
G36*
X187442392Y-42056494D02*
G01*
X187442459Y-42056501D01*
X187452404Y-42056501D01*
X187497785Y-42056501D01*
X187502211Y-42056580D01*
X188009192Y-42074686D01*
X188017984Y-42075314D01*
X188520217Y-42129310D01*
X188528933Y-42130563D01*
X189026032Y-42220250D01*
X189034640Y-42222123D01*
X189524051Y-42347038D01*
X189532531Y-42349528D01*
X189842354Y-42452647D01*
X190011758Y-42509030D01*
X190020052Y-42512123D01*
X190486685Y-42705409D01*
X190494736Y-42709086D01*
X190831037Y-42877426D01*
X190946400Y-42935173D01*
X190954147Y-42939403D01*
X191388547Y-43197143D01*
X191395970Y-43201914D01*
X191642716Y-43373233D01*
X191810865Y-43489981D01*
X191817951Y-43495286D01*
X192211213Y-43812197D01*
X192217903Y-43817993D01*
X192587573Y-44162167D01*
X192593832Y-44168426D01*
X192938006Y-44538096D01*
X192943802Y-44544786D01*
X193260713Y-44938048D01*
X193266018Y-44945134D01*
X193437573Y-45192220D01*
X193493181Y-45272311D01*
X193554077Y-45360017D01*
X193558860Y-45367459D01*
X193670466Y-45555562D01*
X193816587Y-45801835D01*
X193820829Y-45809604D01*
X194046913Y-46261263D01*
X194050590Y-46269314D01*
X194194712Y-46617255D01*
X194204151Y-46664630D01*
X194245204Y-111570101D01*
X194235765Y-111617632D01*
X194050590Y-112064685D01*
X194046913Y-112072736D01*
X193820829Y-112524395D01*
X193816587Y-112532164D01*
X193558863Y-112966535D01*
X193554077Y-112973982D01*
X193266018Y-113388865D01*
X193260713Y-113395951D01*
X192943802Y-113789213D01*
X192938006Y-113795903D01*
X192593832Y-114165573D01*
X192587573Y-114171832D01*
X192217903Y-114516006D01*
X192211213Y-114521802D01*
X191817951Y-114838713D01*
X191810865Y-114844018D01*
X191395982Y-115132077D01*
X191388535Y-115136863D01*
X190954164Y-115394587D01*
X190946395Y-115398829D01*
X190494736Y-115624913D01*
X190486685Y-115628590D01*
X190020052Y-115821876D01*
X190011758Y-115824969D01*
X189532537Y-115984469D01*
X189524044Y-115986963D01*
X189034660Y-116111871D01*
X189026011Y-116113753D01*
X188528956Y-116203432D01*
X188520194Y-116204692D01*
X188018002Y-116258683D01*
X188009173Y-116259314D01*
X187502211Y-116277420D01*
X187497785Y-116277499D01*
X153449319Y-116277499D01*
X153382280Y-116257814D01*
X153336525Y-116205010D01*
X153325319Y-116153486D01*
X153325324Y-116111871D01*
X153325679Y-112774487D01*
X153345371Y-112707449D01*
X153398180Y-112661700D01*
X153449679Y-112650500D01*
X153554957Y-112650500D01*
X153554958Y-112650499D01*
X153622104Y-112642934D01*
X153689249Y-112635369D01*
X153689252Y-112635368D01*
X153689255Y-112635368D01*
X153859522Y-112575789D01*
X154012262Y-112479816D01*
X154111737Y-112380340D01*
X154173056Y-112346858D01*
X154242748Y-112351842D01*
X154264205Y-112362297D01*
X154448371Y-112475154D01*
X154459629Y-112479817D01*
X154688390Y-112574573D01*
X154941006Y-112635221D01*
X155200000Y-112655604D01*
X155458994Y-112635221D01*
X155711610Y-112574573D01*
X155951628Y-112475154D01*
X156173140Y-112339412D01*
X156370689Y-112170689D01*
X156539412Y-111973140D01*
X156675154Y-111751628D01*
X156774573Y-111511610D01*
X156835221Y-111258994D01*
X156855604Y-111000000D01*
X156835221Y-110741006D01*
X156774573Y-110488390D01*
X156675585Y-110249412D01*
X156675156Y-110248376D01*
X156587319Y-110105039D01*
X158009500Y-110105039D01*
X158009500Y-111894960D01*
X158024630Y-112029249D01*
X158024631Y-112029254D01*
X158084211Y-112199523D01*
X158144928Y-112296153D01*
X158180184Y-112352262D01*
X158307738Y-112479816D01*
X158307740Y-112479817D01*
X158458542Y-112574573D01*
X158460478Y-112575789D01*
X158630325Y-112635221D01*
X158630745Y-112635368D01*
X158630750Y-112635369D01*
X158721246Y-112645565D01*
X158765040Y-112650499D01*
X158765043Y-112650500D01*
X158765046Y-112650500D01*
X160554957Y-112650500D01*
X160554958Y-112650499D01*
X160622104Y-112642934D01*
X160689249Y-112635369D01*
X160689252Y-112635368D01*
X160689255Y-112635368D01*
X160859522Y-112575789D01*
X161012262Y-112479816D01*
X161111737Y-112380340D01*
X161173056Y-112346858D01*
X161242748Y-112351842D01*
X161264205Y-112362297D01*
X161448371Y-112475154D01*
X161459629Y-112479817D01*
X161688390Y-112574573D01*
X161941006Y-112635221D01*
X162200000Y-112655604D01*
X162458994Y-112635221D01*
X162711610Y-112574573D01*
X162951628Y-112475154D01*
X163173140Y-112339412D01*
X163370689Y-112170689D01*
X163539412Y-111973140D01*
X163675154Y-111751628D01*
X163774573Y-111511610D01*
X163835221Y-111258994D01*
X163855604Y-111000000D01*
X163835221Y-110741006D01*
X163774573Y-110488390D01*
X163675585Y-110249412D01*
X163675156Y-110248376D01*
X163587319Y-110105039D01*
X163539412Y-110026860D01*
X163370689Y-109829311D01*
X163173140Y-109660588D01*
X162951628Y-109524846D01*
X162951627Y-109524845D01*
X162951623Y-109524843D01*
X162785627Y-109456086D01*
X162711610Y-109425427D01*
X162711611Y-109425427D01*
X162573921Y-109392370D01*
X162458994Y-109364779D01*
X162458992Y-109364778D01*
X162458991Y-109364778D01*
X162200000Y-109344396D01*
X161941009Y-109364778D01*
X161688389Y-109425427D01*
X161448373Y-109524845D01*
X161264204Y-109637703D01*
X161196759Y-109655947D01*
X161130156Y-109634830D01*
X161111734Y-109619656D01*
X161012262Y-109520184D01*
X160859523Y-109424211D01*
X160689254Y-109364631D01*
X160689249Y-109364630D01*
X160554960Y-109349500D01*
X160554954Y-109349500D01*
X158765046Y-109349500D01*
X158765039Y-109349500D01*
X158630750Y-109364630D01*
X158630745Y-109364631D01*
X158460476Y-109424211D01*
X158307737Y-109520184D01*
X158180184Y-109647737D01*
X158084211Y-109800476D01*
X158024631Y-109970745D01*
X158024630Y-109970750D01*
X158009500Y-110105039D01*
X156587319Y-110105039D01*
X156539412Y-110026860D01*
X156370689Y-109829311D01*
X156173140Y-109660588D01*
X155951628Y-109524846D01*
X155951627Y-109524845D01*
X155951623Y-109524843D01*
X155785627Y-109456086D01*
X155711610Y-109425427D01*
X155711611Y-109425427D01*
X155573921Y-109392370D01*
X155458994Y-109364779D01*
X155458992Y-109364778D01*
X155458991Y-109364778D01*
X155200000Y-109344396D01*
X154941009Y-109364778D01*
X154688389Y-109425427D01*
X154448373Y-109524845D01*
X154264204Y-109637703D01*
X154196759Y-109655947D01*
X154130156Y-109634830D01*
X154111734Y-109619656D01*
X154012262Y-109520184D01*
X153859523Y-109424211D01*
X153689254Y-109364631D01*
X153689249Y-109364630D01*
X153554960Y-109349500D01*
X153554954Y-109349500D01*
X153450057Y-109349500D01*
X153383018Y-109329815D01*
X153337263Y-109277011D01*
X153326057Y-109225487D01*
X153326091Y-108910000D01*
X177219396Y-108910000D01*
X177239778Y-109168990D01*
X177300427Y-109421610D01*
X177399843Y-109661623D01*
X177399845Y-109661627D01*
X177399846Y-109661628D01*
X177535588Y-109883140D01*
X177704311Y-110080689D01*
X177901860Y-110249412D01*
X178123372Y-110385154D01*
X178123374Y-110385154D01*
X178123376Y-110385156D01*
X178184693Y-110410554D01*
X178363390Y-110484573D01*
X178616006Y-110545221D01*
X178875000Y-110565604D01*
X179133994Y-110545221D01*
X179386610Y-110484573D01*
X179626628Y-110385154D01*
X179848140Y-110249412D01*
X180045689Y-110080689D01*
X180214412Y-109883140D01*
X180350154Y-109661628D01*
X180449573Y-109421610D01*
X180502777Y-109200000D01*
X183616675Y-109200000D01*
X183635962Y-109592591D01*
X183635962Y-109592597D01*
X183635963Y-109592599D01*
X183652559Y-109704479D01*
X183692055Y-109970745D01*
X183693637Y-109981406D01*
X183789143Y-110362684D01*
X183921561Y-110732770D01*
X183921562Y-110732772D01*
X184089620Y-111088100D01*
X184291692Y-111425236D01*
X184291694Y-111425239D01*
X184434382Y-111617632D01*
X184525846Y-111740956D01*
X184789807Y-112032192D01*
X185080345Y-112295520D01*
X185081049Y-112296158D01*
X185396761Y-112530306D01*
X185470616Y-112574573D01*
X185733899Y-112732379D01*
X185733902Y-112732380D01*
X185733903Y-112732381D01*
X186089228Y-112900438D01*
X186459316Y-113032857D01*
X186840600Y-113128364D01*
X187229409Y-113186038D01*
X187622000Y-113205325D01*
X188014591Y-113186038D01*
X188403400Y-113128364D01*
X188784684Y-113032857D01*
X189154772Y-112900438D01*
X189510097Y-112732381D01*
X189847239Y-112530306D01*
X190162951Y-112296158D01*
X190454192Y-112032192D01*
X190718158Y-111740951D01*
X190952306Y-111425239D01*
X191154381Y-111088097D01*
X191322438Y-110732772D01*
X191454857Y-110362684D01*
X191550364Y-109981400D01*
X191608038Y-109592591D01*
X191627325Y-109200000D01*
X191608038Y-108807409D01*
X191550364Y-108418600D01*
X191454857Y-108037316D01*
X191322438Y-107667228D01*
X191154381Y-107311903D01*
X190952306Y-106974761D01*
X190718158Y-106659049D01*
X190718153Y-106659043D01*
X190454192Y-106367807D01*
X190162956Y-106103846D01*
X189847236Y-105869692D01*
X189510100Y-105667620D01*
X189154772Y-105499562D01*
X189154770Y-105499561D01*
X188784684Y-105367143D01*
X188403406Y-105271637D01*
X188403401Y-105271636D01*
X188403400Y-105271636D01*
X188259256Y-105250254D01*
X188014599Y-105213963D01*
X188014597Y-105213962D01*
X188014591Y-105213962D01*
X187622000Y-105194675D01*
X187229409Y-105213962D01*
X187229403Y-105213962D01*
X187229400Y-105213963D01*
X186840593Y-105271637D01*
X186459315Y-105367143D01*
X186089229Y-105499561D01*
X186089227Y-105499562D01*
X185733899Y-105667620D01*
X185396763Y-105869692D01*
X185081043Y-106103846D01*
X184789807Y-106367807D01*
X184525846Y-106659043D01*
X184291692Y-106974763D01*
X184089620Y-107311899D01*
X183921562Y-107667227D01*
X183921561Y-107667229D01*
X183789143Y-108037315D01*
X183693637Y-108418593D01*
X183659162Y-108651009D01*
X183635962Y-108807409D01*
X183616675Y-109200000D01*
X180502777Y-109200000D01*
X180510221Y-109168994D01*
X180530604Y-108910000D01*
X180510221Y-108651006D01*
X180449573Y-108398390D01*
X180350154Y-108158372D01*
X180214412Y-107936860D01*
X180045689Y-107739311D01*
X179848140Y-107570588D01*
X179626628Y-107434846D01*
X179626627Y-107434845D01*
X179626623Y-107434843D01*
X179460627Y-107366086D01*
X179386610Y-107335427D01*
X179386611Y-107335427D01*
X179248921Y-107302370D01*
X179133994Y-107274779D01*
X179133992Y-107274778D01*
X179133991Y-107274778D01*
X178875000Y-107254396D01*
X178616009Y-107274778D01*
X178363389Y-107335427D01*
X178123376Y-107434843D01*
X177901859Y-107570588D01*
X177704311Y-107739311D01*
X177535588Y-107936859D01*
X177399843Y-108158376D01*
X177300427Y-108398389D01*
X177239778Y-108651009D01*
X177219396Y-108910000D01*
X153326091Y-108910000D01*
X153326523Y-104848934D01*
X153346215Y-104781896D01*
X153399024Y-104736147D01*
X153450522Y-104724947D01*
X153703581Y-104724947D01*
X153748375Y-104733320D01*
X153777575Y-104744632D01*
X153898860Y-104791618D01*
X154117557Y-104832500D01*
X154117559Y-104832500D01*
X154340041Y-104832500D01*
X154340043Y-104832500D01*
X154558740Y-104791618D01*
X154709222Y-104733320D01*
X154754014Y-104724947D01*
X157513585Y-104724947D01*
X157558377Y-104733320D01*
X157708860Y-104791618D01*
X157927557Y-104832500D01*
X157927559Y-104832500D01*
X158150041Y-104832500D01*
X158150043Y-104832500D01*
X158368740Y-104791618D01*
X158519222Y-104733320D01*
X158564014Y-104724947D01*
X169028735Y-104724947D01*
X169095773Y-104744632D01*
X169099828Y-104747352D01*
X169147266Y-104780568D01*
X169353504Y-104876739D01*
X169573308Y-104935635D01*
X169735230Y-104949801D01*
X169799998Y-104955468D01*
X169800000Y-104955468D01*
X169800002Y-104955468D01*
X169856673Y-104950509D01*
X170026692Y-104935635D01*
X170246496Y-104876739D01*
X170452734Y-104780568D01*
X170500143Y-104747371D01*
X170566346Y-104725045D01*
X170571235Y-104724947D01*
X173923082Y-104724947D01*
X173990119Y-104744632D01*
X174035874Y-104797436D01*
X174045818Y-104866594D01*
X174034080Y-104904219D01*
X173932975Y-105107261D01*
X173932969Y-105107276D01*
X173872085Y-105321262D01*
X173872084Y-105321264D01*
X173851557Y-105542799D01*
X173851557Y-105542800D01*
X173872084Y-105764335D01*
X173872085Y-105764337D01*
X173932969Y-105978323D01*
X173932975Y-105978338D01*
X174032138Y-106177483D01*
X174032143Y-106177491D01*
X174166220Y-106355038D01*
X174330637Y-106504923D01*
X174330639Y-106504925D01*
X174519795Y-106622045D01*
X174519796Y-106622045D01*
X174519799Y-106622047D01*
X174727260Y-106702418D01*
X174945957Y-106743300D01*
X174945959Y-106743300D01*
X175168441Y-106743300D01*
X175168443Y-106743300D01*
X175387140Y-106702418D01*
X175594601Y-106622047D01*
X175783762Y-106504924D01*
X175948181Y-106355036D01*
X176082258Y-106177489D01*
X176181429Y-105978328D01*
X176242315Y-105764336D01*
X176262843Y-105542800D01*
X176258836Y-105499562D01*
X176242315Y-105321264D01*
X176242314Y-105321262D01*
X176228194Y-105271636D01*
X176181429Y-105107272D01*
X176082258Y-104908111D01*
X176080320Y-104904219D01*
X176068059Y-104835434D01*
X176094932Y-104770939D01*
X176152407Y-104731211D01*
X176191315Y-104724947D01*
X182800730Y-104724948D01*
X182760962Y-95674261D01*
X182765692Y-95639798D01*
X182785115Y-95571536D01*
X182805643Y-95350000D01*
X182791743Y-95199998D01*
X185694532Y-95199998D01*
X185694532Y-95200001D01*
X185714364Y-95426686D01*
X185714366Y-95426697D01*
X185773258Y-95646488D01*
X185773261Y-95646497D01*
X185869431Y-95852732D01*
X185869432Y-95852734D01*
X185999954Y-96039141D01*
X186160858Y-96200045D01*
X186160861Y-96200047D01*
X186347266Y-96330568D01*
X186553504Y-96426739D01*
X186773308Y-96485635D01*
X186935230Y-96499801D01*
X186999998Y-96505468D01*
X187000000Y-96505468D01*
X187000002Y-96505468D01*
X187056673Y-96500509D01*
X187226692Y-96485635D01*
X187446496Y-96426739D01*
X187652734Y-96330568D01*
X187839139Y-96200047D01*
X188000047Y-96039139D01*
X188130568Y-95852734D01*
X188226739Y-95646496D01*
X188285635Y-95426692D01*
X188302634Y-95232384D01*
X188305468Y-95200001D01*
X188305468Y-95199998D01*
X188292349Y-95050054D01*
X188285635Y-94973308D01*
X188226739Y-94753504D01*
X188130568Y-94547266D01*
X188000047Y-94360861D01*
X188000045Y-94360858D01*
X187839141Y-94199954D01*
X187652734Y-94069432D01*
X187652732Y-94069431D01*
X187446497Y-93973261D01*
X187446488Y-93973258D01*
X187226697Y-93914366D01*
X187226693Y-93914365D01*
X187226692Y-93914365D01*
X187226691Y-93914364D01*
X187226686Y-93914364D01*
X187000002Y-93894532D01*
X186999998Y-93894532D01*
X186773313Y-93914364D01*
X186773302Y-93914366D01*
X186553511Y-93973258D01*
X186553502Y-93973261D01*
X186347267Y-94069431D01*
X186347265Y-94069432D01*
X186160858Y-94199954D01*
X185999954Y-94360858D01*
X185869432Y-94547265D01*
X185869431Y-94547267D01*
X185773261Y-94753502D01*
X185773258Y-94753511D01*
X185714366Y-94973302D01*
X185714364Y-94973313D01*
X185694532Y-95199998D01*
X182791743Y-95199998D01*
X182785115Y-95128464D01*
X182762804Y-95050051D01*
X182758072Y-95016669D01*
X182756541Y-94668088D01*
X182775930Y-94600967D01*
X182828532Y-94554980D01*
X182835716Y-94551932D01*
X182860201Y-94542447D01*
X183049362Y-94425324D01*
X183213781Y-94275436D01*
X183347858Y-94097889D01*
X183447029Y-93898728D01*
X183507915Y-93684736D01*
X183528443Y-93463200D01*
X183507915Y-93241664D01*
X183447029Y-93027672D01*
X183428127Y-92989711D01*
X183347861Y-92828516D01*
X183347855Y-92828507D01*
X183336982Y-92814109D01*
X183312289Y-92748748D01*
X183323512Y-92691400D01*
X183322157Y-92690876D01*
X183324226Y-92685532D01*
X183324229Y-92685528D01*
X183385115Y-92471536D01*
X183405643Y-92250000D01*
X183404403Y-92236623D01*
X183385115Y-92028464D01*
X183385114Y-92028462D01*
X183376051Y-91996610D01*
X183324229Y-91814472D01*
X183300271Y-91766360D01*
X183288011Y-91697575D01*
X183314884Y-91633080D01*
X183366476Y-91595463D01*
X183537401Y-91529247D01*
X183726562Y-91412124D01*
X183890981Y-91262236D01*
X184025058Y-91084689D01*
X184124229Y-90885528D01*
X184185115Y-90671536D01*
X184192667Y-90590039D01*
X185224500Y-90590039D01*
X185224500Y-92379960D01*
X185239630Y-92514249D01*
X185239631Y-92514254D01*
X185299211Y-92684523D01*
X185391788Y-92831858D01*
X185395184Y-92837262D01*
X185522738Y-92964816D01*
X185522740Y-92964817D01*
X185673542Y-93059573D01*
X185675478Y-93060789D01*
X185845325Y-93120221D01*
X185845745Y-93120368D01*
X185845750Y-93120369D01*
X185936246Y-93130565D01*
X185980040Y-93135499D01*
X185980043Y-93135500D01*
X185980046Y-93135500D01*
X187769957Y-93135500D01*
X187769958Y-93135499D01*
X187837104Y-93127934D01*
X187904249Y-93120369D01*
X187904252Y-93120368D01*
X187904255Y-93120368D01*
X188074522Y-93060789D01*
X188227262Y-92964816D01*
X188326737Y-92865340D01*
X188388056Y-92831858D01*
X188457748Y-92836842D01*
X188479205Y-92847297D01*
X188663371Y-92960154D01*
X188716924Y-92982336D01*
X188903390Y-93059573D01*
X189156006Y-93120221D01*
X189415000Y-93140604D01*
X189673994Y-93120221D01*
X189926610Y-93059573D01*
X190166628Y-92960154D01*
X190388140Y-92824412D01*
X190585689Y-92655689D01*
X190754412Y-92458140D01*
X190890154Y-92236628D01*
X190989573Y-91996610D01*
X191050221Y-91743994D01*
X191070604Y-91485000D01*
X191050221Y-91226006D01*
X190989573Y-90973390D01*
X190896225Y-90748028D01*
X190890156Y-90733376D01*
X190852261Y-90671537D01*
X190754412Y-90511860D01*
X190585689Y-90314311D01*
X190388140Y-90145588D01*
X190166628Y-90009846D01*
X190166627Y-90009845D01*
X190166623Y-90009843D01*
X190000627Y-89941086D01*
X189926610Y-89910427D01*
X189926611Y-89910427D01*
X189788921Y-89877370D01*
X189673994Y-89849779D01*
X189673992Y-89849778D01*
X189673991Y-89849778D01*
X189415000Y-89829396D01*
X189156009Y-89849778D01*
X188903389Y-89910427D01*
X188663373Y-90009845D01*
X188479204Y-90122703D01*
X188411759Y-90140947D01*
X188345156Y-90119830D01*
X188326734Y-90104656D01*
X188227262Y-90005184D01*
X188074523Y-89909211D01*
X187904254Y-89849631D01*
X187904249Y-89849630D01*
X187769960Y-89834500D01*
X187769954Y-89834500D01*
X185980046Y-89834500D01*
X185980039Y-89834500D01*
X185845750Y-89849630D01*
X185845745Y-89849631D01*
X185675476Y-89909211D01*
X185522737Y-90005184D01*
X185395184Y-90132737D01*
X185299211Y-90285476D01*
X185239631Y-90455745D01*
X185239630Y-90455750D01*
X185224500Y-90590039D01*
X184192667Y-90590039D01*
X184205643Y-90450000D01*
X184196330Y-90349500D01*
X184185115Y-90228464D01*
X184185114Y-90228462D01*
X184183094Y-90221364D01*
X184124229Y-90014472D01*
X184121924Y-90009843D01*
X184025061Y-89815316D01*
X184025056Y-89815308D01*
X183890979Y-89637761D01*
X183726562Y-89487876D01*
X183726560Y-89487874D01*
X183537404Y-89370754D01*
X183537398Y-89370752D01*
X183329940Y-89290382D01*
X183111243Y-89249500D01*
X182888757Y-89249500D01*
X182888748Y-89249500D01*
X182878981Y-89251326D01*
X182809467Y-89244290D01*
X182754791Y-89200789D01*
X182732314Y-89134634D01*
X182732207Y-89130046D01*
X182716891Y-85644208D01*
X182736280Y-85577087D01*
X182788882Y-85531100D01*
X182857997Y-85520853D01*
X182921679Y-85549598D01*
X182951888Y-85588394D01*
X182974935Y-85634678D01*
X182974943Y-85634691D01*
X183109018Y-85812235D01*
X183144026Y-85844149D01*
X183180307Y-85903861D01*
X183178653Y-85969449D01*
X183179739Y-85969758D01*
X183117285Y-86189261D01*
X183117284Y-86189264D01*
X183096757Y-86410799D01*
X183096757Y-86410800D01*
X183117284Y-86632335D01*
X183117285Y-86632337D01*
X183178169Y-86846323D01*
X183178175Y-86846338D01*
X183277338Y-87045483D01*
X183277343Y-87045491D01*
X183366851Y-87164018D01*
X183397723Y-87204900D01*
X183411420Y-87223037D01*
X183434000Y-87243621D01*
X183470282Y-87303331D01*
X183468523Y-87373179D01*
X183449417Y-87409985D01*
X183378947Y-87503302D01*
X183378938Y-87503316D01*
X183279775Y-87702461D01*
X183279769Y-87702476D01*
X183218885Y-87916462D01*
X183218884Y-87916464D01*
X183198357Y-88137999D01*
X183198357Y-88138000D01*
X183218884Y-88359535D01*
X183218885Y-88359537D01*
X183279769Y-88573523D01*
X183279775Y-88573538D01*
X183378938Y-88772683D01*
X183378943Y-88772691D01*
X183513020Y-88950238D01*
X183677437Y-89100123D01*
X183677439Y-89100125D01*
X183866595Y-89217245D01*
X183866596Y-89217245D01*
X183866599Y-89217247D01*
X184074060Y-89297618D01*
X184292757Y-89338500D01*
X184292759Y-89338500D01*
X184515241Y-89338500D01*
X184515243Y-89338500D01*
X184733940Y-89297618D01*
X184941401Y-89217247D01*
X185130562Y-89100124D01*
X185294981Y-88950236D01*
X185424917Y-88778173D01*
X185481026Y-88736537D01*
X185523871Y-88728900D01*
X185531241Y-88728900D01*
X185531243Y-88728900D01*
X185749940Y-88688018D01*
X185957401Y-88607647D01*
X186146562Y-88490524D01*
X186310981Y-88340636D01*
X186445058Y-88163089D01*
X186544229Y-87963928D01*
X186605115Y-87749936D01*
X186625643Y-87528400D01*
X186605115Y-87306864D01*
X186544229Y-87092872D01*
X186544224Y-87092861D01*
X186445061Y-86893716D01*
X186445056Y-86893708D01*
X186310979Y-86716161D01*
X186146562Y-86566276D01*
X186146560Y-86566274D01*
X185957404Y-86449154D01*
X185957398Y-86449152D01*
X185749940Y-86368782D01*
X185591861Y-86339231D01*
X185529581Y-86307563D01*
X185494308Y-86247251D01*
X185491177Y-86228791D01*
X185487515Y-86189264D01*
X185426629Y-85975272D01*
X185424769Y-85971536D01*
X185327461Y-85776116D01*
X185327456Y-85776108D01*
X185260826Y-85687876D01*
X185193381Y-85598564D01*
X185158371Y-85566648D01*
X185122092Y-85506940D01*
X185123744Y-85441351D01*
X185122660Y-85441043D01*
X185133690Y-85402274D01*
X185185115Y-85221536D01*
X185205643Y-85000000D01*
X185199886Y-84937876D01*
X185185115Y-84778464D01*
X185185114Y-84778462D01*
X185174279Y-84740382D01*
X185124229Y-84564472D01*
X185124224Y-84564461D01*
X185025061Y-84365316D01*
X185025056Y-84365308D01*
X184890979Y-84187761D01*
X184726562Y-84037876D01*
X184726560Y-84037874D01*
X184537404Y-83920754D01*
X184537398Y-83920752D01*
X184329940Y-83840382D01*
X184111243Y-83799500D01*
X184111241Y-83799500D01*
X184053799Y-83799500D01*
X183986760Y-83779815D01*
X183941005Y-83727011D01*
X183930328Y-83686941D01*
X183912715Y-83496864D01*
X183912714Y-83496862D01*
X183907479Y-83478464D01*
X183851829Y-83282872D01*
X183842667Y-83264472D01*
X183752661Y-83083716D01*
X183752656Y-83083708D01*
X183677510Y-82984199D01*
X189470357Y-82984199D01*
X189470357Y-82984200D01*
X189490884Y-83205735D01*
X189490885Y-83205737D01*
X189551769Y-83419723D01*
X189551775Y-83419738D01*
X189650938Y-83618883D01*
X189650943Y-83618891D01*
X189785020Y-83796438D01*
X189949437Y-83946323D01*
X189949439Y-83946325D01*
X190138595Y-84063445D01*
X190138596Y-84063445D01*
X190138599Y-84063447D01*
X190346060Y-84143818D01*
X190564757Y-84184700D01*
X190564759Y-84184700D01*
X190787241Y-84184700D01*
X190787243Y-84184700D01*
X191005940Y-84143818D01*
X191213401Y-84063447D01*
X191402562Y-83946324D01*
X191566981Y-83796436D01*
X191701058Y-83618889D01*
X191800229Y-83419728D01*
X191861115Y-83205736D01*
X191881643Y-82984200D01*
X191861115Y-82762664D01*
X191800229Y-82548672D01*
X191799359Y-82546924D01*
X191701061Y-82349516D01*
X191701056Y-82349508D01*
X191566979Y-82171961D01*
X191402562Y-82022076D01*
X191402560Y-82022074D01*
X191213404Y-81904954D01*
X191213398Y-81904952D01*
X191005940Y-81824582D01*
X190787243Y-81783700D01*
X190564757Y-81783700D01*
X190346060Y-81824582D01*
X190214864Y-81875407D01*
X190138601Y-81904952D01*
X190138595Y-81904954D01*
X189949439Y-82022074D01*
X189949437Y-82022076D01*
X189785020Y-82171961D01*
X189650943Y-82349508D01*
X189650938Y-82349516D01*
X189551775Y-82548661D01*
X189551769Y-82548676D01*
X189490885Y-82762662D01*
X189490884Y-82762664D01*
X189470357Y-82984199D01*
X183677510Y-82984199D01*
X183618579Y-82906161D01*
X183454162Y-82756276D01*
X183454160Y-82756274D01*
X183265004Y-82639154D01*
X183264998Y-82639152D01*
X183057540Y-82558782D01*
X182838843Y-82517900D01*
X182826611Y-82517900D01*
X182759572Y-82498215D01*
X182713817Y-82445411D01*
X182702612Y-82394445D01*
X182701634Y-82171961D01*
X182700000Y-81800000D01*
X182699999Y-81800000D01*
X170474000Y-81800000D01*
X170406961Y-81780315D01*
X170361206Y-81727511D01*
X170350000Y-81676000D01*
X170350000Y-76499998D01*
X173994532Y-76499998D01*
X173994532Y-76500001D01*
X174014364Y-76726686D01*
X174014366Y-76726697D01*
X174073258Y-76946488D01*
X174073261Y-76946497D01*
X174169431Y-77152732D01*
X174169432Y-77152734D01*
X174299954Y-77339141D01*
X174460858Y-77500045D01*
X174460861Y-77500047D01*
X174647266Y-77630568D01*
X174853504Y-77726739D01*
X174853509Y-77726740D01*
X174853511Y-77726741D01*
X174862864Y-77729247D01*
X175073308Y-77785635D01*
X175235230Y-77799801D01*
X175299998Y-77805468D01*
X175300000Y-77805468D01*
X175300002Y-77805468D01*
X175356673Y-77800509D01*
X175526692Y-77785635D01*
X175746496Y-77726739D01*
X175952734Y-77630568D01*
X176139139Y-77500047D01*
X176300047Y-77339139D01*
X176430568Y-77152734D01*
X176526739Y-76946496D01*
X176585635Y-76726692D01*
X176592345Y-76649999D01*
X184854857Y-76649999D01*
X184854857Y-76650000D01*
X184875384Y-76871535D01*
X184875385Y-76871537D01*
X184936269Y-77085523D01*
X184936275Y-77085538D01*
X185035438Y-77284683D01*
X185035443Y-77284691D01*
X185169520Y-77462238D01*
X185333937Y-77612123D01*
X185333939Y-77612125D01*
X185523095Y-77729245D01*
X185523096Y-77729245D01*
X185523099Y-77729247D01*
X185730560Y-77809618D01*
X185949257Y-77850500D01*
X185949259Y-77850500D01*
X186171741Y-77850500D01*
X186171743Y-77850500D01*
X186390440Y-77809618D01*
X186597901Y-77729247D01*
X186787062Y-77612124D01*
X186939985Y-77472716D01*
X186951479Y-77462238D01*
X187010760Y-77383738D01*
X187085558Y-77284689D01*
X187184729Y-77085528D01*
X187223802Y-76948199D01*
X188170357Y-76948199D01*
X188170357Y-76948200D01*
X188190884Y-77169735D01*
X188190885Y-77169737D01*
X188251769Y-77383723D01*
X188251775Y-77383738D01*
X188350938Y-77582883D01*
X188350943Y-77582891D01*
X188485020Y-77760438D01*
X188649437Y-77910323D01*
X188649439Y-77910325D01*
X188838595Y-78027445D01*
X188838596Y-78027445D01*
X188838599Y-78027447D01*
X189046060Y-78107818D01*
X189264757Y-78148700D01*
X189361143Y-78148700D01*
X189428182Y-78168385D01*
X189473937Y-78221189D01*
X189484614Y-78261259D01*
X189490884Y-78328935D01*
X189490885Y-78328937D01*
X189551769Y-78542923D01*
X189551775Y-78542938D01*
X189650938Y-78742083D01*
X189650943Y-78742091D01*
X189785020Y-78919638D01*
X189949437Y-79069523D01*
X189954014Y-79072980D01*
X189953091Y-79074201D01*
X189994862Y-79120805D01*
X190005963Y-79189788D01*
X189978008Y-79253821D01*
X189953644Y-79274931D01*
X189954014Y-79275420D01*
X189949437Y-79278876D01*
X189785020Y-79428761D01*
X189650943Y-79606308D01*
X189650938Y-79606316D01*
X189551775Y-79805461D01*
X189551769Y-79805476D01*
X189490885Y-80019462D01*
X189490884Y-80019464D01*
X189470357Y-80240999D01*
X189470357Y-80241000D01*
X189490884Y-80462535D01*
X189490885Y-80462537D01*
X189551769Y-80676523D01*
X189551775Y-80676538D01*
X189650938Y-80875683D01*
X189650943Y-80875691D01*
X189785020Y-81053238D01*
X189949437Y-81203123D01*
X189949439Y-81203125D01*
X190138595Y-81320245D01*
X190138596Y-81320245D01*
X190138599Y-81320247D01*
X190346060Y-81400618D01*
X190564757Y-81441500D01*
X190564759Y-81441500D01*
X190787241Y-81441500D01*
X190787243Y-81441500D01*
X191005940Y-81400618D01*
X191213401Y-81320247D01*
X191402562Y-81203124D01*
X191566981Y-81053236D01*
X191701058Y-80875689D01*
X191800229Y-80676528D01*
X191861115Y-80462536D01*
X191881643Y-80241000D01*
X191861115Y-80019464D01*
X191800229Y-79805472D01*
X191800224Y-79805461D01*
X191701061Y-79606316D01*
X191701056Y-79606308D01*
X191566979Y-79428761D01*
X191402562Y-79278876D01*
X191397986Y-79275420D01*
X191398909Y-79274196D01*
X191357143Y-79227608D01*
X191346034Y-79158627D01*
X191373982Y-79094591D01*
X191398356Y-79073470D01*
X191397986Y-79072980D01*
X191402554Y-79069528D01*
X191402562Y-79069524D01*
X191566981Y-78919636D01*
X191701058Y-78742089D01*
X191800229Y-78542928D01*
X191861115Y-78328936D01*
X191881643Y-78107400D01*
X191861115Y-77885864D01*
X191800229Y-77671872D01*
X191779662Y-77630568D01*
X191701061Y-77472716D01*
X191701056Y-77472708D01*
X191566979Y-77295161D01*
X191402562Y-77145276D01*
X191402560Y-77145274D01*
X191213404Y-77028154D01*
X191213398Y-77028152D01*
X191005940Y-76947782D01*
X190787243Y-76906900D01*
X190787241Y-76906900D01*
X190690857Y-76906900D01*
X190623818Y-76887215D01*
X190578063Y-76834411D01*
X190567386Y-76794341D01*
X190561118Y-76726697D01*
X190561115Y-76726664D01*
X190545514Y-76671832D01*
X190546102Y-76601966D01*
X190584369Y-76543508D01*
X190648166Y-76515018D01*
X190664781Y-76513900D01*
X190736441Y-76513900D01*
X190736443Y-76513900D01*
X190955140Y-76473018D01*
X191162601Y-76392647D01*
X191351762Y-76275524D01*
X191516181Y-76125636D01*
X191650258Y-75948089D01*
X191749429Y-75748928D01*
X191810315Y-75534936D01*
X191830843Y-75313400D01*
X191810315Y-75091864D01*
X191749429Y-74877872D01*
X191749424Y-74877861D01*
X191650261Y-74678716D01*
X191650256Y-74678708D01*
X191516179Y-74501161D01*
X191351762Y-74351276D01*
X191351760Y-74351274D01*
X191162604Y-74234154D01*
X191162598Y-74234152D01*
X190955140Y-74153782D01*
X190736443Y-74112900D01*
X190513957Y-74112900D01*
X190295260Y-74153782D01*
X190164064Y-74204607D01*
X190087801Y-74234152D01*
X190087795Y-74234154D01*
X189898639Y-74351274D01*
X189898637Y-74351276D01*
X189734220Y-74501161D01*
X189600143Y-74678708D01*
X189600138Y-74678716D01*
X189500975Y-74877861D01*
X189500969Y-74877876D01*
X189440085Y-75091862D01*
X189440084Y-75091864D01*
X189419557Y-75313399D01*
X189419557Y-75313400D01*
X189440084Y-75534931D01*
X189440084Y-75534933D01*
X189440085Y-75534936D01*
X189455685Y-75589767D01*
X189455098Y-75659634D01*
X189416831Y-75718092D01*
X189353034Y-75746582D01*
X189336419Y-75747700D01*
X189264757Y-75747700D01*
X189046060Y-75788582D01*
X188934107Y-75831953D01*
X188838601Y-75868952D01*
X188838595Y-75868954D01*
X188649439Y-75986074D01*
X188649437Y-75986076D01*
X188485020Y-76135961D01*
X188350943Y-76313508D01*
X188350938Y-76313516D01*
X188251775Y-76512661D01*
X188251769Y-76512676D01*
X188190885Y-76726662D01*
X188190884Y-76726664D01*
X188170357Y-76948199D01*
X187223802Y-76948199D01*
X187245615Y-76871536D01*
X187266143Y-76650000D01*
X187252243Y-76499998D01*
X187245615Y-76428464D01*
X187245614Y-76428462D01*
X187235423Y-76392645D01*
X187184729Y-76214472D01*
X187184724Y-76214461D01*
X187085561Y-76015316D01*
X187085556Y-76015308D01*
X186951479Y-75837761D01*
X186787062Y-75687876D01*
X186787060Y-75687874D01*
X186597904Y-75570754D01*
X186597898Y-75570752D01*
X186390440Y-75490382D01*
X186171743Y-75449500D01*
X185949257Y-75449500D01*
X185730560Y-75490382D01*
X185615566Y-75534931D01*
X185523101Y-75570752D01*
X185523095Y-75570754D01*
X185333939Y-75687874D01*
X185333937Y-75687876D01*
X185169520Y-75837761D01*
X185035443Y-76015308D01*
X185035438Y-76015316D01*
X184936275Y-76214461D01*
X184936269Y-76214476D01*
X184875385Y-76428462D01*
X184875384Y-76428464D01*
X184854857Y-76649999D01*
X176592345Y-76649999D01*
X176604360Y-76512661D01*
X176605468Y-76500001D01*
X176605468Y-76499998D01*
X176593896Y-76367732D01*
X176585635Y-76273308D01*
X176526739Y-76053504D01*
X176430568Y-75847266D01*
X176300047Y-75660861D01*
X176300045Y-75660858D01*
X176139141Y-75499954D01*
X175952734Y-75369432D01*
X175952732Y-75369431D01*
X175746497Y-75273261D01*
X175746488Y-75273258D01*
X175526697Y-75214366D01*
X175526693Y-75214365D01*
X175526692Y-75214365D01*
X175526691Y-75214364D01*
X175526686Y-75214364D01*
X175300002Y-75194532D01*
X175299998Y-75194532D01*
X175073313Y-75214364D01*
X175073302Y-75214366D01*
X174853511Y-75273258D01*
X174853502Y-75273261D01*
X174647267Y-75369431D01*
X174647265Y-75369432D01*
X174460858Y-75499954D01*
X174299954Y-75660858D01*
X174169432Y-75847265D01*
X174169431Y-75847267D01*
X174073261Y-76053502D01*
X174073258Y-76053511D01*
X174014366Y-76273302D01*
X174014364Y-76273313D01*
X173994532Y-76499998D01*
X170350000Y-76499998D01*
X170350000Y-72736876D01*
X170369685Y-72669837D01*
X170422489Y-72624082D01*
X170451209Y-72614988D01*
X170479940Y-72609618D01*
X170504769Y-72599999D01*
X174544357Y-72599999D01*
X174544357Y-72600000D01*
X174564884Y-72821535D01*
X174564885Y-72821537D01*
X174625769Y-73035523D01*
X174625775Y-73035538D01*
X174724938Y-73234683D01*
X174724943Y-73234691D01*
X174859020Y-73412238D01*
X175023437Y-73562123D01*
X175023439Y-73562125D01*
X175212595Y-73679245D01*
X175212596Y-73679245D01*
X175212599Y-73679247D01*
X175420060Y-73759618D01*
X175638757Y-73800500D01*
X175638759Y-73800500D01*
X175861241Y-73800500D01*
X175861243Y-73800500D01*
X176079940Y-73759618D01*
X176287401Y-73679247D01*
X176476562Y-73562124D01*
X176640981Y-73412236D01*
X176775058Y-73234689D01*
X176874229Y-73035528D01*
X176935115Y-72821536D01*
X176955643Y-72600000D01*
X176935115Y-72378464D01*
X176874229Y-72164472D01*
X176834499Y-72084683D01*
X176775061Y-71965316D01*
X176775056Y-71965308D01*
X176640979Y-71787761D01*
X176476562Y-71637876D01*
X176476560Y-71637874D01*
X176287404Y-71520754D01*
X176287398Y-71520752D01*
X176079940Y-71440382D01*
X175861243Y-71399500D01*
X175638757Y-71399500D01*
X175420060Y-71440382D01*
X175288864Y-71491207D01*
X175212601Y-71520752D01*
X175212595Y-71520754D01*
X175023439Y-71637874D01*
X175023437Y-71637876D01*
X174859020Y-71787761D01*
X174724943Y-71965308D01*
X174724938Y-71965316D01*
X174625775Y-72164461D01*
X174625769Y-72164476D01*
X174564885Y-72378462D01*
X174564884Y-72378464D01*
X174544357Y-72599999D01*
X170504769Y-72599999D01*
X170687401Y-72529247D01*
X170876562Y-72412124D01*
X171040981Y-72262236D01*
X171175058Y-72084689D01*
X171274229Y-71885528D01*
X171335115Y-71671536D01*
X171355643Y-71450000D01*
X171335115Y-71228464D01*
X171274229Y-71014472D01*
X171274224Y-71014461D01*
X171175061Y-70815316D01*
X171175056Y-70815308D01*
X171040979Y-70637761D01*
X170876562Y-70487876D01*
X170876560Y-70487874D01*
X170687404Y-70370754D01*
X170687398Y-70370751D01*
X170545536Y-70315794D01*
X170479940Y-70290382D01*
X170479937Y-70290381D01*
X170479932Y-70290380D01*
X170451212Y-70285011D01*
X170388932Y-70253342D01*
X170353660Y-70193029D01*
X170350000Y-70163123D01*
X170350000Y-65024000D01*
X170369685Y-64956961D01*
X170422489Y-64911206D01*
X170474000Y-64900000D01*
X176000000Y-64900000D01*
X176000000Y-57506399D01*
X179446357Y-57506399D01*
X179446357Y-57506400D01*
X179466884Y-57727931D01*
X179517055Y-57904266D01*
X179517055Y-57972134D01*
X179466884Y-58148468D01*
X179446357Y-58369999D01*
X179446357Y-58370000D01*
X179466884Y-58591535D01*
X179466885Y-58591537D01*
X179527769Y-58805523D01*
X179527775Y-58805538D01*
X179626938Y-59004683D01*
X179626943Y-59004691D01*
X179761020Y-59182238D01*
X179925437Y-59332123D01*
X179925439Y-59332125D01*
X180114595Y-59449245D01*
X180114596Y-59449245D01*
X180114599Y-59449247D01*
X180322060Y-59529618D01*
X180540757Y-59570500D01*
X180540759Y-59570500D01*
X180763241Y-59570500D01*
X180763243Y-59570500D01*
X180981940Y-59529618D01*
X181189401Y-59449247D01*
X181378562Y-59332124D01*
X181542981Y-59182236D01*
X181677058Y-59004689D01*
X181776229Y-58805528D01*
X181837115Y-58591536D01*
X181857643Y-58370000D01*
X181837115Y-58148464D01*
X181786944Y-57972133D01*
X181786944Y-57904265D01*
X181814229Y-57808372D01*
X181837115Y-57727936D01*
X181857643Y-57506400D01*
X181837115Y-57284864D01*
X181776229Y-57070872D01*
X181737523Y-56993140D01*
X181677061Y-56871716D01*
X181677056Y-56871708D01*
X181542979Y-56694161D01*
X181378562Y-56544276D01*
X181378560Y-56544274D01*
X181189404Y-56427154D01*
X181189398Y-56427152D01*
X180981940Y-56346782D01*
X180763243Y-56305900D01*
X180540757Y-56305900D01*
X180322060Y-56346782D01*
X180190864Y-56397607D01*
X180114601Y-56427152D01*
X180114595Y-56427154D01*
X179925439Y-56544274D01*
X179925437Y-56544276D01*
X179761020Y-56694161D01*
X179626943Y-56871708D01*
X179626938Y-56871716D01*
X179527775Y-57070861D01*
X179527769Y-57070876D01*
X179466885Y-57284862D01*
X179466884Y-57284864D01*
X179446357Y-57506399D01*
X176000000Y-57506399D01*
X176000000Y-55659199D01*
X184228757Y-55659199D01*
X184228757Y-55659200D01*
X184249284Y-55880735D01*
X184249285Y-55880737D01*
X184310169Y-56094723D01*
X184310175Y-56094738D01*
X184409338Y-56293883D01*
X184409343Y-56293891D01*
X184543420Y-56471438D01*
X184707837Y-56621323D01*
X184707839Y-56621325D01*
X184896995Y-56738445D01*
X184896996Y-56738445D01*
X184896999Y-56738447D01*
X185104460Y-56818818D01*
X185323157Y-56859700D01*
X185323159Y-56859700D01*
X185545641Y-56859700D01*
X185545643Y-56859700D01*
X185764340Y-56818818D01*
X185971801Y-56738447D01*
X186160962Y-56621324D01*
X186325381Y-56471436D01*
X186459458Y-56293889D01*
X186558629Y-56094728D01*
X186619515Y-55880736D01*
X186640043Y-55659200D01*
X186619515Y-55437664D01*
X186558629Y-55223672D01*
X186470587Y-55046860D01*
X186459461Y-55024516D01*
X186459456Y-55024508D01*
X186325379Y-54846961D01*
X186160962Y-54697076D01*
X186160960Y-54697074D01*
X185971804Y-54579954D01*
X185971798Y-54579952D01*
X185764340Y-54499582D01*
X185545643Y-54458700D01*
X185323157Y-54458700D01*
X185104460Y-54499582D01*
X184973264Y-54550407D01*
X184897001Y-54579952D01*
X184896995Y-54579954D01*
X184707839Y-54697074D01*
X184707837Y-54697076D01*
X184543420Y-54846961D01*
X184409343Y-55024508D01*
X184409338Y-55024516D01*
X184310175Y-55223661D01*
X184310169Y-55223676D01*
X184249285Y-55437662D01*
X184249284Y-55437664D01*
X184228757Y-55659199D01*
X176000000Y-55659199D01*
X176000000Y-54216788D01*
X176019685Y-54149749D01*
X176040462Y-54125151D01*
X176158179Y-54017838D01*
X176177986Y-53991610D01*
X176292258Y-53840289D01*
X176391429Y-53641128D01*
X176452315Y-53427136D01*
X176472843Y-53205600D01*
X176452315Y-52984064D01*
X176391429Y-52770072D01*
X176370665Y-52728372D01*
X176292261Y-52570916D01*
X176292256Y-52570908D01*
X176158179Y-52393362D01*
X176040461Y-52286047D01*
X176004180Y-52226335D01*
X176000000Y-52194410D01*
X176000000Y-50000000D01*
X178544396Y-50000000D01*
X178564778Y-50258990D01*
X178625427Y-50511610D01*
X178724843Y-50751623D01*
X178724845Y-50751627D01*
X178724846Y-50751628D01*
X178860588Y-50973140D01*
X179029311Y-51170689D01*
X179226860Y-51339412D01*
X179448372Y-51475154D01*
X179448374Y-51475154D01*
X179448376Y-51475156D01*
X179463055Y-51481236D01*
X179688390Y-51574573D01*
X179941006Y-51635221D01*
X180200000Y-51655604D01*
X180458994Y-51635221D01*
X180711610Y-51574573D01*
X180951628Y-51475154D01*
X181173140Y-51339412D01*
X181370689Y-51170689D01*
X181539412Y-50973140D01*
X181675154Y-50751628D01*
X181774573Y-50511610D01*
X181835221Y-50258994D01*
X181855604Y-50000000D01*
X181835221Y-49741006D01*
X181774573Y-49488390D01*
X181678314Y-49256000D01*
X183616675Y-49256000D01*
X183635962Y-49648591D01*
X183635962Y-49648597D01*
X183635963Y-49648599D01*
X183693637Y-50037406D01*
X183789143Y-50418684D01*
X183921561Y-50788770D01*
X183921562Y-50788772D01*
X184089620Y-51144100D01*
X184291692Y-51481236D01*
X184291694Y-51481239D01*
X184414474Y-51646789D01*
X184525846Y-51796956D01*
X184789807Y-52088192D01*
X185081043Y-52352153D01*
X185081049Y-52352158D01*
X185396761Y-52586306D01*
X185396763Y-52586307D01*
X185733899Y-52788379D01*
X185733902Y-52788380D01*
X185733903Y-52788381D01*
X186089228Y-52956438D01*
X186459316Y-53088857D01*
X186840600Y-53184364D01*
X187229409Y-53242038D01*
X187622000Y-53261325D01*
X188014591Y-53242038D01*
X188403400Y-53184364D01*
X188784684Y-53088857D01*
X189154772Y-52956438D01*
X189510097Y-52788381D01*
X189847239Y-52586306D01*
X190162951Y-52352158D01*
X190454192Y-52088192D01*
X190718158Y-51796951D01*
X190952306Y-51481239D01*
X191154381Y-51144097D01*
X191322438Y-50788772D01*
X191454857Y-50418684D01*
X191550364Y-50037400D01*
X191608038Y-49648591D01*
X191627325Y-49256000D01*
X191608038Y-48863409D01*
X191550364Y-48474600D01*
X191454857Y-48093316D01*
X191322438Y-47723228D01*
X191154381Y-47367903D01*
X190952306Y-47030761D01*
X190718158Y-46715049D01*
X190629523Y-46617255D01*
X190454192Y-46423807D01*
X190162956Y-46159846D01*
X190120739Y-46128536D01*
X189847239Y-45925694D01*
X189763322Y-45875396D01*
X189510100Y-45723620D01*
X189154772Y-45555562D01*
X189154770Y-45555561D01*
X188784684Y-45423143D01*
X188403406Y-45327637D01*
X188403401Y-45327636D01*
X188403400Y-45327636D01*
X188259256Y-45306254D01*
X188014599Y-45269963D01*
X188014597Y-45269962D01*
X188014591Y-45269962D01*
X187622000Y-45250675D01*
X187229409Y-45269962D01*
X187229403Y-45269962D01*
X187229400Y-45269963D01*
X186840593Y-45327637D01*
X186459315Y-45423143D01*
X186089229Y-45555561D01*
X186089227Y-45555562D01*
X185733899Y-45723620D01*
X185396763Y-45925692D01*
X185081043Y-46159846D01*
X184789807Y-46423807D01*
X184525846Y-46715043D01*
X184291692Y-47030763D01*
X184089620Y-47367899D01*
X183921562Y-47723227D01*
X183921561Y-47723229D01*
X183789143Y-48093315D01*
X183693637Y-48474593D01*
X183666206Y-48659522D01*
X183635962Y-48863409D01*
X183616675Y-49256000D01*
X181678314Y-49256000D01*
X181675154Y-49248371D01*
X181562297Y-49064205D01*
X181544052Y-48996759D01*
X181565168Y-48930157D01*
X181580333Y-48911744D01*
X181679816Y-48812262D01*
X181775789Y-48659522D01*
X181835368Y-48489255D01*
X181838910Y-48457824D01*
X181850499Y-48354960D01*
X181850500Y-48354956D01*
X181850500Y-46565043D01*
X181850499Y-46565039D01*
X181835369Y-46430750D01*
X181835368Y-46430745D01*
X181810722Y-46360311D01*
X181775789Y-46260478D01*
X181679816Y-46107738D01*
X181552262Y-45980184D01*
X181514453Y-45956427D01*
X181399523Y-45884211D01*
X181229254Y-45824631D01*
X181229249Y-45824630D01*
X181094960Y-45809500D01*
X181094954Y-45809500D01*
X179305046Y-45809500D01*
X179305039Y-45809500D01*
X179170750Y-45824630D01*
X179170745Y-45824631D01*
X179000476Y-45884211D01*
X178847737Y-45980184D01*
X178720184Y-46107737D01*
X178624211Y-46260476D01*
X178564631Y-46430745D01*
X178564630Y-46430750D01*
X178549500Y-46565039D01*
X178549500Y-48354960D01*
X178564630Y-48489249D01*
X178564631Y-48489254D01*
X178624211Y-48659523D01*
X178720184Y-48812262D01*
X178819656Y-48911734D01*
X178853141Y-48973057D01*
X178848157Y-49042749D01*
X178837703Y-49064204D01*
X178724845Y-49248373D01*
X178625427Y-49488389D01*
X178564778Y-49741009D01*
X178544396Y-50000000D01*
X176000000Y-50000000D01*
X176000000Y-42179356D01*
X176019685Y-42112317D01*
X176072489Y-42066562D01*
X176124005Y-42055357D01*
X187442392Y-42056494D01*
G37*
%TD.AperFunction*%
%TD*%
%TA.AperFunction,Conductor*%
%TO.N,+BATT*%
G36*
X175070512Y-42055251D02*
G01*
X175137550Y-42074942D01*
X175183300Y-42127751D01*
X175194500Y-42179251D01*
X175194500Y-52194434D01*
X175201316Y-52298973D01*
X175201319Y-52299002D01*
X175205496Y-52330903D01*
X175239975Y-52480933D01*
X175239977Y-52480940D01*
X175315782Y-52644590D01*
X175315788Y-52644602D01*
X175352069Y-52704314D01*
X175378943Y-52745638D01*
X175378945Y-52745640D01*
X175378950Y-52745647D01*
X175497791Y-52881311D01*
X175497804Y-52881324D01*
X175551865Y-52930607D01*
X175567281Y-52947518D01*
X175597547Y-52987597D01*
X175609593Y-53007050D01*
X175631982Y-53052012D01*
X175640248Y-53073350D01*
X175653993Y-53121657D01*
X175658198Y-53144153D01*
X175662831Y-53194160D01*
X175662831Y-53217038D01*
X175658198Y-53267045D01*
X175653993Y-53289543D01*
X175640246Y-53337855D01*
X175631981Y-53359189D01*
X175609597Y-53404143D01*
X175597550Y-53423598D01*
X175567284Y-53463677D01*
X175551870Y-53480586D01*
X175497807Y-53529872D01*
X175497799Y-53529880D01*
X175425109Y-53605372D01*
X175425100Y-53605382D01*
X175404322Y-53629980D01*
X175404320Y-53629984D01*
X175316693Y-53756514D01*
X175316692Y-53756516D01*
X175246814Y-53922808D01*
X175227124Y-53989863D01*
X175214696Y-54037540D01*
X175194500Y-54216783D01*
X175194500Y-63970500D01*
X175174815Y-64037539D01*
X175122011Y-64083294D01*
X175070500Y-64094500D01*
X170473991Y-64094500D01*
X170302767Y-64112910D01*
X170300341Y-64113438D01*
X170299765Y-64113396D01*
X170299486Y-64113442D01*
X170299475Y-64113375D01*
X170230650Y-64108444D01*
X170174723Y-64066565D01*
X170150315Y-64001097D01*
X170150000Y-63992268D01*
X170150000Y-56467999D01*
X171877157Y-56467999D01*
X171877157Y-56468000D01*
X171897684Y-56689535D01*
X171897685Y-56689537D01*
X171958569Y-56903523D01*
X171958575Y-56903538D01*
X172057738Y-57102683D01*
X172057743Y-57102691D01*
X172191820Y-57280238D01*
X172356237Y-57430123D01*
X172356239Y-57430125D01*
X172545395Y-57547245D01*
X172545396Y-57547245D01*
X172545399Y-57547247D01*
X172752860Y-57627618D01*
X172971557Y-57668500D01*
X172971559Y-57668500D01*
X173194041Y-57668500D01*
X173194043Y-57668500D01*
X173412740Y-57627618D01*
X173620201Y-57547247D01*
X173809362Y-57430124D01*
X173954768Y-57297569D01*
X173973779Y-57280238D01*
X174004810Y-57239147D01*
X174107858Y-57102689D01*
X174207029Y-56903528D01*
X174267915Y-56689536D01*
X174288443Y-56468000D01*
X174267915Y-56246464D01*
X174207029Y-56032472D01*
X174200819Y-56020000D01*
X174107861Y-55833316D01*
X174107856Y-55833308D01*
X173973779Y-55655761D01*
X173809362Y-55505876D01*
X173809360Y-55505874D01*
X173620204Y-55388754D01*
X173620198Y-55388752D01*
X173412740Y-55308382D01*
X173194043Y-55267500D01*
X172971557Y-55267500D01*
X172752860Y-55308382D01*
X172621664Y-55359207D01*
X172545401Y-55388752D01*
X172545395Y-55388754D01*
X172356239Y-55505874D01*
X172356237Y-55505876D01*
X172191820Y-55655761D01*
X172057743Y-55833308D01*
X172057738Y-55833316D01*
X171958575Y-56032461D01*
X171958569Y-56032476D01*
X171897685Y-56246462D01*
X171897684Y-56246464D01*
X171877157Y-56467999D01*
X170150000Y-56467999D01*
X170150000Y-48950000D01*
X155524000Y-48950000D01*
X155456961Y-48930315D01*
X155411206Y-48877511D01*
X155400000Y-48826000D01*
X155400000Y-47531000D01*
X170583796Y-47531000D01*
X170604178Y-47789990D01*
X170664827Y-48042610D01*
X170764243Y-48282623D01*
X170764245Y-48282627D01*
X170764246Y-48282628D01*
X170877103Y-48466795D01*
X170895347Y-48534240D01*
X170874230Y-48600843D01*
X170859057Y-48619265D01*
X170759583Y-48718739D01*
X170663611Y-48871476D01*
X170604031Y-49041745D01*
X170604030Y-49041750D01*
X170588900Y-49176039D01*
X170588900Y-50965960D01*
X170604030Y-51100249D01*
X170604031Y-51100254D01*
X170663611Y-51270523D01*
X170759584Y-51423262D01*
X170887138Y-51550816D01*
X171039878Y-51646789D01*
X171210145Y-51706368D01*
X171210150Y-51706369D01*
X171300646Y-51716565D01*
X171344440Y-51721499D01*
X171344443Y-51721500D01*
X171344446Y-51721500D01*
X173134357Y-51721500D01*
X173134358Y-51721499D01*
X173201504Y-51713934D01*
X173268649Y-51706369D01*
X173268652Y-51706368D01*
X173268655Y-51706368D01*
X173438922Y-51646789D01*
X173591662Y-51550816D01*
X173719216Y-51423262D01*
X173815189Y-51270522D01*
X173874768Y-51100255D01*
X173889900Y-50965954D01*
X173889900Y-49176046D01*
X173874768Y-49041745D01*
X173815189Y-48871478D01*
X173719216Y-48718738D01*
X173619743Y-48619265D01*
X173586258Y-48557942D01*
X173591242Y-48488250D01*
X173601694Y-48466798D01*
X173714554Y-48282628D01*
X173813973Y-48042610D01*
X173874621Y-47789994D01*
X173895004Y-47531000D01*
X173874621Y-47272006D01*
X173813973Y-47019390D01*
X173714554Y-46779372D01*
X173578812Y-46557860D01*
X173410089Y-46360311D01*
X173212540Y-46191588D01*
X172991028Y-46055846D01*
X172991027Y-46055845D01*
X172991023Y-46055843D01*
X172825027Y-45987086D01*
X172751010Y-45956427D01*
X172751011Y-45956427D01*
X172613321Y-45923370D01*
X172498394Y-45895779D01*
X172498392Y-45895778D01*
X172498391Y-45895778D01*
X172239400Y-45875396D01*
X171980409Y-45895778D01*
X171727789Y-45956427D01*
X171487776Y-46055843D01*
X171266259Y-46191588D01*
X171068711Y-46360311D01*
X170899988Y-46557859D01*
X170764243Y-46779376D01*
X170664827Y-47019389D01*
X170604178Y-47272009D01*
X170583796Y-47531000D01*
X155400000Y-47531000D01*
X155400000Y-47095590D01*
X155419685Y-47028551D01*
X155472489Y-46982796D01*
X155541647Y-46972852D01*
X155579281Y-46984595D01*
X155582594Y-46986245D01*
X155582598Y-46986246D01*
X155582599Y-46986247D01*
X155790060Y-47066618D01*
X156008757Y-47107500D01*
X156008759Y-47107500D01*
X156231241Y-47107500D01*
X156231243Y-47107500D01*
X156449940Y-47066618D01*
X156657401Y-46986247D01*
X156846562Y-46869124D01*
X157010981Y-46719236D01*
X157145058Y-46541689D01*
X157244229Y-46342528D01*
X157305115Y-46128536D01*
X157325643Y-45907000D01*
X157305115Y-45685464D01*
X157244229Y-45471472D01*
X157220383Y-45423583D01*
X157145061Y-45272316D01*
X157145056Y-45272308D01*
X157010979Y-45094761D01*
X156846562Y-44944876D01*
X156846560Y-44944874D01*
X156657404Y-44827754D01*
X156657398Y-44827752D01*
X156449940Y-44747382D01*
X156231243Y-44706500D01*
X156008757Y-44706500D01*
X155790060Y-44747382D01*
X155686329Y-44787567D01*
X155582598Y-44827753D01*
X155579271Y-44829410D01*
X155577512Y-44829723D01*
X155577253Y-44829824D01*
X155577233Y-44829773D01*
X155510485Y-44841670D01*
X155445991Y-44814796D01*
X155406263Y-44757320D01*
X155400000Y-44718409D01*
X155400000Y-42177286D01*
X155419685Y-42110247D01*
X155472489Y-42064492D01*
X155524009Y-42053286D01*
X175070512Y-42055251D01*
G37*
%TD.AperFunction*%
%TD*%
M02*
