%TF.GenerationSoftware,KiCad,Pcbnew,8.0.3-8.0.3-0~ubuntu22.04.1*%
%TF.CreationDate,2024-06-17T20:55:48-07:00*%
%TF.ProjectId,A1-FlightComputer,41312d46-6c69-4676-9874-436f6d707574,rev?*%
%TF.SameCoordinates,Original*%
%TF.FileFunction,Copper,L1,Top*%
%TF.FilePolarity,Positive*%
%FSLAX46Y46*%
G04 Gerber Fmt 4.6, Leading zero omitted, Abs format (unit mm)*
G04 Created by KiCad (PCBNEW 8.0.3-8.0.3-0~ubuntu22.04.1) date 2024-06-17 20:55:48*
%MOMM*%
%LPD*%
G01*
G04 APERTURE LIST*
G04 Aperture macros list*
%AMRoundRect*
0 Rectangle with rounded corners*
0 $1 Rounding radius*
0 $2 $3 $4 $5 $6 $7 $8 $9 X,Y pos of 4 corners*
0 Add a 4 corners polygon primitive as box body*
4,1,4,$2,$3,$4,$5,$6,$7,$8,$9,$2,$3,0*
0 Add four circle primitives for the rounded corners*
1,1,$1+$1,$2,$3*
1,1,$1+$1,$4,$5*
1,1,$1+$1,$6,$7*
1,1,$1+$1,$8,$9*
0 Add four rect primitives between the rounded corners*
20,1,$1+$1,$2,$3,$4,$5,0*
20,1,$1+$1,$4,$5,$6,$7,0*
20,1,$1+$1,$6,$7,$8,$9,0*
20,1,$1+$1,$8,$9,$2,$3,0*%
%AMFreePoly0*
4,1,19,0.499999,-0.750000,0.000000,-0.750000,0.000000,-0.744912,-0.071157,-0.744911,-0.207708,-0.704816,-0.327430,-0.627875,-0.420627,-0.520320,-0.479746,-0.390866,-0.500000,-0.250000,-0.500000,0.250000,-0.479746,0.390866,-0.420627,0.520320,-0.327430,0.627875,-0.207708,0.704816,-0.071157,0.744911,0.000000,0.744912,0.000000,0.750000,0.499999,0.750000,0.499999,-0.750000,0.499999,-0.750000,
$1*%
%AMFreePoly1*
4,1,19,0.000000,0.744912,0.071157,0.744911,0.207708,0.704816,0.327430,0.627875,0.420627,0.520320,0.479746,0.390866,0.500000,0.250000,0.500000,-0.250000,0.479746,-0.390866,0.420627,-0.520320,0.327430,-0.627875,0.207708,-0.704816,0.071157,-0.744911,0.000000,-0.744912,0.000000,-0.750000,-0.499999,-0.750000,-0.499999,0.750000,0.000000,0.750000,0.000000,0.744912,0.000000,0.744912,
$1*%
G04 Aperture macros list end*
%TA.AperFunction,EtchedComponent*%
%ADD10C,0.000000*%
%TD*%
%TA.AperFunction,SMDPad,CuDef*%
%ADD11RoundRect,0.237500X0.300000X0.237500X-0.300000X0.237500X-0.300000X-0.237500X0.300000X-0.237500X0*%
%TD*%
%TA.AperFunction,SMDPad,CuDef*%
%ADD12RoundRect,0.237500X-0.237500X0.300000X-0.237500X-0.300000X0.237500X-0.300000X0.237500X0.300000X0*%
%TD*%
%TA.AperFunction,SMDPad,CuDef*%
%ADD13RoundRect,0.250000X-0.625000X0.375000X-0.625000X-0.375000X0.625000X-0.375000X0.625000X0.375000X0*%
%TD*%
%TA.AperFunction,SMDPad,CuDef*%
%ADD14RoundRect,0.237500X0.237500X-0.300000X0.237500X0.300000X-0.237500X0.300000X-0.237500X-0.300000X0*%
%TD*%
%TA.AperFunction,SMDPad,CuDef*%
%ADD15FreePoly0,225.000000*%
%TD*%
%TA.AperFunction,SMDPad,CuDef*%
%ADD16FreePoly1,225.000000*%
%TD*%
%TA.AperFunction,SMDPad,CuDef*%
%ADD17RoundRect,0.237500X-0.250000X-0.237500X0.250000X-0.237500X0.250000X0.237500X-0.250000X0.237500X0*%
%TD*%
%TA.AperFunction,SMDPad,CuDef*%
%ADD18RoundRect,0.237500X-0.344715X0.008839X0.008839X-0.344715X0.344715X-0.008839X-0.008839X0.344715X0*%
%TD*%
%TA.AperFunction,SMDPad,CuDef*%
%ADD19RoundRect,0.250000X0.375000X0.625000X-0.375000X0.625000X-0.375000X-0.625000X0.375000X-0.625000X0*%
%TD*%
%TA.AperFunction,SMDPad,CuDef*%
%ADD20RoundRect,0.237500X-0.237500X0.250000X-0.237500X-0.250000X0.237500X-0.250000X0.237500X0.250000X0*%
%TD*%
%TA.AperFunction,ComponentPad*%
%ADD21C,1.000000*%
%TD*%
%TA.AperFunction,SMDPad,CuDef*%
%ADD22RoundRect,0.125000X0.125000X-0.200000X0.125000X0.200000X-0.125000X0.200000X-0.125000X-0.200000X0*%
%TD*%
%TA.AperFunction,SMDPad,CuDef*%
%ADD23R,4.300000X3.400000*%
%TD*%
%TA.AperFunction,SMDPad,CuDef*%
%ADD24R,1.800000X1.750000*%
%TD*%
%TA.AperFunction,SMDPad,CuDef*%
%ADD25RoundRect,0.150000X-0.587500X-0.150000X0.587500X-0.150000X0.587500X0.150000X-0.587500X0.150000X0*%
%TD*%
%TA.AperFunction,SMDPad,CuDef*%
%ADD26RoundRect,0.237500X0.237500X-0.250000X0.237500X0.250000X-0.237500X0.250000X-0.237500X-0.250000X0*%
%TD*%
%TA.AperFunction,ComponentPad*%
%ADD27C,6.400000*%
%TD*%
%TA.AperFunction,SMDPad,CuDef*%
%ADD28RoundRect,0.075000X-0.700000X-0.075000X0.700000X-0.075000X0.700000X0.075000X-0.700000X0.075000X0*%
%TD*%
%TA.AperFunction,SMDPad,CuDef*%
%ADD29RoundRect,0.075000X-0.075000X-0.700000X0.075000X-0.700000X0.075000X0.700000X-0.075000X0.700000X0*%
%TD*%
%TA.AperFunction,ComponentPad*%
%ADD30R,1.700000X1.700000*%
%TD*%
%TA.AperFunction,ComponentPad*%
%ADD31O,1.700000X1.700000*%
%TD*%
%TA.AperFunction,SMDPad,CuDef*%
%ADD32RoundRect,0.250000X-0.300000X0.300000X-0.300000X-0.300000X0.300000X-0.300000X0.300000X0.300000X0*%
%TD*%
%TA.AperFunction,SMDPad,CuDef*%
%ADD33R,2.500000X1.900000*%
%TD*%
%TA.AperFunction,SMDPad,CuDef*%
%ADD34R,1.400000X0.400000*%
%TD*%
%TA.AperFunction,SMDPad,CuDef*%
%ADD35R,1.900000X2.300000*%
%TD*%
%TA.AperFunction,SMDPad,CuDef*%
%ADD36R,1.900000X1.800000*%
%TD*%
%TA.AperFunction,ComponentPad*%
%ADD37C,2.000000*%
%TD*%
%TA.AperFunction,SMDPad,CuDef*%
%ADD38R,1.500000X2.000000*%
%TD*%
%TA.AperFunction,SMDPad,CuDef*%
%ADD39R,3.800000X2.000000*%
%TD*%
%TA.AperFunction,SMDPad,CuDef*%
%ADD40RoundRect,0.237500X-0.300000X-0.237500X0.300000X-0.237500X0.300000X0.237500X-0.300000X0.237500X0*%
%TD*%
%TA.AperFunction,ComponentPad*%
%ADD41O,3.500000X2.200000*%
%TD*%
%TA.AperFunction,ComponentPad*%
%ADD42R,2.500000X1.500000*%
%TD*%
%TA.AperFunction,ComponentPad*%
%ADD43O,2.500000X1.500000*%
%TD*%
%TA.AperFunction,SMDPad,CuDef*%
%ADD44R,0.351536X0.576580*%
%TD*%
%TA.AperFunction,SMDPad,CuDef*%
%ADD45R,0.576580X0.351536*%
%TD*%
%TA.AperFunction,SMDPad,CuDef*%
%ADD46RoundRect,0.062500X0.062500X-0.375000X0.062500X0.375000X-0.062500X0.375000X-0.062500X-0.375000X0*%
%TD*%
%TA.AperFunction,SMDPad,CuDef*%
%ADD47RoundRect,0.062500X0.375000X-0.062500X0.375000X0.062500X-0.375000X0.062500X-0.375000X-0.062500X0*%
%TD*%
%TA.AperFunction,SMDPad,CuDef*%
%ADD48R,3.600000X3.600000*%
%TD*%
%TA.AperFunction,SMDPad,CuDef*%
%ADD49R,0.254000X0.279400*%
%TD*%
%TA.AperFunction,SMDPad,CuDef*%
%ADD50R,0.279400X0.254000*%
%TD*%
%TA.AperFunction,SMDPad,CuDef*%
%ADD51R,2.000000X1.500000*%
%TD*%
%TA.AperFunction,SMDPad,CuDef*%
%ADD52R,2.000000X3.800000*%
%TD*%
%TA.AperFunction,SMDPad,CuDef*%
%ADD53RoundRect,0.250000X0.300000X0.300000X-0.300000X0.300000X-0.300000X-0.300000X0.300000X-0.300000X0*%
%TD*%
%TA.AperFunction,ViaPad*%
%ADD54C,0.800000*%
%TD*%
%TA.AperFunction,Conductor*%
%ADD55C,0.250000*%
%TD*%
%TA.AperFunction,Conductor*%
%ADD56C,0.200000*%
%TD*%
%TA.AperFunction,Conductor*%
%ADD57C,0.400000*%
%TD*%
G04 APERTURE END LIST*
D10*
%TA.AperFunction,EtchedComponent*%
%TO.C,JP201*%
G36*
X160229290Y-66644974D02*
G01*
X159875736Y-66998528D01*
X159451472Y-66574264D01*
X159805026Y-66220710D01*
X160229290Y-66644974D01*
G37*
%TD.AperFunction*%
%TA.AperFunction,EtchedComponent*%
%TO.C,JP202*%
G36*
X162879290Y-67694974D02*
G01*
X162525736Y-68048528D01*
X162101472Y-67624264D01*
X162455026Y-67270710D01*
X162879290Y-67694974D01*
G37*
%TD.AperFunction*%
%TD*%
D11*
%TO.P,C207,1*%
%TO.N,+3V3*%
X152551300Y-89692000D03*
%TO.P,C207,2*%
%TO.N,GND*%
X150826300Y-89692000D03*
%TD*%
D12*
%TO.P,C304,1*%
%TO.N,+3V3*%
X175950000Y-92787500D03*
%TO.P,C304,2*%
%TO.N,GND*%
X175950000Y-94512500D03*
%TD*%
D13*
%TO.P,D303,1,K*%
%TO.N,/Peripherals/LED1*%
X137700000Y-105600000D03*
%TO.P,D303,2,A*%
%TO.N,Net-(D303-A)*%
X137700000Y-108400000D03*
%TD*%
D14*
%TO.P,C401,1*%
%TO.N,+BATT*%
X154850000Y-47633100D03*
%TO.P,C401,2*%
%TO.N,GND*%
X154850000Y-45908100D03*
%TD*%
D15*
%TO.P,JP201,1,A*%
%TO.N,Net-(J203-Pin_10)*%
X160300000Y-66150000D03*
D16*
%TO.P,JP201,2,B*%
%TO.N,/STM32/DEBUG_RX*%
X159380762Y-67069238D03*
%TD*%
D17*
%TO.P,R201,1*%
%TO.N,Net-(R201-Pad1)*%
X135402700Y-75960800D03*
%TO.P,R201,2*%
%TO.N,GND*%
X137227700Y-75960800D03*
%TD*%
D13*
%TO.P,D304,1,K*%
%TO.N,/Peripherals/LED0*%
X133700000Y-105600000D03*
%TO.P,D304,2,A*%
%TO.N,Net-(D304-A)*%
X133700000Y-108400000D03*
%TD*%
%TO.P,D301,1,K*%
%TO.N,/Peripherals/LED3*%
X145700000Y-105600000D03*
%TO.P,D301,2,A*%
%TO.N,Net-(D301-A)*%
X145700000Y-108400000D03*
%TD*%
D18*
%TO.P,R203,1*%
%TO.N,Net-(SW203-B)*%
X151254765Y-67059530D03*
%TO.P,R203,2*%
%TO.N,/STM32/BOOT0*%
X152545235Y-68350000D03*
%TD*%
D19*
%TO.P,D201,1,K*%
%TO.N,/STM32/JTAG_CON*%
X156450000Y-64050000D03*
%TO.P,D201,2,A*%
%TO.N,Net-(D201-A)*%
X153650000Y-64050000D03*
%TD*%
D20*
%TO.P,R305,1*%
%TO.N,Net-(D303-A)*%
X137700000Y-111087500D03*
%TO.P,R305,2*%
%TO.N,+3V3*%
X137700000Y-112912500D03*
%TD*%
D14*
%TO.P,C302,1*%
%TO.N,+3V3*%
X178917600Y-87579200D03*
%TO.P,C302,2*%
%TO.N,GND*%
X178917600Y-85854200D03*
%TD*%
D17*
%TO.P,R204,1*%
%TO.N,Net-(C204-Pad2)*%
X142089500Y-81381600D03*
%TO.P,R204,2*%
%TO.N,/STM32/HSE_OSC_OUT*%
X143914500Y-81381600D03*
%TD*%
D12*
%TO.P,C214,1*%
%TO.N,+3V3*%
X163982400Y-76912300D03*
%TO.P,C214,2*%
%TO.N,GND*%
X163982400Y-78637300D03*
%TD*%
D21*
%TO.P,TP204,1,1*%
%TO.N,GND*%
X137150000Y-47800000D03*
%TD*%
%TO.P,TP401,1,1*%
%TO.N,+BATT*%
X162486800Y-45106000D03*
%TD*%
%TO.P,TP206,1,1*%
%TO.N,GND*%
X187000000Y-95200000D03*
%TD*%
D20*
%TO.P,R402,1*%
%TO.N,+3V3*%
X154850000Y-50225000D03*
%TO.P,R402,2*%
%TO.N,Net-(D404-A)*%
X154850000Y-52050000D03*
%TD*%
D22*
%TO.P,U202,1,nCS*%
%TO.N,/STM32/QuadSPI_NCS*%
X154228800Y-102597600D03*
%TO.P,U202,2,IO1/DO*%
%TO.N,/STM32/QuadSPI_IO1*%
X155498800Y-102597600D03*
%TO.P,U202,3,IO2/nWP*%
%TO.N,/STM32/QuadSPI_IO2*%
X156768800Y-102597600D03*
%TO.P,U202,4,GND*%
%TO.N,GND*%
X158038800Y-102597600D03*
%TO.P,U202,5,IO0/DI*%
%TO.N,/STM32/QuadSPI_IO0*%
X158038800Y-95097600D03*
%TO.P,U202,6,CLK*%
%TO.N,/STM32/QuadSPI_CLK*%
X156768800Y-95097600D03*
%TO.P,U202,7,IO3/nHOLD*%
%TO.N,/STM32/QuadSPI_IO3*%
X155498800Y-95097600D03*
%TO.P,U202,8,VCC*%
%TO.N,+3V3*%
X154228800Y-95097600D03*
D23*
%TO.P,U202,9*%
%TO.N,N/C*%
X156133800Y-98847600D03*
%TD*%
D12*
%TO.P,C201,1*%
%TO.N,GND*%
X144840000Y-73813500D03*
%TO.P,C201,2*%
%TO.N,/STM32/LSE_OSC_IN*%
X144840000Y-75538500D03*
%TD*%
D24*
%TO.P,Y201,1,1*%
%TO.N,/STM32/LSE_OSC_OUT*%
X142655600Y-78028200D03*
%TO.P,Y201,2,2*%
%TO.N,/STM32/LSE_OSC_IN*%
X142655600Y-74778200D03*
%TD*%
D15*
%TO.P,JP202,1,A*%
%TO.N,Net-(J203-Pin_9)*%
X162950000Y-67200000D03*
D16*
%TO.P,JP202,2,B*%
%TO.N,/STM32/DEBUG_TX*%
X162030762Y-68119238D03*
%TD*%
D21*
%TO.P,TP402,1,1*%
%TO.N,+5V*%
X172310000Y-67005600D03*
%TD*%
%TO.P,TP201,1,1*%
%TO.N,/Peripherals/I2C_SDA*%
X175449200Y-84614000D03*
%TD*%
D25*
%TO.P,Q301,1,G*%
%TO.N,/Peripherals/Buzzer_ON*%
X177007200Y-103650000D03*
%TO.P,Q301,2,S*%
%TO.N,GND*%
X177007200Y-105550000D03*
%TO.P,Q301,3,D*%
%TO.N,Net-(J301-Pin_2)*%
X178882200Y-104600000D03*
%TD*%
D11*
%TO.P,C402,1*%
%TO.N,+BATT*%
X174824000Y-57658800D03*
%TO.P,C402,2*%
%TO.N,GND*%
X173099000Y-57658800D03*
%TD*%
D26*
%TO.P,R206,1*%
%TO.N,Net-(U201-PA3)*%
X172000000Y-73225000D03*
%TO.P,R206,2*%
%TO.N,GND*%
X172000000Y-71400000D03*
%TD*%
D27*
%TO.P,H104,1,1*%
%TO.N,unconnected-(H104-Pad1)*%
X127678000Y-109200000D03*
%TD*%
D28*
%TO.P,U201,1,VBAT*%
%TO.N,+3V3*%
X150003000Y-78139400D03*
%TO.P,U201,2,PC13*%
%TO.N,/STM32/WAKEUP*%
X150003000Y-78639400D03*
%TO.P,U201,3,PC14*%
%TO.N,/STM32/LSE_OSC_IN*%
X150003000Y-79139400D03*
%TO.P,U201,4,PC15*%
%TO.N,/STM32/LSE_OSC_OUT*%
X150003000Y-79639400D03*
%TO.P,U201,5,PH0*%
%TO.N,/STM32/HSE_OSC_IN*%
X150003000Y-80139400D03*
%TO.P,U201,6,PH1*%
%TO.N,/STM32/HSE_OSC_OUT*%
X150003000Y-80639400D03*
%TO.P,U201,7,NRST*%
%TO.N,/STM32/NRST*%
X150003000Y-81139400D03*
%TO.P,U201,8,PC0*%
%TO.N,/Peripherals/LED0*%
X150003000Y-81639400D03*
%TO.P,U201,9,PC1*%
%TO.N,/Peripherals/LED1*%
X150003000Y-82139400D03*
%TO.P,U201,10,PC2*%
%TO.N,/Peripherals/LED2*%
X150003000Y-82639400D03*
%TO.P,U201,11,PC3*%
%TO.N,/Peripherals/LED3*%
X150003000Y-83139400D03*
%TO.P,U201,12,VSSA*%
%TO.N,GND*%
X150003000Y-83639400D03*
%TO.P,U201,13,VDDA*%
%TO.N,+3V3*%
X150003000Y-84139400D03*
%TO.P,U201,14,PA0*%
%TO.N,unconnected-(U201-PA0-Pad14)*%
X150003000Y-84639400D03*
%TO.P,U201,15,PA1*%
%TO.N,unconnected-(U201-PA1-Pad15)*%
X150003000Y-85139400D03*
%TO.P,U201,16,PA2*%
%TO.N,unconnected-(U201-PA2-Pad16)*%
X150003000Y-85639400D03*
D29*
%TO.P,U201,17,PA3*%
%TO.N,Net-(U201-PA3)*%
X151928000Y-87564400D03*
%TO.P,U201,18,VSS*%
%TO.N,GND*%
X152428000Y-87564400D03*
%TO.P,U201,19,VDD*%
%TO.N,+3V3*%
X152928000Y-87564400D03*
%TO.P,U201,20,PA4*%
%TO.N,/STM32/PB8*%
X153428000Y-87564400D03*
%TO.P,U201,21,PA5*%
%TO.N,/STM32/PB9*%
X153928000Y-87564400D03*
%TO.P,U201,22,PA6*%
%TO.N,/STM32/QuadSPI_IO3*%
X154428000Y-87564400D03*
%TO.P,U201,23,PA7*%
%TO.N,/STM32/QuadSPI_IO2*%
X154928000Y-87564400D03*
%TO.P,U201,24,PC4*%
%TO.N,/STM32/PC4*%
X155428000Y-87564400D03*
%TO.P,U201,25,PC5*%
%TO.N,/STM32/PC5*%
X155928000Y-87564400D03*
%TO.P,U201,26,PB0*%
%TO.N,/STM32/QuadSPI_IO1*%
X156428000Y-87564400D03*
%TO.P,U201,27,PB1*%
%TO.N,/STM32/QuadSPI_IO0*%
X156928000Y-87564400D03*
%TO.P,U201,28,PB2*%
%TO.N,unconnected-(U201-PB2-Pad28)*%
X157428000Y-87564400D03*
%TO.P,U201,29,PB10*%
%TO.N,/STM32/QuadSPI_CLK*%
X157928000Y-87564400D03*
%TO.P,U201,30,PB11*%
%TO.N,/STM32/QuadSPI_NCS*%
X158428000Y-87564400D03*
%TO.P,U201,31,VSS*%
%TO.N,GND*%
X158928000Y-87564400D03*
%TO.P,U201,32,VDD*%
%TO.N,+3V3*%
X159428000Y-87564400D03*
D28*
%TO.P,U201,33,PB12*%
%TO.N,/Peripherals/Buzzer_ON*%
X161353000Y-85639400D03*
%TO.P,U201,34,PB13*%
%TO.N,/Peripherals/I2C_SCL*%
X161353000Y-85139400D03*
%TO.P,U201,35,PB14*%
%TO.N,/Peripherals/I2C_SDA*%
X161353000Y-84639400D03*
%TO.P,U201,36,PB15*%
%TO.N,unconnected-(U201-PB15-Pad36)*%
X161353000Y-84139400D03*
%TO.P,U201,37,PC6*%
%TO.N,/Peripherals/ADX_INT2*%
X161353000Y-83639400D03*
%TO.P,U201,38,PC7*%
%TO.N,/Peripherals/ADX_INT1*%
X161353000Y-83139400D03*
%TO.P,U201,39,PC8*%
%TO.N,/Peripherals/LSM_INT2*%
X161353000Y-82639400D03*
%TO.P,U201,40,PC9*%
%TO.N,/Peripherals/LSM_INT1*%
X161353000Y-82139400D03*
%TO.P,U201,41,PA8*%
%TO.N,/Peripherals/BME_CS*%
X161353000Y-81639400D03*
%TO.P,U201,42,PA9*%
%TO.N,/Peripherals/BME_INT*%
X161353000Y-81139400D03*
%TO.P,U201,43,PA10*%
%TO.N,/STM32/USB_OTG_ID*%
X161353000Y-80639400D03*
%TO.P,U201,44,PA11*%
%TO.N,Net-(U201-PA11)*%
X161353000Y-80139400D03*
%TO.P,U201,45,PA12*%
%TO.N,Net-(U201-PA12)*%
X161353000Y-79639400D03*
%TO.P,U201,46,PA13*%
%TO.N,/STM32/JTMS{slash}SWDIO*%
X161353000Y-79139400D03*
%TO.P,U201,47,VSS*%
%TO.N,GND*%
X161353000Y-78639400D03*
%TO.P,U201,48,VDDUSB*%
%TO.N,+3V3*%
X161353000Y-78139400D03*
D29*
%TO.P,U201,49,PA14*%
%TO.N,/STM32/JTCK{slash}SWCLK*%
X159428000Y-76214400D03*
%TO.P,U201,50,PA15*%
%TO.N,/STM32/JTDI*%
X158928000Y-76214400D03*
%TO.P,U201,51,PC10*%
%TO.N,/STM32/DEBUG_TX*%
X158428000Y-76214400D03*
%TO.P,U201,52,PC11*%
%TO.N,/STM32/DEBUG_RX*%
X157928000Y-76214400D03*
%TO.P,U201,53,PC12*%
%TO.N,unconnected-(U201-PC12-Pad53)*%
X157428000Y-76214400D03*
%TO.P,U201,54,PD2*%
%TO.N,unconnected-(U201-PD2-Pad54)*%
X156928000Y-76214400D03*
%TO.P,U201,55,PB3*%
%TO.N,/STM32/JTDO{slash}TRACESWO*%
X156428000Y-76214400D03*
%TO.P,U201,56,PB4*%
%TO.N,/STM32/NJTRST*%
X155928000Y-76214400D03*
%TO.P,U201,57,PB5*%
%TO.N,/STM32/JTAG_CON*%
X155428000Y-76214400D03*
%TO.P,U201,58,PB6*%
%TO.N,unconnected-(U201-PB6-Pad58)*%
X154928000Y-76214400D03*
%TO.P,U201,59,PB7*%
%TO.N,unconnected-(U201-PB7-Pad59)*%
X154428000Y-76214400D03*
%TO.P,U201,60,BOOT0*%
%TO.N,/STM32/BOOT0*%
X153928000Y-76214400D03*
%TO.P,U201,61,PB8*%
%TO.N,unconnected-(U201-PB8-Pad61)*%
X153428000Y-76214400D03*
%TO.P,U201,62,PB9*%
%TO.N,unconnected-(U201-PB9-Pad62)*%
X152928000Y-76214400D03*
%TO.P,U201,63,VSS*%
%TO.N,GND*%
X152428000Y-76214400D03*
%TO.P,U201,64,VDD*%
%TO.N,+3V3*%
X151928000Y-76214400D03*
%TD*%
D21*
%TO.P,TP207,1,1*%
%TO.N,GND*%
X139550000Y-91775000D03*
%TD*%
D20*
%TO.P,R205,1*%
%TO.N,+BATT*%
X173900000Y-71400000D03*
%TO.P,R205,2*%
%TO.N,Net-(U201-PA3)*%
X173900000Y-73225000D03*
%TD*%
D30*
%TO.P,J301,1,Pin_1*%
%TO.N,+5V*%
X178875000Y-111450000D03*
D31*
%TO.P,J301,2,Pin_2*%
%TO.N,Net-(J301-Pin_2)*%
X178875000Y-108910000D03*
%TD*%
D21*
%TO.P,TP205,1,1*%
%TO.N,GND*%
X175300000Y-76500000D03*
%TD*%
D12*
%TO.P,C405,1*%
%TO.N,+3V3*%
X152868800Y-50276900D03*
%TO.P,C405,2*%
%TO.N,GND*%
X152868800Y-52001900D03*
%TD*%
D32*
%TO.P,D402,1,K*%
%TO.N,+BATT*%
X186073100Y-78033100D03*
%TO.P,D402,2,A*%
%TO.N,Net-(D402-A)*%
X186073100Y-80833100D03*
%TD*%
D33*
%TO.P,Y202,1,1*%
%TO.N,Net-(C204-Pad2)*%
X137312400Y-82702400D03*
%TO.P,Y202,2,2*%
%TO.N,/STM32/HSE_OSC_IN*%
X137312400Y-78302400D03*
%TD*%
D34*
%TO.P,J402,1,VBUS*%
%TO.N,Net-(D402-A)*%
X189350000Y-80432600D03*
%TO.P,J402,2,D-*%
%TO.N,/Power/USB_D-*%
X189350000Y-79782600D03*
%TO.P,J402,3,D+*%
%TO.N,/Power/USB_D+*%
X189350000Y-79132600D03*
%TO.P,J402,4,ID*%
%TO.N,GND*%
X189350000Y-78482600D03*
%TO.P,J402,5,GND*%
X189350000Y-77832600D03*
D35*
%TO.P,J402,6,Shield*%
X192200000Y-82882600D03*
D36*
X192200000Y-80282600D03*
X192200000Y-77982600D03*
D35*
X192200000Y-75382600D03*
%TD*%
D37*
%TO.P,SW202,1,1*%
%TO.N,/STM32/NRST*%
X125950000Y-84937600D03*
X132450000Y-84937600D03*
%TO.P,SW202,2,2*%
%TO.N,GND*%
X125950000Y-89437600D03*
X132450000Y-89437600D03*
%TD*%
D30*
%TO.P,J302,1,Pin_1*%
%TO.N,/Peripherals/I2C_SCL*%
X186875000Y-91485000D03*
D31*
%TO.P,J302,2,Pin_2*%
%TO.N,/Peripherals/I2C_SDA*%
X189415000Y-91485000D03*
%TD*%
D14*
%TO.P,C212,1*%
%TO.N,+3V3*%
X145293600Y-84958500D03*
%TO.P,C212,2*%
%TO.N,GND*%
X145293600Y-83233500D03*
%TD*%
D19*
%TO.P,D403,1,K*%
%TO.N,GND*%
X184100000Y-55650000D03*
%TO.P,D403,2,A*%
%TO.N,Net-(D403-A)*%
X181300000Y-55650000D03*
%TD*%
D21*
%TO.P,TP208,1,1*%
%TO.N,/STM32/USB_OTG_ID*%
X168859200Y-77673200D03*
%TD*%
D38*
%TO.P,U401,1,GND*%
%TO.N,GND*%
X179410000Y-60655600D03*
%TO.P,U401,2,VO*%
%TO.N,+5V*%
X177110000Y-60655600D03*
D39*
X177110000Y-66955600D03*
D38*
%TO.P,U401,3,VI*%
%TO.N,+BATT*%
X174810000Y-60655600D03*
%TD*%
D40*
%TO.P,C210,1*%
%TO.N,+3V3*%
X149749700Y-74121400D03*
%TO.P,C210,2*%
%TO.N,GND*%
X151474700Y-74121400D03*
%TD*%
D41*
%TO.P,SW203,*%
%TO.N,*%
X129350000Y-61450000D03*
X129350000Y-69650000D03*
D42*
%TO.P,SW203,1,A*%
%TO.N,+3V3*%
X129350000Y-63550000D03*
D43*
%TO.P,SW203,2,B*%
%TO.N,Net-(SW203-B)*%
X129350000Y-65550000D03*
%TO.P,SW203,3,C*%
%TO.N,GND*%
X129350000Y-67550000D03*
%TD*%
D17*
%TO.P,R401,1*%
%TO.N,+5V*%
X177414800Y-55677600D03*
%TO.P,R401,2*%
%TO.N,Net-(D403-A)*%
X179239800Y-55677600D03*
%TD*%
D20*
%TO.P,R304,1*%
%TO.N,Net-(D302-A)*%
X141700000Y-111087500D03*
%TO.P,R304,2*%
%TO.N,+3V3*%
X141700000Y-112912500D03*
%TD*%
D19*
%TO.P,D404,1,K*%
%TO.N,GND*%
X160214400Y-52053600D03*
%TO.P,D404,2,A*%
%TO.N,Net-(D404-A)*%
X157414400Y-52053600D03*
%TD*%
D17*
%TO.P,R208,1*%
%TO.N,Net-(U201-PA12)*%
X181857600Y-78675400D03*
%TO.P,R208,2*%
%TO.N,/Power/USB_D+*%
X183682600Y-78675400D03*
%TD*%
D40*
%TO.P,C404,1*%
%TO.N,+5V*%
X177466700Y-57658800D03*
%TO.P,C404,2*%
%TO.N,GND*%
X179191700Y-57658800D03*
%TD*%
D44*
%TO.P,U302,1,SDO/SA0*%
%TO.N,+3V3*%
X180200000Y-92279400D03*
%TO.P,U302,2,SDx*%
%TO.N,GND*%
X179699999Y-92279400D03*
%TO.P,U302,3,SCx*%
X179199999Y-92279400D03*
%TO.P,U302,4,INT1*%
%TO.N,/Peripherals/LSM_INT1*%
X178699998Y-92279400D03*
D45*
%TO.P,U302,5,VDDIO*%
%TO.N,+3V3*%
X178493699Y-92989701D03*
%TO.P,U302,6,GND*%
%TO.N,GND*%
X178493699Y-93489700D03*
%TO.P,U302,7,GND*%
X178493699Y-93989699D03*
D44*
%TO.P,U302,8,VDD*%
%TO.N,+3V3*%
X178699998Y-94700000D03*
%TO.P,U302,9,INT2*%
%TO.N,/Peripherals/LSM_INT2*%
X179199999Y-94700000D03*
%TO.P,U302,10,OCS_Aux*%
%TO.N,unconnected-(U302-OCS_Aux-Pad10)*%
X179699999Y-94700000D03*
%TO.P,U302,11,SDO_Aux*%
%TO.N,unconnected-(U302-SDO_Aux-Pad11)*%
X180200000Y-94700000D03*
D45*
%TO.P,U302,12,CS*%
%TO.N,+3V3*%
X180406299Y-93989699D03*
%TO.P,U302,13,SCL*%
%TO.N,/Peripherals/I2C_SCL*%
X180406299Y-93489700D03*
%TO.P,U302,14,SDA*%
%TO.N,/Peripherals/I2C_SDA*%
X180406299Y-92989701D03*
%TD*%
D11*
%TO.P,C209,1*%
%TO.N,+3V3*%
X161238100Y-89712800D03*
%TO.P,C209,2*%
%TO.N,GND*%
X159513100Y-89712800D03*
%TD*%
D21*
%TO.P,TP203,1,1*%
%TO.N,/Peripherals/Buzzer_ON*%
X169800000Y-103650000D03*
%TD*%
D30*
%TO.P,J202,1,Pin_1*%
%TO.N,/STM32/PB8*%
X152660000Y-111000000D03*
D31*
%TO.P,J202,2,Pin_2*%
%TO.N,/STM32/PB9*%
X155200000Y-111000000D03*
%TD*%
D17*
%TO.P,R207,1*%
%TO.N,Net-(U201-PA11)*%
X181859500Y-80301000D03*
%TO.P,R207,2*%
%TO.N,/Power/USB_D-*%
X183684500Y-80301000D03*
%TD*%
D40*
%TO.P,C301,1*%
%TO.N,+3V3*%
X181255500Y-89255600D03*
%TO.P,C301,2*%
%TO.N,GND*%
X182980500Y-89255600D03*
%TD*%
D27*
%TO.P,H103,1,1*%
%TO.N,unconnected-(H103-Pad1)*%
X187622000Y-109200000D03*
%TD*%
D30*
%TO.P,J201,1,Pin_1*%
%TO.N,/STM32/PC4*%
X159660000Y-111000000D03*
D31*
%TO.P,J201,2,Pin_2*%
%TO.N,/STM32/PC5*%
X162200000Y-111000000D03*
%TD*%
D20*
%TO.P,R303,1*%
%TO.N,Net-(D301-A)*%
X145700000Y-111087500D03*
%TO.P,R303,2*%
%TO.N,+3V3*%
X145700000Y-112912500D03*
%TD*%
D17*
%TO.P,R202,1*%
%TO.N,Net-(R201-Pad1)*%
X135402700Y-74160800D03*
%TO.P,R202,2*%
%TO.N,/STM32/WAKEUP*%
X137227700Y-74160800D03*
%TD*%
D46*
%TO.P,U303,1,GND*%
%TO.N,GND*%
X169200000Y-97887500D03*
%TO.P,U303,2,RESERVED*%
%TO.N,+3V3*%
X169700000Y-97887500D03*
%TO.P,U303,3,GND*%
%TO.N,GND*%
X170200000Y-97887500D03*
%TO.P,U303,4,GND*%
X170700000Y-97887500D03*
%TO.P,U303,5,VS*%
%TO.N,+3V3*%
X171200000Y-97887500D03*
%TO.P,U303,6,nCS*%
X171700000Y-97887500D03*
%TO.P,U303,7,RESERVED*%
%TO.N,unconnected-(U303-RESERVED-Pad7)*%
X172200000Y-97887500D03*
%TO.P,U303,8,NC*%
%TO.N,unconnected-(U303-NC-Pad8)*%
X172700000Y-97887500D03*
D47*
%TO.P,U303,9,NC*%
%TO.N,unconnected-(U303-NC-Pad9)*%
X173387500Y-97200000D03*
%TO.P,U303,10,NC*%
%TO.N,unconnected-(U303-NC-Pad10)*%
X173387500Y-96700000D03*
%TO.P,U303,11,NC*%
%TO.N,unconnected-(U303-NC-Pad11)*%
X173387500Y-96200000D03*
%TO.P,U303,12,NC*%
%TO.N,unconnected-(U303-NC-Pad12)*%
X173387500Y-95700000D03*
%TO.P,U303,13,NC*%
%TO.N,unconnected-(U303-NC-Pad13)*%
X173387500Y-95200000D03*
%TO.P,U303,14,NC*%
%TO.N,unconnected-(U303-NC-Pad14)*%
X173387500Y-94700000D03*
%TO.P,U303,15,NC*%
%TO.N,unconnected-(U303-NC-Pad15)*%
X173387500Y-94200000D03*
%TO.P,U303,16,NC*%
%TO.N,unconnected-(U303-NC-Pad16)*%
X173387500Y-93700000D03*
D46*
%TO.P,U303,17,NC*%
%TO.N,unconnected-(U303-NC-Pad17)*%
X172700000Y-93012500D03*
%TO.P,U303,18,NC*%
%TO.N,unconnected-(U303-NC-Pad18)*%
X172200000Y-93012500D03*
%TO.P,U303,19,NC*%
%TO.N,unconnected-(U303-NC-Pad19)*%
X171700000Y-93012500D03*
%TO.P,U303,20,INT1*%
%TO.N,/Peripherals/ADX_INT1*%
X171200000Y-93012500D03*
%TO.P,U303,21,INT2*%
%TO.N,/Peripherals/ADX_INT2*%
X170700000Y-93012500D03*
%TO.P,U303,22,RESERVED*%
%TO.N,GND*%
X170200000Y-93012500D03*
%TO.P,U303,23,SDO/ALT_ADDR*%
%TO.N,+3V3*%
X169700000Y-93012500D03*
%TO.P,U303,24,SDA/SDI/SDIO*%
%TO.N,/Peripherals/I2C_SDA*%
X169200000Y-93012500D03*
D47*
%TO.P,U303,25,NC*%
%TO.N,unconnected-(U303-NC-Pad25)*%
X168512500Y-93700000D03*
%TO.P,U303,26,SCL/SCLK*%
%TO.N,/Peripherals/I2C_SCL*%
X168512500Y-94200000D03*
%TO.P,U303,27,NC*%
%TO.N,unconnected-(U303-NC-Pad27)*%
X168512500Y-94700000D03*
%TO.P,U303,28,NC*%
%TO.N,unconnected-(U303-NC-Pad28)*%
X168512500Y-95200000D03*
%TO.P,U303,29,NC*%
%TO.N,unconnected-(U303-NC-Pad29)*%
X168512500Y-95700000D03*
%TO.P,U303,30,NC*%
%TO.N,unconnected-(U303-NC-Pad30)*%
X168512500Y-96200000D03*
%TO.P,U303,31,VDDIO*%
%TO.N,+3V3*%
X168512500Y-96700000D03*
%TO.P,U303,32,NC*%
%TO.N,unconnected-(U303-NC-Pad32)*%
X168512500Y-97200000D03*
D48*
%TO.P,U303,33*%
%TO.N,N/C*%
X170950000Y-95450000D03*
%TD*%
D14*
%TO.P,C204,1*%
%TO.N,GND*%
X140372200Y-83107700D03*
%TO.P,C204,2*%
%TO.N,Net-(C204-Pad2)*%
X140372200Y-81382700D03*
%TD*%
%TO.P,C211,1*%
%TO.N,+3V3*%
X146970000Y-84958500D03*
%TO.P,C211,2*%
%TO.N,GND*%
X146970000Y-83233500D03*
%TD*%
D37*
%TO.P,SW201,1,1*%
%TO.N,+3V3*%
X132450000Y-79552800D03*
X125950000Y-79552800D03*
%TO.P,SW201,2,2*%
%TO.N,Net-(R201-Pad1)*%
X132450000Y-75052800D03*
X125950000Y-75052800D03*
%TD*%
D20*
%TO.P,R306,1*%
%TO.N,Net-(D304-A)*%
X133700000Y-111087500D03*
%TO.P,R306,2*%
%TO.N,+3V3*%
X133700000Y-112912500D03*
%TD*%
D12*
%TO.P,C203,1*%
%TO.N,GND*%
X140372200Y-77928300D03*
%TO.P,C203,2*%
%TO.N,/STM32/HSE_OSC_IN*%
X140372200Y-79653300D03*
%TD*%
D21*
%TO.P,TP202,1,1*%
%TO.N,/Peripherals/I2C_SCL*%
X175500000Y-86900000D03*
%TD*%
D14*
%TO.P,C202,1*%
%TO.N,GND*%
X144840000Y-78992900D03*
%TO.P,C202,2*%
%TO.N,/STM32/LSE_OSC_OUT*%
X144840000Y-77267900D03*
%TD*%
D26*
%TO.P,R301,1*%
%TO.N,+3V3*%
X166624000Y-86408900D03*
%TO.P,R301,2*%
%TO.N,/Peripherals/I2C_SDA*%
X166624000Y-84583900D03*
%TD*%
D49*
%TO.P,U301,1,VDDIO*%
%TO.N,+3V3*%
X181668237Y-87178374D03*
%TO.P,U301,2,SCK*%
%TO.N,/Peripherals/I2C_SCL*%
X182168363Y-87178374D03*
D50*
%TO.P,U301,3,VSS*%
%TO.N,GND*%
X182667600Y-86929200D03*
%TO.P,U301,4,SDI*%
%TO.N,/Peripherals/I2C_SDA*%
X182667600Y-86429074D03*
%TO.P,U301,5,SDO*%
%TO.N,GND*%
X182667600Y-85928948D03*
D49*
%TO.P,U301,6,CSB*%
%TO.N,/Peripherals/BME_CS*%
X182168363Y-85679774D03*
%TO.P,U301,7,INT*%
%TO.N,/Peripherals/BME_INT*%
X181668237Y-85679774D03*
D50*
%TO.P,U301,8,VSS*%
%TO.N,GND*%
X181169000Y-85928948D03*
%TO.P,U301,9,VSS*%
X181169000Y-86429074D03*
%TO.P,U301,10,VDD*%
%TO.N,+3V3*%
X181169000Y-86929200D03*
%TD*%
D12*
%TO.P,C205,1*%
%TO.N,/STM32/NRST*%
X135686800Y-85294300D03*
%TO.P,C205,2*%
%TO.N,GND*%
X135686800Y-87019300D03*
%TD*%
D20*
%TO.P,R209,1*%
%TO.N,+3V3*%
X151544800Y-62242000D03*
%TO.P,R209,2*%
%TO.N,Net-(D201-A)*%
X151544800Y-64067000D03*
%TD*%
D12*
%TO.P,C213,1*%
%TO.N,+3V3*%
X165658800Y-76912300D03*
%TO.P,C213,2*%
%TO.N,GND*%
X165658800Y-78637300D03*
%TD*%
D27*
%TO.P,H102,1,1*%
%TO.N,unconnected-(H102-Pad1)*%
X187622000Y-49256000D03*
%TD*%
D30*
%TO.P,J203,1,Pin_1*%
%TO.N,GND*%
X167100000Y-53480000D03*
D31*
%TO.P,J203,2,Pin_2*%
%TO.N,+3V3*%
X164560000Y-53480000D03*
%TO.P,J203,3,Pin_3*%
%TO.N,/STM32/JTMS{slash}SWDIO*%
X167100000Y-56020000D03*
%TO.P,J203,4,Pin_4*%
%TO.N,/STM32/JTAG_CON*%
X164560000Y-56020000D03*
%TO.P,J203,5,Pin_5*%
%TO.N,/STM32/JTCK{slash}SWCLK*%
X167100000Y-58560000D03*
%TO.P,J203,6,Pin_6*%
%TO.N,/STM32/NJTRST*%
X164560000Y-58560000D03*
%TO.P,J203,7,Pin_7*%
%TO.N,/STM32/JTDI*%
X167100000Y-61100000D03*
%TO.P,J203,8,Pin_8*%
%TO.N,/STM32/JTDO{slash}TRACESWO*%
X164560000Y-61100000D03*
%TO.P,J203,9,Pin_9*%
%TO.N,Net-(J203-Pin_9)*%
X167100000Y-63640000D03*
%TO.P,J203,10,Pin_10*%
%TO.N,Net-(J203-Pin_10)*%
X164560000Y-63640000D03*
%TD*%
D12*
%TO.P,C206,1*%
%TO.N,+3V3*%
X139265200Y-72433100D03*
%TO.P,C206,2*%
%TO.N,/STM32/WAKEUP*%
X139265200Y-74158100D03*
%TD*%
D20*
%TO.P,R302,1*%
%TO.N,+3V3*%
X168402000Y-83720300D03*
%TO.P,R302,2*%
%TO.N,/Peripherals/I2C_SCL*%
X168402000Y-85545300D03*
%TD*%
D30*
%TO.P,J401,1,Pin_1*%
%TO.N,Net-(D401-A)*%
X172239400Y-50071000D03*
D31*
%TO.P,J401,2,Pin_2*%
%TO.N,Net-(J401-Pin_2)*%
X172239400Y-47531000D03*
%TD*%
D11*
%TO.P,C303,1*%
%TO.N,+3V3*%
X178362500Y-96800000D03*
%TO.P,C303,2*%
%TO.N,GND*%
X176637500Y-96800000D03*
%TD*%
D27*
%TO.P,H101,1,1*%
%TO.N,unconnected-(H101-Pad1)*%
X127678000Y-49256000D03*
%TD*%
D13*
%TO.P,D302,1,K*%
%TO.N,/Peripherals/LED2*%
X141700000Y-105600000D03*
%TO.P,D302,2,A*%
%TO.N,Net-(D302-A)*%
X141700000Y-108400000D03*
%TD*%
D51*
%TO.P,U402,1,GND*%
%TO.N,GND*%
X149872000Y-52220200D03*
%TO.P,U402,2,VO*%
%TO.N,+3V3*%
X149872000Y-49920200D03*
D52*
X143572000Y-49920200D03*
D51*
%TO.P,U402,3,VI*%
%TO.N,+BATT*%
X149872000Y-47620200D03*
%TD*%
D53*
%TO.P,D401,1,K*%
%TO.N,+BATT*%
X175100000Y-55248800D03*
%TO.P,D401,2,A*%
%TO.N,Net-(D401-A)*%
X172300000Y-55248800D03*
%TD*%
D30*
%TO.P,SW401,1,A*%
%TO.N,Net-(J401-Pin_2)*%
X180200000Y-47460000D03*
D31*
%TO.P,SW401,2,B*%
%TO.N,GND*%
X180200000Y-50000000D03*
%TD*%
D21*
%TO.P,TP403,1,1*%
%TO.N,+3V3*%
X137100000Y-54850000D03*
%TD*%
D14*
%TO.P,C403,1*%
%TO.N,+BATT*%
X152868800Y-47634200D03*
%TO.P,C403,2*%
%TO.N,GND*%
X152868800Y-45909200D03*
%TD*%
D11*
%TO.P,C208,1*%
%TO.N,+3V3*%
X152551300Y-91490800D03*
%TO.P,C208,2*%
%TO.N,GND*%
X150826300Y-91490800D03*
%TD*%
D54*
%TO.N,GND*%
X190676000Y-78107400D03*
X183000000Y-90450000D03*
X135686800Y-88239600D03*
X180652000Y-58370000D03*
X170150000Y-71450000D03*
X143922000Y-83283200D03*
X185434400Y-55659200D03*
X177550000Y-85900000D03*
X150825200Y-92760800D03*
X166928800Y-78638400D03*
X180652000Y-57506400D03*
X160214400Y-53853600D03*
X175057200Y-105542800D03*
X184000000Y-85000000D03*
X173082800Y-56468000D03*
X189376000Y-76948200D03*
X177950000Y-90450000D03*
X158038800Y-103632000D03*
X190625200Y-75313400D03*
X145796000Y-78994000D03*
X171634100Y-90393200D03*
X168512500Y-98018000D03*
X151587200Y-72796400D03*
X140360400Y-76606400D03*
X159410400Y-91033600D03*
X146262400Y-73812400D03*
X178750000Y-91150000D03*
X190676000Y-82984200D03*
X152157600Y-53476200D03*
X176650000Y-98000000D03*
X175550000Y-95850000D03*
X141782800Y-83108800D03*
X170400000Y-99150000D03*
X190676000Y-80241000D03*
X153021200Y-53476200D03*
X185420000Y-87528400D03*
X138415200Y-75945600D03*
X156120000Y-45907000D03*
%TO.N,+3V3*%
X156120000Y-50275800D03*
X181600000Y-95350000D03*
X152742800Y-62258800D03*
X166928800Y-76911200D03*
X175600000Y-91550000D03*
X170334100Y-90543200D03*
X154228800Y-94081600D03*
X171600000Y-99150000D03*
X141235600Y-48599400D03*
X138065200Y-72445600D03*
X137672800Y-114273200D03*
X143922000Y-84908800D03*
X141235600Y-49869400D03*
X169570400Y-83921600D03*
X182000000Y-91050000D03*
X181250000Y-90350000D03*
X141235600Y-51088600D03*
X145682400Y-114265200D03*
X169150000Y-99200000D03*
X165404800Y-86410800D03*
X133673600Y-114264400D03*
X161239200Y-91033600D03*
X141682400Y-114265200D03*
X149758400Y-72796400D03*
X178400000Y-98000000D03*
X167140900Y-96697200D03*
X152552400Y-92760800D03*
%TO.N,+5V*%
X177100000Y-69250000D03*
X175830000Y-69250000D03*
X177502400Y-54356800D03*
X178319200Y-69250000D03*
%TO.N,/Peripherals/LED3*%
X155041600Y-83159600D03*
X147218400Y-89255600D03*
%TO.N,/Peripherals/LED2*%
X153924000Y-82143600D03*
X146304000Y-88442800D03*
%TO.N,/Peripherals/LED1*%
X152704800Y-81584800D03*
X145288000Y-87680800D03*
%TO.N,/Peripherals/LED0*%
X151485600Y-81076800D03*
X144272000Y-86868000D03*
%TO.N,+BATT*%
X175267200Y-53205600D03*
X175750000Y-72600000D03*
X156323200Y-47177000D03*
X156323200Y-48091400D03*
X167900000Y-72600000D03*
X186060500Y-76650000D03*
X174454400Y-53205600D03*
%TO.N,/STM32/PB8*%
X152950000Y-85750000D03*
%TO.N,/STM32/PB9*%
X153950000Y-85350000D03*
%TO.N,/STM32/PC4*%
X155702000Y-89408000D03*
%TO.N,/STM32/PC5*%
X156362400Y-86004400D03*
%TO.N,/Peripherals/I2C_SDA*%
X184302400Y-86410800D03*
X182200000Y-92250000D03*
X179350000Y-89350000D03*
X169223700Y-91160000D03*
%TO.N,/Peripherals/I2C_SCL*%
X184404000Y-88138000D03*
X182322800Y-93463200D03*
X169800000Y-86750000D03*
X168200000Y-90312500D03*
%TO.N,/STM32/QuadSPI_IO2*%
X156768800Y-101447600D03*
X155702000Y-92862400D03*
%TO.N,/STM32/QuadSPI_IO1*%
X155752800Y-90932000D03*
X155549600Y-101346000D03*
%TO.N,/STM32/QuadSPI_IO0*%
X158038800Y-93624400D03*
X156464000Y-92100400D03*
%TO.N,/STM32/USB_OTG_ID*%
X168757600Y-80924400D03*
%TO.N,/STM32/QuadSPI_NCS*%
X154228800Y-103632000D03*
X158902400Y-101447600D03*
%TO.N,/Peripherals/BME_CS*%
X182727600Y-83718400D03*
X166522400Y-83007200D03*
%TO.N,/Peripherals/BME_INT*%
X181051200Y-83108800D03*
X164998400Y-81838800D03*
%TO.N,/Peripherals/LSM_INT1*%
X165100000Y-83820000D03*
X167900000Y-86650000D03*
%TO.N,/Peripherals/LSM_INT2*%
X167900000Y-87700000D03*
X159150000Y-81700000D03*
X179522800Y-96463200D03*
X176954800Y-91650000D03*
%TO.N,Net-(U201-PA3)*%
X168650000Y-73850000D03*
X150350000Y-87550000D03*
%TO.N,/Peripherals/ADX_INT1*%
X173184100Y-91893200D03*
X159350000Y-83150000D03*
%TO.N,/Peripherals/ADX_INT2*%
X172784100Y-90943200D03*
X162850000Y-83700000D03*
%TD*%
D55*
%TO.N,/STM32/NRST*%
X150003000Y-81139400D02*
X145446276Y-81139400D01*
X144235676Y-82350000D02*
X143694300Y-82350000D01*
X145446276Y-81139400D02*
X144235676Y-82350000D01*
X140750000Y-85294300D02*
X135686800Y-85294300D01*
X143694300Y-82350000D02*
X140750000Y-85294300D01*
%TO.N,GND*%
X170200000Y-91877300D02*
X171634100Y-90443200D01*
X183960000Y-85090000D02*
X184000000Y-85050000D01*
X182667600Y-85928948D02*
X183107852Y-85928948D01*
X185027400Y-87135800D02*
X185420000Y-87528400D01*
X182667600Y-86929200D02*
X182874200Y-87135800D01*
X182874200Y-87135800D02*
X185027400Y-87135800D01*
X171634100Y-90443200D02*
X171634100Y-90393200D01*
X183946800Y-85090000D02*
X183960000Y-85090000D01*
X184000000Y-85050000D02*
X184000000Y-85000000D01*
X170200000Y-93012500D02*
X170200000Y-91877300D01*
X183107852Y-85928948D02*
X183946800Y-85090000D01*
%TO.N,+3V3*%
X169700000Y-91709005D02*
X170334100Y-91074905D01*
X169700000Y-93012500D02*
X169700000Y-91709005D01*
D56*
X180770600Y-92279400D02*
X182000000Y-91050000D01*
D55*
X170334100Y-91074905D02*
X170334100Y-90543200D01*
D56*
X180200000Y-92279400D02*
X180770600Y-92279400D01*
D55*
%TO.N,/STM32/WAKEUP*%
X150003000Y-78639400D02*
X149160236Y-78639400D01*
X149160236Y-78639400D02*
X147269200Y-76748364D01*
X147269200Y-76748364D02*
X147269200Y-73406000D01*
X140677700Y-72745600D02*
X139265200Y-74158100D01*
X146608800Y-72745600D02*
X140677700Y-72745600D01*
X147269200Y-73406000D02*
X146608800Y-72745600D01*
%TO.N,/STM32/LSE_OSC_IN*%
X148440900Y-79139400D02*
X144840000Y-75538500D01*
X150003000Y-79139400D02*
X148440900Y-79139400D01*
%TO.N,/STM32/LSE_OSC_OUT*%
X150003000Y-79639400D02*
X147508200Y-79639400D01*
X147508200Y-79639400D02*
X145136700Y-77267900D01*
%TO.N,/STM32/HSE_OSC_IN*%
X140858300Y-80139400D02*
X140372200Y-79653300D01*
X150003000Y-80139400D02*
X140858300Y-80139400D01*
%TO.N,/STM32/JTAG_CON*%
X155428000Y-65250000D02*
X164789238Y-55888762D01*
X155428000Y-76214400D02*
X155428000Y-65250000D01*
%TO.N,/Peripherals/LED3*%
X147218400Y-93331600D02*
X147218400Y-89255600D01*
X155021400Y-83139400D02*
X155041600Y-83159600D01*
X145700000Y-94850000D02*
X147218400Y-93331600D01*
X145700000Y-105600000D02*
X145700000Y-94850000D01*
X150003000Y-83139400D02*
X155021400Y-83139400D01*
%TO.N,/Peripherals/LED2*%
X153479000Y-82639400D02*
X153924000Y-82194400D01*
X150003000Y-82639400D02*
X153479000Y-82639400D01*
X153924000Y-82194400D02*
X153924000Y-82143600D01*
X146304000Y-88442800D02*
X146304000Y-93609604D01*
X153974800Y-82143600D02*
X153873200Y-82245200D01*
X141700000Y-98213604D02*
X141700000Y-105600000D01*
X146304000Y-93609604D02*
X141700000Y-98213604D01*
X153924000Y-82143600D02*
X153974800Y-82143600D01*
%TO.N,/Peripherals/LED1*%
X150003000Y-82139400D02*
X152150200Y-82139400D01*
X145288000Y-93989208D02*
X137700000Y-101577208D01*
X152150200Y-82139400D02*
X152704800Y-81584800D01*
X137700000Y-101577208D02*
X137700000Y-105600000D01*
X145288000Y-87680800D02*
X145288000Y-93989208D01*
%TO.N,/Peripherals/LED0*%
X144272000Y-86868000D02*
X144272000Y-94278000D01*
X151434800Y-81076800D02*
X151485600Y-81076800D01*
X150872200Y-81639400D02*
X151434800Y-81076800D01*
X150003000Y-81639400D02*
X150872200Y-81639400D01*
X144272000Y-94278000D02*
X133700000Y-104850000D01*
X151485600Y-81026000D02*
X151434800Y-81076800D01*
X133700000Y-104850000D02*
X133700000Y-105600000D01*
X151485600Y-81076800D02*
X151485600Y-81026000D01*
D57*
%TO.N,+BATT*%
X167900000Y-67600000D02*
X174810000Y-60690000D01*
D55*
X175750000Y-72600000D02*
X175100000Y-72600000D01*
X175100000Y-72600000D02*
X173900000Y-71400000D01*
D57*
X167900000Y-67600000D02*
X167900000Y-72600000D01*
D55*
%TO.N,/STM32/PB8*%
X153428000Y-86178000D02*
X153000000Y-85750000D01*
X152950000Y-85700000D02*
X153000000Y-85750000D01*
X153000000Y-85750000D02*
X152950000Y-85750000D01*
X152950000Y-85750000D02*
X152950000Y-85700000D01*
X153428000Y-87564400D02*
X153428000Y-86178000D01*
%TO.N,/STM32/PB9*%
X153928000Y-87564400D02*
X153950000Y-85350000D01*
%TO.N,/STM32/JTMS{slash}SWDIO*%
X160253000Y-73519493D02*
X160253000Y-78882164D01*
X160253000Y-78882164D02*
X160510236Y-79139400D01*
X160510236Y-79139400D02*
X161353000Y-79139400D01*
X169682438Y-58241962D02*
X169682438Y-64090055D01*
X167329238Y-55888762D02*
X169682438Y-58241962D01*
X169682438Y-64090055D02*
X160253000Y-73519493D01*
%TO.N,/STM32/JTCK{slash}SWCLK*%
X169232438Y-60331962D02*
X167329238Y-58428762D01*
X159428000Y-76214400D02*
X159428000Y-73708097D01*
X159428000Y-73708097D02*
X169232438Y-63903659D01*
X169232438Y-63903659D02*
X169232438Y-60331962D01*
%TO.N,/STM32/JTDO{slash}TRACESWO*%
X162820446Y-60968762D02*
X164789238Y-60968762D01*
X156428000Y-76214400D02*
X156428000Y-67361208D01*
X156428000Y-67361208D02*
X162820446Y-60968762D01*
%TO.N,/STM32/JTDI*%
X158928000Y-73571701D02*
X168782438Y-63717263D01*
X158928000Y-76214400D02*
X158928000Y-73571701D01*
X168782438Y-63717263D02*
X168782438Y-62421962D01*
X168782438Y-62421962D02*
X167329238Y-60968762D01*
%TO.N,/STM32/NJTRST*%
X155928000Y-76214400D02*
X155928000Y-68871596D01*
X155939200Y-67160800D02*
X164548838Y-58551162D01*
X155928000Y-68871596D02*
X155939200Y-68871596D01*
X155939200Y-68871596D02*
X155939200Y-67160800D01*
%TO.N,/STM32/PC4*%
X155428000Y-87564400D02*
X155428000Y-89134000D01*
X155428000Y-89134000D02*
X155702000Y-89408000D01*
%TO.N,/STM32/PC5*%
X155928000Y-86337200D02*
X156260800Y-86004400D01*
X156260800Y-86004400D02*
X156362400Y-86004400D01*
X156362400Y-85902800D02*
X156311600Y-85953600D01*
X155928000Y-87564400D02*
X155928000Y-86337200D01*
X156362400Y-86004400D02*
X156362400Y-85902800D01*
%TO.N,/Peripherals/Buzzer_ON*%
X164050000Y-97975305D02*
X169724695Y-103650000D01*
X161353000Y-85639400D02*
X164050000Y-88336400D01*
X164050000Y-88336400D02*
X164050000Y-97975305D01*
X177007200Y-103650000D02*
X169800000Y-103650000D01*
%TO.N,/STM32/BOOT0*%
X153923235Y-69728000D02*
X152545235Y-68350000D01*
X153928000Y-76214400D02*
X153928000Y-69728000D01*
X153928000Y-69728000D02*
X153923235Y-69728000D01*
%TO.N,/STM32/HSE_OSC_OUT*%
X150003000Y-80639400D02*
X144656700Y-80639400D01*
X144656700Y-80639400D02*
X143914500Y-81381600D01*
D56*
%TO.N,/Peripherals/I2C_SDA*%
X184302400Y-86410800D02*
X185542881Y-86410800D01*
X180406299Y-92989701D02*
X181460299Y-92989701D01*
X185542881Y-86410800D02*
X189415000Y-90282919D01*
D55*
X169223700Y-91160000D02*
X169223700Y-92988800D01*
D56*
X175449200Y-85449200D02*
X175449200Y-84614000D01*
X189415000Y-90282919D02*
X189415000Y-91485000D01*
X161353000Y-84639400D02*
X166568500Y-84639400D01*
D55*
X169223700Y-92988800D02*
X169200000Y-93012500D01*
D56*
X179350000Y-89350000D02*
X175449200Y-85449200D01*
X181460299Y-92989701D02*
X182200000Y-92250000D01*
X166661700Y-84621600D02*
X175441600Y-84621600D01*
X184302400Y-86410800D02*
X182685874Y-86410800D01*
D55*
%TO.N,/Peripherals/I2C_SCL*%
X161353000Y-85139400D02*
X165889924Y-85139400D01*
D56*
X184404000Y-88138000D02*
X186875000Y-90609000D01*
X180406299Y-93489700D02*
X182296300Y-93489700D01*
X169606700Y-86750000D02*
X168402000Y-85545300D01*
D55*
X165889924Y-85139400D02*
X166295824Y-85545300D01*
D56*
X175500000Y-86900000D02*
X169950000Y-86900000D01*
X183138000Y-88138000D02*
X184404000Y-88138000D01*
X168060614Y-94200000D02*
X168512500Y-94200000D01*
X169950000Y-86900000D02*
X169800000Y-86750000D01*
X169800000Y-86750000D02*
X169606700Y-86750000D01*
X186875000Y-90609000D02*
X186875000Y-91485000D01*
X182296300Y-93489700D02*
X182322800Y-93463200D01*
X167550000Y-90962500D02*
X167550000Y-93689386D01*
X167550000Y-93689386D02*
X168060614Y-94200000D01*
D55*
X166295824Y-85545300D02*
X168402000Y-85545300D01*
D56*
X182178374Y-87178374D02*
X183138000Y-88138000D01*
X168200000Y-90312500D02*
X167550000Y-90962500D01*
D55*
X169800000Y-86750000D02*
X169800000Y-86800000D01*
%TO.N,Net-(J203-Pin_10)*%
X162818838Y-63631162D02*
X164718438Y-63631162D01*
X162818838Y-63631162D02*
X160300000Y-66150000D01*
%TO.N,/STM32/DEBUG_RX*%
X157928000Y-76214400D02*
X157928000Y-68522000D01*
X157928000Y-68522000D02*
X159380762Y-67069238D01*
%TO.N,/STM32/DEBUG_TX*%
X158428000Y-76214400D02*
X158428000Y-71699600D01*
X158428000Y-71699600D02*
X162277619Y-67849981D01*
%TO.N,Net-(SW203-B)*%
X151254765Y-67059530D02*
X149745235Y-65550000D01*
X149745235Y-65550000D02*
X129350000Y-65550000D01*
%TO.N,Net-(U201-PA11)*%
X181697900Y-80139400D02*
X161353000Y-80139400D01*
%TO.N,/Power/USB_D-*%
X184202900Y-79782600D02*
X183684500Y-80301000D01*
X189350000Y-79782600D02*
X184202900Y-79782600D01*
%TO.N,Net-(U201-PA12)*%
X180921100Y-79639400D02*
X161353000Y-79639400D01*
X181857600Y-78702900D02*
X180921100Y-79639400D01*
%TO.N,/Power/USB_D+*%
X189350000Y-79132600D02*
X184139800Y-79132600D01*
X184139800Y-79132600D02*
X183682600Y-78675400D01*
%TO.N,/STM32/QuadSPI_IO3*%
X154428000Y-92756800D02*
X154428000Y-87564400D01*
X155498800Y-95097600D02*
X155498800Y-93827600D01*
X155498800Y-93827600D02*
X154428000Y-92756800D01*
%TO.N,/STM32/QuadSPI_IO2*%
X156768800Y-102597600D02*
X156768800Y-101447600D01*
X154928000Y-87564400D02*
X154928000Y-91986800D01*
X154928000Y-91986800D02*
X155702000Y-92862400D01*
%TO.N,/STM32/QuadSPI_IO1*%
X155498800Y-102597600D02*
X155498800Y-101396800D01*
X156428000Y-90206000D02*
X155752800Y-90881200D01*
X155498800Y-101396800D02*
X155549600Y-101346000D01*
X155752800Y-90881200D02*
X155752800Y-90932000D01*
X156428000Y-87564400D02*
X156428000Y-90206000D01*
%TO.N,/STM32/QuadSPI_IO0*%
X156928000Y-87564400D02*
X156928000Y-91636400D01*
X158038800Y-93624400D02*
X158038800Y-95097600D01*
X156928000Y-91636400D02*
X156464000Y-92100400D01*
%TO.N,/STM32/USB_OTG_ID*%
X168472600Y-80639400D02*
X168757600Y-80924400D01*
X161353000Y-80639400D02*
X168472600Y-80639400D01*
%TO.N,/STM32/QuadSPI_CLK*%
X156768800Y-93014800D02*
X157928000Y-91855600D01*
X157928000Y-91855600D02*
X157928000Y-87564400D01*
X156768800Y-95097600D02*
X156768800Y-93014800D01*
%TO.N,/STM32/QuadSPI_NCS*%
X158428000Y-87564400D02*
X158428000Y-92794400D01*
X154228800Y-103632000D02*
X154228800Y-102597600D01*
X158428000Y-92794400D02*
X158902400Y-93268800D01*
X158902400Y-93268800D02*
X158902400Y-101447600D01*
%TO.N,/Peripherals/BME_CS*%
X182168363Y-84175163D02*
X182625126Y-83718400D01*
X182727600Y-83718400D02*
X182727600Y-83615926D01*
X163773695Y-81639400D02*
X164887495Y-82753200D01*
X182168363Y-85679774D02*
X182168363Y-84175163D01*
X182625126Y-83718400D02*
X182727600Y-83718400D01*
X182727600Y-83615926D02*
X182625126Y-83718400D01*
X164887495Y-82753200D02*
X166522400Y-83007200D01*
X161353000Y-81639400D02*
X163773695Y-81639400D01*
%TO.N,/Peripherals/BME_INT*%
X181051200Y-83058000D02*
X181102000Y-83108800D01*
X161353000Y-81139400D02*
X164299000Y-81139400D01*
X181051200Y-83108800D02*
X181051200Y-83058000D01*
X181668237Y-83675037D02*
X181102000Y-83108800D01*
X181668237Y-85679774D02*
X181668237Y-83675037D01*
X164299000Y-81139400D02*
X164998400Y-81838800D01*
X181102000Y-83108800D02*
X181051200Y-83108800D01*
D56*
%TO.N,/Peripherals/LSM_INT1*%
X169235600Y-87985600D02*
X167900000Y-86650000D01*
D55*
X163419400Y-82139400D02*
X165100000Y-83820000D01*
D56*
X178699998Y-92279400D02*
X174406198Y-87985600D01*
X174406198Y-87985600D02*
X169235600Y-87985600D01*
D55*
X161353000Y-82139400D02*
X163419400Y-82139400D01*
%TO.N,/Peripherals/LSM_INT2*%
X168625000Y-88475000D02*
X167900000Y-87750000D01*
D56*
X179199999Y-94700000D02*
X179199999Y-96140399D01*
D55*
X168644300Y-88455700D02*
X173760500Y-88455700D01*
D56*
X179199999Y-96140399D02*
X179522800Y-96463200D01*
D55*
X173760500Y-88455700D02*
X176954800Y-91650000D01*
X160089400Y-82639400D02*
X161353000Y-82639400D01*
X167900000Y-87750000D02*
X167900000Y-87700000D01*
X159150000Y-81700000D02*
X160089400Y-82639400D01*
%TO.N,Net-(J203-Pin_9)*%
X167258438Y-63631162D02*
X163689600Y-67200000D01*
X163689600Y-67200000D02*
X162950000Y-67200000D01*
%TO.N,Net-(U201-PA3)*%
X168650000Y-73800000D02*
X168650000Y-73850000D01*
X169225000Y-73225000D02*
X168650000Y-73800000D01*
X172000000Y-73225000D02*
X169225000Y-73225000D01*
X150350000Y-87550000D02*
X151913600Y-87550000D01*
%TO.N,/Peripherals/ADX_INT1*%
X171832060Y-91893200D02*
X173184100Y-91893200D01*
X171200000Y-92525260D02*
X171832060Y-91893200D01*
X159360600Y-83139400D02*
X161353000Y-83139400D01*
X159350000Y-83150000D02*
X159360600Y-83139400D01*
X171200000Y-93012500D02*
X171200000Y-92525260D01*
%TO.N,/Peripherals/ADX_INT2*%
X170700000Y-92388864D02*
X171945664Y-91143200D01*
X161353000Y-83639400D02*
X162839400Y-83639400D01*
X170700000Y-93012500D02*
X170700000Y-92388864D01*
X171945664Y-91143200D02*
X172784100Y-90943200D01*
%TD*%
%TA.AperFunction,Conductor*%
%TO.N,+3V3*%
G36*
X166989156Y-76352605D02*
G01*
X167008913Y-76355205D01*
X167113884Y-76369025D01*
X167119922Y-76370643D01*
X167234683Y-76418179D01*
X167240107Y-76421311D01*
X167338646Y-76496923D01*
X167343076Y-76501353D01*
X167418688Y-76599892D01*
X167421821Y-76605317D01*
X167469354Y-76720072D01*
X167470975Y-76726119D01*
X167487395Y-76850842D01*
X167487600Y-76853975D01*
X167487600Y-76968424D01*
X167487395Y-76971557D01*
X167470975Y-77096280D01*
X167469353Y-77102332D01*
X167421821Y-77217082D01*
X167418688Y-77222507D01*
X167343076Y-77321046D01*
X167338646Y-77325476D01*
X167240107Y-77401088D01*
X167234682Y-77404221D01*
X167157747Y-77436089D01*
X167119929Y-77451753D01*
X167113880Y-77453375D01*
X166989157Y-77469795D01*
X166986024Y-77470000D01*
X164134800Y-77470000D01*
X164042845Y-77508127D01*
X164042831Y-77508132D01*
X162145047Y-78295019D01*
X162142826Y-78295814D01*
X162137525Y-78297423D01*
X162125872Y-78297997D01*
X162080133Y-78288900D01*
X160625869Y-78288900D01*
X160623148Y-78289442D01*
X160605135Y-78285857D01*
X160591484Y-78276735D01*
X160584863Y-78270113D01*
X160582543Y-78266640D01*
X160578500Y-78253309D01*
X160578500Y-77969621D01*
X160581914Y-77957284D01*
X160609889Y-77910611D01*
X160615550Y-77904158D01*
X160705517Y-77832758D01*
X160709112Y-77830398D01*
X163362651Y-76412127D01*
X163365316Y-76410906D01*
X163475397Y-76368445D01*
X163481081Y-76367021D01*
X163578446Y-76355013D01*
X163598180Y-76352580D01*
X163601117Y-76352400D01*
X166986024Y-76352400D01*
X166989156Y-76352605D01*
G37*
%TD.AperFunction*%
%TD*%
%TA.AperFunction,Conductor*%
%TO.N,GND*%
G36*
X185859839Y-54755285D02*
G01*
X185905594Y-54808089D01*
X185916800Y-54859600D01*
X185916800Y-56440400D01*
X185897115Y-56507439D01*
X185844311Y-56553194D01*
X185792800Y-56564400D01*
X183551600Y-56564400D01*
X183484561Y-56544715D01*
X183438806Y-56491911D01*
X183427600Y-56440400D01*
X183427600Y-54859600D01*
X183447285Y-54792561D01*
X183500089Y-54746806D01*
X183551600Y-54735600D01*
X185792800Y-54735600D01*
X185859839Y-54755285D01*
G37*
%TD.AperFunction*%
%TD*%
%TA.AperFunction,Conductor*%
%TO.N,GND*%
G36*
X135747156Y-86309405D02*
G01*
X135766913Y-86312005D01*
X135871884Y-86325825D01*
X135877922Y-86327443D01*
X135992683Y-86374979D01*
X135998107Y-86378111D01*
X136096646Y-86453723D01*
X136101076Y-86458153D01*
X136176688Y-86556692D01*
X136179821Y-86562117D01*
X136227354Y-86676872D01*
X136228975Y-86682919D01*
X136245395Y-86807642D01*
X136245600Y-86810775D01*
X136245600Y-88347624D01*
X136245395Y-88350757D01*
X136228975Y-88475480D01*
X136227353Y-88481532D01*
X136179821Y-88596282D01*
X136176688Y-88601707D01*
X136101076Y-88700246D01*
X136096646Y-88704676D01*
X135998107Y-88780288D01*
X135992682Y-88783421D01*
X135915747Y-88815289D01*
X135877929Y-88830953D01*
X135871880Y-88832575D01*
X135747157Y-88848995D01*
X135744024Y-88849200D01*
X135629576Y-88849200D01*
X135626443Y-88848995D01*
X135501719Y-88832575D01*
X135495672Y-88830954D01*
X135410630Y-88795728D01*
X135380917Y-88783421D01*
X135375492Y-88780288D01*
X135276953Y-88704676D01*
X135272523Y-88700246D01*
X135196911Y-88601707D01*
X135193778Y-88596282D01*
X135146243Y-88481522D01*
X135144625Y-88475484D01*
X135128205Y-88350756D01*
X135128000Y-88347624D01*
X135128000Y-86810775D01*
X135128205Y-86807643D01*
X135128530Y-86805167D01*
X135144625Y-86682913D01*
X135146242Y-86676878D01*
X135193780Y-86562112D01*
X135196911Y-86556692D01*
X135272527Y-86458148D01*
X135276948Y-86453727D01*
X135375494Y-86378109D01*
X135380912Y-86374980D01*
X135495678Y-86327442D01*
X135501713Y-86325825D01*
X135609091Y-86311689D01*
X135626444Y-86309405D01*
X135629576Y-86309200D01*
X135744024Y-86309200D01*
X135747156Y-86309405D01*
G37*
%TD.AperFunction*%
%TD*%
%TA.AperFunction,Conductor*%
%TO.N,GND*%
G36*
X140369956Y-75997005D02*
G01*
X140389713Y-75999605D01*
X140494684Y-76013425D01*
X140500722Y-76015043D01*
X140615483Y-76062579D01*
X140620907Y-76065711D01*
X140719446Y-76141323D01*
X140723876Y-76145753D01*
X140799488Y-76244292D01*
X140802621Y-76249717D01*
X140850154Y-76364472D01*
X140851775Y-76370519D01*
X140868195Y-76495242D01*
X140868400Y-76498375D01*
X140868400Y-77984424D01*
X140868195Y-77987557D01*
X140851775Y-78112280D01*
X140850153Y-78118332D01*
X140802621Y-78233082D01*
X140799488Y-78238507D01*
X140723876Y-78337046D01*
X140719446Y-78341476D01*
X140620907Y-78417088D01*
X140615482Y-78420221D01*
X140538547Y-78452089D01*
X140500729Y-78467753D01*
X140494680Y-78469375D01*
X140369957Y-78485795D01*
X140366824Y-78486000D01*
X140353976Y-78486000D01*
X140350843Y-78485795D01*
X140226119Y-78469375D01*
X140220072Y-78467754D01*
X140135030Y-78432528D01*
X140105317Y-78420221D01*
X140099892Y-78417088D01*
X140001353Y-78341476D01*
X139996923Y-78337046D01*
X139921311Y-78238507D01*
X139918178Y-78233082D01*
X139870643Y-78118322D01*
X139869025Y-78112284D01*
X139852605Y-77987556D01*
X139852400Y-77984424D01*
X139852400Y-76498375D01*
X139852605Y-76495243D01*
X139852930Y-76492767D01*
X139869025Y-76370513D01*
X139870642Y-76364478D01*
X139918180Y-76249712D01*
X139921311Y-76244292D01*
X139996927Y-76145748D01*
X140001348Y-76141327D01*
X140099894Y-76065709D01*
X140105312Y-76062580D01*
X140220078Y-76015042D01*
X140226113Y-76013425D01*
X140333491Y-75999289D01*
X140350844Y-75997005D01*
X140353976Y-75996800D01*
X140366824Y-75996800D01*
X140369956Y-75997005D01*
G37*
%TD.AperFunction*%
%TD*%
%TA.AperFunction,Conductor*%
%TO.N,/STM32/LSE_OSC_IN*%
G36*
X143393663Y-73863445D02*
G01*
X143529668Y-73883038D01*
X143536234Y-73884970D01*
X143659600Y-73941431D01*
X143665353Y-73945138D01*
X143769069Y-74035257D01*
X143771492Y-74037686D01*
X144586000Y-74980800D01*
X144965109Y-74980800D01*
X144968862Y-74981094D01*
X145080983Y-74998852D01*
X145088121Y-75001172D01*
X145187557Y-75051838D01*
X145193632Y-75056251D01*
X145272548Y-75135167D01*
X145276961Y-75141242D01*
X145327626Y-75240676D01*
X145329947Y-75247818D01*
X145347705Y-75359937D01*
X145348000Y-75363691D01*
X145348000Y-75690108D01*
X145347704Y-75693863D01*
X145328702Y-75813832D01*
X145326382Y-75820973D01*
X145272111Y-75927487D01*
X145267698Y-75933562D01*
X145183162Y-76018098D01*
X145177087Y-76022511D01*
X145070573Y-76076782D01*
X145063432Y-76079102D01*
X144943464Y-76098104D01*
X144939709Y-76098400D01*
X144566689Y-76098400D01*
X144565943Y-76098388D01*
X144536017Y-76097457D01*
X144534527Y-76097365D01*
X144504684Y-76094573D01*
X144503943Y-76094492D01*
X142978420Y-75903802D01*
X142130096Y-75797761D01*
X142126711Y-75797086D01*
X142038895Y-75772877D01*
X141992797Y-75760169D01*
X141986461Y-75757388D01*
X141870133Y-75684734D01*
X141864855Y-75680261D01*
X141774094Y-75577447D01*
X141770310Y-75571655D01*
X141712644Y-75447213D01*
X141710672Y-75440584D01*
X141690651Y-75303132D01*
X141690400Y-75299673D01*
X141690400Y-74364775D01*
X141690605Y-74361643D01*
X141690930Y-74359167D01*
X141707025Y-74236913D01*
X141708642Y-74230878D01*
X141756180Y-74116112D01*
X141759311Y-74110692D01*
X141834927Y-74012148D01*
X141839348Y-74007727D01*
X141937894Y-73932109D01*
X141943312Y-73928980D01*
X142058078Y-73881442D01*
X142064113Y-73879825D01*
X142171491Y-73865689D01*
X142188844Y-73863405D01*
X142191976Y-73863200D01*
X143390241Y-73863200D01*
X143393663Y-73863445D01*
G37*
%TD.AperFunction*%
%TD*%
%TA.AperFunction,Conductor*%
%TO.N,Net-(D402-A)*%
G36*
X188560349Y-80167125D02*
G01*
X188560487Y-80166794D01*
X188563573Y-80168072D01*
X188569065Y-80169685D01*
X188570917Y-80170898D01*
X188571769Y-80171467D01*
X188571770Y-80171468D01*
X188630247Y-80183099D01*
X188630250Y-80183100D01*
X189953950Y-80183100D01*
X190020989Y-80202785D01*
X190066744Y-80255589D01*
X190076889Y-80290914D01*
X190090956Y-80397761D01*
X190090956Y-80397762D01*
X190101061Y-80422157D01*
X190110500Y-80469610D01*
X190110500Y-80697460D01*
X190090815Y-80764499D01*
X190038011Y-80810254D01*
X190009784Y-80819254D01*
X186722039Y-81447794D01*
X186698755Y-81450000D01*
X185584500Y-81450000D01*
X185517461Y-81430315D01*
X185471706Y-81377511D01*
X185460500Y-81326000D01*
X185460500Y-80274000D01*
X185480185Y-80206961D01*
X185532989Y-80161206D01*
X185584500Y-80150000D01*
X188502026Y-80150000D01*
X188560349Y-80167125D01*
G37*
%TD.AperFunction*%
%TD*%
%TA.AperFunction,Conductor*%
%TO.N,+3V3*%
G36*
X144633039Y-47907885D02*
G01*
X144678794Y-47960689D01*
X144690000Y-48012200D01*
X144690000Y-51828200D01*
X144670315Y-51895239D01*
X144617511Y-51940994D01*
X144566000Y-51952200D01*
X140648400Y-51952200D01*
X140581361Y-51932515D01*
X140535606Y-51879711D01*
X140524400Y-51828200D01*
X140524400Y-48012200D01*
X140544085Y-47945161D01*
X140596889Y-47899406D01*
X140648400Y-47888200D01*
X144566000Y-47888200D01*
X144633039Y-47907885D01*
G37*
%TD.AperFunction*%
%TD*%
%TA.AperFunction,Conductor*%
%TO.N,+5V*%
G36*
X178207439Y-53868485D02*
G01*
X178253194Y-53921289D01*
X178264400Y-53972800D01*
X178264400Y-65838253D01*
X176130800Y-65839939D01*
X176130800Y-59566526D01*
X176142935Y-59513026D01*
X176689600Y-58369999D01*
X176689600Y-53972800D01*
X176709285Y-53905761D01*
X176762089Y-53860006D01*
X176813600Y-53848800D01*
X178140400Y-53848800D01*
X178207439Y-53868485D01*
G37*
%TD.AperFunction*%
%TD*%
%TA.AperFunction,Conductor*%
%TO.N,+5V*%
G36*
X179034957Y-65857329D02*
G01*
X179080754Y-65910096D01*
X179092000Y-65961697D01*
X179092000Y-69879200D01*
X179072315Y-69946239D01*
X179019511Y-69991994D01*
X178968000Y-70003200D01*
X175381400Y-70003200D01*
X175314361Y-69983515D01*
X175268606Y-69930711D01*
X175257400Y-69879200D01*
X175257400Y-68282200D01*
X171368200Y-68282200D01*
X171301161Y-68262515D01*
X171255406Y-68209711D01*
X171244200Y-68158200D01*
X171244200Y-65967702D01*
X171263885Y-65900663D01*
X171316689Y-65854908D01*
X171368101Y-65843702D01*
X178967905Y-65837698D01*
X179034957Y-65857329D01*
G37*
%TD.AperFunction*%
%TD*%
%TA.AperFunction,Conductor*%
%TO.N,Net-(J301-Pin_2)*%
G36*
X179693039Y-104169685D02*
G01*
X179738794Y-104222489D01*
X179750000Y-104274000D01*
X179750000Y-109626000D01*
X179730315Y-109693039D01*
X179677511Y-109738794D01*
X179626000Y-109750000D01*
X178124000Y-109750000D01*
X178056961Y-109730315D01*
X178011206Y-109677511D01*
X178000000Y-109626000D01*
X178000000Y-106046612D01*
X178007797Y-106007933D01*
X178006728Y-106007619D01*
X178028373Y-105933905D01*
X178028373Y-105933904D01*
X178028375Y-105933898D01*
X178036700Y-105876000D01*
X178036700Y-105209600D01*
X178032003Y-105165916D01*
X178020797Y-105114405D01*
X178018311Y-105104228D01*
X178014566Y-105097200D01*
X178000000Y-105038889D01*
X178000000Y-104274000D01*
X178019685Y-104206961D01*
X178072489Y-104161206D01*
X178124000Y-104150000D01*
X179626000Y-104150000D01*
X179693039Y-104169685D01*
G37*
%TD.AperFunction*%
%TD*%
%TA.AperFunction,Conductor*%
%TO.N,+3V3*%
G36*
X175711344Y-91100267D02*
G01*
X175853226Y-91121629D01*
X175860054Y-91123733D01*
X175987717Y-91185138D01*
X175993616Y-91189154D01*
X176097539Y-91285426D01*
X176102000Y-91291009D01*
X176173872Y-91415179D01*
X176175431Y-91418405D01*
X176375000Y-91925000D01*
X176700000Y-92750000D01*
X178622636Y-92750000D01*
X178627317Y-92750460D01*
X178706425Y-92766196D01*
X178715071Y-92769777D01*
X178780132Y-92813250D01*
X178786749Y-92819867D01*
X178823163Y-92874364D01*
X178830220Y-92884925D01*
X178833804Y-92893577D01*
X178849068Y-92970318D01*
X178849068Y-92979682D01*
X178833804Y-93056421D01*
X178830220Y-93065073D01*
X178814939Y-93087942D01*
X178799666Y-93098147D01*
X178788019Y-93097575D01*
X178783873Y-93096317D01*
X178783864Y-93096315D01*
X178724222Y-93087469D01*
X178724218Y-93087469D01*
X178221521Y-93087469D01*
X178213639Y-93086138D01*
X178199170Y-93081107D01*
X178157678Y-93066679D01*
X178148558Y-93065590D01*
X178139441Y-93064502D01*
X178139439Y-93064502D01*
X178123240Y-93065760D01*
X178059506Y-93070713D01*
X178059497Y-93070714D01*
X178009266Y-93084826D01*
X178000238Y-93087586D01*
X177998191Y-93088263D01*
X177989313Y-93091428D01*
X177709499Y-93198417D01*
X177700928Y-93200000D01*
X175519564Y-93200000D01*
X175515650Y-93199679D01*
X175360619Y-93174055D01*
X175353208Y-93171536D01*
X175216431Y-93098335D01*
X175210225Y-93093566D01*
X175203280Y-93086138D01*
X175159663Y-93039487D01*
X175102912Y-92978788D01*
X175100474Y-92975710D01*
X175045718Y-92893577D01*
X175034951Y-92877426D01*
X175033224Y-92874371D01*
X174972969Y-92746715D01*
X174970933Y-92739987D01*
X174965363Y-92702372D01*
X174950259Y-92600361D01*
X174950000Y-92596846D01*
X174950000Y-91601575D01*
X174950205Y-91598443D01*
X174950530Y-91595967D01*
X174966625Y-91473713D01*
X174968242Y-91467678D01*
X175015780Y-91352912D01*
X175018911Y-91347492D01*
X175094527Y-91248948D01*
X175098948Y-91244527D01*
X175197494Y-91168909D01*
X175202912Y-91165780D01*
X175317678Y-91118242D01*
X175323713Y-91116625D01*
X175431091Y-91102489D01*
X175448444Y-91100205D01*
X175451576Y-91100000D01*
X175707771Y-91100000D01*
X175711344Y-91100267D01*
G37*
%TD.AperFunction*%
%TD*%
%TA.AperFunction,Conductor*%
%TO.N,GND*%
G36*
X147342913Y-82673813D02*
G01*
X147469977Y-82690866D01*
X147476126Y-82692547D01*
X147573205Y-82733619D01*
X147594187Y-82742496D01*
X147597044Y-82743936D01*
X147725862Y-82820047D01*
X148105223Y-83044190D01*
X148731930Y-83414476D01*
X148731932Y-83414477D01*
X148849600Y-83484000D01*
X149243842Y-83484000D01*
X149248522Y-83484460D01*
X149275867Y-83489900D01*
X150691256Y-83489899D01*
X150697467Y-83490717D01*
X150742586Y-83502806D01*
X150753346Y-83509017D01*
X150800182Y-83555853D01*
X150806393Y-83566612D01*
X150823535Y-83630588D01*
X150823535Y-83643012D01*
X150806393Y-83706987D01*
X150800182Y-83717746D01*
X150753346Y-83764582D01*
X150742587Y-83770793D01*
X150678064Y-83788082D01*
X150671852Y-83788900D01*
X149275871Y-83788900D01*
X149275863Y-83788901D01*
X149274671Y-83789139D01*
X149269989Y-83789600D01*
X148849892Y-83789600D01*
X148849600Y-83789600D01*
X148849308Y-83789600D01*
X148163800Y-83790400D01*
X147478000Y-83791200D01*
X143864776Y-83791200D01*
X143861643Y-83790995D01*
X143736919Y-83774575D01*
X143730872Y-83772954D01*
X143645830Y-83737728D01*
X143616117Y-83725421D01*
X143610692Y-83722288D01*
X143512153Y-83646676D01*
X143507723Y-83642246D01*
X143498777Y-83630588D01*
X143432111Y-83543707D01*
X143428978Y-83538282D01*
X143414973Y-83504471D01*
X143381443Y-83423522D01*
X143379825Y-83417484D01*
X143363405Y-83292756D01*
X143363200Y-83289624D01*
X143363200Y-83175174D01*
X143363405Y-83172042D01*
X143367014Y-83144623D01*
X143373835Y-83130791D01*
X143820391Y-82684235D01*
X143834226Y-82677414D01*
X143845539Y-82675925D01*
X143847212Y-82675705D01*
X143850342Y-82675500D01*
X144278529Y-82675500D01*
X144282568Y-82674418D01*
X144288779Y-82673600D01*
X147339721Y-82673600D01*
X147342913Y-82673813D01*
G37*
%TD.AperFunction*%
%TD*%
%TA.AperFunction,Conductor*%
%TO.N,+3V3*%
G36*
X166198575Y-85856224D02*
G01*
X166252971Y-85870800D01*
X167058800Y-85870800D01*
X167125839Y-85890485D01*
X167171594Y-85943289D01*
X167182800Y-85994800D01*
X167182800Y-86845600D01*
X167163115Y-86912639D01*
X167110311Y-86958394D01*
X167058800Y-86969600D01*
X165020800Y-86969600D01*
X164953761Y-86949915D01*
X164908006Y-86897111D01*
X164896800Y-86845600D01*
X164896800Y-85976000D01*
X164916485Y-85908961D01*
X164969289Y-85863206D01*
X165020800Y-85852000D01*
X166166483Y-85852000D01*
X166198575Y-85856224D01*
G37*
%TD.AperFunction*%
%TD*%
%TA.AperFunction,Conductor*%
%TO.N,GND*%
G36*
X138466756Y-75395805D02*
G01*
X138486513Y-75398405D01*
X138591484Y-75412225D01*
X138597522Y-75413843D01*
X138712283Y-75461379D01*
X138717707Y-75464511D01*
X138816246Y-75540123D01*
X138820676Y-75544553D01*
X138896288Y-75643092D01*
X138899421Y-75648517D01*
X138946954Y-75763272D01*
X138948575Y-75769319D01*
X138964995Y-75894042D01*
X138965200Y-75897175D01*
X138965200Y-75994024D01*
X138964995Y-75997157D01*
X138948575Y-76121880D01*
X138946953Y-76127932D01*
X138899421Y-76242682D01*
X138896288Y-76248107D01*
X138820676Y-76346646D01*
X138816246Y-76351076D01*
X138717707Y-76426688D01*
X138712282Y-76429821D01*
X138635347Y-76461689D01*
X138597529Y-76477353D01*
X138591480Y-76478975D01*
X138466757Y-76495395D01*
X138463624Y-76495600D01*
X137166776Y-76495600D01*
X137163643Y-76495395D01*
X137038919Y-76478975D01*
X137032872Y-76477354D01*
X136947830Y-76442128D01*
X136918117Y-76429821D01*
X136912692Y-76426688D01*
X136814153Y-76351076D01*
X136809723Y-76346646D01*
X136734111Y-76248107D01*
X136730978Y-76242682D01*
X136683443Y-76127922D01*
X136681825Y-76121884D01*
X136665405Y-75997156D01*
X136665200Y-75994024D01*
X136665200Y-75897175D01*
X136665405Y-75894043D01*
X136665730Y-75891567D01*
X136681825Y-75769313D01*
X136683442Y-75763278D01*
X136730980Y-75648512D01*
X136734111Y-75643092D01*
X136809727Y-75544548D01*
X136814148Y-75540127D01*
X136912694Y-75464509D01*
X136918112Y-75461380D01*
X137032878Y-75413842D01*
X137038913Y-75412225D01*
X137146291Y-75398089D01*
X137163644Y-75395805D01*
X137166776Y-75395600D01*
X138463624Y-75395600D01*
X138466756Y-75395805D01*
G37*
%TD.AperFunction*%
%TD*%
%TA.AperFunction,Conductor*%
%TO.N,GND*%
G36*
X145777957Y-78412205D02*
G01*
X145819078Y-78417618D01*
X145832914Y-78424441D01*
X146263957Y-78855484D01*
X146270781Y-78869322D01*
X146276195Y-78910442D01*
X146276400Y-78913575D01*
X146276400Y-79078824D01*
X146276195Y-79081957D01*
X146259775Y-79206680D01*
X146258153Y-79212732D01*
X146210621Y-79327482D01*
X146207488Y-79332907D01*
X146131876Y-79431446D01*
X146127446Y-79435876D01*
X146028907Y-79511488D01*
X146023482Y-79514621D01*
X145946547Y-79546489D01*
X145908729Y-79562153D01*
X145902680Y-79563775D01*
X145777957Y-79580195D01*
X145774824Y-79580400D01*
X144695176Y-79580400D01*
X144692043Y-79580195D01*
X144567319Y-79563775D01*
X144561272Y-79562154D01*
X144476230Y-79526928D01*
X144446517Y-79514621D01*
X144441092Y-79511488D01*
X144342553Y-79435876D01*
X144338123Y-79431446D01*
X144262511Y-79332907D01*
X144259378Y-79327482D01*
X144211843Y-79212722D01*
X144210225Y-79206684D01*
X144193805Y-79081956D01*
X144193600Y-79078824D01*
X144193600Y-78913575D01*
X144193805Y-78910443D01*
X144194130Y-78907967D01*
X144210225Y-78785713D01*
X144211842Y-78779678D01*
X144259380Y-78664912D01*
X144262511Y-78659492D01*
X144338127Y-78560948D01*
X144342548Y-78556527D01*
X144441094Y-78480909D01*
X144446512Y-78477780D01*
X144561278Y-78430242D01*
X144567313Y-78428625D01*
X144674691Y-78414489D01*
X144692044Y-78412205D01*
X144695176Y-78412000D01*
X145774825Y-78412000D01*
X145777957Y-78412205D01*
G37*
%TD.AperFunction*%
%TD*%
%TA.AperFunction,Conductor*%
%TO.N,GND*%
G36*
X166989156Y-78079805D02*
G01*
X167008913Y-78082405D01*
X167113884Y-78096225D01*
X167119922Y-78097843D01*
X167234683Y-78145379D01*
X167240107Y-78148511D01*
X167338646Y-78224123D01*
X167343076Y-78228553D01*
X167418688Y-78327092D01*
X167421821Y-78332517D01*
X167434128Y-78362230D01*
X167469354Y-78447272D01*
X167470974Y-78453318D01*
X167477472Y-78502673D01*
X167487395Y-78578042D01*
X167487600Y-78581175D01*
X167487600Y-78695624D01*
X167487395Y-78698757D01*
X167470975Y-78823480D01*
X167469353Y-78829532D01*
X167421821Y-78944282D01*
X167418688Y-78949707D01*
X167343076Y-79048246D01*
X167338646Y-79052676D01*
X167240107Y-79128288D01*
X167234682Y-79131421D01*
X167157747Y-79163289D01*
X167119929Y-79178953D01*
X167113880Y-79180575D01*
X166989157Y-79196995D01*
X166986024Y-79197200D01*
X163784816Y-79197200D01*
X163783484Y-79197163D01*
X163730075Y-79194195D01*
X163727429Y-79193900D01*
X163674653Y-79185027D01*
X163673418Y-79184784D01*
X163079850Y-79050753D01*
X162251350Y-78863671D01*
X162243302Y-78860215D01*
X162200080Y-78831335D01*
X162160495Y-78804885D01*
X162160494Y-78804884D01*
X162160493Y-78804884D01*
X162080137Y-78788900D01*
X160630005Y-78788900D01*
X160613034Y-78781871D01*
X160585529Y-78754366D01*
X160578500Y-78737395D01*
X160578500Y-78515489D01*
X160582537Y-78502167D01*
X160582873Y-78501663D01*
X160598139Y-78491451D01*
X160602831Y-78490987D01*
X160612512Y-78490986D01*
X160620756Y-78494400D01*
X160625869Y-78494400D01*
X162057532Y-78494400D01*
X162062214Y-78494861D01*
X162085784Y-78499549D01*
X162089483Y-78499821D01*
X162135982Y-78503248D01*
X162147635Y-78502674D01*
X162197211Y-78494064D01*
X162202512Y-78492455D01*
X162212081Y-78489293D01*
X162214302Y-78488498D01*
X162223757Y-78484848D01*
X162568683Y-78341829D01*
X162572573Y-78340593D01*
X163079849Y-78226047D01*
X163673418Y-78092014D01*
X163674653Y-78091772D01*
X163727446Y-78082896D01*
X163730059Y-78082605D01*
X163780976Y-78079776D01*
X163783485Y-78079637D01*
X163784816Y-78079600D01*
X166986024Y-78079600D01*
X166989156Y-78079805D01*
G37*
%TD.AperFunction*%
%TD*%
%TA.AperFunction,Conductor*%
%TO.N,GND*%
G36*
X181285776Y-85219685D02*
G01*
X181331531Y-85272489D01*
X181342737Y-85324000D01*
X181342737Y-85498057D01*
X181341142Y-85514244D01*
X181341334Y-85514263D01*
X181340737Y-85520325D01*
X181340737Y-85839222D01*
X181347617Y-85873808D01*
X181350000Y-85898001D01*
X181350000Y-86476000D01*
X181330315Y-86543039D01*
X181277511Y-86588794D01*
X181226000Y-86600000D01*
X177224000Y-86600000D01*
X177156961Y-86580315D01*
X177111206Y-86527511D01*
X177100000Y-86476000D01*
X177100000Y-85324000D01*
X177119685Y-85256961D01*
X177172489Y-85211206D01*
X177224000Y-85200000D01*
X181218737Y-85200000D01*
X181285776Y-85219685D01*
G37*
%TD.AperFunction*%
%TD*%
%TA.AperFunction,Conductor*%
%TO.N,+BATT*%
G36*
X186653539Y-76169685D02*
G01*
X186699294Y-76222489D01*
X186710500Y-76274000D01*
X186710500Y-78526000D01*
X186690815Y-78593039D01*
X186638011Y-78638794D01*
X186586500Y-78650000D01*
X185584500Y-78650000D01*
X185517461Y-78630315D01*
X185471706Y-78577511D01*
X185460500Y-78526000D01*
X185460500Y-76274000D01*
X185480185Y-76206961D01*
X185532989Y-76161206D01*
X185584500Y-76150000D01*
X186586500Y-76150000D01*
X186653539Y-76169685D01*
G37*
%TD.AperFunction*%
%TD*%
%TA.AperFunction,Conductor*%
%TO.N,+3V3*%
G36*
X150634409Y-83995218D02*
G01*
X150692586Y-84010806D01*
X150703346Y-84017017D01*
X150750182Y-84063853D01*
X150756393Y-84074612D01*
X150773535Y-84138588D01*
X150773535Y-84151012D01*
X150756393Y-84214987D01*
X150750182Y-84225746D01*
X150703346Y-84272582D01*
X150692587Y-84278793D01*
X150657921Y-84288082D01*
X150651709Y-84288900D01*
X149275871Y-84288900D01*
X149275863Y-84288901D01*
X149234450Y-84297139D01*
X149229768Y-84297600D01*
X148748000Y-84297600D01*
X148602845Y-84437130D01*
X148602843Y-84437132D01*
X148602841Y-84437134D01*
X147624263Y-85377803D01*
X147621926Y-85379779D01*
X147523407Y-85452831D01*
X147518077Y-85455816D01*
X147405737Y-85501054D01*
X147399826Y-85502596D01*
X147278175Y-85518205D01*
X147275121Y-85518400D01*
X143864776Y-85518400D01*
X143861643Y-85518195D01*
X143832888Y-85514409D01*
X143736918Y-85501774D01*
X143730872Y-85500154D01*
X143621056Y-85454667D01*
X143616117Y-85452621D01*
X143610692Y-85449488D01*
X143512153Y-85373876D01*
X143507723Y-85369446D01*
X143432111Y-85270907D01*
X143428978Y-85265482D01*
X143381443Y-85150722D01*
X143379825Y-85144684D01*
X143363405Y-85019956D01*
X143363200Y-85016824D01*
X143363200Y-84851575D01*
X143363405Y-84848443D01*
X143363730Y-84845967D01*
X143379825Y-84723713D01*
X143381442Y-84717678D01*
X143428980Y-84602912D01*
X143432111Y-84597492D01*
X143507727Y-84498948D01*
X143512148Y-84494527D01*
X143610694Y-84418909D01*
X143616112Y-84415780D01*
X143730878Y-84368242D01*
X143736913Y-84366625D01*
X143844291Y-84352489D01*
X143861644Y-84350205D01*
X143864776Y-84350000D01*
X147408884Y-84350000D01*
X147478000Y-84350000D01*
X148476972Y-84068400D01*
X148680702Y-84010970D01*
X148682257Y-84010589D01*
X148747044Y-83997046D01*
X148750290Y-83996598D01*
X148769946Y-83995245D01*
X148771502Y-83995191D01*
X148849548Y-83995100D01*
X149269989Y-83995100D01*
X149269999Y-83995100D01*
X149282977Y-83994462D01*
X149283652Y-83994428D01*
X149284829Y-83994400D01*
X150628198Y-83994400D01*
X150634409Y-83995218D01*
G37*
%TD.AperFunction*%
%TD*%
%TA.AperFunction,Conductor*%
%TO.N,Net-(D303-A)*%
G36*
X138153556Y-107711405D02*
G01*
X138173313Y-107714005D01*
X138278284Y-107727825D01*
X138284322Y-107729443D01*
X138399083Y-107776979D01*
X138404507Y-107780111D01*
X138503046Y-107855723D01*
X138507476Y-107860153D01*
X138583088Y-107958692D01*
X138586221Y-107964117D01*
X138633754Y-108078872D01*
X138635375Y-108084919D01*
X138651795Y-108209642D01*
X138652000Y-108212775D01*
X138652000Y-108965696D01*
X138651949Y-108967259D01*
X138647862Y-109029882D01*
X138647456Y-109032980D01*
X138635270Y-109094535D01*
X138634917Y-109096058D01*
X138448800Y-109794000D01*
X138245600Y-110556000D01*
X138245600Y-110621505D01*
X138245600Y-111172024D01*
X138245395Y-111175157D01*
X138228975Y-111299880D01*
X138227353Y-111305932D01*
X138179821Y-111420682D01*
X138176688Y-111426107D01*
X138101076Y-111524646D01*
X138096646Y-111529076D01*
X137998107Y-111604688D01*
X137992682Y-111607821D01*
X137915747Y-111639689D01*
X137877929Y-111655353D01*
X137871880Y-111656975D01*
X137747157Y-111673395D01*
X137744024Y-111673600D01*
X137629576Y-111673600D01*
X137626443Y-111673395D01*
X137501719Y-111656975D01*
X137495672Y-111655354D01*
X137410630Y-111620128D01*
X137380917Y-111607821D01*
X137375492Y-111604688D01*
X137276953Y-111529076D01*
X137272523Y-111524646D01*
X137196911Y-111426107D01*
X137193778Y-111420682D01*
X137146243Y-111305922D01*
X137144625Y-111299884D01*
X137128205Y-111175156D01*
X137128000Y-111172024D01*
X137128000Y-110621524D01*
X137128000Y-110621522D01*
X137128000Y-110556000D01*
X136924800Y-109794000D01*
X136738677Y-109096036D01*
X136738334Y-109094557D01*
X136726143Y-109032980D01*
X136725737Y-109029882D01*
X136721651Y-108967259D01*
X136721600Y-108965696D01*
X136721600Y-108212775D01*
X136721805Y-108209643D01*
X136722130Y-108207167D01*
X136738225Y-108084913D01*
X136739842Y-108078878D01*
X136787380Y-107964112D01*
X136790511Y-107958692D01*
X136866127Y-107860148D01*
X136870548Y-107855727D01*
X136969094Y-107780109D01*
X136974512Y-107776980D01*
X137089278Y-107729442D01*
X137095313Y-107727825D01*
X137202691Y-107713689D01*
X137220044Y-107711405D01*
X137223176Y-107711200D01*
X138150424Y-107711200D01*
X138153556Y-107711405D01*
G37*
%TD.AperFunction*%
%TD*%
%TA.AperFunction,Conductor*%
%TO.N,GND*%
G36*
X160921839Y-51091285D02*
G01*
X160967594Y-51144089D01*
X160978800Y-51195600D01*
X160978800Y-54286800D01*
X160959115Y-54353839D01*
X160906311Y-54399594D01*
X160854800Y-54410800D01*
X159574000Y-54410800D01*
X159506961Y-54391115D01*
X159461206Y-54338311D01*
X159450000Y-54286800D01*
X159450000Y-51195600D01*
X159469685Y-51128561D01*
X159522489Y-51082806D01*
X159574000Y-51071600D01*
X160854800Y-51071600D01*
X160921839Y-51091285D01*
G37*
%TD.AperFunction*%
%TD*%
%TA.AperFunction,Conductor*%
%TO.N,GND*%
G36*
X156571039Y-45317085D02*
G01*
X156616794Y-45369889D01*
X156628000Y-45421400D01*
X156628000Y-46392600D01*
X156608315Y-46459639D01*
X156555511Y-46505394D01*
X156504000Y-46516600D01*
X152434000Y-46516600D01*
X152366961Y-46496915D01*
X152321206Y-46444111D01*
X152310000Y-46392600D01*
X152310000Y-45421400D01*
X152329685Y-45354361D01*
X152382489Y-45308606D01*
X152434000Y-45297400D01*
X156504000Y-45297400D01*
X156571039Y-45317085D01*
G37*
%TD.AperFunction*%
%TD*%
%TA.AperFunction,Conductor*%
%TO.N,+3V3*%
G36*
X133733956Y-112334205D02*
G01*
X133753713Y-112336805D01*
X133858684Y-112350625D01*
X133864722Y-112352243D01*
X133979483Y-112399779D01*
X133984907Y-112402911D01*
X134083446Y-112478523D01*
X134087876Y-112482953D01*
X134163488Y-112581492D01*
X134166621Y-112586917D01*
X134214154Y-112701672D01*
X134215775Y-112707719D01*
X134232195Y-112832442D01*
X134232400Y-112835575D01*
X134232400Y-114270824D01*
X134232195Y-114273957D01*
X134215775Y-114398680D01*
X134214153Y-114404732D01*
X134166621Y-114519482D01*
X134163488Y-114524907D01*
X134087876Y-114623446D01*
X134083446Y-114627876D01*
X133984907Y-114703488D01*
X133979482Y-114706621D01*
X133902547Y-114738489D01*
X133864729Y-114754153D01*
X133858680Y-114755775D01*
X133733957Y-114772195D01*
X133730824Y-114772400D01*
X133667176Y-114772400D01*
X133664043Y-114772195D01*
X133539319Y-114755775D01*
X133533272Y-114754154D01*
X133448230Y-114718928D01*
X133418517Y-114706621D01*
X133413092Y-114703488D01*
X133314553Y-114627876D01*
X133310123Y-114623446D01*
X133234511Y-114524907D01*
X133231378Y-114519482D01*
X133183843Y-114404722D01*
X133182225Y-114398684D01*
X133165805Y-114273956D01*
X133165600Y-114270824D01*
X133165600Y-112835575D01*
X133165805Y-112832443D01*
X133166130Y-112829967D01*
X133182225Y-112707713D01*
X133183842Y-112701678D01*
X133231380Y-112586912D01*
X133234511Y-112581492D01*
X133310127Y-112482948D01*
X133314548Y-112478527D01*
X133413094Y-112402909D01*
X133418512Y-112399780D01*
X133533278Y-112352242D01*
X133539313Y-112350625D01*
X133646691Y-112336489D01*
X133664044Y-112334205D01*
X133667176Y-112334000D01*
X133730824Y-112334000D01*
X133733956Y-112334205D01*
G37*
%TD.AperFunction*%
%TD*%
%TA.AperFunction,Conductor*%
%TO.N,/STM32/LSE_OSC_OUT*%
G36*
X144943462Y-76708294D02*
G01*
X145063433Y-76727296D01*
X145070573Y-76729617D01*
X145177087Y-76783888D01*
X145183162Y-76788301D01*
X145267698Y-76872837D01*
X145272111Y-76878912D01*
X145326382Y-76985426D01*
X145328702Y-76992567D01*
X145347704Y-77112536D01*
X145348000Y-77116291D01*
X145348000Y-77442708D01*
X145347705Y-77446462D01*
X145329947Y-77558581D01*
X145327626Y-77565723D01*
X145276961Y-77665157D01*
X145272548Y-77671232D01*
X145193632Y-77750148D01*
X145187557Y-77754561D01*
X145088123Y-77805226D01*
X145080981Y-77807547D01*
X144968863Y-77825305D01*
X144965109Y-77825600D01*
X144586000Y-77825600D01*
X144436433Y-77998782D01*
X144436433Y-77998783D01*
X144436431Y-77998785D01*
X143771492Y-78768713D01*
X143769069Y-78771142D01*
X143665353Y-78861261D01*
X143659600Y-78864968D01*
X143536234Y-78921429D01*
X143529668Y-78923361D01*
X143393663Y-78942955D01*
X143390241Y-78943200D01*
X142191976Y-78943200D01*
X142188843Y-78942995D01*
X142064119Y-78926575D01*
X142058072Y-78924954D01*
X141973030Y-78889728D01*
X141943317Y-78877421D01*
X141937892Y-78874288D01*
X141839353Y-78798676D01*
X141834923Y-78794246D01*
X141759311Y-78695707D01*
X141756178Y-78690282D01*
X141708643Y-78575522D01*
X141707025Y-78569484D01*
X141690605Y-78444756D01*
X141690400Y-78441624D01*
X141690400Y-77506726D01*
X141690651Y-77503267D01*
X141699472Y-77442708D01*
X141710672Y-77365813D01*
X141712642Y-77359191D01*
X141770311Y-77234741D01*
X141774092Y-77228954D01*
X141864860Y-77126133D01*
X141870128Y-77121668D01*
X141986465Y-77049009D01*
X141992792Y-77046231D01*
X142126711Y-77009312D01*
X142130096Y-77008637D01*
X144503950Y-76711906D01*
X144504671Y-76711827D01*
X144534544Y-76709032D01*
X144536003Y-76708942D01*
X144564029Y-76708071D01*
X144565944Y-76708012D01*
X144566689Y-76708000D01*
X144939709Y-76708000D01*
X144943462Y-76708294D01*
G37*
%TD.AperFunction*%
%TD*%
%TA.AperFunction,Conductor*%
%TO.N,GND*%
G36*
X153370639Y-51413085D02*
G01*
X153416394Y-51465889D01*
X153427600Y-51517400D01*
X153427600Y-54063400D01*
X153407915Y-54130439D01*
X153355111Y-54176194D01*
X153303600Y-54187400D01*
X152112752Y-54187400D01*
X152045713Y-54167715D01*
X152018906Y-54144449D01*
X151090800Y-53069800D01*
X148928800Y-53069800D01*
X148861761Y-53050115D01*
X148816006Y-52997311D01*
X148804800Y-52945800D01*
X148804800Y-51517400D01*
X148824485Y-51450361D01*
X148877289Y-51404606D01*
X148928800Y-51393400D01*
X153303600Y-51393400D01*
X153370639Y-51413085D01*
G37*
%TD.AperFunction*%
%TD*%
%TA.AperFunction,Conductor*%
%TO.N,GND*%
G36*
X178850000Y-94047635D02*
G01*
X178849539Y-94052317D01*
X178835707Y-94121854D01*
X178832123Y-94130506D01*
X178794073Y-94187452D01*
X178787452Y-94194073D01*
X178730506Y-94232123D01*
X178721854Y-94235707D01*
X178650283Y-94249943D01*
X178649976Y-94250000D01*
X178450000Y-94250000D01*
X177250000Y-96250000D01*
X177250000Y-96388481D01*
X177250000Y-98048424D01*
X177249795Y-98051557D01*
X177233375Y-98176280D01*
X177231753Y-98182332D01*
X177184221Y-98297082D01*
X177181088Y-98302507D01*
X177105476Y-98401046D01*
X177101046Y-98405476D01*
X177002507Y-98481088D01*
X176997082Y-98484221D01*
X176920147Y-98516089D01*
X176882329Y-98531753D01*
X176876280Y-98533375D01*
X176751557Y-98549795D01*
X176748424Y-98550000D01*
X176501576Y-98550000D01*
X176498443Y-98549795D01*
X176373719Y-98533375D01*
X176367672Y-98531754D01*
X176282630Y-98496528D01*
X176252917Y-98484221D01*
X176247492Y-98481088D01*
X176148953Y-98405476D01*
X176144523Y-98401046D01*
X176068911Y-98302507D01*
X176065778Y-98297082D01*
X176018243Y-98182322D01*
X176016625Y-98176284D01*
X176000205Y-98051556D01*
X176000000Y-98048424D01*
X176000000Y-96484761D01*
X176000367Y-96480580D01*
X176016661Y-96388492D01*
X176029616Y-96315268D01*
X176032486Y-96307414D01*
X176116684Y-96162175D01*
X176119091Y-96158751D01*
X177660885Y-94330113D01*
X178150000Y-93750000D01*
X178850000Y-93750000D01*
X178850000Y-94047635D01*
G37*
%TD.AperFunction*%
%TD*%
%TA.AperFunction,Conductor*%
%TO.N,+3V3*%
G36*
X181800413Y-86819685D02*
G01*
X181846168Y-86872489D01*
X181856112Y-86941647D01*
X181854275Y-86948344D01*
X181854878Y-86948464D01*
X181840863Y-87018921D01*
X181840863Y-87337826D01*
X181852494Y-87396303D01*
X181852495Y-87396305D01*
X181879101Y-87436122D01*
X181899980Y-87502799D01*
X181900000Y-87505014D01*
X181900000Y-88348638D01*
X181880315Y-88415677D01*
X181863681Y-88436319D01*
X181850000Y-88450000D01*
X178926333Y-88450000D01*
X178859294Y-88430315D01*
X178838652Y-88413681D01*
X178274908Y-87849937D01*
X178241423Y-87788614D01*
X178238688Y-87767212D01*
X178228200Y-87505014D01*
X178205378Y-86934455D01*
X178222367Y-86866683D01*
X178273301Y-86818855D01*
X178329279Y-86805500D01*
X181225991Y-86805500D01*
X181226000Y-86805500D01*
X181269684Y-86800803D01*
X181269683Y-86800803D01*
X181270540Y-86800711D01*
X181283796Y-86800000D01*
X181733374Y-86800000D01*
X181800413Y-86819685D01*
G37*
%TD.AperFunction*%
%TD*%
%TA.AperFunction,Conductor*%
%TO.N,GND*%
G36*
X193209839Y-74113885D02*
G01*
X193255594Y-74166689D01*
X193266800Y-74218200D01*
X193266800Y-84028600D01*
X193247115Y-84095639D01*
X193194311Y-84141394D01*
X193142800Y-84152600D01*
X190495200Y-84152600D01*
X190428161Y-84132915D01*
X190382406Y-84080111D01*
X190371200Y-84028600D01*
X190371200Y-74218200D01*
X190390885Y-74151161D01*
X190443689Y-74105406D01*
X190495200Y-74094200D01*
X193142800Y-74094200D01*
X193209839Y-74113885D01*
G37*
%TD.AperFunction*%
%TD*%
%TA.AperFunction,Conductor*%
%TO.N,+3V3*%
G36*
X150963773Y-48916335D02*
G01*
X152106800Y-49463000D01*
X156504000Y-49463000D01*
X156571039Y-49482685D01*
X156616794Y-49535489D01*
X156628000Y-49587000D01*
X156628000Y-50813100D01*
X156608315Y-50880139D01*
X156555511Y-50925894D01*
X156504000Y-50937100D01*
X154364392Y-50937100D01*
X154320713Y-50941797D01*
X154269225Y-50952997D01*
X154259027Y-50955490D01*
X154178316Y-50998499D01*
X154178315Y-50998500D01*
X154167912Y-51007513D01*
X154104358Y-51036538D01*
X154086711Y-51037800D01*
X148725600Y-51037800D01*
X148658561Y-51018115D01*
X148612806Y-50965311D01*
X148601600Y-50913800D01*
X148601600Y-49028200D01*
X148621285Y-48961161D01*
X148674089Y-48915406D01*
X148725600Y-48904200D01*
X150910273Y-48904200D01*
X150963773Y-48916335D01*
G37*
%TD.AperFunction*%
%TD*%
%TA.AperFunction,Conductor*%
%TO.N,+3V3*%
G36*
X181458761Y-93809885D02*
G01*
X181500277Y-93854269D01*
X182034555Y-94822024D01*
X182050000Y-94881954D01*
X182050000Y-95726000D01*
X182030315Y-95793039D01*
X181977511Y-95838794D01*
X181926000Y-95850000D01*
X181247979Y-95850000D01*
X181180940Y-95830315D01*
X181135185Y-95777511D01*
X181127341Y-95754677D01*
X180772800Y-94263200D01*
X180196800Y-94263200D01*
X180129761Y-94243515D01*
X180084006Y-94190711D01*
X180072800Y-94139200D01*
X180072800Y-93916968D01*
X180092485Y-93849929D01*
X180145289Y-93804174D01*
X180196800Y-93792968D01*
X180707147Y-93792968D01*
X180709082Y-93792582D01*
X180733276Y-93790200D01*
X181391722Y-93790200D01*
X181458761Y-93809885D01*
G37*
%TD.AperFunction*%
%TD*%
%TA.AperFunction,Conductor*%
%TO.N,/STM32/HSE_OSC_IN*%
G36*
X138404940Y-77267047D02*
G01*
X138541524Y-77286810D01*
X138548115Y-77288759D01*
X138671901Y-77345692D01*
X138677671Y-77349429D01*
X138781560Y-77440267D01*
X138783984Y-77442715D01*
X140007535Y-78870192D01*
X140007539Y-78870195D01*
X140157200Y-79044800D01*
X140510909Y-79044800D01*
X140514662Y-79045094D01*
X140618934Y-79061609D01*
X140626072Y-79063929D01*
X140667594Y-79085086D01*
X140718427Y-79110987D01*
X140724502Y-79115400D01*
X140797799Y-79188697D01*
X140802212Y-79194772D01*
X140849269Y-79287125D01*
X140851590Y-79294267D01*
X140868105Y-79398537D01*
X140868400Y-79402291D01*
X140868400Y-79881108D01*
X140868105Y-79884862D01*
X140850347Y-79996981D01*
X140848026Y-80004123D01*
X140797361Y-80103557D01*
X140792948Y-80109632D01*
X140714032Y-80188548D01*
X140707957Y-80192961D01*
X140608523Y-80243626D01*
X140601381Y-80245947D01*
X140489263Y-80263705D01*
X140485509Y-80264000D01*
X140161940Y-80264000D01*
X140160628Y-80263964D01*
X140108039Y-80261085D01*
X140105433Y-80260799D01*
X140053459Y-80252199D01*
X140052171Y-80251949D01*
X136384726Y-79436961D01*
X136381615Y-79436046D01*
X136259749Y-79391025D01*
X136254037Y-79387985D01*
X136149960Y-79313005D01*
X136145268Y-79308549D01*
X136065007Y-79208493D01*
X136061678Y-79202950D01*
X136011057Y-79085080D01*
X136009331Y-79078856D01*
X135991819Y-78950123D01*
X135991600Y-78946888D01*
X135991600Y-77768375D01*
X135991805Y-77765243D01*
X135992130Y-77762767D01*
X136008225Y-77640513D01*
X136009842Y-77634478D01*
X136057380Y-77519712D01*
X136060511Y-77514292D01*
X136136127Y-77415748D01*
X136140548Y-77411327D01*
X136239094Y-77335709D01*
X136244512Y-77332580D01*
X136359278Y-77285042D01*
X136365313Y-77283425D01*
X136472691Y-77269289D01*
X136490044Y-77267005D01*
X136493176Y-77266800D01*
X138401503Y-77266800D01*
X138404940Y-77267047D01*
G37*
%TD.AperFunction*%
%TD*%
%TA.AperFunction,Conductor*%
%TO.N,GND*%
G36*
X178163703Y-90019685D02*
G01*
X178186682Y-90038720D01*
X179874777Y-91820598D01*
X179906593Y-91882803D01*
X179906376Y-91930071D01*
X179896732Y-91978550D01*
X179896732Y-92526000D01*
X179877047Y-92593039D01*
X179824243Y-92638794D01*
X179772732Y-92650000D01*
X179127266Y-92650000D01*
X179060227Y-92630315D01*
X179014472Y-92577511D01*
X179003266Y-92526000D01*
X179003266Y-91978551D01*
X178998151Y-91952841D01*
X178995868Y-91941362D01*
X178988324Y-91930071D01*
X178967688Y-91899187D01*
X178925515Y-91871008D01*
X178884722Y-91862893D01*
X178824018Y-91831653D01*
X177332593Y-90430618D01*
X177297210Y-90370372D01*
X177294454Y-90355634D01*
X177267422Y-90139378D01*
X177278639Y-90070417D01*
X177325360Y-90018466D01*
X177390464Y-90000000D01*
X178096664Y-90000000D01*
X178163703Y-90019685D01*
G37*
%TD.AperFunction*%
%TD*%
%TA.AperFunction,Conductor*%
%TO.N,GND*%
G36*
X151749156Y-72237805D02*
G01*
X151768913Y-72240405D01*
X151873884Y-72254225D01*
X151879922Y-72255843D01*
X151994683Y-72303379D01*
X152000107Y-72306511D01*
X152098646Y-72382123D01*
X152103076Y-72386553D01*
X152178688Y-72485092D01*
X152181821Y-72490517D01*
X152229354Y-72605272D01*
X152230975Y-72611319D01*
X152247395Y-72736042D01*
X152247600Y-72739175D01*
X152247600Y-74218800D01*
X152277702Y-74301581D01*
X152277703Y-74301584D01*
X152277705Y-74301590D01*
X152277707Y-74301595D01*
X152623538Y-75252629D01*
X152624167Y-75254625D01*
X152641684Y-75320060D01*
X152639282Y-75338271D01*
X152638455Y-75339599D01*
X152593485Y-75406901D01*
X152593484Y-75406904D01*
X152577500Y-75487262D01*
X152577500Y-76941532D01*
X152585167Y-76980081D01*
X152581583Y-76998097D01*
X152574962Y-77004717D01*
X152516851Y-77043546D01*
X152508199Y-77047130D01*
X152430082Y-77062668D01*
X152420718Y-77062668D01*
X152342600Y-77047130D01*
X152333948Y-77043546D01*
X152298625Y-77019943D01*
X152288420Y-77004670D01*
X152287959Y-76999988D01*
X152287959Y-76998097D01*
X152287960Y-76946226D01*
X152283461Y-76923606D01*
X152283000Y-76918924D01*
X152283000Y-75532352D01*
X152282999Y-75532341D01*
X152278817Y-75506903D01*
X152278499Y-75503010D01*
X152278499Y-75487271D01*
X152278498Y-75487263D01*
X152262515Y-75406905D01*
X152262514Y-75406903D01*
X152216655Y-75338271D01*
X152201624Y-75315776D01*
X152147280Y-75279464D01*
X152144352Y-75277134D01*
X152144347Y-75277140D01*
X152144235Y-75277041D01*
X152144162Y-75276983D01*
X152144050Y-75276877D01*
X152123995Y-75259157D01*
X152123992Y-75259155D01*
X152024922Y-75182517D01*
X152024290Y-75182060D01*
X152014076Y-75174679D01*
X152013055Y-75173991D01*
X152011485Y-75172931D01*
X152000140Y-75165807D01*
X152000139Y-75165806D01*
X152000132Y-75165802D01*
X150992940Y-74578273D01*
X150982804Y-74566588D01*
X150944466Y-74472355D01*
X150942897Y-74466397D01*
X150926999Y-74343640D01*
X150926800Y-74340558D01*
X150926800Y-72739175D01*
X150927005Y-72736043D01*
X150927330Y-72733567D01*
X150943425Y-72611313D01*
X150945042Y-72605278D01*
X150992580Y-72490512D01*
X150995711Y-72485092D01*
X151071327Y-72386548D01*
X151075748Y-72382127D01*
X151174294Y-72306509D01*
X151179712Y-72303380D01*
X151294478Y-72255842D01*
X151300513Y-72254225D01*
X151407891Y-72240089D01*
X151425244Y-72237805D01*
X151428376Y-72237600D01*
X151746024Y-72237600D01*
X151749156Y-72237805D01*
G37*
%TD.AperFunction*%
%TD*%
%TA.AperFunction,Conductor*%
%TO.N,+3V3*%
G36*
X171817539Y-97470185D02*
G01*
X171863294Y-97522989D01*
X171874500Y-97574500D01*
X171874500Y-98288397D01*
X171889760Y-98365117D01*
X171895200Y-98373258D01*
X171916080Y-98439935D01*
X171916100Y-98442151D01*
X171916100Y-98600000D01*
X172075887Y-98817220D01*
X172099754Y-98882884D01*
X172100000Y-98890694D01*
X172100000Y-99468800D01*
X172080315Y-99535839D01*
X172027511Y-99581594D01*
X171976000Y-99592800D01*
X171279632Y-99592800D01*
X171212593Y-99573115D01*
X171166838Y-99520311D01*
X171155632Y-99468676D01*
X171155920Y-99180804D01*
X171156400Y-98700143D01*
X171156400Y-98494239D01*
X171156392Y-98492372D01*
X171156372Y-98490172D01*
X171156372Y-98490165D01*
X171146991Y-98430614D01*
X171146989Y-98430610D01*
X171146989Y-98430605D01*
X171126116Y-98363945D01*
X171126109Y-98363928D01*
X171100868Y-98311173D01*
X171098676Y-98307323D01*
X171099526Y-98306838D01*
X171080020Y-98244535D01*
X171080000Y-98242326D01*
X171080000Y-97574500D01*
X171099685Y-97507461D01*
X171152489Y-97461706D01*
X171204000Y-97450500D01*
X171750500Y-97450500D01*
X171817539Y-97470185D01*
G37*
%TD.AperFunction*%
%TD*%
%TA.AperFunction,Conductor*%
%TO.N,GND*%
G36*
X183493039Y-88719685D02*
G01*
X183538794Y-88772489D01*
X183550000Y-88824000D01*
X183550000Y-90776000D01*
X183530315Y-90843039D01*
X183477511Y-90888794D01*
X183426000Y-90900000D01*
X182670699Y-90900000D01*
X182603660Y-90880315D01*
X182557905Y-90827511D01*
X182556138Y-90823453D01*
X182543736Y-90793511D01*
X182524536Y-90747159D01*
X182524535Y-90747158D01*
X182524535Y-90747157D01*
X182425624Y-90618254D01*
X182400430Y-90553085D01*
X182400000Y-90542768D01*
X182400000Y-88824000D01*
X182419685Y-88756961D01*
X182472489Y-88711206D01*
X182524000Y-88700000D01*
X183426000Y-88700000D01*
X183493039Y-88719685D01*
G37*
%TD.AperFunction*%
%TD*%
%TA.AperFunction,Conductor*%
%TO.N,GND*%
G36*
X167943391Y-97449106D02*
G01*
X167947886Y-97452109D01*
X167947888Y-97452112D01*
X168034882Y-97510239D01*
X168034883Y-97510240D01*
X168034887Y-97510241D01*
X168073241Y-97517870D01*
X168111599Y-97525500D01*
X168913400Y-97525499D01*
X168990117Y-97510240D01*
X169049152Y-97470793D01*
X169115826Y-97449917D01*
X169130202Y-97450495D01*
X169130251Y-97450499D01*
X169130252Y-97450500D01*
X169250500Y-97450500D01*
X169317539Y-97470185D01*
X169363294Y-97522989D01*
X169374500Y-97574500D01*
X169374500Y-98288400D01*
X169375098Y-98294463D01*
X169374706Y-98294501D01*
X169376100Y-98308652D01*
X169376100Y-98482689D01*
X169356415Y-98549728D01*
X169303611Y-98595483D01*
X169235916Y-98605628D01*
X169150003Y-98594318D01*
X169149999Y-98594318D01*
X168993239Y-98614955D01*
X168993234Y-98614957D01*
X168985500Y-98618161D01*
X168938048Y-98627600D01*
X167874500Y-98627600D01*
X167807461Y-98607915D01*
X167761706Y-98555111D01*
X167750500Y-98503600D01*
X167750500Y-97552208D01*
X167770185Y-97485169D01*
X167822989Y-97439414D01*
X167892147Y-97429470D01*
X167943391Y-97449106D01*
G37*
%TD.AperFunction*%
%TD*%
%TA.AperFunction,Conductor*%
%TO.N,+BATT*%
G36*
X175667439Y-52408885D02*
G01*
X175713194Y-52461689D01*
X175724400Y-52513200D01*
X175724400Y-61649600D01*
X175704715Y-61716639D01*
X175651911Y-61762394D01*
X175600400Y-61773600D01*
X174121200Y-61773600D01*
X174054161Y-61753915D01*
X174008406Y-61701111D01*
X173997200Y-61649600D01*
X173997200Y-52513200D01*
X174016885Y-52446161D01*
X174069689Y-52400406D01*
X174121200Y-52389200D01*
X175600400Y-52389200D01*
X175667439Y-52408885D01*
G37*
%TD.AperFunction*%
%TD*%
%TA.AperFunction,Conductor*%
%TO.N,GND*%
G36*
X177774239Y-105105285D02*
G01*
X177819994Y-105158089D01*
X177831200Y-105209600D01*
X177831200Y-105876000D01*
X177811515Y-105943039D01*
X177758711Y-105988794D01*
X177707200Y-106000000D01*
X174724000Y-106000000D01*
X174656961Y-105980315D01*
X174611206Y-105927511D01*
X174600000Y-105876000D01*
X174600000Y-105209600D01*
X174619685Y-105142561D01*
X174672489Y-105096806D01*
X174724000Y-105085600D01*
X177707200Y-105085600D01*
X177774239Y-105105285D01*
G37*
%TD.AperFunction*%
%TD*%
%TA.AperFunction,Conductor*%
%TO.N,Net-(D201-A)*%
G36*
X153818459Y-63136661D02*
G01*
X153923623Y-63150506D01*
X153954891Y-63158884D01*
X154045318Y-63196340D01*
X154073352Y-63212525D01*
X154151002Y-63272109D01*
X154173891Y-63294998D01*
X154233474Y-63372648D01*
X154249659Y-63400681D01*
X154287115Y-63491108D01*
X154295493Y-63522375D01*
X154309339Y-63627539D01*
X154310400Y-63643725D01*
X154310400Y-64456274D01*
X154309339Y-64472460D01*
X154295493Y-64577624D01*
X154287115Y-64608891D01*
X154249659Y-64699318D01*
X154233474Y-64727351D01*
X154173891Y-64805001D01*
X154151001Y-64827891D01*
X154073351Y-64887474D01*
X154045318Y-64903659D01*
X153954891Y-64941115D01*
X153923624Y-64949493D01*
X153829798Y-64961846D01*
X153818458Y-64963339D01*
X153802274Y-64964400D01*
X153108192Y-64964400D01*
X153094585Y-64963651D01*
X153070428Y-64960983D01*
X153005899Y-64953859D01*
X152979341Y-64947922D01*
X152894929Y-64919020D01*
X152882297Y-64913904D01*
X152699519Y-64827891D01*
X152458350Y-64714400D01*
X152126000Y-64558000D01*
X152014232Y-64558000D01*
X152014230Y-64558000D01*
X151516526Y-64558000D01*
X151500341Y-64556939D01*
X151487317Y-64555224D01*
X151395175Y-64543093D01*
X151363908Y-64534715D01*
X151273481Y-64497259D01*
X151245448Y-64481074D01*
X151167798Y-64421491D01*
X151144908Y-64398601D01*
X151085325Y-64320951D01*
X151069140Y-64292918D01*
X151031684Y-64202491D01*
X151023306Y-64171224D01*
X151009477Y-64066180D01*
X151009477Y-64033819D01*
X151023306Y-63928773D01*
X151031684Y-63897508D01*
X151069140Y-63807081D01*
X151085323Y-63779050D01*
X151144913Y-63701392D01*
X151167792Y-63678513D01*
X151245450Y-63618923D01*
X151273479Y-63602740D01*
X151363909Y-63565283D01*
X151395175Y-63556906D01*
X151500341Y-63543061D01*
X151516526Y-63542000D01*
X151969090Y-63542000D01*
X151969093Y-63542000D01*
X152075200Y-63542000D01*
X152886711Y-63181327D01*
X152898804Y-63176692D01*
X152979544Y-63150503D01*
X153004844Y-63145134D01*
X153085596Y-63136661D01*
X153089256Y-63136277D01*
X153102196Y-63135600D01*
X153802274Y-63135600D01*
X153818459Y-63136661D01*
G37*
%TD.AperFunction*%
%TD*%
%TA.AperFunction,Conductor*%
%TO.N,GND*%
G36*
X181306239Y-57119685D02*
G01*
X181351994Y-57172489D01*
X181363200Y-57224000D01*
X181363200Y-58414848D01*
X181343515Y-58481887D01*
X181320249Y-58508694D01*
X180245600Y-59436799D01*
X180245600Y-61598800D01*
X180225915Y-61665839D01*
X180173111Y-61711594D01*
X180121600Y-61722800D01*
X178693200Y-61722800D01*
X178626161Y-61703115D01*
X178580406Y-61650311D01*
X178569200Y-61598800D01*
X178569200Y-57224000D01*
X178588885Y-57156961D01*
X178641689Y-57111206D01*
X178693200Y-57100000D01*
X181239200Y-57100000D01*
X181306239Y-57119685D01*
G37*
%TD.AperFunction*%
%TD*%
%TA.AperFunction,Conductor*%
%TO.N,+3V3*%
G36*
X139266756Y-71845805D02*
G01*
X139286513Y-71848405D01*
X139391484Y-71862225D01*
X139397522Y-71863843D01*
X139512283Y-71911379D01*
X139517707Y-71914511D01*
X139616246Y-71990123D01*
X139620676Y-71994553D01*
X139696288Y-72093092D01*
X139699421Y-72098517D01*
X139746954Y-72213272D01*
X139748575Y-72219319D01*
X139764995Y-72344042D01*
X139765200Y-72347175D01*
X139765200Y-72494024D01*
X139764995Y-72497157D01*
X139748575Y-72621880D01*
X139746953Y-72627932D01*
X139699421Y-72742682D01*
X139696288Y-72748107D01*
X139620676Y-72846646D01*
X139616246Y-72851076D01*
X139517707Y-72926688D01*
X139512282Y-72929821D01*
X139435347Y-72961689D01*
X139397529Y-72977353D01*
X139391480Y-72978975D01*
X139266757Y-72995395D01*
X139263624Y-72995600D01*
X138066776Y-72995600D01*
X138063643Y-72995395D01*
X137938919Y-72978975D01*
X137932872Y-72977354D01*
X137847830Y-72942128D01*
X137818117Y-72929821D01*
X137812692Y-72926688D01*
X137714153Y-72851076D01*
X137709723Y-72846646D01*
X137634111Y-72748107D01*
X137630978Y-72742682D01*
X137583443Y-72627922D01*
X137581825Y-72621884D01*
X137565405Y-72497156D01*
X137565200Y-72494024D01*
X137565200Y-72347175D01*
X137565405Y-72344043D01*
X137565730Y-72341567D01*
X137581825Y-72219313D01*
X137583442Y-72213278D01*
X137630980Y-72098512D01*
X137634111Y-72093092D01*
X137709727Y-71994548D01*
X137714148Y-71990127D01*
X137812694Y-71914509D01*
X137818112Y-71911380D01*
X137932878Y-71863842D01*
X137938913Y-71862225D01*
X138046291Y-71848089D01*
X138063644Y-71845805D01*
X138066776Y-71845600D01*
X139263624Y-71845600D01*
X139266756Y-71845805D01*
G37*
%TD.AperFunction*%
%TD*%
%TA.AperFunction,Conductor*%
%TO.N,+3V3*%
G36*
X141742756Y-112335005D02*
G01*
X141762513Y-112337605D01*
X141867484Y-112351425D01*
X141873522Y-112353043D01*
X141988283Y-112400579D01*
X141993707Y-112403711D01*
X142092246Y-112479323D01*
X142096676Y-112483753D01*
X142172288Y-112582292D01*
X142175421Y-112587717D01*
X142222954Y-112702472D01*
X142224575Y-112708519D01*
X142240995Y-112833242D01*
X142241200Y-112836375D01*
X142241200Y-114271624D01*
X142240995Y-114274757D01*
X142224575Y-114399480D01*
X142222953Y-114405532D01*
X142175421Y-114520282D01*
X142172288Y-114525707D01*
X142096676Y-114624246D01*
X142092246Y-114628676D01*
X141993707Y-114704288D01*
X141988282Y-114707421D01*
X141911347Y-114739289D01*
X141873529Y-114754953D01*
X141867480Y-114756575D01*
X141742757Y-114772995D01*
X141739624Y-114773200D01*
X141675976Y-114773200D01*
X141672843Y-114772995D01*
X141548119Y-114756575D01*
X141542072Y-114754954D01*
X141457030Y-114719728D01*
X141427317Y-114707421D01*
X141421892Y-114704288D01*
X141323353Y-114628676D01*
X141318923Y-114624246D01*
X141243311Y-114525707D01*
X141240178Y-114520282D01*
X141192643Y-114405522D01*
X141191025Y-114399484D01*
X141174605Y-114274756D01*
X141174400Y-114271624D01*
X141174400Y-112836375D01*
X141174605Y-112833243D01*
X141174930Y-112830767D01*
X141191025Y-112708513D01*
X141192642Y-112702478D01*
X141240180Y-112587712D01*
X141243311Y-112582292D01*
X141318927Y-112483748D01*
X141323348Y-112479327D01*
X141421894Y-112403709D01*
X141427312Y-112400580D01*
X141542078Y-112353042D01*
X141548113Y-112351425D01*
X141655491Y-112337289D01*
X141672844Y-112335005D01*
X141675976Y-112334800D01*
X141739624Y-112334800D01*
X141742756Y-112335005D01*
G37*
%TD.AperFunction*%
%TD*%
%TA.AperFunction,Conductor*%
%TO.N,Net-(D404-A)*%
G36*
X158111839Y-51162285D02*
G01*
X158157594Y-51215089D01*
X158168800Y-51266600D01*
X158168800Y-52841000D01*
X158149115Y-52908039D01*
X158096311Y-52953794D01*
X158044800Y-52965000D01*
X154364400Y-52965000D01*
X154297361Y-52945315D01*
X154251606Y-52892511D01*
X154240400Y-52841000D01*
X154240400Y-51266600D01*
X154260085Y-51199561D01*
X154312889Y-51153806D01*
X154364400Y-51142600D01*
X158044800Y-51142600D01*
X158111839Y-51162285D01*
G37*
%TD.AperFunction*%
%TD*%
%TA.AperFunction,Conductor*%
%TO.N,GND*%
G36*
X159010487Y-86788556D02*
G01*
X159021246Y-86794767D01*
X159066806Y-86840327D01*
X159073835Y-86857298D01*
X159073784Y-86858865D01*
X159072999Y-86870861D01*
X159072999Y-88268927D01*
X159072538Y-88273607D01*
X159071315Y-88279756D01*
X159071311Y-88279779D01*
X159067398Y-88316006D01*
X159067240Y-88324463D01*
X159069777Y-88360747D01*
X159079357Y-88420714D01*
X159087007Y-88452304D01*
X159089357Y-88459471D01*
X159089363Y-88459489D01*
X159101917Y-88489516D01*
X159101922Y-88489526D01*
X159101923Y-88489528D01*
X159170600Y-88622981D01*
X159170613Y-88623002D01*
X159187728Y-88650636D01*
X159187736Y-88650648D01*
X159192211Y-88656737D01*
X159192215Y-88656742D01*
X159204212Y-88670617D01*
X159213477Y-88681333D01*
X159314561Y-88781066D01*
X159321696Y-88788106D01*
X159333675Y-88799025D01*
X159333687Y-88799035D01*
X159333688Y-88799036D01*
X159336594Y-88801482D01*
X159349483Y-88811484D01*
X160045855Y-89308893D01*
X160055578Y-89324476D01*
X160055592Y-89324556D01*
X160070487Y-89415812D01*
X160070800Y-89419678D01*
X160070800Y-91090824D01*
X160070595Y-91093957D01*
X160054175Y-91218680D01*
X160052553Y-91224732D01*
X160005021Y-91339482D01*
X160001888Y-91344907D01*
X159926276Y-91443446D01*
X159921846Y-91447876D01*
X159823307Y-91523488D01*
X159817882Y-91526621D01*
X159740947Y-91558489D01*
X159703129Y-91574153D01*
X159697080Y-91575775D01*
X159572357Y-91592195D01*
X159569224Y-91592400D01*
X159251576Y-91592400D01*
X159248443Y-91592195D01*
X159123719Y-91575775D01*
X159117672Y-91574154D01*
X159032630Y-91538928D01*
X159002917Y-91526621D01*
X158997492Y-91523488D01*
X158898953Y-91447876D01*
X158894523Y-91443446D01*
X158818911Y-91344907D01*
X158815778Y-91339482D01*
X158768243Y-91224722D01*
X158766625Y-91218684D01*
X158753705Y-91120541D01*
X158753500Y-91117409D01*
X158753500Y-88392666D01*
X158757544Y-88379333D01*
X158762515Y-88371895D01*
X158778500Y-88291533D01*
X158778499Y-86860561D01*
X158785526Y-86843594D01*
X158834356Y-86794764D01*
X158845108Y-86788557D01*
X158921590Y-86768064D01*
X158934010Y-86768064D01*
X159010487Y-86788556D01*
G37*
%TD.AperFunction*%
%TD*%
%TA.AperFunction,Conductor*%
%TO.N,+3V3*%
G36*
X167908750Y-96412085D02*
G01*
X167944813Y-96447510D01*
X167947888Y-96452112D01*
X168034883Y-96510240D01*
X168034886Y-96510240D01*
X168034887Y-96510241D01*
X168065851Y-96516400D01*
X168111599Y-96525500D01*
X168825500Y-96525499D01*
X168892539Y-96545183D01*
X168938294Y-96597987D01*
X168949500Y-96649499D01*
X168949500Y-96750500D01*
X168929815Y-96817539D01*
X168877011Y-96863294D01*
X168825500Y-96874500D01*
X168111602Y-96874500D01*
X168034881Y-96889760D01*
X168034879Y-96889761D01*
X167947888Y-96947888D01*
X167914611Y-96997691D01*
X167860999Y-97042496D01*
X167811509Y-97052800D01*
X167010900Y-97052800D01*
X166943861Y-97033115D01*
X166898106Y-96980311D01*
X166886900Y-96928800D01*
X166886900Y-96516400D01*
X166906585Y-96449361D01*
X166959389Y-96403606D01*
X167010900Y-96392400D01*
X167841711Y-96392400D01*
X167908750Y-96412085D01*
G37*
%TD.AperFunction*%
%TD*%
%TA.AperFunction,Conductor*%
%TO.N,+3V3*%
G36*
X154321251Y-93693590D02*
G01*
X154365950Y-93712105D01*
X154423817Y-93750771D01*
X154458028Y-93784982D01*
X154496694Y-93842849D01*
X154515209Y-93887547D01*
X154531217Y-93968019D01*
X154533600Y-93992212D01*
X154533600Y-95186987D01*
X154531217Y-95211180D01*
X154515209Y-95291652D01*
X154496694Y-95336350D01*
X154458028Y-95394217D01*
X154423817Y-95428428D01*
X154365950Y-95467094D01*
X154321251Y-95485609D01*
X154252992Y-95499187D01*
X154204608Y-95499187D01*
X154136348Y-95485609D01*
X154091649Y-95467094D01*
X154033782Y-95428428D01*
X153999571Y-95394217D01*
X153960905Y-95336350D01*
X153942390Y-95291650D01*
X153926383Y-95211178D01*
X153924000Y-95186987D01*
X153924000Y-93992212D01*
X153926383Y-93968021D01*
X153942390Y-93887549D01*
X153960903Y-93842851D01*
X153999571Y-93784981D01*
X154033782Y-93750771D01*
X154091651Y-93712103D01*
X154136347Y-93693590D01*
X154204609Y-93680012D01*
X154252991Y-93680012D01*
X154321251Y-93693590D01*
G37*
%TD.AperFunction*%
%TD*%
%TA.AperFunction,Conductor*%
%TO.N,+3V3*%
G36*
X170072239Y-83179285D02*
G01*
X170117994Y-83232089D01*
X170129200Y-83283600D01*
X170129200Y-84153200D01*
X170109515Y-84220239D01*
X170056711Y-84265994D01*
X170005200Y-84277200D01*
X167967200Y-84277200D01*
X167900161Y-84257515D01*
X167854406Y-84204711D01*
X167843200Y-84153200D01*
X167843200Y-83283600D01*
X167862885Y-83216561D01*
X167915689Y-83170806D01*
X167967200Y-83159600D01*
X170005200Y-83159600D01*
X170072239Y-83179285D01*
G37*
%TD.AperFunction*%
%TD*%
%TA.AperFunction,Conductor*%
%TO.N,GND*%
G36*
X190081039Y-76510685D02*
G01*
X190126794Y-76563489D01*
X190138000Y-76615000D01*
X190138000Y-78608100D01*
X190118315Y-78675139D01*
X190065511Y-78720894D01*
X190014000Y-78732100D01*
X188687200Y-78732100D01*
X188620161Y-78712415D01*
X188574406Y-78659611D01*
X188563200Y-78608100D01*
X188563200Y-76615000D01*
X188582885Y-76547961D01*
X188635689Y-76502206D01*
X188687200Y-76491000D01*
X190014000Y-76491000D01*
X190081039Y-76510685D01*
G37*
%TD.AperFunction*%
%TD*%
%TA.AperFunction,Conductor*%
%TO.N,GND*%
G36*
X158131251Y-102227990D02*
G01*
X158175950Y-102246505D01*
X158233817Y-102285171D01*
X158268028Y-102319382D01*
X158306694Y-102377249D01*
X158325209Y-102421947D01*
X158341217Y-102502419D01*
X158343600Y-102526612D01*
X158343600Y-103721387D01*
X158341217Y-103745580D01*
X158325209Y-103826052D01*
X158306694Y-103870750D01*
X158268028Y-103928617D01*
X158233817Y-103962828D01*
X158175950Y-104001494D01*
X158131251Y-104020009D01*
X158062992Y-104033587D01*
X158014608Y-104033587D01*
X157946348Y-104020009D01*
X157901649Y-104001494D01*
X157843782Y-103962828D01*
X157809571Y-103928617D01*
X157770905Y-103870750D01*
X157752390Y-103826050D01*
X157736383Y-103745578D01*
X157734000Y-103721387D01*
X157734000Y-102526612D01*
X157736383Y-102502421D01*
X157752390Y-102421949D01*
X157770903Y-102377251D01*
X157809571Y-102319381D01*
X157843782Y-102285171D01*
X157901651Y-102246503D01*
X157946347Y-102227990D01*
X158014609Y-102214412D01*
X158062991Y-102214412D01*
X158131251Y-102227990D01*
G37*
%TD.AperFunction*%
%TD*%
%TA.AperFunction,Conductor*%
%TO.N,Net-(D302-A)*%
G36*
X142182144Y-107691802D02*
G01*
X142201901Y-107694402D01*
X142306872Y-107708222D01*
X142312910Y-107709840D01*
X142427671Y-107757376D01*
X142433095Y-107760508D01*
X142531634Y-107836120D01*
X142536064Y-107840550D01*
X142611676Y-107939089D01*
X142614809Y-107944514D01*
X142662342Y-108059269D01*
X142663963Y-108065316D01*
X142680383Y-108190039D01*
X142680588Y-108193172D01*
X142680588Y-108946093D01*
X142680537Y-108947656D01*
X142676450Y-109010279D01*
X142676044Y-109013377D01*
X142663858Y-109074932D01*
X142663505Y-109076455D01*
X142477388Y-109774397D01*
X142274188Y-110536397D01*
X142274188Y-110601902D01*
X142274188Y-111152421D01*
X142273983Y-111155554D01*
X142257563Y-111280277D01*
X142255941Y-111286329D01*
X142208409Y-111401079D01*
X142205276Y-111406504D01*
X142129664Y-111505043D01*
X142125234Y-111509473D01*
X142026695Y-111585085D01*
X142021270Y-111588218D01*
X141944335Y-111620086D01*
X141906517Y-111635750D01*
X141900468Y-111637372D01*
X141775745Y-111653792D01*
X141772612Y-111653997D01*
X141658164Y-111653997D01*
X141655031Y-111653792D01*
X141530307Y-111637372D01*
X141524260Y-111635751D01*
X141439218Y-111600525D01*
X141409505Y-111588218D01*
X141404080Y-111585085D01*
X141305541Y-111509473D01*
X141301111Y-111505043D01*
X141225499Y-111406504D01*
X141222366Y-111401079D01*
X141174831Y-111286319D01*
X141173213Y-111280281D01*
X141156793Y-111155553D01*
X141156588Y-111152421D01*
X141156588Y-110601921D01*
X141156588Y-110601919D01*
X141156588Y-110536397D01*
X140953388Y-109774397D01*
X140767265Y-109076433D01*
X140766922Y-109074954D01*
X140754731Y-109013377D01*
X140754325Y-109010279D01*
X140750239Y-108947656D01*
X140750188Y-108946093D01*
X140750188Y-108193172D01*
X140750393Y-108190040D01*
X140750718Y-108187564D01*
X140766813Y-108065310D01*
X140768430Y-108059275D01*
X140815968Y-107944509D01*
X140819099Y-107939089D01*
X140894715Y-107840545D01*
X140899136Y-107836124D01*
X140997682Y-107760506D01*
X141003100Y-107757377D01*
X141117866Y-107709839D01*
X141123901Y-107708222D01*
X141231279Y-107694086D01*
X141248632Y-107691802D01*
X141251764Y-107691597D01*
X142179012Y-107691597D01*
X142182144Y-107691802D01*
G37*
%TD.AperFunction*%
%TD*%
%TA.AperFunction,Conductor*%
%TO.N,+3V3*%
G36*
X178851610Y-94423829D02*
G01*
X178882123Y-94469493D01*
X178885707Y-94478145D01*
X178896270Y-94531247D01*
X178896731Y-94535929D01*
X178896731Y-95000849D01*
X178899038Y-95012444D01*
X178899499Y-95017127D01*
X178899499Y-96179964D01*
X178899704Y-96181521D01*
X178899544Y-96181541D01*
X178900000Y-96184990D01*
X178900000Y-98048424D01*
X178899795Y-98051557D01*
X178883375Y-98176280D01*
X178881753Y-98182332D01*
X178834221Y-98297082D01*
X178831088Y-98302507D01*
X178755476Y-98401046D01*
X178751046Y-98405476D01*
X178652507Y-98481088D01*
X178647082Y-98484221D01*
X178570147Y-98516089D01*
X178532329Y-98531753D01*
X178526280Y-98533375D01*
X178401557Y-98549795D01*
X178398424Y-98550000D01*
X178351576Y-98550000D01*
X178348443Y-98549795D01*
X178223719Y-98533375D01*
X178217672Y-98531754D01*
X178132630Y-98496528D01*
X178102917Y-98484221D01*
X178097492Y-98481088D01*
X177998953Y-98405476D01*
X177994523Y-98401046D01*
X177918911Y-98302507D01*
X177915778Y-98297082D01*
X177868243Y-98182322D01*
X177866625Y-98176284D01*
X177850205Y-98051556D01*
X177850000Y-98048424D01*
X177850000Y-96096055D01*
X177850106Y-96093807D01*
X177858564Y-96003918D01*
X177859402Y-95999500D01*
X177884489Y-95912731D01*
X177885200Y-95910646D01*
X178251410Y-94981034D01*
X178253155Y-94977494D01*
X178559361Y-94467152D01*
X178574120Y-94456217D01*
X178579941Y-94455500D01*
X178649970Y-94455500D01*
X178649976Y-94455500D01*
X178687490Y-94452047D01*
X178687797Y-94451990D01*
X178690373Y-94451495D01*
X178761944Y-94437259D01*
X178800500Y-94425563D01*
X178809152Y-94421979D01*
X178820340Y-94415997D01*
X178838620Y-94414196D01*
X178851610Y-94423829D01*
G37*
%TD.AperFunction*%
%TD*%
%TA.AperFunction,Conductor*%
%TO.N,GND*%
G36*
X146373556Y-73253805D02*
G01*
X146393313Y-73256405D01*
X146498284Y-73270225D01*
X146504322Y-73271843D01*
X146619083Y-73319379D01*
X146624507Y-73322511D01*
X146723046Y-73398123D01*
X146727476Y-73402553D01*
X146803088Y-73501092D01*
X146806221Y-73506517D01*
X146853754Y-73621272D01*
X146855375Y-73627319D01*
X146871795Y-73752042D01*
X146872000Y-73755175D01*
X146872000Y-73869624D01*
X146871795Y-73872757D01*
X146855375Y-73997480D01*
X146853753Y-74003532D01*
X146806221Y-74118282D01*
X146803088Y-74123707D01*
X146727476Y-74222246D01*
X146723046Y-74226676D01*
X146624507Y-74302288D01*
X146619082Y-74305421D01*
X146542147Y-74337289D01*
X146504329Y-74352953D01*
X146498280Y-74354575D01*
X146373557Y-74370995D01*
X146370424Y-74371200D01*
X144833576Y-74371200D01*
X144830443Y-74370995D01*
X144705719Y-74354575D01*
X144699672Y-74352954D01*
X144614630Y-74317728D01*
X144584917Y-74305421D01*
X144579492Y-74302288D01*
X144480953Y-74226676D01*
X144476523Y-74222246D01*
X144400911Y-74123707D01*
X144397778Y-74118282D01*
X144350243Y-74003522D01*
X144348625Y-73997484D01*
X144332205Y-73872756D01*
X144332000Y-73869624D01*
X144332000Y-73755175D01*
X144332205Y-73752043D01*
X144332530Y-73749567D01*
X144348625Y-73627313D01*
X144350242Y-73621278D01*
X144397780Y-73506512D01*
X144400911Y-73501092D01*
X144476527Y-73402548D01*
X144480948Y-73398127D01*
X144579494Y-73322509D01*
X144584912Y-73319380D01*
X144699678Y-73271842D01*
X144705713Y-73270225D01*
X144813091Y-73256089D01*
X144830444Y-73253805D01*
X144833576Y-73253600D01*
X146370424Y-73253600D01*
X146373556Y-73253805D01*
G37*
%TD.AperFunction*%
%TD*%
%TA.AperFunction,Conductor*%
%TO.N,+3V3*%
G36*
X149818756Y-72237805D02*
G01*
X149838513Y-72240405D01*
X149943484Y-72254225D01*
X149949522Y-72255843D01*
X150064283Y-72303379D01*
X150069707Y-72306511D01*
X150168246Y-72382123D01*
X150172676Y-72386553D01*
X150248288Y-72485092D01*
X150251421Y-72490517D01*
X150298954Y-72605272D01*
X150300575Y-72611319D01*
X150316995Y-72736042D01*
X150317200Y-72739175D01*
X150317200Y-74422000D01*
X150565264Y-74566704D01*
X151896587Y-75343309D01*
X151899176Y-75345055D01*
X151998250Y-75421696D01*
X152002646Y-75426122D01*
X152072581Y-75517792D01*
X152077500Y-75532349D01*
X152077500Y-76941528D01*
X152077501Y-76941536D01*
X152086408Y-76986316D01*
X152082824Y-77004332D01*
X152076203Y-77010953D01*
X152024531Y-77045479D01*
X152015879Y-77049063D01*
X151943259Y-77063508D01*
X151942743Y-77063600D01*
X151739600Y-77063600D01*
X151619749Y-77227686D01*
X151619749Y-77227687D01*
X150950906Y-78143394D01*
X150948460Y-78146244D01*
X150841929Y-78252328D01*
X150835862Y-78256720D01*
X150767987Y-78291195D01*
X150752437Y-78293336D01*
X150734979Y-78289864D01*
X150730133Y-78288900D01*
X150730132Y-78288900D01*
X149468587Y-78288900D01*
X149459402Y-78287073D01*
X149452517Y-78284221D01*
X149447092Y-78281088D01*
X149348553Y-78205476D01*
X149344123Y-78201046D01*
X149268511Y-78102507D01*
X149265378Y-78097082D01*
X149217843Y-77982322D01*
X149216225Y-77976284D01*
X149199805Y-77851556D01*
X149199600Y-77848424D01*
X149199600Y-72739175D01*
X149199805Y-72736043D01*
X149200130Y-72733567D01*
X149216225Y-72611313D01*
X149217842Y-72605278D01*
X149265380Y-72490512D01*
X149268511Y-72485092D01*
X149344127Y-72386548D01*
X149348548Y-72382127D01*
X149447094Y-72306509D01*
X149452512Y-72303380D01*
X149567278Y-72255842D01*
X149573313Y-72254225D01*
X149680691Y-72240089D01*
X149698044Y-72237805D01*
X149701176Y-72237600D01*
X149815624Y-72237600D01*
X149818756Y-72237805D01*
G37*
%TD.AperFunction*%
%TD*%
%TA.AperFunction,Conductor*%
%TO.N,Net-(D301-A)*%
G36*
X146144544Y-107691802D02*
G01*
X146164301Y-107694402D01*
X146269272Y-107708222D01*
X146275310Y-107709840D01*
X146390071Y-107757376D01*
X146395495Y-107760508D01*
X146494034Y-107836120D01*
X146498464Y-107840550D01*
X146574076Y-107939089D01*
X146577209Y-107944514D01*
X146624742Y-108059269D01*
X146626363Y-108065316D01*
X146642783Y-108190039D01*
X146642988Y-108193172D01*
X146642988Y-108946093D01*
X146642937Y-108947656D01*
X146638850Y-109010279D01*
X146638444Y-109013377D01*
X146626258Y-109074932D01*
X146625905Y-109076455D01*
X146439788Y-109774397D01*
X146236588Y-110536397D01*
X146236588Y-110601902D01*
X146236588Y-111152421D01*
X146236383Y-111155554D01*
X146219963Y-111280277D01*
X146218341Y-111286329D01*
X146170809Y-111401079D01*
X146167676Y-111406504D01*
X146092064Y-111505043D01*
X146087634Y-111509473D01*
X145989095Y-111585085D01*
X145983670Y-111588218D01*
X145906735Y-111620086D01*
X145868917Y-111635750D01*
X145862868Y-111637372D01*
X145738145Y-111653792D01*
X145735012Y-111653997D01*
X145620564Y-111653997D01*
X145617431Y-111653792D01*
X145492707Y-111637372D01*
X145486660Y-111635751D01*
X145401618Y-111600525D01*
X145371905Y-111588218D01*
X145366480Y-111585085D01*
X145267941Y-111509473D01*
X145263511Y-111505043D01*
X145187899Y-111406504D01*
X145184766Y-111401079D01*
X145137231Y-111286319D01*
X145135613Y-111280281D01*
X145119193Y-111155553D01*
X145118988Y-111152421D01*
X145118988Y-110601921D01*
X145118988Y-110601919D01*
X145118988Y-110536397D01*
X144915788Y-109774397D01*
X144729665Y-109076433D01*
X144729322Y-109074954D01*
X144717131Y-109013377D01*
X144716725Y-109010279D01*
X144712639Y-108947656D01*
X144712588Y-108946093D01*
X144712588Y-108193172D01*
X144712793Y-108190040D01*
X144713118Y-108187564D01*
X144729213Y-108065310D01*
X144730830Y-108059275D01*
X144778368Y-107944509D01*
X144781499Y-107939089D01*
X144857115Y-107840545D01*
X144861536Y-107836124D01*
X144960082Y-107760506D01*
X144965500Y-107757377D01*
X145080266Y-107709839D01*
X145086301Y-107708222D01*
X145193679Y-107694086D01*
X145211032Y-107691802D01*
X145214164Y-107691597D01*
X146141412Y-107691597D01*
X146144544Y-107691802D01*
G37*
%TD.AperFunction*%
%TD*%
%TA.AperFunction,Conductor*%
%TO.N,+BATT*%
G36*
X156926639Y-46790285D02*
G01*
X156972394Y-46843089D01*
X156983600Y-46894600D01*
X156983600Y-48373800D01*
X156963915Y-48440839D01*
X156911111Y-48486594D01*
X156859600Y-48497800D01*
X148878000Y-48497800D01*
X148810961Y-48478115D01*
X148765206Y-48425311D01*
X148754000Y-48373800D01*
X148754000Y-46894600D01*
X148773685Y-46827561D01*
X148826489Y-46781806D01*
X148878000Y-46770600D01*
X156859600Y-46770600D01*
X156926639Y-46790285D01*
G37*
%TD.AperFunction*%
%TD*%
%TA.AperFunction,Conductor*%
%TO.N,/STM32/NRST*%
G36*
X133728491Y-83778738D02*
G01*
X134924800Y-84277200D01*
X136477200Y-84277200D01*
X136544239Y-84296885D01*
X136589994Y-84349689D01*
X136601200Y-84401200D01*
X136601200Y-85880400D01*
X136581515Y-85947439D01*
X136528711Y-85993194D01*
X136477200Y-86004400D01*
X125092000Y-86004400D01*
X125024961Y-85984715D01*
X124979206Y-85931911D01*
X124968000Y-85880400D01*
X124968000Y-83893200D01*
X124987685Y-83826161D01*
X125040489Y-83780406D01*
X125092000Y-83769200D01*
X133680799Y-83769200D01*
X133728491Y-83778738D01*
G37*
%TD.AperFunction*%
%TD*%
%TA.AperFunction,Conductor*%
%TO.N,+3V3*%
G36*
X152708059Y-61701061D02*
G01*
X152813223Y-61714906D01*
X152844491Y-61723284D01*
X152934918Y-61760740D01*
X152962952Y-61776925D01*
X153040602Y-61836509D01*
X153063491Y-61859398D01*
X153123074Y-61937048D01*
X153139259Y-61965081D01*
X153176715Y-62055508D01*
X153185093Y-62086775D01*
X153198939Y-62191939D01*
X153200000Y-62208125D01*
X153200000Y-62258674D01*
X153198939Y-62274860D01*
X153185093Y-62380024D01*
X153176715Y-62411291D01*
X153139259Y-62501718D01*
X153123074Y-62529751D01*
X153063491Y-62607401D01*
X153040601Y-62630291D01*
X152962951Y-62689874D01*
X152934918Y-62706059D01*
X152844491Y-62743515D01*
X152813224Y-62751893D01*
X152719398Y-62764246D01*
X152708058Y-62765739D01*
X152691874Y-62766800D01*
X151422126Y-62766800D01*
X151405941Y-62765739D01*
X151392917Y-62764024D01*
X151300775Y-62751893D01*
X151269508Y-62743515D01*
X151179081Y-62706059D01*
X151151048Y-62689874D01*
X151073398Y-62630291D01*
X151050508Y-62607401D01*
X150990925Y-62529751D01*
X150974740Y-62501718D01*
X150937284Y-62411291D01*
X150928906Y-62380023D01*
X150915061Y-62274859D01*
X150914000Y-62258674D01*
X150914000Y-62208125D01*
X150915061Y-62191940D01*
X150928906Y-62086776D01*
X150937284Y-62055508D01*
X150974740Y-61965081D01*
X150990923Y-61937050D01*
X151050513Y-61859392D01*
X151073392Y-61836513D01*
X151151050Y-61776923D01*
X151179079Y-61760740D01*
X151269509Y-61723283D01*
X151300775Y-61714906D01*
X151405941Y-61701061D01*
X151422126Y-61700000D01*
X152691874Y-61700000D01*
X152708059Y-61701061D01*
G37*
%TD.AperFunction*%
%TD*%
%TA.AperFunction,Conductor*%
%TO.N,/STM32/WAKEUP*%
G36*
X139316756Y-73595805D02*
G01*
X139336513Y-73598405D01*
X139441484Y-73612225D01*
X139447522Y-73613843D01*
X139562283Y-73661379D01*
X139567707Y-73664511D01*
X139666246Y-73740123D01*
X139670676Y-73744553D01*
X139746288Y-73843092D01*
X139749421Y-73848517D01*
X139796954Y-73963272D01*
X139798575Y-73969319D01*
X139814995Y-74094042D01*
X139815200Y-74097175D01*
X139815200Y-74194024D01*
X139814995Y-74197157D01*
X139798575Y-74321880D01*
X139796953Y-74327932D01*
X139749421Y-74442682D01*
X139746288Y-74448107D01*
X139670676Y-74546646D01*
X139666246Y-74551076D01*
X139567707Y-74626688D01*
X139562282Y-74629821D01*
X139485347Y-74661689D01*
X139447529Y-74677353D01*
X139441480Y-74678975D01*
X139316757Y-74695395D01*
X139313624Y-74695600D01*
X137166776Y-74695600D01*
X137163643Y-74695395D01*
X137038919Y-74678975D01*
X137032872Y-74677354D01*
X136947830Y-74642128D01*
X136918117Y-74629821D01*
X136912692Y-74626688D01*
X136814153Y-74551076D01*
X136809723Y-74546646D01*
X136734111Y-74448107D01*
X136730978Y-74442682D01*
X136683443Y-74327922D01*
X136681825Y-74321884D01*
X136665405Y-74197156D01*
X136665200Y-74194024D01*
X136665200Y-74097175D01*
X136665405Y-74094043D01*
X136665730Y-74091567D01*
X136681825Y-73969313D01*
X136683442Y-73963278D01*
X136730980Y-73848512D01*
X136734111Y-73843092D01*
X136809727Y-73744548D01*
X136814148Y-73740127D01*
X136912694Y-73664509D01*
X136918112Y-73661380D01*
X137032878Y-73613842D01*
X137038913Y-73612225D01*
X137146291Y-73598089D01*
X137163644Y-73595805D01*
X137166776Y-73595600D01*
X139313624Y-73595600D01*
X139316756Y-73595805D01*
G37*
%TD.AperFunction*%
%TD*%
%TA.AperFunction,Conductor*%
%TO.N,+3V3*%
G36*
X169774039Y-97470185D02*
G01*
X169819794Y-97522989D01*
X169831000Y-97574500D01*
X169831000Y-98618686D01*
X169816764Y-98676373D01*
X169632328Y-99027308D01*
X169614720Y-99073678D01*
X169600485Y-99131363D01*
X169594500Y-99180595D01*
X169594500Y-99393566D01*
X169579624Y-99452455D01*
X169535138Y-99534889D01*
X169485977Y-99584538D01*
X169426014Y-99600000D01*
X168774000Y-99600000D01*
X168706961Y-99580315D01*
X168661206Y-99527511D01*
X168650000Y-99476000D01*
X168650000Y-99035040D01*
X168669685Y-98968001D01*
X168722489Y-98922246D01*
X168729304Y-98919376D01*
X168942033Y-98837231D01*
X168974554Y-98829504D01*
X168978140Y-98829151D01*
X169015845Y-98821650D01*
X169025583Y-98819714D01*
X169025592Y-98819712D01*
X169026001Y-98819588D01*
X169026628Y-98819452D01*
X169028546Y-98818972D01*
X169028561Y-98819034D01*
X169045825Y-98815304D01*
X169133822Y-98803720D01*
X169166179Y-98803720D01*
X169209094Y-98809370D01*
X169266373Y-98808858D01*
X169334068Y-98798713D01*
X169334092Y-98798708D01*
X169357469Y-98793800D01*
X169357469Y-98793799D01*
X169357473Y-98793799D01*
X169438185Y-98750789D01*
X169490989Y-98705034D01*
X169508943Y-98687443D01*
X169553590Y-98607626D01*
X169573275Y-98540587D01*
X169581600Y-98482689D01*
X169581600Y-98308652D01*
X169580610Y-98288506D01*
X169580597Y-98288373D01*
X169580591Y-98288254D01*
X169580498Y-98286992D01*
X169580529Y-98286989D01*
X169580000Y-98276220D01*
X169580000Y-97574500D01*
X169599685Y-97507461D01*
X169652489Y-97461706D01*
X169704000Y-97450500D01*
X169707000Y-97450500D01*
X169774039Y-97470185D01*
G37*
%TD.AperFunction*%
%TD*%
%TA.AperFunction,Conductor*%
%TO.N,GND*%
G36*
X172493039Y-70869685D02*
G01*
X172538794Y-70922489D01*
X172550000Y-70974000D01*
X172550000Y-71825943D01*
X172530315Y-71892982D01*
X172477511Y-71938737D01*
X172413847Y-71949346D01*
X172331160Y-71941202D01*
X172288490Y-71937000D01*
X171711510Y-71937000D01*
X171673870Y-71940707D01*
X171559018Y-71952018D01*
X171363350Y-72011374D01*
X171334854Y-72026606D01*
X171318479Y-72035358D01*
X171260027Y-72050000D01*
X169674000Y-72050000D01*
X169606961Y-72030315D01*
X169561206Y-71977511D01*
X169550000Y-71926000D01*
X169550000Y-70974000D01*
X169569685Y-70906961D01*
X169622489Y-70861206D01*
X169674000Y-70850000D01*
X172426000Y-70850000D01*
X172493039Y-70869685D01*
G37*
%TD.AperFunction*%
%TD*%
%TA.AperFunction,Conductor*%
%TO.N,GND*%
G36*
X141893956Y-82550205D02*
G01*
X141913713Y-82552805D01*
X142018684Y-82566625D01*
X142024722Y-82568243D01*
X142139483Y-82615779D01*
X142144907Y-82618911D01*
X142243446Y-82694523D01*
X142247876Y-82698953D01*
X142323488Y-82797492D01*
X142326621Y-82802917D01*
X142374154Y-82917672D01*
X142375775Y-82923719D01*
X142392195Y-83048442D01*
X142392400Y-83051575D01*
X142392400Y-83166023D01*
X142392195Y-83169157D01*
X142389828Y-83187130D01*
X142383004Y-83200967D01*
X141925767Y-83658204D01*
X141911930Y-83665028D01*
X141896064Y-83667117D01*
X141893956Y-83667395D01*
X141890824Y-83667600D01*
X140353976Y-83667600D01*
X140350843Y-83667395D01*
X140322088Y-83663609D01*
X140226118Y-83650974D01*
X140220072Y-83649354D01*
X140135030Y-83614128D01*
X140105317Y-83601821D01*
X140099892Y-83598688D01*
X140001353Y-83523076D01*
X139996923Y-83518646D01*
X139921311Y-83420107D01*
X139918178Y-83414682D01*
X139870643Y-83299922D01*
X139869025Y-83293884D01*
X139852605Y-83169156D01*
X139852400Y-83166024D01*
X139852400Y-83051575D01*
X139852605Y-83048443D01*
X139852930Y-83045967D01*
X139869025Y-82923713D01*
X139870642Y-82917678D01*
X139918180Y-82802912D01*
X139921311Y-82797492D01*
X139996927Y-82698948D01*
X140001348Y-82694527D01*
X140099894Y-82618909D01*
X140105312Y-82615780D01*
X140220078Y-82568242D01*
X140226113Y-82566625D01*
X140333491Y-82552489D01*
X140350844Y-82550205D01*
X140353976Y-82550000D01*
X141890824Y-82550000D01*
X141893956Y-82550205D01*
G37*
%TD.AperFunction*%
%TD*%
%TA.AperFunction,Conductor*%
%TO.N,+3V3*%
G36*
X137733156Y-112343005D02*
G01*
X137752913Y-112345605D01*
X137857884Y-112359425D01*
X137863922Y-112361043D01*
X137978683Y-112408579D01*
X137984107Y-112411711D01*
X138082646Y-112487323D01*
X138087076Y-112491753D01*
X138162688Y-112590292D01*
X138165821Y-112595717D01*
X138213354Y-112710472D01*
X138214975Y-112716519D01*
X138231395Y-112841242D01*
X138231600Y-112844375D01*
X138231600Y-114279624D01*
X138231395Y-114282757D01*
X138214975Y-114407480D01*
X138213353Y-114413532D01*
X138165821Y-114528282D01*
X138162688Y-114533707D01*
X138087076Y-114632246D01*
X138082646Y-114636676D01*
X137984107Y-114712288D01*
X137978682Y-114715421D01*
X137901747Y-114747289D01*
X137863929Y-114762953D01*
X137857880Y-114764575D01*
X137733157Y-114780995D01*
X137730024Y-114781200D01*
X137666376Y-114781200D01*
X137663243Y-114780995D01*
X137538519Y-114764575D01*
X137532472Y-114762954D01*
X137447430Y-114727728D01*
X137417717Y-114715421D01*
X137412292Y-114712288D01*
X137313753Y-114636676D01*
X137309323Y-114632246D01*
X137233711Y-114533707D01*
X137230578Y-114528282D01*
X137183043Y-114413522D01*
X137181425Y-114407484D01*
X137165005Y-114282756D01*
X137164800Y-114279624D01*
X137164800Y-112844375D01*
X137165005Y-112841243D01*
X137165330Y-112838767D01*
X137181425Y-112716513D01*
X137183042Y-112710478D01*
X137230580Y-112595712D01*
X137233711Y-112590292D01*
X137309327Y-112491748D01*
X137313748Y-112487327D01*
X137412294Y-112411709D01*
X137417712Y-112408580D01*
X137532478Y-112361042D01*
X137538513Y-112359425D01*
X137645891Y-112345289D01*
X137663244Y-112343005D01*
X137666376Y-112342800D01*
X137730024Y-112342800D01*
X137733156Y-112343005D01*
G37*
%TD.AperFunction*%
%TD*%
%TA.AperFunction,Conductor*%
%TO.N,Net-(D304-A)*%
G36*
X134155744Y-107691802D02*
G01*
X134175501Y-107694402D01*
X134280472Y-107708222D01*
X134286510Y-107709840D01*
X134401271Y-107757376D01*
X134406695Y-107760508D01*
X134505234Y-107836120D01*
X134509664Y-107840550D01*
X134585276Y-107939089D01*
X134588409Y-107944514D01*
X134635942Y-108059269D01*
X134637563Y-108065316D01*
X134653983Y-108190039D01*
X134654188Y-108193172D01*
X134654188Y-108946093D01*
X134654137Y-108947656D01*
X134650050Y-109010279D01*
X134649644Y-109013377D01*
X134637458Y-109074932D01*
X134637105Y-109076455D01*
X134450988Y-109774397D01*
X134247788Y-110536397D01*
X134247788Y-110601902D01*
X134247788Y-111152421D01*
X134247583Y-111155554D01*
X134231163Y-111280277D01*
X134229541Y-111286329D01*
X134182009Y-111401079D01*
X134178876Y-111406504D01*
X134103264Y-111505043D01*
X134098834Y-111509473D01*
X134000295Y-111585085D01*
X133994870Y-111588218D01*
X133917935Y-111620086D01*
X133880117Y-111635750D01*
X133874068Y-111637372D01*
X133749345Y-111653792D01*
X133746212Y-111653997D01*
X133631764Y-111653997D01*
X133628631Y-111653792D01*
X133503907Y-111637372D01*
X133497860Y-111635751D01*
X133412818Y-111600525D01*
X133383105Y-111588218D01*
X133377680Y-111585085D01*
X133279141Y-111509473D01*
X133274711Y-111505043D01*
X133199099Y-111406504D01*
X133195966Y-111401079D01*
X133148431Y-111286319D01*
X133146813Y-111280281D01*
X133130393Y-111155553D01*
X133130188Y-111152421D01*
X133130188Y-110601921D01*
X133130188Y-110601919D01*
X133130188Y-110536397D01*
X132926988Y-109774397D01*
X132740865Y-109076433D01*
X132740522Y-109074954D01*
X132728331Y-109013377D01*
X132727925Y-109010279D01*
X132723839Y-108947656D01*
X132723788Y-108946093D01*
X132723788Y-108193172D01*
X132723993Y-108190040D01*
X132724318Y-108187564D01*
X132740413Y-108065310D01*
X132742030Y-108059275D01*
X132789568Y-107944509D01*
X132792699Y-107939089D01*
X132868315Y-107840545D01*
X132872736Y-107836124D01*
X132971282Y-107760506D01*
X132976700Y-107757377D01*
X133091466Y-107709839D01*
X133097501Y-107708222D01*
X133204879Y-107694086D01*
X133222232Y-107691802D01*
X133225364Y-107691597D01*
X134152612Y-107691597D01*
X134155744Y-107691802D01*
G37*
%TD.AperFunction*%
%TD*%
%TA.AperFunction,Conductor*%
%TO.N,+3V3*%
G36*
X153016087Y-86788556D02*
G01*
X153026846Y-86794767D01*
X153070471Y-86838392D01*
X153077500Y-86855363D01*
X153077500Y-88291528D01*
X153077501Y-88291536D01*
X153093484Y-88371894D01*
X153093485Y-88371896D01*
X153103136Y-88386339D01*
X153105264Y-88389524D01*
X153107155Y-88392353D01*
X153111200Y-88405687D01*
X153111200Y-92767224D01*
X153110995Y-92770357D01*
X153094575Y-92895080D01*
X153092953Y-92901132D01*
X153045421Y-93015882D01*
X153042288Y-93021307D01*
X152966676Y-93119846D01*
X152962246Y-93124276D01*
X152863707Y-93199888D01*
X152858282Y-93203021D01*
X152781347Y-93234889D01*
X152743529Y-93250553D01*
X152737480Y-93252175D01*
X152612757Y-93268595D01*
X152609624Y-93268800D01*
X152495176Y-93268800D01*
X152492043Y-93268595D01*
X152367319Y-93252175D01*
X152361272Y-93250554D01*
X152276230Y-93215328D01*
X152246517Y-93203021D01*
X152241092Y-93199888D01*
X152142553Y-93124276D01*
X152138123Y-93119846D01*
X152062511Y-93021307D01*
X152059378Y-93015882D01*
X152011843Y-92901122D01*
X152010225Y-92895084D01*
X151993805Y-92770356D01*
X151993600Y-92767224D01*
X151993600Y-89506421D01*
X151993819Y-89503188D01*
X152011304Y-89374556D01*
X152013026Y-89368342D01*
X152063569Y-89250546D01*
X152066893Y-89245007D01*
X152147038Y-89144987D01*
X152151723Y-89140532D01*
X152256992Y-89064572D01*
X152259742Y-89062858D01*
X152374600Y-89001600D01*
X152755600Y-88798400D01*
X152755600Y-88389524D01*
X152759645Y-88376190D01*
X152762515Y-88371895D01*
X152778500Y-88291533D01*
X152778499Y-86866162D01*
X152785527Y-86849193D01*
X152839955Y-86794765D01*
X152850710Y-86788556D01*
X152927190Y-86768064D01*
X152939610Y-86768064D01*
X153016087Y-86788556D01*
G37*
%TD.AperFunction*%
%TD*%
%TA.AperFunction,Conductor*%
%TO.N,Net-(J401-Pin_2)*%
G36*
X181109039Y-46589285D02*
G01*
X181154794Y-46642089D01*
X181166000Y-46693600D01*
X181166000Y-48376000D01*
X181146315Y-48443039D01*
X181093511Y-48488794D01*
X181042000Y-48500000D01*
X171344800Y-48500000D01*
X171277761Y-48480315D01*
X171232006Y-48427511D01*
X171220800Y-48376000D01*
X171220800Y-46693600D01*
X171240485Y-46626561D01*
X171293289Y-46580806D01*
X171344800Y-46569600D01*
X181042000Y-46569600D01*
X181109039Y-46589285D01*
G37*
%TD.AperFunction*%
%TD*%
%TA.AperFunction,Conductor*%
%TO.N,GND*%
G36*
X170817539Y-97470185D02*
G01*
X170863294Y-97522989D01*
X170874500Y-97574500D01*
X170874500Y-98288397D01*
X170889760Y-98365118D01*
X170889761Y-98365120D01*
X170930002Y-98425344D01*
X170950880Y-98492021D01*
X170950900Y-98494235D01*
X170950900Y-98700000D01*
X170950420Y-99180599D01*
X170950124Y-99476124D01*
X170930372Y-99543144D01*
X170877523Y-99588846D01*
X170826124Y-99600000D01*
X169924000Y-99600000D01*
X169856961Y-99580315D01*
X169811206Y-99527511D01*
X169800000Y-99476000D01*
X169800000Y-99180599D01*
X169814236Y-99122912D01*
X170036500Y-98700000D01*
X170036500Y-97574500D01*
X170056185Y-97507461D01*
X170108989Y-97461706D01*
X170160500Y-97450500D01*
X170750500Y-97450500D01*
X170817539Y-97470185D01*
G37*
%TD.AperFunction*%
%TD*%
%TA.AperFunction,Conductor*%
%TO.N,Net-(D403-A)*%
G36*
X181943039Y-54769685D02*
G01*
X181988794Y-54822489D01*
X182000000Y-54874000D01*
X182000000Y-56476000D01*
X181980315Y-56543039D01*
X181927511Y-56588794D01*
X181876000Y-56600000D01*
X178624000Y-56600000D01*
X178556961Y-56580315D01*
X178511206Y-56527511D01*
X178500000Y-56476000D01*
X178500000Y-54874000D01*
X178519685Y-54806961D01*
X178572489Y-54761206D01*
X178624000Y-54750000D01*
X181876000Y-54750000D01*
X181943039Y-54769685D01*
G37*
%TD.AperFunction*%
%TD*%
%TA.AperFunction,Conductor*%
%TO.N,GND*%
G36*
X178133322Y-93270731D02*
G01*
X178134904Y-93271702D01*
X178155661Y-93285571D01*
X178192851Y-93292969D01*
X178192855Y-93292969D01*
X178724218Y-93292969D01*
X178737552Y-93297014D01*
X178772808Y-93320571D01*
X178779429Y-93327192D01*
X178828317Y-93400358D01*
X178831901Y-93409010D01*
X178849539Y-93497682D01*
X178850000Y-93502364D01*
X178850000Y-93750000D01*
X178075002Y-93750000D01*
X178074999Y-93749999D01*
X178074995Y-93750000D01*
X178000000Y-93750000D01*
X177952095Y-93807702D01*
X177952093Y-93807705D01*
X176387231Y-95692652D01*
X176000776Y-96158156D01*
X175951074Y-96218024D01*
X175948641Y-96220553D01*
X175844093Y-96314415D01*
X175838260Y-96318281D01*
X175712687Y-96377239D01*
X175705986Y-96379258D01*
X175566983Y-96399744D01*
X175563484Y-96400000D01*
X175451891Y-96400000D01*
X175448137Y-96399705D01*
X175345597Y-96383464D01*
X175338455Y-96381143D01*
X175247663Y-96334882D01*
X175241588Y-96330469D01*
X175169530Y-96258411D01*
X175165117Y-96252336D01*
X175118856Y-96161544D01*
X175116535Y-96154402D01*
X175100295Y-96051862D01*
X175100000Y-96048108D01*
X175100000Y-94401575D01*
X175100205Y-94398443D01*
X175100530Y-94395967D01*
X175116625Y-94273713D01*
X175118242Y-94267678D01*
X175165780Y-94152912D01*
X175168911Y-94147492D01*
X175244527Y-94048948D01*
X175248948Y-94044527D01*
X175347494Y-93968909D01*
X175352912Y-93965780D01*
X175467678Y-93918242D01*
X175473713Y-93916625D01*
X175581091Y-93902489D01*
X175598444Y-93900205D01*
X175601576Y-93900000D01*
X176357672Y-93900000D01*
X176450000Y-93900000D01*
X176536245Y-93867023D01*
X176536249Y-93867023D01*
X176887108Y-93732870D01*
X177746370Y-93404329D01*
X178062740Y-93283363D01*
X178064810Y-93282678D01*
X178115083Y-93268554D01*
X178133322Y-93270731D01*
G37*
%TD.AperFunction*%
%TD*%
%TA.AperFunction,Conductor*%
%TO.N,Net-(C204-Pad2)*%
G36*
X142147956Y-80772205D02*
G01*
X142167713Y-80774805D01*
X142272684Y-80788625D01*
X142278722Y-80790243D01*
X142393483Y-80837779D01*
X142398907Y-80840911D01*
X142497446Y-80916523D01*
X142501876Y-80920953D01*
X142577488Y-81019492D01*
X142580621Y-81024917D01*
X142628154Y-81139672D01*
X142629775Y-81145719D01*
X142646195Y-81270442D01*
X142646400Y-81273575D01*
X142646400Y-81489624D01*
X142646195Y-81492757D01*
X142629775Y-81617480D01*
X142628153Y-81623532D01*
X142580621Y-81738282D01*
X142577488Y-81743707D01*
X142501876Y-81842246D01*
X142497446Y-81846676D01*
X142398907Y-81922288D01*
X142393482Y-81925421D01*
X142331940Y-81950913D01*
X142278729Y-81972953D01*
X142272680Y-81974575D01*
X142147957Y-81990995D01*
X142144824Y-81991200D01*
X140157200Y-81991200D01*
X140007542Y-82165800D01*
X140007535Y-82165807D01*
X138783984Y-83593284D01*
X138781560Y-83595732D01*
X138677671Y-83686570D01*
X138671901Y-83690307D01*
X138548115Y-83747240D01*
X138541524Y-83749189D01*
X138404940Y-83768953D01*
X138401503Y-83769200D01*
X136493176Y-83769200D01*
X136490043Y-83768995D01*
X136365319Y-83752575D01*
X136359272Y-83750954D01*
X136274230Y-83715728D01*
X136244517Y-83703421D01*
X136239092Y-83700288D01*
X136140553Y-83624676D01*
X136136123Y-83620246D01*
X136060511Y-83521707D01*
X136057378Y-83516282D01*
X136009843Y-83401522D01*
X136008225Y-83395484D01*
X135991805Y-83270756D01*
X135991600Y-83267624D01*
X135991600Y-82089111D01*
X135991819Y-82085876D01*
X135993769Y-82071540D01*
X136009332Y-81957141D01*
X136011056Y-81950921D01*
X136061679Y-81833045D01*
X136065003Y-81827511D01*
X136145272Y-81727445D01*
X136149955Y-81722998D01*
X136254043Y-81648010D01*
X136259744Y-81644976D01*
X136357477Y-81608870D01*
X136381615Y-81599953D01*
X136384726Y-81599038D01*
X140052171Y-80784050D01*
X140053459Y-80783800D01*
X140084842Y-80778607D01*
X140105437Y-80775199D01*
X140108036Y-80774914D01*
X140151258Y-80772548D01*
X140160629Y-80772036D01*
X140161940Y-80772000D01*
X142144824Y-80772000D01*
X142147956Y-80772205D01*
G37*
%TD.AperFunction*%
%TD*%
%TA.AperFunction,Conductor*%
%TO.N,+3V3*%
G36*
X145742756Y-112335005D02*
G01*
X145762513Y-112337605D01*
X145867484Y-112351425D01*
X145873522Y-112353043D01*
X145988283Y-112400579D01*
X145993707Y-112403711D01*
X146092246Y-112479323D01*
X146096676Y-112483753D01*
X146172288Y-112582292D01*
X146175421Y-112587717D01*
X146222954Y-112702472D01*
X146224575Y-112708519D01*
X146240995Y-112833242D01*
X146241200Y-112836375D01*
X146241200Y-114271624D01*
X146240995Y-114274757D01*
X146224575Y-114399480D01*
X146222953Y-114405532D01*
X146175421Y-114520282D01*
X146172288Y-114525707D01*
X146096676Y-114624246D01*
X146092246Y-114628676D01*
X145993707Y-114704288D01*
X145988282Y-114707421D01*
X145911347Y-114739289D01*
X145873529Y-114754953D01*
X145867480Y-114756575D01*
X145742757Y-114772995D01*
X145739624Y-114773200D01*
X145675976Y-114773200D01*
X145672843Y-114772995D01*
X145548119Y-114756575D01*
X145542072Y-114754954D01*
X145457030Y-114719728D01*
X145427317Y-114707421D01*
X145421892Y-114704288D01*
X145323353Y-114628676D01*
X145318923Y-114624246D01*
X145243311Y-114525707D01*
X145240178Y-114520282D01*
X145192643Y-114405522D01*
X145191025Y-114399484D01*
X145174605Y-114274756D01*
X145174400Y-114271624D01*
X145174400Y-112836375D01*
X145174605Y-112833243D01*
X145174930Y-112830767D01*
X145191025Y-112708513D01*
X145192642Y-112702478D01*
X145240180Y-112587712D01*
X145243311Y-112582292D01*
X145318927Y-112483748D01*
X145323348Y-112479327D01*
X145421894Y-112403709D01*
X145427312Y-112400580D01*
X145542078Y-112353042D01*
X145548113Y-112351425D01*
X145655491Y-112337289D01*
X145672844Y-112335005D01*
X145675976Y-112334800D01*
X145739624Y-112334800D01*
X145742756Y-112335005D01*
G37*
%TD.AperFunction*%
%TD*%
%TA.AperFunction,Conductor*%
%TO.N,GND*%
G36*
X173635439Y-56030485D02*
G01*
X173681194Y-56083289D01*
X173692400Y-56134800D01*
X173692400Y-58122000D01*
X173672715Y-58189039D01*
X173619911Y-58234794D01*
X173568400Y-58246000D01*
X172597200Y-58246000D01*
X172530161Y-58226315D01*
X172484406Y-58173511D01*
X172473200Y-58122000D01*
X172473200Y-56260300D01*
X172492885Y-56193261D01*
X172545689Y-56147506D01*
X172597200Y-56136300D01*
X172785863Y-56136300D01*
X172785868Y-56136300D01*
X172825961Y-56132351D01*
X172873412Y-56122912D01*
X172911959Y-56111219D01*
X172950872Y-56095101D01*
X172950874Y-56095100D01*
X172964604Y-56089412D01*
X172995867Y-56081035D01*
X173069010Y-56071406D01*
X173098911Y-56065180D01*
X173134236Y-56055035D01*
X173188170Y-56025792D01*
X173247274Y-56010800D01*
X173568400Y-56010800D01*
X173635439Y-56030485D01*
G37*
%TD.AperFunction*%
%TD*%
%TA.AperFunction,Conductor*%
%TO.N,Net-(D401-A)*%
G36*
X173093039Y-48889285D02*
G01*
X173138794Y-48942089D01*
X173150000Y-48993600D01*
X173150000Y-55744725D01*
X173130315Y-55811764D01*
X173077511Y-55857519D01*
X173042186Y-55867664D01*
X172940770Y-55881016D01*
X172926038Y-55882956D01*
X172926037Y-55882956D01*
X172872232Y-55905243D01*
X172833319Y-55921361D01*
X172785868Y-55930800D01*
X171445200Y-55930800D01*
X171378161Y-55911115D01*
X171332406Y-55858311D01*
X171321200Y-55806800D01*
X171321200Y-48993600D01*
X171340885Y-48926561D01*
X171393689Y-48880806D01*
X171445200Y-48869600D01*
X173026000Y-48869600D01*
X173093039Y-48889285D01*
G37*
%TD.AperFunction*%
%TD*%
%TA.AperFunction,Conductor*%
%TO.N,Net-(R201-Pad1)*%
G36*
X135934639Y-73628885D02*
G01*
X135980394Y-73681689D01*
X135991600Y-73733200D01*
X135991600Y-76431600D01*
X135971915Y-76498639D01*
X135919111Y-76544394D01*
X135867600Y-76555600D01*
X124939600Y-76555600D01*
X124872561Y-76535915D01*
X124826806Y-76483111D01*
X124815600Y-76431600D01*
X124815600Y-73733200D01*
X124835285Y-73666161D01*
X124888089Y-73620406D01*
X124939600Y-73609200D01*
X135867600Y-73609200D01*
X135934639Y-73628885D01*
G37*
%TD.AperFunction*%
%TD*%
%TA.AperFunction,Conductor*%
%TO.N,+3V3*%
G36*
X159518487Y-86788556D02*
G01*
X159529246Y-86794767D01*
X159585232Y-86850753D01*
X159591443Y-86861512D01*
X159612782Y-86941147D01*
X159613600Y-86947359D01*
X159613600Y-88341200D01*
X159920529Y-88469682D01*
X159920531Y-88469683D01*
X160070248Y-88532355D01*
X161489441Y-89126435D01*
X161492580Y-89128029D01*
X161613243Y-89200890D01*
X161618657Y-89205359D01*
X161711876Y-89308695D01*
X161715766Y-89314540D01*
X161775093Y-89440432D01*
X161777125Y-89447153D01*
X161797742Y-89586593D01*
X161798000Y-89590103D01*
X161798000Y-91090824D01*
X161797795Y-91093957D01*
X161781375Y-91218680D01*
X161779753Y-91224732D01*
X161732221Y-91339482D01*
X161729088Y-91344907D01*
X161653476Y-91443446D01*
X161649046Y-91447876D01*
X161550507Y-91523488D01*
X161545082Y-91526621D01*
X161468147Y-91558489D01*
X161430329Y-91574153D01*
X161424280Y-91575775D01*
X161299557Y-91592195D01*
X161296424Y-91592400D01*
X161181976Y-91592400D01*
X161178843Y-91592195D01*
X161054119Y-91575775D01*
X161048072Y-91574154D01*
X160963030Y-91538928D01*
X160933317Y-91526621D01*
X160927892Y-91523488D01*
X160829353Y-91447876D01*
X160824923Y-91443446D01*
X160749311Y-91344907D01*
X160746178Y-91339482D01*
X160698643Y-91224722D01*
X160697025Y-91218684D01*
X160680605Y-91093956D01*
X160680400Y-91090824D01*
X160680400Y-89766909D01*
X160680400Y-89509600D01*
X160471020Y-89360043D01*
X160471019Y-89360042D01*
X159468927Y-88644262D01*
X159466021Y-88641816D01*
X159357807Y-88535048D01*
X159353325Y-88528949D01*
X159284641Y-88395483D01*
X159282284Y-88388292D01*
X159272704Y-88328327D01*
X159272863Y-88319867D01*
X159278500Y-88291533D01*
X159278499Y-86870855D01*
X159279315Y-86864651D01*
X159280156Y-86861510D01*
X159286365Y-86850755D01*
X159342355Y-86794765D01*
X159353110Y-86788556D01*
X159429590Y-86768064D01*
X159442010Y-86768064D01*
X159518487Y-86788556D01*
G37*
%TD.AperFunction*%
%TD*%
%TA.AperFunction,Conductor*%
%TO.N,Net-(U201-PA3)*%
G36*
X173906822Y-72719685D02*
G01*
X173927464Y-72736319D01*
X174463681Y-73272536D01*
X174497166Y-73333859D01*
X174500000Y-73360217D01*
X174500000Y-73676000D01*
X174480315Y-73743039D01*
X174427511Y-73788794D01*
X174376000Y-73800000D01*
X171574000Y-73800000D01*
X171506961Y-73780315D01*
X171461206Y-73727511D01*
X171450000Y-73676000D01*
X171450000Y-72928608D01*
X171469685Y-72861569D01*
X171522489Y-72815814D01*
X171528162Y-72813391D01*
X171530562Y-72812435D01*
X171530570Y-72812434D01*
X171631989Y-72772084D01*
X171641802Y-72768651D01*
X171705246Y-72749405D01*
X171729075Y-72744666D01*
X171745029Y-72743095D01*
X171757166Y-72742500D01*
X172242833Y-72742500D01*
X172254987Y-72743097D01*
X172263040Y-72743890D01*
X172334894Y-72750967D01*
X172366128Y-72753431D01*
X172546250Y-72743890D01*
X172609914Y-72733281D01*
X172688635Y-72716077D01*
X172707178Y-72708726D01*
X172752872Y-72700000D01*
X173839783Y-72700000D01*
X173906822Y-72719685D01*
G37*
%TD.AperFunction*%
%TD*%
%TA.AperFunction,Conductor*%
%TO.N,+3V3*%
G36*
X181850000Y-90526000D02*
G01*
X181830315Y-90593039D01*
X181777511Y-90638794D01*
X181726000Y-90650000D01*
X180774000Y-90650000D01*
X180706961Y-90630315D01*
X180661206Y-90577511D01*
X180650000Y-90526000D01*
X180650000Y-88450000D01*
X181850000Y-88450000D01*
X181850000Y-90526000D01*
G37*
%TD.AperFunction*%
%TD*%
%TA.AperFunction,Conductor*%
%TO.N,GND*%
G36*
X152508087Y-86788556D02*
G01*
X152518846Y-86794767D01*
X152566788Y-86842709D01*
X152573817Y-86859680D01*
X152573358Y-86864353D01*
X152572999Y-86866161D01*
X152572999Y-88268930D01*
X152572538Y-88273612D01*
X152565309Y-88309956D01*
X152563467Y-88315532D01*
X152562996Y-88316527D01*
X152562993Y-88316535D01*
X152558949Y-88329864D01*
X152558946Y-88329877D01*
X152550100Y-88389519D01*
X152550100Y-88660699D01*
X152543071Y-88677670D01*
X152537394Y-88681875D01*
X152272030Y-88823402D01*
X152272026Y-88823406D01*
X152163033Y-88881535D01*
X152151060Y-88888448D01*
X152148297Y-88890170D01*
X152136738Y-88897931D01*
X152031482Y-88973881D01*
X152031460Y-88973899D01*
X152010125Y-88991602D01*
X152010094Y-88991630D01*
X152005437Y-88996057D01*
X152005431Y-88996064D01*
X151986675Y-89016479D01*
X151986652Y-89016506D01*
X151908559Y-89113966D01*
X151899830Y-89120776D01*
X151675677Y-89223514D01*
X151675673Y-89223516D01*
X151384000Y-89357200D01*
X151384000Y-89678045D01*
X151384000Y-92767224D01*
X151383795Y-92770357D01*
X151367375Y-92895080D01*
X151365753Y-92901132D01*
X151318221Y-93015882D01*
X151315088Y-93021307D01*
X151239476Y-93119846D01*
X151235046Y-93124276D01*
X151136507Y-93199888D01*
X151131082Y-93203021D01*
X151054147Y-93234889D01*
X151016329Y-93250553D01*
X151010280Y-93252175D01*
X150885557Y-93268595D01*
X150882424Y-93268800D01*
X150767976Y-93268800D01*
X150764843Y-93268595D01*
X150640119Y-93252175D01*
X150634072Y-93250554D01*
X150549030Y-93215328D01*
X150519317Y-93203021D01*
X150513892Y-93199888D01*
X150415353Y-93124276D01*
X150410923Y-93119846D01*
X150335311Y-93021307D01*
X150332178Y-93015882D01*
X150284643Y-92901122D01*
X150283025Y-92895084D01*
X150266605Y-92770356D01*
X150266400Y-92767224D01*
X150266400Y-89269117D01*
X150266633Y-89265784D01*
X150285217Y-89133252D01*
X150287048Y-89126851D01*
X150340687Y-89006078D01*
X150344207Y-89000430D01*
X150428996Y-88899066D01*
X150433936Y-88894603D01*
X150543330Y-88820474D01*
X150549308Y-88817540D01*
X150676484Y-88775830D01*
X150679702Y-88775017D01*
X151553099Y-88618254D01*
X151989646Y-88539899D01*
X152030132Y-88539899D01*
X152110495Y-88523915D01*
X152122173Y-88516111D01*
X152247600Y-88493600D01*
X152247600Y-88394216D01*
X152262515Y-88371895D01*
X152278500Y-88291533D01*
X152278499Y-86858161D01*
X152285526Y-86841194D01*
X152331956Y-86794764D01*
X152342708Y-86788557D01*
X152419190Y-86768064D01*
X152431610Y-86768064D01*
X152508087Y-86788556D01*
G37*
%TD.AperFunction*%
%TD*%
M02*
