M48
; DRILL file {KiCad 8.0.3-8.0.3-0~ubuntu22.04.1} date 2024-06-17T20:55:45-0700
; FORMAT={-:-/ absolute / inch / decimal}
; #@! TF.CreationDate,2024-06-17T20:55:45-07:00
; #@! TF.GenerationSoftware,Kicad,Pcbnew,8.0.3-8.0.3-0~ubuntu22.04.1
; #@! TF.FileFunction,Plated,1,4,PTH
FMAT,2
INCH
; #@! TA.AperFunction,Plated,PTH,ViaDrill
T1C0.0157
; #@! TA.AperFunction,Plated,PTH,ComponentDrill
T2C0.0197
; #@! TA.AperFunction,Plated,PTH,ComponentDrill
T3C0.0354
; #@! TA.AperFunction,Plated,PTH,ComponentDrill
T4C0.0394
; #@! TA.AperFunction,Plated,PTH,ComponentDrill
T5C0.0433
; #@! TA.AperFunction,Plated,PTH,ComponentDrill
T6C0.0591
; #@! TA.AperFunction,Plated,PTH,ComponentDrill
T7C0.1260
%
G90
G05
T1
X5.2627Y-4.4986
X5.342Y-3.474
X5.4202Y-4.4989
X5.4356Y-2.8522
X5.4494Y-2.99
X5.526Y-3.016
X5.5605Y-1.9134
X5.5605Y-1.9634
X5.5605Y-2.0114
X5.578Y-4.4986
X5.582Y-3.272
X5.6662Y-3.2789
X5.6662Y-3.3429
X5.68Y-3.42
X5.72Y-3.452
X5.7355Y-4.4986
X5.74Y-3.11
X5.7584Y-2.906
X5.76Y-3.482
X5.796Y-3.514
X5.896Y-2.866
X5.9193Y-3.4469
X5.938Y-3.652
X5.964Y-3.192
X5.968Y-2.866
X5.9905Y-2.1054
X6.006Y-3.652
X6.012Y-3.212
X6.0135Y-2.4511
X6.0217Y-3.376
X6.0245Y-2.1054
X6.06Y-3.234
X6.061Y-3.3602
X6.072Y-3.704
X6.072Y-4.08
X6.104Y-3.274
X6.124Y-3.99
X6.13Y-3.52
X6.13Y-3.656
X6.132Y-3.58
X6.1465Y-1.8074
X6.1465Y-1.9794
X6.1545Y-1.8574
X6.1545Y-1.8934
X6.156Y-3.386
X6.16Y-3.626
X6.172Y-3.994
X6.222Y-3.686
X6.222Y-4.08
X6.256Y-3.994
X6.2657Y-3.2165
X6.2736Y-3.2736
X6.276Y-3.584
X6.3077Y-2.1202
X6.348Y-3.584
X6.4114Y-3.2953
X6.496Y-3.222
X6.5Y-3.3
X6.512Y-3.402
X6.556Y-3.268
X6.572Y-3.028
X6.572Y-3.096
X6.5804Y-3.807
X6.6102Y-2.8583
X6.6102Y-3.4114
X6.6102Y-3.4528
X6.622Y-3.5556
X6.6344Y-3.859
X6.6398Y-2.9075
X6.644Y-3.186
X6.6594Y-3.9055
X6.6624Y-3.589
X6.676Y-3.304
X6.685Y-3.4154
X6.6988Y-2.813
X6.7061Y-3.5647
X6.7087Y-3.9035
X6.7559Y-3.9035
X6.7572Y-3.5588
X6.8025Y-3.5804
X6.8143Y-2.2231
X6.8183Y-3.6178
X6.8683Y-2.0947
X6.892Y-4.1552
X6.9003Y-2.0947
X6.9114Y-3.7736
X6.9134Y-3.6043
X6.9193Y-2.8583
X6.9224Y-2.7264
X6.9547Y-3.8583
X6.9667Y-3.6083
X6.9724Y-2.7264
X6.9883Y-2.14
X6.9902Y-3.3819
X7.0059Y-3.561
X7.0204Y-2.7264
X7.0236Y-3.8583
X7.0374Y-3.5886
X7.061Y-3.5177
X7.0678Y-3.7978
X7.1123Y-2.264
X7.1123Y-2.298
X7.128Y-3.272
X7.1358Y-3.5571
X7.1496Y-3.7539
X7.1654Y-3.5846
X7.1732Y-3.6319
X7.1781Y-3.6797
X7.194Y-3.296
X7.2047Y-3.561
X7.2441Y-3.3465
X7.256Y-3.402
X7.26Y-3.47
X7.3Y-3.446
X7.3006Y-2.1913
X7.3252Y-3.0177
X7.4557Y-3.0295
X7.5049Y-2.9651
X7.5069Y-3.0751
X7.5069Y-3.1591
X7.5069Y-3.2671
T2
X5.3976Y-2.1594
X5.3996Y-1.8819
X5.4941Y-3.6132
X6.3971Y-1.7758
X6.648Y-3.058
X6.685Y-4.0807
X6.7839Y-2.638
X6.9016Y-3.0118
X6.9074Y-3.3313
X6.9094Y-3.4213
X7.3622Y-3.748
T3
X5.0925Y-2.502
X5.0925Y-2.5807
X5.0925Y-2.6594
T4
X6.0102Y-4.3701
X6.1102Y-4.3701
X6.2858Y-4.3701
X6.3858Y-4.3701
X6.4787Y-2.1055
X6.4787Y-2.2055
X6.4787Y-2.3055
X6.4787Y-2.4055
X6.4787Y-2.5055
X6.5787Y-2.1055
X6.5787Y-2.2055
X6.5787Y-2.3055
X6.5787Y-2.4055
X6.5787Y-2.5055
X6.7811Y-1.8713
X6.7811Y-1.9713
X7.0423Y-4.2878
X7.0423Y-4.3878
X7.0945Y-1.8685
X7.0945Y-1.9685
X7.3573Y-3.6018
X7.4573Y-3.6018
T5
X4.9587Y-2.9548
X4.9587Y-3.132
X4.9587Y-3.344
X4.9587Y-3.5212
X5.2146Y-2.9548
X5.2146Y-3.132
X5.2146Y-3.344
X5.2146Y-3.5212
T6
X5.0925Y-2.4193
X5.0925Y-2.7421
T7
X5.0267Y-1.9392
X5.0267Y-4.2992
X7.3867Y-1.9392
X7.3867Y-4.2992
M30
