%TF.GenerationSoftware,KiCad,Pcbnew,8.0.3-8.0.3-0~ubuntu22.04.1*%
%TF.CreationDate,2024-06-17T20:55:48-07:00*%
%TF.ProjectId,A1-FlightComputer,41312d46-6c69-4676-9874-436f6d707574,rev?*%
%TF.SameCoordinates,Original*%
%TF.FileFunction,Copper,L2,Inr*%
%TF.FilePolarity,Positive*%
%FSLAX46Y46*%
G04 Gerber Fmt 4.6, Leading zero omitted, Abs format (unit mm)*
G04 Created by KiCad (PCBNEW 8.0.3-8.0.3-0~ubuntu22.04.1) date 2024-06-17 20:55:48*
%MOMM*%
%LPD*%
G01*
G04 APERTURE LIST*
%TA.AperFunction,ComponentPad*%
%ADD10C,1.000000*%
%TD*%
%TA.AperFunction,ComponentPad*%
%ADD11C,6.400000*%
%TD*%
%TA.AperFunction,ComponentPad*%
%ADD12R,1.700000X1.700000*%
%TD*%
%TA.AperFunction,ComponentPad*%
%ADD13O,1.700000X1.700000*%
%TD*%
%TA.AperFunction,ComponentPad*%
%ADD14C,2.000000*%
%TD*%
%TA.AperFunction,ComponentPad*%
%ADD15O,3.500000X2.200000*%
%TD*%
%TA.AperFunction,ComponentPad*%
%ADD16R,2.500000X1.500000*%
%TD*%
%TA.AperFunction,ComponentPad*%
%ADD17O,2.500000X1.500000*%
%TD*%
%TA.AperFunction,ViaPad*%
%ADD18C,0.800000*%
%TD*%
G04 APERTURE END LIST*
D10*
%TO.N,GND*%
%TO.C,TP204*%
X137150000Y-47800000D03*
%TD*%
%TO.N,+BATT*%
%TO.C,TP401*%
X162486800Y-45106000D03*
%TD*%
%TO.N,GND*%
%TO.C,TP206*%
X187000000Y-95200000D03*
%TD*%
%TO.N,+5V*%
%TO.C,TP402*%
X172310000Y-67005600D03*
%TD*%
%TO.N,/Peripherals/I2C_SDA*%
%TO.C,TP201*%
X175449200Y-84614000D03*
%TD*%
D11*
%TO.N,unconnected-(H104-Pad1)*%
%TO.C,H104*%
X127678000Y-109200000D03*
%TD*%
D10*
%TO.N,GND*%
%TO.C,TP207*%
X139550000Y-91775000D03*
%TD*%
D12*
%TO.N,+5V*%
%TO.C,J301*%
X178875000Y-111450000D03*
D13*
%TO.N,Net-(J301-Pin_2)*%
X178875000Y-108910000D03*
%TD*%
D10*
%TO.N,GND*%
%TO.C,TP205*%
X175300000Y-76500000D03*
%TD*%
D14*
%TO.N,/STM32/NRST*%
%TO.C,SW202*%
X125950000Y-84937600D03*
X132450000Y-84937600D03*
%TO.N,GND*%
X125950000Y-89437600D03*
X132450000Y-89437600D03*
%TD*%
D12*
%TO.N,/Peripherals/I2C_SCL*%
%TO.C,J302*%
X186875000Y-91485000D03*
D13*
%TO.N,/Peripherals/I2C_SDA*%
X189415000Y-91485000D03*
%TD*%
D10*
%TO.N,/STM32/USB_OTG_ID*%
%TO.C,TP208*%
X168859200Y-77673200D03*
%TD*%
D15*
%TO.N,*%
%TO.C,SW203*%
X129350000Y-61450000D03*
X129350000Y-69650000D03*
D16*
%TO.N,+3V3*%
X129350000Y-63550000D03*
D17*
%TO.N,Net-(SW203-B)*%
X129350000Y-65550000D03*
%TO.N,GND*%
X129350000Y-67550000D03*
%TD*%
D10*
%TO.N,/Peripherals/Buzzer_ON*%
%TO.C,TP203*%
X169800000Y-103650000D03*
%TD*%
D12*
%TO.N,/STM32/PB8*%
%TO.C,J202*%
X152660000Y-111000000D03*
D13*
%TO.N,/STM32/PB9*%
X155200000Y-111000000D03*
%TD*%
D11*
%TO.N,unconnected-(H103-Pad1)*%
%TO.C,H103*%
X187622000Y-109200000D03*
%TD*%
D12*
%TO.N,/STM32/PC4*%
%TO.C,J201*%
X159660000Y-111000000D03*
D13*
%TO.N,/STM32/PC5*%
X162200000Y-111000000D03*
%TD*%
D14*
%TO.N,+3V3*%
%TO.C,SW201*%
X132450000Y-79552800D03*
X125950000Y-79552800D03*
%TO.N,Net-(R201-Pad1)*%
X132450000Y-75052800D03*
X125950000Y-75052800D03*
%TD*%
D10*
%TO.N,/Peripherals/I2C_SCL*%
%TO.C,TP202*%
X175500000Y-86900000D03*
%TD*%
D11*
%TO.N,unconnected-(H102-Pad1)*%
%TO.C,H102*%
X187622000Y-49256000D03*
%TD*%
D12*
%TO.N,GND*%
%TO.C,J203*%
X167100000Y-53480000D03*
D13*
%TO.N,+3V3*%
X164560000Y-53480000D03*
%TO.N,/STM32/JTMS{slash}SWDIO*%
X167100000Y-56020000D03*
%TO.N,/STM32/JTAG_CON*%
X164560000Y-56020000D03*
%TO.N,/STM32/JTCK{slash}SWCLK*%
X167100000Y-58560000D03*
%TO.N,/STM32/NJTRST*%
X164560000Y-58560000D03*
%TO.N,/STM32/JTDI*%
X167100000Y-61100000D03*
%TO.N,/STM32/JTDO{slash}TRACESWO*%
X164560000Y-61100000D03*
%TO.N,Net-(J203-Pin_9)*%
X167100000Y-63640000D03*
%TO.N,Net-(J203-Pin_10)*%
X164560000Y-63640000D03*
%TD*%
D12*
%TO.N,Net-(D401-A)*%
%TO.C,J401*%
X172239400Y-50071000D03*
D13*
%TO.N,Net-(J401-Pin_2)*%
X172239400Y-47531000D03*
%TD*%
D11*
%TO.N,unconnected-(H101-Pad1)*%
%TO.C,H101*%
X127678000Y-49256000D03*
%TD*%
D12*
%TO.N,Net-(J401-Pin_2)*%
%TO.C,SW401*%
X180200000Y-47460000D03*
D13*
%TO.N,GND*%
X180200000Y-50000000D03*
%TD*%
D10*
%TO.N,+3V3*%
%TO.C,TP403*%
X137100000Y-54850000D03*
%TD*%
D18*
%TO.N,GND*%
X190676000Y-78107400D03*
X183000000Y-90450000D03*
X135686800Y-88239600D03*
X180652000Y-58370000D03*
X170150000Y-71450000D03*
X143922000Y-83283200D03*
X185434400Y-55659200D03*
X177550000Y-85900000D03*
X150825200Y-92760800D03*
X166928800Y-78638400D03*
X180652000Y-57506400D03*
X160214400Y-53853600D03*
X175057200Y-105542800D03*
X184000000Y-85000000D03*
X173082800Y-56468000D03*
X189376000Y-76948200D03*
X177950000Y-90450000D03*
X158038800Y-103632000D03*
X190625200Y-75313400D03*
X145796000Y-78994000D03*
X171634100Y-90393200D03*
X168512500Y-98018000D03*
X151587200Y-72796400D03*
X140360400Y-76606400D03*
X159410400Y-91033600D03*
X146262400Y-73812400D03*
X178750000Y-91150000D03*
X190676000Y-82984200D03*
X152157600Y-53476200D03*
X176650000Y-98000000D03*
X175550000Y-95850000D03*
X141782800Y-83108800D03*
X170400000Y-99150000D03*
X190676000Y-80241000D03*
X153021200Y-53476200D03*
X185420000Y-87528400D03*
X138415200Y-75945600D03*
X156120000Y-45907000D03*
%TO.N,+3V3*%
X156120000Y-50275800D03*
X181600000Y-95350000D03*
X152742800Y-62258800D03*
X166928800Y-76911200D03*
X175600000Y-91550000D03*
X170334100Y-90543200D03*
X154228800Y-94081600D03*
X171600000Y-99150000D03*
X141235600Y-48599400D03*
X138065200Y-72445600D03*
X137672800Y-114273200D03*
X143922000Y-84908800D03*
X141235600Y-49869400D03*
X169570400Y-83921600D03*
X182000000Y-91050000D03*
X181250000Y-90350000D03*
X141235600Y-51088600D03*
X145682400Y-114265200D03*
X169150000Y-99200000D03*
X165404800Y-86410800D03*
X133673600Y-114264400D03*
X161239200Y-91033600D03*
X141682400Y-114265200D03*
X149758400Y-72796400D03*
X178400000Y-98000000D03*
X167140900Y-96697200D03*
X152552400Y-92760800D03*
%TO.N,+5V*%
X177100000Y-69250000D03*
X175830000Y-69250000D03*
X177502400Y-54356800D03*
X178319200Y-69250000D03*
%TO.N,/Peripherals/LED3*%
X155041600Y-83159600D03*
X147218400Y-89255600D03*
%TO.N,/Peripherals/LED2*%
X153924000Y-82143600D03*
X146304000Y-88442800D03*
%TO.N,/Peripherals/LED1*%
X152704800Y-81584800D03*
X145288000Y-87680800D03*
%TO.N,/Peripherals/LED0*%
X151485600Y-81076800D03*
X144272000Y-86868000D03*
%TO.N,+BATT*%
X175267200Y-53205600D03*
X175750000Y-72600000D03*
X156323200Y-47177000D03*
X156323200Y-48091400D03*
X167900000Y-72600000D03*
X186060500Y-76650000D03*
X174454400Y-53205600D03*
%TO.N,/STM32/PB8*%
X152950000Y-85750000D03*
%TO.N,/STM32/PB9*%
X153950000Y-85350000D03*
%TO.N,/STM32/PC4*%
X155702000Y-89408000D03*
%TO.N,/STM32/PC5*%
X156362400Y-86004400D03*
%TO.N,/Peripherals/I2C_SDA*%
X184302400Y-86410800D03*
X182200000Y-92250000D03*
X179350000Y-89350000D03*
X169223700Y-91160000D03*
%TO.N,/Peripherals/I2C_SCL*%
X184404000Y-88138000D03*
X182322800Y-93463200D03*
X169800000Y-86750000D03*
X168200000Y-90312500D03*
%TO.N,/STM32/QuadSPI_IO2*%
X156768800Y-101447600D03*
X155702000Y-92862400D03*
%TO.N,/STM32/QuadSPI_IO1*%
X155752800Y-90932000D03*
X155549600Y-101346000D03*
%TO.N,/STM32/QuadSPI_IO0*%
X158038800Y-93624400D03*
X156464000Y-92100400D03*
%TO.N,/STM32/USB_OTG_ID*%
X168757600Y-80924400D03*
%TO.N,/STM32/QuadSPI_NCS*%
X154228800Y-103632000D03*
X158902400Y-101447600D03*
%TO.N,/Peripherals/BME_CS*%
X182727600Y-83718400D03*
X166522400Y-83007200D03*
%TO.N,/Peripherals/BME_INT*%
X181051200Y-83108800D03*
X164998400Y-81838800D03*
%TO.N,/Peripherals/LSM_INT1*%
X165100000Y-83820000D03*
X167900000Y-86650000D03*
%TO.N,/Peripherals/LSM_INT2*%
X167900000Y-87700000D03*
X159150000Y-81700000D03*
X179522800Y-96463200D03*
X176954800Y-91650000D03*
%TO.N,Net-(U201-PA3)*%
X168650000Y-73850000D03*
X150350000Y-87550000D03*
%TO.N,/Peripherals/ADX_INT1*%
X173184100Y-91893200D03*
X159350000Y-83150000D03*
%TO.N,/Peripherals/ADX_INT2*%
X172784100Y-90943200D03*
X162850000Y-83700000D03*
%TD*%
%TA.AperFunction,Conductor*%
%TO.N,GND*%
G36*
X187442392Y-42056494D02*
G01*
X187442459Y-42056501D01*
X187452404Y-42056501D01*
X187497785Y-42056501D01*
X187502211Y-42056580D01*
X188009192Y-42074686D01*
X188017984Y-42075314D01*
X188520217Y-42129310D01*
X188528933Y-42130563D01*
X189026032Y-42220250D01*
X189034640Y-42222123D01*
X189524051Y-42347038D01*
X189532531Y-42349528D01*
X189824324Y-42446646D01*
X190011758Y-42509030D01*
X190020052Y-42512123D01*
X190486685Y-42705409D01*
X190494736Y-42709086D01*
X190831037Y-42877426D01*
X190946400Y-42935173D01*
X190954147Y-42939403D01*
X191388547Y-43197143D01*
X191395970Y-43201914D01*
X191634073Y-43367232D01*
X191810865Y-43489981D01*
X191817951Y-43495286D01*
X192211213Y-43812197D01*
X192217903Y-43817993D01*
X192587573Y-44162167D01*
X192593832Y-44168426D01*
X192938006Y-44538096D01*
X192943802Y-44544786D01*
X193260713Y-44938048D01*
X193266018Y-44945134D01*
X193437573Y-45192220D01*
X193552437Y-45357656D01*
X193554077Y-45360017D01*
X193558860Y-45367459D01*
X193815288Y-45799647D01*
X193816587Y-45801835D01*
X193820829Y-45809604D01*
X194046913Y-46261263D01*
X194050590Y-46269314D01*
X194243876Y-46735947D01*
X194246969Y-46744241D01*
X194406469Y-47223462D01*
X194408963Y-47231955D01*
X194533871Y-47721339D01*
X194535753Y-47729988D01*
X194625432Y-48227043D01*
X194626692Y-48235805D01*
X194680683Y-48737997D01*
X194681314Y-48746826D01*
X194699420Y-49253787D01*
X194699499Y-49258213D01*
X194699499Y-109075785D01*
X194699420Y-109080211D01*
X194681314Y-109587173D01*
X194680683Y-109596002D01*
X194626692Y-110098194D01*
X194625432Y-110106956D01*
X194535753Y-110604011D01*
X194533871Y-110612660D01*
X194408963Y-111102044D01*
X194406469Y-111110537D01*
X194246969Y-111589758D01*
X194243876Y-111598052D01*
X194050590Y-112064685D01*
X194046913Y-112072736D01*
X193820829Y-112524395D01*
X193816587Y-112532164D01*
X193558863Y-112966535D01*
X193554077Y-112973982D01*
X193266018Y-113388865D01*
X193260713Y-113395951D01*
X192943802Y-113789213D01*
X192938006Y-113795903D01*
X192593832Y-114165573D01*
X192587573Y-114171832D01*
X192217903Y-114516006D01*
X192211213Y-114521802D01*
X191817951Y-114838713D01*
X191810865Y-114844018D01*
X191395982Y-115132077D01*
X191388535Y-115136863D01*
X190954164Y-115394587D01*
X190946395Y-115398829D01*
X190494736Y-115624913D01*
X190486685Y-115628590D01*
X190020052Y-115821876D01*
X190011758Y-115824969D01*
X189532537Y-115984469D01*
X189524044Y-115986963D01*
X189034660Y-116111871D01*
X189026011Y-116113753D01*
X188528956Y-116203432D01*
X188520194Y-116204692D01*
X188018002Y-116258683D01*
X188009173Y-116259314D01*
X187502211Y-116277420D01*
X187497785Y-116277499D01*
X127680215Y-116277499D01*
X127675789Y-116277420D01*
X127168826Y-116259314D01*
X127159997Y-116258683D01*
X126657805Y-116204692D01*
X126649043Y-116203432D01*
X126151988Y-116113753D01*
X126143339Y-116111871D01*
X125653955Y-115986963D01*
X125645462Y-115984469D01*
X125166241Y-115824969D01*
X125157947Y-115821876D01*
X124691314Y-115628590D01*
X124683263Y-115624913D01*
X124231604Y-115398829D01*
X124223842Y-115394591D01*
X123789459Y-115136860D01*
X123782017Y-115132077D01*
X123367134Y-114844018D01*
X123360048Y-114838713D01*
X122966786Y-114521802D01*
X122960096Y-114516006D01*
X122689851Y-114264400D01*
X132768140Y-114264400D01*
X132787926Y-114452656D01*
X132787927Y-114452659D01*
X132846418Y-114632677D01*
X132846421Y-114632684D01*
X132941067Y-114796616D01*
X133067729Y-114937288D01*
X133220865Y-115048548D01*
X133220870Y-115048551D01*
X133393792Y-115125542D01*
X133393797Y-115125544D01*
X133578954Y-115164900D01*
X133578955Y-115164900D01*
X133768244Y-115164900D01*
X133768246Y-115164900D01*
X133953403Y-115125544D01*
X134126330Y-115048551D01*
X134279471Y-114937288D01*
X134406133Y-114796616D01*
X134500779Y-114632684D01*
X134559274Y-114452656D01*
X134578135Y-114273200D01*
X136767340Y-114273200D01*
X136787126Y-114461456D01*
X136787127Y-114461459D01*
X136845618Y-114641477D01*
X136845621Y-114641484D01*
X136940267Y-114805416D01*
X137059005Y-114937288D01*
X137066929Y-114946088D01*
X137220065Y-115057348D01*
X137220070Y-115057351D01*
X137392992Y-115134342D01*
X137392997Y-115134344D01*
X137578154Y-115173700D01*
X137578155Y-115173700D01*
X137767444Y-115173700D01*
X137767446Y-115173700D01*
X137952603Y-115134344D01*
X138125530Y-115057351D01*
X138278671Y-114946088D01*
X138405333Y-114805416D01*
X138499979Y-114641484D01*
X138558474Y-114461456D01*
X138578260Y-114273200D01*
X138577419Y-114265200D01*
X140776940Y-114265200D01*
X140796726Y-114453456D01*
X140796727Y-114453459D01*
X140855218Y-114633477D01*
X140855221Y-114633484D01*
X140949867Y-114797416D01*
X140989557Y-114841496D01*
X141076529Y-114938088D01*
X141229665Y-115049348D01*
X141229670Y-115049351D01*
X141402592Y-115126342D01*
X141402597Y-115126344D01*
X141587754Y-115165700D01*
X141587755Y-115165700D01*
X141777044Y-115165700D01*
X141777046Y-115165700D01*
X141962203Y-115126344D01*
X142135130Y-115049351D01*
X142288271Y-114938088D01*
X142414933Y-114797416D01*
X142509579Y-114633484D01*
X142568074Y-114453456D01*
X142587860Y-114265200D01*
X144776940Y-114265200D01*
X144796726Y-114453456D01*
X144796727Y-114453459D01*
X144855218Y-114633477D01*
X144855221Y-114633484D01*
X144949867Y-114797416D01*
X144989557Y-114841496D01*
X145076529Y-114938088D01*
X145229665Y-115049348D01*
X145229670Y-115049351D01*
X145402592Y-115126342D01*
X145402597Y-115126344D01*
X145587754Y-115165700D01*
X145587755Y-115165700D01*
X145777044Y-115165700D01*
X145777046Y-115165700D01*
X145962203Y-115126344D01*
X146135130Y-115049351D01*
X146288271Y-114938088D01*
X146414933Y-114797416D01*
X146509579Y-114633484D01*
X146568074Y-114453456D01*
X146587860Y-114265200D01*
X146568074Y-114076944D01*
X146509579Y-113896916D01*
X146414933Y-113732984D01*
X146288271Y-113592312D01*
X146287169Y-113591511D01*
X146135134Y-113481051D01*
X146135129Y-113481048D01*
X145962207Y-113404057D01*
X145962202Y-113404055D01*
X145814683Y-113372700D01*
X145777046Y-113364700D01*
X145587754Y-113364700D01*
X145555297Y-113371598D01*
X145402597Y-113404055D01*
X145402592Y-113404057D01*
X145229670Y-113481048D01*
X145229665Y-113481051D01*
X145076529Y-113592311D01*
X144949866Y-113732985D01*
X144855221Y-113896915D01*
X144855218Y-113896922D01*
X144796987Y-114076140D01*
X144796726Y-114076944D01*
X144776940Y-114265200D01*
X142587860Y-114265200D01*
X142568074Y-114076944D01*
X142509579Y-113896916D01*
X142414933Y-113732984D01*
X142288271Y-113592312D01*
X142287169Y-113591511D01*
X142135134Y-113481051D01*
X142135129Y-113481048D01*
X141962207Y-113404057D01*
X141962202Y-113404055D01*
X141814683Y-113372700D01*
X141777046Y-113364700D01*
X141587754Y-113364700D01*
X141555297Y-113371598D01*
X141402597Y-113404055D01*
X141402592Y-113404057D01*
X141229670Y-113481048D01*
X141229665Y-113481051D01*
X141076529Y-113592311D01*
X140949866Y-113732985D01*
X140855221Y-113896915D01*
X140855218Y-113896922D01*
X140796987Y-114076140D01*
X140796726Y-114076944D01*
X140776940Y-114265200D01*
X138577419Y-114265200D01*
X138558474Y-114084944D01*
X138499979Y-113904916D01*
X138405333Y-113740984D01*
X138278671Y-113600312D01*
X138266559Y-113591512D01*
X138125534Y-113489051D01*
X138125529Y-113489048D01*
X137952607Y-113412057D01*
X137952602Y-113412055D01*
X137806801Y-113381065D01*
X137767446Y-113372700D01*
X137578154Y-113372700D01*
X137545697Y-113379598D01*
X137392997Y-113412055D01*
X137392992Y-113412057D01*
X137220070Y-113489048D01*
X137220065Y-113489051D01*
X137066929Y-113600311D01*
X136940266Y-113740985D01*
X136845621Y-113904915D01*
X136845618Y-113904922D01*
X136789725Y-114076944D01*
X136787126Y-114084944D01*
X136767340Y-114273200D01*
X134578135Y-114273200D01*
X134579060Y-114264400D01*
X134559274Y-114076144D01*
X134500779Y-113896116D01*
X134406133Y-113732184D01*
X134279471Y-113591512D01*
X134279470Y-113591511D01*
X134126334Y-113480251D01*
X134126329Y-113480248D01*
X133953407Y-113403257D01*
X133953402Y-113403255D01*
X133807601Y-113372265D01*
X133768246Y-113363900D01*
X133578954Y-113363900D01*
X133546497Y-113370798D01*
X133393797Y-113403255D01*
X133393792Y-113403257D01*
X133220870Y-113480248D01*
X133220865Y-113480251D01*
X133067729Y-113591511D01*
X132941066Y-113732185D01*
X132846421Y-113896115D01*
X132846418Y-113896122D01*
X132787927Y-114076140D01*
X132787926Y-114076144D01*
X132768140Y-114264400D01*
X122689851Y-114264400D01*
X122590426Y-114171832D01*
X122584167Y-114165573D01*
X122239993Y-113795903D01*
X122234197Y-113789213D01*
X121917286Y-113395951D01*
X121911981Y-113388865D01*
X121860789Y-113315136D01*
X121623914Y-112973970D01*
X121619143Y-112966547D01*
X121361403Y-112532147D01*
X121357170Y-112524395D01*
X121131086Y-112072736D01*
X121127409Y-112064685D01*
X120934123Y-111598052D01*
X120931030Y-111589758D01*
X120860578Y-111378084D01*
X120771528Y-111110531D01*
X120769036Y-111102044D01*
X120644123Y-110612640D01*
X120642250Y-110604032D01*
X120552563Y-110106933D01*
X120551310Y-110098217D01*
X120497314Y-109595984D01*
X120496686Y-109587191D01*
X120482857Y-109199999D01*
X123972422Y-109199999D01*
X123972422Y-109200000D01*
X123992722Y-109587339D01*
X124047244Y-109931580D01*
X124053398Y-109970433D01*
X124088685Y-110102128D01*
X124153788Y-110345094D01*
X124292787Y-110707197D01*
X124468877Y-111052793D01*
X124680122Y-111378082D01*
X124749425Y-111463664D01*
X124924219Y-111679516D01*
X125198484Y-111953781D01*
X125198488Y-111953784D01*
X125499917Y-112197877D01*
X125825206Y-112409122D01*
X125825211Y-112409125D01*
X126170806Y-112585214D01*
X126532913Y-112724214D01*
X126907567Y-112824602D01*
X127290662Y-112885278D01*
X127656576Y-112904455D01*
X127677999Y-112905578D01*
X127678000Y-112905578D01*
X127678001Y-112905578D01*
X127698301Y-112904514D01*
X128065338Y-112885278D01*
X128448433Y-112824602D01*
X128823087Y-112724214D01*
X129185194Y-112585214D01*
X129530789Y-112409125D01*
X129856084Y-112197876D01*
X130157516Y-111953781D01*
X130431781Y-111679516D01*
X130675876Y-111378084D01*
X130887125Y-111052789D01*
X131063214Y-110707194D01*
X131202214Y-110345087D01*
X131267313Y-110102135D01*
X151309500Y-110102135D01*
X151309500Y-111897870D01*
X151309501Y-111897876D01*
X151315908Y-111957483D01*
X151366202Y-112092328D01*
X151366206Y-112092335D01*
X151452452Y-112207544D01*
X151452455Y-112207547D01*
X151567664Y-112293793D01*
X151567671Y-112293797D01*
X151702517Y-112344091D01*
X151702516Y-112344091D01*
X151709444Y-112344835D01*
X151762127Y-112350500D01*
X153557872Y-112350499D01*
X153617483Y-112344091D01*
X153752331Y-112293796D01*
X153867546Y-112207546D01*
X153953796Y-112092331D01*
X154002810Y-111960916D01*
X154044681Y-111904984D01*
X154110145Y-111880566D01*
X154178418Y-111895417D01*
X154206673Y-111916569D01*
X154328599Y-112038495D01*
X154425384Y-112106265D01*
X154522165Y-112174032D01*
X154522167Y-112174033D01*
X154522170Y-112174035D01*
X154736337Y-112273903D01*
X154964592Y-112335063D01*
X155141034Y-112350500D01*
X155199999Y-112355659D01*
X155200000Y-112355659D01*
X155200001Y-112355659D01*
X155258966Y-112350500D01*
X155435408Y-112335063D01*
X155663663Y-112273903D01*
X155877830Y-112174035D01*
X156071401Y-112038495D01*
X156238495Y-111871401D01*
X156374035Y-111677830D01*
X156473903Y-111463663D01*
X156535063Y-111235408D01*
X156555659Y-111000000D01*
X156535063Y-110764592D01*
X156473903Y-110536337D01*
X156374035Y-110322171D01*
X156318218Y-110242455D01*
X156238494Y-110128597D01*
X156212032Y-110102135D01*
X158309500Y-110102135D01*
X158309500Y-111897870D01*
X158309501Y-111897876D01*
X158315908Y-111957483D01*
X158366202Y-112092328D01*
X158366206Y-112092335D01*
X158452452Y-112207544D01*
X158452455Y-112207547D01*
X158567664Y-112293793D01*
X158567671Y-112293797D01*
X158702517Y-112344091D01*
X158702516Y-112344091D01*
X158709444Y-112344835D01*
X158762127Y-112350500D01*
X160557872Y-112350499D01*
X160617483Y-112344091D01*
X160752331Y-112293796D01*
X160867546Y-112207546D01*
X160953796Y-112092331D01*
X161002810Y-111960916D01*
X161044681Y-111904984D01*
X161110145Y-111880566D01*
X161178418Y-111895417D01*
X161206673Y-111916569D01*
X161328599Y-112038495D01*
X161425384Y-112106265D01*
X161522165Y-112174032D01*
X161522167Y-112174033D01*
X161522170Y-112174035D01*
X161736337Y-112273903D01*
X161964592Y-112335063D01*
X162141034Y-112350500D01*
X162199999Y-112355659D01*
X162200000Y-112355659D01*
X162200001Y-112355659D01*
X162258966Y-112350500D01*
X162435408Y-112335063D01*
X162663663Y-112273903D01*
X162877830Y-112174035D01*
X163071401Y-112038495D01*
X163238495Y-111871401D01*
X163374035Y-111677830D01*
X163473903Y-111463663D01*
X163535063Y-111235408D01*
X163555659Y-111000000D01*
X163535063Y-110764592D01*
X163473903Y-110536337D01*
X163374035Y-110322171D01*
X163318218Y-110242455D01*
X163238494Y-110128597D01*
X163071402Y-109961506D01*
X163071395Y-109961501D01*
X162877834Y-109825967D01*
X162877830Y-109825965D01*
X162877828Y-109825964D01*
X162663663Y-109726097D01*
X162663659Y-109726096D01*
X162663655Y-109726094D01*
X162435413Y-109664938D01*
X162435403Y-109664936D01*
X162200001Y-109644341D01*
X162199999Y-109644341D01*
X161964596Y-109664936D01*
X161964586Y-109664938D01*
X161736344Y-109726094D01*
X161736335Y-109726098D01*
X161522171Y-109825964D01*
X161522169Y-109825965D01*
X161328600Y-109961503D01*
X161206673Y-110083430D01*
X161145350Y-110116914D01*
X161075658Y-110111930D01*
X161019725Y-110070058D01*
X161002810Y-110039081D01*
X160953797Y-109907671D01*
X160953793Y-109907664D01*
X160867547Y-109792455D01*
X160867544Y-109792452D01*
X160752335Y-109706206D01*
X160752328Y-109706202D01*
X160617482Y-109655908D01*
X160617483Y-109655908D01*
X160557883Y-109649501D01*
X160557881Y-109649500D01*
X160557873Y-109649500D01*
X160557864Y-109649500D01*
X158762129Y-109649500D01*
X158762123Y-109649501D01*
X158702516Y-109655908D01*
X158567671Y-109706202D01*
X158567664Y-109706206D01*
X158452455Y-109792452D01*
X158452452Y-109792455D01*
X158366206Y-109907664D01*
X158366202Y-109907671D01*
X158315908Y-110042517D01*
X158309501Y-110102116D01*
X158309500Y-110102135D01*
X156212032Y-110102135D01*
X156071402Y-109961506D01*
X156071395Y-109961501D01*
X155877834Y-109825967D01*
X155877830Y-109825965D01*
X155877828Y-109825964D01*
X155663663Y-109726097D01*
X155663659Y-109726096D01*
X155663655Y-109726094D01*
X155435413Y-109664938D01*
X155435403Y-109664936D01*
X155200001Y-109644341D01*
X155199999Y-109644341D01*
X154964596Y-109664936D01*
X154964586Y-109664938D01*
X154736344Y-109726094D01*
X154736335Y-109726098D01*
X154522171Y-109825964D01*
X154522169Y-109825965D01*
X154328600Y-109961503D01*
X154206673Y-110083430D01*
X154145350Y-110116914D01*
X154075658Y-110111930D01*
X154019725Y-110070058D01*
X154002810Y-110039081D01*
X153953797Y-109907671D01*
X153953793Y-109907664D01*
X153867547Y-109792455D01*
X153867544Y-109792452D01*
X153752335Y-109706206D01*
X153752328Y-109706202D01*
X153617482Y-109655908D01*
X153617483Y-109655908D01*
X153557883Y-109649501D01*
X153557881Y-109649500D01*
X153557873Y-109649500D01*
X153557864Y-109649500D01*
X151762129Y-109649500D01*
X151762123Y-109649501D01*
X151702516Y-109655908D01*
X151567671Y-109706202D01*
X151567664Y-109706206D01*
X151452455Y-109792452D01*
X151452452Y-109792455D01*
X151366206Y-109907664D01*
X151366202Y-109907671D01*
X151315908Y-110042517D01*
X151309501Y-110102116D01*
X151309500Y-110102135D01*
X131267313Y-110102135D01*
X131302602Y-109970433D01*
X131363278Y-109587338D01*
X131383578Y-109200000D01*
X131368379Y-108909999D01*
X177519341Y-108909999D01*
X177519341Y-108910000D01*
X177539936Y-109145403D01*
X177539938Y-109145413D01*
X177601094Y-109373655D01*
X177601096Y-109373659D01*
X177601097Y-109373663D01*
X177700659Y-109587173D01*
X177700965Y-109587830D01*
X177700967Y-109587834D01*
X177783850Y-109706202D01*
X177836501Y-109781396D01*
X177836506Y-109781402D01*
X177958430Y-109903326D01*
X177991915Y-109964649D01*
X177986931Y-110034341D01*
X177945059Y-110090274D01*
X177914083Y-110107189D01*
X177782669Y-110156203D01*
X177782664Y-110156206D01*
X177667455Y-110242452D01*
X177667452Y-110242455D01*
X177581206Y-110357664D01*
X177581202Y-110357671D01*
X177530908Y-110492517D01*
X177526197Y-110536344D01*
X177524501Y-110552123D01*
X177524500Y-110552135D01*
X177524500Y-112347870D01*
X177524501Y-112347876D01*
X177530908Y-112407483D01*
X177581202Y-112542328D01*
X177581206Y-112542335D01*
X177667452Y-112657544D01*
X177667455Y-112657547D01*
X177782664Y-112743793D01*
X177782671Y-112743797D01*
X177917517Y-112794091D01*
X177917516Y-112794091D01*
X177924444Y-112794835D01*
X177977127Y-112800500D01*
X179772872Y-112800499D01*
X179832483Y-112794091D01*
X179967331Y-112743796D01*
X180082546Y-112657546D01*
X180168796Y-112542331D01*
X180219091Y-112407483D01*
X180225500Y-112347873D01*
X180225499Y-110552128D01*
X180219091Y-110492517D01*
X180186135Y-110404158D01*
X180168797Y-110357671D01*
X180168793Y-110357664D01*
X180082547Y-110242455D01*
X180082544Y-110242452D01*
X179967335Y-110156206D01*
X179967328Y-110156202D01*
X179835917Y-110107189D01*
X179779983Y-110065318D01*
X179755566Y-109999853D01*
X179770418Y-109931580D01*
X179791563Y-109903332D01*
X179913495Y-109781401D01*
X180049035Y-109587830D01*
X180148903Y-109373663D01*
X180195436Y-109199999D01*
X183916422Y-109199999D01*
X183916422Y-109200000D01*
X183936722Y-109587339D01*
X183991244Y-109931580D01*
X183997398Y-109970433D01*
X184032685Y-110102128D01*
X184097788Y-110345094D01*
X184236787Y-110707197D01*
X184412877Y-111052793D01*
X184624122Y-111378082D01*
X184693425Y-111463664D01*
X184868219Y-111679516D01*
X185142484Y-111953781D01*
X185142488Y-111953784D01*
X185443917Y-112197877D01*
X185769206Y-112409122D01*
X185769211Y-112409125D01*
X186114806Y-112585214D01*
X186476913Y-112724214D01*
X186851567Y-112824602D01*
X187234662Y-112885278D01*
X187600576Y-112904455D01*
X187621999Y-112905578D01*
X187622000Y-112905578D01*
X187622001Y-112905578D01*
X187642301Y-112904514D01*
X188009338Y-112885278D01*
X188392433Y-112824602D01*
X188767087Y-112724214D01*
X189129194Y-112585214D01*
X189474789Y-112409125D01*
X189800084Y-112197876D01*
X190101516Y-111953781D01*
X190375781Y-111679516D01*
X190619876Y-111378084D01*
X190831125Y-111052789D01*
X191007214Y-110707194D01*
X191146214Y-110345087D01*
X191246602Y-109970433D01*
X191307278Y-109587338D01*
X191327578Y-109200000D01*
X191307278Y-108812662D01*
X191246602Y-108429567D01*
X191146214Y-108054913D01*
X191007214Y-107692806D01*
X190831125Y-107347211D01*
X190619876Y-107021916D01*
X190375781Y-106720484D01*
X190101516Y-106446219D01*
X189800084Y-106202124D01*
X189800082Y-106202122D01*
X189474793Y-105990877D01*
X189129197Y-105814787D01*
X188767094Y-105675788D01*
X188767087Y-105675786D01*
X188392433Y-105575398D01*
X188392429Y-105575397D01*
X188392428Y-105575397D01*
X188009339Y-105514722D01*
X187622001Y-105494422D01*
X187621999Y-105494422D01*
X187234660Y-105514722D01*
X186851572Y-105575397D01*
X186851570Y-105575397D01*
X186476905Y-105675788D01*
X186114802Y-105814787D01*
X185769206Y-105990877D01*
X185443917Y-106202122D01*
X185142488Y-106446215D01*
X185142480Y-106446222D01*
X184868222Y-106720480D01*
X184868215Y-106720488D01*
X184624122Y-107021917D01*
X184412877Y-107347206D01*
X184236787Y-107692802D01*
X184097788Y-108054905D01*
X183997397Y-108429570D01*
X183997397Y-108429572D01*
X183936722Y-108812660D01*
X183916422Y-109199999D01*
X180195436Y-109199999D01*
X180210063Y-109145408D01*
X180230659Y-108910000D01*
X180210063Y-108674592D01*
X180148903Y-108446337D01*
X180049035Y-108232171D01*
X179924919Y-108054913D01*
X179913494Y-108038597D01*
X179746402Y-107871506D01*
X179746395Y-107871501D01*
X179552834Y-107735967D01*
X179552830Y-107735965D01*
X179460275Y-107692806D01*
X179338663Y-107636097D01*
X179338659Y-107636096D01*
X179338655Y-107636094D01*
X179110413Y-107574938D01*
X179110403Y-107574936D01*
X178875001Y-107554341D01*
X178874999Y-107554341D01*
X178639596Y-107574936D01*
X178639586Y-107574938D01*
X178411344Y-107636094D01*
X178411335Y-107636098D01*
X178197171Y-107735964D01*
X178197169Y-107735965D01*
X178003597Y-107871505D01*
X177836505Y-108038597D01*
X177700965Y-108232169D01*
X177700964Y-108232171D01*
X177601098Y-108446335D01*
X177601094Y-108446344D01*
X177539938Y-108674586D01*
X177539936Y-108674596D01*
X177519341Y-108909999D01*
X131368379Y-108909999D01*
X131363278Y-108812662D01*
X131302602Y-108429567D01*
X131202214Y-108054913D01*
X131063214Y-107692806D01*
X130887125Y-107347211D01*
X130675876Y-107021916D01*
X130431781Y-106720484D01*
X130157516Y-106446219D01*
X129856084Y-106202124D01*
X129856082Y-106202122D01*
X129530793Y-105990877D01*
X129185197Y-105814787D01*
X128823094Y-105675788D01*
X128823087Y-105675786D01*
X128448433Y-105575398D01*
X128448429Y-105575397D01*
X128448428Y-105575397D01*
X128065339Y-105514722D01*
X127678001Y-105494422D01*
X127677999Y-105494422D01*
X127290660Y-105514722D01*
X126907572Y-105575397D01*
X126907570Y-105575397D01*
X126532905Y-105675788D01*
X126170802Y-105814787D01*
X125825206Y-105990877D01*
X125499917Y-106202122D01*
X125198488Y-106446215D01*
X125198480Y-106446222D01*
X124924222Y-106720480D01*
X124924215Y-106720488D01*
X124680122Y-107021917D01*
X124468877Y-107347206D01*
X124292787Y-107692802D01*
X124153788Y-108054905D01*
X124053397Y-108429570D01*
X124053397Y-108429572D01*
X123992722Y-108812660D01*
X123972422Y-109199999D01*
X120482857Y-109199999D01*
X120478583Y-109080327D01*
X120478505Y-109075729D01*
X120489606Y-103632000D01*
X153323340Y-103632000D01*
X153343126Y-103820256D01*
X153343127Y-103820259D01*
X153401618Y-104000277D01*
X153401621Y-104000284D01*
X153496267Y-104164216D01*
X153536175Y-104208538D01*
X153622929Y-104304888D01*
X153776065Y-104416148D01*
X153776070Y-104416151D01*
X153948992Y-104493142D01*
X153948997Y-104493144D01*
X154134154Y-104532500D01*
X154134155Y-104532500D01*
X154323444Y-104532500D01*
X154323446Y-104532500D01*
X154508603Y-104493144D01*
X154681530Y-104416151D01*
X154834671Y-104304888D01*
X154961333Y-104164216D01*
X155055979Y-104000284D01*
X155114474Y-103820256D01*
X155132368Y-103650000D01*
X168794659Y-103650000D01*
X168813975Y-103846129D01*
X168871188Y-104034733D01*
X168964086Y-104208532D01*
X168964090Y-104208539D01*
X169089116Y-104360883D01*
X169241460Y-104485909D01*
X169241467Y-104485913D01*
X169415266Y-104578811D01*
X169415269Y-104578811D01*
X169415273Y-104578814D01*
X169603868Y-104636024D01*
X169800000Y-104655341D01*
X169996132Y-104636024D01*
X170184727Y-104578814D01*
X170358538Y-104485910D01*
X170510883Y-104360883D01*
X170635910Y-104208538D01*
X170728814Y-104034727D01*
X170786024Y-103846132D01*
X170805341Y-103650000D01*
X170786024Y-103453868D01*
X170728814Y-103265273D01*
X170728811Y-103265269D01*
X170728811Y-103265266D01*
X170635913Y-103091467D01*
X170635909Y-103091460D01*
X170510883Y-102939116D01*
X170358539Y-102814090D01*
X170358532Y-102814086D01*
X170184733Y-102721188D01*
X170184727Y-102721186D01*
X169996132Y-102663976D01*
X169996129Y-102663975D01*
X169800000Y-102644659D01*
X169603870Y-102663975D01*
X169415266Y-102721188D01*
X169241467Y-102814086D01*
X169241460Y-102814090D01*
X169089116Y-102939116D01*
X168964090Y-103091460D01*
X168964086Y-103091467D01*
X168871188Y-103265266D01*
X168813975Y-103453870D01*
X168794659Y-103650000D01*
X155132368Y-103650000D01*
X155134260Y-103632000D01*
X155114474Y-103443744D01*
X155055979Y-103263716D01*
X154961333Y-103099784D01*
X154834671Y-102959112D01*
X154834670Y-102959111D01*
X154681534Y-102847851D01*
X154681529Y-102847848D01*
X154508607Y-102770857D01*
X154508602Y-102770855D01*
X154362801Y-102739865D01*
X154323446Y-102731500D01*
X154134154Y-102731500D01*
X154101697Y-102738398D01*
X153948997Y-102770855D01*
X153948992Y-102770857D01*
X153776070Y-102847848D01*
X153776065Y-102847851D01*
X153622929Y-102959111D01*
X153496266Y-103099785D01*
X153401621Y-103263715D01*
X153401618Y-103263722D01*
X153343127Y-103443740D01*
X153343126Y-103443744D01*
X153323340Y-103632000D01*
X120489606Y-103632000D01*
X120494268Y-101346000D01*
X154644140Y-101346000D01*
X154663926Y-101534256D01*
X154663927Y-101534259D01*
X154722418Y-101714277D01*
X154722421Y-101714284D01*
X154817067Y-101878216D01*
X154943729Y-102018888D01*
X155096865Y-102130148D01*
X155096870Y-102130151D01*
X155269792Y-102207142D01*
X155269797Y-102207144D01*
X155454954Y-102246500D01*
X155454955Y-102246500D01*
X155644244Y-102246500D01*
X155644246Y-102246500D01*
X155829403Y-102207144D01*
X156002330Y-102130151D01*
X156016392Y-102119933D01*
X156082198Y-102096453D01*
X156150252Y-102112278D01*
X156162164Y-102119933D01*
X156316065Y-102231748D01*
X156316070Y-102231751D01*
X156488992Y-102308742D01*
X156488997Y-102308744D01*
X156674154Y-102348100D01*
X156674155Y-102348100D01*
X156863444Y-102348100D01*
X156863446Y-102348100D01*
X157048603Y-102308744D01*
X157221530Y-102231751D01*
X157374671Y-102120488D01*
X157501333Y-101979816D01*
X157595979Y-101815884D01*
X157654474Y-101635856D01*
X157674260Y-101447600D01*
X157996940Y-101447600D01*
X158016726Y-101635856D01*
X158016727Y-101635859D01*
X158075218Y-101815877D01*
X158075221Y-101815884D01*
X158169867Y-101979816D01*
X158274888Y-102096453D01*
X158296529Y-102120488D01*
X158449665Y-102231748D01*
X158449670Y-102231751D01*
X158622592Y-102308742D01*
X158622597Y-102308744D01*
X158807754Y-102348100D01*
X158807755Y-102348100D01*
X158997044Y-102348100D01*
X158997046Y-102348100D01*
X159182203Y-102308744D01*
X159355130Y-102231751D01*
X159508271Y-102120488D01*
X159634933Y-101979816D01*
X159729579Y-101815884D01*
X159788074Y-101635856D01*
X159807860Y-101447600D01*
X159788074Y-101259344D01*
X159729579Y-101079316D01*
X159634933Y-100915384D01*
X159508271Y-100774712D01*
X159508270Y-100774711D01*
X159355134Y-100663451D01*
X159355129Y-100663448D01*
X159182207Y-100586457D01*
X159182202Y-100586455D01*
X159036401Y-100555465D01*
X158997046Y-100547100D01*
X158807754Y-100547100D01*
X158775297Y-100553998D01*
X158622597Y-100586455D01*
X158622592Y-100586457D01*
X158449670Y-100663448D01*
X158449665Y-100663451D01*
X158296529Y-100774711D01*
X158169866Y-100915385D01*
X158075221Y-101079315D01*
X158075218Y-101079322D01*
X158016727Y-101259340D01*
X158016726Y-101259344D01*
X157996940Y-101447600D01*
X157674260Y-101447600D01*
X157654474Y-101259344D01*
X157595979Y-101079316D01*
X157501333Y-100915384D01*
X157374671Y-100774712D01*
X157374670Y-100774711D01*
X157221534Y-100663451D01*
X157221529Y-100663448D01*
X157048607Y-100586457D01*
X157048602Y-100586455D01*
X156902801Y-100555465D01*
X156863446Y-100547100D01*
X156674154Y-100547100D01*
X156641697Y-100553998D01*
X156488997Y-100586455D01*
X156488992Y-100586457D01*
X156316069Y-100663449D01*
X156302002Y-100673669D01*
X156236195Y-100697146D01*
X156168142Y-100681318D01*
X156156236Y-100673667D01*
X156036197Y-100586455D01*
X156002330Y-100561849D01*
X156002328Y-100561848D01*
X156002329Y-100561848D01*
X155829407Y-100484857D01*
X155829402Y-100484855D01*
X155683601Y-100453865D01*
X155644246Y-100445500D01*
X155454954Y-100445500D01*
X155422497Y-100452398D01*
X155269797Y-100484855D01*
X155269792Y-100484857D01*
X155096870Y-100561848D01*
X155096865Y-100561851D01*
X154943729Y-100673111D01*
X154817066Y-100813785D01*
X154722421Y-100977715D01*
X154722418Y-100977722D01*
X154663927Y-101157740D01*
X154663926Y-101157744D01*
X154644140Y-101346000D01*
X120494268Y-101346000D01*
X120498644Y-99200000D01*
X168244540Y-99200000D01*
X168264326Y-99388256D01*
X168264327Y-99388259D01*
X168322818Y-99568277D01*
X168322821Y-99568284D01*
X168417467Y-99732216D01*
X168499109Y-99822888D01*
X168544129Y-99872888D01*
X168697265Y-99984148D01*
X168697270Y-99984151D01*
X168870192Y-100061142D01*
X168870197Y-100061144D01*
X169055354Y-100100500D01*
X169055355Y-100100500D01*
X169244644Y-100100500D01*
X169244646Y-100100500D01*
X169429803Y-100061144D01*
X169602730Y-99984151D01*
X169755871Y-99872888D01*
X169882533Y-99732216D01*
X169977179Y-99568284D01*
X170035674Y-99388256D01*
X170055460Y-99200000D01*
X170050205Y-99150000D01*
X170694540Y-99150000D01*
X170714326Y-99338256D01*
X170714327Y-99338259D01*
X170772818Y-99518277D01*
X170772821Y-99518284D01*
X170867467Y-99682216D01*
X170994129Y-99822888D01*
X171147265Y-99934148D01*
X171147270Y-99934151D01*
X171320192Y-100011142D01*
X171320197Y-100011144D01*
X171505354Y-100050500D01*
X171505355Y-100050500D01*
X171694644Y-100050500D01*
X171694646Y-100050500D01*
X171879803Y-100011144D01*
X172052730Y-99934151D01*
X172205871Y-99822888D01*
X172332533Y-99682216D01*
X172427179Y-99518284D01*
X172485674Y-99338256D01*
X172505460Y-99150000D01*
X172485674Y-98961744D01*
X172427179Y-98781716D01*
X172332533Y-98617784D01*
X172205871Y-98477112D01*
X172205870Y-98477111D01*
X172052734Y-98365851D01*
X172052729Y-98365848D01*
X171879807Y-98288857D01*
X171879802Y-98288855D01*
X171734001Y-98257865D01*
X171694646Y-98249500D01*
X171505354Y-98249500D01*
X171472897Y-98256398D01*
X171320197Y-98288855D01*
X171320192Y-98288857D01*
X171147270Y-98365848D01*
X171147265Y-98365851D01*
X170994129Y-98477111D01*
X170867466Y-98617785D01*
X170772821Y-98781715D01*
X170772818Y-98781722D01*
X170714327Y-98961740D01*
X170714326Y-98961744D01*
X170694540Y-99150000D01*
X170050205Y-99150000D01*
X170035674Y-99011744D01*
X169977179Y-98831716D01*
X169882533Y-98667784D01*
X169755871Y-98527112D01*
X169687052Y-98477112D01*
X169602734Y-98415851D01*
X169602729Y-98415848D01*
X169429807Y-98338857D01*
X169429802Y-98338855D01*
X169284001Y-98307865D01*
X169244646Y-98299500D01*
X169055354Y-98299500D01*
X169022897Y-98306398D01*
X168870197Y-98338855D01*
X168870192Y-98338857D01*
X168697270Y-98415848D01*
X168697265Y-98415851D01*
X168544129Y-98527111D01*
X168417466Y-98667785D01*
X168322821Y-98831715D01*
X168322818Y-98831722D01*
X168280573Y-98961740D01*
X168264326Y-99011744D01*
X168244540Y-99200000D01*
X120498644Y-99200000D01*
X120501091Y-98000000D01*
X177494540Y-98000000D01*
X177514326Y-98188256D01*
X177514327Y-98188259D01*
X177572818Y-98368277D01*
X177572821Y-98368284D01*
X177667467Y-98532216D01*
X177744513Y-98617784D01*
X177794129Y-98672888D01*
X177947265Y-98784148D01*
X177947270Y-98784151D01*
X178120192Y-98861142D01*
X178120197Y-98861144D01*
X178305354Y-98900500D01*
X178305355Y-98900500D01*
X178494644Y-98900500D01*
X178494646Y-98900500D01*
X178679803Y-98861144D01*
X178852730Y-98784151D01*
X179005871Y-98672888D01*
X179132533Y-98532216D01*
X179227179Y-98368284D01*
X179285674Y-98188256D01*
X179305460Y-98000000D01*
X179285674Y-97811744D01*
X179227179Y-97631716D01*
X179161933Y-97518707D01*
X179145461Y-97450809D01*
X179168314Y-97384782D01*
X179223235Y-97341591D01*
X179292788Y-97334950D01*
X179295085Y-97335415D01*
X179428154Y-97363700D01*
X179428155Y-97363700D01*
X179617444Y-97363700D01*
X179617446Y-97363700D01*
X179802603Y-97324344D01*
X179975530Y-97247351D01*
X180128671Y-97136088D01*
X180255333Y-96995416D01*
X180349979Y-96831484D01*
X180408474Y-96651456D01*
X180428260Y-96463200D01*
X180408474Y-96274944D01*
X180349979Y-96094916D01*
X180255333Y-95930984D01*
X180128671Y-95790312D01*
X180128670Y-95790311D01*
X179975534Y-95679051D01*
X179975529Y-95679048D01*
X179802607Y-95602057D01*
X179802602Y-95602055D01*
X179656801Y-95571065D01*
X179617446Y-95562700D01*
X179428154Y-95562700D01*
X179395697Y-95569598D01*
X179242997Y-95602055D01*
X179242992Y-95602057D01*
X179070070Y-95679048D01*
X179070065Y-95679051D01*
X178916929Y-95790311D01*
X178790266Y-95930985D01*
X178695621Y-96094915D01*
X178695618Y-96094922D01*
X178645068Y-96250500D01*
X178637126Y-96274944D01*
X178617340Y-96463200D01*
X178637126Y-96651456D01*
X178637127Y-96651459D01*
X178695618Y-96831477D01*
X178695621Y-96831484D01*
X178760865Y-96944490D01*
X178777338Y-97012390D01*
X178754485Y-97078417D01*
X178699564Y-97121608D01*
X178630011Y-97128249D01*
X178627698Y-97127780D01*
X178494647Y-97099500D01*
X178494646Y-97099500D01*
X178305354Y-97099500D01*
X178272897Y-97106398D01*
X178120197Y-97138855D01*
X178120192Y-97138857D01*
X177947270Y-97215848D01*
X177947265Y-97215851D01*
X177794129Y-97327111D01*
X177667466Y-97467785D01*
X177572821Y-97631715D01*
X177572818Y-97631722D01*
X177514327Y-97811740D01*
X177514326Y-97811744D01*
X177494540Y-98000000D01*
X120501091Y-98000000D01*
X120503747Y-96697200D01*
X166235440Y-96697200D01*
X166255226Y-96885456D01*
X166255227Y-96885459D01*
X166313718Y-97065477D01*
X166313721Y-97065484D01*
X166408367Y-97229416D01*
X166424516Y-97247351D01*
X166535029Y-97370088D01*
X166688165Y-97481348D01*
X166688170Y-97481351D01*
X166861092Y-97558342D01*
X166861097Y-97558344D01*
X167046254Y-97597700D01*
X167046255Y-97597700D01*
X167235544Y-97597700D01*
X167235546Y-97597700D01*
X167420703Y-97558344D01*
X167593630Y-97481351D01*
X167746771Y-97370088D01*
X167873433Y-97229416D01*
X167968079Y-97065484D01*
X168026574Y-96885456D01*
X168046360Y-96697200D01*
X168026574Y-96508944D01*
X167968079Y-96328916D01*
X167873433Y-96164984D01*
X167746771Y-96024312D01*
X167744811Y-96022888D01*
X167593634Y-95913051D01*
X167593629Y-95913048D01*
X167420707Y-95836057D01*
X167420702Y-95836055D01*
X167274901Y-95805065D01*
X167235546Y-95796700D01*
X167046254Y-95796700D01*
X167013797Y-95803598D01*
X166861097Y-95836055D01*
X166861092Y-95836057D01*
X166688170Y-95913048D01*
X166688165Y-95913051D01*
X166535029Y-96024311D01*
X166408366Y-96164985D01*
X166313721Y-96328915D01*
X166313718Y-96328922D01*
X166270089Y-96463200D01*
X166255226Y-96508944D01*
X166235440Y-96697200D01*
X120503747Y-96697200D01*
X120509081Y-94081600D01*
X153323340Y-94081600D01*
X153343126Y-94269856D01*
X153343127Y-94269859D01*
X153401618Y-94449877D01*
X153401621Y-94449884D01*
X153496267Y-94613816D01*
X153553260Y-94677113D01*
X153622929Y-94754488D01*
X153776065Y-94865748D01*
X153776070Y-94865751D01*
X153948992Y-94942742D01*
X153948997Y-94942744D01*
X154134154Y-94982100D01*
X154134155Y-94982100D01*
X154323444Y-94982100D01*
X154323446Y-94982100D01*
X154508603Y-94942744D01*
X154681530Y-94865751D01*
X154834671Y-94754488D01*
X154961333Y-94613816D01*
X155055979Y-94449884D01*
X155114474Y-94269856D01*
X155134260Y-94081600D01*
X155114474Y-93893344D01*
X155083988Y-93799521D01*
X155081994Y-93729681D01*
X155118074Y-93669848D01*
X155180775Y-93639020D01*
X155250189Y-93646985D01*
X155252356Y-93647925D01*
X155422192Y-93723542D01*
X155422197Y-93723544D01*
X155607354Y-93762900D01*
X155607355Y-93762900D01*
X155796644Y-93762900D01*
X155796646Y-93762900D01*
X155981803Y-93723544D01*
X156154730Y-93646551D01*
X156185218Y-93624400D01*
X157133340Y-93624400D01*
X157153126Y-93812656D01*
X157153127Y-93812659D01*
X157211618Y-93992677D01*
X157211621Y-93992684D01*
X157306267Y-94156616D01*
X157409845Y-94271651D01*
X157432929Y-94297288D01*
X157586065Y-94408548D01*
X157586070Y-94408551D01*
X157758992Y-94485542D01*
X157758997Y-94485544D01*
X157944154Y-94524900D01*
X157944155Y-94524900D01*
X158133444Y-94524900D01*
X158133446Y-94524900D01*
X158318603Y-94485544D01*
X158491530Y-94408551D01*
X158644671Y-94297288D01*
X158771333Y-94156616D01*
X158865979Y-93992684D01*
X158924474Y-93812656D01*
X158944260Y-93624400D01*
X158924474Y-93436144D01*
X158865979Y-93256116D01*
X158771333Y-93092184D01*
X158644671Y-92951512D01*
X158607345Y-92924393D01*
X158491534Y-92840251D01*
X158491529Y-92840248D01*
X158318607Y-92763257D01*
X158318602Y-92763255D01*
X158172801Y-92732265D01*
X158133446Y-92723900D01*
X157944154Y-92723900D01*
X157911697Y-92730798D01*
X157758997Y-92763255D01*
X157758992Y-92763257D01*
X157586070Y-92840248D01*
X157586065Y-92840251D01*
X157432929Y-92951511D01*
X157306266Y-93092185D01*
X157211621Y-93256115D01*
X157211618Y-93256122D01*
X157162039Y-93408712D01*
X157153126Y-93436144D01*
X157133340Y-93624400D01*
X156185218Y-93624400D01*
X156307871Y-93535288D01*
X156434533Y-93394616D01*
X156529179Y-93230684D01*
X156585071Y-93058665D01*
X156624507Y-93000993D01*
X156677216Y-92975697D01*
X156743803Y-92961544D01*
X156743807Y-92961542D01*
X156743808Y-92961542D01*
X156827244Y-92924393D01*
X156916730Y-92884551D01*
X157069871Y-92773288D01*
X157196533Y-92632616D01*
X157291179Y-92468684D01*
X157349674Y-92288656D01*
X157369460Y-92100400D01*
X157349674Y-91912144D01*
X157291179Y-91732116D01*
X157196533Y-91568184D01*
X157069871Y-91427512D01*
X157069870Y-91427511D01*
X156916734Y-91316251D01*
X156916729Y-91316248D01*
X156743807Y-91239257D01*
X156743808Y-91239257D01*
X156742583Y-91238996D01*
X156737746Y-91237968D01*
X156676266Y-91204774D01*
X156642492Y-91143610D01*
X156640211Y-91103724D01*
X156647581Y-91033600D01*
X160333740Y-91033600D01*
X160353526Y-91221856D01*
X160353527Y-91221859D01*
X160412018Y-91401877D01*
X160412021Y-91401884D01*
X160506667Y-91565816D01*
X160582467Y-91650000D01*
X160633329Y-91706488D01*
X160786465Y-91817748D01*
X160786470Y-91817751D01*
X160959392Y-91894742D01*
X160959397Y-91894744D01*
X161144554Y-91934100D01*
X161144555Y-91934100D01*
X161333844Y-91934100D01*
X161333846Y-91934100D01*
X161519003Y-91894744D01*
X161691930Y-91817751D01*
X161845071Y-91706488D01*
X161971733Y-91565816D01*
X162066379Y-91401884D01*
X162124874Y-91221856D01*
X162144660Y-91033600D01*
X162124874Y-90845344D01*
X162066379Y-90665316D01*
X161971733Y-90501384D01*
X161845071Y-90360712D01*
X161837132Y-90354944D01*
X161778713Y-90312500D01*
X167294540Y-90312500D01*
X167314326Y-90500756D01*
X167314327Y-90500759D01*
X167372818Y-90680777D01*
X167372821Y-90680784D01*
X167467467Y-90844716D01*
X167555445Y-90942425D01*
X167594129Y-90985388D01*
X167747265Y-91096648D01*
X167747270Y-91096651D01*
X167920192Y-91173642D01*
X167920197Y-91173644D01*
X168105354Y-91213000D01*
X168105355Y-91213000D01*
X168212160Y-91213000D01*
X168279199Y-91232685D01*
X168324954Y-91285489D01*
X168335480Y-91324034D01*
X168338026Y-91348256D01*
X168338027Y-91348259D01*
X168396518Y-91528277D01*
X168396521Y-91528284D01*
X168491167Y-91692216D01*
X168582043Y-91793144D01*
X168617829Y-91832888D01*
X168770965Y-91944148D01*
X168770970Y-91944151D01*
X168943892Y-92021142D01*
X168943897Y-92021144D01*
X169129054Y-92060500D01*
X169129055Y-92060500D01*
X169318344Y-92060500D01*
X169318346Y-92060500D01*
X169503503Y-92021144D01*
X169676430Y-91944151D01*
X169829571Y-91832888D01*
X169956233Y-91692216D01*
X170050879Y-91528284D01*
X170054266Y-91517860D01*
X170093701Y-91460183D01*
X170158059Y-91432983D01*
X170197977Y-91434883D01*
X170239454Y-91443700D01*
X170239455Y-91443700D01*
X170428744Y-91443700D01*
X170428746Y-91443700D01*
X170613903Y-91404344D01*
X170786830Y-91327351D01*
X170939971Y-91216088D01*
X171066633Y-91075416D01*
X171142968Y-90943200D01*
X171878640Y-90943200D01*
X171898426Y-91131456D01*
X171898427Y-91131459D01*
X171956918Y-91311477D01*
X171956921Y-91311484D01*
X172051567Y-91475416D01*
X172178229Y-91616088D01*
X172178233Y-91616092D01*
X172240655Y-91661443D01*
X172283322Y-91716773D01*
X172291092Y-91774723D01*
X172284415Y-91838256D01*
X172278640Y-91893200D01*
X172298426Y-92081456D01*
X172298427Y-92081459D01*
X172356918Y-92261477D01*
X172356921Y-92261484D01*
X172451567Y-92425416D01*
X172578229Y-92566088D01*
X172731365Y-92677348D01*
X172731370Y-92677351D01*
X172904292Y-92754342D01*
X172904297Y-92754344D01*
X173089454Y-92793700D01*
X173089455Y-92793700D01*
X173278744Y-92793700D01*
X173278746Y-92793700D01*
X173463903Y-92754344D01*
X173636830Y-92677351D01*
X173789971Y-92566088D01*
X173916633Y-92425416D01*
X174011279Y-92261484D01*
X174069774Y-92081456D01*
X174089560Y-91893200D01*
X174069774Y-91704944D01*
X174019429Y-91550000D01*
X174694540Y-91550000D01*
X174714326Y-91738256D01*
X174714327Y-91738259D01*
X174772818Y-91918277D01*
X174772821Y-91918284D01*
X174867467Y-92082216D01*
X174940056Y-92162834D01*
X174994129Y-92222888D01*
X175147265Y-92334148D01*
X175147270Y-92334151D01*
X175320192Y-92411142D01*
X175320197Y-92411144D01*
X175505354Y-92450500D01*
X175505355Y-92450500D01*
X175694644Y-92450500D01*
X175694646Y-92450500D01*
X175879803Y-92411144D01*
X176052730Y-92334151D01*
X176147596Y-92265226D01*
X176213399Y-92241748D01*
X176281453Y-92257573D01*
X176312628Y-92282572D01*
X176348932Y-92322891D01*
X176348935Y-92322893D01*
X176502065Y-92434148D01*
X176502070Y-92434151D01*
X176674992Y-92511142D01*
X176674997Y-92511144D01*
X176860154Y-92550500D01*
X176860155Y-92550500D01*
X177049444Y-92550500D01*
X177049446Y-92550500D01*
X177234603Y-92511144D01*
X177407530Y-92434151D01*
X177560671Y-92322888D01*
X177687333Y-92182216D01*
X177781979Y-92018284D01*
X177840474Y-91838256D01*
X177860260Y-91650000D01*
X177840474Y-91461744D01*
X177781979Y-91281716D01*
X177687333Y-91117784D01*
X177560671Y-90977112D01*
X177534711Y-90958251D01*
X177407534Y-90865851D01*
X177407529Y-90865848D01*
X177234607Y-90788857D01*
X177234602Y-90788855D01*
X177075039Y-90754940D01*
X177049446Y-90749500D01*
X176860154Y-90749500D01*
X176834561Y-90754940D01*
X176674997Y-90788855D01*
X176674992Y-90788857D01*
X176502070Y-90865848D01*
X176502066Y-90865851D01*
X176407203Y-90934772D01*
X176341397Y-90958251D01*
X176273343Y-90942425D01*
X176242169Y-90917425D01*
X176238115Y-90912923D01*
X176205871Y-90877112D01*
X176205870Y-90877111D01*
X176205864Y-90877106D01*
X176052734Y-90765851D01*
X176052729Y-90765848D01*
X175879807Y-90688857D01*
X175879802Y-90688855D01*
X175734001Y-90657865D01*
X175694646Y-90649500D01*
X175505354Y-90649500D01*
X175472897Y-90656398D01*
X175320197Y-90688855D01*
X175320192Y-90688857D01*
X175147270Y-90765848D01*
X175147265Y-90765851D01*
X174994129Y-90877111D01*
X174867466Y-91017785D01*
X174772821Y-91181715D01*
X174772818Y-91181722D01*
X174714327Y-91361740D01*
X174714326Y-91361744D01*
X174694540Y-91550000D01*
X174019429Y-91550000D01*
X174011279Y-91524916D01*
X173916633Y-91360984D01*
X173806128Y-91238256D01*
X173789973Y-91220314D01*
X173789972Y-91220313D01*
X173789971Y-91220312D01*
X173727540Y-91174953D01*
X173684877Y-91119627D01*
X173677107Y-91061680D01*
X173689560Y-90943200D01*
X173669774Y-90754944D01*
X173611279Y-90574916D01*
X173516633Y-90410984D01*
X173461723Y-90350000D01*
X180344540Y-90350000D01*
X180364326Y-90538256D01*
X180364327Y-90538259D01*
X180422818Y-90718277D01*
X180422821Y-90718284D01*
X180517467Y-90882216D01*
X180602911Y-90977111D01*
X180644129Y-91022888D01*
X180797265Y-91134148D01*
X180797270Y-91134151D01*
X180969033Y-91210626D01*
X180970197Y-91211144D01*
X181045529Y-91227156D01*
X181107008Y-91260346D01*
X181137677Y-91310126D01*
X181172819Y-91418280D01*
X181172820Y-91418282D01*
X181172821Y-91418284D01*
X181267467Y-91582216D01*
X181313541Y-91633386D01*
X181376735Y-91703571D01*
X181406965Y-91766563D01*
X181398340Y-91835898D01*
X181391973Y-91848541D01*
X181372821Y-91881713D01*
X181314730Y-92060500D01*
X181314326Y-92061744D01*
X181294540Y-92250000D01*
X181314326Y-92438256D01*
X181314327Y-92438259D01*
X181372818Y-92618277D01*
X181372819Y-92618279D01*
X181372821Y-92618284D01*
X181467467Y-92782216D01*
X181530164Y-92851848D01*
X181534341Y-92856487D01*
X181564570Y-92919479D01*
X181555944Y-92988814D01*
X181549578Y-93001458D01*
X181495620Y-93094917D01*
X181495618Y-93094922D01*
X181437127Y-93274940D01*
X181437126Y-93274944D01*
X181417340Y-93463200D01*
X181437126Y-93651456D01*
X181437127Y-93651459D01*
X181495618Y-93831477D01*
X181495621Y-93831484D01*
X181590267Y-93995416D01*
X181716929Y-94136088D01*
X181798236Y-94195161D01*
X181863953Y-94242907D01*
X181906618Y-94298237D01*
X181912597Y-94367850D01*
X181879991Y-94429645D01*
X181819152Y-94464003D01*
X181765286Y-94464514D01*
X181694646Y-94449500D01*
X181505354Y-94449500D01*
X181472897Y-94456398D01*
X181320197Y-94488855D01*
X181320192Y-94488857D01*
X181147270Y-94565848D01*
X181147265Y-94565851D01*
X180994129Y-94677111D01*
X180867466Y-94817785D01*
X180772821Y-94981715D01*
X180772818Y-94981722D01*
X180714327Y-95161740D01*
X180714326Y-95161744D01*
X180694540Y-95350000D01*
X180714326Y-95538256D01*
X180714327Y-95538259D01*
X180772818Y-95718277D01*
X180772821Y-95718284D01*
X180867467Y-95882216D01*
X180911379Y-95930985D01*
X180994129Y-96022888D01*
X181147265Y-96134148D01*
X181147270Y-96134151D01*
X181320192Y-96211142D01*
X181320197Y-96211144D01*
X181505354Y-96250500D01*
X181505355Y-96250500D01*
X181694644Y-96250500D01*
X181694646Y-96250500D01*
X181879803Y-96211144D01*
X182052730Y-96134151D01*
X182151935Y-96062075D01*
X186491476Y-96062075D01*
X186615462Y-96128348D01*
X186803969Y-96185531D01*
X186803965Y-96185531D01*
X187000000Y-96204838D01*
X187196032Y-96185531D01*
X187384537Y-96128348D01*
X187508523Y-96062076D01*
X187508523Y-96062075D01*
X187000001Y-95553553D01*
X187000000Y-95553553D01*
X186491476Y-96062075D01*
X182151935Y-96062075D01*
X182205871Y-96022888D01*
X182332533Y-95882216D01*
X182427179Y-95718284D01*
X182485674Y-95538256D01*
X182505460Y-95350000D01*
X182489695Y-95200000D01*
X185995161Y-95200000D01*
X186014468Y-95396032D01*
X186071651Y-95584537D01*
X186137923Y-95708522D01*
X186646447Y-95200000D01*
X186596719Y-95150272D01*
X186750000Y-95150272D01*
X186750000Y-95249728D01*
X186788060Y-95341614D01*
X186858386Y-95411940D01*
X186950272Y-95450000D01*
X187049728Y-95450000D01*
X187141614Y-95411940D01*
X187211940Y-95341614D01*
X187250000Y-95249728D01*
X187250000Y-95199999D01*
X187353553Y-95199999D01*
X187353553Y-95200000D01*
X187862075Y-95708523D01*
X187862076Y-95708523D01*
X187928348Y-95584537D01*
X187985531Y-95396032D01*
X188004838Y-95200000D01*
X187985531Y-95003967D01*
X187928348Y-94815462D01*
X187862075Y-94691476D01*
X187353553Y-95199999D01*
X187250000Y-95199999D01*
X187250000Y-95150272D01*
X187211940Y-95058386D01*
X187141614Y-94988060D01*
X187049728Y-94950000D01*
X186950272Y-94950000D01*
X186858386Y-94988060D01*
X186788060Y-95058386D01*
X186750000Y-95150272D01*
X186596719Y-95150272D01*
X186137923Y-94691476D01*
X186071649Y-94815466D01*
X186014468Y-95003967D01*
X185995161Y-95200000D01*
X182489695Y-95200000D01*
X182485674Y-95161744D01*
X182427179Y-94981716D01*
X182332533Y-94817784D01*
X182205871Y-94677112D01*
X182118751Y-94613816D01*
X182058846Y-94570292D01*
X182016181Y-94514962D01*
X182010202Y-94445348D01*
X182042808Y-94383553D01*
X182103647Y-94349196D01*
X182157508Y-94348684D01*
X182228154Y-94363700D01*
X182228156Y-94363700D01*
X182417444Y-94363700D01*
X182417446Y-94363700D01*
X182538718Y-94337923D01*
X186491476Y-94337923D01*
X187000000Y-94846447D01*
X187000001Y-94846447D01*
X187508522Y-94337923D01*
X187384537Y-94271651D01*
X187196030Y-94214468D01*
X187196034Y-94214468D01*
X187000000Y-94195161D01*
X186803967Y-94214468D01*
X186615466Y-94271649D01*
X186491476Y-94337923D01*
X182538718Y-94337923D01*
X182602603Y-94324344D01*
X182775530Y-94247351D01*
X182928671Y-94136088D01*
X183055333Y-93995416D01*
X183149979Y-93831484D01*
X183208474Y-93651456D01*
X183228260Y-93463200D01*
X183208474Y-93274944D01*
X183149979Y-93094916D01*
X183055333Y-92930984D01*
X182988458Y-92856712D01*
X182958228Y-92793721D01*
X182966853Y-92724385D01*
X182973208Y-92711763D01*
X183027179Y-92618284D01*
X183085674Y-92438256D01*
X183105460Y-92250000D01*
X183085674Y-92061744D01*
X183027179Y-91881716D01*
X182932533Y-91717784D01*
X182823262Y-91596427D01*
X182793033Y-91533437D01*
X182801658Y-91464102D01*
X182808019Y-91451469D01*
X182827179Y-91418284D01*
X182885674Y-91238256D01*
X182905460Y-91050000D01*
X182885674Y-90861744D01*
X182827179Y-90681716D01*
X182772573Y-90587135D01*
X185524500Y-90587135D01*
X185524500Y-92382870D01*
X185524501Y-92382876D01*
X185530908Y-92442483D01*
X185581202Y-92577328D01*
X185581206Y-92577335D01*
X185667452Y-92692544D01*
X185667455Y-92692547D01*
X185782664Y-92778793D01*
X185782671Y-92778797D01*
X185917517Y-92829091D01*
X185917516Y-92829091D01*
X185924444Y-92829835D01*
X185977127Y-92835500D01*
X187772872Y-92835499D01*
X187832483Y-92829091D01*
X187967331Y-92778796D01*
X188082546Y-92692546D01*
X188168796Y-92577331D01*
X188217810Y-92445916D01*
X188259681Y-92389984D01*
X188325145Y-92365566D01*
X188393418Y-92380417D01*
X188421673Y-92401569D01*
X188543599Y-92523495D01*
X188640384Y-92591265D01*
X188737165Y-92659032D01*
X188737167Y-92659033D01*
X188737170Y-92659035D01*
X188951337Y-92758903D01*
X188951343Y-92758904D01*
X188951344Y-92758905D01*
X189005023Y-92773288D01*
X189179592Y-92820063D01*
X189356034Y-92835500D01*
X189414999Y-92840659D01*
X189415000Y-92840659D01*
X189415001Y-92840659D01*
X189473966Y-92835500D01*
X189650408Y-92820063D01*
X189878663Y-92758903D01*
X190092830Y-92659035D01*
X190286401Y-92523495D01*
X190453495Y-92356401D01*
X190589035Y-92162830D01*
X190688903Y-91948663D01*
X190750063Y-91720408D01*
X190770659Y-91485000D01*
X190769820Y-91475416D01*
X190763387Y-91401884D01*
X190750063Y-91249592D01*
X190688903Y-91021337D01*
X190589035Y-90807171D01*
X190576640Y-90789468D01*
X190453494Y-90613597D01*
X190286402Y-90446506D01*
X190286395Y-90446501D01*
X190092834Y-90310967D01*
X190092830Y-90310965D01*
X190051147Y-90291528D01*
X189878663Y-90211097D01*
X189878659Y-90211096D01*
X189878655Y-90211094D01*
X189650413Y-90149938D01*
X189650403Y-90149936D01*
X189415001Y-90129341D01*
X189414999Y-90129341D01*
X189179596Y-90149936D01*
X189179586Y-90149938D01*
X188951344Y-90211094D01*
X188951337Y-90211096D01*
X188951337Y-90211097D01*
X188951236Y-90211144D01*
X188737171Y-90310964D01*
X188737169Y-90310965D01*
X188543600Y-90446503D01*
X188421673Y-90568430D01*
X188360350Y-90601914D01*
X188290658Y-90596930D01*
X188234725Y-90555058D01*
X188217810Y-90524081D01*
X188168797Y-90392671D01*
X188168793Y-90392664D01*
X188082547Y-90277455D01*
X188082544Y-90277452D01*
X187967335Y-90191206D01*
X187967328Y-90191202D01*
X187832482Y-90140908D01*
X187832483Y-90140908D01*
X187772883Y-90134501D01*
X187772881Y-90134500D01*
X187772873Y-90134500D01*
X187772864Y-90134500D01*
X185977129Y-90134500D01*
X185977123Y-90134501D01*
X185917516Y-90140908D01*
X185782671Y-90191202D01*
X185782664Y-90191206D01*
X185667455Y-90277452D01*
X185667452Y-90277455D01*
X185581206Y-90392664D01*
X185581202Y-90392671D01*
X185530908Y-90527517D01*
X185524501Y-90587116D01*
X185524500Y-90587135D01*
X182772573Y-90587135D01*
X182732533Y-90517784D01*
X182605871Y-90377112D01*
X182605870Y-90377111D01*
X182452734Y-90265851D01*
X182452729Y-90265848D01*
X182279807Y-90188857D01*
X182279803Y-90188856D01*
X182204470Y-90172843D01*
X182142989Y-90139650D01*
X182112321Y-90089871D01*
X182077181Y-89981721D01*
X182077178Y-89981715D01*
X181982533Y-89817784D01*
X181855871Y-89677112D01*
X181808507Y-89642700D01*
X181702734Y-89565851D01*
X181702729Y-89565848D01*
X181529807Y-89488857D01*
X181529802Y-89488855D01*
X181384001Y-89457865D01*
X181344646Y-89449500D01*
X181155354Y-89449500D01*
X181122897Y-89456398D01*
X180970197Y-89488855D01*
X180970192Y-89488857D01*
X180797270Y-89565848D01*
X180797265Y-89565851D01*
X180644129Y-89677111D01*
X180517466Y-89817785D01*
X180422821Y-89981715D01*
X180422818Y-89981722D01*
X180365201Y-90159051D01*
X180364326Y-90161744D01*
X180344540Y-90350000D01*
X173461723Y-90350000D01*
X173389971Y-90270312D01*
X173389970Y-90270311D01*
X173236834Y-90159051D01*
X173236829Y-90159048D01*
X173063907Y-90082057D01*
X173063902Y-90082055D01*
X172918101Y-90051065D01*
X172878746Y-90042700D01*
X172689454Y-90042700D01*
X172656997Y-90049598D01*
X172504297Y-90082055D01*
X172504292Y-90082057D01*
X172331370Y-90159048D01*
X172331365Y-90159051D01*
X172178229Y-90270311D01*
X172051566Y-90410985D01*
X171956921Y-90574915D01*
X171956918Y-90574922D01*
X171902066Y-90743740D01*
X171898426Y-90754944D01*
X171878640Y-90943200D01*
X171142968Y-90943200D01*
X171161279Y-90911484D01*
X171219774Y-90731456D01*
X171239560Y-90543200D01*
X171219774Y-90354944D01*
X171161279Y-90174916D01*
X171066633Y-90010984D01*
X170939971Y-89870312D01*
X170939970Y-89870311D01*
X170786834Y-89759051D01*
X170786829Y-89759048D01*
X170613907Y-89682057D01*
X170613902Y-89682055D01*
X170462582Y-89649892D01*
X170428746Y-89642700D01*
X170239454Y-89642700D01*
X170206997Y-89649598D01*
X170054297Y-89682055D01*
X170054292Y-89682057D01*
X169881370Y-89759048D01*
X169881365Y-89759051D01*
X169728229Y-89870311D01*
X169601566Y-90010985D01*
X169506921Y-90174914D01*
X169506920Y-90174918D01*
X169503532Y-90185346D01*
X169464093Y-90243020D01*
X169399734Y-90270217D01*
X169359821Y-90268315D01*
X169318350Y-90259500D01*
X169318346Y-90259500D01*
X169211540Y-90259500D01*
X169144501Y-90239815D01*
X169098746Y-90187011D01*
X169088219Y-90148459D01*
X169085674Y-90124245D01*
X169085672Y-90124240D01*
X169027179Y-89944216D01*
X168932533Y-89780284D01*
X168805871Y-89639612D01*
X168805870Y-89639611D01*
X168652734Y-89528351D01*
X168652729Y-89528348D01*
X168479807Y-89451357D01*
X168479802Y-89451355D01*
X168334001Y-89420365D01*
X168294646Y-89412000D01*
X168105354Y-89412000D01*
X168087528Y-89415789D01*
X167920197Y-89451355D01*
X167920192Y-89451357D01*
X167747270Y-89528348D01*
X167747265Y-89528351D01*
X167594129Y-89639611D01*
X167467466Y-89780285D01*
X167372821Y-89944215D01*
X167372818Y-89944222D01*
X167316763Y-90116744D01*
X167314326Y-90124244D01*
X167294540Y-90312500D01*
X161778713Y-90312500D01*
X161691934Y-90249451D01*
X161691929Y-90249448D01*
X161519007Y-90172457D01*
X161519002Y-90172455D01*
X161370580Y-90140908D01*
X161333846Y-90133100D01*
X161144554Y-90133100D01*
X161113738Y-90139650D01*
X160959397Y-90172455D01*
X160959392Y-90172457D01*
X160786470Y-90249448D01*
X160786465Y-90249451D01*
X160633329Y-90360711D01*
X160506666Y-90501385D01*
X160412021Y-90665315D01*
X160412018Y-90665322D01*
X160353730Y-90844716D01*
X160353526Y-90845344D01*
X160333740Y-91033600D01*
X156647581Y-91033600D01*
X156658260Y-90932000D01*
X156638474Y-90743744D01*
X156579979Y-90563716D01*
X156485333Y-90399784D01*
X156358671Y-90259112D01*
X156342362Y-90247262D01*
X156299698Y-90191934D01*
X156293719Y-90122320D01*
X156323098Y-90063976D01*
X156434533Y-89940216D01*
X156529179Y-89776284D01*
X156587674Y-89596256D01*
X156607460Y-89408000D01*
X156601364Y-89350000D01*
X178444540Y-89350000D01*
X178464326Y-89538256D01*
X178464327Y-89538259D01*
X178522818Y-89718277D01*
X178522821Y-89718284D01*
X178617467Y-89882216D01*
X178744129Y-90022888D01*
X178897262Y-90134146D01*
X178897270Y-90134151D01*
X179070192Y-90211142D01*
X179070197Y-90211144D01*
X179255354Y-90250500D01*
X179255355Y-90250500D01*
X179444644Y-90250500D01*
X179444646Y-90250500D01*
X179629803Y-90211144D01*
X179802730Y-90134151D01*
X179802733Y-90134148D01*
X179802738Y-90134146D01*
X179899322Y-90063973D01*
X179955871Y-90022888D01*
X180082533Y-89882216D01*
X180177179Y-89718284D01*
X180235674Y-89538256D01*
X180255460Y-89350000D01*
X180235674Y-89161744D01*
X180177179Y-88981716D01*
X180082533Y-88817784D01*
X179955871Y-88677112D01*
X179955870Y-88677111D01*
X179802734Y-88565851D01*
X179802729Y-88565848D01*
X179629807Y-88488857D01*
X179629802Y-88488855D01*
X179484001Y-88457865D01*
X179444646Y-88449500D01*
X179255354Y-88449500D01*
X179222897Y-88456398D01*
X179070197Y-88488855D01*
X179070192Y-88488857D01*
X178897270Y-88565848D01*
X178897265Y-88565851D01*
X178744129Y-88677111D01*
X178617466Y-88817785D01*
X178522821Y-88981715D01*
X178522818Y-88981722D01*
X178464327Y-89161740D01*
X178464326Y-89161744D01*
X178444540Y-89350000D01*
X156601364Y-89350000D01*
X156587674Y-89219744D01*
X156529179Y-89039716D01*
X156434533Y-88875784D01*
X156307871Y-88735112D01*
X156307870Y-88735111D01*
X156154734Y-88623851D01*
X156154729Y-88623848D01*
X155981807Y-88546857D01*
X155981802Y-88546855D01*
X155836001Y-88515865D01*
X155796646Y-88507500D01*
X155607354Y-88507500D01*
X155574897Y-88514398D01*
X155422197Y-88546855D01*
X155422192Y-88546857D01*
X155249270Y-88623848D01*
X155249265Y-88623851D01*
X155096129Y-88735111D01*
X154969466Y-88875785D01*
X154874821Y-89039715D01*
X154874818Y-89039722D01*
X154816327Y-89219740D01*
X154816326Y-89219744D01*
X154796540Y-89408000D01*
X154816326Y-89596256D01*
X154816327Y-89596259D01*
X154874818Y-89776277D01*
X154874821Y-89776284D01*
X154969467Y-89940216D01*
X155096129Y-90080888D01*
X155112433Y-90092734D01*
X155155100Y-90148062D01*
X155161080Y-90217676D01*
X155131700Y-90276023D01*
X155020266Y-90399785D01*
X154925621Y-90563715D01*
X154925618Y-90563722D01*
X154867127Y-90743740D01*
X154867126Y-90743744D01*
X154847340Y-90932000D01*
X154867126Y-91120256D01*
X154867127Y-91120259D01*
X154925618Y-91300277D01*
X154925621Y-91300284D01*
X155020267Y-91464216D01*
X155121919Y-91577112D01*
X155146929Y-91604888D01*
X155300065Y-91716148D01*
X155300066Y-91716148D01*
X155300070Y-91716151D01*
X155413296Y-91766563D01*
X155426880Y-91772611D01*
X155480117Y-91817861D01*
X155500438Y-91884710D01*
X155481393Y-91951934D01*
X155429026Y-91998189D01*
X155426881Y-91999169D01*
X155249267Y-92078250D01*
X155249265Y-92078251D01*
X155096129Y-92189511D01*
X154969466Y-92330185D01*
X154874821Y-92494115D01*
X154874818Y-92494122D01*
X154821235Y-92659035D01*
X154816326Y-92674144D01*
X154796540Y-92862400D01*
X154816326Y-93050656D01*
X154816327Y-93050659D01*
X154846810Y-93144477D01*
X154848805Y-93214318D01*
X154812724Y-93274151D01*
X154750023Y-93304979D01*
X154680609Y-93297014D01*
X154678443Y-93296074D01*
X154508607Y-93220457D01*
X154508602Y-93220455D01*
X154362801Y-93189465D01*
X154323446Y-93181100D01*
X154134154Y-93181100D01*
X154101697Y-93187998D01*
X153948997Y-93220455D01*
X153948992Y-93220457D01*
X153776070Y-93297448D01*
X153776065Y-93297451D01*
X153622929Y-93408711D01*
X153496266Y-93549385D01*
X153401621Y-93713315D01*
X153401618Y-93713322D01*
X153343127Y-93893340D01*
X153343126Y-93893344D01*
X153323340Y-94081600D01*
X120509081Y-94081600D01*
X120512027Y-92637075D01*
X139041476Y-92637075D01*
X139165462Y-92703348D01*
X139353969Y-92760531D01*
X139353965Y-92760531D01*
X139550000Y-92779838D01*
X139743301Y-92760800D01*
X151646940Y-92760800D01*
X151666726Y-92949056D01*
X151666727Y-92949059D01*
X151725218Y-93129077D01*
X151725221Y-93129084D01*
X151819867Y-93293016D01*
X151946529Y-93433688D01*
X152099665Y-93544948D01*
X152099670Y-93544951D01*
X152272592Y-93621942D01*
X152272597Y-93621944D01*
X152457754Y-93661300D01*
X152457755Y-93661300D01*
X152647044Y-93661300D01*
X152647046Y-93661300D01*
X152832203Y-93621944D01*
X153005130Y-93544951D01*
X153158271Y-93433688D01*
X153284933Y-93293016D01*
X153379579Y-93129084D01*
X153438074Y-92949056D01*
X153457860Y-92760800D01*
X153438074Y-92572544D01*
X153379579Y-92392516D01*
X153284933Y-92228584D01*
X153158271Y-92087912D01*
X153158270Y-92087911D01*
X153005134Y-91976651D01*
X153005129Y-91976648D01*
X152832207Y-91899657D01*
X152832202Y-91899655D01*
X152686401Y-91868665D01*
X152647046Y-91860300D01*
X152457754Y-91860300D01*
X152425297Y-91867198D01*
X152272597Y-91899655D01*
X152272592Y-91899657D01*
X152099670Y-91976648D01*
X152099665Y-91976651D01*
X151946529Y-92087911D01*
X151819866Y-92228585D01*
X151725221Y-92392515D01*
X151725218Y-92392522D01*
X151666727Y-92572540D01*
X151666726Y-92572544D01*
X151646940Y-92760800D01*
X139743301Y-92760800D01*
X139746032Y-92760531D01*
X139934537Y-92703348D01*
X140058523Y-92637076D01*
X140058523Y-92637075D01*
X139550001Y-92128553D01*
X139550000Y-92128553D01*
X139041476Y-92637075D01*
X120512027Y-92637075D01*
X120513785Y-91775000D01*
X138545161Y-91775000D01*
X138564468Y-91971032D01*
X138621651Y-92159537D01*
X138687923Y-92283522D01*
X139196447Y-91775000D01*
X139146719Y-91725272D01*
X139300000Y-91725272D01*
X139300000Y-91824728D01*
X139338060Y-91916614D01*
X139408386Y-91986940D01*
X139500272Y-92025000D01*
X139599728Y-92025000D01*
X139691614Y-91986940D01*
X139761940Y-91916614D01*
X139800000Y-91824728D01*
X139800000Y-91774999D01*
X139903553Y-91774999D01*
X139903553Y-91775000D01*
X140412076Y-92283523D01*
X140478348Y-92159537D01*
X140535531Y-91971032D01*
X140554838Y-91775000D01*
X140535531Y-91578967D01*
X140478348Y-91390462D01*
X140412075Y-91266476D01*
X139903553Y-91774999D01*
X139800000Y-91774999D01*
X139800000Y-91725272D01*
X139761940Y-91633386D01*
X139691614Y-91563060D01*
X139599728Y-91525000D01*
X139500272Y-91525000D01*
X139408386Y-91563060D01*
X139338060Y-91633386D01*
X139300000Y-91725272D01*
X139146719Y-91725272D01*
X138687923Y-91266476D01*
X138621649Y-91390466D01*
X138564468Y-91578967D01*
X138545161Y-91775000D01*
X120513785Y-91775000D01*
X120518551Y-89437594D01*
X124444859Y-89437594D01*
X124444859Y-89437605D01*
X124465385Y-89685329D01*
X124465387Y-89685338D01*
X124526412Y-89926317D01*
X124626266Y-90153964D01*
X124726564Y-90307482D01*
X125426212Y-89607834D01*
X125437482Y-89649892D01*
X125509890Y-89775308D01*
X125612292Y-89877710D01*
X125737708Y-89950118D01*
X125779765Y-89961387D01*
X125079942Y-90661209D01*
X125126768Y-90697655D01*
X125126770Y-90697656D01*
X125345385Y-90815964D01*
X125345396Y-90815969D01*
X125580506Y-90896683D01*
X125825707Y-90937600D01*
X126074293Y-90937600D01*
X126319493Y-90896683D01*
X126554603Y-90815969D01*
X126554614Y-90815964D01*
X126773228Y-90697657D01*
X126773231Y-90697655D01*
X126820056Y-90661209D01*
X126120234Y-89961387D01*
X126162292Y-89950118D01*
X126287708Y-89877710D01*
X126390110Y-89775308D01*
X126462518Y-89649892D01*
X126473787Y-89607835D01*
X127173434Y-90307482D01*
X127273731Y-90153969D01*
X127373587Y-89926317D01*
X127434612Y-89685338D01*
X127434614Y-89685329D01*
X127455141Y-89437605D01*
X127455141Y-89437594D01*
X130944859Y-89437594D01*
X130944859Y-89437605D01*
X130965385Y-89685329D01*
X130965387Y-89685338D01*
X131026412Y-89926317D01*
X131126266Y-90153964D01*
X131226564Y-90307482D01*
X131926212Y-89607834D01*
X131937482Y-89649892D01*
X132009890Y-89775308D01*
X132112292Y-89877710D01*
X132237708Y-89950118D01*
X132279765Y-89961387D01*
X131579942Y-90661209D01*
X131626768Y-90697655D01*
X131626770Y-90697656D01*
X131845385Y-90815964D01*
X131845396Y-90815969D01*
X132080506Y-90896683D01*
X132325707Y-90937600D01*
X132574293Y-90937600D01*
X132722173Y-90912923D01*
X139041476Y-90912923D01*
X139550000Y-91421447D01*
X139550001Y-91421447D01*
X140058522Y-90912923D01*
X139934537Y-90846651D01*
X139746030Y-90789468D01*
X139746034Y-90789468D01*
X139550000Y-90770161D01*
X139353967Y-90789468D01*
X139165466Y-90846649D01*
X139041476Y-90912923D01*
X132722173Y-90912923D01*
X132819493Y-90896683D01*
X133054603Y-90815969D01*
X133054614Y-90815964D01*
X133273228Y-90697657D01*
X133273231Y-90697655D01*
X133320056Y-90661209D01*
X132620234Y-89961387D01*
X132662292Y-89950118D01*
X132787708Y-89877710D01*
X132890110Y-89775308D01*
X132962518Y-89649892D01*
X132973787Y-89607835D01*
X133673434Y-90307482D01*
X133773731Y-90153969D01*
X133873587Y-89926317D01*
X133934612Y-89685338D01*
X133934614Y-89685329D01*
X133955141Y-89437605D01*
X133955141Y-89437594D01*
X133934614Y-89189870D01*
X133934612Y-89189861D01*
X133873587Y-88948882D01*
X133773731Y-88721230D01*
X133673434Y-88567716D01*
X132973787Y-89267364D01*
X132962518Y-89225308D01*
X132890110Y-89099892D01*
X132787708Y-88997490D01*
X132662292Y-88925082D01*
X132620235Y-88913812D01*
X133320057Y-88213990D01*
X133320056Y-88213989D01*
X133273229Y-88177543D01*
X133054614Y-88059235D01*
X133054603Y-88059230D01*
X132819493Y-87978516D01*
X132574293Y-87937600D01*
X132325707Y-87937600D01*
X132080506Y-87978516D01*
X131845396Y-88059230D01*
X131845390Y-88059232D01*
X131626761Y-88177549D01*
X131579942Y-88213988D01*
X131579942Y-88213990D01*
X132279765Y-88913812D01*
X132237708Y-88925082D01*
X132112292Y-88997490D01*
X132009890Y-89099892D01*
X131937482Y-89225308D01*
X131926212Y-89267364D01*
X131226564Y-88567716D01*
X131126267Y-88721232D01*
X131026412Y-88948882D01*
X130965387Y-89189861D01*
X130965385Y-89189870D01*
X130944859Y-89437594D01*
X127455141Y-89437594D01*
X127434614Y-89189870D01*
X127434612Y-89189861D01*
X127373587Y-88948882D01*
X127273731Y-88721230D01*
X127173434Y-88567716D01*
X126473787Y-89267364D01*
X126462518Y-89225308D01*
X126390110Y-89099892D01*
X126287708Y-88997490D01*
X126162292Y-88925082D01*
X126120235Y-88913812D01*
X126820057Y-88213990D01*
X126820056Y-88213989D01*
X126773229Y-88177543D01*
X126554614Y-88059235D01*
X126554603Y-88059230D01*
X126319493Y-87978516D01*
X126074293Y-87937600D01*
X125825707Y-87937600D01*
X125580506Y-87978516D01*
X125345396Y-88059230D01*
X125345390Y-88059232D01*
X125126761Y-88177549D01*
X125079942Y-88213988D01*
X125079942Y-88213990D01*
X125779765Y-88913812D01*
X125737708Y-88925082D01*
X125612292Y-88997490D01*
X125509890Y-89099892D01*
X125437482Y-89225308D01*
X125426212Y-89267364D01*
X124726564Y-88567716D01*
X124626267Y-88721232D01*
X124526412Y-88948882D01*
X124465387Y-89189861D01*
X124465385Y-89189870D01*
X124444859Y-89437594D01*
X120518551Y-89437594D01*
X120527727Y-84937594D01*
X124444357Y-84937594D01*
X124444357Y-84937605D01*
X124464890Y-85185412D01*
X124464892Y-85185424D01*
X124525936Y-85426481D01*
X124625826Y-85654206D01*
X124761833Y-85862382D01*
X124776748Y-85878584D01*
X124930256Y-86045338D01*
X125126491Y-86198074D01*
X125345190Y-86316428D01*
X125580386Y-86397171D01*
X125825665Y-86438100D01*
X126074335Y-86438100D01*
X126319614Y-86397171D01*
X126554810Y-86316428D01*
X126773509Y-86198074D01*
X126969744Y-86045338D01*
X127138164Y-85862385D01*
X127274173Y-85654207D01*
X127374063Y-85426481D01*
X127435108Y-85185421D01*
X127435109Y-85185412D01*
X127455643Y-84937605D01*
X127455643Y-84937594D01*
X130944357Y-84937594D01*
X130944357Y-84937605D01*
X130964890Y-85185412D01*
X130964892Y-85185424D01*
X131025936Y-85426481D01*
X131125826Y-85654206D01*
X131261833Y-85862382D01*
X131276748Y-85878584D01*
X131430256Y-86045338D01*
X131626491Y-86198074D01*
X131845190Y-86316428D01*
X132080386Y-86397171D01*
X132325665Y-86438100D01*
X132574335Y-86438100D01*
X132819614Y-86397171D01*
X133054810Y-86316428D01*
X133273509Y-86198074D01*
X133469744Y-86045338D01*
X133638164Y-85862385D01*
X133774173Y-85654207D01*
X133874063Y-85426481D01*
X133935108Y-85185421D01*
X133935109Y-85185412D01*
X133955643Y-84937605D01*
X133955643Y-84937594D01*
X133953257Y-84908800D01*
X143016540Y-84908800D01*
X143036326Y-85097056D01*
X143036327Y-85097059D01*
X143094818Y-85277077D01*
X143094821Y-85277084D01*
X143189467Y-85441016D01*
X143217531Y-85472184D01*
X143316129Y-85581688D01*
X143469265Y-85692948D01*
X143469270Y-85692951D01*
X143642192Y-85769942D01*
X143642197Y-85769944D01*
X143827354Y-85809300D01*
X143827355Y-85809300D01*
X143852542Y-85809300D01*
X143919581Y-85828985D01*
X143965336Y-85881789D01*
X143975280Y-85950947D01*
X143946255Y-86014503D01*
X143902978Y-86046579D01*
X143819270Y-86083848D01*
X143819265Y-86083851D01*
X143666129Y-86195111D01*
X143539466Y-86335785D01*
X143444821Y-86499715D01*
X143444818Y-86499722D01*
X143396153Y-86649500D01*
X143386326Y-86679744D01*
X143366540Y-86868000D01*
X143386326Y-87056256D01*
X143386327Y-87056259D01*
X143444818Y-87236277D01*
X143444821Y-87236284D01*
X143539467Y-87400216D01*
X143597899Y-87465111D01*
X143666129Y-87540888D01*
X143819265Y-87652148D01*
X143819270Y-87652151D01*
X143992192Y-87729142D01*
X143992197Y-87729144D01*
X144177354Y-87768500D01*
X144177355Y-87768500D01*
X144280539Y-87768500D01*
X144347578Y-87788185D01*
X144393333Y-87840989D01*
X144401829Y-87866719D01*
X144402325Y-87869053D01*
X144460818Y-88049077D01*
X144460821Y-88049084D01*
X144555467Y-88213016D01*
X144618131Y-88282611D01*
X144682129Y-88353688D01*
X144835265Y-88464948D01*
X144835270Y-88464951D01*
X145008192Y-88541942D01*
X145008197Y-88541944D01*
X145193354Y-88581300D01*
X145193355Y-88581300D01*
X145312068Y-88581300D01*
X145379107Y-88600985D01*
X145424862Y-88653789D01*
X145429999Y-88666982D01*
X145476818Y-88811077D01*
X145476821Y-88811084D01*
X145571467Y-88975016D01*
X145629729Y-89039722D01*
X145698129Y-89115688D01*
X145851265Y-89226948D01*
X145851270Y-89226951D01*
X146024192Y-89303942D01*
X146024197Y-89303944D01*
X146209354Y-89343300D01*
X146210939Y-89343300D01*
X146211822Y-89343559D01*
X146215822Y-89343980D01*
X146215745Y-89344711D01*
X146277978Y-89362985D01*
X146323733Y-89415789D01*
X146332229Y-89441519D01*
X146332725Y-89443853D01*
X146391218Y-89623877D01*
X146391221Y-89623884D01*
X146485867Y-89787816D01*
X146610574Y-89926317D01*
X146612529Y-89928488D01*
X146765665Y-90039748D01*
X146765670Y-90039751D01*
X146938592Y-90116742D01*
X146938597Y-90116744D01*
X147123754Y-90156100D01*
X147123755Y-90156100D01*
X147313044Y-90156100D01*
X147313046Y-90156100D01*
X147498203Y-90116744D01*
X147671130Y-90039751D01*
X147824271Y-89928488D01*
X147950933Y-89787816D01*
X148045579Y-89623884D01*
X148104074Y-89443856D01*
X148123860Y-89255600D01*
X148104074Y-89067344D01*
X148045579Y-88887316D01*
X147950933Y-88723384D01*
X147824271Y-88582712D01*
X147801060Y-88565848D01*
X147671134Y-88471451D01*
X147671129Y-88471448D01*
X147498207Y-88394457D01*
X147498202Y-88394455D01*
X147352401Y-88363465D01*
X147313046Y-88355100D01*
X147313045Y-88355100D01*
X147311461Y-88355100D01*
X147310577Y-88354840D01*
X147306578Y-88354420D01*
X147306654Y-88353688D01*
X147244422Y-88335415D01*
X147198667Y-88282611D01*
X147190171Y-88256881D01*
X147189674Y-88254546D01*
X147189674Y-88254544D01*
X147131179Y-88074516D01*
X147036533Y-87910584D01*
X146909871Y-87769912D01*
X146909870Y-87769911D01*
X146756734Y-87658651D01*
X146756729Y-87658648D01*
X146583807Y-87581657D01*
X146583802Y-87581655D01*
X146434872Y-87550000D01*
X149444540Y-87550000D01*
X149464326Y-87738256D01*
X149464327Y-87738259D01*
X149522818Y-87918277D01*
X149522821Y-87918284D01*
X149617467Y-88082216D01*
X149735238Y-88213014D01*
X149744129Y-88222888D01*
X149897265Y-88334148D01*
X149897270Y-88334151D01*
X150070192Y-88411142D01*
X150070197Y-88411144D01*
X150255354Y-88450500D01*
X150255355Y-88450500D01*
X150444644Y-88450500D01*
X150444646Y-88450500D01*
X150629803Y-88411144D01*
X150802730Y-88334151D01*
X150955871Y-88222888D01*
X151082533Y-88082216D01*
X151177179Y-87918284D01*
X151235674Y-87738256D01*
X151255460Y-87550000D01*
X151235674Y-87361744D01*
X151177179Y-87181716D01*
X151082533Y-87017784D01*
X150955871Y-86877112D01*
X150955870Y-86877111D01*
X150802734Y-86765851D01*
X150802729Y-86765848D01*
X150629807Y-86688857D01*
X150629802Y-86688855D01*
X150484001Y-86657865D01*
X150444646Y-86649500D01*
X150255354Y-86649500D01*
X150222897Y-86656398D01*
X150070197Y-86688855D01*
X150070192Y-86688857D01*
X149897270Y-86765848D01*
X149897265Y-86765851D01*
X149744129Y-86877111D01*
X149617466Y-87017785D01*
X149522821Y-87181715D01*
X149522818Y-87181722D01*
X149464327Y-87361740D01*
X149464326Y-87361744D01*
X149444540Y-87550000D01*
X146434872Y-87550000D01*
X146398646Y-87542300D01*
X146279932Y-87542300D01*
X146212893Y-87522615D01*
X146167138Y-87469811D01*
X146162001Y-87456618D01*
X146115181Y-87312522D01*
X146115180Y-87312521D01*
X146115179Y-87312516D01*
X146020533Y-87148584D01*
X145893871Y-87007912D01*
X145866148Y-86987770D01*
X145740734Y-86896651D01*
X145740729Y-86896648D01*
X145567807Y-86819657D01*
X145567802Y-86819655D01*
X145407204Y-86785520D01*
X145382646Y-86780300D01*
X145279461Y-86780300D01*
X145212422Y-86760615D01*
X145166667Y-86707811D01*
X145158171Y-86682081D01*
X145157674Y-86679746D01*
X145157674Y-86679744D01*
X145099179Y-86499716D01*
X145004533Y-86335784D01*
X144877871Y-86195112D01*
X144869620Y-86189117D01*
X144724734Y-86083851D01*
X144724729Y-86083848D01*
X144551807Y-86006857D01*
X144551802Y-86006855D01*
X144406001Y-85975865D01*
X144366646Y-85967500D01*
X144341458Y-85967500D01*
X144274419Y-85947815D01*
X144228664Y-85895011D01*
X144218720Y-85825853D01*
X144247745Y-85762297D01*
X144264336Y-85750000D01*
X152044540Y-85750000D01*
X152064326Y-85938256D01*
X152064327Y-85938259D01*
X152122818Y-86118277D01*
X152122821Y-86118284D01*
X152217467Y-86282216D01*
X152307063Y-86381722D01*
X152344129Y-86422888D01*
X152497265Y-86534148D01*
X152497270Y-86534151D01*
X152670192Y-86611142D01*
X152670197Y-86611144D01*
X152855354Y-86650500D01*
X152855355Y-86650500D01*
X153044644Y-86650500D01*
X153044646Y-86650500D01*
X153229803Y-86611144D01*
X153402730Y-86534151D01*
X153555871Y-86422888D01*
X153682533Y-86282216D01*
X153682533Y-86282214D01*
X153686361Y-86277964D01*
X153745848Y-86241315D01*
X153804291Y-86239646D01*
X153855354Y-86250500D01*
X153855355Y-86250500D01*
X154044644Y-86250500D01*
X154044646Y-86250500D01*
X154229803Y-86211144D01*
X154402730Y-86134151D01*
X154555871Y-86022888D01*
X154572518Y-86004400D01*
X155456940Y-86004400D01*
X155476726Y-86192656D01*
X155476727Y-86192659D01*
X155535218Y-86372677D01*
X155535221Y-86372684D01*
X155629867Y-86536616D01*
X155696971Y-86611142D01*
X155756529Y-86677288D01*
X155909665Y-86788548D01*
X155909670Y-86788551D01*
X156082592Y-86865542D01*
X156082597Y-86865544D01*
X156267754Y-86904900D01*
X156267755Y-86904900D01*
X156457044Y-86904900D01*
X156457046Y-86904900D01*
X156642203Y-86865544D01*
X156815130Y-86788551D01*
X156968271Y-86677288D01*
X157094933Y-86536616D01*
X157167573Y-86410800D01*
X164499340Y-86410800D01*
X164519126Y-86599056D01*
X164519127Y-86599059D01*
X164577618Y-86779077D01*
X164577621Y-86779084D01*
X164672267Y-86943016D01*
X164744502Y-87023241D01*
X164798929Y-87083688D01*
X164952065Y-87194948D01*
X164952070Y-87194951D01*
X165124992Y-87271942D01*
X165124997Y-87271944D01*
X165310154Y-87311300D01*
X165310155Y-87311300D01*
X165499444Y-87311300D01*
X165499446Y-87311300D01*
X165684603Y-87271944D01*
X165857530Y-87194951D01*
X166010671Y-87083688D01*
X166137333Y-86943016D01*
X166231979Y-86779084D01*
X166273921Y-86650000D01*
X166994540Y-86650000D01*
X167014326Y-86838256D01*
X167014327Y-86838259D01*
X167072821Y-87018286D01*
X167072822Y-87018288D01*
X167127504Y-87113001D01*
X167143977Y-87180901D01*
X167127504Y-87236999D01*
X167072822Y-87331711D01*
X167072821Y-87331713D01*
X167020564Y-87492544D01*
X167014326Y-87511744D01*
X166994540Y-87700000D01*
X167014326Y-87888256D01*
X167014327Y-87888259D01*
X167072818Y-88068277D01*
X167072821Y-88068284D01*
X167167467Y-88232216D01*
X167278113Y-88355100D01*
X167294129Y-88372888D01*
X167447265Y-88484148D01*
X167447270Y-88484151D01*
X167620192Y-88561142D01*
X167620197Y-88561144D01*
X167805354Y-88600500D01*
X167805355Y-88600500D01*
X167994644Y-88600500D01*
X167994646Y-88600500D01*
X168179803Y-88561144D01*
X168352730Y-88484151D01*
X168505871Y-88372888D01*
X168632533Y-88232216D01*
X168727179Y-88068284D01*
X168785674Y-87888256D01*
X168805460Y-87700000D01*
X168785674Y-87511744D01*
X168727179Y-87331716D01*
X168672493Y-87236997D01*
X168656021Y-87169100D01*
X168672494Y-87113001D01*
X168724318Y-87023238D01*
X168774883Y-86975026D01*
X168843490Y-86961802D01*
X168908354Y-86987770D01*
X168948883Y-87044684D01*
X168949634Y-87046923D01*
X168972818Y-87118277D01*
X168972821Y-87118284D01*
X169067467Y-87282216D01*
X169131966Y-87353849D01*
X169194129Y-87422888D01*
X169347265Y-87534148D01*
X169347270Y-87534151D01*
X169520192Y-87611142D01*
X169520197Y-87611144D01*
X169705354Y-87650500D01*
X169705355Y-87650500D01*
X169894644Y-87650500D01*
X169894646Y-87650500D01*
X170079803Y-87611144D01*
X170252730Y-87534151D01*
X170405871Y-87422888D01*
X170532533Y-87282216D01*
X170627179Y-87118284D01*
X170685674Y-86938256D01*
X170689695Y-86900000D01*
X174494659Y-86900000D01*
X174513975Y-87096129D01*
X174513976Y-87096132D01*
X174568798Y-87276856D01*
X174571188Y-87284733D01*
X174664086Y-87458532D01*
X174664090Y-87458539D01*
X174789116Y-87610883D01*
X174941460Y-87735909D01*
X174941467Y-87735913D01*
X175115266Y-87828811D01*
X175115269Y-87828811D01*
X175115273Y-87828814D01*
X175303868Y-87886024D01*
X175500000Y-87905341D01*
X175696132Y-87886024D01*
X175884727Y-87828814D01*
X176058538Y-87735910D01*
X176210883Y-87610883D01*
X176335910Y-87458538D01*
X176391866Y-87353851D01*
X176428811Y-87284733D01*
X176428811Y-87284732D01*
X176428814Y-87284727D01*
X176486024Y-87096132D01*
X176505341Y-86900000D01*
X176486024Y-86703868D01*
X176428814Y-86515273D01*
X176428811Y-86515269D01*
X176428811Y-86515266D01*
X176372972Y-86410800D01*
X183396940Y-86410800D01*
X183416726Y-86599056D01*
X183416727Y-86599059D01*
X183475218Y-86779077D01*
X183475221Y-86779084D01*
X183569867Y-86943016D01*
X183642102Y-87023241D01*
X183696529Y-87083688D01*
X183831461Y-87181722D01*
X183849670Y-87194951D01*
X183852064Y-87196017D01*
X183853223Y-87197002D01*
X183855293Y-87198197D01*
X183855074Y-87198575D01*
X183905300Y-87241264D01*
X183925623Y-87308113D01*
X183906579Y-87375337D01*
X183874515Y-87409614D01*
X183798127Y-87465113D01*
X183671466Y-87605785D01*
X183576821Y-87769715D01*
X183576818Y-87769722D01*
X183518327Y-87949740D01*
X183518326Y-87949744D01*
X183498540Y-88138000D01*
X183518326Y-88326256D01*
X183518327Y-88326259D01*
X183576818Y-88506277D01*
X183576821Y-88506284D01*
X183671467Y-88670216D01*
X183719340Y-88723384D01*
X183798129Y-88810888D01*
X183951265Y-88922148D01*
X183951270Y-88922151D01*
X184124192Y-88999142D01*
X184124197Y-88999144D01*
X184309354Y-89038500D01*
X184309355Y-89038500D01*
X184498644Y-89038500D01*
X184498646Y-89038500D01*
X184683803Y-88999144D01*
X184856730Y-88922151D01*
X185009871Y-88810888D01*
X185136533Y-88670216D01*
X185231179Y-88506284D01*
X185289674Y-88326256D01*
X185309460Y-88138000D01*
X185289674Y-87949744D01*
X185231179Y-87769716D01*
X185136533Y-87605784D01*
X185009871Y-87465112D01*
X185000823Y-87458538D01*
X184856734Y-87353851D01*
X184856730Y-87353849D01*
X184854331Y-87352781D01*
X184853169Y-87351793D01*
X184851107Y-87350603D01*
X184851324Y-87350225D01*
X184801095Y-87307529D01*
X184780776Y-87240679D01*
X184799823Y-87173456D01*
X184831880Y-87139188D01*
X184908271Y-87083688D01*
X185034933Y-86943016D01*
X185129579Y-86779084D01*
X185188074Y-86599056D01*
X185207860Y-86410800D01*
X185188074Y-86222544D01*
X185129579Y-86042516D01*
X185034933Y-85878584D01*
X184908271Y-85737912D01*
X184908270Y-85737911D01*
X184755134Y-85626651D01*
X184755129Y-85626648D01*
X184582207Y-85549657D01*
X184582202Y-85549655D01*
X184436401Y-85518665D01*
X184397046Y-85510300D01*
X184207754Y-85510300D01*
X184175297Y-85517198D01*
X184022597Y-85549655D01*
X184022592Y-85549657D01*
X183849670Y-85626648D01*
X183849665Y-85626651D01*
X183696529Y-85737911D01*
X183569866Y-85878585D01*
X183475221Y-86042515D01*
X183475218Y-86042522D01*
X183418272Y-86217785D01*
X183416726Y-86222544D01*
X183396940Y-86410800D01*
X176372972Y-86410800D01*
X176335913Y-86341467D01*
X176335909Y-86341460D01*
X176210883Y-86189116D01*
X176058539Y-86064090D01*
X176058532Y-86064086D01*
X175884733Y-85971188D01*
X175884727Y-85971186D01*
X175696132Y-85913976D01*
X175696129Y-85913975D01*
X175500000Y-85894659D01*
X175303870Y-85913975D01*
X175115266Y-85971188D01*
X174941467Y-86064086D01*
X174941460Y-86064090D01*
X174789116Y-86189116D01*
X174664090Y-86341460D01*
X174664086Y-86341467D01*
X174571188Y-86515266D01*
X174513975Y-86703870D01*
X174494659Y-86900000D01*
X170689695Y-86900000D01*
X170705460Y-86750000D01*
X170685674Y-86561744D01*
X170627179Y-86381716D01*
X170532533Y-86217784D01*
X170405871Y-86077112D01*
X170387948Y-86064090D01*
X170252734Y-85965851D01*
X170252729Y-85965848D01*
X170079807Y-85888857D01*
X170079802Y-85888855D01*
X169934001Y-85857865D01*
X169894646Y-85849500D01*
X169705354Y-85849500D01*
X169672897Y-85856398D01*
X169520197Y-85888855D01*
X169520192Y-85888857D01*
X169347270Y-85965848D01*
X169347265Y-85965851D01*
X169194129Y-86077111D01*
X169067465Y-86217785D01*
X168975683Y-86376758D01*
X168925116Y-86424974D01*
X168856509Y-86438197D01*
X168791644Y-86412229D01*
X168751116Y-86355314D01*
X168750365Y-86353075D01*
X168727182Y-86281724D01*
X168727180Y-86281720D01*
X168727179Y-86281716D01*
X168632533Y-86117784D01*
X168505871Y-85977112D01*
X168505870Y-85977111D01*
X168352734Y-85865851D01*
X168352729Y-85865848D01*
X168179807Y-85788857D01*
X168179802Y-85788855D01*
X168034001Y-85757865D01*
X167994646Y-85749500D01*
X167805354Y-85749500D01*
X167772897Y-85756398D01*
X167620197Y-85788855D01*
X167620192Y-85788857D01*
X167447270Y-85865848D01*
X167447265Y-85865851D01*
X167294129Y-85977111D01*
X167167466Y-86117785D01*
X167072821Y-86281715D01*
X167072818Y-86281722D01*
X167030414Y-86412229D01*
X167014326Y-86461744D01*
X166994540Y-86650000D01*
X166273921Y-86650000D01*
X166290474Y-86599056D01*
X166310260Y-86410800D01*
X166290474Y-86222544D01*
X166231979Y-86042516D01*
X166137333Y-85878584D01*
X166010671Y-85737912D01*
X166010670Y-85737911D01*
X165857534Y-85626651D01*
X165857529Y-85626648D01*
X165684607Y-85549657D01*
X165684602Y-85549655D01*
X165538801Y-85518665D01*
X165499446Y-85510300D01*
X165310154Y-85510300D01*
X165277697Y-85517198D01*
X165124997Y-85549655D01*
X165124992Y-85549657D01*
X164952070Y-85626648D01*
X164952065Y-85626651D01*
X164798929Y-85737911D01*
X164672266Y-85878585D01*
X164577621Y-86042515D01*
X164577618Y-86042522D01*
X164520672Y-86217785D01*
X164519126Y-86222544D01*
X164499340Y-86410800D01*
X157167573Y-86410800D01*
X157189579Y-86372684D01*
X157248074Y-86192656D01*
X157267860Y-86004400D01*
X157248074Y-85816144D01*
X157189579Y-85636116D01*
X157094933Y-85472184D01*
X156968271Y-85331512D01*
X156959147Y-85324883D01*
X156815134Y-85220251D01*
X156815129Y-85220248D01*
X156642207Y-85143257D01*
X156642202Y-85143255D01*
X156496401Y-85112265D01*
X156457046Y-85103900D01*
X156267754Y-85103900D01*
X156235297Y-85110798D01*
X156082597Y-85143255D01*
X156082592Y-85143257D01*
X155909670Y-85220248D01*
X155909665Y-85220251D01*
X155756529Y-85331511D01*
X155629866Y-85472185D01*
X155535221Y-85636115D01*
X155535218Y-85636122D01*
X155476727Y-85816140D01*
X155476726Y-85816144D01*
X155456940Y-86004400D01*
X154572518Y-86004400D01*
X154682533Y-85882216D01*
X154777179Y-85718284D01*
X154835674Y-85538256D01*
X154855460Y-85350000D01*
X154835674Y-85161744D01*
X154777179Y-84981716D01*
X154682533Y-84817784D01*
X154555871Y-84677112D01*
X154555870Y-84677111D01*
X154402734Y-84565851D01*
X154402729Y-84565848D01*
X154229807Y-84488857D01*
X154229802Y-84488855D01*
X154064951Y-84453816D01*
X154044646Y-84449500D01*
X153855354Y-84449500D01*
X153835058Y-84453814D01*
X153670197Y-84488855D01*
X153670192Y-84488857D01*
X153497270Y-84565848D01*
X153497265Y-84565851D01*
X153344129Y-84677111D01*
X153344128Y-84677112D01*
X153213637Y-84822036D01*
X153154151Y-84858684D01*
X153095710Y-84860353D01*
X153044646Y-84849500D01*
X152855354Y-84849500D01*
X152822897Y-84856398D01*
X152670197Y-84888855D01*
X152670192Y-84888857D01*
X152497270Y-84965848D01*
X152497265Y-84965851D01*
X152344129Y-85077111D01*
X152217466Y-85217785D01*
X152122821Y-85381715D01*
X152122818Y-85381722D01*
X152068253Y-85549657D01*
X152064326Y-85561744D01*
X152044540Y-85750000D01*
X144264336Y-85750000D01*
X144291022Y-85730221D01*
X144327423Y-85714013D01*
X144374730Y-85692951D01*
X144527871Y-85581688D01*
X144654533Y-85441016D01*
X144749179Y-85277084D01*
X144807674Y-85097056D01*
X144827460Y-84908800D01*
X144807674Y-84720544D01*
X144749179Y-84540516D01*
X144654533Y-84376584D01*
X144527871Y-84235912D01*
X144522784Y-84232216D01*
X144374734Y-84124651D01*
X144374729Y-84124648D01*
X144201807Y-84047657D01*
X144201802Y-84047655D01*
X144037897Y-84012817D01*
X144016646Y-84008300D01*
X143827354Y-84008300D01*
X143806103Y-84012817D01*
X143642197Y-84047655D01*
X143642192Y-84047657D01*
X143469270Y-84124648D01*
X143469265Y-84124651D01*
X143316129Y-84235911D01*
X143189466Y-84376585D01*
X143094821Y-84540515D01*
X143094818Y-84540522D01*
X143036340Y-84720500D01*
X143036326Y-84720544D01*
X143016540Y-84908800D01*
X133953257Y-84908800D01*
X133935109Y-84689787D01*
X133935107Y-84689775D01*
X133874063Y-84448718D01*
X133774173Y-84220993D01*
X133638166Y-84012817D01*
X133574583Y-83943748D01*
X133469744Y-83829862D01*
X133273509Y-83677126D01*
X133273507Y-83677125D01*
X133273506Y-83677124D01*
X133054811Y-83558772D01*
X133054802Y-83558769D01*
X132819616Y-83478029D01*
X132574335Y-83437100D01*
X132325665Y-83437100D01*
X132080383Y-83478029D01*
X131845197Y-83558769D01*
X131845188Y-83558772D01*
X131626493Y-83677124D01*
X131439216Y-83822888D01*
X131430256Y-83829862D01*
X131419452Y-83841597D01*
X131261833Y-84012817D01*
X131125826Y-84220993D01*
X131025936Y-84448718D01*
X130964892Y-84689775D01*
X130964890Y-84689787D01*
X130944357Y-84937594D01*
X127455643Y-84937594D01*
X127435109Y-84689787D01*
X127435107Y-84689775D01*
X127374063Y-84448718D01*
X127274173Y-84220993D01*
X127138166Y-84012817D01*
X127074583Y-83943748D01*
X126969744Y-83829862D01*
X126773509Y-83677126D01*
X126773507Y-83677125D01*
X126773506Y-83677124D01*
X126554811Y-83558772D01*
X126554802Y-83558769D01*
X126319616Y-83478029D01*
X126074335Y-83437100D01*
X125825665Y-83437100D01*
X125580383Y-83478029D01*
X125345197Y-83558769D01*
X125345188Y-83558772D01*
X125126493Y-83677124D01*
X124939216Y-83822888D01*
X124930256Y-83829862D01*
X124919452Y-83841597D01*
X124761833Y-84012817D01*
X124625826Y-84220993D01*
X124525936Y-84448718D01*
X124464892Y-84689775D01*
X124464890Y-84689787D01*
X124444357Y-84937594D01*
X120527727Y-84937594D01*
X120535599Y-81076800D01*
X150580140Y-81076800D01*
X150599926Y-81265056D01*
X150599927Y-81265059D01*
X150658418Y-81445077D01*
X150658421Y-81445084D01*
X150753067Y-81609016D01*
X150842689Y-81708551D01*
X150879729Y-81749688D01*
X151032865Y-81860948D01*
X151032870Y-81860951D01*
X151205792Y-81937942D01*
X151205797Y-81937944D01*
X151390954Y-81977300D01*
X151390955Y-81977300D01*
X151580244Y-81977300D01*
X151580246Y-81977300D01*
X151765403Y-81937944D01*
X151765405Y-81937942D01*
X151769446Y-81937084D01*
X151839113Y-81942400D01*
X151894847Y-81984537D01*
X151902614Y-81996374D01*
X151972265Y-82117014D01*
X152098929Y-82257688D01*
X152252065Y-82368948D01*
X152252070Y-82368951D01*
X152424992Y-82445942D01*
X152424997Y-82445944D01*
X152610154Y-82485300D01*
X152610155Y-82485300D01*
X152799444Y-82485300D01*
X152799446Y-82485300D01*
X152962523Y-82450637D01*
X153032190Y-82455953D01*
X153087924Y-82498090D01*
X153095691Y-82509927D01*
X153096821Y-82511884D01*
X153191467Y-82675816D01*
X153302833Y-82799500D01*
X153318129Y-82816488D01*
X153471265Y-82927748D01*
X153471270Y-82927751D01*
X153644192Y-83004742D01*
X153644197Y-83004744D01*
X153829354Y-83044100D01*
X153829355Y-83044100D01*
X154012350Y-83044100D01*
X154079389Y-83063785D01*
X154125144Y-83116589D01*
X154135671Y-83155138D01*
X154136140Y-83159600D01*
X154155926Y-83347856D01*
X154155927Y-83347859D01*
X154214418Y-83527877D01*
X154214421Y-83527884D01*
X154309067Y-83691816D01*
X154398689Y-83791351D01*
X154435729Y-83832488D01*
X154588865Y-83943748D01*
X154588870Y-83943751D01*
X154761792Y-84020742D01*
X154761797Y-84020744D01*
X154946954Y-84060100D01*
X154946955Y-84060100D01*
X155136244Y-84060100D01*
X155136246Y-84060100D01*
X155321403Y-84020744D01*
X155494330Y-83943751D01*
X155647471Y-83832488D01*
X155774133Y-83691816D01*
X155868779Y-83527884D01*
X155927274Y-83347856D01*
X155947060Y-83159600D01*
X155927274Y-82971344D01*
X155868779Y-82791316D01*
X155774133Y-82627384D01*
X155647471Y-82486712D01*
X155634258Y-82477112D01*
X155494334Y-82375451D01*
X155494329Y-82375448D01*
X155321407Y-82298457D01*
X155321402Y-82298455D01*
X155137130Y-82259288D01*
X155136246Y-82259100D01*
X154953250Y-82259100D01*
X154886211Y-82239415D01*
X154840456Y-82186611D01*
X154829929Y-82148062D01*
X154826666Y-82117014D01*
X154809674Y-81955344D01*
X154751179Y-81775316D01*
X154707695Y-81700000D01*
X158244540Y-81700000D01*
X158264326Y-81888256D01*
X158264327Y-81888259D01*
X158322818Y-82068277D01*
X158322821Y-82068284D01*
X158417467Y-82232216D01*
X158500694Y-82324649D01*
X158542441Y-82371014D01*
X158544129Y-82372888D01*
X158547657Y-82375451D01*
X158610351Y-82421001D01*
X158653016Y-82476331D01*
X158658995Y-82545945D01*
X158629618Y-82604288D01*
X158617466Y-82617785D01*
X158522821Y-82781715D01*
X158522818Y-82781722D01*
X158465264Y-82958856D01*
X158464326Y-82961744D01*
X158444540Y-83150000D01*
X158464326Y-83338256D01*
X158464327Y-83338259D01*
X158522818Y-83518277D01*
X158522821Y-83518284D01*
X158617467Y-83682216D01*
X158695191Y-83768537D01*
X158744129Y-83822888D01*
X158897265Y-83934148D01*
X158897270Y-83934151D01*
X159070192Y-84011142D01*
X159070197Y-84011144D01*
X159255354Y-84050500D01*
X159255355Y-84050500D01*
X159444644Y-84050500D01*
X159444646Y-84050500D01*
X159629803Y-84011144D01*
X159802730Y-83934151D01*
X159955871Y-83822888D01*
X160066520Y-83700000D01*
X161944540Y-83700000D01*
X161964326Y-83888256D01*
X161964327Y-83888259D01*
X162022818Y-84068277D01*
X162022821Y-84068284D01*
X162117467Y-84232216D01*
X162169392Y-84289884D01*
X162244129Y-84372888D01*
X162397265Y-84484148D01*
X162397270Y-84484151D01*
X162570192Y-84561142D01*
X162570197Y-84561144D01*
X162755354Y-84600500D01*
X162755355Y-84600500D01*
X162944644Y-84600500D01*
X162944646Y-84600500D01*
X163129803Y-84561144D01*
X163302730Y-84484151D01*
X163455871Y-84372888D01*
X163582533Y-84232216D01*
X163677179Y-84068284D01*
X163735674Y-83888256D01*
X163755460Y-83700000D01*
X163735674Y-83511744D01*
X163677179Y-83331716D01*
X163582533Y-83167784D01*
X163455871Y-83027112D01*
X163455870Y-83027111D01*
X163302734Y-82915851D01*
X163302729Y-82915848D01*
X163129807Y-82838857D01*
X163129802Y-82838855D01*
X162984001Y-82807865D01*
X162944646Y-82799500D01*
X162755354Y-82799500D01*
X162722897Y-82806398D01*
X162570197Y-82838855D01*
X162570192Y-82838857D01*
X162397270Y-82915848D01*
X162397265Y-82915851D01*
X162244129Y-83027111D01*
X162117466Y-83167785D01*
X162022821Y-83331715D01*
X162022818Y-83331722D01*
X161964327Y-83511740D01*
X161964326Y-83511744D01*
X161944540Y-83700000D01*
X160066520Y-83700000D01*
X160082533Y-83682216D01*
X160177179Y-83518284D01*
X160235674Y-83338256D01*
X160255460Y-83150000D01*
X160235674Y-82961744D01*
X160177179Y-82781716D01*
X160082533Y-82617784D01*
X159955871Y-82477112D01*
X159954796Y-82476331D01*
X159889648Y-82428998D01*
X159846982Y-82373668D01*
X159841003Y-82304055D01*
X159870384Y-82245708D01*
X159882533Y-82232216D01*
X159977179Y-82068284D01*
X160035674Y-81888256D01*
X160040872Y-81838800D01*
X164092940Y-81838800D01*
X164112726Y-82027056D01*
X164112727Y-82027059D01*
X164171218Y-82207077D01*
X164171221Y-82207084D01*
X164265867Y-82371016D01*
X164379330Y-82497029D01*
X164392529Y-82511688D01*
X164545665Y-82622948D01*
X164545670Y-82622951D01*
X164718592Y-82699942D01*
X164718593Y-82699942D01*
X164718597Y-82699944D01*
X164809073Y-82719175D01*
X164870555Y-82752367D01*
X164904332Y-82813530D01*
X164899680Y-82883244D01*
X164858076Y-82939377D01*
X164826070Y-82956070D01*
X164826134Y-82956212D01*
X164823847Y-82957230D01*
X164821614Y-82958395D01*
X164820196Y-82958855D01*
X164647270Y-83035848D01*
X164647265Y-83035851D01*
X164494129Y-83147111D01*
X164367466Y-83287785D01*
X164272821Y-83451715D01*
X164272818Y-83451722D01*
X164215550Y-83627976D01*
X164214326Y-83631744D01*
X164194540Y-83820000D01*
X164214326Y-84008256D01*
X164214327Y-84008258D01*
X164214327Y-84008259D01*
X164272818Y-84188277D01*
X164272821Y-84188284D01*
X164367467Y-84352216D01*
X164486259Y-84484148D01*
X164494129Y-84492888D01*
X164647265Y-84604148D01*
X164647270Y-84604151D01*
X164820192Y-84681142D01*
X164820197Y-84681144D01*
X165005354Y-84720500D01*
X165005355Y-84720500D01*
X165194644Y-84720500D01*
X165194646Y-84720500D01*
X165379803Y-84681144D01*
X165552730Y-84604151D01*
X165705871Y-84492888D01*
X165832533Y-84352216D01*
X165927179Y-84188284D01*
X165985674Y-84008256D01*
X165993367Y-83935055D01*
X165998903Y-83921600D01*
X168664940Y-83921600D01*
X168684726Y-84109856D01*
X168684727Y-84109859D01*
X168743218Y-84289877D01*
X168743221Y-84289884D01*
X168837867Y-84453816D01*
X168938742Y-84565849D01*
X168964529Y-84594488D01*
X169117665Y-84705748D01*
X169117670Y-84705751D01*
X169290592Y-84782742D01*
X169290597Y-84782744D01*
X169475754Y-84822100D01*
X169475755Y-84822100D01*
X169665044Y-84822100D01*
X169665046Y-84822100D01*
X169850203Y-84782744D01*
X170023130Y-84705751D01*
X170149415Y-84614000D01*
X174443859Y-84614000D01*
X174463175Y-84810129D01*
X174466787Y-84822036D01*
X174515225Y-84981715D01*
X174520388Y-84998733D01*
X174613286Y-85172532D01*
X174613290Y-85172539D01*
X174738316Y-85324883D01*
X174890660Y-85449909D01*
X174890667Y-85449913D01*
X175064466Y-85542811D01*
X175064469Y-85542811D01*
X175064473Y-85542814D01*
X175253068Y-85600024D01*
X175449200Y-85619341D01*
X175645332Y-85600024D01*
X175833927Y-85542814D01*
X175842455Y-85538256D01*
X176007732Y-85449913D01*
X176007738Y-85449910D01*
X176160083Y-85324883D01*
X176285110Y-85172538D01*
X176378014Y-84998727D01*
X176435224Y-84810132D01*
X176454541Y-84614000D01*
X176435224Y-84417868D01*
X176378014Y-84229273D01*
X176378011Y-84229269D01*
X176378011Y-84229266D01*
X176285113Y-84055467D01*
X176285109Y-84055460D01*
X176160083Y-83903116D01*
X176007739Y-83778090D01*
X176007732Y-83778086D01*
X175833933Y-83685188D01*
X175833927Y-83685186D01*
X175688312Y-83641014D01*
X175645329Y-83627975D01*
X175449200Y-83608659D01*
X175253070Y-83627975D01*
X175064466Y-83685188D01*
X174890667Y-83778086D01*
X174890660Y-83778090D01*
X174738316Y-83903116D01*
X174613290Y-84055460D01*
X174613286Y-84055467D01*
X174520388Y-84229266D01*
X174463175Y-84417870D01*
X174443859Y-84614000D01*
X170149415Y-84614000D01*
X170176271Y-84594488D01*
X170302933Y-84453816D01*
X170397579Y-84289884D01*
X170456074Y-84109856D01*
X170475860Y-83921600D01*
X170456074Y-83733344D01*
X170397579Y-83553316D01*
X170302933Y-83389384D01*
X170176271Y-83248712D01*
X170176270Y-83248711D01*
X170023134Y-83137451D01*
X170023129Y-83137448D01*
X169958786Y-83108800D01*
X180145740Y-83108800D01*
X180165526Y-83297056D01*
X180165527Y-83297059D01*
X180224018Y-83477077D01*
X180224021Y-83477084D01*
X180318667Y-83641016D01*
X180358440Y-83685188D01*
X180445329Y-83781688D01*
X180598465Y-83892948D01*
X180598470Y-83892951D01*
X180771392Y-83969942D01*
X180771397Y-83969944D01*
X180956554Y-84009300D01*
X180956555Y-84009300D01*
X181145844Y-84009300D01*
X181145846Y-84009300D01*
X181331003Y-83969944D01*
X181503930Y-83892951D01*
X181642856Y-83792015D01*
X181708658Y-83768537D01*
X181776712Y-83784362D01*
X181825407Y-83834468D01*
X181839058Y-83879370D01*
X181841926Y-83906656D01*
X181841927Y-83906659D01*
X181900418Y-84086677D01*
X181900421Y-84086684D01*
X181995067Y-84250616D01*
X182108490Y-84376585D01*
X182121729Y-84391288D01*
X182274865Y-84502548D01*
X182274870Y-84502551D01*
X182447792Y-84579542D01*
X182447797Y-84579544D01*
X182632954Y-84618900D01*
X182632955Y-84618900D01*
X182822244Y-84618900D01*
X182822246Y-84618900D01*
X183007403Y-84579544D01*
X183180330Y-84502551D01*
X183333471Y-84391288D01*
X183460133Y-84250616D01*
X183554779Y-84086684D01*
X183613274Y-83906656D01*
X183633060Y-83718400D01*
X183613274Y-83530144D01*
X183554779Y-83350116D01*
X183460133Y-83186184D01*
X183333471Y-83045512D01*
X183319253Y-83035182D01*
X183180334Y-82934251D01*
X183180329Y-82934248D01*
X183007407Y-82857257D01*
X183007402Y-82857255D01*
X182861601Y-82826265D01*
X182822246Y-82817900D01*
X182632954Y-82817900D01*
X182600497Y-82824798D01*
X182447797Y-82857255D01*
X182447792Y-82857257D01*
X182274870Y-82934248D01*
X182274865Y-82934251D01*
X182135946Y-83035182D01*
X182070140Y-83058662D01*
X182002086Y-83042836D01*
X181953391Y-82992730D01*
X181939741Y-82947828D01*
X181936874Y-82920544D01*
X181878379Y-82740516D01*
X181783733Y-82576584D01*
X181657071Y-82435912D01*
X181636548Y-82421001D01*
X181503934Y-82324651D01*
X181503929Y-82324648D01*
X181331007Y-82247657D01*
X181331002Y-82247655D01*
X181185201Y-82216665D01*
X181145846Y-82208300D01*
X180956554Y-82208300D01*
X180924097Y-82215198D01*
X180771397Y-82247655D01*
X180771392Y-82247657D01*
X180598470Y-82324648D01*
X180598465Y-82324651D01*
X180445329Y-82435911D01*
X180318666Y-82576585D01*
X180224021Y-82740515D01*
X180224018Y-82740522D01*
X180167051Y-82915851D01*
X180165526Y-82920544D01*
X180145740Y-83108800D01*
X169958786Y-83108800D01*
X169850207Y-83060457D01*
X169850202Y-83060455D01*
X169693330Y-83027112D01*
X169665046Y-83021100D01*
X169475754Y-83021100D01*
X169447474Y-83027111D01*
X169290597Y-83060455D01*
X169290592Y-83060457D01*
X169117670Y-83137448D01*
X169117665Y-83137451D01*
X168964529Y-83248711D01*
X168837866Y-83389385D01*
X168743221Y-83553315D01*
X168743218Y-83553322D01*
X168684727Y-83733340D01*
X168684726Y-83733344D01*
X168664940Y-83921600D01*
X165998903Y-83921600D01*
X166019950Y-83870444D01*
X166077247Y-83830458D01*
X166147066Y-83827798D01*
X166167115Y-83834737D01*
X166242597Y-83868344D01*
X166427754Y-83907700D01*
X166427755Y-83907700D01*
X166617044Y-83907700D01*
X166617046Y-83907700D01*
X166802203Y-83868344D01*
X166975130Y-83791351D01*
X167128271Y-83680088D01*
X167254933Y-83539416D01*
X167349579Y-83375484D01*
X167408074Y-83195456D01*
X167427860Y-83007200D01*
X167408074Y-82818944D01*
X167349579Y-82638916D01*
X167254933Y-82474984D01*
X167128271Y-82334312D01*
X167078921Y-82298457D01*
X166975134Y-82223051D01*
X166975129Y-82223048D01*
X166802207Y-82146057D01*
X166802202Y-82146055D01*
X166656401Y-82115065D01*
X166617046Y-82106700D01*
X166427754Y-82106700D01*
X166395297Y-82113598D01*
X166242597Y-82146055D01*
X166242592Y-82146057D01*
X166069670Y-82223048D01*
X166069668Y-82223050D01*
X166052105Y-82235810D01*
X165986299Y-82259288D01*
X165918245Y-82243461D01*
X165869551Y-82193355D01*
X165855677Y-82124876D01*
X165861289Y-82097180D01*
X165884074Y-82027056D01*
X165903860Y-81838800D01*
X165884074Y-81650544D01*
X165825579Y-81470516D01*
X165730933Y-81306584D01*
X165604271Y-81165912D01*
X165604270Y-81165911D01*
X165451134Y-81054651D01*
X165451129Y-81054648D01*
X165278207Y-80977657D01*
X165278202Y-80977655D01*
X165132401Y-80946665D01*
X165093046Y-80938300D01*
X164903754Y-80938300D01*
X164871297Y-80945198D01*
X164718597Y-80977655D01*
X164718592Y-80977657D01*
X164545670Y-81054648D01*
X164545665Y-81054651D01*
X164392529Y-81165911D01*
X164265866Y-81306585D01*
X164171221Y-81470515D01*
X164171218Y-81470522D01*
X164112727Y-81650540D01*
X164112726Y-81650544D01*
X164092940Y-81838800D01*
X160040872Y-81838800D01*
X160055460Y-81700000D01*
X160035674Y-81511744D01*
X159977179Y-81331716D01*
X159882533Y-81167784D01*
X159755871Y-81027112D01*
X159735582Y-81012371D01*
X159614501Y-80924400D01*
X167852140Y-80924400D01*
X167871926Y-81112656D01*
X167871927Y-81112659D01*
X167930418Y-81292677D01*
X167930421Y-81292684D01*
X168025067Y-81456616D01*
X168074705Y-81511744D01*
X168151729Y-81597288D01*
X168304865Y-81708548D01*
X168304870Y-81708551D01*
X168477792Y-81785542D01*
X168477797Y-81785544D01*
X168662954Y-81824900D01*
X168662955Y-81824900D01*
X168852244Y-81824900D01*
X168852246Y-81824900D01*
X169037403Y-81785544D01*
X169210330Y-81708551D01*
X169363471Y-81597288D01*
X169490133Y-81456616D01*
X169584779Y-81292684D01*
X169643274Y-81112656D01*
X169663060Y-80924400D01*
X169643274Y-80736144D01*
X169584779Y-80556116D01*
X169490133Y-80392184D01*
X169363471Y-80251512D01*
X169314121Y-80215657D01*
X169210334Y-80140251D01*
X169210329Y-80140248D01*
X169037407Y-80063257D01*
X169037402Y-80063255D01*
X168891601Y-80032265D01*
X168852246Y-80023900D01*
X168662954Y-80023900D01*
X168630497Y-80030798D01*
X168477797Y-80063255D01*
X168477792Y-80063257D01*
X168304870Y-80140248D01*
X168304865Y-80140251D01*
X168151729Y-80251511D01*
X168025066Y-80392185D01*
X167930421Y-80556115D01*
X167930418Y-80556122D01*
X167871927Y-80736140D01*
X167871926Y-80736144D01*
X167852140Y-80924400D01*
X159614501Y-80924400D01*
X159602734Y-80915851D01*
X159602729Y-80915848D01*
X159429807Y-80838857D01*
X159429802Y-80838855D01*
X159284001Y-80807865D01*
X159244646Y-80799500D01*
X159055354Y-80799500D01*
X159022897Y-80806398D01*
X158870197Y-80838855D01*
X158870192Y-80838857D01*
X158697270Y-80915848D01*
X158697265Y-80915851D01*
X158544129Y-81027111D01*
X158417466Y-81167785D01*
X158322821Y-81331715D01*
X158322818Y-81331722D01*
X158277658Y-81470712D01*
X158264326Y-81511744D01*
X158244540Y-81700000D01*
X154707695Y-81700000D01*
X154656533Y-81611384D01*
X154529871Y-81470712D01*
X154529870Y-81470711D01*
X154376734Y-81359451D01*
X154376729Y-81359448D01*
X154203807Y-81282457D01*
X154203802Y-81282455D01*
X154058001Y-81251465D01*
X154018646Y-81243100D01*
X153829354Y-81243100D01*
X153829352Y-81243100D01*
X153666276Y-81277762D01*
X153596609Y-81272446D01*
X153540876Y-81230308D01*
X153533109Y-81218472D01*
X153472017Y-81112659D01*
X153437333Y-81052584D01*
X153310671Y-80911912D01*
X153278508Y-80888544D01*
X153157534Y-80800651D01*
X153157529Y-80800648D01*
X152984607Y-80723657D01*
X152984602Y-80723655D01*
X152838801Y-80692665D01*
X152799446Y-80684300D01*
X152610154Y-80684300D01*
X152610153Y-80684300D01*
X152420952Y-80724515D01*
X152351285Y-80719199D01*
X152295552Y-80677062D01*
X152287785Y-80665225D01*
X152224794Y-80556122D01*
X152218133Y-80544584D01*
X152091471Y-80403912D01*
X152091470Y-80403911D01*
X151938334Y-80292651D01*
X151938329Y-80292648D01*
X151765407Y-80215657D01*
X151765402Y-80215655D01*
X151619601Y-80184665D01*
X151580246Y-80176300D01*
X151390954Y-80176300D01*
X151358497Y-80183198D01*
X151205797Y-80215655D01*
X151205792Y-80215657D01*
X151032870Y-80292648D01*
X151032865Y-80292651D01*
X150879729Y-80403911D01*
X150753066Y-80544585D01*
X150658421Y-80708515D01*
X150658418Y-80708522D01*
X150616070Y-80838857D01*
X150599926Y-80888544D01*
X150580140Y-81076800D01*
X120535599Y-81076800D01*
X120538707Y-79552794D01*
X124444357Y-79552794D01*
X124444357Y-79552805D01*
X124464890Y-79800612D01*
X124464892Y-79800624D01*
X124525936Y-80041681D01*
X124625826Y-80269406D01*
X124761833Y-80477582D01*
X124761836Y-80477585D01*
X124930256Y-80660538D01*
X125126491Y-80813274D01*
X125345190Y-80931628D01*
X125580386Y-81012371D01*
X125825665Y-81053300D01*
X126074335Y-81053300D01*
X126319614Y-81012371D01*
X126554810Y-80931628D01*
X126773509Y-80813274D01*
X126969744Y-80660538D01*
X127138164Y-80477585D01*
X127274173Y-80269407D01*
X127374063Y-80041681D01*
X127435108Y-79800621D01*
X127455643Y-79552800D01*
X127455643Y-79552794D01*
X130944357Y-79552794D01*
X130944357Y-79552805D01*
X130964890Y-79800612D01*
X130964892Y-79800624D01*
X131025936Y-80041681D01*
X131125826Y-80269406D01*
X131261833Y-80477582D01*
X131261836Y-80477585D01*
X131430256Y-80660538D01*
X131626491Y-80813274D01*
X131845190Y-80931628D01*
X132080386Y-81012371D01*
X132325665Y-81053300D01*
X132574335Y-81053300D01*
X132819614Y-81012371D01*
X133054810Y-80931628D01*
X133273509Y-80813274D01*
X133469744Y-80660538D01*
X133638164Y-80477585D01*
X133774173Y-80269407D01*
X133874063Y-80041681D01*
X133935108Y-79800621D01*
X133955643Y-79552800D01*
X133935108Y-79304979D01*
X133874063Y-79063919D01*
X133774173Y-78836193D01*
X133638166Y-78628017D01*
X133614226Y-78602011D01*
X133469744Y-78445062D01*
X133273509Y-78292326D01*
X133273507Y-78292325D01*
X133273506Y-78292324D01*
X133054811Y-78173972D01*
X133054802Y-78173969D01*
X132819616Y-78093229D01*
X132574335Y-78052300D01*
X132325665Y-78052300D01*
X132080383Y-78093229D01*
X131845197Y-78173969D01*
X131845188Y-78173972D01*
X131626493Y-78292324D01*
X131430257Y-78445061D01*
X131261833Y-78628017D01*
X131125826Y-78836193D01*
X131025936Y-79063918D01*
X130964892Y-79304975D01*
X130964890Y-79304987D01*
X130944357Y-79552794D01*
X127455643Y-79552794D01*
X127435108Y-79304979D01*
X127374063Y-79063919D01*
X127274173Y-78836193D01*
X127138166Y-78628017D01*
X127114226Y-78602011D01*
X126969744Y-78445062D01*
X126773509Y-78292326D01*
X126773507Y-78292325D01*
X126773506Y-78292324D01*
X126554811Y-78173972D01*
X126554802Y-78173969D01*
X126319616Y-78093229D01*
X126074335Y-78052300D01*
X125825665Y-78052300D01*
X125580383Y-78093229D01*
X125345197Y-78173969D01*
X125345188Y-78173972D01*
X125126493Y-78292324D01*
X124930257Y-78445061D01*
X124761833Y-78628017D01*
X124625826Y-78836193D01*
X124525936Y-79063918D01*
X124464892Y-79304975D01*
X124464890Y-79304987D01*
X124444357Y-79552794D01*
X120538707Y-79552794D01*
X120544094Y-76911200D01*
X166023340Y-76911200D01*
X166043126Y-77099456D01*
X166043127Y-77099459D01*
X166101618Y-77279477D01*
X166101621Y-77279484D01*
X166196267Y-77443416D01*
X166322929Y-77584088D01*
X166476065Y-77695348D01*
X166476070Y-77695351D01*
X166648992Y-77772342D01*
X166648997Y-77772344D01*
X166834154Y-77811700D01*
X166834155Y-77811700D01*
X167023444Y-77811700D01*
X167023446Y-77811700D01*
X167208603Y-77772344D01*
X167381530Y-77695351D01*
X167534671Y-77584088D01*
X167650370Y-77455591D01*
X167709856Y-77418943D01*
X167779713Y-77420274D01*
X167837761Y-77459160D01*
X167865571Y-77523257D01*
X167865922Y-77550718D01*
X167853859Y-77673199D01*
X167873175Y-77869329D01*
X167930388Y-78057933D01*
X168023286Y-78231732D01*
X168023290Y-78231739D01*
X168148316Y-78384083D01*
X168300660Y-78509109D01*
X168300667Y-78509113D01*
X168474466Y-78602011D01*
X168474469Y-78602011D01*
X168474473Y-78602014D01*
X168663068Y-78659224D01*
X168859200Y-78678541D01*
X169055332Y-78659224D01*
X169243927Y-78602014D01*
X169417738Y-78509110D01*
X169570083Y-78384083D01*
X169695110Y-78231738D01*
X169788014Y-78057927D01*
X169845224Y-77869332D01*
X169864541Y-77673200D01*
X169845224Y-77477068D01*
X169810341Y-77362075D01*
X174791476Y-77362075D01*
X174915462Y-77428348D01*
X175103969Y-77485531D01*
X175103965Y-77485531D01*
X175300000Y-77504838D01*
X175496032Y-77485531D01*
X175684537Y-77428348D01*
X175808523Y-77362076D01*
X175808523Y-77362075D01*
X175300001Y-76853553D01*
X175300000Y-76853553D01*
X174791476Y-77362075D01*
X169810341Y-77362075D01*
X169788014Y-77288473D01*
X169788011Y-77288469D01*
X169788011Y-77288466D01*
X169695113Y-77114667D01*
X169695109Y-77114660D01*
X169570083Y-76962316D01*
X169417739Y-76837290D01*
X169417732Y-76837286D01*
X169243933Y-76744388D01*
X169243927Y-76744386D01*
X169055332Y-76687176D01*
X169055329Y-76687175D01*
X168859200Y-76667859D01*
X168663070Y-76687175D01*
X168474466Y-76744388D01*
X168300667Y-76837286D01*
X168300660Y-76837290D01*
X168148316Y-76962316D01*
X168044380Y-77088962D01*
X167986634Y-77128296D01*
X167916789Y-77130167D01*
X167857021Y-77093979D01*
X167826305Y-77031223D01*
X167825206Y-76997342D01*
X167834260Y-76911200D01*
X167814474Y-76722944D01*
X167755979Y-76542916D01*
X167731201Y-76500000D01*
X174295161Y-76500000D01*
X174314468Y-76696032D01*
X174371651Y-76884537D01*
X174437923Y-77008522D01*
X174946447Y-76500000D01*
X174946447Y-76499999D01*
X174896720Y-76450272D01*
X175050000Y-76450272D01*
X175050000Y-76549728D01*
X175088060Y-76641614D01*
X175158386Y-76711940D01*
X175250272Y-76750000D01*
X175349728Y-76750000D01*
X175441614Y-76711940D01*
X175511940Y-76641614D01*
X175550000Y-76549728D01*
X175550000Y-76499999D01*
X175653553Y-76499999D01*
X175653553Y-76500000D01*
X176162076Y-77008523D01*
X176228348Y-76884537D01*
X176285531Y-76696032D01*
X176290065Y-76650000D01*
X185155040Y-76650000D01*
X185174826Y-76838256D01*
X185174827Y-76838259D01*
X185233318Y-77018277D01*
X185233321Y-77018284D01*
X185327967Y-77182216D01*
X185415548Y-77279484D01*
X185454629Y-77322888D01*
X185607765Y-77434148D01*
X185607770Y-77434151D01*
X185780692Y-77511142D01*
X185780697Y-77511144D01*
X185965854Y-77550500D01*
X185965855Y-77550500D01*
X186155144Y-77550500D01*
X186155146Y-77550500D01*
X186340303Y-77511144D01*
X186513230Y-77434151D01*
X186666371Y-77322888D01*
X186793033Y-77182216D01*
X186887679Y-77018284D01*
X186946174Y-76838256D01*
X186965960Y-76650000D01*
X186946174Y-76461744D01*
X186887679Y-76281716D01*
X186793033Y-76117784D01*
X186666371Y-75977112D01*
X186666370Y-75977111D01*
X186513234Y-75865851D01*
X186513229Y-75865848D01*
X186340307Y-75788857D01*
X186340302Y-75788855D01*
X186194501Y-75757865D01*
X186155146Y-75749500D01*
X185965854Y-75749500D01*
X185933397Y-75756398D01*
X185780697Y-75788855D01*
X185780692Y-75788857D01*
X185607770Y-75865848D01*
X185607765Y-75865851D01*
X185454629Y-75977111D01*
X185327966Y-76117785D01*
X185233321Y-76281715D01*
X185233318Y-76281722D01*
X185174827Y-76461740D01*
X185174826Y-76461744D01*
X185155040Y-76650000D01*
X176290065Y-76650000D01*
X176304838Y-76500000D01*
X176285531Y-76303967D01*
X176228348Y-76115462D01*
X176162075Y-75991476D01*
X175653553Y-76499999D01*
X175550000Y-76499999D01*
X175550000Y-76450272D01*
X175511940Y-76358386D01*
X175441614Y-76288060D01*
X175349728Y-76250000D01*
X175250272Y-76250000D01*
X175158386Y-76288060D01*
X175088060Y-76358386D01*
X175050000Y-76450272D01*
X174896720Y-76450272D01*
X174437923Y-75991476D01*
X174371649Y-76115466D01*
X174314468Y-76303967D01*
X174295161Y-76500000D01*
X167731201Y-76500000D01*
X167661333Y-76378984D01*
X167534671Y-76238312D01*
X167534670Y-76238311D01*
X167381534Y-76127051D01*
X167381529Y-76127048D01*
X167208607Y-76050057D01*
X167208602Y-76050055D01*
X167062801Y-76019065D01*
X167023446Y-76010700D01*
X166834154Y-76010700D01*
X166801697Y-76017598D01*
X166648997Y-76050055D01*
X166648992Y-76050057D01*
X166476070Y-76127048D01*
X166476065Y-76127051D01*
X166322929Y-76238311D01*
X166196266Y-76378985D01*
X166101621Y-76542915D01*
X166101618Y-76542922D01*
X166051870Y-76696032D01*
X166043126Y-76722944D01*
X166023340Y-76911200D01*
X120544094Y-76911200D01*
X120547883Y-75052794D01*
X124444357Y-75052794D01*
X124444357Y-75052805D01*
X124464890Y-75300612D01*
X124464892Y-75300624D01*
X124525936Y-75541681D01*
X124625826Y-75769406D01*
X124761833Y-75977582D01*
X124792320Y-76010700D01*
X124930256Y-76160538D01*
X125126491Y-76313274D01*
X125345190Y-76431628D01*
X125580386Y-76512371D01*
X125825665Y-76553300D01*
X126074335Y-76553300D01*
X126319614Y-76512371D01*
X126554810Y-76431628D01*
X126773509Y-76313274D01*
X126969744Y-76160538D01*
X127138164Y-75977585D01*
X127274173Y-75769407D01*
X127374063Y-75541681D01*
X127435108Y-75300621D01*
X127455643Y-75052800D01*
X127455643Y-75052794D01*
X130944357Y-75052794D01*
X130944357Y-75052805D01*
X130964890Y-75300612D01*
X130964892Y-75300624D01*
X131025936Y-75541681D01*
X131125826Y-75769406D01*
X131261833Y-75977582D01*
X131292320Y-76010700D01*
X131430256Y-76160538D01*
X131626491Y-76313274D01*
X131845190Y-76431628D01*
X132080386Y-76512371D01*
X132325665Y-76553300D01*
X132574335Y-76553300D01*
X132819614Y-76512371D01*
X133054810Y-76431628D01*
X133273509Y-76313274D01*
X133469744Y-76160538D01*
X133638164Y-75977585D01*
X133774173Y-75769407D01*
X133831847Y-75637923D01*
X174791476Y-75637923D01*
X175300000Y-76146447D01*
X175300001Y-76146447D01*
X175808522Y-75637923D01*
X175684537Y-75571651D01*
X175496030Y-75514468D01*
X175496034Y-75514468D01*
X175300000Y-75495161D01*
X175103967Y-75514468D01*
X174915466Y-75571649D01*
X174791476Y-75637923D01*
X133831847Y-75637923D01*
X133874063Y-75541681D01*
X133935108Y-75300621D01*
X133955643Y-75052800D01*
X133935108Y-74804979D01*
X133891848Y-74634151D01*
X133874063Y-74563918D01*
X133774173Y-74336193D01*
X133638166Y-74128017D01*
X133616557Y-74104544D01*
X133469744Y-73945062D01*
X133273509Y-73792326D01*
X133273507Y-73792325D01*
X133273506Y-73792324D01*
X133054811Y-73673972D01*
X133054802Y-73673969D01*
X132819616Y-73593229D01*
X132574335Y-73552300D01*
X132325665Y-73552300D01*
X132080383Y-73593229D01*
X131845197Y-73673969D01*
X131845188Y-73673972D01*
X131626493Y-73792324D01*
X131430257Y-73945061D01*
X131261833Y-74128017D01*
X131125826Y-74336193D01*
X131025936Y-74563918D01*
X130964892Y-74804975D01*
X130964890Y-74804987D01*
X130944357Y-75052794D01*
X127455643Y-75052794D01*
X127435108Y-74804979D01*
X127391848Y-74634151D01*
X127374063Y-74563918D01*
X127274173Y-74336193D01*
X127138166Y-74128017D01*
X127116557Y-74104544D01*
X126969744Y-73945062D01*
X126773509Y-73792326D01*
X126773507Y-73792325D01*
X126773506Y-73792324D01*
X126554811Y-73673972D01*
X126554802Y-73673969D01*
X126319616Y-73593229D01*
X126074335Y-73552300D01*
X125825665Y-73552300D01*
X125580383Y-73593229D01*
X125345197Y-73673969D01*
X125345188Y-73673972D01*
X125126493Y-73792324D01*
X124930257Y-73945061D01*
X124761833Y-74128017D01*
X124625826Y-74336193D01*
X124525936Y-74563918D01*
X124464892Y-74804975D01*
X124464890Y-74804987D01*
X124444357Y-75052794D01*
X120547883Y-75052794D01*
X120553199Y-72445600D01*
X137159740Y-72445600D01*
X137179526Y-72633856D01*
X137179527Y-72633859D01*
X137238018Y-72813877D01*
X137238021Y-72813884D01*
X137332667Y-72977816D01*
X137459329Y-73118488D01*
X137612465Y-73229748D01*
X137612470Y-73229751D01*
X137785392Y-73306742D01*
X137785397Y-73306744D01*
X137970554Y-73346100D01*
X137970555Y-73346100D01*
X138159844Y-73346100D01*
X138159846Y-73346100D01*
X138345003Y-73306744D01*
X138517930Y-73229751D01*
X138671071Y-73118488D01*
X138797733Y-72977816D01*
X138892379Y-72813884D01*
X138898060Y-72796400D01*
X148852940Y-72796400D01*
X148872726Y-72984656D01*
X148872727Y-72984659D01*
X148931218Y-73164677D01*
X148931221Y-73164684D01*
X149025867Y-73328616D01*
X149145194Y-73461142D01*
X149152529Y-73469288D01*
X149305665Y-73580548D01*
X149305670Y-73580551D01*
X149478592Y-73657542D01*
X149478597Y-73657544D01*
X149663754Y-73696900D01*
X149663755Y-73696900D01*
X149853044Y-73696900D01*
X149853046Y-73696900D01*
X150038203Y-73657544D01*
X150211130Y-73580551D01*
X150364271Y-73469288D01*
X150490933Y-73328616D01*
X150585579Y-73164684D01*
X150644074Y-72984656D01*
X150663860Y-72796400D01*
X150644074Y-72608144D01*
X150641428Y-72600000D01*
X166994540Y-72600000D01*
X167014326Y-72788256D01*
X167014327Y-72788259D01*
X167072818Y-72968277D01*
X167072821Y-72968284D01*
X167167467Y-73132216D01*
X167255288Y-73229751D01*
X167294129Y-73272888D01*
X167447265Y-73384148D01*
X167447270Y-73384151D01*
X167620192Y-73461142D01*
X167620193Y-73461142D01*
X167620197Y-73461144D01*
X167681277Y-73474126D01*
X167742757Y-73507317D01*
X167776534Y-73568480D01*
X167773427Y-73633731D01*
X167764327Y-73661740D01*
X167764326Y-73661744D01*
X167744540Y-73850000D01*
X167764326Y-74038256D01*
X167764327Y-74038259D01*
X167822818Y-74218277D01*
X167822821Y-74218284D01*
X167917467Y-74382216D01*
X168044129Y-74522888D01*
X168197265Y-74634148D01*
X168197270Y-74634151D01*
X168370192Y-74711142D01*
X168370197Y-74711144D01*
X168555354Y-74750500D01*
X168555355Y-74750500D01*
X168744644Y-74750500D01*
X168744646Y-74750500D01*
X168929803Y-74711144D01*
X169102730Y-74634151D01*
X169255871Y-74522888D01*
X169382533Y-74382216D01*
X169477179Y-74218284D01*
X169535674Y-74038256D01*
X169555460Y-73850000D01*
X169535674Y-73661744D01*
X169477179Y-73481716D01*
X169382533Y-73317784D01*
X169255871Y-73177112D01*
X169255870Y-73177111D01*
X169102734Y-73065851D01*
X169102729Y-73065848D01*
X168929807Y-72988857D01*
X168929802Y-72988855D01*
X168868723Y-72975873D01*
X168807241Y-72942681D01*
X168773465Y-72881518D01*
X168776572Y-72816265D01*
X168785674Y-72788256D01*
X168805460Y-72600000D01*
X174844540Y-72600000D01*
X174864326Y-72788256D01*
X174864327Y-72788259D01*
X174922818Y-72968277D01*
X174922821Y-72968284D01*
X175017467Y-73132216D01*
X175105288Y-73229751D01*
X175144129Y-73272888D01*
X175297265Y-73384148D01*
X175297270Y-73384151D01*
X175470192Y-73461142D01*
X175470197Y-73461144D01*
X175655354Y-73500500D01*
X175655355Y-73500500D01*
X175844644Y-73500500D01*
X175844646Y-73500500D01*
X176029803Y-73461144D01*
X176202730Y-73384151D01*
X176355871Y-73272888D01*
X176482533Y-73132216D01*
X176577179Y-72968284D01*
X176635674Y-72788256D01*
X176655460Y-72600000D01*
X176635674Y-72411744D01*
X176577179Y-72231716D01*
X176482533Y-72067784D01*
X176355871Y-71927112D01*
X176355870Y-71927111D01*
X176202734Y-71815851D01*
X176202729Y-71815848D01*
X176029807Y-71738857D01*
X176029802Y-71738855D01*
X175884001Y-71707865D01*
X175844646Y-71699500D01*
X175655354Y-71699500D01*
X175622897Y-71706398D01*
X175470197Y-71738855D01*
X175470192Y-71738857D01*
X175297270Y-71815848D01*
X175297265Y-71815851D01*
X175144129Y-71927111D01*
X175017466Y-72067785D01*
X174922821Y-72231715D01*
X174922818Y-72231722D01*
X174864327Y-72411740D01*
X174864326Y-72411744D01*
X174844540Y-72600000D01*
X168805460Y-72600000D01*
X168785674Y-72411744D01*
X168727179Y-72231716D01*
X168632533Y-72067784D01*
X168505871Y-71927112D01*
X168505870Y-71927111D01*
X168352734Y-71815851D01*
X168352729Y-71815848D01*
X168179807Y-71738857D01*
X168179802Y-71738855D01*
X168034001Y-71707865D01*
X167994646Y-71699500D01*
X167805354Y-71699500D01*
X167772897Y-71706398D01*
X167620197Y-71738855D01*
X167620192Y-71738857D01*
X167447270Y-71815848D01*
X167447265Y-71815851D01*
X167294129Y-71927111D01*
X167167466Y-72067785D01*
X167072821Y-72231715D01*
X167072818Y-72231722D01*
X167014327Y-72411740D01*
X167014326Y-72411744D01*
X166994540Y-72600000D01*
X150641428Y-72600000D01*
X150585579Y-72428116D01*
X150490933Y-72264184D01*
X150364271Y-72123512D01*
X150300696Y-72077322D01*
X150211134Y-72012251D01*
X150211129Y-72012248D01*
X150038207Y-71935257D01*
X150038202Y-71935255D01*
X149892401Y-71904265D01*
X149853046Y-71895900D01*
X149663754Y-71895900D01*
X149631297Y-71902798D01*
X149478597Y-71935255D01*
X149478592Y-71935257D01*
X149305670Y-72012248D01*
X149305665Y-72012251D01*
X149152529Y-72123511D01*
X149025866Y-72264185D01*
X148931221Y-72428115D01*
X148931218Y-72428122D01*
X148875372Y-72600000D01*
X148872726Y-72608144D01*
X148852940Y-72796400D01*
X138898060Y-72796400D01*
X138950874Y-72633856D01*
X138970660Y-72445600D01*
X138950874Y-72257344D01*
X138892379Y-72077316D01*
X138797733Y-71913384D01*
X138671071Y-71772712D01*
X138671070Y-71772711D01*
X138517934Y-71661451D01*
X138517929Y-71661448D01*
X138345007Y-71584457D01*
X138345002Y-71584455D01*
X138199201Y-71553465D01*
X138159846Y-71545100D01*
X137970554Y-71545100D01*
X137938097Y-71551998D01*
X137785397Y-71584455D01*
X137785392Y-71584457D01*
X137612470Y-71661448D01*
X137612465Y-71661451D01*
X137459329Y-71772711D01*
X137332666Y-71913385D01*
X137238021Y-72077315D01*
X137238018Y-72077322D01*
X137187853Y-72231715D01*
X137179526Y-72257344D01*
X137159740Y-72445600D01*
X120553199Y-72445600D01*
X120575878Y-61324038D01*
X127099500Y-61324038D01*
X127099500Y-61575961D01*
X127138910Y-61824785D01*
X127216760Y-62064383D01*
X127254524Y-62138498D01*
X127315821Y-62258800D01*
X127331132Y-62288848D01*
X127479201Y-62492649D01*
X127479205Y-62492654D01*
X127571061Y-62584510D01*
X127604546Y-62645833D01*
X127606669Y-62685446D01*
X127599501Y-62752116D01*
X127599500Y-62752135D01*
X127599500Y-64347870D01*
X127599501Y-64347876D01*
X127605908Y-64407483D01*
X127656202Y-64542328D01*
X127656206Y-64542335D01*
X127742451Y-64657543D01*
X127742452Y-64657544D01*
X127742454Y-64657546D01*
X127780777Y-64686234D01*
X127822647Y-64742167D01*
X127827631Y-64811859D01*
X127806784Y-64858385D01*
X127780475Y-64894595D01*
X127691117Y-65069970D01*
X127630290Y-65257173D01*
X127599500Y-65451577D01*
X127599500Y-65648422D01*
X127630290Y-65842826D01*
X127691117Y-66030029D01*
X127762276Y-66169686D01*
X127780476Y-66205405D01*
X127896172Y-66364646D01*
X127896174Y-66364648D01*
X127994198Y-66462672D01*
X128027683Y-66523995D01*
X128022699Y-66593687D01*
X127994199Y-66638033D01*
X127896557Y-66735676D01*
X127896555Y-66735678D01*
X127780904Y-66894856D01*
X127691581Y-67070162D01*
X127630781Y-67257283D01*
X127624016Y-67300000D01*
X128974722Y-67300000D01*
X128930667Y-67376306D01*
X128900000Y-67490756D01*
X128900000Y-67609244D01*
X128930667Y-67723694D01*
X128974722Y-67800000D01*
X127624016Y-67800000D01*
X127630781Y-67842716D01*
X127691581Y-68029837D01*
X127782762Y-68208789D01*
X127795658Y-68277459D01*
X127769381Y-68342199D01*
X127745163Y-68365401D01*
X127657350Y-68429202D01*
X127657341Y-68429209D01*
X127479205Y-68607345D01*
X127479201Y-68607350D01*
X127331132Y-68811151D01*
X127216760Y-69035616D01*
X127138910Y-69275214D01*
X127099500Y-69524038D01*
X127099500Y-69775961D01*
X127138910Y-70024785D01*
X127216760Y-70264383D01*
X127331132Y-70488848D01*
X127479201Y-70692649D01*
X127479205Y-70692654D01*
X127657345Y-70870794D01*
X127657350Y-70870798D01*
X127835117Y-70999952D01*
X127861155Y-71018870D01*
X128004184Y-71091747D01*
X128085616Y-71133239D01*
X128085618Y-71133239D01*
X128085621Y-71133241D01*
X128325215Y-71211090D01*
X128574038Y-71250500D01*
X128574039Y-71250500D01*
X130125961Y-71250500D01*
X130125962Y-71250500D01*
X130374785Y-71211090D01*
X130614379Y-71133241D01*
X130838845Y-71018870D01*
X131042656Y-70870793D01*
X131220793Y-70692656D01*
X131368870Y-70488845D01*
X131483241Y-70264379D01*
X131561090Y-70024785D01*
X131600500Y-69775962D01*
X131600500Y-69524038D01*
X131561090Y-69275215D01*
X131552897Y-69250000D01*
X174924540Y-69250000D01*
X174944326Y-69438256D01*
X174944327Y-69438259D01*
X175002818Y-69618277D01*
X175002821Y-69618284D01*
X175097467Y-69782216D01*
X175195000Y-69890537D01*
X175224129Y-69922888D01*
X175377265Y-70034148D01*
X175377270Y-70034151D01*
X175550192Y-70111142D01*
X175550197Y-70111144D01*
X175735354Y-70150500D01*
X175735355Y-70150500D01*
X175924644Y-70150500D01*
X175924646Y-70150500D01*
X176109803Y-70111144D01*
X176282730Y-70034151D01*
X176392117Y-69954676D01*
X176457920Y-69931198D01*
X176525974Y-69947023D01*
X176537871Y-69954668D01*
X176634379Y-70024785D01*
X176647270Y-70034151D01*
X176820192Y-70111142D01*
X176820197Y-70111144D01*
X177005354Y-70150500D01*
X177005355Y-70150500D01*
X177194644Y-70150500D01*
X177194646Y-70150500D01*
X177379803Y-70111144D01*
X177552730Y-70034151D01*
X177636717Y-69973130D01*
X177702520Y-69949652D01*
X177770574Y-69965477D01*
X177782470Y-69973122D01*
X177853579Y-70024785D01*
X177866470Y-70034151D01*
X178039392Y-70111142D01*
X178039397Y-70111144D01*
X178224554Y-70150500D01*
X178224555Y-70150500D01*
X178413844Y-70150500D01*
X178413846Y-70150500D01*
X178599003Y-70111144D01*
X178771930Y-70034151D01*
X178925071Y-69922888D01*
X179051733Y-69782216D01*
X179146379Y-69618284D01*
X179204874Y-69438256D01*
X179224660Y-69250000D01*
X179204874Y-69061744D01*
X179146379Y-68881716D01*
X179051733Y-68717784D01*
X178925071Y-68577112D01*
X178913632Y-68568801D01*
X178771934Y-68465851D01*
X178771929Y-68465848D01*
X178599007Y-68388857D01*
X178599002Y-68388855D01*
X178453201Y-68357865D01*
X178413846Y-68349500D01*
X178224554Y-68349500D01*
X178192097Y-68356398D01*
X178039397Y-68388855D01*
X178039392Y-68388857D01*
X177866471Y-68465848D01*
X177782485Y-68526867D01*
X177716678Y-68550346D01*
X177648624Y-68534520D01*
X177636715Y-68526867D01*
X177595925Y-68497232D01*
X177552730Y-68465849D01*
X177552728Y-68465848D01*
X177552729Y-68465848D01*
X177379807Y-68388857D01*
X177379802Y-68388855D01*
X177234001Y-68357865D01*
X177194646Y-68349500D01*
X177005354Y-68349500D01*
X176972897Y-68356398D01*
X176820197Y-68388855D01*
X176820192Y-68388857D01*
X176647270Y-68465848D01*
X176647265Y-68465851D01*
X176537885Y-68545321D01*
X176472079Y-68568801D01*
X176404025Y-68552975D01*
X176392115Y-68545321D01*
X176282734Y-68465851D01*
X176282729Y-68465848D01*
X176109807Y-68388857D01*
X176109802Y-68388855D01*
X175964001Y-68357865D01*
X175924646Y-68349500D01*
X175735354Y-68349500D01*
X175702897Y-68356398D01*
X175550197Y-68388855D01*
X175550192Y-68388857D01*
X175377270Y-68465848D01*
X175377265Y-68465851D01*
X175224129Y-68577111D01*
X175097466Y-68717785D01*
X175002821Y-68881715D01*
X175002818Y-68881722D01*
X174952814Y-69035621D01*
X174944326Y-69061744D01*
X174924540Y-69250000D01*
X131552897Y-69250000D01*
X131483241Y-69035621D01*
X131483239Y-69035618D01*
X131483239Y-69035616D01*
X131441747Y-68954184D01*
X131368870Y-68811155D01*
X131222332Y-68609462D01*
X131220798Y-68607350D01*
X131220794Y-68607345D01*
X131042654Y-68429205D01*
X131042649Y-68429201D01*
X130954837Y-68365402D01*
X130912171Y-68310072D01*
X130906192Y-68240459D01*
X130917237Y-68208789D01*
X131008418Y-68029837D01*
X131069218Y-67842716D01*
X131075984Y-67800000D01*
X129725278Y-67800000D01*
X129769333Y-67723694D01*
X129800000Y-67609244D01*
X129800000Y-67490756D01*
X129769333Y-67376306D01*
X129725278Y-67300000D01*
X131075984Y-67300000D01*
X131069218Y-67257283D01*
X131008418Y-67070162D01*
X130975522Y-67005600D01*
X171304659Y-67005600D01*
X171323975Y-67201729D01*
X171381188Y-67390333D01*
X171474086Y-67564132D01*
X171474090Y-67564139D01*
X171599116Y-67716483D01*
X171751460Y-67841509D01*
X171751467Y-67841513D01*
X171925266Y-67934411D01*
X171925269Y-67934411D01*
X171925273Y-67934414D01*
X172113868Y-67991624D01*
X172310000Y-68010941D01*
X172506132Y-67991624D01*
X172694727Y-67934414D01*
X172868538Y-67841510D01*
X173020883Y-67716483D01*
X173145910Y-67564138D01*
X173238814Y-67390327D01*
X173296024Y-67201732D01*
X173315341Y-67005600D01*
X173296024Y-66809468D01*
X173238814Y-66620873D01*
X173238811Y-66620869D01*
X173238811Y-66620866D01*
X173145913Y-66447067D01*
X173145909Y-66447060D01*
X173020883Y-66294716D01*
X172868539Y-66169690D01*
X172868532Y-66169686D01*
X172694733Y-66076788D01*
X172694727Y-66076786D01*
X172506132Y-66019576D01*
X172506129Y-66019575D01*
X172310000Y-66000259D01*
X172113870Y-66019575D01*
X171925266Y-66076788D01*
X171751467Y-66169686D01*
X171751460Y-66169690D01*
X171599116Y-66294716D01*
X171474090Y-66447060D01*
X171474086Y-66447067D01*
X171381188Y-66620866D01*
X171323975Y-66809470D01*
X171304659Y-67005600D01*
X130975522Y-67005600D01*
X130919095Y-66894856D01*
X130803444Y-66735678D01*
X130705801Y-66638035D01*
X130672316Y-66576712D01*
X130677300Y-66507020D01*
X130705801Y-66462673D01*
X130721414Y-66447060D01*
X130803828Y-66364646D01*
X130919524Y-66205405D01*
X131008884Y-66030025D01*
X131069709Y-65842826D01*
X131100500Y-65648422D01*
X131100500Y-65451577D01*
X131069709Y-65257173D01*
X131008882Y-65069970D01*
X130929362Y-64913903D01*
X130919524Y-64894595D01*
X130919522Y-64894592D01*
X130919521Y-64894590D01*
X130893217Y-64858386D01*
X130869736Y-64792580D01*
X130885561Y-64724526D01*
X130919219Y-64686237D01*
X130957546Y-64657546D01*
X131043796Y-64542331D01*
X131094091Y-64407483D01*
X131100500Y-64347873D01*
X131100499Y-62752128D01*
X131094091Y-62692517D01*
X131094089Y-62692514D01*
X131093330Y-62685445D01*
X131105736Y-62616685D01*
X131128938Y-62584510D01*
X131220793Y-62492656D01*
X131368870Y-62288845D01*
X131384179Y-62258800D01*
X151837340Y-62258800D01*
X151857126Y-62447056D01*
X151857127Y-62447059D01*
X151915618Y-62627077D01*
X151915621Y-62627084D01*
X152010267Y-62791016D01*
X152136929Y-62931688D01*
X152290065Y-63042948D01*
X152290070Y-63042951D01*
X152462992Y-63119942D01*
X152462997Y-63119944D01*
X152648154Y-63159300D01*
X152648155Y-63159300D01*
X152837444Y-63159300D01*
X152837446Y-63159300D01*
X153022603Y-63119944D01*
X153195530Y-63042951D01*
X153348671Y-62931688D01*
X153475333Y-62791016D01*
X153569979Y-62627084D01*
X153628474Y-62447056D01*
X153648260Y-62258800D01*
X153628474Y-62070544D01*
X153569979Y-61890516D01*
X153475333Y-61726584D01*
X153348671Y-61585912D01*
X153329567Y-61572032D01*
X153195534Y-61474651D01*
X153195529Y-61474648D01*
X153022607Y-61397657D01*
X153022602Y-61397655D01*
X152876801Y-61366665D01*
X152837446Y-61358300D01*
X152648154Y-61358300D01*
X152615697Y-61365198D01*
X152462997Y-61397655D01*
X152462992Y-61397657D01*
X152290070Y-61474648D01*
X152290065Y-61474651D01*
X152136929Y-61585911D01*
X152010266Y-61726585D01*
X151915621Y-61890515D01*
X151915618Y-61890522D01*
X151889339Y-61971402D01*
X151857126Y-62070544D01*
X151837340Y-62258800D01*
X131384179Y-62258800D01*
X131483241Y-62064379D01*
X131561090Y-61824785D01*
X131600500Y-61575962D01*
X131600500Y-61324038D01*
X131561090Y-61075215D01*
X131483241Y-60835621D01*
X131483239Y-60835618D01*
X131483239Y-60835616D01*
X131381704Y-60636344D01*
X131368870Y-60611155D01*
X131257439Y-60457783D01*
X131220798Y-60407350D01*
X131220794Y-60407345D01*
X131042654Y-60229205D01*
X131042649Y-60229201D01*
X130838848Y-60081132D01*
X130838847Y-60081131D01*
X130838845Y-60081130D01*
X130768747Y-60045413D01*
X130614383Y-59966760D01*
X130374785Y-59888910D01*
X130299576Y-59876998D01*
X130125962Y-59849500D01*
X128574038Y-59849500D01*
X128449626Y-59869205D01*
X128325214Y-59888910D01*
X128085616Y-59966760D01*
X127861151Y-60081132D01*
X127657350Y-60229201D01*
X127657345Y-60229205D01*
X127479205Y-60407345D01*
X127479201Y-60407350D01*
X127331132Y-60611151D01*
X127216760Y-60835616D01*
X127138910Y-61075214D01*
X127099500Y-61324038D01*
X120575878Y-61324038D01*
X120589080Y-54850000D01*
X136094659Y-54850000D01*
X136113975Y-55046129D01*
X136171188Y-55234733D01*
X136264086Y-55408532D01*
X136264090Y-55408539D01*
X136389116Y-55560883D01*
X136541460Y-55685909D01*
X136541467Y-55685913D01*
X136715266Y-55778811D01*
X136715269Y-55778811D01*
X136715273Y-55778814D01*
X136903868Y-55836024D01*
X137100000Y-55855341D01*
X137296132Y-55836024D01*
X137484727Y-55778814D01*
X137658538Y-55685910D01*
X137810883Y-55560883D01*
X137935910Y-55408538D01*
X137982362Y-55321632D01*
X138028811Y-55234733D01*
X138028811Y-55234732D01*
X138028814Y-55234727D01*
X138086024Y-55046132D01*
X138105341Y-54850000D01*
X138086024Y-54653868D01*
X138028814Y-54465273D01*
X138028811Y-54465269D01*
X138028811Y-54465266D01*
X137935913Y-54291467D01*
X137935909Y-54291460D01*
X137810883Y-54139116D01*
X137658539Y-54014090D01*
X137658532Y-54014086D01*
X137484733Y-53921188D01*
X137484727Y-53921186D01*
X137296132Y-53863976D01*
X137296129Y-53863975D01*
X137100000Y-53844659D01*
X136903870Y-53863975D01*
X136715266Y-53921188D01*
X136541467Y-54014086D01*
X136541460Y-54014090D01*
X136389116Y-54139116D01*
X136264090Y-54291460D01*
X136264086Y-54291467D01*
X136171188Y-54465266D01*
X136113975Y-54653870D01*
X136094659Y-54850000D01*
X120589080Y-54850000D01*
X120591874Y-53479999D01*
X163204341Y-53479999D01*
X163204341Y-53480000D01*
X163224936Y-53715403D01*
X163224938Y-53715413D01*
X163286094Y-53943655D01*
X163286096Y-53943659D01*
X163286097Y-53943663D01*
X163377239Y-54139117D01*
X163385965Y-54157830D01*
X163385967Y-54157834D01*
X163521501Y-54351395D01*
X163521506Y-54351402D01*
X163688597Y-54518493D01*
X163688603Y-54518498D01*
X163874158Y-54648425D01*
X163917783Y-54703002D01*
X163924977Y-54772500D01*
X163893454Y-54834855D01*
X163874158Y-54851575D01*
X163688597Y-54981505D01*
X163521505Y-55148597D01*
X163385965Y-55342169D01*
X163385964Y-55342171D01*
X163286098Y-55556335D01*
X163286094Y-55556344D01*
X163224938Y-55784586D01*
X163224936Y-55784596D01*
X163204341Y-56019999D01*
X163204341Y-56020000D01*
X163224936Y-56255403D01*
X163224938Y-56255413D01*
X163286094Y-56483655D01*
X163286096Y-56483659D01*
X163286097Y-56483663D01*
X163290000Y-56492032D01*
X163385965Y-56697830D01*
X163385967Y-56697834D01*
X163494281Y-56852521D01*
X163521501Y-56891396D01*
X163521506Y-56891402D01*
X163688597Y-57058493D01*
X163688603Y-57058498D01*
X163874158Y-57188425D01*
X163917783Y-57243002D01*
X163924977Y-57312500D01*
X163893454Y-57374855D01*
X163874158Y-57391575D01*
X163688597Y-57521505D01*
X163521505Y-57688597D01*
X163385965Y-57882169D01*
X163385964Y-57882171D01*
X163286098Y-58096335D01*
X163286094Y-58096344D01*
X163224938Y-58324586D01*
X163224936Y-58324596D01*
X163204341Y-58559999D01*
X163204341Y-58560000D01*
X163224936Y-58795403D01*
X163224938Y-58795413D01*
X163286094Y-59023655D01*
X163286096Y-59023659D01*
X163286097Y-59023663D01*
X163290000Y-59032032D01*
X163385965Y-59237830D01*
X163385967Y-59237834D01*
X163494281Y-59392521D01*
X163521501Y-59431396D01*
X163521506Y-59431402D01*
X163688597Y-59598493D01*
X163688603Y-59598498D01*
X163874158Y-59728425D01*
X163917783Y-59783002D01*
X163924977Y-59852500D01*
X163893454Y-59914855D01*
X163874158Y-59931575D01*
X163688597Y-60061505D01*
X163521505Y-60228597D01*
X163385965Y-60422169D01*
X163385964Y-60422171D01*
X163286098Y-60636335D01*
X163286094Y-60636344D01*
X163224938Y-60864586D01*
X163224936Y-60864596D01*
X163204341Y-61099999D01*
X163204341Y-61100000D01*
X163224936Y-61335403D01*
X163224938Y-61335413D01*
X163286094Y-61563655D01*
X163286096Y-61563659D01*
X163286097Y-61563663D01*
X163296472Y-61585912D01*
X163385965Y-61777830D01*
X163385967Y-61777834D01*
X163464873Y-61890522D01*
X163521501Y-61971396D01*
X163521506Y-61971402D01*
X163688597Y-62138493D01*
X163688603Y-62138498D01*
X163874158Y-62268425D01*
X163917783Y-62323002D01*
X163924977Y-62392500D01*
X163893454Y-62454855D01*
X163874158Y-62471575D01*
X163688597Y-62601505D01*
X163521505Y-62768597D01*
X163385965Y-62962169D01*
X163385964Y-62962171D01*
X163286098Y-63176335D01*
X163286094Y-63176344D01*
X163224938Y-63404586D01*
X163224936Y-63404596D01*
X163204341Y-63639999D01*
X163204341Y-63640000D01*
X163224936Y-63875403D01*
X163224938Y-63875413D01*
X163286094Y-64103655D01*
X163286096Y-64103659D01*
X163286097Y-64103663D01*
X163290000Y-64112032D01*
X163385965Y-64317830D01*
X163385967Y-64317834D01*
X163494281Y-64472521D01*
X163521505Y-64511401D01*
X163688599Y-64678495D01*
X163754338Y-64724526D01*
X163882165Y-64814032D01*
X163882167Y-64814033D01*
X163882170Y-64814035D01*
X164096337Y-64913903D01*
X164324592Y-64975063D01*
X164512918Y-64991539D01*
X164559999Y-64995659D01*
X164560000Y-64995659D01*
X164560001Y-64995659D01*
X164599234Y-64992226D01*
X164795408Y-64975063D01*
X165023663Y-64913903D01*
X165237830Y-64814035D01*
X165431401Y-64678495D01*
X165598495Y-64511401D01*
X165728425Y-64325842D01*
X165783002Y-64282217D01*
X165852500Y-64275023D01*
X165914855Y-64306546D01*
X165931575Y-64325842D01*
X166061500Y-64511395D01*
X166061505Y-64511401D01*
X166228599Y-64678495D01*
X166294338Y-64724526D01*
X166422165Y-64814032D01*
X166422167Y-64814033D01*
X166422170Y-64814035D01*
X166636337Y-64913903D01*
X166864592Y-64975063D01*
X167052918Y-64991539D01*
X167099999Y-64995659D01*
X167100000Y-64995659D01*
X167100001Y-64995659D01*
X167139234Y-64992226D01*
X167335408Y-64975063D01*
X167563663Y-64913903D01*
X167777830Y-64814035D01*
X167971401Y-64678495D01*
X168138495Y-64511401D01*
X168274035Y-64317830D01*
X168373903Y-64103663D01*
X168435063Y-63875408D01*
X168455659Y-63640000D01*
X168435063Y-63404592D01*
X168373903Y-63176337D01*
X168274035Y-62962171D01*
X168268425Y-62954158D01*
X168138494Y-62768597D01*
X167971402Y-62601506D01*
X167971396Y-62601501D01*
X167785842Y-62471575D01*
X167742217Y-62416998D01*
X167735023Y-62347500D01*
X167766546Y-62285145D01*
X167785842Y-62268425D01*
X167808026Y-62252891D01*
X167971401Y-62138495D01*
X168138495Y-61971401D01*
X168274035Y-61777830D01*
X168373903Y-61563663D01*
X168435063Y-61335408D01*
X168455659Y-61100000D01*
X168435063Y-60864592D01*
X168373903Y-60636337D01*
X168274035Y-60422171D01*
X168268425Y-60414158D01*
X168138494Y-60228597D01*
X167971402Y-60061506D01*
X167971396Y-60061501D01*
X167785842Y-59931575D01*
X167742217Y-59876998D01*
X167735023Y-59807500D01*
X167766546Y-59745145D01*
X167785842Y-59728425D01*
X167808026Y-59712891D01*
X167971401Y-59598495D01*
X168138495Y-59431401D01*
X168274035Y-59237830D01*
X168373903Y-59023663D01*
X168435063Y-58795408D01*
X168455659Y-58560000D01*
X168435063Y-58324592D01*
X168373903Y-58096337D01*
X168274035Y-57882171D01*
X168268425Y-57874158D01*
X168138494Y-57688597D01*
X167971402Y-57521506D01*
X167971396Y-57521501D01*
X167785842Y-57391575D01*
X167742217Y-57336998D01*
X167735023Y-57267500D01*
X167766546Y-57205145D01*
X167785842Y-57188425D01*
X167808026Y-57172891D01*
X167971401Y-57058495D01*
X168138495Y-56891401D01*
X168274035Y-56697830D01*
X168373903Y-56483663D01*
X168435063Y-56255408D01*
X168455659Y-56020000D01*
X168435063Y-55784592D01*
X168373903Y-55556337D01*
X168274035Y-55342171D01*
X168268424Y-55334158D01*
X168138496Y-55148600D01*
X168130844Y-55140948D01*
X168016179Y-55026283D01*
X167982696Y-54964963D01*
X167987680Y-54895271D01*
X168029551Y-54839337D01*
X168060529Y-54822422D01*
X168192086Y-54773354D01*
X168192093Y-54773350D01*
X168307187Y-54687190D01*
X168307190Y-54687187D01*
X168393350Y-54572093D01*
X168393354Y-54572086D01*
X168443596Y-54437379D01*
X168443598Y-54437372D01*
X168449999Y-54377844D01*
X168450000Y-54377827D01*
X168450000Y-54356800D01*
X176596940Y-54356800D01*
X176616726Y-54545056D01*
X176616727Y-54545059D01*
X176675218Y-54725077D01*
X176675221Y-54725084D01*
X176769867Y-54889016D01*
X176853141Y-54981501D01*
X176896529Y-55029688D01*
X177049665Y-55140948D01*
X177049670Y-55140951D01*
X177222592Y-55217942D01*
X177222597Y-55217944D01*
X177407754Y-55257300D01*
X177407755Y-55257300D01*
X177597044Y-55257300D01*
X177597046Y-55257300D01*
X177782203Y-55217944D01*
X177955130Y-55140951D01*
X178108271Y-55029688D01*
X178234933Y-54889016D01*
X178329579Y-54725084D01*
X178388074Y-54545056D01*
X178407860Y-54356800D01*
X178388074Y-54168544D01*
X178329579Y-53988516D01*
X178234933Y-53824584D01*
X178108271Y-53683912D01*
X178108270Y-53683911D01*
X177955134Y-53572651D01*
X177955129Y-53572648D01*
X177782207Y-53495657D01*
X177782202Y-53495655D01*
X177636401Y-53464665D01*
X177597046Y-53456300D01*
X177407754Y-53456300D01*
X177375297Y-53463198D01*
X177222597Y-53495655D01*
X177222592Y-53495657D01*
X177049670Y-53572648D01*
X177049665Y-53572651D01*
X176896529Y-53683911D01*
X176769866Y-53824585D01*
X176675221Y-53988515D01*
X176675218Y-53988522D01*
X176626287Y-54139117D01*
X176616726Y-54168544D01*
X176596940Y-54356800D01*
X168450000Y-54356800D01*
X168450000Y-53730000D01*
X167533012Y-53730000D01*
X167565925Y-53672993D01*
X167600000Y-53545826D01*
X167600000Y-53414174D01*
X167565925Y-53287007D01*
X167533012Y-53230000D01*
X168450000Y-53230000D01*
X168450000Y-53205600D01*
X173548940Y-53205600D01*
X173568726Y-53393856D01*
X173568727Y-53393859D01*
X173627218Y-53573877D01*
X173627221Y-53573884D01*
X173721867Y-53737816D01*
X173818069Y-53844659D01*
X173848529Y-53878488D01*
X174001665Y-53989748D01*
X174001670Y-53989751D01*
X174174592Y-54066742D01*
X174174597Y-54066744D01*
X174359754Y-54106100D01*
X174359755Y-54106100D01*
X174549044Y-54106100D01*
X174549046Y-54106100D01*
X174734203Y-54066744D01*
X174810364Y-54032833D01*
X174879613Y-54023548D01*
X174911233Y-54032832D01*
X174987397Y-54066744D01*
X175172554Y-54106100D01*
X175172555Y-54106100D01*
X175361844Y-54106100D01*
X175361846Y-54106100D01*
X175547003Y-54066744D01*
X175719930Y-53989751D01*
X175873071Y-53878488D01*
X175999733Y-53737816D01*
X176094379Y-53573884D01*
X176152874Y-53393856D01*
X176172660Y-53205600D01*
X176152874Y-53017344D01*
X176094379Y-52837316D01*
X175999733Y-52673384D01*
X175873071Y-52532712D01*
X175873070Y-52532711D01*
X175719934Y-52421451D01*
X175719929Y-52421448D01*
X175547007Y-52344457D01*
X175547002Y-52344455D01*
X175401201Y-52313465D01*
X175361846Y-52305100D01*
X175172554Y-52305100D01*
X175140097Y-52311998D01*
X174987397Y-52344455D01*
X174987396Y-52344455D01*
X174911235Y-52378365D01*
X174841985Y-52387649D01*
X174810365Y-52378365D01*
X174734202Y-52344455D01*
X174588401Y-52313465D01*
X174549046Y-52305100D01*
X174359754Y-52305100D01*
X174327297Y-52311998D01*
X174174597Y-52344455D01*
X174174592Y-52344457D01*
X174001670Y-52421448D01*
X174001665Y-52421451D01*
X173848529Y-52532711D01*
X173721866Y-52673385D01*
X173627221Y-52837315D01*
X173627218Y-52837322D01*
X173569788Y-53014075D01*
X173568726Y-53017344D01*
X173548940Y-53205600D01*
X168450000Y-53205600D01*
X168450000Y-52582172D01*
X168449999Y-52582155D01*
X168443598Y-52522627D01*
X168443596Y-52522620D01*
X168393354Y-52387913D01*
X168393350Y-52387906D01*
X168307190Y-52272812D01*
X168307187Y-52272809D01*
X168192093Y-52186649D01*
X168192086Y-52186645D01*
X168057379Y-52136403D01*
X168057372Y-52136401D01*
X167997844Y-52130000D01*
X167350000Y-52130000D01*
X167350000Y-53046988D01*
X167292993Y-53014075D01*
X167165826Y-52980000D01*
X167034174Y-52980000D01*
X166907007Y-53014075D01*
X166850000Y-53046988D01*
X166850000Y-52130000D01*
X166202155Y-52130000D01*
X166142627Y-52136401D01*
X166142620Y-52136403D01*
X166007913Y-52186645D01*
X166007906Y-52186649D01*
X165892812Y-52272809D01*
X165892809Y-52272812D01*
X165806649Y-52387906D01*
X165806645Y-52387913D01*
X165757578Y-52519470D01*
X165715707Y-52575404D01*
X165650242Y-52599821D01*
X165581969Y-52584969D01*
X165553715Y-52563819D01*
X165509366Y-52519470D01*
X165431401Y-52441505D01*
X165431397Y-52441502D01*
X165431396Y-52441501D01*
X165237834Y-52305967D01*
X165237830Y-52305965D01*
X165126125Y-52253876D01*
X165023663Y-52206097D01*
X165023659Y-52206096D01*
X165023655Y-52206094D01*
X164795413Y-52144938D01*
X164795403Y-52144936D01*
X164560001Y-52124341D01*
X164559999Y-52124341D01*
X164324596Y-52144936D01*
X164324586Y-52144938D01*
X164096344Y-52206094D01*
X164096335Y-52206098D01*
X163882171Y-52305964D01*
X163882169Y-52305965D01*
X163688597Y-52441505D01*
X163521505Y-52608597D01*
X163385965Y-52802169D01*
X163385964Y-52802171D01*
X163286098Y-53016335D01*
X163286094Y-53016344D01*
X163224938Y-53244586D01*
X163224936Y-53244596D01*
X163204341Y-53479999D01*
X120591874Y-53479999D01*
X120600381Y-49307944D01*
X120600500Y-49306482D01*
X120600500Y-49255999D01*
X123972422Y-49255999D01*
X123972422Y-49256000D01*
X123992722Y-49643339D01*
X124034563Y-49907515D01*
X124053398Y-50026433D01*
X124128577Y-50307007D01*
X124153788Y-50401094D01*
X124292787Y-50763197D01*
X124468877Y-51108793D01*
X124680122Y-51434082D01*
X124680124Y-51434084D01*
X124924219Y-51735516D01*
X125198484Y-52009781D01*
X125198488Y-52009784D01*
X125499917Y-52253877D01*
X125757959Y-52421451D01*
X125825211Y-52465125D01*
X126170806Y-52641214D01*
X126532913Y-52780214D01*
X126907567Y-52880602D01*
X127290662Y-52941278D01*
X127656576Y-52960455D01*
X127677999Y-52961578D01*
X127678000Y-52961578D01*
X127678001Y-52961578D01*
X127698301Y-52960514D01*
X128065338Y-52941278D01*
X128448433Y-52880602D01*
X128823087Y-52780214D01*
X129185194Y-52641214D01*
X129530789Y-52465125D01*
X129856084Y-52253876D01*
X130157516Y-52009781D01*
X130431781Y-51735516D01*
X130675876Y-51434084D01*
X130887125Y-51108789D01*
X131063214Y-50763194D01*
X131202214Y-50401087D01*
X131302602Y-50026433D01*
X131363278Y-49643338D01*
X131383578Y-49256000D01*
X131363278Y-48868662D01*
X131330558Y-48662075D01*
X136641476Y-48662075D01*
X136765462Y-48728348D01*
X136953969Y-48785531D01*
X136953965Y-48785531D01*
X137150000Y-48804838D01*
X137346032Y-48785531D01*
X137534537Y-48728348D01*
X137658523Y-48662076D01*
X137658523Y-48662075D01*
X137595848Y-48599400D01*
X140330140Y-48599400D01*
X140349926Y-48787656D01*
X140349927Y-48787659D01*
X140408418Y-48967677D01*
X140408421Y-48967684D01*
X140503067Y-49131616D01*
X140513406Y-49143099D01*
X140520907Y-49151430D01*
X140551135Y-49214422D01*
X140542509Y-49283757D01*
X140520907Y-49317370D01*
X140503066Y-49337185D01*
X140408421Y-49501115D01*
X140408418Y-49501122D01*
X140349927Y-49681140D01*
X140349926Y-49681144D01*
X140330140Y-49869400D01*
X140349926Y-50057656D01*
X140349927Y-50057659D01*
X140408418Y-50237677D01*
X140408421Y-50237684D01*
X140503066Y-50401616D01*
X140506336Y-50406116D01*
X140529815Y-50471922D01*
X140513989Y-50539976D01*
X140506336Y-50551884D01*
X140503066Y-50556383D01*
X140408421Y-50720315D01*
X140408418Y-50720322D01*
X140349927Y-50900340D01*
X140349926Y-50900344D01*
X140330140Y-51088600D01*
X140349926Y-51276856D01*
X140349927Y-51276859D01*
X140408418Y-51456877D01*
X140408421Y-51456884D01*
X140503067Y-51620816D01*
X140606339Y-51735511D01*
X140629729Y-51761488D01*
X140782865Y-51872748D01*
X140782870Y-51872751D01*
X140955792Y-51949742D01*
X140955797Y-51949744D01*
X141140954Y-51989100D01*
X141140955Y-51989100D01*
X141330244Y-51989100D01*
X141330246Y-51989100D01*
X141515403Y-51949744D01*
X141688330Y-51872751D01*
X141841471Y-51761488D01*
X141968133Y-51620816D01*
X142062779Y-51456884D01*
X142121274Y-51276856D01*
X142141060Y-51088600D01*
X142121274Y-50900344D01*
X142062779Y-50720316D01*
X141968133Y-50556384D01*
X141968132Y-50556382D01*
X141964868Y-50551891D01*
X141941385Y-50486086D01*
X141957206Y-50418031D01*
X141964868Y-50406109D01*
X141968128Y-50401621D01*
X141968133Y-50401616D01*
X142040773Y-50275800D01*
X155214540Y-50275800D01*
X155234326Y-50464056D01*
X155234327Y-50464059D01*
X155292818Y-50644077D01*
X155292821Y-50644084D01*
X155387467Y-50808016D01*
X155444252Y-50871082D01*
X155514129Y-50948688D01*
X155667265Y-51059948D01*
X155667270Y-51059951D01*
X155840192Y-51136942D01*
X155840197Y-51136944D01*
X156025354Y-51176300D01*
X156025355Y-51176300D01*
X156214644Y-51176300D01*
X156214646Y-51176300D01*
X156399803Y-51136944D01*
X156572730Y-51059951D01*
X156725871Y-50948688D01*
X156852533Y-50808016D01*
X156947179Y-50644084D01*
X157005674Y-50464056D01*
X157025460Y-50275800D01*
X157005674Y-50087544D01*
X156947179Y-49907516D01*
X156852533Y-49743584D01*
X156725871Y-49602912D01*
X156721727Y-49599901D01*
X156572734Y-49491651D01*
X156572729Y-49491648D01*
X156399807Y-49414657D01*
X156399802Y-49414655D01*
X156254001Y-49383665D01*
X156214646Y-49375300D01*
X156025354Y-49375300D01*
X155992897Y-49382198D01*
X155840197Y-49414655D01*
X155840192Y-49414657D01*
X155667270Y-49491648D01*
X155667265Y-49491651D01*
X155514129Y-49602911D01*
X155387466Y-49743585D01*
X155292821Y-49907515D01*
X155292818Y-49907522D01*
X155234327Y-50087540D01*
X155234326Y-50087544D01*
X155214540Y-50275800D01*
X142040773Y-50275800D01*
X142062779Y-50237684D01*
X142121274Y-50057656D01*
X142141060Y-49869400D01*
X142121274Y-49681144D01*
X142062779Y-49501116D01*
X141968133Y-49337184D01*
X141950293Y-49317371D01*
X141920064Y-49254381D01*
X141928689Y-49185046D01*
X141950294Y-49151428D01*
X141968133Y-49131616D01*
X142062779Y-48967684D01*
X142121274Y-48787656D01*
X142141060Y-48599400D01*
X142121274Y-48411144D01*
X142062779Y-48231116D01*
X141968133Y-48067184D01*
X141841471Y-47926512D01*
X141809308Y-47903144D01*
X141688334Y-47815251D01*
X141688329Y-47815248D01*
X141515407Y-47738257D01*
X141515402Y-47738255D01*
X141369601Y-47707265D01*
X141330246Y-47698900D01*
X141140954Y-47698900D01*
X141108497Y-47705798D01*
X140955797Y-47738255D01*
X140955792Y-47738257D01*
X140782870Y-47815248D01*
X140782865Y-47815251D01*
X140629729Y-47926511D01*
X140503066Y-48067185D01*
X140408421Y-48231115D01*
X140408418Y-48231122D01*
X140352766Y-48402402D01*
X140349926Y-48411144D01*
X140330140Y-48599400D01*
X137595848Y-48599400D01*
X137150001Y-48153553D01*
X137150000Y-48153553D01*
X136641476Y-48662075D01*
X131330558Y-48662075D01*
X131302602Y-48485567D01*
X131202214Y-48110913D01*
X131082866Y-47800000D01*
X136145161Y-47800000D01*
X136164468Y-47996032D01*
X136221651Y-48184537D01*
X136287923Y-48308522D01*
X136796447Y-47800000D01*
X136746719Y-47750272D01*
X136900000Y-47750272D01*
X136900000Y-47849728D01*
X136938060Y-47941614D01*
X137008386Y-48011940D01*
X137100272Y-48050000D01*
X137199728Y-48050000D01*
X137291614Y-48011940D01*
X137361940Y-47941614D01*
X137400000Y-47849728D01*
X137400000Y-47799999D01*
X137503553Y-47799999D01*
X137503553Y-47800000D01*
X138012076Y-48308523D01*
X138078348Y-48184537D01*
X138135531Y-47996032D01*
X138154838Y-47800000D01*
X138135531Y-47603967D01*
X138078348Y-47415462D01*
X138012075Y-47291476D01*
X137503553Y-47799999D01*
X137400000Y-47799999D01*
X137400000Y-47750272D01*
X137361940Y-47658386D01*
X137291614Y-47588060D01*
X137199728Y-47550000D01*
X137100272Y-47550000D01*
X137008386Y-47588060D01*
X136938060Y-47658386D01*
X136900000Y-47750272D01*
X136746719Y-47750272D01*
X136287923Y-47291476D01*
X136221649Y-47415466D01*
X136164468Y-47603967D01*
X136145161Y-47800000D01*
X131082866Y-47800000D01*
X131063214Y-47748806D01*
X130887125Y-47403211D01*
X130817239Y-47295596D01*
X130675877Y-47077917D01*
X130562512Y-46937923D01*
X136641476Y-46937923D01*
X137150000Y-47446447D01*
X137150001Y-47446447D01*
X137419446Y-47177000D01*
X155417740Y-47177000D01*
X155437526Y-47365256D01*
X155437527Y-47365259D01*
X155496020Y-47545283D01*
X155511561Y-47572201D01*
X155528033Y-47640101D01*
X155511561Y-47696199D01*
X155496020Y-47723116D01*
X155466084Y-47815251D01*
X155437526Y-47903144D01*
X155417740Y-48091400D01*
X155437526Y-48279656D01*
X155437527Y-48279659D01*
X155496018Y-48459677D01*
X155496021Y-48459684D01*
X155590667Y-48623616D01*
X155701606Y-48746826D01*
X155717329Y-48764288D01*
X155870465Y-48875548D01*
X155870470Y-48875551D01*
X156043392Y-48952542D01*
X156043397Y-48952544D01*
X156228554Y-48991900D01*
X156228555Y-48991900D01*
X156417844Y-48991900D01*
X156417846Y-48991900D01*
X156603003Y-48952544D01*
X156775930Y-48875551D01*
X156929071Y-48764288D01*
X157055733Y-48623616D01*
X157150379Y-48459684D01*
X157208874Y-48279656D01*
X157228660Y-48091400D01*
X157208874Y-47903144D01*
X157150379Y-47723116D01*
X157134838Y-47696198D01*
X157118365Y-47628302D01*
X157134837Y-47572201D01*
X157150379Y-47545284D01*
X157155021Y-47530999D01*
X170883741Y-47530999D01*
X170883741Y-47531000D01*
X170904336Y-47766403D01*
X170904338Y-47766413D01*
X170965494Y-47994655D01*
X170965496Y-47994659D01*
X170965497Y-47994663D01*
X171039589Y-48153553D01*
X171065365Y-48208830D01*
X171065367Y-48208834D01*
X171114958Y-48279656D01*
X171200901Y-48402396D01*
X171200906Y-48402402D01*
X171322830Y-48524326D01*
X171356315Y-48585649D01*
X171351331Y-48655341D01*
X171309459Y-48711274D01*
X171278483Y-48728189D01*
X171147069Y-48777203D01*
X171147064Y-48777206D01*
X171031855Y-48863452D01*
X171031852Y-48863455D01*
X170945606Y-48978664D01*
X170945602Y-48978671D01*
X170895308Y-49113517D01*
X170888901Y-49173116D01*
X170888901Y-49173123D01*
X170888900Y-49173135D01*
X170888900Y-50968870D01*
X170888901Y-50968876D01*
X170895308Y-51028483D01*
X170945602Y-51163328D01*
X170945606Y-51163335D01*
X171031852Y-51278544D01*
X171031855Y-51278547D01*
X171147064Y-51364793D01*
X171147071Y-51364797D01*
X171281917Y-51415091D01*
X171281916Y-51415091D01*
X171288844Y-51415835D01*
X171341527Y-51421500D01*
X173137272Y-51421499D01*
X173196883Y-51415091D01*
X173331731Y-51364796D01*
X173446946Y-51278546D01*
X173533196Y-51163331D01*
X173583491Y-51028483D01*
X173589900Y-50968873D01*
X173589899Y-49173128D01*
X173583491Y-49113517D01*
X173543712Y-49006865D01*
X173533197Y-48978671D01*
X173533193Y-48978664D01*
X173446947Y-48863455D01*
X173446944Y-48863452D01*
X173331735Y-48777206D01*
X173331728Y-48777202D01*
X173200317Y-48728189D01*
X173144383Y-48686318D01*
X173119966Y-48620853D01*
X173134818Y-48552580D01*
X173155963Y-48524332D01*
X173277895Y-48402401D01*
X173413435Y-48208830D01*
X173513303Y-47994663D01*
X173574463Y-47766408D01*
X173595059Y-47531000D01*
X173574463Y-47295592D01*
X173513303Y-47067337D01*
X173413435Y-46853171D01*
X173382308Y-46808716D01*
X173277894Y-46659597D01*
X173180431Y-46562135D01*
X178849500Y-46562135D01*
X178849500Y-48357870D01*
X178849501Y-48357876D01*
X178855908Y-48417483D01*
X178906202Y-48552328D01*
X178906206Y-48552335D01*
X178992452Y-48667544D01*
X178992455Y-48667547D01*
X179107664Y-48753793D01*
X179107671Y-48753797D01*
X179169902Y-48777007D01*
X179239598Y-48803002D01*
X179295531Y-48844873D01*
X179319949Y-48910337D01*
X179305098Y-48978610D01*
X179283947Y-49006865D01*
X179161886Y-49128926D01*
X179026400Y-49322420D01*
X179026399Y-49322422D01*
X178926570Y-49536507D01*
X178926567Y-49536513D01*
X178869364Y-49749999D01*
X178869364Y-49750000D01*
X179766988Y-49750000D01*
X179734075Y-49807007D01*
X179700000Y-49934174D01*
X179700000Y-50065826D01*
X179734075Y-50192993D01*
X179766988Y-50250000D01*
X178869364Y-50250000D01*
X178926567Y-50463486D01*
X178926570Y-50463492D01*
X179026399Y-50677578D01*
X179161894Y-50871082D01*
X179328917Y-51038105D01*
X179522421Y-51173600D01*
X179736507Y-51273429D01*
X179736516Y-51273433D01*
X179950000Y-51330634D01*
X179950000Y-50433012D01*
X180007007Y-50465925D01*
X180134174Y-50500000D01*
X180265826Y-50500000D01*
X180392993Y-50465925D01*
X180450000Y-50433012D01*
X180450000Y-51330633D01*
X180663483Y-51273433D01*
X180663492Y-51273429D01*
X180877578Y-51173600D01*
X181071082Y-51038105D01*
X181238105Y-50871082D01*
X181373600Y-50677578D01*
X181473429Y-50463492D01*
X181473432Y-50463486D01*
X181530636Y-50250000D01*
X180633012Y-50250000D01*
X180665925Y-50192993D01*
X180700000Y-50065826D01*
X180700000Y-49934174D01*
X180665925Y-49807007D01*
X180633012Y-49750000D01*
X181530636Y-49750000D01*
X181530635Y-49749999D01*
X181473432Y-49536513D01*
X181473429Y-49536507D01*
X181373600Y-49322422D01*
X181373599Y-49322420D01*
X181327091Y-49255999D01*
X183916422Y-49255999D01*
X183916422Y-49256000D01*
X183936722Y-49643339D01*
X183978563Y-49907515D01*
X183997398Y-50026433D01*
X184072577Y-50307007D01*
X184097788Y-50401094D01*
X184236787Y-50763197D01*
X184412877Y-51108793D01*
X184624122Y-51434082D01*
X184624124Y-51434084D01*
X184868219Y-51735516D01*
X185142484Y-52009781D01*
X185142488Y-52009784D01*
X185443917Y-52253877D01*
X185701959Y-52421451D01*
X185769211Y-52465125D01*
X186114806Y-52641214D01*
X186476913Y-52780214D01*
X186851567Y-52880602D01*
X187234662Y-52941278D01*
X187600576Y-52960455D01*
X187621999Y-52961578D01*
X187622000Y-52961578D01*
X187622001Y-52961578D01*
X187642301Y-52960514D01*
X188009338Y-52941278D01*
X188392433Y-52880602D01*
X188767087Y-52780214D01*
X189129194Y-52641214D01*
X189474789Y-52465125D01*
X189800084Y-52253876D01*
X190101516Y-52009781D01*
X190375781Y-51735516D01*
X190619876Y-51434084D01*
X190831125Y-51108789D01*
X191007214Y-50763194D01*
X191146214Y-50401087D01*
X191246602Y-50026433D01*
X191307278Y-49643338D01*
X191327578Y-49256000D01*
X191307278Y-48868662D01*
X191246602Y-48485567D01*
X191146214Y-48110913D01*
X191007214Y-47748806D01*
X190831125Y-47403211D01*
X190761239Y-47295596D01*
X190619877Y-47077917D01*
X190471640Y-46894860D01*
X190375781Y-46776484D01*
X190101516Y-46502219D01*
X189966458Y-46392851D01*
X189800082Y-46258122D01*
X189474793Y-46046877D01*
X189129197Y-45870787D01*
X188767094Y-45731788D01*
X188767087Y-45731786D01*
X188392433Y-45631398D01*
X188392429Y-45631397D01*
X188392428Y-45631397D01*
X188009339Y-45570722D01*
X187622001Y-45550422D01*
X187621999Y-45550422D01*
X187234660Y-45570722D01*
X186851572Y-45631397D01*
X186851570Y-45631397D01*
X186476905Y-45731788D01*
X186114802Y-45870787D01*
X185769206Y-46046877D01*
X185443917Y-46258122D01*
X185142488Y-46502215D01*
X185142480Y-46502222D01*
X184868222Y-46776480D01*
X184868215Y-46776488D01*
X184624122Y-47077917D01*
X184412877Y-47403206D01*
X184236787Y-47748802D01*
X184097788Y-48110905D01*
X183997397Y-48485570D01*
X183997397Y-48485572D01*
X183936722Y-48868660D01*
X183916422Y-49255999D01*
X181327091Y-49255999D01*
X181238113Y-49128926D01*
X181238108Y-49128920D01*
X181116053Y-49006865D01*
X181082568Y-48945542D01*
X181087552Y-48875850D01*
X181129424Y-48819917D01*
X181160400Y-48803002D01*
X181249847Y-48769641D01*
X181292326Y-48753798D01*
X181292326Y-48753797D01*
X181292331Y-48753796D01*
X181407546Y-48667546D01*
X181493796Y-48552331D01*
X181544091Y-48417483D01*
X181550500Y-48357873D01*
X181550499Y-46562128D01*
X181545299Y-46513757D01*
X181544091Y-46502516D01*
X181493797Y-46367671D01*
X181493793Y-46367664D01*
X181407547Y-46252455D01*
X181407544Y-46252452D01*
X181292335Y-46166206D01*
X181292328Y-46166202D01*
X181157482Y-46115908D01*
X181157483Y-46115908D01*
X181097883Y-46109501D01*
X181097881Y-46109500D01*
X181097873Y-46109500D01*
X181097864Y-46109500D01*
X179302129Y-46109500D01*
X179302123Y-46109501D01*
X179242516Y-46115908D01*
X179107671Y-46166202D01*
X179107664Y-46166206D01*
X178992455Y-46252452D01*
X178992452Y-46252455D01*
X178906206Y-46367664D01*
X178906202Y-46367671D01*
X178855908Y-46502517D01*
X178849501Y-46562116D01*
X178849501Y-46562123D01*
X178849500Y-46562135D01*
X173180431Y-46562135D01*
X173110802Y-46492506D01*
X173110795Y-46492501D01*
X172917234Y-46356967D01*
X172917230Y-46356965D01*
X172917228Y-46356964D01*
X172703063Y-46257097D01*
X172703059Y-46257096D01*
X172703055Y-46257094D01*
X172474813Y-46195938D01*
X172474803Y-46195936D01*
X172239401Y-46175341D01*
X172239399Y-46175341D01*
X172003996Y-46195936D01*
X172003986Y-46195938D01*
X171775744Y-46257094D01*
X171775735Y-46257098D01*
X171561571Y-46356964D01*
X171561569Y-46356965D01*
X171367997Y-46492505D01*
X171200905Y-46659597D01*
X171065365Y-46853169D01*
X171065364Y-46853171D01*
X170965498Y-47067335D01*
X170965494Y-47067344D01*
X170904338Y-47295586D01*
X170904336Y-47295596D01*
X170883741Y-47530999D01*
X157155021Y-47530999D01*
X157208874Y-47365256D01*
X157228660Y-47177000D01*
X157208874Y-46988744D01*
X157150379Y-46808716D01*
X157055733Y-46644784D01*
X156929071Y-46504112D01*
X156926876Y-46502517D01*
X156775934Y-46392851D01*
X156775929Y-46392848D01*
X156603007Y-46315857D01*
X156603002Y-46315855D01*
X156457201Y-46284865D01*
X156417846Y-46276500D01*
X156228554Y-46276500D01*
X156196097Y-46283398D01*
X156043397Y-46315855D01*
X156043392Y-46315857D01*
X155870470Y-46392848D01*
X155870465Y-46392851D01*
X155717329Y-46504111D01*
X155590666Y-46644785D01*
X155496021Y-46808715D01*
X155496018Y-46808722D01*
X155437527Y-46988740D01*
X155437526Y-46988744D01*
X155417740Y-47177000D01*
X137419446Y-47177000D01*
X137658522Y-46937923D01*
X137534537Y-46871651D01*
X137346030Y-46814468D01*
X137346034Y-46814468D01*
X137150000Y-46795161D01*
X136953967Y-46814468D01*
X136765466Y-46871649D01*
X136641476Y-46937923D01*
X130562512Y-46937923D01*
X130527640Y-46894860D01*
X130431781Y-46776484D01*
X130157516Y-46502219D01*
X130022458Y-46392851D01*
X129856082Y-46258122D01*
X129530793Y-46046877D01*
X129185197Y-45870787D01*
X128823094Y-45731788D01*
X128823087Y-45731786D01*
X128448433Y-45631398D01*
X128448429Y-45631397D01*
X128448428Y-45631397D01*
X128065339Y-45570722D01*
X127678001Y-45550422D01*
X127677999Y-45550422D01*
X127290660Y-45570722D01*
X126907572Y-45631397D01*
X126907570Y-45631397D01*
X126532905Y-45731788D01*
X126170802Y-45870787D01*
X125825206Y-46046877D01*
X125499917Y-46258122D01*
X125198488Y-46502215D01*
X125198480Y-46502222D01*
X124924222Y-46776480D01*
X124924215Y-46776488D01*
X124680122Y-47077917D01*
X124468877Y-47403206D01*
X124292787Y-47748802D01*
X124153788Y-48110905D01*
X124053397Y-48485570D01*
X124053397Y-48485572D01*
X123992722Y-48868660D01*
X123972422Y-49255999D01*
X120600500Y-49255999D01*
X120600500Y-49252196D01*
X120600579Y-49247770D01*
X120609718Y-48991900D01*
X120618686Y-48740806D01*
X120619314Y-48732017D01*
X120673309Y-48229793D01*
X120674568Y-48221040D01*
X120764247Y-47723977D01*
X120766127Y-47715340D01*
X120891039Y-47225939D01*
X120893524Y-47217475D01*
X121053033Y-46738229D01*
X121056122Y-46729947D01*
X121085262Y-46659599D01*
X121249410Y-46263309D01*
X121253085Y-46255263D01*
X121325127Y-46111341D01*
X121479178Y-45803586D01*
X121483395Y-45795862D01*
X121741150Y-45361438D01*
X121745904Y-45354041D01*
X121918122Y-45106000D01*
X161481459Y-45106000D01*
X161500775Y-45302129D01*
X161557988Y-45490733D01*
X161650886Y-45664532D01*
X161650890Y-45664539D01*
X161775916Y-45816883D01*
X161928260Y-45941909D01*
X161928267Y-45941913D01*
X162102066Y-46034811D01*
X162102069Y-46034811D01*
X162102073Y-46034814D01*
X162290668Y-46092024D01*
X162486800Y-46111341D01*
X162682932Y-46092024D01*
X162871527Y-46034814D01*
X163045338Y-45941910D01*
X163197683Y-45816883D01*
X163322710Y-45664538D01*
X163415614Y-45490727D01*
X163472824Y-45302132D01*
X163492141Y-45106000D01*
X163472824Y-44909868D01*
X163415614Y-44721273D01*
X163415611Y-44721269D01*
X163415611Y-44721266D01*
X163322713Y-44547467D01*
X163322709Y-44547460D01*
X163197683Y-44395116D01*
X163045339Y-44270090D01*
X163045332Y-44270086D01*
X162871533Y-44177188D01*
X162871527Y-44177186D01*
X162682932Y-44119976D01*
X162682929Y-44119975D01*
X162486800Y-44100659D01*
X162290670Y-44119975D01*
X162102066Y-44177188D01*
X161928267Y-44270086D01*
X161928260Y-44270090D01*
X161775916Y-44395116D01*
X161650890Y-44547460D01*
X161650886Y-44547467D01*
X161557988Y-44721266D01*
X161500775Y-44909870D01*
X161481459Y-45106000D01*
X121918122Y-45106000D01*
X122033987Y-44939122D01*
X122039277Y-44932057D01*
X122356207Y-44538772D01*
X122361979Y-44532108D01*
X122706174Y-44162418D01*
X122712418Y-44156174D01*
X123082108Y-43811979D01*
X123088772Y-43806207D01*
X123482057Y-43489277D01*
X123489122Y-43483987D01*
X123904041Y-43195904D01*
X123911438Y-43191150D01*
X124345862Y-42933395D01*
X124353586Y-42929178D01*
X124800620Y-42705409D01*
X124805263Y-42703085D01*
X124813309Y-42699410D01*
X125279958Y-42506117D01*
X125288229Y-42503033D01*
X125767475Y-42343524D01*
X125775939Y-42341039D01*
X126265352Y-42216124D01*
X126273977Y-42214247D01*
X126771049Y-42124566D01*
X126779793Y-42123309D01*
X127282017Y-42069314D01*
X127290806Y-42068686D01*
X127797794Y-42050578D01*
X127802208Y-42050500D01*
X187442392Y-42056494D01*
G37*
%TD.AperFunction*%
%TD*%
M02*
