%TF.GenerationSoftware,KiCad,Pcbnew,8.0.3-8.0.3-0~ubuntu22.04.1*%
%TF.CreationDate,2024-06-17T20:55:48-07:00*%
%TF.ProjectId,A1-FlightComputer,41312d46-6c69-4676-9874-436f6d707574,rev?*%
%TF.SameCoordinates,Original*%
%TF.FileFunction,Copper,L4,Bot*%
%TF.FilePolarity,Positive*%
%FSLAX46Y46*%
G04 Gerber Fmt 4.6, Leading zero omitted, Abs format (unit mm)*
G04 Created by KiCad (PCBNEW 8.0.3-8.0.3-0~ubuntu22.04.1) date 2024-06-17 20:55:48*
%MOMM*%
%LPD*%
G01*
G04 APERTURE LIST*
%TA.AperFunction,ComponentPad*%
%ADD10C,1.000000*%
%TD*%
%TA.AperFunction,ComponentPad*%
%ADD11C,6.400000*%
%TD*%
%TA.AperFunction,ComponentPad*%
%ADD12R,1.700000X1.700000*%
%TD*%
%TA.AperFunction,ComponentPad*%
%ADD13O,1.700000X1.700000*%
%TD*%
%TA.AperFunction,ComponentPad*%
%ADD14C,2.000000*%
%TD*%
%TA.AperFunction,ComponentPad*%
%ADD15O,3.500000X2.200000*%
%TD*%
%TA.AperFunction,ComponentPad*%
%ADD16R,2.500000X1.500000*%
%TD*%
%TA.AperFunction,ComponentPad*%
%ADD17O,2.500000X1.500000*%
%TD*%
%TA.AperFunction,ViaPad*%
%ADD18C,0.800000*%
%TD*%
%TA.AperFunction,Conductor*%
%ADD19C,0.250000*%
%TD*%
%TA.AperFunction,Conductor*%
%ADD20C,0.400000*%
%TD*%
%TA.AperFunction,Conductor*%
%ADD21C,0.200000*%
%TD*%
G04 APERTURE END LIST*
D10*
%TO.P,TP204,1,1*%
%TO.N,GND*%
X137150000Y-47800000D03*
%TD*%
%TO.P,TP401,1,1*%
%TO.N,+BATT*%
X162486800Y-45106000D03*
%TD*%
%TO.P,TP206,1,1*%
%TO.N,GND*%
X187000000Y-95200000D03*
%TD*%
%TO.P,TP402,1,1*%
%TO.N,+5V*%
X172310000Y-67005600D03*
%TD*%
%TO.P,TP201,1,1*%
%TO.N,/Peripherals/I2C_SDA*%
X175449200Y-84614000D03*
%TD*%
D11*
%TO.P,H104,1,1*%
%TO.N,unconnected-(H104-Pad1)*%
X127678000Y-109200000D03*
%TD*%
D10*
%TO.P,TP207,1,1*%
%TO.N,GND*%
X139550000Y-91775000D03*
%TD*%
D12*
%TO.P,J301,1,Pin_1*%
%TO.N,+5V*%
X178875000Y-111450000D03*
D13*
%TO.P,J301,2,Pin_2*%
%TO.N,Net-(J301-Pin_2)*%
X178875000Y-108910000D03*
%TD*%
D10*
%TO.P,TP205,1,1*%
%TO.N,GND*%
X175300000Y-76500000D03*
%TD*%
D14*
%TO.P,SW202,1,1*%
%TO.N,/STM32/NRST*%
X125950000Y-84937600D03*
X132450000Y-84937600D03*
%TO.P,SW202,2,2*%
%TO.N,GND*%
X125950000Y-89437600D03*
X132450000Y-89437600D03*
%TD*%
D12*
%TO.P,J302,1,Pin_1*%
%TO.N,/Peripherals/I2C_SCL*%
X186875000Y-91485000D03*
D13*
%TO.P,J302,2,Pin_2*%
%TO.N,/Peripherals/I2C_SDA*%
X189415000Y-91485000D03*
%TD*%
D10*
%TO.P,TP208,1,1*%
%TO.N,/STM32/USB_OTG_ID*%
X168859200Y-77673200D03*
%TD*%
D15*
%TO.P,SW203,*%
%TO.N,*%
X129350000Y-61450000D03*
X129350000Y-69650000D03*
D16*
%TO.P,SW203,1,A*%
%TO.N,+3V3*%
X129350000Y-63550000D03*
D17*
%TO.P,SW203,2,B*%
%TO.N,Net-(SW203-B)*%
X129350000Y-65550000D03*
%TO.P,SW203,3,C*%
%TO.N,GND*%
X129350000Y-67550000D03*
%TD*%
D10*
%TO.P,TP203,1,1*%
%TO.N,/Peripherals/Buzzer_ON*%
X169800000Y-103650000D03*
%TD*%
D12*
%TO.P,J202,1,Pin_1*%
%TO.N,/STM32/PB8*%
X152660000Y-111000000D03*
D13*
%TO.P,J202,2,Pin_2*%
%TO.N,/STM32/PB9*%
X155200000Y-111000000D03*
%TD*%
D11*
%TO.P,H103,1,1*%
%TO.N,unconnected-(H103-Pad1)*%
X187622000Y-109200000D03*
%TD*%
D12*
%TO.P,J201,1,Pin_1*%
%TO.N,/STM32/PC4*%
X159660000Y-111000000D03*
D13*
%TO.P,J201,2,Pin_2*%
%TO.N,/STM32/PC5*%
X162200000Y-111000000D03*
%TD*%
D14*
%TO.P,SW201,1,1*%
%TO.N,+3V3*%
X132450000Y-79552800D03*
X125950000Y-79552800D03*
%TO.P,SW201,2,2*%
%TO.N,Net-(R201-Pad1)*%
X132450000Y-75052800D03*
X125950000Y-75052800D03*
%TD*%
D10*
%TO.P,TP202,1,1*%
%TO.N,/Peripherals/I2C_SCL*%
X175500000Y-86900000D03*
%TD*%
D11*
%TO.P,H102,1,1*%
%TO.N,unconnected-(H102-Pad1)*%
X187622000Y-49256000D03*
%TD*%
D12*
%TO.P,J203,1,Pin_1*%
%TO.N,GND*%
X167100000Y-53480000D03*
D13*
%TO.P,J203,2,Pin_2*%
%TO.N,+3V3*%
X164560000Y-53480000D03*
%TO.P,J203,3,Pin_3*%
%TO.N,/STM32/JTMS{slash}SWDIO*%
X167100000Y-56020000D03*
%TO.P,J203,4,Pin_4*%
%TO.N,/STM32/JTAG_CON*%
X164560000Y-56020000D03*
%TO.P,J203,5,Pin_5*%
%TO.N,/STM32/JTCK{slash}SWCLK*%
X167100000Y-58560000D03*
%TO.P,J203,6,Pin_6*%
%TO.N,/STM32/NJTRST*%
X164560000Y-58560000D03*
%TO.P,J203,7,Pin_7*%
%TO.N,/STM32/JTDI*%
X167100000Y-61100000D03*
%TO.P,J203,8,Pin_8*%
%TO.N,/STM32/JTDO{slash}TRACESWO*%
X164560000Y-61100000D03*
%TO.P,J203,9,Pin_9*%
%TO.N,Net-(J203-Pin_9)*%
X167100000Y-63640000D03*
%TO.P,J203,10,Pin_10*%
%TO.N,Net-(J203-Pin_10)*%
X164560000Y-63640000D03*
%TD*%
D12*
%TO.P,J401,1,Pin_1*%
%TO.N,Net-(D401-A)*%
X172239400Y-50071000D03*
D13*
%TO.P,J401,2,Pin_2*%
%TO.N,Net-(J401-Pin_2)*%
X172239400Y-47531000D03*
%TD*%
D11*
%TO.P,H101,1,1*%
%TO.N,unconnected-(H101-Pad1)*%
X127678000Y-49256000D03*
%TD*%
D12*
%TO.P,SW401,1,A*%
%TO.N,Net-(J401-Pin_2)*%
X180200000Y-47460000D03*
D13*
%TO.P,SW401,2,B*%
%TO.N,GND*%
X180200000Y-50000000D03*
%TD*%
D10*
%TO.P,TP403,1,1*%
%TO.N,+3V3*%
X137100000Y-54850000D03*
%TD*%
D18*
%TO.N,GND*%
X190676000Y-78107400D03*
X183000000Y-90450000D03*
X135686800Y-88239600D03*
X180652000Y-58370000D03*
X170150000Y-71450000D03*
X143922000Y-83283200D03*
X185434400Y-55659200D03*
X177550000Y-85900000D03*
X150825200Y-92760800D03*
X166928800Y-78638400D03*
X180652000Y-57506400D03*
X160214400Y-53853600D03*
X175057200Y-105542800D03*
X184000000Y-85000000D03*
X173082800Y-56468000D03*
X189376000Y-76948200D03*
X177950000Y-90450000D03*
X158038800Y-103632000D03*
X190625200Y-75313400D03*
X145796000Y-78994000D03*
X171634100Y-90393200D03*
X168512500Y-98018000D03*
X151587200Y-72796400D03*
X140360400Y-76606400D03*
X159410400Y-91033600D03*
X146262400Y-73812400D03*
X178750000Y-91150000D03*
X190676000Y-82984200D03*
X152157600Y-53476200D03*
X176650000Y-98000000D03*
X175550000Y-95850000D03*
X141782800Y-83108800D03*
X170400000Y-99150000D03*
X190676000Y-80241000D03*
X153021200Y-53476200D03*
X185420000Y-87528400D03*
X138415200Y-75945600D03*
X156120000Y-45907000D03*
%TO.N,+3V3*%
X156120000Y-50275800D03*
X181600000Y-95350000D03*
X152742800Y-62258800D03*
X166928800Y-76911200D03*
X175600000Y-91550000D03*
X170334100Y-90543200D03*
X154228800Y-94081600D03*
X171600000Y-99150000D03*
X141235600Y-48599400D03*
X138065200Y-72445600D03*
X137672800Y-114273200D03*
X143922000Y-84908800D03*
X141235600Y-49869400D03*
X169570400Y-83921600D03*
X182000000Y-91050000D03*
X181250000Y-90350000D03*
X141235600Y-51088600D03*
X145682400Y-114265200D03*
X169150000Y-99200000D03*
X165404800Y-86410800D03*
X133673600Y-114264400D03*
X161239200Y-91033600D03*
X141682400Y-114265200D03*
X149758400Y-72796400D03*
X178400000Y-98000000D03*
X167140900Y-96697200D03*
X152552400Y-92760800D03*
%TO.N,+5V*%
X177100000Y-69250000D03*
X175830000Y-69250000D03*
X177502400Y-54356800D03*
X178319200Y-69250000D03*
%TO.N,/Peripherals/LED3*%
X155041600Y-83159600D03*
X147218400Y-89255600D03*
%TO.N,/Peripherals/LED2*%
X153924000Y-82143600D03*
X146304000Y-88442800D03*
%TO.N,/Peripherals/LED1*%
X152704800Y-81584800D03*
X145288000Y-87680800D03*
%TO.N,/Peripherals/LED0*%
X151485600Y-81076800D03*
X144272000Y-86868000D03*
%TO.N,+BATT*%
X175267200Y-53205600D03*
X175750000Y-72600000D03*
X156323200Y-47177000D03*
X156323200Y-48091400D03*
X167900000Y-72600000D03*
X186060500Y-76650000D03*
X174454400Y-53205600D03*
%TO.N,/STM32/PB8*%
X152950000Y-85750000D03*
%TO.N,/STM32/PB9*%
X153950000Y-85350000D03*
%TO.N,/STM32/PC4*%
X155702000Y-89408000D03*
%TO.N,/STM32/PC5*%
X156362400Y-86004400D03*
%TO.N,/Peripherals/I2C_SDA*%
X184302400Y-86410800D03*
X182200000Y-92250000D03*
X179350000Y-89350000D03*
X169223700Y-91160000D03*
%TO.N,/Peripherals/I2C_SCL*%
X184404000Y-88138000D03*
X182322800Y-93463200D03*
X169800000Y-86750000D03*
X168200000Y-90312500D03*
%TO.N,/STM32/QuadSPI_IO2*%
X156768800Y-101447600D03*
X155702000Y-92862400D03*
%TO.N,/STM32/QuadSPI_IO1*%
X155752800Y-90932000D03*
X155549600Y-101346000D03*
%TO.N,/STM32/QuadSPI_IO0*%
X158038800Y-93624400D03*
X156464000Y-92100400D03*
%TO.N,/STM32/USB_OTG_ID*%
X168757600Y-80924400D03*
%TO.N,/STM32/QuadSPI_NCS*%
X154228800Y-103632000D03*
X158902400Y-101447600D03*
%TO.N,/Peripherals/BME_CS*%
X182727600Y-83718400D03*
X166522400Y-83007200D03*
%TO.N,/Peripherals/BME_INT*%
X181051200Y-83108800D03*
X164998400Y-81838800D03*
%TO.N,/Peripherals/LSM_INT1*%
X165100000Y-83820000D03*
X167900000Y-86650000D03*
%TO.N,/Peripherals/LSM_INT2*%
X167900000Y-87700000D03*
X159150000Y-81700000D03*
X179522800Y-96463200D03*
X176954800Y-91650000D03*
%TO.N,Net-(U201-PA3)*%
X168650000Y-73850000D03*
X150350000Y-87550000D03*
%TO.N,/Peripherals/ADX_INT1*%
X173184100Y-91893200D03*
X159350000Y-83150000D03*
%TO.N,/Peripherals/ADX_INT2*%
X172784100Y-90943200D03*
X162850000Y-83700000D03*
%TD*%
D19*
%TO.N,/Peripherals/LED3*%
X155041600Y-83159600D02*
X151311988Y-83159600D01*
X151311988Y-83159600D02*
X147218400Y-87253188D01*
X147218400Y-87253188D02*
X147218400Y-89255600D01*
%TO.N,/Peripherals/LED2*%
X146304000Y-87531192D02*
X146304000Y-88442800D01*
X153924000Y-82143600D02*
X153372400Y-82695200D01*
X151139992Y-82695200D02*
X146304000Y-87531192D01*
X153372400Y-82695200D02*
X151139992Y-82695200D01*
%TO.N,/Peripherals/LED1*%
X150953596Y-82245200D02*
X145517996Y-87680800D01*
X152044400Y-82245200D02*
X150953596Y-82245200D01*
X152704800Y-81584800D02*
X152044400Y-82245200D01*
X145517996Y-87680800D02*
X145288000Y-87680800D01*
%TO.N,/Peripherals/LED0*%
X144272000Y-86868000D02*
X145694400Y-86868000D01*
X145694400Y-86868000D02*
X151485600Y-81076800D01*
D20*
%TO.N,+BATT*%
X182050000Y-72600000D02*
X175750000Y-72600000D01*
D19*
X186060500Y-76650000D02*
X186060500Y-76610500D01*
D20*
X175750000Y-72600000D02*
X167900000Y-72600000D01*
X186060500Y-76610500D02*
X182050000Y-72600000D01*
D19*
%TO.N,/STM32/PB8*%
X153000000Y-85750000D02*
X153000000Y-88713604D01*
X149550000Y-107890000D02*
X152660000Y-111000000D01*
X149550000Y-92163604D02*
X149550000Y-107890000D01*
X153000000Y-88713604D02*
X149550000Y-92163604D01*
%TO.N,/STM32/PB9*%
X150000000Y-105800000D02*
X155200000Y-111000000D01*
X153931200Y-88418800D02*
X150000000Y-92350000D01*
X153950000Y-85350000D02*
X153931200Y-85368800D01*
X150000000Y-92350000D02*
X150000000Y-105800000D01*
X153931200Y-85368800D02*
X153931200Y-88418800D01*
%TO.N,/STM32/PC4*%
X155702000Y-89408000D02*
X156565600Y-90271600D01*
X156565600Y-90271600D02*
X156565600Y-91125895D01*
X159664400Y-103031705D02*
X159660000Y-103036105D01*
X159660000Y-103036105D02*
X159660000Y-111000000D01*
X159664400Y-94224695D02*
X159664400Y-103031705D01*
X156565600Y-91125895D02*
X159664400Y-94224695D01*
%TO.N,/STM32/PC5*%
X160114400Y-93796396D02*
X160114400Y-108914400D01*
X157015600Y-90697596D02*
X160114400Y-93796396D01*
X160114400Y-108914400D02*
X162200000Y-111000000D01*
X157015600Y-86657600D02*
X157015600Y-90697596D01*
X156362400Y-86004400D02*
X157015600Y-86657600D01*
D21*
%TO.N,/Peripherals/I2C_SDA*%
X182160050Y-92250000D02*
X179350000Y-89439950D01*
X179350000Y-89439950D02*
X179350000Y-89350000D01*
X175449200Y-84614000D02*
X182505600Y-84614000D01*
D19*
X169223700Y-88577340D02*
X169223700Y-91160000D01*
X173187040Y-84614000D02*
X175449200Y-84614000D01*
D21*
X182505600Y-84614000D02*
X184302400Y-86410800D01*
X182200000Y-92250000D02*
X182160050Y-92250000D01*
D19*
X169223700Y-88577340D02*
X173187040Y-84614000D01*
D21*
%TO.N,/Peripherals/I2C_SCL*%
X183166000Y-86900000D02*
X175500000Y-86900000D01*
X182063200Y-93463200D02*
X175500000Y-86900000D01*
X168200000Y-90212500D02*
X168200000Y-90312500D01*
X182322800Y-93463200D02*
X182063200Y-93463200D01*
X168200000Y-90312500D02*
X168100000Y-90312500D01*
X168100000Y-90312500D02*
X168200000Y-90212500D01*
X168200000Y-89000000D02*
X169800000Y-87400000D01*
X168200000Y-90312500D02*
X168200000Y-89000000D01*
X169800000Y-87400000D02*
X169800000Y-86750000D01*
X184404000Y-88138000D02*
X183166000Y-86900000D01*
D19*
%TO.N,/STM32/QuadSPI_IO2*%
X155702000Y-100380800D02*
X156768800Y-101447600D01*
X155702000Y-92862400D02*
X155702000Y-100380800D01*
%TO.N,/STM32/QuadSPI_IO1*%
X155549600Y-101295200D02*
X155549600Y-101346000D01*
X155549600Y-101346000D02*
X155600400Y-101346000D01*
X155600400Y-101346000D02*
X155498800Y-101244400D01*
X154977000Y-91707800D02*
X154977000Y-100722600D01*
X154977000Y-100722600D02*
X155549600Y-101295200D01*
X155752800Y-90932000D02*
X154977000Y-91707800D01*
%TO.N,/STM32/QuadSPI_IO0*%
X158038800Y-93624400D02*
X156514800Y-92100400D01*
X156514800Y-92100400D02*
X156464000Y-92100400D01*
%TO.N,/STM32/USB_OTG_ID*%
X168757600Y-80924400D02*
X168859200Y-80822800D01*
X168859200Y-80822800D02*
X168859200Y-77673200D01*
%TO.N,/STM32/QuadSPI_NCS*%
X158902400Y-101447600D02*
X156718000Y-103632000D01*
X156718000Y-103632000D02*
X154228800Y-103632000D01*
%TO.N,/Peripherals/BME_CS*%
X176075204Y-83000000D02*
X166529600Y-83000000D01*
X182612200Y-83833800D02*
X176923404Y-83833800D01*
X176089604Y-83000000D02*
X176082404Y-83007200D01*
X182727600Y-83718400D02*
X182612200Y-83833800D01*
X176082404Y-83007200D02*
X176075204Y-83000000D01*
X166529600Y-83000000D02*
X166522400Y-83007200D01*
X176923404Y-83833800D02*
X176089604Y-83000000D01*
%TO.N,/Peripherals/BME_INT*%
X175920400Y-82194400D02*
X165912800Y-82194400D01*
X164998400Y-81838800D02*
X165557200Y-81838800D01*
X181051200Y-83108800D02*
X176834800Y-83108800D01*
X176834800Y-83108800D02*
X175920400Y-82194400D01*
X165912800Y-82194400D02*
X165557200Y-81838800D01*
%TO.N,/Peripherals/LSM_INT1*%
X165100000Y-83820000D02*
X165100000Y-83850000D01*
X165100000Y-83850000D02*
X167900000Y-86650000D01*
%TO.N,/Peripherals/LSM_INT2*%
X161925305Y-81750000D02*
X167875305Y-87700000D01*
X167875305Y-87700000D02*
X167900000Y-87700000D01*
X176954800Y-91650000D02*
X176954800Y-93885200D01*
X159200000Y-81750000D02*
X159150000Y-81700000D01*
X176954800Y-93885200D02*
X179545600Y-96476000D01*
X161953895Y-81750000D02*
X161800000Y-81750000D01*
X161800000Y-81750000D02*
X161925305Y-81750000D01*
X161800000Y-81750000D02*
X159200000Y-81750000D01*
%TO.N,Net-(U201-PA3)*%
X166550000Y-75950000D02*
X163276505Y-75950000D01*
X154676505Y-84550000D02*
X153124695Y-84550000D01*
X153124695Y-84550000D02*
X150350000Y-87324695D01*
X168650000Y-73850000D02*
X166550000Y-75950000D01*
X150350000Y-87324695D02*
X150350000Y-87550000D01*
X163276505Y-75950000D02*
X154676505Y-84550000D01*
%TO.N,/Peripherals/ADX_INT1*%
X173184100Y-91893200D02*
X172689800Y-92387500D01*
X172689800Y-92387500D02*
X168613299Y-92387500D01*
X168613299Y-92387500D02*
X161750000Y-85524201D01*
X161750000Y-85150000D02*
X159700000Y-83100000D01*
X159700000Y-83100000D02*
X159150000Y-83100000D01*
X161750000Y-85524201D02*
X161750000Y-85150000D01*
%TO.N,/Peripherals/ADX_INT2*%
X162850000Y-85987805D02*
X162850000Y-83700000D01*
X168799695Y-91937500D02*
X171789800Y-91937500D01*
X171789800Y-91937500D02*
X172784100Y-90943200D01*
X168799695Y-91937500D02*
X162850000Y-85987805D01*
%TD*%
M02*
